<svg xmlns="http://www.w3.org/2000/svg" height="416px" width="485px" version="1.1"><polyline points="323.0,98.0,305.0,106.0,296.0,110.0,303.0,107.0,311.0,103.0,319.0,100.0,327.0,97.0,335.0,96.0,343.0,95.0,351.0,95.0" stroke="black" stroke-width="1" fill="none" />
<polyline points="348.0,102.0,336.0,110.0,328.0,118.0,320.0,126.0,315.0,134.0,323.0,142.0,331.0,150.0,337.0,158.0" stroke="black" stroke-width="1" fill="none" />
<polyline points="332.0,151.0,324.0,143.0,316.0,136.0" stroke="black" stroke-width="1" fill="none" />
<polyline points="313.0,137.0,321.0,143.0,329.0,151.0" stroke="black" stroke-width="1" fill="none" />
<polyline points="332.0,156.0,325.0,148.0,316.0,140.0,313.0,132.0,318.0,124.0,326.0,116.0,334.0,108.0,347.0,103.0,339.0,109.0,331.0,114.0,323.0,122.0,315.0,133.0" stroke="black" stroke-width="1" fill="none" />
<polyline points="312.0,133.0,320.0,121.0,328.0,114.0,336.0,107.0,344.0,102.0,355.0,99.0,355.0,107.0,354.0,115.0,353.0,123.0,351.0,131.0,349.0,139.0,348.0,147.0,345.0,155.0,342.0,163.0,346.0,164.0,349.0,172.0,351.0,180.0,354.0,188.0,353.0,196.0,342.0,204.0" stroke="black" stroke-width="1" fill="none" />
<polyline points="346.0,203.0,338.0,206.0,330.0,208.0,322.0,210.0,314.0,212.0,306.0,216.0,298.0,220.0,290.0,224.0,282.0,231.0,274.0,240.0,266.0,249.0,258.0,252.0,250.0,250.0,248.0,250.0,238.0,242.0,232.0,234.0" stroke="black" stroke-width="1" fill="none" />
<polyline points="225.0,233.0,215.0,241.0,209.0,249.0,211.0,245.0,219.0,237.0,227.0,233.0,235.0,241.0" stroke="black" stroke-width="1" fill="none" />
<polyline points="233.0,245.0,225.0,251.0,217.0,253.0,209.0,251.0" stroke="black" stroke-width="1" fill="none" />
<polyline points="230.0,277.0,230.0,285.0,227.0,293.0,220.0,301.0,216.0,309.0,209.0,317.0,208.0,318.0,216.0,308.0,224.0,299.0,232.0,303.0" stroke="black" stroke-width="1" fill="none" />
<polyline points="227.0,297.0,235.0,301.0,234.0,304.0,229.0,312.0,218.0,319.0" stroke="black" stroke-width="1" fill="none" />
<polyline points="222.0,320.0,214.0,325.0,206.0,326.0,223.0,319.0" stroke="black" stroke-width="1" fill="none" />
<polyline points="223.0,330.0,228.0,321.0,224.0,329.0,222.0,337.0,222.0,345.0,225.0,353.0,232.0,361.0,238.0,358.0" stroke="black" stroke-width="1" fill="none" />
<polyline points="232.0,358.0,224.0,350.0" stroke="black" stroke-width="1" fill="none" />
<polyline points="233.0,340.0,241.0,345.0,249.0,338.0,257.0,335.0,265.0,318.0,273.0,312.0,281.0,308.0,289.0,307.0,297.0,304.0,305.0,295.0,302.0,303.0,296.0,311.0,289.0,319.0,279.0,327.0,280.0,317.0,288.0,314.0,277.0,320.0,273.0,328.0,281.0,321.0,289.0,315.0,279.0,323.0,272.0,331.0,254.0,339.0,244.0,347.0,238.0,355.0,234.0,363.0,232.0,371.0,233.0,379.0" stroke="black" stroke-width="1" fill="none" />
<polyline points="234.0,393.0,242.0,382.0,250.0,377.0,258.0,374.0,261.0,371.0,269.0,369.0,277.0,365.0,285.0,364.0,293.0,363.0,301.0,362.0,309.0,360.0,317.0,358.0,325.0,356.0,333.0,351.0,341.0,348.0" stroke="black" stroke-width="1" fill="none" />
<polyline points="342.0,347.0,326.0,355.0" stroke="black" stroke-width="1" fill="none" />
<polyline points="334.0,367.0,337.0,362.0,345.0,359.0,348.0,357.0,350.0,365.0,360.0,373.0,348.0,381.0" stroke="black" stroke-width="1" fill="none" />
<polyline points="355.0,390.0,352.0,398.0,356.0,404.0,369.0,412.0" stroke="black" stroke-width="1" fill="none" />
<polyline points="386.0,405.0,378.0,397.0,367.0,389.0" stroke="black" stroke-width="1" fill="none" />
<polyline points="365.0,370.0,357.0,367.0,349.0,358.0" stroke="black" stroke-width="1" fill="none" />
<polyline points="351.0,363.0,363.0,373.0" stroke="black" stroke-width="1" fill="none" />
<polyline points="356.0,370.0,348.0,362.0,340.0,364.0" stroke="black" stroke-width="1" fill="none" />
<polyline points="344.0,362.0,339.0,370.0,341.0,378.0,341.0,378.0,349.0,381.0,357.0,376.0,367.0,375.0" stroke="black" stroke-width="1" fill="none" />
<polyline points="368.0,344.0,360.0,340.0,352.0,337.0,344.0,336.0,336.0,337.0,328.0,341.0,320.0,344.0,312.0,347.0,304.0,349.0,299.0,354.0,291.0,356.0,283.0,356.0,275.0,357.0,267.0,358.0,259.0,365.0" stroke="black" stroke-width="1" fill="none" />
<polyline points="268.0,357.0,259.0,365.0,265.0,371.0,272.0,379.0,275.0,387.0,270.0,395.0,275.0,400.0" stroke="black" stroke-width="1" fill="none" />
<polyline points="277.0,386.0,275.0,378.0" stroke="black" stroke-width="1" fill="none" />
<polyline points="274.0,381.0,266.0,374.0,275.0,365.0" stroke="black" stroke-width="1" fill="none" />
<polyline points="269.0,354.0,258.0,362.0,254.0,370.0,247.0,378.0,238.0,386.0,234.0,394.0,233.0,402.0,234.0,410.0,238.0,414.0,246.0,405.0,254.0,401.0,262.0,399.0,270.0,395.0,273.0,399.0,281.0,402.0,289.0,403.0,297.0,402.0,305.0,401.0,313.0,400.0,321.0,401.0,329.0,401.0,337.0,400.0,345.0,401.0,351.0,402.0,359.0,405.0,367.0,411.0,375.0,413.0,383.0,413.0" stroke="black" stroke-width="1" fill="none" />
<polyline points="368.0,338.0,360.0,331.0,352.0,328.0" stroke="black" stroke-width="1" fill="none" />
<polyline points="353.0,326.0,366.0,334.0,372.0,342.0" stroke="black" stroke-width="1" fill="none" />
<polyline points="366.0,333.0,358.0,328.0,350.0,327.0" stroke="black" stroke-width="1" fill="none" />
<polyline points="351.0,325.0,361.0,333.0,369.0,341.0" stroke="black" stroke-width="1" fill="none" />
<polyline points="380.0,335.0,372.0,328.0,364.0,323.0,356.0,320.0,348.0,318.0,339.0,318.0,331.0,319.0,323.0,322.0,315.0,327.0,307.0,335.0" stroke="black" stroke-width="1" fill="none" />
<polyline points="314.0,349.0,334.0,341.0" stroke="black" stroke-width="1" fill="none" />
<polyline points="335.0,337.0,316.0,345.0" stroke="black" stroke-width="1" fill="none" />
<polyline points="319.0,323.0,310.0,331.0,306.0,339.0,303.0,347.0,306.0,351.0,314.0,349.0,322.0,346.0,330.0,343.0,338.0,340.0,346.0,340.0,354.0,340.0,362.0,343.0,370.0,350.0,381.0,355.0" stroke="black" stroke-width="1" fill="none" />
<polyline points="373.0,365.0,372.0,357.0,369.0,349.0,356.0,341.0" stroke="black" stroke-width="1" fill="none" />
<polyline points="355.0,338.0,370.0,346.0,374.0,354.0" stroke="black" stroke-width="1" fill="none" />
<polyline points="346.0,346.0,345.0,354.0,337.0,362.0,337.0,368.0,337.0,376.0,342.0,384.0,347.0,385.0,355.0,387.0,363.0,388.0,371.0,390.0,379.0,397.0,387.0,405.0" stroke="black" stroke-width="1" fill="none" />
<polyline points="378.0,354.0,380.0,352.0,383.0,344.0,380.0,336.0,371.0,328.0,355.0,320.0" stroke="black" stroke-width="1" fill="none" />
<polyline points="354.0,317.0,372.0,325.0,381.0,333.0,385.0,341.0,384.0,349.0,379.0,357.0,376.0,365.0,376.0,373.0" stroke="black" stroke-width="1" fill="none" />
<polyline points="330.0,317.0,322.0,319.0,314.0,323.0,306.0,332.0,298.0,349.0,290.0,353.0,282.0,354.0,274.0,354.0,266.0,355.0,258.0,362.0,250.0,374.0,247.0,372.0,251.0,364.0,253.0,356.0,248.0,350.0,240.0,353.0,232.0,361.0,224.0,363.0,216.0,360.0,208.0,357.0,200.0,355.0,192.0,354.0,184.0,351.0" stroke="black" stroke-width="1" fill="none" />
<polyline points="184.0,357.0,192.0,356.0,200.0,357.0,208.0,360.0" stroke="black" stroke-width="1" fill="none" />
<polyline points="205.0,359.0,205.0,367.0" stroke="black" stroke-width="1" fill="none" />
<polyline points="204.0,356.0,225.0,364.0,225.0,378.0,227.0,372.0,229.0,378.0" stroke="black" stroke-width="1" fill="none" />
<polyline points="252.0,401.0,244.0,409.0" stroke="black" stroke-width="1" fill="none" />
<polyline points="174.0,382.0,166.0,382.0,158.0,378.0,150.0,377.0,142.0,377.0,134.0,380.0,126.0,388.0,118.0,398.0,110.0,409.0,102.0,413.0,94.0,416.0,86.0,416.0,78.0,413.0" stroke="black" stroke-width="1" fill="none" />
<polyline points="93.0,404.0,96.0,412.0" stroke="black" stroke-width="1" fill="none" />
<polyline points="102.0,413.0,112.0,405.0,119.0,397.0,125.0,389.0,128.0,382.0,128.0,374.0,127.0,366.0,126.0,358.0,124.0,350.0,122.0,342.0,120.0,334.0,119.0,326.0,117.0,318.0,115.0,310.0,113.0,301.0,105.0,292.0,97.0,286.0,89.0,281.0,81.0,279.0,73.0,283.0" stroke="black" stroke-width="1" fill="none" />
<polyline points="74.0,284.0,82.0,295.0,90.0,303.0" stroke="black" stroke-width="1" fill="none" />
<polyline points="96.0,313.0,97.0,321.0,97.0,329.0" stroke="black" stroke-width="1" fill="none" />
<polyline points="73.0,329.0,65.0,329.0,57.0,327.0" stroke="black" stroke-width="1" fill="none" />
<polyline points="55.0,328.0,58.0,336.0,68.0,344.0,74.0,352.0,79.0,360.0,83.0,368.0,87.0,376.0,92.0,384.0,98.0,384.0,96.0,392.0,92.0,400.0,79.0,408.0,77.0,412.0,85.0,404.0,93.0,399.0" stroke="black" stroke-width="1" fill="none" />
<polyline points="93.0,384.0,85.0,371.0,77.0,356.0,69.0,344.0,61.0,338.0,53.0,332.0" stroke="black" stroke-width="1" fill="none" />
<polyline points="41.0,336.0,52.0,328.0,50.0,332.0,42.0,336.0,34.0,339.0,26.0,337.0" stroke="black" stroke-width="1" fill="none" />
<polyline points="45.0,314.0,34.0,322.0,28.0,330.0,26.0,338.0,31.0,326.0,39.0,317.0,47.0,314.0,55.0,314.0,63.0,317.0,71.0,321.0,79.0,330.0,87.0,329.0" stroke="black" stroke-width="1" fill="none" />
<polyline points="72.0,329.0,70.0,321.0,51.0,313.0" stroke="black" stroke-width="1" fill="none" />
<polyline points="74.0,280.0,76.0,288.0,82.0,296.0,90.0,304.0,93.0,312.0,94.0,320.0,91.0,324.0,82.0,332.0,82.0,335.0,90.0,332.0" stroke="black" stroke-width="1" fill="none" />
<polyline points="109.0,299.0,112.0,307.0,110.0,315.0,111.0,323.0,113.0,331.0,115.0,339.0,117.0,341.0,130.0,334.0,138.0,326.0,146.0,321.0,154.0,311.0,162.0,302.0,170.0,306.0,181.0,323.0,189.0,325.0,197.0,326.0,205.0,323.0,213.0,322.0,221.0,317.0" stroke="black" stroke-width="1" fill="none" />
<polyline points="235.0,295.0,243.0,284.0,255.0,279.0,263.0,278.0,271.0,278.0,279.0,279.0" stroke="black" stroke-width="1" fill="none" />
<polyline points="277.0,261.0,283.0,264.0,287.0,272.0,289.0,280.0,289.0,285.0,297.0,288.0,305.0,292.0" stroke="black" stroke-width="1" fill="none" />
<polyline points="316.0,290.0,324.0,295.0,332.0,300.0" stroke="black" stroke-width="1" fill="none" />
<polyline points="334.0,299.0,336.0,291.0,338.0,283.0,341.0,275.0,344.0,267.0,338.0,282.0,330.0,279.0,322.0,278.0" stroke="black" stroke-width="1" fill="none" />
<polyline points="319.0,275.0,327.0,273.0,335.0,269.0,343.0,264.0,335.0,269.0" stroke="black" stroke-width="1" fill="none" />
<polyline points="320.0,273.0,319.0,281.0,317.0,289.0,327.0,297.0,339.0,310.0,343.0,318.0,351.0,316.0,359.0,318.0,367.0,321.0,375.0,327.0,383.0,334.0" stroke="black" stroke-width="1" fill="none" />
<polyline points="327.0,317.0,313.0,325.0,305.0,333.0,302.0,341.0,298.0,349.0" stroke="black" stroke-width="1" fill="none" />
<polyline points="278.0,308.0,267.0,316.0,262.0,324.0,259.0,332.0,246.0,340.0,239.0,348.0,250.0,354.0,247.0,362.0,246.0,368.0,241.0,376.0,235.0,383.0,243.0,374.0,251.0,363.0" stroke="black" stroke-width="1" fill="none" />
<polyline points="298.0,303.0,304.0,295.0,294.0,287.0,283.0,275.0,280.0,267.0,278.0,259.0,274.0,253.0,266.0,252.0,258.0,255.0,250.0,268.0" stroke="black" stroke-width="1" fill="none" />
<polyline points="230.0,277.0,238.0,276.0,246.0,274.0,244.0,287.0,244.0,287.0,252.0,282.0,260.0,281.0,268.0,281.0,276.0,281.0,284.0,283.0" stroke="black" stroke-width="1" fill="none" />
<polyline points="282.0,262.0,274.0,255.0" stroke="black" stroke-width="1" fill="none" />
<polyline points="305.0,238.0,313.0,225.0,321.0,220.0,329.0,217.0,337.0,216.0,345.0,217.0,353.0,220.0,361.0,226.0,369.0,234.0" stroke="black" stroke-width="1" fill="none" />
<polyline points="366.0,242.0,358.0,244.0,350.0,247.0" stroke="black" stroke-width="1" fill="none" />
<polyline points="339.0,254.0,331.0,257.0,323.0,259.0" stroke="black" stroke-width="1" fill="none" />
<polyline points="320.0,297.0,333.0,305.0,337.0,313.0" stroke="black" stroke-width="1" fill="none" />
<polyline points="369.0,237.0,361.0,240.0,353.0,244.0,345.0,250.0,337.0,252.0,329.0,254.0,321.0,259.0,313.0,258.0,311.0,254.0,304.0,250.0,305.0,242.0,307.0,234.0,312.0,226.0,325.0,218.0" stroke="black" stroke-width="1" fill="none" />
<polyline points="320.0,210.0,301.0,218.0,288.0,226.0,279.0,234.0,273.0,242.0,263.0,250.0,258.0,255.0,252.0,263.0,250.0,271.0,247.0,279.0,245.0,279.0,241.0,287.0,240.0,292.0,236.0,294.0,231.0,303.0,232.0,312.0,231.0,320.0,230.0,328.0,232.0,336.0,234.0,344.0,246.0,344.0,254.0,339.0,262.0,336.0,270.0,332.0,278.0,328.0,286.0,321.0,294.0,313.0,302.0,302.0,310.0,296.0,318.0,296.0,326.0,300.0,334.0,306.0,342.0,308.0,350.0,307.0,358.0,306.0,366.0,304.0,374.0,302.0,382.0,298.0,390.0,293.0,398.0,288.0,406.0,281.0,414.0,274.0,422.0,265.0,430.0,254.0,438.0,249.0,446.0,249.0,454.0,250.0,462.0,254.0,470.0,263.0" stroke="black" stroke-width="1" fill="none" />
<polyline points="480.0,252.0,474.0,244.0,464.0,252.0,456.0,248.0" stroke="black" stroke-width="1" fill="none" />
<polyline points="455.0,251.0,466.0,259.0,471.0,267.0,472.0,275.0,471.0,283.0,466.0,291.0,462.0,299.0,456.0,307.0,451.0,315.0,443.0,323.0,437.0,331.0,428.0,339.0,418.0,347.0,410.0,355.0,394.0,363.0,375.0,371.0,383.0,370.0,391.0,365.0,399.0,361.0,407.0,357.0,415.0,350.0,423.0,344.0,431.0,336.0,439.0,329.0,447.0,318.0,455.0,308.0,463.0,296.0,471.0,281.0" stroke="black" stroke-width="1" fill="none" />
<polyline points="469.0,249.0,473.0,241.0,466.0,238.0,461.0,236.0,453.0,234.0,445.0,235.0,437.0,245.0" stroke="black" stroke-width="1" fill="none" />
<polyline points="439.0,246.0,444.0,246.0,452.0,247.0,466.0,238.0" stroke="black" stroke-width="1" fill="none" />
<polyline points="458.0,235.0,457.0,243.0,463.0,252.0" stroke="black" stroke-width="1" fill="none" />
<polyline points="477.0,246.0,469.0,236.0,461.0,233.0,453.0,231.0,445.0,232.0" stroke="black" stroke-width="1" fill="none" />
<polyline points="444.0,230.0,452.0,214.0" stroke="black" stroke-width="1" fill="none" />
<polyline points="477.0,170.0,469.0,157.0,461.0,156.0" stroke="black" stroke-width="1" fill="none" />
<polyline points="462.0,153.0,461.0,161.0,461.0,169.0,460.0,177.0,459.0,185.0,457.0,193.0,456.0,201.0,454.0,209.0,451.0,217.0,447.0,225.0,442.0,235.0,438.0,243.0,431.0,253.0,425.0,261.0,417.0,269.0,411.0,277.0,402.0,285.0,389.0,293.0,375.0,301.0" stroke="black" stroke-width="1" fill="none" />
<polyline points="442.0,300.0,434.0,306.0,433.0,307.0,444.0,299.0" stroke="black" stroke-width="1" fill="none" />
<polyline points="341.0,252.0,355.0,243.0,368.0,240.0,367.0,233.0,359.0,225.0,344.0,217.0" stroke="black" stroke-width="1" fill="none" />
<polyline points="301.0,183.0,292.0,191.0,284.0,199.0,278.0,207.0,275.0,215.0,278.0,207.0,286.0,197.0,294.0,189.0" stroke="black" stroke-width="1" fill="none" />
<polyline points="298.0,182.0,289.0,190.0,281.0,198.0,276.0,206.0,272.0,214.0,274.0,209.0,282.0,197.0,290.0,189.0,298.0,182.0" stroke="black" stroke-width="1" fill="none" />
<polyline points="227.0,210.0,219.0,202.0,211.0,196.0" stroke="black" stroke-width="1" fill="none" />
<polyline points="212.0,194.0,222.0,202.0,230.0,210.0,234.0,218.0" stroke="black" stroke-width="1" fill="none" />
<polyline points="233.0,214.0,225.0,204.0,217.0,196.0,209.0,195.0" stroke="black" stroke-width="1" fill="none" />
<polyline points="210.0,193.0,217.0,201.0,225.0,209.0,231.0,217.0" stroke="black" stroke-width="1" fill="none" />
<polyline points="245.0,245.0,237.0,239.0,229.0,230.0,221.0,224.0,213.0,221.0,205.0,215.0,197.0,205.0" stroke="black" stroke-width="1" fill="none" />
<polyline points="193.0,161.0,185.0,141.0" stroke="black" stroke-width="1" fill="none" />
<polyline points="181.0,109.0,189.0,107.0,197.0,108.0,205.0,109.0,213.0,111.0,221.0,113.0,229.0,115.0" stroke="black" stroke-width="1" fill="none" />
<polyline points="252.0,108.0,235.0,116.0,230.0,116.0,226.0,121.0,229.0,119.0,232.0,120.0,240.0,113.0,248.0,110.0,256.0,108.0,264.0,106.0,272.0,105.0,280.0,105.0,288.0,105.0,296.0,107.0" stroke="black" stroke-width="1" fill="none" />
<polyline points="184.0,107.0,181.0,115.0,181.0,123.0,183.0,131.0,184.0,139.0,188.0,147.0,191.0,155.0,193.0,163.0,198.0,171.0,196.0,179.0,196.0,187.0,195.0,195.0,196.0,203.0,200.0,211.0,209.0,219.0,224.0,227.0,230.0,235.0,235.0,243.0,224.0,251.0" stroke="black" stroke-width="1" fill="none" />
<polyline points="167.0,303.0,171.0,311.0,175.0,319.0,176.0,327.0,178.0,335.0,179.0,343.0,181.0,351.0,181.0,359.0,181.0,367.0,179.0,375.0" stroke="black" stroke-width="1" fill="none" />
<polyline points="166.0,328.0,158.0,322.0" stroke="black" stroke-width="1" fill="none" />
<polyline points="156.0,321.0,164.0,322.0" stroke="black" stroke-width="1" fill="none" />
<polyline points="162.0,321.0,170.0,329.0" stroke="black" stroke-width="1" fill="none" />
<polyline points="179.0,323.0,180.0,331.0,181.0,339.0,183.0,347.0,184.0,357.0,184.0,365.0,183.0,373.0,189.0,374.0,197.0,371.0,205.0,367.0" stroke="black" stroke-width="1" fill="none" />
<polyline points="164.0,327.0,158.0,319.0" stroke="black" stroke-width="1" fill="none" />
<polyline points="161.0,302.0,155.0,310.0,152.0,318.0,138.0,326.0,130.0,334.0,126.0,342.0,126.0,350.0,128.0,358.0,129.0,366.0" stroke="black" stroke-width="1" fill="none" />
<polyline points="108.0,382.0,110.0,383.0,111.0,386.0" stroke="black" stroke-width="1" fill="none" />
<polyline points="102.0,302.0,94.0,305.0,108.0,297.0,100.0,289.0,88.0,281.0" stroke="black" stroke-width="1" fill="none" />
<polyline points="482.0,250.0,484.0,242.0,484.0,234.0,485.0,226.0,485.0,218.0,485.0,210.0,484.0,202.0,483.0,194.0,482.0,186.0,480.0,178.0,476.0,170.0,471.0,162.0,465.0,154.0" stroke="black" stroke-width="1" fill="none" />
</svg>