<svg xmlns="http://www.w3.org/2000/svg" height="529px" width="511px" version="1.1"><polyline points="117.0,2.0,119.0,10.0,117.0,18.0,117.0,32.0,115.0,38.0,113.0,44.0,111.0,50.0,108.0,56.0,104.0,64.0,103.0,70.0,98.0,78.0,98.0,84.0,94.0,92.0,93.0,100.0,93.0,108.0,93.0,116.0,92.0,124.0,91.0,132.0,91.0,140.0,91.0,148.0,92.0,156.0,93.0,164.0,96.0,172.0,99.0,180.0,102.0,188.0,104.0,196.0,108.0,204.0,108.0,212.0,111.0,220.0,115.0,228.0,119.0,236.0,123.0,244.0,128.0,251.0,130.0,259.0,132.0,267.0,135.0,275.0,137.0,283.0,142.0,292.0,146.0,300.0,151.0,308.0,170.0,314.0,176.0,322.0,185.0,330.0,195.0,338.0,196.0,346.0,197.0,354.0,202.0,355.0,199.0,356.0,205.0,354.0" stroke="black" stroke-width="1" fill="none" />
<polyline points="208.0,352.0,206.0,344.0,198.0,339.0,197.0,331.0,189.0,323.0,182.0,315.0,176.0,311.0,168.0,303.0,163.0,305.0,155.0,303.0,147.0,292.0" stroke="black" stroke-width="1" fill="none" />
<polyline points="139.0,288.0,147.0,305.0,155.0,312.0,163.0,318.0,171.0,323.0,179.0,338.0" stroke="black" stroke-width="1" fill="none" />
<polyline points="186.0,319.0,194.0,326.0,202.0,329.0,210.0,328.0,218.0,326.0,226.0,322.0,234.0,315.0,242.0,307.0,246.0,301.0,241.0,309.0,232.0,317.0,222.0,325.0" stroke="black" stroke-width="1" fill="none" />
<polyline points="207.0,331.0,199.0,333.0" stroke="black" stroke-width="1" fill="none" />
<polyline points="200.0,339.0,199.0,347.0" stroke="black" stroke-width="1" fill="none" />
<polyline points="172.0,368.0,164.0,362.0" stroke="black" stroke-width="1" fill="none" />
<polyline points="165.0,360.0,168.0,368.0,175.0,376.0,182.0,384.0" stroke="black" stroke-width="1" fill="none" />
<polyline points="182.0,383.0,174.0,374.0,166.0,364.0" stroke="black" stroke-width="1" fill="none" />
<polyline points="167.0,361.0,172.0,369.0" stroke="black" stroke-width="1" fill="none" />
<polyline points="176.0,367.0,168.0,356.0,160.0,343.0,152.0,335.0,144.0,325.0,136.0,314.0" stroke="black" stroke-width="1" fill="none" />
<polyline points="134.0,310.0,142.0,318.0,150.0,327.0,158.0,334.0,166.0,340.0,174.0,344.0" stroke="black" stroke-width="1" fill="none" />
<polyline points="175.0,345.0,161.0,337.0,151.0,329.0,143.0,321.0,138.0,313.0,133.0,305.0,132.0,297.0,131.0,289.0,129.0,281.0,127.0,273.0,123.0,265.0,121.0,257.0,117.0,249.0,108.0,241.0,101.0,233.0,97.0,225.0,95.0,217.0,92.0,213.0" stroke="black" stroke-width="1" fill="none" />
<polyline points="97.0,223.0,105.0,238.0,113.0,244.0,121.0,257.0,129.0,279.0" stroke="black" stroke-width="1" fill="none" />
<polyline points="151.0,276.0,159.0,291.0,167.0,301.0,175.0,310.0,183.0,315.0,191.0,319.0,199.0,319.0,207.0,319.0,215.0,318.0,223.0,315.0,231.0,310.0,239.0,303.0,247.0,295.0,255.0,285.0,263.0,274.0,271.0,258.0" stroke="black" stroke-width="1" fill="none" />
<polyline points="283.0,253.0,291.0,244.0" stroke="black" stroke-width="1" fill="none" />
<polyline points="296.0,231.0,289.0,242.0,281.0,252.0,273.0,260.0,284.0,252.0,291.0,244.0,296.0,236.0,297.0,226.0,297.0,218.0,298.0,210.0,295.0,200.0,287.0,207.0" stroke="black" stroke-width="1" fill="none" />
<polyline points="288.0,206.0,287.0,214.0,291.0,223.0,287.0,232.0" stroke="black" stroke-width="1" fill="none" />
<polyline points="282.0,241.0,278.0,255.0,286.0,247.0,292.0,239.0,296.0,231.0,300.0,223.0,294.0,213.0,286.0,215.0" stroke="black" stroke-width="1" fill="none" />
<polyline points="285.0,221.0,294.0,215.0,295.0,223.0" stroke="black" stroke-width="1" fill="none" />
<polyline points="252.0,232.0,244.0,229.0" stroke="black" stroke-width="1" fill="none" />
<polyline points="235.0,232.0,242.0,229.0,252.0,237.0,243.0,245.0" stroke="black" stroke-width="1" fill="none" />
<polyline points="254.0,231.0,246.0,227.0,238.0,228.0,230.0,228.0,222.0,228.0" stroke="black" stroke-width="1" fill="none" />
<polyline points="219.0,230.0,227.0,225.0,235.0,225.0,244.0,227.0,255.0,238.0,247.0,246.0,251.0,243.0" stroke="black" stroke-width="1" fill="none" />
<polyline points="269.0,268.0,261.0,280.0" stroke="black" stroke-width="1" fill="none" />
<polyline points="276.0,280.0,284.0,262.0,292.0,253.0,300.0,247.0,308.0,231.0,316.0,218.0,324.0,206.0,332.0,192.0,340.0,179.0,348.0,166.0,356.0,153.0,364.0,136.0,374.0,122.0,369.0,124.0,366.0,132.0,362.0,140.0,359.0,148.0,354.0,156.0,350.0,164.0,345.0,172.0,340.0,180.0,335.0,188.0,330.0,196.0,325.0,204.0,320.0,212.0,315.0,220.0,310.0,228.0,305.0,236.0,301.0,244.0,293.0,252.0,286.0,260.0,281.0,268.0,278.0,276.0,275.0,284.0,274.0,292.0,272.0,300.0" stroke="black" stroke-width="1" fill="none" />
<polyline points="271.0,301.0,263.0,299.0,255.0,307.0" stroke="black" stroke-width="1" fill="none" />
<polyline points="261.0,305.0,269.0,309.0,269.0,315.0,270.0,323.0,271.0,331.0,266.0,339.0,262.0,344.0,270.0,337.0" stroke="black" stroke-width="1" fill="none" />
<polyline points="263.0,346.0,271.0,343.0,279.0,341.0,287.0,353.0,306.0,361.0" stroke="black" stroke-width="1" fill="none" />
<polyline points="297.0,375.0,315.0,383.0" stroke="black" stroke-width="1" fill="none" />
<polyline points="333.0,367.0,325.0,365.0,317.0,365.0,309.0,362.0,301.0,358.0,293.0,355.0,285.0,351.0,277.0,348.0" stroke="black" stroke-width="1" fill="none" />
<polyline points="261.0,357.0,253.0,359.0,245.0,359.0,237.0,359.0" stroke="black" stroke-width="1" fill="none" />
<polyline points="265.0,367.0,270.0,369.0,265.0,377.0,270.0,378.0,266.0,386.0,262.0,394.0,262.0,399.0,262.0,407.0,261.0,415.0,260.0,423.0,256.0,431.0,251.0,439.0,247.0,447.0,247.0,455.0" stroke="black" stroke-width="1" fill="none" />
<polyline points="248.0,442.0,256.0,431.0" stroke="black" stroke-width="1" fill="none" />
<polyline points="265.0,421.0,257.0,436.0,249.0,449.0,253.0,442.0,258.0,434.0,263.0,426.0,267.0,418.0,271.0,410.0,272.0,402.0,272.0,394.0,275.0,386.0,270.0,382.0,273.0,372.0,266.0,368.0" stroke="black" stroke-width="1" fill="none" />
<polyline points="276.0,370.0,276.0,378.0,273.0,386.0,274.0,396.0,274.0,404.0,273.0,412.0,269.0,420.0,264.0,428.0,260.0,436.0,255.0,444.0" stroke="black" stroke-width="1" fill="none" />
<polyline points="214.0,450.0,206.0,431.0" stroke="black" stroke-width="1" fill="none" />
<polyline points="204.0,410.0,205.0,418.0,205.0,426.0,207.0,434.0,210.0,442.0,214.0,450.0,217.0,458.0,221.0,460.0,229.0,461.0,237.0,461.0,245.0,458.0,253.0,447.0,262.0,432.0,270.0,417.0" stroke="black" stroke-width="1" fill="none" />
<polyline points="264.0,383.0,272.0,378.0" stroke="black" stroke-width="1" fill="none" />
<polyline points="263.0,381.0,271.0,368.0,279.0,371.0,287.0,373.0,295.0,374.0,303.0,377.0,311.0,381.0,319.0,384.0,327.0,382.0,331.0,367.0,333.0,375.0,323.0,386.0,331.0,389.0,339.0,390.0,347.0,390.0,355.0,388.0,363.0,376.0,371.0,380.0,379.0,383.0,387.0,389.0,395.0,393.0,403.0,390.0,411.0,386.0,419.0,380.0,427.0,370.0,435.0,358.0,443.0,352.0" stroke="black" stroke-width="1" fill="none" />
<polyline points="454.0,304.0,446.0,295.0" stroke="black" stroke-width="1" fill="none" />
<polyline points="441.0,270.0,433.0,263.0,425.0,259.0,417.0,250.0" stroke="black" stroke-width="1" fill="none" />
<polyline points="393.0,274.0,385.0,289.0,377.0,304.0,369.0,324.0,361.0,339.0,353.0,346.0,345.0,350.0,355.0,345.0,362.0,337.0,366.0,329.0,370.0,321.0,374.0,313.0,377.0,305.0,381.0,297.0,385.0,289.0,389.0,281.0,394.0,273.0,397.0,265.0,400.0,257.0,399.0,249.0,399.0,241.0,398.0,233.0,394.0,225.0" stroke="black" stroke-width="1" fill="none" />
<polyline points="394.0,225.0,405.0,228.0,411.0,236.0,413.0,244.0,418.0,252.0,426.0,260.0,439.0,268.0,443.0,276.0,445.0,284.0,445.0,292.0,449.0,300.0,456.0,308.0,459.0,316.0,456.0,324.0,453.0,332.0,451.0,340.0,449.0,348.0,437.0,356.0,431.0,364.0,425.0,372.0,419.0,380.0,407.0,388.0" stroke="black" stroke-width="1" fill="none" />
<polyline points="393.0,393.0,381.0,385.0,365.0,377.0" stroke="black" stroke-width="1" fill="none" />
<polyline points="361.0,376.0,359.0,384.0" stroke="black" stroke-width="1" fill="none" />
<polyline points="348.0,333.0,342.0,350.0,344.0,342.0,348.0,334.0,353.0,323.0,355.0,315.0,359.0,307.0,359.0,299.0,361.0,291.0,363.0,283.0,366.0,275.0,370.0,267.0,373.0,259.0,373.0,251.0,375.0,243.0,379.0,235.0,387.0,227.0,383.0,230.0,375.0,241.0" stroke="black" stroke-width="1" fill="none" />
<polyline points="371.0,265.0,363.0,280.0" stroke="black" stroke-width="1" fill="none" />
<polyline points="346.0,256.0,354.0,243.0" stroke="black" stroke-width="1" fill="none" />
<polyline points="344.0,206.0,333.0,214.0,324.0,219.0,332.0,215.0,340.0,210.0,348.0,205.0,356.0,208.0,364.0,216.0,372.0,220.0,380.0,222.0,388.0,223.0,396.0,223.0,404.0,226.0,412.0,235.0,420.0,229.0,428.0,223.0,436.0,216.0,444.0,209.0,452.0,200.0" stroke="black" stroke-width="1" fill="none" />
<polyline points="469.0,200.0,477.0,198.0,485.0,194.0,493.0,190.0" stroke="black" stroke-width="1" fill="none" />
<polyline points="494.0,191.0,493.0,199.0,487.0,207.0,476.0,215.0,461.0,223.0,454.0,225.0,446.0,233.0,447.0,235.0,455.0,235.0,456.0,227.0,464.0,222.0,472.0,217.0,480.0,213.0,488.0,205.0" stroke="black" stroke-width="1" fill="none" />
<polyline points="467.0,216.0,459.0,221.0,453.0,222.0,445.0,230.0,437.0,239.0,434.0,237.0,428.0,240.0,422.0,242.0,431.0,241.0,444.0,232.0,451.0,224.0,466.0,217.0,469.0,210.0,466.0,202.0,465.0,194.0,466.0,186.0,467.0,178.0,468.0,170.0,469.0,162.0,471.0,154.0,473.0,146.0,475.0,138.0,477.0,130.0,479.0,122.0,479.0,120.0" stroke="black" stroke-width="1" fill="none" />
<polyline points="481.0,121.0,489.0,129.0,494.0,137.0,497.0,145.0,501.0,153.0,507.0,161.0,509.0,169.0,503.0,177.0,490.0,185.0,475.0,193.0,466.0,202.0,474.0,194.0,482.0,189.0,490.0,185.0,498.0,180.0,506.0,175.0" stroke="black" stroke-width="1" fill="none" />
<polyline points="511.0,173.0,506.0,181.0,501.0,189.0,497.0,197.0,494.0,205.0,491.0,211.0,486.0,219.0,473.0,227.0,457.0,234.0,463.0,232.0,469.0,229.0,475.0,226.0,481.0,223.0,489.0,215.0,497.0,197.0,505.0,183.0" stroke="black" stroke-width="1" fill="none" />
<polyline points="507.0,161.0,499.0,148.0" stroke="black" stroke-width="1" fill="none" />
<polyline points="508.0,158.0,500.0,144.0,492.0,131.0,484.0,124.0" stroke="black" stroke-width="1" fill="none" />
<polyline points="486.0,123.0,494.0,131.0,498.0,139.0,501.0,147.0,505.0,155.0" stroke="black" stroke-width="1" fill="none" />
<polyline points="492.0,127.0,484.0,120.0,476.0,121.0" stroke="black" stroke-width="1" fill="none" />
<polyline points="477.0,118.0,476.0,126.0,474.0,134.0,472.0,142.0,470.0,150.0,468.0,158.0,466.0,166.0,465.0,174.0,464.0,182.0,463.0,190.0" stroke="black" stroke-width="1" fill="none" />
<polyline points="454.0,198.0,446.0,193.0,438.0,183.0,430.0,173.0,422.0,161.0,414.0,152.0,405.0,143.0,397.0,135.0,389.0,128.0,375.0,125.0,362.0,119.0,354.0,119.0,346.0,119.0,338.0,118.0,330.0,117.0,322.0,118.0,314.0,120.0,306.0,124.0,298.0,129.0,297.0,132.0" stroke="black" stroke-width="1" fill="none" />
<polyline points="278.0,140.0,270.0,128.0,262.0,121.0,254.0,115.0" stroke="black" stroke-width="1" fill="none" />
<polyline points="239.0,107.0,254.0,115.0,264.0,123.0,272.0,131.0" stroke="black" stroke-width="1" fill="none" />
<polyline points="249.0,93.0,241.0,82.0,233.0,75.0,225.0,73.0,217.0,74.0,209.0,76.0,201.0,81.0,193.0,85.0,185.0,84.0,177.0,83.0,169.0,84.0,161.0,82.0,153.0,73.0" stroke="black" stroke-width="1" fill="none" />
<polyline points="157.0,83.0,165.0,86.0,173.0,85.0,182.0,86.0,190.0,87.0,199.0,89.0,207.0,94.0,215.0,101.0,229.0,104.0" stroke="black" stroke-width="1" fill="none" />
<polyline points="242.0,84.0,248.0,92.0,251.0,98.0,250.0,106.0,253.0,107.0,258.0,115.0,268.0,123.0,275.0,131.0,280.0,139.0,281.0,147.0,284.0,155.0,286.0,163.0,287.0,171.0,288.0,179.0,287.0,187.0,287.0,195.0,286.0,203.0,284.0,211.0,283.0,219.0,282.0,227.0,280.0,235.0,278.0,243.0,274.0,251.0,271.0,259.0,267.0,267.0,263.0,275.0,257.0,283.0,251.0,291.0,243.0,299.0,235.0,307.0,222.0,315.0" stroke="black" stroke-width="1" fill="none" />
<polyline points="256.0,317.0,264.0,310.0,261.0,312.0,250.0,315.0,250.0,323.0,251.0,331.0,252.0,340.0,253.0,348.0" stroke="black" stroke-width="1" fill="none" />
<polyline points="243.0,323.0,235.0,329.0,227.0,333.0,219.0,336.0,205.0,337.0,195.0,337.0,187.0,330.0,179.0,323.0,171.0,314.0,163.0,314.0,155.0,309.0,147.0,300.0,139.0,280.0,132.0,264.0,128.0,241.0,126.0,233.0,125.0,225.0,125.0,217.0,124.0,209.0,124.0,201.0,126.0,193.0,130.0,185.0,132.0,177.0,131.0,169.0,130.0,161.0,130.0,153.0,129.0,145.0,128.0,137.0,127.0,129.0,125.0,121.0,125.0,113.0,124.0,105.0,124.0,97.0,124.0,89.0,124.0,81.0,125.0,73.0,125.0,65.0,126.0,57.0,129.0,49.0,127.0,51.0" stroke="black" stroke-width="1" fill="none" />
<polyline points="131.0,48.0,133.0,56.0,134.0,64.0,134.0,72.0,135.0,80.0,134.0,88.0,130.0,96.0,132.0,100.0,131.0,108.0,131.0,116.0,131.0,124.0,131.0,132.0,131.0,140.0,131.0,149.0,132.0,158.0,133.0,166.0,133.0,174.0,138.0,188.0" stroke="black" stroke-width="1" fill="none" />
<polyline points="133.0,184.0,131.0,191.0" stroke="black" stroke-width="1" fill="none" />
<polyline points="127.0,197.0,127.0,197.0,126.0,205.0,127.0,213.0,128.0,221.0,132.0,229.0" stroke="black" stroke-width="1" fill="none" />
<polyline points="129.0,227.0,137.0,238.0" stroke="black" stroke-width="1" fill="none" />
<polyline points="137.0,231.0,136.0,223.0,134.0,215.0,136.0,207.0,131.0,205.0,137.0,194.0,135.0,186.0,124.0,199.0" stroke="black" stroke-width="1" fill="none" />
<polyline points="126.0,221.0,130.0,229.0,134.0,237.0,139.0,245.0,141.0,253.0,143.0,261.0,146.0,269.0,148.0,277.0,146.0,285.0,147.0,293.0,152.0,301.0" stroke="black" stroke-width="1" fill="none" />
<polyline points="190.0,285.0,198.0,289.0" stroke="black" stroke-width="1" fill="none" />
<polyline points="207.0,287.0,205.0,283.0,197.0,282.0,189.0,282.0" stroke="black" stroke-width="1" fill="none" />
<polyline points="190.0,281.0,193.0,289.0,202.0,292.0" stroke="black" stroke-width="1" fill="none" />
<polyline points="230.0,249.0,219.0,241.0,219.0,233.0,217.0,230.0,217.0,229.0" stroke="black" stroke-width="1" fill="none" />
<polyline points="217.0,236.0,225.0,243.0,233.0,247.0,241.0,246.0,249.0,241.0" stroke="black" stroke-width="1" fill="none" />
<polyline points="256.0,220.0,248.0,218.0,240.0,217.0,232.0,216.0" stroke="black" stroke-width="1" fill="none" />
<polyline points="218.0,214.0,226.0,214.0,234.0,214.0,242.0,215.0,250.0,216.0,258.0,218.0" stroke="black" stroke-width="1" fill="none" />
<polyline points="236.0,249.0,228.0,248.0,220.0,241.0" stroke="black" stroke-width="1" fill="none" />
<polyline points="219.0,236.0,225.0,244.0" stroke="black" stroke-width="1" fill="none" />
<polyline points="199.0,240.0,199.0,248.0,198.0,256.0,196.0,264.0" stroke="black" stroke-width="1" fill="none" />
<polyline points="201.0,271.0,194.0,271.0,194.0,263.0,196.0,255.0,197.0,247.0,197.0,239.0" stroke="black" stroke-width="1" fill="none" />
<polyline points="187.0,225.0,179.0,221.0" stroke="black" stroke-width="1" fill="none" />
<polyline points="175.0,223.0,186.0,225.0,188.0,233.0" stroke="black" stroke-width="1" fill="none" />
<polyline points="180.0,242.0,172.0,243.0,164.0,239.0" stroke="black" stroke-width="1" fill="none" />
<polyline points="156.0,225.0,164.0,236.0,172.0,240.0,180.0,240.0,188.0,232.0" stroke="black" stroke-width="1" fill="none" />
<polyline points="186.0,221.0,178.0,221.0,170.0,219.0,162.0,219.0" stroke="black" stroke-width="1" fill="none" />
<polyline points="155.0,222.0,153.0,223.0,154.0,227.0,158.0,235.0,164.0,237.0" stroke="black" stroke-width="1" fill="none" />
<polyline points="153.0,222.0,161.0,219.0,169.0,217.0,177.0,218.0,191.0,226.0,190.0,234.0,183.0,241.0,191.0,232.0" stroke="black" stroke-width="1" fill="none" />
<polyline points="184.0,212.0,176.0,209.0,168.0,208.0,160.0,206.0" stroke="black" stroke-width="1" fill="none" />
<polyline points="153.0,205.0,155.0,203.0,163.0,204.0,171.0,206.0,179.0,208.0,187.0,211.0" stroke="black" stroke-width="1" fill="none" />
<polyline points="152.0,143.0,160.0,131.0,168.0,123.0,176.0,116.0,184.0,111.0,192.0,108.0,200.0,105.0,208.0,104.0,216.0,103.0,224.0,101.0,234.0,105.0,242.0,105.0,247.0,107.0,251.0,109.0,258.0,114.0,266.0,121.0,274.0,129.0,282.0,142.0,290.0,133.0,298.0,126.0,306.0,121.0,314.0,117.0,322.0,116.0,330.0,115.0,338.0,116.0,346.0,117.0,354.0,116.0,362.0,116.0,370.0,119.0,378.0,123.0,386.0,124.0,394.0,129.0,402.0,136.0,410.0,144.0,418.0,152.0,426.0,163.0,434.0,174.0,442.0,184.0,450.0,193.0,458.0,195.0" stroke="black" stroke-width="1" fill="none" />
<polyline points="416.0,232.0,426.0,224.0,436.0,216.0,445.0,208.0,452.0,200.0,445.0,192.0,438.0,184.0,432.0,176.0,426.0,168.0,420.0,160.0,413.0,152.0,406.0,144.0,398.0,136.0,388.0,128.0" stroke="black" stroke-width="1" fill="none" />
<polyline points="387.0,125.0,398.0,133.0,406.0,141.0,414.0,149.0,421.0,157.0,427.0,165.0,433.0,173.0,439.0,181.0,445.0,189.0" stroke="black" stroke-width="1" fill="none" />
<polyline points="380.0,147.0,372.0,159.0,364.0,167.0,356.0,174.0,348.0,180.0,340.0,189.0,332.0,199.0,324.0,210.0,318.0,221.0,322.0,213.0,328.0,205.0,334.0,197.0,340.0,189.0,345.0,183.0,354.0,175.0,364.0,167.0,372.0,159.0,378.0,151.0,383.0,143.0,384.0,135.0,385.0,127.0" stroke="black" stroke-width="1" fill="none" />
<polyline points="369.0,140.0,369.0,148.0,362.0,153.0,361.0,161.0,354.0,163.0,351.0,171.0,345.0,179.0,350.0,172.0,359.0,155.0" stroke="black" stroke-width="1" fill="none" />
<polyline points="361.0,151.0,359.0,159.0,356.0,167.0" stroke="black" stroke-width="1" fill="none" />
<polyline points="364.0,157.0,364.0,163.0,365.0,155.0,367.0,147.0,367.0,139.0" stroke="black" stroke-width="1" fill="none" />
<polyline points="317.0,116.0,301.0,124.0,291.0,132.0,284.0,140.0" stroke="black" stroke-width="1" fill="none" />
<polyline points="315.0,119.0,301.0,127.0,298.0,133.0,302.0,141.0,303.0,149.0,303.0,157.0,302.0,165.0,302.0,173.0,300.0,181.0,298.0,189.0,296.0,197.0,288.0,204.0,296.0,212.0,290.0,218.0,285.0,226.0,284.0,234.0,281.0,242.0,278.0,250.0,272.0,262.0,268.0,270.0,264.0,278.0,257.0,287.0,251.0,295.0,250.0,303.0,250.0,311.0,246.0,319.0,237.0,327.0,221.0,335.0,213.0,342.0,214.0,350.0" stroke="black" stroke-width="1" fill="none" />
<polyline points="186.0,394.0,178.0,388.0,170.0,381.0,162.0,374.0" stroke="black" stroke-width="1" fill="none" />
<polyline points="161.0,372.0,168.0,380.0,178.0,388.0,187.0,396.0,191.0,404.0,191.0,412.0,190.0,420.0,189.0,428.0,187.0,436.0,185.0,444.0,182.0,452.0" stroke="black" stroke-width="1" fill="none" />
<polyline points="200.0,409.0,200.0,411.0,200.0,419.0,199.0,427.0,199.0,435.0,199.0,443.0,199.0,451.0,198.0,459.0,197.0,467.0,193.0,475.0,190.0,483.0,185.0,491.0,180.0,499.0,172.0,507.0,168.0,515.0,164.0,523.0" stroke="black" stroke-width="1" fill="none" />
<polyline points="96.0,475.0,93.0,467.0,91.0,458.0,90.0,450.0,91.0,442.0,92.0,434.0,96.0,425.0,100.0,417.0,104.0,409.0,111.0,401.0,117.0,393.0,124.0,385.0,130.0,377.0,137.0,369.0,145.0,361.0,152.0,352.0,154.0,344.0,150.0,346.0" stroke="black" stroke-width="1" fill="none" />
<polyline points="157.0,342.0,164.0,350.0,169.0,358.0,175.0,366.0,176.0,374.0" stroke="black" stroke-width="1" fill="none" />
<polyline points="164.0,373.0,173.0,381.0,183.0,389.0" stroke="black" stroke-width="1" fill="none" />
<polyline points="185.0,390.0,177.0,383.0,169.0,377.0,161.0,372.0" stroke="black" stroke-width="1" fill="none" />
<polyline points="143.0,364.0,135.0,371.0,127.0,381.0,119.0,391.0,111.0,400.0,103.0,411.0,95.0,426.0" stroke="black" stroke-width="1" fill="none" />
<polyline points="92.0,426.0,100.0,411.0,108.0,400.0,116.0,390.0,124.0,380.0,132.0,370.0,140.0,363.0,148.0,354.0" stroke="black" stroke-width="1" fill="none" />
<polyline points="182.0,344.0,177.0,336.0,173.0,328.0,167.0,320.0,154.0,312.0,146.0,304.0,142.0,296.0,139.0,288.0,138.0,280.0,136.0,272.0,134.0,264.0,131.0,256.0,128.0,245.0,122.0,237.0,118.0,229.0,115.0,221.0,111.0,213.0,105.0,204.0,102.0,196.0,90.0,201.0,82.0,202.0,81.0,209.0" stroke="black" stroke-width="1" fill="none" />
<polyline points="77.0,213.0,80.0,206.0,77.0,214.0,78.0,222.0,80.0,230.0" stroke="black" stroke-width="1" fill="none" />
<polyline points="76.0,226.0,75.0,219.0,73.0,211.0,72.0,203.0,71.0,204.0" stroke="black" stroke-width="1" fill="none" />
<polyline points="49.0,200.0,52.0,208.0,56.0,216.0,56.0,224.0,59.0,227.0,67.0,227.0,81.0,224.0,89.0,234.0,97.0,240.0" stroke="black" stroke-width="1" fill="none" />
<polyline points="133.0,229.0,125.0,224.0,122.0,210.0,120.0,202.0,119.0,194.0,118.0,186.0,116.0,178.0,112.0,169.0,111.0,161.0,109.0,153.0,107.0,145.0,107.0,137.0,106.0,129.0,105.0,121.0,105.0,117.0" stroke="black" stroke-width="1" fill="none" />
<polyline points="107.0,118.0,109.0,126.0,112.0,134.0,114.0,142.0,114.0,150.0,114.0,156.0,115.0,164.0,115.0,172.0,114.0,180.0,115.0,188.0,117.0,196.0,119.0,204.0,120.0,212.0,121.0,220.0,123.0,228.0,125.0,236.0" stroke="black" stroke-width="1" fill="none" />
<polyline points="129.0,246.0,121.0,240.0,113.0,223.0,105.0,203.0,97.0,197.0" stroke="black" stroke-width="1" fill="none" />
<polyline points="91.0,163.0,99.0,186.0,110.0,209.0,118.0,228.0,126.0,240.0" stroke="black" stroke-width="1" fill="none" />
<polyline points="99.0,238.0,96.0,230.0,94.0,222.0,92.0,214.0,93.0,202.0,96.0,201.0,99.0,192.0,91.0,197.0,83.0,200.0,75.0,199.0,67.0,198.0,59.0,197.0,51.0,196.0,43.0,193.0,35.0,194.0,27.0,195.0,19.0,195.0,11.0,196.0,3.0,203.0" stroke="black" stroke-width="1" fill="none" />
<polyline points="10.0,207.0,18.0,212.0" stroke="black" stroke-width="1" fill="none" />
<polyline points="25.0,208.0,20.0,200.0,19.0,199.0" stroke="black" stroke-width="1" fill="none" />
<polyline points="10.0,196.0,3.0,204.0,1.0,213.0,2.0,221.0,2.0,229.0,7.0,237.0,10.0,245.0,14.0,246.0,22.0,248.0,30.0,249.0,38.0,243.0,46.0,242.0,54.0,245.0,62.0,245.0,70.0,245.0,78.0,246.0,86.0,249.0,94.0,247.0,102.0,250.0,110.0,257.0,118.0,265.0" stroke="black" stroke-width="1" fill="none" />
<polyline points="38.0,215.0,43.0,207.0,47.0,199.0" stroke="black" stroke-width="1" fill="none" />
<polyline points="46.0,200.0,40.0,210.0,33.0,222.0,29.0,219.0,30.0,211.0,28.0,203.0,39.0,192.0" stroke="black" stroke-width="1" fill="none" />
<polyline points="14.0,210.0,0.0,211.0" stroke="black" stroke-width="1" fill="none" />
<polyline points="5.0,224.0,13.0,230.0" stroke="black" stroke-width="1" fill="none" />
<polyline points="103.0,60.0,111.0,49.0" stroke="black" stroke-width="1" fill="none" />
<polyline points="129.0,67.0,132.0,75.0,132.0,83.0" stroke="black" stroke-width="1" fill="none" />
<polyline points="146.0,84.0,145.0,92.0,146.0,100.0,147.0,108.0,149.0,116.0,152.0,124.0" stroke="black" stroke-width="1" fill="none" />
<polyline points="166.0,121.0,176.0,113.0,191.0,105.0" stroke="black" stroke-width="1" fill="none" />
<polyline points="200.0,105.0,181.0,113.0,170.0,121.0,162.0,129.0,156.0,137.0,152.0,145.0,149.0,153.0,147.0,161.0,145.0,169.0,143.0,177.0,141.0,185.0,140.0,193.0,139.0,201.0,139.0,209.0,139.0,217.0,139.0,225.0,140.0,233.0,140.0,241.0,142.0,249.0,144.0,257.0,147.0,265.0,150.0,273.0,149.0,282.0,155.0,285.0,159.0,293.0,166.0,301.0,168.0,307.0" stroke="black" stroke-width="1" fill="none" />
<polyline points="175.0,394.0,173.0,402.0,173.0,410.0,174.0,418.0,175.0,426.0,174.0,434.0,174.0,442.0,173.0,450.0,173.0,458.0,174.0,466.0,174.0,474.0,173.0,482.0,172.0,490.0,170.0,498.0,166.0,502.0,174.0,505.0,182.0,496.0,190.0,482.0" stroke="black" stroke-width="1" fill="none" />
<polyline points="163.0,524.0,155.0,529.0,147.0,529.0,139.0,529.0,131.0,528.0,123.0,526.0,115.0,523.0,107.0,512.0,99.0,490.0,91.0,468.0" stroke="black" stroke-width="1" fill="none" />
<polyline points="99.0,464.0,99.0,464.0,99.0,472.0" stroke="black" stroke-width="1" fill="none" />
<polyline points="103.0,463.0,102.0,471.0,103.0,479.0,106.0,487.0,108.0,489.0,116.0,493.0,124.0,491.0,132.0,493.0,140.0,497.0,148.0,499.0,156.0,500.0,164.0,501.0" stroke="black" stroke-width="1" fill="none" />
<polyline points="120.0,525.0,109.0,517.0,106.0,509.0,103.0,501.0,100.0,493.0,97.0,485.0,93.0,477.0,91.0,469.0,89.0,461.0,88.0,453.0,88.0,445.0,89.0,437.0,92.0,429.0,95.0,421.0,99.0,413.0,104.0,405.0,110.0,397.0,117.0,389.0,123.0,381.0,129.0,373.0,137.0,365.0,143.0,357.0,150.0,349.0,152.0,341.0,149.0,333.0,143.0,325.0,137.0,317.0,132.0,309.0,130.0,301.0,130.0,293.0,128.0,285.0,125.0,277.0,121.0,269.0,113.0,261.0,105.0,253.0,98.0,241.0,87.0,233.0,81.0,225.0,79.0,217.0,81.0,209.0,90.0,201.0,92.0,196.0,100.0,188.0,97.0,180.0,94.0,172.0,91.0,164.0,90.0,156.0,89.0,148.0,88.0,140.0,89.0,132.0,90.0,124.0,90.0,116.0,90.0,108.0,91.0,100.0,91.0,92.0,91.0,84.0,89.0,76.0,88.0,68.0,70.0,60.0,60.0,52.0,60.0,44.0,62.0,36.0,65.0,28.0,72.0,20.0,83.0,12.0,87.0,4.0,83.0,16.0" stroke="black" stroke-width="1" fill="none" />
<polyline points="77.0,18.0,79.0,26.0,81.0,34.0,84.0,42.0,85.0,50.0" stroke="black" stroke-width="1" fill="none" />
<polyline points="85.0,62.0,80.0,60.0,75.0,58.0,67.0,59.0,64.0,57.0,63.0,48.0,63.0,40.0" stroke="black" stroke-width="1" fill="none" />
<polyline points="62.0,33.0,70.0,22.0,78.0,15.0,86.0,6.0,94.0,2.0,102.0,1.0,104.0,3.0,113.0,1.0,121.0,1.0,129.0,2.0,137.0,2.0,145.0,5.0,153.0,15.0" stroke="black" stroke-width="1" fill="none" />
<polyline points="148.0,11.0,140.0,5.0,132.0,3.0" stroke="black" stroke-width="1" fill="none" />
<polyline points="137.0,2.0,146.0,10.0,151.0,18.0,151.0,26.0,151.0,34.0,151.0,42.0,150.0,50.0,149.0,58.0,148.0,66.0,145.0,74.0,144.0,82.0,142.0,90.0,142.0,98.0,142.0,106.0,142.0,114.0,143.0,122.0,144.0,130.0,146.0,138.0,148.0,146.0,146.0,154.0,144.0,162.0,142.0,170.0,140.0,178.0,134.0,181.0,132.0,187.0,133.0,194.0,129.0,202.0,129.0,210.0" stroke="black" stroke-width="1" fill="none" />
<polyline points="154.0,123.0,151.0,115.0,149.0,107.0,148.0,99.0,147.0,91.0" stroke="black" stroke-width="1" fill="none" />
<polyline points="218.0,76.0,226.0,76.0" stroke="black" stroke-width="1" fill="none" />
<polyline points="218.0,73.0,200.0,81.0,204.0,92.0,211.0,100.0" stroke="black" stroke-width="1" fill="none" />
<polyline points="207.0,102.0,199.0,103.0,191.0,105.0,183.0,109.0,175.0,114.0,167.0,120.0,159.0,129.0,153.0,136.0,159.0,125.0,157.0,117.0,156.0,109.0,155.0,101.0,155.0,93.0,154.0,85.0,154.0,77.0,152.0,69.0,150.0,61.0,152.0,53.0,153.0,45.0,153.0,37.0,153.0,29.0,153.0,21.0,152.0,13.0,144.0,5.0" stroke="black" stroke-width="1" fill="none" />
<polyline points="119.0,11.0,120.0,19.0,118.0,27.0" stroke="black" stroke-width="1" fill="none" />
<polyline points="91.0,5.0,91.0,13.0,90.0,21.0,89.0,29.0,90.0,37.0,90.0,45.0,91.0,53.0,88.0,53.0,87.0,61.0,90.0,67.0" stroke="black" stroke-width="1" fill="none" />
<polyline points="84.0,65.0,86.0,53.0,88.0,45.0,87.0,37.0,85.0,29.0,84.0,21.0,85.0,14.0,89.0,6.0" stroke="black" stroke-width="1" fill="none" />
<polyline points="348.0,205.0,359.0,213.0,360.0,221.0,361.0,229.0,359.0,237.0,353.0,245.0,347.0,253.0,347.0,261.0,346.0,269.0,344.0,277.0,344.0,285.0,344.0,293.0,342.0,301.0,341.0,309.0,339.0,317.0,337.0,325.0" stroke="black" stroke-width="1" fill="none" />
<polyline points="333.0,332.0,325.0,331.0,317.0,329.0,309.0,326.0,301.0,325.0,293.0,325.0,285.0,332.0,277.0,330.0,276.0,326.0,277.0,318.0,278.0,310.0,278.0,302.0,279.0,294.0,282.0,286.0,285.0,278.0,280.0,290.0" stroke="black" stroke-width="1" fill="none" />
<polyline points="263.0,299.0,255.0,307.0,253.0,315.0,253.0,323.0,253.0,332.0,248.0,340.0,244.0,348.0,236.0,356.0,240.0,352.0,248.0,340.0" stroke="black" stroke-width="1" fill="none" />
<polyline points="175.0,395.0,176.0,403.0,178.0,411.0,179.0,419.0,179.0,427.0,180.0,435.0,180.0,443.0,179.0,451.0" stroke="black" stroke-width="1" fill="none" />
<polyline points="405.0,330.0,397.0,343.0,389.0,349.0,388.0,349.0,399.0,341.0,404.0,333.0,408.0,325.0,410.0,317.0,413.0,309.0,415.0,301.0,416.0,293.0,418.0,285.0" stroke="black" stroke-width="1" fill="none" />
<polyline points="416.0,284.0,410.0,292.0,404.0,300.0,401.0,308.0,398.0,316.0,395.0,324.0,392.0,332.0,389.0,340.0,385.0,348.0,387.0,342.0,395.0,324.0,403.0,301.0,411.0,290.0" stroke="black" stroke-width="1" fill="none" />
</svg>