<svg xmlns="http://www.w3.org/2000/svg" height="702px" width="510px" version="1.1"><polyline points="240.0,22.0,250.0,26.0,257.0,25.0,265.0,26.0,273.0,27.0,281.0,28.0,289.0,29.0,297.0,30.0,305.0,33.0,313.0,35.0,321.0,38.0,329.0,41.0,337.0,44.0,345.0,48.0,353.0,53.0,361.0,58.0,369.0,63.0,377.0,70.0,385.0,79.0,393.0,89.0,401.0,100.0" stroke="black" stroke-width="1" fill="none" />
<polyline points="388.0,92.0,380.0,87.0" stroke="black" stroke-width="1" fill="none" />
<polyline points="389.0,125.0,381.0,115.0,373.0,101.0,365.0,93.0,357.0,85.0,349.0,79.0,341.0,72.0,333.0,74.0" stroke="black" stroke-width="1" fill="none" />
<polyline points="333.0,77.0,331.0,85.0,323.0,86.0,319.0,94.0,313.0,95.0,316.0,99.0,324.0,89.0,329.0,89.0,337.0,82.0" stroke="black" stroke-width="1" fill="none" />
<polyline points="341.0,73.0,351.0,81.0,361.0,89.0,368.0,97.0,375.0,105.0,379.0,113.0,383.0,119.0,389.0,127.0,393.0,135.0,395.0,143.0,398.0,151.0,396.0,159.0,391.0,165.0" stroke="black" stroke-width="1" fill="none" />
<polyline points="387.0,173.0,386.0,181.0,390.0,191.0" stroke="black" stroke-width="1" fill="none" />
<polyline points="382.0,191.0,374.0,190.0" stroke="black" stroke-width="1" fill="none" />
<polyline points="363.0,192.0,369.0,200.0,375.0,201.0,376.0,202.0,385.0,205.0" stroke="black" stroke-width="1" fill="none" />
<polyline points="372.0,210.0,362.0,204.0,362.0,196.0,367.0,189.0,359.0,190.0" stroke="black" stroke-width="1" fill="none" />
<polyline points="357.0,188.0,370.0,184.0,371.0,192.0,378.0,195.0,378.0,205.0,385.0,196.0,393.0,198.0" stroke="black" stroke-width="1" fill="none" />
<polyline points="388.0,180.0,380.0,184.0,372.0,180.0,364.0,177.0,356.0,180.0,353.0,185.0,345.0,185.0,337.0,185.0,329.0,188.0,321.0,188.0" stroke="black" stroke-width="1" fill="none" />
<polyline points="315.0,196.0,319.0,204.0" stroke="black" stroke-width="1" fill="none" />
<polyline points="314.0,198.0,322.0,191.0,329.0,191.0,322.0,199.0,324.0,195.0,329.0,199.0,337.0,199.0,347.0,200.0,355.0,199.0,363.0,195.0,366.0,201.0,370.0,206.0,378.0,214.0,386.0,216.0,386.0,219.0,394.0,220.0" stroke="black" stroke-width="1" fill="none" />
<polyline points="402.0,221.0,403.0,229.0" stroke="black" stroke-width="1" fill="none" />
<polyline points="408.0,223.0,415.0,222.0,410.0,230.0,415.0,231.0,412.0,239.0,411.0,247.0,411.0,255.0,410.0,263.0,402.0,273.0,411.0,269.0" stroke="black" stroke-width="1" fill="none" />
<polyline points="382.0,229.0,381.0,232.0,373.0,234.0,364.0,239.0,356.0,238.0,348.0,239.0" stroke="black" stroke-width="1" fill="none" />
<polyline points="347.0,225.0,355.0,225.0,363.0,222.0,371.0,224.0,379.0,223.0,387.0,225.0" stroke="black" stroke-width="1" fill="none" />
<polyline points="378.0,229.0,370.0,230.0,364.0,234.0,356.0,227.0" stroke="black" stroke-width="1" fill="none" />
<polyline points="352.0,225.0,362.0,233.0" stroke="black" stroke-width="1" fill="none" />
<polyline points="357.0,242.0,360.0,249.0,352.0,245.0,344.0,243.0,338.0,242.0,325.0,234.0,318.0,233.0,322.0,229.0,318.0,221.0,317.0,216.0,323.0,208.0,331.0,200.0,326.0,206.0,318.0,213.0,311.0,208.0,306.0,200.0,308.0,192.0,305.0,198.0" stroke="black" stroke-width="1" fill="none" />
<polyline points="306.0,199.0,314.0,213.0" stroke="black" stroke-width="1" fill="none" />
<polyline points="322.0,226.0,330.0,229.0,338.0,231.0" stroke="black" stroke-width="1" fill="none" />
<polyline points="359.0,235.0,351.0,235.0,343.0,238.0,335.0,239.0,327.0,235.0,323.0,231.0,316.0,220.0,310.0,227.0,302.0,225.0" stroke="black" stroke-width="1" fill="none" />
<polyline points="296.0,212.0,300.0,212.0,302.0,220.0,304.0,229.0,302.0,232.0,303.0,240.0" stroke="black" stroke-width="1" fill="none" />
<polyline points="306.0,254.0,306.0,262.0,307.0,266.0,315.0,273.0,302.0,283.0,299.0,291.0,303.0,282.0,311.0,284.0,319.0,282.0,327.0,283.0,332.0,285.0,340.0,278.0,344.0,275.0,352.0,284.0,360.0,291.0,368.0,298.0,376.0,307.0,380.0,317.0" stroke="black" stroke-width="1" fill="none" />
<polyline points="379.0,330.0,377.0,341.0,369.0,350.0,374.0,344.0,377.0,338.0,379.0,330.0,386.0,322.0,382.0,315.0,384.0,307.0,382.0,299.0,379.0,291.0,377.0,287.0,365.0,279.0,354.0,273.0,348.0,269.0,335.0,260.0,327.0,251.0" stroke="black" stroke-width="1" fill="none" />
<polyline points="327.0,251.0,334.0,259.0,339.0,267.0,336.0,275.0,332.0,283.0,328.0,291.0,327.0,304.0,325.0,311.0,319.0,320.0,324.0,317.0,332.0,319.0,340.0,318.0,348.0,318.0,356.0,315.0" stroke="black" stroke-width="1" fill="none" />
<polyline points="355.0,327.0,349.0,335.0,341.0,337.0,333.0,345.0,323.0,355.0,325.0,362.0,329.0,368.0,322.0,372.0" stroke="black" stroke-width="1" fill="none" />
<polyline points="322.0,370.0,314.0,369.0" stroke="black" stroke-width="1" fill="none" />
<polyline points="307.0,364.0,315.0,358.0,324.0,363.0" stroke="black" stroke-width="1" fill="none" />
<polyline points="314.0,347.0,315.0,339.0,318.0,331.0,316.0,334.0" stroke="black" stroke-width="1" fill="none" />
<polyline points="312.0,339.0,310.0,331.0" stroke="black" stroke-width="1" fill="none" />
<polyline points="303.0,332.0,299.0,340.0,300.0,337.0,315.0,339.0,323.0,349.0,331.0,347.0,339.0,340.0,346.0,338.0,354.0,328.0,366.0,335.0" stroke="black" stroke-width="1" fill="none" />
<polyline points="368.0,345.0,369.0,346.0,368.0,338.0,369.0,331.0,371.0,323.0,374.0,315.0,371.0,307.0,370.0,305.0,362.0,298.0,354.0,297.0,346.0,296.0" stroke="black" stroke-width="1" fill="none" />
<polyline points="337.0,295.0,329.0,292.0,325.0,290.0,317.0,289.0,309.0,290.0" stroke="black" stroke-width="1" fill="none" />
<polyline points="316.0,293.0,320.0,300.0,316.0,306.0,328.0,303.0" stroke="black" stroke-width="1" fill="none" />
<polyline points="339.0,280.0,340.0,272.0,332.0,274.0,324.0,267.0" stroke="black" stroke-width="1" fill="none" />
<polyline points="331.0,262.0,323.0,251.0" stroke="black" stroke-width="1" fill="none" />
<polyline points="323.0,251.0,329.0,259.0,341.0,264.0,349.0,270.0,357.0,274.0,366.0,279.0,374.0,285.0,382.0,299.0" stroke="black" stroke-width="1" fill="none" />
<polyline points="374.0,305.0,378.0,313.0" stroke="black" stroke-width="1" fill="none" />
<polyline points="398.0,329.0,390.0,351.0,382.0,367.0,374.0,380.0,366.0,394.0" stroke="black" stroke-width="1" fill="none" />
<polyline points="367.0,397.0,375.0,410.0,383.0,415.0,391.0,419.0,399.0,422.0,407.0,424.0,415.0,427.0,423.0,429.0,431.0,431.0,439.0,433.0,447.0,435.0,455.0,437.0,463.0,439.0,471.0,442.0,479.0,443.0,487.0,446.0,495.0,448.0,503.0,450.0,504.0,457.0,505.0,459.0" stroke="black" stroke-width="1" fill="none" />
<polyline points="508.0,470.0,500.0,468.0,492.0,467.0,484.0,465.0,476.0,463.0,468.0,461.0,460.0,459.0,452.0,457.0,444.0,455.0,436.0,453.0,428.0,451.0,420.0,448.0" stroke="black" stroke-width="1" fill="none" />
<polyline points="419.0,447.0,427.0,447.0,435.0,450.0,443.0,451.0,451.0,453.0,459.0,455.0,467.0,458.0,475.0,460.0,483.0,462.0,491.0,463.0,499.0,465.0,507.0,467.0" stroke="black" stroke-width="1" fill="none" />
<polyline points="429.0,502.0,422.0,505.0,416.0,502.0,408.0,503.0" stroke="black" stroke-width="1" fill="none" />
<polyline points="407.0,500.0,415.0,498.0,423.0,497.0,431.0,498.0" stroke="black" stroke-width="1" fill="none" />
<polyline points="347.0,435.0,340.0,443.0,341.0,443.0" stroke="black" stroke-width="1" fill="none" />
<polyline points="344.0,427.0,336.0,435.0,329.0,439.0,318.0,450.0,305.0,457.0,310.0,469.0,310.0,477.0,314.0,468.0" stroke="black" stroke-width="1" fill="none" />
<polyline points="318.0,465.0,310.0,462.0" stroke="black" stroke-width="1" fill="none" />
<polyline points="307.0,457.0,315.0,454.0,323.0,448.0" stroke="black" stroke-width="1" fill="none" />
<polyline points="319.0,439.0,313.0,447.0,300.0,455.0,291.0,458.0" stroke="black" stroke-width="1" fill="none" />
<polyline points="288.0,476.0,276.0,467.0,268.0,461.0" stroke="black" stroke-width="1" fill="none" />
<polyline points="261.0,456.0,253.0,450.0" stroke="black" stroke-width="1" fill="none" />
<polyline points="246.0,440.0,238.0,438.0,238.0,442.0" stroke="black" stroke-width="1" fill="none" />
<polyline points="230.0,408.0,238.0,409.0,247.0,410.0,255.0,407.0,263.0,410.0,271.0,407.0,279.0,407.0,284.0,404.0,298.0,403.0,306.0,401.0" stroke="black" stroke-width="1" fill="none" />
<polyline points="304.0,395.0,312.0,398.0" stroke="black" stroke-width="1" fill="none" />
<polyline points="323.0,392.0,331.0,388.0,339.0,386.0,347.0,392.0,350.0,385.0" stroke="black" stroke-width="1" fill="none" />
<polyline points="350.0,380.0,346.0,387.0,356.0,379.0" stroke="black" stroke-width="1" fill="none" />
<polyline points="347.0,364.0,355.0,359.0" stroke="black" stroke-width="1" fill="none" />
<polyline points="338.0,357.0,337.0,349.0" stroke="black" stroke-width="1" fill="none" />
<polyline points="321.0,343.0,329.0,341.0,333.0,340.0,341.0,329.0" stroke="black" stroke-width="1" fill="none" />
<polyline points="341.0,325.0,339.0,333.0,331.0,334.0" stroke="black" stroke-width="1" fill="none" />
<polyline points="308.0,345.0,300.0,349.0,292.0,346.0,284.0,346.0,276.0,346.0,268.0,343.0,260.0,342.0,252.0,340.0,246.0,341.0,238.0,338.0,230.0,338.0" stroke="black" stroke-width="1" fill="none" />
<polyline points="224.0,346.0,216.0,336.0" stroke="black" stroke-width="1" fill="none" />
<polyline points="204.0,331.0,201.0,323.0,202.0,315.0,204.0,307.0,209.0,299.0,215.0,291.0,223.0,283.0,236.0,275.0,248.0,268.0,258.0,264.0,251.0,275.0" stroke="black" stroke-width="1" fill="none" />
<polyline points="254.0,270.0,251.0,278.0,247.0,280.0,243.0,288.0,234.0,296.0,227.0,304.0,227.0,312.0,228.0,320.0,232.0,311.0,234.0,313.0,240.0,314.0,248.0,314.0,259.0,311.0,266.0,311.0,274.0,312.0,283.0,313.0,291.0,313.0,299.0,313.0,307.0,310.0,315.0,311.0,323.0,309.0,329.0,309.0,337.0,308.0,348.0,308.0,356.0,306.0" stroke="black" stroke-width="1" fill="none" />
<polyline points="348.0,302.0,356.0,296.0" stroke="black" stroke-width="1" fill="none" />
<polyline points="355.0,310.0,359.0,303.0,370.0,301.0,361.0,293.0,352.0,285.0,345.0,277.0" stroke="black" stroke-width="1" fill="none" />
<polyline points="314.0,275.0,313.0,270.0,305.0,271.0" stroke="black" stroke-width="1" fill="none" />
<polyline points="308.0,262.0,305.0,265.0,297.0,260.0" stroke="black" stroke-width="1" fill="none" />
<polyline points="255.0,253.0,256.0,245.0,255.0,243.0" stroke="black" stroke-width="1" fill="none" />
<polyline points="251.0,261.0,245.0,270.0,237.0,271.0,234.0,277.0,229.0,271.0,226.0,267.0" stroke="black" stroke-width="1" fill="none" />
<polyline points="211.0,247.0,219.0,256.0,227.0,251.0,235.0,250.0,243.0,247.0,251.0,240.0,259.0,234.0,260.0,232.0" stroke="black" stroke-width="1" fill="none" />
<polyline points="224.0,232.0,216.0,230.0,208.0,230.0" stroke="black" stroke-width="1" fill="none" />
<polyline points="206.0,229.0,214.0,243.0,213.0,251.0,219.0,259.0" stroke="black" stroke-width="1" fill="none" />
<polyline points="224.0,281.0,216.0,288.0,208.0,301.0" stroke="black" stroke-width="1" fill="none" />
<polyline points="214.0,313.0,214.0,321.0,214.0,329.0,216.0,337.0,217.0,345.0,216.0,353.0,218.0,361.0" stroke="black" stroke-width="1" fill="none" />
<polyline points="228.0,361.0,227.0,353.0,230.0,345.0,211.0,338.0,209.0,330.0,209.0,322.0,211.0,314.0,209.0,319.0" stroke="black" stroke-width="1" fill="none" />
<polyline points="229.0,321.0,237.0,323.0,245.0,323.0,253.0,323.0,261.0,322.0,269.0,321.0,277.0,319.0,285.0,321.0,293.0,321.0,301.0,321.0,309.0,317.0,311.0,316.0" stroke="black" stroke-width="1" fill="none" />
<polyline points="292.0,333.0,294.0,336.0,296.0,344.0" stroke="black" stroke-width="1" fill="none" />
<polyline points="296.0,362.0,288.0,361.0,280.0,359.0" stroke="black" stroke-width="1" fill="none" />
<polyline points="273.0,360.0,273.0,355.0,278.0,363.0,280.0,375.0,277.0,381.0,281.0,385.0,287.0,390.0,298.0,384.0,307.0,384.0,315.0,384.0" stroke="black" stroke-width="1" fill="none" />
<polyline points="309.0,377.0,317.0,376.0,325.0,374.0,327.0,366.0" stroke="black" stroke-width="1" fill="none" />
<polyline points="328.0,388.0,325.0,396.0,324.0,399.0,323.0,402.0,329.0,398.0" stroke="black" stroke-width="1" fill="none" />
<polyline points="328.0,397.0,331.0,389.0" stroke="black" stroke-width="1" fill="none" />
<polyline points="296.0,384.0,288.0,381.0" stroke="black" stroke-width="1" fill="none" />
<polyline points="288.0,377.0,297.0,385.0,300.0,393.0,298.0,403.0,311.0,406.0,316.0,407.0,317.0,404.0,325.0,407.0" stroke="black" stroke-width="1" fill="none" />
<polyline points="296.0,376.0,288.0,376.0,280.0,374.0" stroke="black" stroke-width="1" fill="none" />
<polyline points="278.0,371.0,286.0,369.0,294.0,368.0,302.0,361.0" stroke="black" stroke-width="1" fill="none" />
<polyline points="268.0,316.0,260.0,315.0,255.0,312.0,251.0,310.0,253.0,302.0,249.0,303.0" stroke="black" stroke-width="1" fill="none" />
<polyline points="253.0,299.0,261.0,296.0,269.0,297.0,277.0,297.0,285.0,296.0,293.0,295.0" stroke="black" stroke-width="1" fill="none" />
<polyline points="292.0,291.0,284.0,289.0,276.0,290.0,268.0,291.0,260.0,291.0,252.0,287.0" stroke="black" stroke-width="1" fill="none" />
<polyline points="238.0,304.0,230.0,305.0,232.0,313.0,229.0,305.0" stroke="black" stroke-width="1" fill="none" />
<polyline points="226.0,305.0,234.0,296.0,242.0,289.0,251.0,287.0,259.0,287.0,267.0,286.0,275.0,284.0,283.0,283.0,291.0,286.0" stroke="black" stroke-width="1" fill="none" />
<polyline points="277.0,302.0,276.0,310.0" stroke="black" stroke-width="1" fill="none" />
<polyline points="243.0,326.0,244.0,334.0,250.0,340.0,255.0,344.0,265.0,347.0,273.0,349.0,281.0,351.0,289.0,351.0,298.0,353.0,303.0,349.0,305.0,351.0,312.0,354.0,322.0,357.0,330.0,353.0,339.0,350.0" stroke="black" stroke-width="1" fill="none" />
<polyline points="357.0,328.0,361.0,336.0,361.0,344.0,360.0,352.0,355.0,360.0,355.0,365.0,352.0,373.0,349.0,381.0,342.0,389.0,346.0,392.0,336.0,402.0,331.0,404.0,339.0,399.0" stroke="black" stroke-width="1" fill="none" />
<polyline points="285.0,491.0,293.0,489.0,301.0,485.0,309.0,483.0,317.0,478.0,325.0,473.0,333.0,467.0,341.0,460.0,349.0,446.0,357.0,431.0,358.0,430.0,354.0,438.0,349.0,446.0,345.0,454.0,339.0,462.0,329.0,470.0,316.0,478.0,299.0,486.0,289.0,491.0,292.0,497.0,293.0,505.0,295.0,510.0,302.0,518.0,310.0,526.0,318.0,539.0" stroke="black" stroke-width="1" fill="none" />
<polyline points="314.0,525.0,306.0,516.0" stroke="black" stroke-width="1" fill="none" />
<polyline points="306.0,516.0,312.0,524.0,319.0,532.0,321.0,540.0" stroke="black" stroke-width="1" fill="none" />
<polyline points="293.0,508.0,285.0,501.0" stroke="black" stroke-width="1" fill="none" />
<polyline points="284.0,499.0,292.0,494.0,296.0,497.0" stroke="black" stroke-width="1" fill="none" />
<polyline points="254.0,501.0,248.0,509.0,243.0,517.0,239.0,525.0,235.0,533.0" stroke="black" stroke-width="1" fill="none" />
<polyline points="239.0,501.0,234.0,497.0,226.0,497.0,216.0,498.0,208.0,497.0,202.0,481.0,194.0,473.0,186.0,459.0" stroke="black" stroke-width="1" fill="none" />
<polyline points="187.0,454.0,194.0,462.0,202.0,470.0,206.0,471.0,213.0,479.0,209.0,491.0,210.0,499.0,218.0,509.0" stroke="black" stroke-width="1" fill="none" />
<polyline points="236.0,498.0,238.0,506.0,226.0,508.0,231.0,517.0,228.0,525.0,227.0,532.0" stroke="black" stroke-width="1" fill="none" />
<polyline points="248.0,498.0,244.0,506.0,237.0,514.0,234.0,522.0,229.0,530.0,235.0,518.0,243.0,508.0,251.0,498.0" stroke="black" stroke-width="1" fill="none" />
<polyline points="216.0,478.0,208.0,472.0,200.0,466.0,192.0,459.0,184.0,454.0" stroke="black" stroke-width="1" fill="none" />
<polyline points="186.0,453.0,186.0,461.0,191.0,469.0,196.0,477.0,200.0,485.0,204.0,493.0,211.0,501.0,217.0,509.0,219.0,517.0,222.0,525.0,227.0,533.0,232.0,538.0,240.0,522.0,248.0,509.0" stroke="black" stroke-width="1" fill="none" />
<polyline points="209.0,416.0,217.0,423.0,225.0,427.0,234.0,437.0,239.0,437.0,241.0,446.0,250.0,448.0,258.0,448.0,266.0,454.0,274.0,456.0,282.0,457.0,290.0,459.0,298.0,454.0,306.0,451.0,314.0,446.0,322.0,443.0,332.0,441.0,340.0,433.0,348.0,423.0" stroke="black" stroke-width="1" fill="none" />
<polyline points="298.0,364.0,308.0,363.0,301.0,355.0,300.0,349.0,316.0,352.0,321.0,346.0,330.0,339.0,325.0,338.0,329.0,330.0,337.0,328.0,339.0,326.0,331.0,324.0,323.0,326.0,315.0,328.0,307.0,329.0,299.0,329.0,291.0,331.0,283.0,330.0,275.0,329.0,267.0,328.0,259.0,327.0,251.0,327.0,243.0,326.0" stroke="black" stroke-width="1" fill="none" />
<polyline points="183.0,378.0,192.0,386.0,204.0,394.0,211.0,402.0,216.0,405.0" stroke="black" stroke-width="1" fill="none" />
<polyline points="212.0,407.0,204.0,400.0,197.0,396.0,189.0,388.0,181.0,381.0" stroke="black" stroke-width="1" fill="none" />
<polyline points="171.0,369.0,179.0,377.0,185.0,385.0,192.0,393.0,204.0,401.0,213.0,408.0,208.0,413.0,214.0,421.0,226.0,429.0,229.0,437.0,234.0,445.0,246.0,446.0,254.0,452.0,264.0,453.0,273.0,460.0,272.0,468.0,274.0,479.0,275.0,488.0,280.0,487.0,286.0,483.0" stroke="black" stroke-width="1" fill="none" />
<polyline points="318.0,540.0,313.0,532.0,307.0,524.0,299.0,516.0,292.0,508.0,284.0,500.0,286.0,487.0,286.0,487.0,278.0,493.0,270.0,494.0,262.0,492.0,254.0,489.0,246.0,486.0,238.0,483.0,230.0,478.0,222.0,475.0,214.0,470.0,206.0,465.0,198.0,459.0,190.0,451.0,182.0,440.0,174.0,424.0" stroke="black" stroke-width="1" fill="none" />
<polyline points="163.0,396.0,155.0,413.0,147.0,424.0,139.0,429.0,131.0,433.0,123.0,439.0,115.0,442.0,107.0,444.0,99.0,447.0,91.0,450.0,83.0,452.0,75.0,455.0,67.0,458.0,59.0,461.0,51.0,464.0,43.0,467.0,35.0,471.0,27.0,474.0,19.0,478.0,11.0,481.0,3.0,483.0,16.0,478.0,40.0,474.0,63.0,466.0,86.0,458.0,109.0,450.0,113.0,449.0,105.0,452.0,97.0,454.0,89.0,458.0,81.0,460.0,73.0,463.0,65.0,465.0,57.0,468.0,49.0,471.0,41.0,474.0,33.0,477.0,25.0,480.0,17.0,482.0,9.0,485.0" stroke="black" stroke-width="1" fill="none" />
<polyline points="9.0,493.0,17.0,491.0" stroke="black" stroke-width="1" fill="none" />
<polyline points="10.0,497.0,18.0,497.0,26.0,495.0,34.0,492.0,42.0,490.0,50.0,487.0,58.0,485.0,66.0,482.0,74.0,479.0,82.0,477.0,90.0,474.0,98.0,471.0,106.0,469.0" stroke="black" stroke-width="1" fill="none" />
<polyline points="98.0,475.0,90.0,478.0,82.0,481.0,74.0,483.0,66.0,486.0,58.0,488.0,50.0,491.0,42.0,494.0,34.0,496.0,26.0,498.0,18.0,500.0,10.0,503.0,2.0,506.0,4.0,505.0,9.0,496.0,9.0,485.0,33.0,480.0,54.0,472.0,78.0,464.0,100.0,456.0" stroke="black" stroke-width="1" fill="none" />
<polyline points="115.0,452.0,107.0,454.0,99.0,457.0,91.0,460.0,83.0,463.0,75.0,465.0,67.0,468.0,59.0,471.0,51.0,474.0,43.0,477.0,35.0,479.0,27.0,482.0,19.0,485.0,16.0,488.0,8.0,490.0,0.0,489.0" stroke="black" stroke-width="1" fill="none" />
<polyline points="40.0,490.0,65.0,482.0,88.0,474.0" stroke="black" stroke-width="1" fill="none" />
<polyline points="109.0,509.0,117.0,507.0,125.0,509.0,133.0,509.0" stroke="black" stroke-width="1" fill="none" />
<polyline points="133.0,515.0,125.0,513.0,117.0,513.0,109.0,511.0" stroke="black" stroke-width="1" fill="none" />
<polyline points="118.0,512.0,119.0,520.0" stroke="black" stroke-width="1" fill="none" />
<polyline points="47.0,465.0,30.0,473.0" stroke="black" stroke-width="1" fill="none" />
<polyline points="40.0,629.0,40.0,637.0,36.0,645.0,37.0,641.0,42.0,645.0,50.0,643.0,54.0,647.0,62.0,644.0" stroke="black" stroke-width="1" fill="none" />
<polyline points="59.0,645.0,48.0,643.0,40.0,641.0" stroke="black" stroke-width="1" fill="none" />
<polyline points="37.0,646.0,45.0,648.0,53.0,653.0,52.0,656.0,53.0,668.0,54.0,676.0,62.0,679.0,60.0,687.0,60.0,691.0,67.0,686.0,70.0,675.0" stroke="black" stroke-width="1" fill="none" />
<polyline points="74.0,671.0,66.0,666.0,58.0,660.0" stroke="black" stroke-width="1" fill="none" />
<polyline points="52.0,665.0,60.0,668.0,61.0,669.0,72.0,681.0,71.0,689.0,66.0,697.0" stroke="black" stroke-width="1" fill="none" />
<polyline points="52.0,689.0,57.0,681.0,59.0,673.0,55.0,670.0,52.0,671.0" stroke="black" stroke-width="1" fill="none" />
<polyline points="43.0,679.0,51.0,683.0,54.0,675.0,65.0,672.0" stroke="black" stroke-width="1" fill="none" />
<polyline points="71.0,650.0,63.0,650.0,55.0,651.0" stroke="black" stroke-width="1" fill="none" />
<polyline points="56.0,650.0,56.0,658.0,65.0,666.0,73.0,674.0,68.0,685.0,64.0,693.0" stroke="black" stroke-width="1" fill="none" />
<polyline points="51.0,692.0,43.0,686.0,35.0,682.0" stroke="black" stroke-width="1" fill="none" />
<polyline points="39.0,680.0,38.0,688.0,41.0,696.0" stroke="black" stroke-width="1" fill="none" />
<polyline points="40.0,681.0,44.0,689.0,43.0,697.0,50.0,698.0,58.0,698.0,66.0,697.0" stroke="black" stroke-width="1" fill="none" />
<polyline points="61.0,685.0,53.0,689.0,45.0,683.0,47.0,679.0,43.0,679.0,33.0,674.0" stroke="black" stroke-width="1" fill="none" />
<polyline points="39.0,632.0,47.0,633.0,55.0,634.0,63.0,635.0,71.0,635.0,70.0,643.0" stroke="black" stroke-width="1" fill="none" />
<polyline points="57.0,632.0,49.0,631.0" stroke="black" stroke-width="1" fill="none" />
<polyline points="46.0,629.0,54.0,629.0,62.0,630.0,70.0,631.0,71.0,637.0" stroke="black" stroke-width="1" fill="none" />
<polyline points="0.0,701.0,8.0,702.0,16.0,702.0,24.0,702.0,32.0,701.0,40.0,702.0,48.0,702.0,56.0,702.0,64.0,702.0,72.0,702.0,80.0,701.0,88.0,702.0,96.0,702.0,104.0,702.0,112.0,702.0,120.0,702.0,128.0,702.0,136.0,702.0,144.0,701.0,152.0,702.0,160.0,702.0,168.0,702.0,176.0,702.0,184.0,702.0,192.0,702.0,200.0,702.0,208.0,701.0,216.0,701.0,224.0,701.0,232.0,701.0,240.0,701.0,248.0,701.0,256.0,701.0,264.0,701.0,272.0,701.0,280.0,701.0,288.0,701.0,296.0,701.0,304.0,701.0,312.0,701.0,320.0,701.0,328.0,701.0,336.0,701.0,344.0,701.0,352.0,701.0,360.0,701.0,368.0,701.0,376.0,701.0,384.0,701.0,392.0,701.0,400.0,701.0,408.0,701.0,416.0,701.0,424.0,701.0,432.0,701.0,440.0,701.0,448.0,701.0,456.0,700.0,464.0,700.0,472.0,696.0,485.0,692.0,493.0,683.0" stroke="black" stroke-width="1" fill="none" />
<polyline points="483.0,676.0,467.0,686.0,458.0,697.0" stroke="black" stroke-width="1" fill="none" />
<polyline points="471.0,697.0,470.0,690.0,465.0,688.0,457.0,691.0,449.0,684.0" stroke="black" stroke-width="1" fill="none" />
<polyline points="448.0,683.0,456.0,682.0,464.0,683.0,472.0,683.0,480.0,678.0,488.0,675.0,494.0,676.0,493.0,684.0,483.0,692.0,482.0,696.0" stroke="black" stroke-width="1" fill="none" />
<polyline points="480.0,693.0,488.0,700.0,496.0,700.0,504.0,700.0" stroke="black" stroke-width="1" fill="none" />
<polyline points="502.0,694.0,510.0,696.0" stroke="black" stroke-width="1" fill="none" />
<polyline points="510.0,693.0,502.0,692.0" stroke="black" stroke-width="1" fill="none" />
<polyline points="453.0,689.0,449.0,681.0" stroke="black" stroke-width="1" fill="none" />
<polyline points="451.0,644.0,459.0,647.0,467.0,646.0,475.0,644.0" stroke="black" stroke-width="1" fill="none" />
<polyline points="457.0,635.0,451.0,627.0,451.0,626.0" stroke="black" stroke-width="1" fill="none" />
<polyline points="445.0,630.0,453.0,636.0" stroke="black" stroke-width="1" fill="none" />
<polyline points="449.0,641.0,457.0,640.0,465.0,640.0,473.0,639.0" stroke="black" stroke-width="1" fill="none" />
<polyline points="479.0,617.0,487.0,613.0,495.0,612.0" stroke="black" stroke-width="1" fill="none" />
<polyline points="492.0,608.0,484.0,608.0,476.0,610.0,468.0,609.0,460.0,609.0,452.0,610.0,444.0,611.0,436.0,614.0" stroke="black" stroke-width="1" fill="none" />
<polyline points="437.0,618.0,445.0,615.0,453.0,614.0,461.0,614.0,469.0,614.0,473.0,618.0,475.0,626.0,475.0,634.0" stroke="black" stroke-width="1" fill="none" />
<polyline points="468.0,636.0,461.0,634.0,459.0,626.0,460.0,618.0,455.0,620.0,447.0,618.0" stroke="black" stroke-width="1" fill="none" />
<polyline points="441.0,611.0,443.0,615.0,439.0,624.0,444.0,626.0,447.0,634.0,452.0,646.0,461.0,653.0" stroke="black" stroke-width="1" fill="none" />
<polyline points="468.0,645.0,482.0,637.0,480.0,629.0,479.0,621.0,485.0,613.0" stroke="black" stroke-width="1" fill="none" />
<polyline points="213.0,403.0,211.0,398.0,203.0,393.0,195.0,387.0,187.0,381.0,179.0,377.0,171.0,369.0" stroke="black" stroke-width="1" fill="none" />
<polyline points="166.0,390.0,162.0,398.0,158.0,406.0,155.0,414.0,149.0,422.0,136.0,430.0,126.0,438.0,101.0,446.0,77.0,454.0,56.0,462.0" stroke="black" stroke-width="1" fill="none" />
<polyline points="168.0,392.0,169.0,400.0,170.0,408.0,171.0,416.0,174.0,424.0,177.0,432.0,181.0,440.0,186.0,448.0,194.0,456.0,203.0,464.0,216.0,472.0,231.0,480.0,251.0,488.0" stroke="black" stroke-width="1" fill="none" />
<polyline points="150.0,321.0,151.0,317.0,152.0,309.0" stroke="black" stroke-width="1" fill="none" />
<polyline points="144.0,285.0,136.0,279.0" stroke="black" stroke-width="1" fill="none" />
<polyline points="129.0,283.0,137.0,287.0,145.0,289.0" stroke="black" stroke-width="1" fill="none" />
<polyline points="146.0,287.0,136.0,279.0,138.0,271.0,140.0,263.0,139.0,260.0,131.0,257.0" stroke="black" stroke-width="1" fill="none" />
<polyline points="135.0,255.0,131.0,263.0,128.0,272.0,128.0,280.0,139.0,288.0" stroke="black" stroke-width="1" fill="none" />
<polyline points="146.0,245.0,149.0,237.0,150.0,229.0,148.0,222.0,148.0,214.0,139.0,203.0,146.0,196.0,138.0,196.0" stroke="black" stroke-width="1" fill="none" />
<polyline points="140.0,189.0,149.0,200.0,146.0,208.0,145.0,220.0" stroke="black" stroke-width="1" fill="none" />
<polyline points="138.0,241.0,133.0,236.0,125.0,230.0,117.0,222.0" stroke="black" stroke-width="1" fill="none" />
<polyline points="110.0,233.0,110.0,241.0,111.0,249.0,112.0,257.0,113.0,265.0" stroke="black" stroke-width="1" fill="none" />
<polyline points="111.0,267.0,109.0,259.0,108.0,251.0,107.0,243.0,107.0,235.0,107.0,233.0" stroke="black" stroke-width="1" fill="none" />
<polyline points="133.0,190.0,141.0,182.0,141.0,171.0" stroke="black" stroke-width="1" fill="none" />
<polyline points="157.0,166.0,152.0,169.0,149.0,170.0,155.0,165.0,153.0,157.0,150.0,149.0,150.0,141.0,145.0,143.0" stroke="black" stroke-width="1" fill="none" />
<polyline points="141.0,146.0,149.0,134.0,152.0,125.0,160.0,113.0,168.0,100.0,176.0,94.0,184.0,87.0,192.0,84.0,200.0,81.0,208.0,78.0,216.0,79.0,220.0,81.0,227.0,82.0,235.0,83.0,243.0,85.0,251.0,87.0,259.0,92.0,267.0,93.0,275.0,93.0,283.0,97.0,291.0,98.0,299.0,100.0,307.0,99.0" stroke="black" stroke-width="1" fill="none" />
<polyline points="293.0,79.0,285.0,72.0" stroke="black" stroke-width="1" fill="none" />
<polyline points="287.0,71.0,288.0,79.0" stroke="black" stroke-width="1" fill="none" />
<polyline points="287.0,84.0,286.0,82.0,278.0,79.0" stroke="black" stroke-width="1" fill="none" />
<polyline points="279.0,77.0,285.0,85.0" stroke="black" stroke-width="1" fill="none" />
<polyline points="293.0,80.0,288.0,72.0" stroke="black" stroke-width="1" fill="none" />
<polyline points="275.0,97.0,267.0,98.0" stroke="black" stroke-width="1" fill="none" />
<polyline points="251.0,87.0,243.0,85.0" stroke="black" stroke-width="1" fill="none" />
<polyline points="251.0,71.0,251.0,79.0,251.0,71.0" stroke="black" stroke-width="1" fill="none" />
<polyline points="212.0,52.0,204.0,55.0" stroke="black" stroke-width="1" fill="none" />
<polyline points="209.0,49.0,210.0,52.0,207.0,50.0,211.0,45.0" stroke="black" stroke-width="1" fill="none" />
<polyline points="232.0,25.0,232.0,22.0" stroke="black" stroke-width="1" fill="none" />
<polyline points="247.0,25.0,239.0,21.0,231.0,23.0,223.0,26.0,215.0,28.0,207.0,30.0,199.0,32.0,191.0,34.0,183.0,36.0,175.0,39.0,167.0,43.0,159.0,48.0,151.0,56.0,143.0,66.0,135.0,74.0,127.0,85.0,119.0,101.0,119.0,110.0,130.0,103.0" stroke="black" stroke-width="1" fill="none" />
<polyline points="127.0,136.0,124.0,130.0,121.0,137.0,121.0,139.0,119.0,137.0,112.0,138.0" stroke="black" stroke-width="1" fill="none" />
<polyline points="112.0,131.0,113.0,118.0,125.0,107.0" stroke="black" stroke-width="1" fill="none" />
<polyline points="203.0,86.0,196.0,90.0,206.0,82.0" stroke="black" stroke-width="1" fill="none" />
<polyline points="206.0,77.0,192.0,80.0,182.0,88.0,172.0,96.0,165.0,104.0,161.0,112.0,155.0,120.0,148.0,128.0,148.0,135.0,145.0,143.0,142.0,151.0,141.0,159.0,136.0,167.0,139.0,175.0,135.0,176.0,141.0,183.0,133.0,191.0,134.0,199.0" stroke="black" stroke-width="1" fill="none" />
<polyline points="190.0,229.0,198.0,228.0,206.0,229.0,214.0,226.0,222.0,229.0" stroke="black" stroke-width="1" fill="none" />
<polyline points="222.0,239.0,214.0,239.0,206.0,237.0,198.0,240.0" stroke="black" stroke-width="1" fill="none" />
<polyline points="200.0,242.0,208.0,241.0,216.0,243.0" stroke="black" stroke-width="1" fill="none" />
<polyline points="226.0,237.0,222.0,229.0,210.0,227.0" stroke="black" stroke-width="1" fill="none" />
<polyline points="215.0,216.0,200.0,220.0,188.0,228.0,187.0,229.0,195.0,224.0,203.0,218.0,211.0,215.0,219.0,212.0,227.0,210.0,235.0,207.0,243.0,206.0,250.0,205.0,258.0,208.0" stroke="black" stroke-width="1" fill="none" />
<polyline points="258.0,188.0,250.0,186.0,242.0,186.0,234.0,188.0,226.0,191.0,218.0,192.0,210.0,198.0,202.0,201.0" stroke="black" stroke-width="1" fill="none" />
<polyline points="205.0,193.0,213.0,190.0" stroke="black" stroke-width="1" fill="none" />
<polyline points="225.0,183.0,211.0,185.0,203.0,189.0,211.0,185.0,219.0,186.0,227.0,183.0" stroke="black" stroke-width="1" fill="none" />
<polyline points="232.0,188.0,220.0,191.0,213.0,197.0,210.0,203.0,218.0,204.0,226.0,202.0,234.0,202.0,242.0,202.0,250.0,201.0,258.0,201.0,260.0,201.0" stroke="black" stroke-width="1" fill="none" />
<polyline points="250.0,187.0,259.0,195.0,263.0,195.0,257.0,208.0,265.0,216.0,263.0,224.0,260.0,232.0,251.0,240.0,236.0,248.0" stroke="black" stroke-width="1" fill="none" />
<polyline points="297.0,199.0,291.0,205.0,298.0,197.0,293.0,196.0,297.0,188.0,292.0,186.0" stroke="black" stroke-width="1" fill="none" />
<polyline points="343.0,204.0,351.0,204.0,358.0,206.0" stroke="black" stroke-width="1" fill="none" />
<polyline points="352.0,209.0,360.0,210.0,368.0,213.0" stroke="black" stroke-width="1" fill="none" />
<polyline points="368.0,215.0,360.0,213.0,352.0,212.0" stroke="black" stroke-width="1" fill="none" />
<polyline points="372.0,223.0,371.0,231.0,367.0,235.0,362.0,243.0,356.0,249.0,369.0,248.0" stroke="black" stroke-width="1" fill="none" />
<polyline points="393.0,205.0,385.0,200.0,395.0,203.0,394.0,194.0,383.0,186.0,367.0,178.0" stroke="black" stroke-width="1" fill="none" />
<polyline points="401.0,157.0,398.0,165.0,400.0,169.0,398.0,177.0,401.0,185.0,402.0,193.0,401.0,201.0,401.0,209.0,402.0,217.0,397.0,225.0,393.0,232.0,397.0,233.0" stroke="black" stroke-width="1" fill="none" />
<polyline points="414.0,144.0,406.0,127.0" stroke="black" stroke-width="1" fill="none" />
<polyline points="387.0,135.0,388.0,143.0,389.0,140.0" stroke="black" stroke-width="1" fill="none" />
<polyline points="324.0,39.0,342.0,47.0,355.0,55.0,367.0,63.0,377.0,71.0,384.0,79.0,391.0,87.0,396.0,95.0,402.0,103.0,403.0,111.0,404.0,119.0,405.0,127.0,410.0,135.0,413.0,143.0,417.0,151.0,418.0,159.0,419.0,167.0,417.0,175.0,416.0,183.0,414.0,191.0,412.0,199.0,410.0,207.0,409.0,215.0,408.0,223.0,408.0,232.0,409.0,235.0,408.0,243.0,407.0,251.0,406.0,259.0,406.0,267.0,408.0,274.0,406.0,282.0,405.0,290.0,404.0,298.0,404.0,306.0,402.0,314.0,401.0,322.0,398.0,330.0,396.0,338.0,393.0,346.0,389.0,354.0,385.0,362.0,380.0,370.0,375.0,378.0,370.0,386.0,366.0,394.0,369.0,402.0,374.0,410.0,388.0,418.0" stroke="black" stroke-width="1" fill="none" />
<polyline points="140.0,246.0,135.0,238.0,130.0,236.0,122.0,228.0,116.0,220.0,114.0,212.0,111.0,204.0,108.0,196.0,108.0,188.0,109.0,180.0,108.0,172.0,107.0,164.0,107.0,156.0,107.0,148.0,107.0,140.0,108.0,132.0,111.0,124.0,114.0,116.0,117.0,108.0,120.0,100.0,124.0,92.0,128.0,84.0,133.0,76.0,140.0,68.0,148.0,60.0,156.0,52.0,165.0,44.0,182.0,36.0" stroke="black" stroke-width="1" fill="none" />
</svg>