<svg xmlns="http://www.w3.org/2000/svg" height="515px" width="510px" version="1.1"><polyline points="187.0,7.0,165.0,15.0,146.0,23.0,129.0,31.0,116.0,39.0,105.0,47.0,94.0,55.0,84.0,63.0,76.0,71.0,68.0,79.0,61.0,87.0,54.0,95.0,48.0,103.0,42.0,111.0,37.0,119.0,32.0,127.0,28.0,135.0,24.0,143.0,20.0,151.0,17.0,159.0,13.0,167.0,11.0,175.0,8.0,183.0,6.0,191.0,4.0,199.0,2.0,207.0,1.0,215.0" stroke="black" stroke-width="1" fill="none" />
<polyline points="7.0,185.0,15.0,163.0,23.0,145.0,31.0,129.0,39.0,116.0,47.0,104.0,55.0,94.0,63.0,84.0,71.0,76.0,79.0,68.0,87.0,61.0,95.0,54.0,103.0,48.0,111.0,42.0,119.0,37.0,127.0,32.0,135.0,29.0,143.0,24.0,151.0,21.0,159.0,18.0,167.0,14.0,175.0,11.0,183.0,9.0,191.0,6.0,199.0,5.0,207.0,3.0,215.0,2.0,223.0,1.0,232.0,1.0,240.0,1.0,248.0,1.0,256.0,1.0,264.0,1.0,272.0,1.0,280.0,1.0,288.0,3.0,296.0,1.0,304.0,2.0,312.0,4.0,320.0,6.0,328.0,8.0,336.0,10.0,344.0,13.0,352.0,17.0,360.0,20.0,368.0,24.0,376.0,28.0,384.0,31.0,392.0,37.0,400.0,42.0,408.0,48.0,416.0,54.0,424.0,60.0,432.0,68.0,440.0,74.0,448.0,84.0,456.0,93.0,464.0,103.0,472.0,115.0,480.0,128.0,488.0,145.0,496.0,163.0,504.0,185.0" stroke="black" stroke-width="1" fill="none" />
<polyline points="461.0,201.0,453.0,201.0,445.0,201.0" stroke="black" stroke-width="1" fill="none" />
<polyline points="434.0,198.0,442.0,192.0,450.0,185.0,454.0,182.0,444.0,190.0,434.0,198.0,435.0,206.0,440.0,208.0,448.0,208.0,456.0,208.0" stroke="black" stroke-width="1" fill="none" />
<polyline points="457.0,225.0,461.0,228.0,462.0,236.0" stroke="black" stroke-width="1" fill="none" />
<polyline points="458.0,234.0,457.0,226.0,447.0,226.0" stroke="black" stroke-width="1" fill="none" />
<polyline points="447.0,226.0,448.0,234.0,444.0,241.0" stroke="black" stroke-width="1" fill="none" />
<polyline points="444.0,252.0,452.0,253.0,459.0,259.0,464.0,259.0" stroke="black" stroke-width="1" fill="none" />
<polyline points="467.0,267.0,459.0,268.0,451.0,267.0,450.0,274.0,442.0,281.0" stroke="black" stroke-width="1" fill="none" />
<polyline points="447.0,287.0,455.0,279.0,463.0,277.0,465.0,279.0,469.0,287.0,465.0,295.0,463.0,286.0,459.0,294.0,463.0,297.0" stroke="black" stroke-width="1" fill="none" />
<polyline points="462.0,313.0,454.0,312.0,446.0,310.0,438.0,306.0,439.0,303.0,442.0,293.0,441.0,285.0,444.0,277.0,444.0,267.0,449.0,259.0,452.0,257.0,444.0,263.0" stroke="black" stroke-width="1" fill="none" />
<polyline points="456.0,266.0,448.0,269.0,451.0,280.0,447.0,288.0,447.0,297.0,455.0,295.0,463.0,286.0,457.0,291.0" stroke="black" stroke-width="1" fill="none" />
<polyline points="448.0,282.0,453.0,284.0,460.0,276.0" stroke="black" stroke-width="1" fill="none" />
<polyline points="470.0,262.0,470.0,254.0,469.0,246.0" stroke="black" stroke-width="1" fill="none" />
<polyline points="464.0,238.0,468.0,231.0,467.0,223.0,464.0,216.0,456.0,217.0,448.0,218.0,440.0,221.0" stroke="black" stroke-width="1" fill="none" />
<polyline points="441.0,219.0,441.0,227.0,442.0,235.0,444.0,247.0,444.0,246.0,452.0,245.0,460.0,245.0,468.0,245.0" stroke="black" stroke-width="1" fill="none" />
<polyline points="453.0,235.0,452.0,227.0" stroke="black" stroke-width="1" fill="none" />
<polyline points="449.0,195.0,444.0,199.0,454.0,191.0,455.0,183.0" stroke="black" stroke-width="1" fill="none" />
<polyline points="446.0,179.0,450.0,171.0" stroke="black" stroke-width="1" fill="none" />
<polyline points="447.0,170.0,428.0,178.0,428.0,186.0,434.0,184.0,442.0,181.0,450.0,178.0" stroke="black" stroke-width="1" fill="none" />
<polyline points="448.0,170.0,440.0,173.0,432.0,176.0,427.0,172.0,440.0,164.0,443.0,156.0" stroke="black" stroke-width="1" fill="none" />
<polyline points="442.0,155.0,434.0,159.0,441.0,155.0" stroke="black" stroke-width="1" fill="none" />
<polyline points="437.0,147.0,426.0,153.0,418.0,157.0,421.0,155.0,420.0,166.0" stroke="black" stroke-width="1" fill="none" />
<polyline points="445.0,161.0,437.0,166.0,429.0,171.0,421.0,169.0,420.0,167.0,423.0,159.0,430.0,158.0,435.0,150.0,434.0,142.0" stroke="black" stroke-width="1" fill="none" />
<polyline points="434.0,140.0,426.0,144.0,418.0,148.0,414.0,157.0,416.0,149.0,430.0,141.0" stroke="black" stroke-width="1" fill="none" />
<polyline points="421.0,137.0,426.0,129.0,421.0,137.0,413.0,143.0,405.0,143.0,397.0,133.0" stroke="black" stroke-width="1" fill="none" />
<polyline points="396.0,127.0,404.0,118.0,412.0,113.0,409.0,115.0,398.0,123.0,396.0,131.0,399.0,139.0" stroke="black" stroke-width="1" fill="none" />
<polyline points="422.0,125.0,413.0,133.0,408.0,136.0,416.0,130.0,424.0,126.0" stroke="black" stroke-width="1" fill="none" />
<polyline points="413.0,122.0,405.0,127.0,403.0,130.0,412.0,122.0,414.0,114.0" stroke="black" stroke-width="1" fill="none" />
<polyline points="378.0,104.0,370.0,99.0" stroke="black" stroke-width="1" fill="none" />
<polyline points="369.0,96.0,377.0,87.0" stroke="black" stroke-width="1" fill="none" />
<polyline points="372.0,79.0,366.0,87.0,360.0,95.0,364.0,103.0" stroke="black" stroke-width="1" fill="none" />
<polyline points="377.0,104.0,369.0,96.0,376.0,88.0,376.0,80.0,373.0,79.0,365.0,88.0,355.0,96.0,357.0,93.0,358.0,85.0,359.0,77.0,358.0,69.0,347.0,79.0" stroke="black" stroke-width="1" fill="none" />
<polyline points="352.0,75.0,350.0,75.0,343.0,86.0,350.0,94.0,365.0,103.0,373.0,109.0" stroke="black" stroke-width="1" fill="none" />
<polyline points="348.0,81.0,342.0,85.0,334.0,86.0,334.0,81.0,341.0,73.0,351.0,65.0" stroke="black" stroke-width="1" fill="none" />
<polyline points="355.0,66.0,347.0,69.0,339.0,76.0,329.0,82.0,332.0,74.0,334.0,66.0,333.0,58.0" stroke="black" stroke-width="1" fill="none" />
<polyline points="330.0,57.0,327.0,65.0,330.0,57.0" stroke="black" stroke-width="1" fill="none" />
<polyline points="316.0,65.0,313.0,73.0,308.0,77.0,316.0,65.0" stroke="black" stroke-width="1" fill="none" />
<polyline points="315.0,51.0,322.0,59.0,324.0,67.0,320.0,74.0,322.0,82.0,327.0,83.0,335.0,64.0" stroke="black" stroke-width="1" fill="none" />
<polyline points="318.0,52.0,310.0,59.0,305.0,75.0,307.0,67.0,310.0,59.0,313.0,51.0" stroke="black" stroke-width="1" fill="none" />
<polyline points="300.0,50.0,292.0,46.0,284.0,47.0,276.0,54.0" stroke="black" stroke-width="1" fill="none" />
<polyline points="275.0,59.0,283.0,71.0,291.0,72.0,299.0,68.0" stroke="black" stroke-width="1" fill="none" />
<polyline points="288.0,66.0,284.0,63.0,284.0,55.0,291.0,52.0,283.0,58.0" stroke="black" stroke-width="1" fill="none" />
<polyline points="292.0,53.0,295.0,61.0" stroke="black" stroke-width="1" fill="none" />
<polyline points="296.0,71.0,302.0,63.0,302.0,55.0,293.0,47.0" stroke="black" stroke-width="1" fill="none" />
<polyline points="285.0,46.0,276.0,54.0,276.0,62.0,280.0,70.0" stroke="black" stroke-width="1" fill="none" />
<polyline points="266.0,69.0,261.0,66.0,262.0,58.0,263.0,50.0,271.0,44.0,263.0,44.0" stroke="black" stroke-width="1" fill="none" />
<polyline points="270.0,44.0,270.0,52.0,270.0,60.0,269.0,68.0" stroke="black" stroke-width="1" fill="none" />
<polyline points="247.0,68.0,248.0,67.0,247.0,59.0,247.0,51.0,247.0,50.0" stroke="black" stroke-width="1" fill="none" />
<polyline points="231.0,50.0,239.0,53.0,239.0,59.0,240.0,67.0" stroke="black" stroke-width="1" fill="none" />
<polyline points="230.0,46.0,238.0,43.0,246.0,43.0,254.0,43.0" stroke="black" stroke-width="1" fill="none" />
<polyline points="226.0,56.0,218.0,47.0,210.0,50.0" stroke="black" stroke-width="1" fill="none" />
<polyline points="214.0,47.0,209.0,55.0,208.0,63.0,206.0,71.0,210.0,74.0,218.0,68.0,226.0,71.0" stroke="black" stroke-width="1" fill="none" />
<polyline points="217.0,68.0,215.0,63.0,217.0,55.0,217.0,55.0" stroke="black" stroke-width="1" fill="none" />
<polyline points="219.0,48.0,224.0,56.0,230.0,64.0" stroke="black" stroke-width="1" fill="none" />
<polyline points="196.0,54.0,188.0,54.0" stroke="black" stroke-width="1" fill="none" />
<polyline points="193.0,52.0,189.0,60.0,187.0,72.0" stroke="black" stroke-width="1" fill="none" />
<polyline points="183.0,70.0,191.0,74.0,199.0,78.0" stroke="black" stroke-width="1" fill="none" />
<polyline points="188.0,64.0,180.0,58.0,172.0,59.0" stroke="black" stroke-width="1" fill="none" />
<polyline points="174.0,58.0,174.0,66.0,176.0,74.0,178.0,82.0" stroke="black" stroke-width="1" fill="none" />
<polyline points="176.0,84.0,168.0,79.0" stroke="black" stroke-width="1" fill="none" />
<polyline points="168.0,89.0,157.0,86.0" stroke="black" stroke-width="1" fill="none" />
<polyline points="156.0,84.0,164.0,86.0,172.0,88.0" stroke="black" stroke-width="1" fill="none" />
<polyline points="158.0,94.0,156.0,86.0,153.0,77.0" stroke="black" stroke-width="1" fill="none" />
<polyline points="144.0,77.0,152.0,93.0" stroke="black" stroke-width="1" fill="none" />
<polyline points="136.0,96.0,133.0,98.0,142.0,90.0,137.0,89.0,129.0,93.0" stroke="black" stroke-width="1" fill="none" />
<polyline points="119.0,93.0,127.0,104.0,135.0,111.0,143.0,104.0,143.0,97.0,137.0,101.0,145.0,96.0" stroke="black" stroke-width="1" fill="none" />
<polyline points="131.0,88.0,129.0,89.0,136.0,81.0" stroke="black" stroke-width="1" fill="none" />
<polyline points="143.0,73.0,151.0,68.0,159.0,65.0,167.0,69.0,167.0,73.0,170.0,81.0" stroke="black" stroke-width="1" fill="none" />
<polyline points="159.0,65.0,143.0,73.0,145.0,81.0,149.0,89.0,148.0,97.0,142.0,105.0" stroke="black" stroke-width="1" fill="none" />
<polyline points="128.0,107.0,123.0,99.0,118.0,91.0,128.0,83.0,134.0,80.0,126.0,85.0,118.0,90.0" stroke="black" stroke-width="1" fill="none" />
<polyline points="111.0,105.0,115.0,101.0,112.0,109.0,120.0,117.0" stroke="black" stroke-width="1" fill="none" />
<polyline points="120.0,116.0,112.0,108.0" stroke="black" stroke-width="1" fill="none" />
<polyline points="119.0,124.0,111.0,118.0,103.0,112.0,95.0,114.0" stroke="black" stroke-width="1" fill="none" />
<polyline points="94.0,112.0,102.0,104.0,110.0,97.0,110.0,97.0,101.0,105.0,94.0,113.0,100.0,115.0,112.0,120.0" stroke="black" stroke-width="1" fill="none" />
<polyline points="105.0,140.0,97.0,140.0,89.0,140.0" stroke="black" stroke-width="1" fill="none" />
<polyline points="89.0,142.0,96.0,150.0" stroke="black" stroke-width="1" fill="none" />
<polyline points="97.0,147.0,89.0,142.0" stroke="black" stroke-width="1" fill="none" />
<polyline points="94.0,131.0,86.0,125.0" stroke="black" stroke-width="1" fill="none" />
<polyline points="84.0,123.0,92.0,121.0,100.0,127.0,108.0,132.0" stroke="black" stroke-width="1" fill="none" />
<polyline points="89.0,132.0,81.0,132.0,73.0,138.0" stroke="black" stroke-width="1" fill="none" />
<polyline points="74.0,139.0,82.0,145.0,90.0,151.0" stroke="black" stroke-width="1" fill="none" />
<polyline points="82.0,163.0,74.0,159.0,66.0,154.0" stroke="black" stroke-width="1" fill="none" />
<polyline points="65.0,151.0,73.0,149.0,81.0,153.0,89.0,158.0" stroke="black" stroke-width="1" fill="none" />
<polyline points="88.0,164.0,84.0,156.0,70.0,148.0" stroke="black" stroke-width="1" fill="none" />
<polyline points="67.0,147.0,66.0,155.0,81.0,163.0" stroke="black" stroke-width="1" fill="none" />
<polyline points="72.0,181.0,64.0,178.0,56.0,178.0,48.0,189.0" stroke="black" stroke-width="1" fill="none" />
<polyline points="55.0,188.0,63.0,186.0,66.0,188.0,68.0,196.0" stroke="black" stroke-width="1" fill="none" />
<polyline points="73.0,201.0,65.0,207.0,57.0,206.0,49.0,198.0" stroke="black" stroke-width="1" fill="none" />
<polyline points="50.0,211.0,40.0,219.0,39.0,227.0,41.0,235.0,43.0,247.0,47.0,251.0,55.0,252.0,63.0,252.0" stroke="black" stroke-width="1" fill="none" />
<polyline points="64.0,236.0,56.0,240.0,48.0,239.0,40.0,233.0" stroke="black" stroke-width="1" fill="none" />
<polyline points="46.0,224.0,54.0,220.0,58.0,221.0,60.0,229.0" stroke="black" stroke-width="1" fill="none" />
<polyline points="58.0,231.0,50.0,231.0,47.0,228.0,48.0,220.0" stroke="black" stroke-width="1" fill="none" />
<polyline points="39.0,221.0,47.0,212.0,55.0,211.0,63.0,214.0" stroke="black" stroke-width="1" fill="none" />
<polyline points="66.0,198.0,58.0,196.0,55.0,194.0,57.0,186.0" stroke="black" stroke-width="1" fill="none" />
<polyline points="56.0,178.0,49.0,186.0,48.0,194.0,51.0,202.0,63.0,215.0,68.0,223.0,67.0,231.0,60.0,239.0" stroke="black" stroke-width="1" fill="none" />
<polyline points="58.0,261.0,50.0,261.0,42.0,263.0,36.0,267.0,36.0,259.0,36.0,251.0,37.0,243.0,36.0,245.0" stroke="black" stroke-width="1" fill="none" />
<polyline points="50.0,271.0,50.0,272.0,50.0,280.0,51.0,288.0" stroke="black" stroke-width="1" fill="none" />
<polyline points="66.0,292.0,64.0,300.0,65.0,308.0,71.0,316.0,66.0,323.0,68.0,331.0,57.0,339.0,52.0,347.0,56.0,349.0,64.0,346.0,72.0,343.0" stroke="black" stroke-width="1" fill="none" />
<polyline points="67.0,336.0,59.0,339.0,51.0,341.0" stroke="black" stroke-width="1" fill="none" />
<polyline points="60.0,364.0,68.0,356.0,76.0,347.0,78.0,345.0,70.0,353.0,63.0,361.0,61.0,369.0,64.0,373.0,72.0,373.0,80.0,372.0,88.0,371.0" stroke="black" stroke-width="1" fill="none" />
<polyline points="78.0,363.0,70.0,366.0" stroke="black" stroke-width="1" fill="none" />
<polyline points="69.0,364.0,77.0,361.0,89.0,363.0" stroke="black" stroke-width="1" fill="none" />
<polyline points="92.0,370.0,83.0,362.0,81.0,354.0,81.0,346.0" stroke="black" stroke-width="1" fill="none" />
<polyline points="73.0,324.0,66.0,323.0,62.0,317.0,54.0,316.0,46.0,314.0,42.0,311.0,43.0,303.0,57.0,295.0,65.0,291.0,57.0,295.0,49.0,300.0,41.0,304.0" stroke="black" stroke-width="1" fill="none" />
<polyline points="51.0,307.0,59.0,306.0,65.0,306.0" stroke="black" stroke-width="1" fill="none" />
<polyline points="72.0,323.0,76.0,331.0,79.0,339.0,59.0,347.0" stroke="black" stroke-width="1" fill="none" />
<polyline points="29.0,327.0,37.0,350.0,45.0,366.0,53.0,381.0,61.0,394.0,69.0,405.0,77.0,414.0,85.0,423.0,93.0,431.0,101.0,439.0,109.0,445.0,117.0,452.0,125.0,457.0,133.0,462.0,141.0,466.0,149.0,472.0,157.0,476.0,165.0,479.0,173.0,482.0,181.0,485.0,189.0,487.0,197.0,489.0,205.0,491.0,213.0,493.0,221.0,494.0,229.0,495.0,237.0,495.0,245.0,496.0,253.0,496.0,261.0,496.0,269.0,496.0,277.0,495.0,285.0,494.0,293.0,493.0,301.0,491.0,309.0,489.0,317.0,487.0,325.0,485.0,333.0,482.0,341.0,479.0,349.0,476.0,357.0,472.0,365.0,467.0,373.0,462.0,381.0,458.0,389.0,452.0,397.0,446.0,405.0,438.0,413.0,432.0,421.0,424.0,429.0,415.0,437.0,406.0,445.0,395.0,453.0,383.0,461.0,367.0,469.0,353.0,477.0,330.0" stroke="black" stroke-width="1" fill="none" />
<polyline points="509.0,304.0,509.0,298.0,509.0,306.0,507.0,314.0,506.0,322.0,504.0,330.0,501.0,338.0,498.0,346.0,494.0,354.0,491.0,362.0,487.0,370.0,484.0,378.0,479.0,386.0,475.0,394.0,470.0,402.0,463.0,410.0,458.0,418.0,451.0,426.0,444.0,434.0,437.0,442.0,428.0,450.0,419.0,458.0,409.0,466.0,398.0,474.0,385.0,482.0,369.0,490.0" stroke="black" stroke-width="1" fill="none" />
<polyline points="380.0,427.0,373.0,430.0,371.0,422.0,370.0,421.0" stroke="black" stroke-width="1" fill="none" />
<polyline points="369.0,419.0,377.0,418.0,385.0,418.0,386.0,422.0,386.0,422.0" stroke="black" stroke-width="1" fill="none" />
<polyline points="438.0,371.0,430.0,359.0,422.0,354.0" stroke="black" stroke-width="1" fill="none" />
<polyline points="421.0,350.0,429.0,348.0,437.0,351.0,445.0,349.0" stroke="black" stroke-width="1" fill="none" />
<polyline points="450.0,351.0,442.0,357.0,439.0,360.0" stroke="black" stroke-width="1" fill="none" />
<polyline points="436.0,370.0,431.0,362.0,420.0,354.0,423.0,346.0" stroke="black" stroke-width="1" fill="none" />
<polyline points="432.0,328.0,440.0,331.0,448.0,334.0" stroke="black" stroke-width="1" fill="none" />
<polyline points="455.0,338.0,454.0,342.0,457.0,334.0,459.0,326.0,463.0,312.0,463.0,306.0,455.0,304.0,447.0,303.0,439.0,302.0" stroke="black" stroke-width="1" fill="none" />
<polyline points="433.0,321.0,432.0,329.0,449.0,337.0,451.0,350.0,438.0,358.0,442.0,366.0" stroke="black" stroke-width="1" fill="none" />
<polyline points="431.0,326.0,439.0,322.0,447.0,325.0,455.0,320.0" stroke="black" stroke-width="1" fill="none" />
<polyline points="378.0,284.0,370.0,277.0" stroke="black" stroke-width="1" fill="none" />
<polyline points="370.0,266.0,378.0,262.0,386.0,266.0,387.0,270.0,386.0,278.0" stroke="black" stroke-width="1" fill="none" />
<polyline points="390.0,292.0,382.0,295.0,374.0,294.0,366.0,292.0,358.0,279.0" stroke="black" stroke-width="1" fill="none" />
<polyline points="337.0,279.0,338.0,271.0,334.0,263.0,330.0,262.0,322.0,267.0" stroke="black" stroke-width="1" fill="none" />
<polyline points="326.0,262.0,322.0,270.0,322.0,278.0,324.0,281.0,332.0,284.0" stroke="black" stroke-width="1" fill="none" />
<polyline points="342.0,291.0,334.0,294.0,326.0,294.0,318.0,292.0,310.0,282.0" stroke="black" stroke-width="1" fill="none" />
<polyline points="301.0,263.0,293.0,263.0" stroke="black" stroke-width="1" fill="none" />
<polyline points="293.0,263.0,293.0,271.0,293.0,279.0,293.0,287.0" stroke="black" stroke-width="1" fill="none" />
<polyline points="290.0,294.0,282.0,294.0,280.0,288.0,280.0,280.0,280.0,272.0,279.0,264.0" stroke="black" stroke-width="1" fill="none" />
<polyline points="267.0,254.0,275.0,252.0,283.0,252.0,291.0,252.0,299.0,252.0,305.0,254.0,304.0,262.0,316.0,255.0,324.0,252.0,332.0,251.0,340.0,253.0,348.0,259.0,362.0,257.0,370.0,252.0,378.0,251.0,386.0,252.0,394.0,257.0" stroke="black" stroke-width="1" fill="none" />
<polyline points="388.0,253.0,396.0,261.0,399.0,269.0,399.0,277.0,396.0,285.0,387.0,293.0" stroke="black" stroke-width="1" fill="none" />
<polyline points="384.0,320.0,376.0,320.0,368.0,321.0,360.0,321.0,352.0,321.0,344.0,321.0,336.0,321.0,328.0,323.0" stroke="black" stroke-width="1" fill="none" />
<polyline points="329.0,321.0,329.0,329.0,327.0,337.0,325.0,345.0,323.0,353.0,319.0,361.0,326.0,369.0,346.0,377.0" stroke="black" stroke-width="1" fill="none" />
<polyline points="349.0,376.0,358.0,368.0,365.0,360.0,372.0,352.0,378.0,344.0,383.0,336.0,387.0,328.0,391.0,322.0,383.0,335.0,375.0,347.0,367.0,358.0,359.0,367.0,351.0,375.0,343.0,376.0,335.0,372.0,327.0,369.0,319.0,365.0" stroke="black" stroke-width="1" fill="none" />
<polyline points="317.0,374.0,335.0,382.0,333.0,390.0,321.0,398.0,305.0,406.0,294.0,410.0,302.0,408.0,310.0,404.0,318.0,400.0,326.0,395.0,334.0,389.0" stroke="black" stroke-width="1" fill="none" />
<polyline points="339.0,383.0,331.0,379.0,323.0,376.0,315.0,373.0,307.0,381.0,299.0,394.0,291.0,407.0,292.0,405.0,297.0,397.0,302.0,389.0,307.0,381.0,312.0,373.0" stroke="black" stroke-width="1" fill="none" />
<polyline points="280.0,407.0,284.0,399.0,290.0,391.0,294.0,383.0,298.0,375.0,294.0,367.0,294.0,367.0,286.0,365.0,278.0,364.0,270.0,363.0,262.0,363.0" stroke="black" stroke-width="1" fill="none" />
<polyline points="264.0,362.0,262.0,370.0,262.0,378.0,263.0,386.0,263.0,394.0,264.0,402.0,264.0,410.0,268.0,414.0,276.0,414.0,284.0,399.0,292.0,387.0,300.0,372.0" stroke="black" stroke-width="1" fill="none" />
<polyline points="307.0,358.0,311.0,350.0,314.0,342.0,317.0,334.0,318.0,326.0,316.0,321.0,308.0,320.0,300.0,320.0,292.0,320.0,284.0,320.0,276.0,321.0,268.0,321.0,260.0,323.0" stroke="black" stroke-width="1" fill="none" />
<polyline points="261.0,321.0,261.0,329.0,261.0,337.0,261.0,345.0,262.0,353.0,269.0,354.0,277.0,355.0,285.0,356.0,293.0,357.0,301.0,359.0,309.0,354.0" stroke="black" stroke-width="1" fill="none" />
<polyline points="259.0,282.0,251.0,282.0,243.0,281.0" stroke="black" stroke-width="1" fill="none" />
<polyline points="244.0,274.0,245.0,282.0,249.0,274.0,257.0,274.0,265.0,275.0" stroke="black" stroke-width="1" fill="none" />
<polyline points="280.0,265.0,272.0,263.0,267.0,260.0,268.0,252.0" stroke="black" stroke-width="1" fill="none" />
<polyline points="254.0,229.0,262.0,230.0,270.0,230.0,278.0,230.0,286.0,230.0,294.0,230.0,302.0,228.0,310.0,219.0,318.0,212.0,326.0,204.0,334.0,195.0,342.0,187.0,350.0,180.0,362.0,189.0,369.0,197.0,376.0,205.0,384.0,213.0,391.0,221.0" stroke="black" stroke-width="1" fill="none" />
<polyline points="391.0,229.0,383.0,229.0,375.0,229.0,367.0,229.0,359.0,229.0,351.0,229.0,343.0,229.0,335.0,229.0,327.0,229.0,319.0,229.0,311.0,229.0" stroke="black" stroke-width="1" fill="none" />
<polyline points="325.0,251.0,312.0,259.0,309.0,267.0,308.0,275.0,310.0,283.0,316.0,291.0" stroke="black" stroke-width="1" fill="none" />
<polyline points="339.0,293.0,348.0,285.0,351.0,277.0,351.0,269.0,348.0,261.0,339.0,253.0" stroke="black" stroke-width="1" fill="none" />
<polyline points="369.0,252.0,360.0,260.0,357.0,268.0,357.0,276.0,359.0,284.0,365.0,292.0" stroke="black" stroke-width="1" fill="none" />
<polyline points="370.0,278.0,369.0,270.0,374.0,262.0" stroke="black" stroke-width="1" fill="none" />
<polyline points="390.0,219.0,382.0,210.0,374.0,202.0,366.0,192.0,358.0,183.0,350.0,187.0,342.0,194.0,334.0,203.0,326.0,211.0,318.0,219.0,310.0,226.0,314.0,222.0,323.0,214.0,331.0,206.0,339.0,198.0,347.0,190.0,355.0,182.0,345.0,170.0,337.0,160.0,329.0,153.0,321.0,160.0,313.0,168.0,305.0,176.0,297.0,184.0,289.0,192.0,281.0,200.0,273.0,208.0,265.0,216.0,257.0,224.0,253.0,227.0,262.0,219.0,270.0,211.0,278.0,203.0,286.0,195.0,294.0,187.0,302.0,179.0,310.0,171.0,318.0,163.0,327.0,155.0,320.0,155.0,312.0,162.0,304.0,171.0,296.0,179.0,288.0,187.0,280.0,194.0,272.0,202.0,264.0,210.0,256.0,218.0,248.0,225.0,240.0,230.0,232.0,230.0,224.0,230.0,216.0,230.0,208.0,230.0,200.0,230.0,192.0,230.0,184.0,230.0,176.0,230.0" stroke="black" stroke-width="1" fill="none" />
<polyline points="159.0,252.0,159.0,260.0,159.0,268.0,159.0,276.0,159.0,284.0,159.0,292.0,165.0,294.0,173.0,294.0,181.0,294.0,189.0,294.0,200.0,277.0,208.0,254.0,216.0,252.0,224.0,255.0,232.0,275.0" stroke="black" stroke-width="1" fill="none" />
<polyline points="217.0,278.0,212.0,276.0,214.0,268.0,214.0,267.0" stroke="black" stroke-width="1" fill="none" />
<polyline points="217.0,266.0,219.0,274.0" stroke="black" stroke-width="1" fill="none" />
<polyline points="223.0,253.0,226.0,261.0,230.0,269.0,233.0,277.0,235.0,285.0,237.0,293.0" stroke="black" stroke-width="1" fill="none" />
<polyline points="191.0,292.0,190.0,284.0,184.0,283.0,176.0,283.0,172.0,279.0,172.0,271.0,172.0,263.0,172.0,255.0,167.0,252.0,159.0,252.0" stroke="black" stroke-width="1" fill="none" />
<polyline points="139.0,253.0,142.0,261.0,145.0,269.0,148.0,277.0,151.0,285.0,153.0,293.0" stroke="black" stroke-width="1" fill="none" />
<polyline points="152.0,286.0,144.0,265.0,136.0,252.0,128.0,252.0,120.0,265.0,112.0,287.0" stroke="black" stroke-width="1" fill="none" />
<polyline points="135.0,274.0,133.0,266.0" stroke="black" stroke-width="1" fill="none" />
<polyline points="130.0,266.0,128.0,274.0,131.0,278.0" stroke="black" stroke-width="1" fill="none" />
<polyline points="148.0,294.0,140.0,287.0,132.0,286.0,124.0,287.0,116.0,294.0,111.0,292.0,113.0,284.0,116.0,276.0,119.0,268.0,122.0,260.0,125.0,252.0" stroke="black" stroke-width="1" fill="none" />
<polyline points="119.0,230.0,127.0,230.0,135.0,230.0,143.0,230.0,151.0,230.0,159.0,230.0,167.0,229.0,175.0,221.0,183.0,214.0,191.0,206.0,199.0,200.0,207.0,191.0,215.0,184.0,223.0,177.0" stroke="black" stroke-width="1" fill="none" />
<polyline points="208.0,145.0,213.0,153.0,218.0,161.0,222.0,169.0,223.0,177.0,214.0,185.0,205.0,193.0,198.0,201.0,188.0,209.0,179.0,217.0,170.0,225.0" stroke="black" stroke-width="1" fill="none" />
<polyline points="209.0,252.0,207.0,260.0,204.0,268.0,201.0,276.0,198.0,284.0,194.0,292.0,200.0,294.0,208.0,289.0,216.0,286.0,224.0,290.0,232.0,294.0" stroke="black" stroke-width="1" fill="none" />
<polyline points="197.0,320.0,197.0,328.0,198.0,336.0,200.0,344.0,203.0,352.0,206.0,360.0" stroke="black" stroke-width="1" fill="none" />
<polyline points="213.0,368.0,215.0,376.0,219.0,384.0,223.0,392.0,229.0,400.0,233.0,408.0" stroke="black" stroke-width="1" fill="none" />
<polyline points="245.0,414.0,237.0,414.0,229.0,399.0,221.0,387.0,213.0,372.0" stroke="black" stroke-width="1" fill="none" />
<polyline points="212.0,369.0,220.0,366.0,228.0,365.0,236.0,363.0,244.0,363.0,250.0,363.0,251.0,371.0,250.0,379.0,250.0,387.0,250.0,395.0,249.0,403.0,249.0,411.0" stroke="black" stroke-width="1" fill="none" />
<polyline points="223.0,411.0,215.0,409.0,207.0,406.0,199.0,402.0,191.0,398.0,183.0,392.0,175.0,386.0" stroke="black" stroke-width="1" fill="none" />
<polyline points="174.0,383.0,182.0,379.0,190.0,376.0,198.0,373.0,206.0,381.0,214.0,394.0,222.0,407.0" stroke="black" stroke-width="1" fill="none" />
<polyline points="220.0,406.0,216.0,398.0,211.0,390.0,206.0,382.0,201.0,374.0" stroke="black" stroke-width="1" fill="none" />
<polyline points="197.0,373.0,179.0,381.0,178.0,389.0,189.0,397.0,204.0,405.0" stroke="black" stroke-width="1" fill="none" />
<polyline points="209.0,445.0,198.0,453.0,200.0,452.0,208.0,446.0" stroke="black" stroke-width="1" fill="none" />
<polyline points="211.0,446.0,213.0,454.0,213.0,462.0,212.0,470.0,211.0,478.0" stroke="black" stroke-width="1" fill="none" />
<polyline points="224.0,475.0,232.0,480.0,240.0,477.0,253.0,472.0,261.0,475.0" stroke="black" stroke-width="1" fill="none" />
<polyline points="260.0,463.0,257.0,458.0,265.0,453.0,257.0,455.0" stroke="black" stroke-width="1" fill="none" />
<polyline points="264.0,453.0,265.0,461.0,264.0,473.0" stroke="black" stroke-width="1" fill="none" />
<polyline points="279.0,473.0,287.0,480.0,295.0,480.0" stroke="black" stroke-width="1" fill="none" />
<polyline points="295.0,469.0,293.0,464.0,285.0,468.0" stroke="black" stroke-width="1" fill="none" />
<polyline points="286.0,460.0,294.0,459.0" stroke="black" stroke-width="1" fill="none" />
<polyline points="293.0,453.0,285.0,457.0" stroke="black" stroke-width="1" fill="none" />
<polyline points="289.0,452.0,285.0,460.0,285.0,470.0,286.0,471.0,294.0,473.0" stroke="black" stroke-width="1" fill="none" />
<polyline points="300.0,475.0,301.0,467.0,297.0,456.0,295.0,448.0" stroke="black" stroke-width="1" fill="none" />
<polyline points="296.0,448.0,288.0,447.0,280.0,452.0,266.0,447.0,258.0,447.0,250.0,453.0,238.0,447.0,230.0,447.0,222.0,454.0" stroke="black" stroke-width="1" fill="none" />
<polyline points="223.0,461.0,231.0,467.0,239.0,468.0" stroke="black" stroke-width="1" fill="none" />
<polyline points="251.0,462.0,259.0,468.0" stroke="black" stroke-width="1" fill="none" />
<polyline points="269.0,477.0,261.0,480.0,253.0,478.0,251.0,475.0,251.0,463.0,250.0,455.0,257.0,447.0" stroke="black" stroke-width="1" fill="none" />
<polyline points="261.0,446.0,272.0,454.0,273.0,462.0,272.0,470.0,267.0,478.0" stroke="black" stroke-width="1" fill="none" />
<polyline points="284.0,480.0,278.0,472.0,278.0,464.0,279.0,456.0,284.0,448.0" stroke="black" stroke-width="1" fill="none" />
<polyline points="238.0,447.0,245.0,455.0,246.0,463.0,245.0,471.0,236.0,479.0" stroke="black" stroke-width="1" fill="none" />
<polyline points="231.0,473.0,223.0,472.0" stroke="black" stroke-width="1" fill="none" />
<polyline points="225.0,471.0,228.0,479.0" stroke="black" stroke-width="1" fill="none" />
<polyline points="206.0,473.0,206.0,465.0,206.0,457.0,199.0,458.0" stroke="black" stroke-width="1" fill="none" />
<polyline points="232.0,452.0,230.0,459.0,233.0,451.0" stroke="black" stroke-width="1" fill="none" />
<polyline points="236.0,452.0,238.0,460.0,235.0,463.0" stroke="black" stroke-width="1" fill="none" />
<polyline points="230.0,473.0,239.0,468.0,223.0,462.0,222.0,454.0,231.0,446.0" stroke="black" stroke-width="1" fill="none" />
<polyline points="288.0,515.0,296.0,514.0,304.0,512.0,312.0,511.0,320.0,509.0,328.0,507.0,336.0,502.0,345.0,501.0,353.0,498.0,361.0,494.0,369.0,490.0,377.0,487.0,385.0,482.0,393.0,477.0,401.0,472.0,409.0,466.0,417.0,460.0,425.0,453.0,433.0,445.0,441.0,437.0,449.0,429.0,457.0,419.0,465.0,408.0,473.0,397.0,481.0,383.0,489.0,366.0,497.0,349.0" stroke="black" stroke-width="1" fill="none" />
<polyline points="499.0,186.0,491.0,164.0,483.0,145.0,475.0,129.0,467.0,117.0,459.0,106.0,451.0,95.0,443.0,85.0,435.0,78.0,427.0,69.0,419.0,62.0,411.0,55.0,403.0,50.0,395.0,43.0,387.0,38.0,379.0,33.0,371.0,29.0,363.0,25.0,355.0,21.0,347.0,18.0,339.0,15.0,331.0,12.0,323.0,9.0,315.0,8.0,307.0,6.0,299.0,4.0,291.0,3.0" stroke="black" stroke-width="1" fill="none" />
<polyline points="324.0,10.0,345.0,18.0,363.0,26.0,379.0,34.0,392.0,42.0,402.0,50.0,414.0,58.0,423.0,66.0,431.0,74.0,439.0,82.0,446.0,90.0,453.0,98.0,459.0,106.0,464.0,114.0,470.0,122.0,475.0,130.0,479.0,138.0,483.0,146.0,486.0,154.0,490.0,162.0,492.0,170.0,495.0,178.0,499.0,186.0,501.0,194.0,502.0,202.0,504.0,210.0,505.0,218.0,507.0,226.0,507.0,234.0,508.0,242.0,508.0,250.0,508.0,258.0,508.0,266.0,508.0,274.0,507.0,282.0,507.0,290.0,505.0,298.0,504.0,306.0,502.0,314.0,501.0,322.0,499.0,330.0,495.0,338.0,493.0,346.0,490.0,354.0,486.0,362.0,483.0,370.0,479.0,378.0,475.0,386.0,470.0,394.0,464.0,402.0,459.0,410.0,453.0,418.0,447.0,426.0,439.0,434.0,432.0,442.0,423.0,450.0,414.0,458.0,403.0,466.0,393.0,474.0,380.0,482.0,363.0,490.0,345.0,498.0,332.0,506.0,343.0,499.0,351.0,496.0,359.0,492.0,367.0,488.0,375.0,485.0,383.0,480.0,391.0,475.0,399.0,469.0,407.0,464.0,415.0,457.0,423.0,450.0,431.0,443.0,439.0,434.0,447.0,425.0,455.0,415.0,463.0,403.0,471.0,392.0,479.0,377.0,487.0,360.0,495.0,338.0" stroke="black" stroke-width="1" fill="none" />
<polyline points="251.0,351.0,252.0,343.0,252.0,335.0,253.0,327.0,252.0,321.0,244.0,320.0,236.0,320.0,228.0,320.0,220.0,320.0,212.0,320.0,204.0,320.0,196.0,321.0" stroke="black" stroke-width="1" fill="none" />
<polyline points="200.0,343.0,208.0,361.0,216.0,358.0,224.0,357.0,232.0,355.0,240.0,355.0,248.0,354.0" stroke="black" stroke-width="1" fill="none" />
<polyline points="195.0,365.0,187.0,368.0,179.0,371.0,171.0,375.0,163.0,375.0,155.0,367.0,147.0,358.0,139.0,347.0,131.0,336.0,123.0,322.0" stroke="black" stroke-width="1" fill="none" />
<polyline points="122.0,320.0,126.0,328.0,130.0,336.0,136.0,344.0,141.0,352.0,147.0,360.0,155.0,368.0,163.0,376.0" stroke="black" stroke-width="1" fill="none" />
<polyline points="184.0,369.0,194.0,361.0,191.0,353.0,188.0,345.0,186.0,337.0,185.0,329.0,184.0,321.0,178.0,320.0,170.0,320.0,162.0,320.0,154.0,320.0,146.0,320.0,138.0,320.0,130.0,320.0,122.0,320.0" stroke="black" stroke-width="1" fill="none" />
<polyline points="56.0,287.0,56.0,279.0,54.0,271.0" stroke="black" stroke-width="1" fill="none" />
<polyline points="19.0,333.0,27.0,356.0,35.0,373.0,43.0,388.0,51.0,399.0,59.0,411.0,67.0,421.0,75.0,430.0,83.0,437.0,91.0,446.0,99.0,453.0,107.0,458.0,115.0,464.0,123.0,470.0,131.0,475.0,139.0,479.0,147.0,484.0,155.0,487.0,163.0,491.0,171.0,494.0,179.0,496.0,187.0,499.0,195.0,501.0,203.0,504.0,211.0,505.0,219.0,506.0,227.0,507.0,235.0,508.0,243.0,509.0,251.0,509.0,259.0,509.0,267.0,508.0,275.0,508.0,283.0,507.0,291.0,506.0,299.0,505.0,307.0,503.0,315.0,500.0,323.0,498.0,331.0,496.0,339.0,493.0,347.0,490.0,355.0,486.0,363.0,482.0,371.0,478.0,379.0,474.0,387.0,468.0,395.0,463.0,403.0,457.0,411.0,451.0,419.0,444.0,427.0,435.0,435.0,427.0,443.0,419.0,451.0,407.0,459.0,396.0,467.0,384.0,475.0,368.0,483.0,350.0" stroke="black" stroke-width="1" fill="none" />
<polyline points="476.0,182.0,468.0,160.0,460.0,146.0,452.0,131.0,444.0,119.0,436.0,110.0,428.0,99.0,420.0,91.0,412.0,83.0,404.0,77.0,396.0,69.0,388.0,63.0,380.0,58.0,372.0,54.0,364.0,49.0,356.0,44.0,348.0,40.0,340.0,37.0,332.0,34.0,324.0,31.0,316.0,29.0,308.0,27.0,300.0,25.0,292.0,24.0,284.0,23.0,276.0,22.0,268.0,21.0,260.0,21.0,252.0,21.0,244.0,21.0,236.0,21.0,228.0,22.0,220.0,23.0,212.0,24.0,204.0,26.0,196.0,28.0,188.0,30.0,180.0,32.0,172.0,35.0,164.0,38.0,156.0,41.0,148.0,46.0,140.0,51.0,132.0,55.0,124.0,60.0,116.0,65.0,108.0,71.0,100.0,78.0,92.0,86.0,84.0,94.0,76.0,103.0,68.0,112.0,60.0,123.0,52.0,137.0,44.0,150.0,36.0,168.0,28.0,191.0" stroke="black" stroke-width="1" fill="none" />
<polyline points="19.0,181.0,27.0,159.0,35.0,142.0,43.0,127.0,51.0,116.0,59.0,104.0,67.0,94.0,75.0,86.0,83.0,78.0,91.0,70.0,99.0,63.0,107.0,57.0,115.0,51.0,123.0,46.0,131.0,40.0,139.0,36.0,147.0,32.0,155.0,29.0,163.0,25.0,171.0,23.0,179.0,20.0,187.0,18.0,195.0,15.0,203.0,13.0,211.0,11.0,219.0,10.0,227.0,9.0,235.0,8.0,243.0,8.0,251.0,8.0,259.0,8.0,267.0,8.0,275.0,8.0,283.0,9.0,291.0,10.0,299.0,12.0,307.0,13.0,315.0,16.0,323.0,18.0,331.0,21.0,339.0,24.0,347.0,26.0,355.0,30.0,363.0,33.0,371.0,38.0,379.0,42.0,387.0,48.0,395.0,53.0,403.0,59.0,411.0,64.0,419.0,71.0,427.0,80.0,435.0,88.0,443.0,96.0,451.0,108.0,459.0,119.0,467.0,131.0,475.0,146.0,483.0,164.0,491.0,188.0" stroke="black" stroke-width="1" fill="none" />
<polyline points="331.0,154.0,338.0,162.0,344.0,170.0,352.0,178.0,343.0,186.0,335.0,194.0,328.0,202.0,320.0,210.0,311.0,218.0,303.0,226.0" stroke="black" stroke-width="1" fill="none" />
<polyline points="244.0,146.0,236.0,150.0,228.0,148.0,220.0,140.0" stroke="black" stroke-width="1" fill="none" />
<polyline points="205.0,144.0,196.0,152.0,187.0,160.0,180.0,168.0,172.0,176.0,163.0,184.0,155.0,192.0,147.0,200.0,139.0,208.0,130.0,216.0,122.0,224.0,119.0,227.0,127.0,219.0,135.0,212.0,143.0,204.0,151.0,195.0,159.0,188.0,167.0,181.0,175.0,173.0,183.0,164.0,191.0,156.0,199.0,150.0,207.0,144.0,215.0,155.0,223.0,169.0" stroke="black" stroke-width="1" fill="none" />
<polyline points="219.0,123.0,227.0,115.0,235.0,113.0,243.0,115.0" stroke="black" stroke-width="1" fill="none" />
<polyline points="239.0,114.0,248.0,122.0,251.0,130.0,250.0,138.0,244.0,146.0" stroke="black" stroke-width="1" fill="none" />
<polyline points="223.0,145.0,219.0,137.0,218.0,129.0,220.0,121.0,232.0,113.0" stroke="black" stroke-width="1" fill="none" />
<polyline points="295.0,116.0,286.0,124.0,277.0,132.0,269.0,140.0,260.0,148.0,251.0,156.0,242.0,164.0,235.0,172.0,226.0,180.0,216.0,188.0,208.0,196.0,200.0,204.0,191.0,212.0,182.0,220.0,174.0,228.0,179.0,223.0,187.0,215.0,195.0,208.0,203.0,201.0,211.0,193.0,219.0,186.0,227.0,179.0,235.0,172.0,243.0,163.0,251.0,156.0,259.0,149.0,267.0,142.0,275.0,133.0,283.0,126.0,291.0,120.0,299.0,118.0,307.0,127.0,315.0,136.0,323.0,144.0" stroke="black" stroke-width="1" fill="none" />
<polyline points="297.0,117.0,305.0,125.0,312.0,133.0,319.0,141.0,326.0,149.0,318.0,157.0,309.0,165.0,302.0,173.0,294.0,181.0,285.0,189.0,277.0,197.0,269.0,205.0,261.0,213.0,252.0,221.0,244.0,229.0" stroke="black" stroke-width="1" fill="none" />
<polyline points="71.0,203.0,76.0,195.0,77.0,187.0,67.0,179.0" stroke="black" stroke-width="1" fill="none" />
<polyline points="85.0,148.0,74.0,140.0,78.0,132.0" stroke="black" stroke-width="1" fill="none" />
<polyline points="87.0,127.0,88.0,119.0" stroke="black" stroke-width="1" fill="none" />
<polyline points="90.0,120.0,100.0,128.0,108.0,136.0" stroke="black" stroke-width="1" fill="none" />
<polyline points="185.0,82.0,182.0,83.0,184.0,75.0,188.0,65.0,178.0,57.0" stroke="black" stroke-width="1" fill="none" />
<polyline points="194.0,53.0,198.0,61.0,201.0,69.0,201.0,77.0" stroke="black" stroke-width="1" fill="none" />
<polyline points="186.0,30.0,163.0,38.0,148.0,46.0,133.0,54.0,120.0,62.0,110.0,70.0,100.0,78.0,92.0,86.0,84.0,94.0,77.0,102.0,70.0,110.0,64.0,118.0,58.0,126.0,53.0,134.0,49.0,142.0,44.0,150.0,40.0,158.0,37.0,166.0,34.0,174.0,31.0,182.0,29.0,190.0,27.0,198.0,25.0,206.0,23.0,214.0,22.0,222.0,21.0,230.0,20.0,238.0,19.0,246.0,19.0,254.0,19.0,262.0,19.0,270.0,20.0,278.0,21.0,286.0,22.0,294.0,23.0,302.0,25.0,310.0,26.0,318.0,28.0,326.0,31.0,334.0,34.0,342.0,37.0,350.0,40.0,358.0,44.0,366.0,49.0,374.0,53.0,382.0,58.0,390.0,63.0,398.0,69.0,406.0,76.0,414.0,83.0,422.0,91.0,430.0,99.0,438.0,109.0,446.0,119.0,454.0,131.0,462.0,146.0,470.0,161.0,478.0,184.0,486.0" stroke="black" stroke-width="1" fill="none" />
<polyline points="129.0,417.0,121.0,409.0" stroke="black" stroke-width="1" fill="none" />
<polyline points="113.0,419.0,115.0,417.0,112.0,419.0,115.0,427.0,128.0,421.0,128.0,422.0" stroke="black" stroke-width="1" fill="none" />
<polyline points="124.0,426.0,116.0,428.0" stroke="black" stroke-width="1" fill="none" />
<polyline points="338.0,480.0,357.0,472.0,370.0,464.0,383.0,456.0,394.0,448.0,404.0,440.0,413.0,432.0,421.0,424.0,428.0,416.0,434.0,408.0,441.0,400.0,447.0,392.0,452.0,384.0,456.0,376.0,461.0,368.0,465.0,360.0,470.0,352.0,472.0,344.0,475.0,336.0,478.0,328.0,480.0,320.0,482.0,312.0,483.0,304.0,485.0,296.0,486.0,288.0,487.0,280.0,487.0,272.0,488.0,264.0,488.0,256.0,487.0,248.0,487.0,240.0,486.0,232.0,485.0,224.0,484.0,216.0,482.0,208.0,481.0,200.0,479.0,192.0,476.0,184.0,474.0,176.0,470.0,168.0,467.0,160.0,462.0,152.0,458.0,144.0,454.0,136.0,449.0,128.0,444.0,120.0,438.0,112.0,431.0,104.0,424.0,96.0,416.0,88.0,408.0,80.0,398.0,72.0,388.0,64.0,376.0,56.0,361.0,48.0,346.0,40.0,325.0,32.0" stroke="black" stroke-width="1" fill="none" />
<polyline points="325.0,19.0,348.0,27.0,365.0,35.0,380.0,43.0,391.0,51.0,402.0,59.0,413.0,67.0,422.0,75.0,429.0,83.0,437.0,91.0,444.0,99.0,450.0,107.0,456.0,115.0,461.0,123.0,466.0,131.0,471.0,139.0,475.0,147.0,479.0,155.0,482.0,163.0,485.0,171.0,488.0,179.0,490.0,187.0,492.0,195.0,494.0,203.0,496.0,211.0,498.0,219.0,499.0,227.0,500.0,235.0,501.0,243.0,501.0,251.0,501.0,259.0,501.0,267.0,501.0,275.0,500.0,283.0,499.0,291.0,498.0,299.0,495.0,307.0,494.0,315.0,492.0,323.0,490.0,331.0,487.0,339.0,484.0,347.0,482.0,355.0,478.0,363.0,474.0,371.0,470.0,379.0,465.0,387.0,460.0,395.0,454.0,403.0,449.0,411.0,443.0,419.0,435.0,427.0,427.0,435.0,420.0,443.0,411.0,451.0,400.0,459.0,388.0,467.0,377.0,475.0,361.0,483.0,343.0,491.0" stroke="black" stroke-width="1" fill="none" />
<polyline points="183.0,498.0,160.0,490.0,143.0,482.0,127.0,474.0,116.0,466.0,105.0,458.0,95.0,450.0,86.0,442.0,79.0,434.0,70.0,426.0,63.0,418.0,58.0,410.0,52.0,402.0,47.0,394.0,41.0,386.0,37.0,378.0,33.0,370.0,29.0,362.0,26.0,354.0,23.0,346.0,20.0,338.0,18.0,330.0,16.0,322.0,13.0,314.0,11.0,306.0,10.0,298.0,9.0,290.0,8.0,282.0,7.0,274.0,7.0,266.0,7.0,258.0,7.0,250.0,7.0,242.0,8.0,234.0,9.0,226.0,10.0,218.0,11.0,210.0,13.0,202.0,16.0,194.0,18.0,186.0,20.0,178.0,23.0,170.0,26.0,162.0,29.0,154.0,33.0,146.0,37.0,138.0,41.0,130.0,47.0,122.0,52.0,114.0,58.0,106.0,64.0,98.0,71.0,90.0,79.0,82.0,86.0,74.0,95.0,66.0,106.0,58.0,117.0,50.0,128.0,42.0,143.0,34.0,161.0,26.0,184.0,18.0" stroke="black" stroke-width="1" fill="none" />
<polyline points="334.0,10.0,354.0,18.0,371.0,26.0,386.0,34.0,399.0,42.0,410.0,50.0,420.0,58.0,429.0,66.0,439.0,74.0,445.0,82.0,452.0,90.0,459.0,98.0,464.0,106.0,471.0,114.0,475.0,122.0,480.0,130.0,484.0,138.0,488.0,146.0,492.0,154.0,495.0,162.0,499.0,170.0,501.0,178.0,504.0,186.0,506.0,194.0,508.0,202.0,509.0,210.0,510.0,218.0" stroke="black" stroke-width="1" fill="none" />
</svg>