<svg xmlns="http://www.w3.org/2000/svg" height="258px" width="253px" version="1.1"><polyline points="168.0,13.0,164.0,21.0,163.0,29.0,160.0,31.0" stroke="black" stroke-width="1" fill="none" />
<polyline points="153.0,26.0,145.0,18.0,143.0,13.0" stroke="black" stroke-width="1" fill="none" />
<polyline points="142.0,18.0,150.0,19.0,155.0,20.0,160.0,21.0,166.0,21.0,173.0,15.0,181.0,16.0,190.0,20.0,198.0,23.0,206.0,28.0,213.0,47.0,216.0,50.0,214.0,57.0,214.0,65.0,212.0,73.0,210.0,81.0,208.0,89.0,214.0,96.0,212.0,104.0,210.0,110.0,206.0,117.0" stroke="black" stroke-width="1" fill="none" />
<polyline points="211.0,111.0,219.0,111.0" stroke="black" stroke-width="1" fill="none" />
<polyline points="206.0,119.0,198.0,128.0,192.0,128.0,191.0,120.0,185.0,112.0,173.0,104.0,168.0,103.0,166.0,95.0,165.0,87.0,167.0,79.0,164.0,82.0" stroke="black" stroke-width="1" fill="none" />
<polyline points="176.0,82.0,184.0,81.0,189.0,77.0,193.0,85.0,192.0,93.0,195.0,94.0" stroke="black" stroke-width="1" fill="none" />
<polyline points="190.0,105.0,185.0,95.0,188.0,87.0,186.0,85.0,178.0,84.0" stroke="black" stroke-width="1" fill="none" />
<polyline points="176.0,87.0,167.0,90.0,175.0,89.0,183.0,89.0,193.0,97.0" stroke="black" stroke-width="1" fill="none" />
<polyline points="194.0,91.0,186.0,95.0,178.0,96.0,170.0,94.0" stroke="black" stroke-width="1" fill="none" />
<polyline points="167.0,99.0,175.0,106.0,183.0,107.0" stroke="black" stroke-width="1" fill="none" />
<polyline points="171.0,116.0,179.0,121.0,187.0,129.0" stroke="black" stroke-width="1" fill="none" />
<polyline points="186.0,129.0,178.0,121.0,171.0,113.0,168.0,103.0" stroke="black" stroke-width="1" fill="none" />
<polyline points="156.0,117.0,148.0,118.0,140.0,122.0,132.0,126.0,128.0,122.0,124.0,121.0,126.0,113.0" stroke="black" stroke-width="1" fill="none" />
<polyline points="119.0,104.0,127.0,98.0,119.0,105.0,121.0,113.0,117.0,120.0,119.0,128.0,112.0,136.0,102.0,144.0,111.0,147.0,113.0,140.0,121.0,135.0,129.0,144.0,140.0,143.0,148.0,140.0,156.0,141.0,164.0,141.0,172.0,140.0,180.0,144.0,188.0,143.0,185.0,149.0" stroke="black" stroke-width="1" fill="none" />
<polyline points="194.0,156.0,198.0,164.0,209.0,171.0,217.0,180.0,227.0,188.0,239.0,196.0,245.0,203.0" stroke="black" stroke-width="1" fill="none" />
<polyline points="215.0,214.0,212.0,206.0,207.0,198.0,201.0,187.0" stroke="black" stroke-width="1" fill="none" />
<polyline points="201.0,180.0,207.0,188.0,215.0,196.0,220.0,204.0,224.0,212.0,230.0,220.0,234.0,228.0,238.0,236.0,241.0,244.0,240.0,252.0,244.0,253.0" stroke="black" stroke-width="1" fill="none" />
<polyline points="249.0,247.0,253.0,255.0" stroke="black" stroke-width="1" fill="none" />
<polyline points="246.0,250.0,245.0,242.0" stroke="black" stroke-width="1" fill="none" />
<polyline points="248.0,197.0,240.0,192.0,232.0,186.0,224.0,180.0,216.0,175.0,208.0,169.0,200.0,157.0" stroke="black" stroke-width="1" fill="none" />
<polyline points="194.0,156.0,203.0,169.0,212.0,176.0,220.0,181.0,228.0,188.0,236.0,194.0,245.0,203.0,253.0,207.0" stroke="black" stroke-width="1" fill="none" />
<polyline points="214.0,230.0,206.0,226.0,198.0,221.0" stroke="black" stroke-width="1" fill="none" />
<polyline points="198.0,221.0,211.0,229.0" stroke="black" stroke-width="1" fill="none" />
<polyline points="199.0,205.0,198.0,207.0,190.0,206.0" stroke="black" stroke-width="1" fill="none" />
<polyline points="189.0,202.0,197.0,199.0,205.0,203.0,213.0,207.0" stroke="black" stroke-width="1" fill="none" />
<polyline points="185.0,213.0,181.0,205.0" stroke="black" stroke-width="1" fill="none" />
<polyline points="176.0,208.0,177.0,205.0,178.0,213.0" stroke="black" stroke-width="1" fill="none" />
<polyline points="170.0,203.0,183.0,195.0" stroke="black" stroke-width="1" fill="none" />
<polyline points="179.0,189.0,166.0,197.0" stroke="black" stroke-width="1" fill="none" />
<polyline points="154.0,210.0,146.0,212.0,140.0,210.0,144.0,205.0,140.0,201.0" stroke="black" stroke-width="1" fill="none" />
<polyline points="134.0,208.0,137.0,203.0,134.0,211.0,132.0,219.0,144.0,233.0,155.0,241.0,164.0,238.0,172.0,236.0,180.0,236.0,188.0,234.0" stroke="black" stroke-width="1" fill="none" />
<polyline points="184.0,249.0,200.0,257.0" stroke="black" stroke-width="1" fill="none" />
<polyline points="164.0,238.0,158.0,246.0" stroke="black" stroke-width="1" fill="none" />
<polyline points="124.0,232.0,123.0,224.0,121.0,220.0" stroke="black" stroke-width="1" fill="none" />
<polyline points="121.0,212.0,114.0,220.0,108.0,223.0,100.0,231.0,94.0,239.0,95.0,242.0,100.0,244.0,107.0,245.0,115.0,243.0,123.0,238.0,127.0,232.0" stroke="black" stroke-width="1" fill="none" />
<polyline points="127.0,212.0,129.0,220.0,133.0,228.0,126.0,236.0,118.0,239.0,129.0,241.0,137.0,243.0,145.0,245.0,153.0,249.0" stroke="black" stroke-width="1" fill="none" />
<polyline points="156.0,191.0,148.0,190.0,140.0,190.0,132.0,194.0,124.0,198.0" stroke="black" stroke-width="1" fill="none" />
<polyline points="114.0,196.0,122.0,184.0,130.0,176.0,138.0,175.0,146.0,175.0,151.0,177.0,159.0,175.0,167.0,179.0" stroke="black" stroke-width="1" fill="none" />
<polyline points="159.0,178.0,163.0,186.0,165.0,198.0,173.0,191.0,181.0,189.0,189.0,186.0,197.0,186.0,202.0,180.0,210.0,191.0,218.0,200.0,226.0,213.0,234.0,227.0,242.0,242.0,252.0,249.0" stroke="black" stroke-width="1" fill="none" />
<polyline points="192.0,231.0,195.0,223.0,195.0,215.0,190.0,207.0,192.0,199.0,201.0,194.0,195.0,187.0,198.0,179.0" stroke="black" stroke-width="1" fill="none" />
<polyline points="208.0,198.0,197.0,195.0,189.0,194.0,181.0,196.0,173.0,201.0,165.0,204.0,161.0,196.0,154.0,184.0,140.0,176.0" stroke="black" stroke-width="1" fill="none" />
<polyline points="132.0,175.0,123.0,183.0,117.0,191.0,112.0,193.0,120.0,180.0,128.0,173.0" stroke="black" stroke-width="1" fill="none" />
<polyline points="131.0,166.0,127.0,174.0,118.0,182.0,114.0,190.0,111.0,198.0,108.0,206.0,101.0,214.0,97.0,222.0,91.0,230.0,83.0,238.0,72.0,247.0,74.0,254.0,69.0,256.0,77.0,253.0,78.0,245.0,79.0,248.0,87.0,247.0,88.0,240.0,96.0,236.0,104.0,226.0,112.0,219.0,121.0,212.0,126.0,211.0,132.0,226.0,140.0,232.0,148.0,234.0,156.0,241.0,164.0,250.0,172.0,248.0,180.0,248.0,188.0,250.0,196.0,254.0,204.0,258.0" stroke="black" stroke-width="1" fill="none" />
<polyline points="153.0,199.0,142.0,191.0" stroke="black" stroke-width="1" fill="none" />
<polyline points="138.0,190.0,127.0,190.0,127.0,196.0,122.0,202.0,127.0,190.0,135.0,186.0,143.0,187.0,153.0,198.0,161.0,201.0" stroke="black" stroke-width="1" fill="none" />
<polyline points="154.0,187.0,146.0,186.0,138.0,183.0,130.0,183.0,123.0,190.0,115.0,200.0,117.0,198.0,123.0,190.0,128.0,182.0" stroke="black" stroke-width="1" fill="none" />
<polyline points="138.0,147.0,146.0,149.0,154.0,151.0" stroke="black" stroke-width="1" fill="none" />
<polyline points="143.0,144.0,151.0,147.0,159.0,146.0,167.0,146.0" stroke="black" stroke-width="1" fill="none" />
<polyline points="175.0,139.0,175.0,147.0,170.0,149.0,178.0,145.0" stroke="black" stroke-width="1" fill="none" />
<polyline points="167.0,134.0,159.0,133.0,151.0,136.0" stroke="black" stroke-width="1" fill="none" />
<polyline points="162.0,130.0,154.0,131.0,146.0,131.0,138.0,133.0" stroke="black" stroke-width="1" fill="none" />
<polyline points="130.0,130.0,116.0,131.0,108.0,141.0,100.0,145.0,92.0,146.0,84.0,147.0,76.0,150.0,68.0,152.0,60.0,153.0,52.0,154.0,44.0,156.0,36.0,158.0,28.0,160.0,20.0,166.0,12.0,174.0,4.0,186.0,2.0,191.0,6.0,183.0,12.0,175.0,19.0,167.0,31.0,159.0" stroke="black" stroke-width="1" fill="none" />
<polyline points="23.0,175.0,31.0,181.0" stroke="black" stroke-width="1" fill="none" />
<polyline points="16.0,180.0,17.0,174.0,25.0,174.0,33.0,166.0,41.0,165.0,35.0,169.0,28.0,170.0,24.0,177.0,24.0,187.0,28.0,195.0,29.0,203.0,37.0,208.0" stroke="black" stroke-width="1" fill="none" />
<polyline points="37.0,205.0,29.0,203.0" stroke="black" stroke-width="1" fill="none" />
<polyline points="27.0,192.0,24.0,187.0,16.0,193.0,8.0,186.0" stroke="black" stroke-width="1" fill="none" />
<polyline points="8.0,186.0,17.0,194.0" stroke="black" stroke-width="1" fill="none" />
<polyline points="16.0,199.0,8.0,202.0,0.0,205.0" stroke="black" stroke-width="1" fill="none" />
<polyline points="0.0,225.0,8.0,228.0,16.0,230.0,24.0,231.0,32.0,229.0,40.0,226.0,48.0,224.0,56.0,222.0,64.0,220.0,72.0,220.0,80.0,215.0,88.0,207.0,96.0,200.0,104.0,189.0,112.0,177.0,120.0,171.0,128.0,165.0,124.0,169.0,112.0,177.0,107.0,185.0,102.0,193.0,94.0,201.0,86.0,209.0,77.0,217.0,62.0,227.0,57.0,235.0,54.0,243.0,53.0,251.0" stroke="black" stroke-width="1" fill="none" />
<polyline points="64.0,241.0,72.0,240.0,80.0,240.0,88.0,233.0,96.0,223.0,104.0,210.0" stroke="black" stroke-width="1" fill="none" />
<polyline points="65.0,224.0,57.0,232.0" stroke="black" stroke-width="1" fill="none" />
<polyline points="59.0,233.0,59.0,241.0,62.0,247.0,70.0,245.0" stroke="black" stroke-width="1" fill="none" />
<polyline points="8.0,235.0,0.0,238.0" stroke="black" stroke-width="1" fill="none" />
<polyline points="0.0,228.0,8.0,232.0" stroke="black" stroke-width="1" fill="none" />
<polyline points="32.0,199.0,19.0,195.0,20.0,191.0,18.0,182.0,17.0,174.0" stroke="black" stroke-width="1" fill="none" />
<polyline points="76.0,155.0,84.0,154.0,92.0,153.0,100.0,152.0,108.0,145.0" stroke="black" stroke-width="1" fill="none" />
<polyline points="122.0,136.0,128.0,144.0,139.0,155.0,147.0,163.0" stroke="black" stroke-width="1" fill="none" />
<polyline points="143.0,119.0,135.0,127.0,139.0,117.0,147.0,109.0" stroke="black" stroke-width="1" fill="none" />
<polyline points="149.0,104.0,145.0,112.0,137.0,120.0,130.0,131.0,133.0,139.0,131.0,147.0,137.0,154.0,145.0,162.0,146.0,175.0,151.0,181.0,158.0,179.0,164.0,187.0" stroke="black" stroke-width="1" fill="none" />
<polyline points="195.0,140.0,197.0,148.0,199.0,156.0,203.0,164.0,204.0,172.0,218.0,177.0,229.0,185.0,240.0,193.0,251.0,201.0" stroke="black" stroke-width="1" fill="none" />
<polyline points="247.0,121.0,239.0,121.0,231.0,122.0,223.0,122.0,215.0,122.0,207.0,122.0,193.0,122.0,184.0,114.0,177.0,114.0,173.0,109.0,165.0,110.0,157.0,110.0,149.0,111.0,149.0,101.0,156.0,87.0,160.0,79.0,148.0,77.0,136.0,83.0,128.0,88.0" stroke="black" stroke-width="1" fill="none" />
<polyline points="133.0,88.0,141.0,88.0,149.0,88.0" stroke="black" stroke-width="1" fill="none" />
<polyline points="155.0,89.0,147.0,93.0,139.0,94.0" stroke="black" stroke-width="1" fill="none" />
<polyline points="136.0,93.0,144.0,90.0" stroke="black" stroke-width="1" fill="none" />
<polyline points="149.0,101.0,141.0,109.0,133.0,104.0" stroke="black" stroke-width="1" fill="none" />
<polyline points="130.0,98.0,134.0,106.0,136.0,114.0,128.0,122.0,137.0,132.0,137.0,140.0,149.0,151.0" stroke="black" stroke-width="1" fill="none" />
<polyline points="97.0,162.0,98.0,170.0,101.0,178.0" stroke="black" stroke-width="1" fill="none" />
<polyline points="129.0,81.0,137.0,79.0" stroke="black" stroke-width="1" fill="none" />
<polyline points="112.0,97.0,111.0,89.0,117.0,90.0,115.0,96.0,118.0,88.0,119.0,80.0,123.0,72.0,127.0,63.0,134.0,52.0,130.0,46.0,122.0,44.0" stroke="black" stroke-width="1" fill="none" />
<polyline points="114.0,48.0,122.0,49.0,130.0,50.0" stroke="black" stroke-width="1" fill="none" />
<polyline points="132.0,33.0,124.0,28.0" stroke="black" stroke-width="1" fill="none" />
<polyline points="127.0,30.0,117.0,33.0" stroke="black" stroke-width="1" fill="none" />
<polyline points="128.0,20.0,136.0,13.0,144.0,10.0,152.0,11.0,160.0,12.0,168.0,11.0,176.0,12.0,184.0,13.0,182.0,24.0,181.0,32.0,182.0,29.0,189.0,31.0,194.0,37.0,199.0,47.0,207.0,48.0,215.0,57.0" stroke="black" stroke-width="1" fill="none" />
<polyline points="198.0,66.0,190.0,67.0" stroke="black" stroke-width="1" fill="none" />
<polyline points="196.0,60.0,188.0,54.0,180.0,53.0,172.0,54.0,164.0,54.0,156.0,50.0,148.0,48.0,140.0,48.0,132.0,53.0,121.0,54.0,113.0,56.0" stroke="black" stroke-width="1" fill="none" />
<polyline points="135.0,18.0,138.0,11.0,125.0,18.0,117.0,27.0,113.0,34.0,111.0,42.0,108.0,51.0,110.0,59.0,114.0,67.0,115.0,75.0,116.0,83.0,110.0,84.0,109.0,85.0,121.0,74.0,129.0,77.0,129.0,77.0,137.0,75.0,145.0,76.0,152.0,78.0,155.0,75.0,161.0,80.0,169.0,77.0,177.0,77.0,185.0,76.0,193.0,79.0,207.0,84.0,213.0,84.0" stroke="black" stroke-width="1" fill="none" />
<polyline points="208.0,96.0,207.0,104.0,203.0,112.0,200.0,120.0,198.0,129.0,195.0,137.0,193.0,145.0,190.0,153.0,182.0,154.0,193.0,139.0" stroke="black" stroke-width="1" fill="none" />
<polyline points="240.0,108.0,226.0,114.0,230.0,111.0,238.0,110.0,246.0,109.0" stroke="black" stroke-width="1" fill="none" />
<polyline points="246.0,73.0,250.0,65.0,250.0,64.0" stroke="black" stroke-width="1" fill="none" />
<polyline points="209.0,98.0,205.0,106.0,205.0,98.0,203.0,90.0,202.0,82.0,195.0,72.0,191.0,64.0,197.0,63.0,192.0,55.0" stroke="black" stroke-width="1" fill="none" />
<polyline points="195.0,39.0,188.0,31.0" stroke="black" stroke-width="1" fill="none" />
<polyline points="201.0,24.0,208.0,32.0,212.0,40.0,206.0,47.0" stroke="black" stroke-width="1" fill="none" />
<polyline points="202.0,17.0,194.0,17.0,186.0,16.0" stroke="black" stroke-width="1" fill="none" />
<polyline points="141.0,22.0,133.0,22.0,125.0,23.0,117.0,27.0,109.0,33.0,101.0,33.0,93.0,36.0,84.0,35.0,76.0,36.0,68.0,37.0,60.0,37.0" stroke="black" stroke-width="1" fill="none" />
<polyline points="31.0,36.0,23.0,37.0,16.0,36.0,8.0,36.0,0.0,37.0" stroke="black" stroke-width="1" fill="none" />
<polyline points="18.0,85.0,10.0,90.0" stroke="black" stroke-width="1" fill="none" />
<polyline points="10.0,102.0,8.0,110.0" stroke="black" stroke-width="1" fill="none" />
<polyline points="8.0,105.0,16.0,109.0,24.0,111.0,32.0,110.0,40.0,103.0,46.0,107.0" stroke="black" stroke-width="1" fill="none" />
<polyline points="40.0,104.0,43.0,92.0,40.0,84.0,39.0,85.0" stroke="black" stroke-width="1" fill="none" />
<polyline points="44.0,84.0,45.0,92.0,47.0,107.0" stroke="black" stroke-width="1" fill="none" />
<polyline points="1.0,109.0,3.0,117.0,4.0,125.0,11.0,124.0,19.0,124.0,27.0,124.0,35.0,124.0,43.0,124.0,51.0,124.0,59.0,123.0,67.0,123.0,75.0,121.0,83.0,122.0,91.0,122.0,99.0,121.0,107.0,119.0,115.0,119.0,116.0,112.0" stroke="black" stroke-width="1" fill="none" />
</svg>