<svg xmlns="http://www.w3.org/2000/svg" height="381px" width="510px" version="1.1"><polyline points="349.0,0.0,349.0,8.0,350.0,16.0,351.0,24.0,351.0,32.0,352.0,40.0,352.0,48.0,353.0,56.0,353.0,64.0,354.0,72.0,354.0,80.0,355.0,88.0,356.0,96.0,356.0,104.0,357.0,112.0,357.0,120.0,358.0,128.0,358.0,136.0,359.0,144.0,359.0,152.0,360.0,160.0,361.0,168.0,361.0,176.0,362.0,184.0,362.0,192.0,363.0,200.0,364.0,208.0,364.0,216.0,365.0,224.0,365.0,232.0,366.0,240.0,367.0,248.0,367.0,256.0,368.0,264.0,369.0,272.0,369.0,280.0,370.0,288.0,370.0,296.0" stroke="black" stroke-width="1" fill="none" />
<polyline points="396.0,332.0,404.0,336.0,412.0,344.0" stroke="black" stroke-width="1" fill="none" />
<polyline points="409.0,345.0,401.0,339.0" stroke="black" stroke-width="1" fill="none" />
<polyline points="399.0,336.0,405.0,337.0,412.0,345.0" stroke="black" stroke-width="1" fill="none" />
<polyline points="411.0,333.0,421.0,341.0,425.0,349.0,426.0,357.0,432.0,359.0,440.0,362.0,446.0,364.0,454.0,366.0,463.0,364.0" stroke="black" stroke-width="1" fill="none" />
<polyline points="461.0,356.0,469.0,356.0" stroke="black" stroke-width="1" fill="none" />
<polyline points="468.0,353.0,466.0,360.0,458.0,361.0,450.0,359.0" stroke="black" stroke-width="1" fill="none" />
<polyline points="473.0,343.0,463.0,351.0,447.0,359.0,454.0,355.0,462.0,352.0,470.0,346.0,478.0,344.0,486.0,344.0" stroke="black" stroke-width="1" fill="none" />
<polyline points="510.0,330.0,502.0,323.0,501.0,318.0,503.0,317.0,502.0,309.0,501.0,301.0,500.0,293.0,498.0,285.0,497.0,277.0,496.0,269.0,495.0,261.0,494.0,253.0,493.0,245.0,491.0,237.0,490.0,229.0,489.0,221.0,488.0,213.0,486.0,205.0,485.0,197.0,484.0,189.0,483.0,181.0,482.0,173.0,480.0,165.0,479.0,157.0,478.0,149.0,477.0,141.0,475.0,133.0,474.0,125.0,473.0,117.0,472.0,109.0,470.0,101.0,469.0,93.0,468.0,85.0,467.0,77.0,465.0,69.0,464.0,61.0,463.0,53.0,462.0,45.0,460.0,37.0,459.0,29.0,456.0,20.0,466.0,18.0,479.0,10.0,492.0,2.0,490.0,4.0,482.0,8.0,474.0,13.0,466.0,18.0,458.0,22.0,455.0,22.0" stroke="black" stroke-width="1" fill="none" />
<polyline points="466.0,26.0,474.0,20.0,482.0,15.0,490.0,11.0,498.0,6.0,506.0,1.0,499.0,5.0,486.0,13.0,472.0,21.0,467.0,29.0,468.0,37.0,469.0,45.0,470.0,53.0,472.0,61.0,473.0,69.0,474.0,77.0,476.0,85.0,477.0,93.0,478.0,101.0,480.0,109.0,481.0,117.0,482.0,125.0,484.0,133.0,489.0,141.0,488.0,148.0,496.0,146.0,504.0,143.0,503.0,146.0" stroke="black" stroke-width="1" fill="none" />
<polyline points="503.0,146.0,495.0,149.0,487.0,151.0" stroke="black" stroke-width="1" fill="none" />
<polyline points="486.0,139.0,493.0,143.0,486.0,135.0,485.0,127.0,484.0,119.0,482.0,111.0,481.0,103.0,480.0,95.0,478.0,87.0,477.0,79.0,476.0,71.0,474.0,63.0,473.0,55.0,472.0,47.0,470.0,39.0,469.0,31.0,475.0,22.0,489.0,14.0,503.0,6.0,507.0,4.0,499.0,9.0,491.0,14.0,483.0,18.0,475.0,22.0,467.0,27.0" stroke="black" stroke-width="1" fill="none" />
<polyline points="456.0,12.0,448.0,6.0" stroke="black" stroke-width="1" fill="none" />
<polyline points="448.0,6.0,454.0,14.0,454.0,22.0,457.0,30.0,458.0,38.0,459.0,46.0,461.0,54.0,462.0,62.0,463.0,70.0,464.0,78.0,466.0,86.0,467.0,94.0,468.0,102.0,469.0,110.0,471.0,118.0,472.0,126.0,473.0,134.0,474.0,142.0,476.0,150.0,477.0,158.0,478.0,166.0,479.0,174.0,481.0,182.0,482.0,190.0,483.0,198.0,484.0,206.0,485.0,214.0,487.0,222.0,488.0,230.0,489.0,238.0,490.0,246.0,491.0,254.0,493.0,262.0,494.0,270.0,495.0,278.0,496.0,286.0,497.0,294.0,498.0,302.0,500.0,310.0,499.0,318.0,504.0,326.0,508.0,334.0" stroke="black" stroke-width="1" fill="none" />
<polyline points="490.0,339.0,487.0,340.0,496.0,332.0,498.0,324.0,496.0,316.0" stroke="black" stroke-width="1" fill="none" />
<polyline points="510.0,294.0,509.0,286.0,510.0,291.0" stroke="black" stroke-width="1" fill="none" />
<polyline points="508.0,280.0,507.0,286.0,508.0,294.0,509.0,302.0,510.0,305.0" stroke="black" stroke-width="1" fill="none" />
<polyline points="411.0,363.0,419.0,379.0" stroke="black" stroke-width="1" fill="none" />
<polyline points="340.0,286.0,332.0,284.0,324.0,282.0,316.0,279.0,308.0,279.0" stroke="black" stroke-width="1" fill="none" />
<polyline points="309.0,276.0,307.0,284.0,304.0,292.0,301.0,300.0,299.0,308.0,295.0,316.0,290.0,324.0,285.0,331.0,293.0,319.0,301.0,300.0" stroke="black" stroke-width="1" fill="none" />
<polyline points="322.0,244.0,321.0,236.0,312.0,228.0,305.0,236.0,297.0,239.0,289.0,239.0" stroke="black" stroke-width="1" fill="none" />
<polyline points="298.0,219.0,306.0,220.0,314.0,225.0" stroke="black" stroke-width="1" fill="none" />
<polyline points="327.0,204.0,319.0,197.0,311.0,189.0,303.0,185.0" stroke="black" stroke-width="1" fill="none" />
<polyline points="303.0,185.0,310.0,193.0,312.0,201.0,316.0,209.0" stroke="black" stroke-width="1" fill="none" />
<polyline points="306.0,195.0,298.0,183.0" stroke="black" stroke-width="1" fill="none" />
<polyline points="306.0,172.0,309.0,179.0,317.0,182.0,324.0,176.0,332.0,178.0" stroke="black" stroke-width="1" fill="none" />
<polyline points="338.0,177.0,330.0,167.0,322.0,163.0,314.0,163.0" stroke="black" stroke-width="1" fill="none" />
<polyline points="313.0,167.0,321.0,168.0,329.0,172.0" stroke="black" stroke-width="1" fill="none" />
<polyline points="320.0,175.0,312.0,172.0" stroke="black" stroke-width="1" fill="none" />
<polyline points="313.0,184.0,321.0,188.0,329.0,183.0" stroke="black" stroke-width="1" fill="none" />
<polyline points="311.0,189.0,317.0,197.0,328.0,205.0" stroke="black" stroke-width="1" fill="none" />
<polyline points="344.0,204.0,345.0,196.0,346.0,192.0,346.0,184.0,349.0,176.0,349.0,168.0,351.0,160.0,350.0,152.0,349.0,144.0,347.0,136.0,343.0,128.0,345.0,120.0,342.0,112.0,341.0,104.0,329.0,101.0,321.0,97.0,313.0,94.0" stroke="black" stroke-width="1" fill="none" />
<polyline points="320.0,89.0,319.0,88.0,322.0,96.0" stroke="black" stroke-width="1" fill="none" />
<polyline points="324.0,85.0,316.0,80.0,308.0,83.0" stroke="black" stroke-width="1" fill="none" />
<polyline points="312.0,86.0,312.0,74.0" stroke="black" stroke-width="1" fill="none" />
<polyline points="310.0,72.0,299.0,80.0,300.0,86.0,307.0,85.0,312.0,86.0,320.0,86.0,328.0,92.0,332.0,97.0,340.0,102.0" stroke="black" stroke-width="1" fill="none" />
<polyline points="346.0,122.0,348.0,130.0" stroke="black" stroke-width="1" fill="none" />
<polyline points="341.0,159.0,333.0,151.0,325.0,148.0,317.0,147.0,309.0,149.0" stroke="black" stroke-width="1" fill="none" />
<polyline points="320.0,146.0,336.0,154.0,340.0,162.0,341.0,169.0" stroke="black" stroke-width="1" fill="none" />
<polyline points="331.0,181.0,334.0,174.0,333.0,172.0,323.0,164.0" stroke="black" stroke-width="1" fill="none" />
<polyline points="313.0,184.0,304.0,174.0,300.0,166.0,298.0,158.0" stroke="black" stroke-width="1" fill="none" />
<polyline points="272.0,160.0,264.0,161.0,256.0,163.0" stroke="black" stroke-width="1" fill="none" />
<polyline points="252.0,168.0,260.0,167.0,268.0,167.0,269.0,164.0" stroke="black" stroke-width="1" fill="none" />
<polyline points="258.0,179.0,266.0,180.0,274.0,178.0,282.0,172.0,290.0,167.0,296.0,176.0,298.0,184.0,302.0,192.0,304.0,202.0,307.0,206.0,300.0,214.0,303.0,210.0,306.0,201.0,311.0,204.0,319.0,213.0" stroke="black" stroke-width="1" fill="none" />
<polyline points="318.0,232.0,310.0,227.0,302.0,226.0,294.0,226.0,286.0,224.0,278.0,223.0,270.0,222.0,262.0,220.0" stroke="black" stroke-width="1" fill="none" />
<polyline points="285.0,198.0,275.0,196.0,279.0,188.0" stroke="black" stroke-width="1" fill="none" />
<polyline points="280.0,188.0,276.0,186.0,268.0,192.0,266.0,194.0,275.0,186.0" stroke="black" stroke-width="1" fill="none" />
<polyline points="291.0,155.0,283.0,145.0,275.0,141.0,267.0,140.0,259.0,142.0,251.0,144.0,243.0,155.0,246.0,150.0,255.0,142.0" stroke="black" stroke-width="1" fill="none" />
<polyline points="275.0,141.0,286.0,149.0,294.0,158.0,291.0,166.0,279.0,174.0" stroke="black" stroke-width="1" fill="none" />
<polyline points="225.0,165.0,219.0,174.0,212.0,169.0,204.0,178.0" stroke="black" stroke-width="1" fill="none" />
<polyline points="218.0,191.0,225.0,184.0,218.0,192.0,219.0,200.0,220.0,208.0,221.0,216.0,222.0,225.0,221.0,233.0,221.0,241.0,221.0,249.0,222.0,258.0,222.0,266.0,224.0,274.0,226.0,282.0,227.0,290.0,228.0,298.0,228.0,306.0" stroke="black" stroke-width="1" fill="none" />
<polyline points="205.0,270.0,213.0,264.0,221.0,261.0" stroke="black" stroke-width="1" fill="none" />
<polyline points="229.0,248.0,228.0,245.0" stroke="black" stroke-width="1" fill="none" />
<polyline points="223.0,232.0,225.0,240.0,224.0,248.0,216.0,261.0,206.0,269.0,206.0,277.0,208.0,285.0,212.0,293.0" stroke="black" stroke-width="1" fill="none" />
<polyline points="155.0,282.0,178.0,274.0,196.0,266.0,215.0,258.0,219.0,250.0,219.0,242.0,219.0,234.0,219.0,226.0,219.0,218.0,209.0,210.0,207.0,202.0,204.0,194.0,203.0,186.0,204.0,178.0,209.0,170.0,213.0,162.0,213.0,154.0,214.0,146.0,216.0,138.0,217.0,130.0,221.0,122.0,225.0,114.0,232.0,106.0,237.0,98.0,245.0,90.0,250.0,82.0,255.0,74.0,263.0,71.0,255.0,78.0" stroke="black" stroke-width="1" fill="none" />
<polyline points="251.0,87.0,259.0,83.0,263.0,74.0,266.0,79.0,274.0,75.0,278.0,73.0" stroke="black" stroke-width="1" fill="none" />
<polyline points="275.0,68.0,282.0,76.0,293.0,77.0,291.0,84.0,284.0,89.0,291.0,84.0,300.0,79.0,307.0,81.0,313.0,76.0,315.0,74.0" stroke="black" stroke-width="1" fill="none" />
<polyline points="318.0,82.0,328.0,84.0,333.0,86.0,335.0,94.0,339.0,101.0,337.0,107.0" stroke="black" stroke-width="1" fill="none" />
<polyline points="325.0,81.0,317.0,72.0,309.0,73.0,301.0,78.0,293.0,76.0,285.0,72.0,277.0,68.0,269.0,67.0,261.0,69.0,253.0,76.0,245.0,90.0,237.0,98.0,229.0,110.0,221.0,119.0" stroke="black" stroke-width="1" fill="none" />
<polyline points="226.0,160.0,224.0,168.0,226.0,170.0,214.0,183.0,212.0,191.0,214.0,199.0,216.0,207.0" stroke="black" stroke-width="1" fill="none" />
<polyline points="208.0,207.0,216.0,215.0" stroke="black" stroke-width="1" fill="none" />
<polyline points="231.0,314.0,231.0,306.0,231.0,298.0,229.0,290.0,228.0,282.0,226.0,274.0,224.0,266.0,216.0,258.0,208.0,262.0,200.0,264.0,192.0,268.0,184.0,272.0,176.0,275.0,168.0,278.0,160.0,281.0,152.0,283.0,144.0,286.0,136.0,288.0,128.0,290.0,120.0,291.0,112.0,293.0,104.0,295.0,96.0,295.0,88.0,295.0,80.0,294.0,72.0,294.0,64.0,294.0,56.0,293.0,48.0,293.0,40.0,293.0,32.0,293.0,24.0,296.0,16.0,300.0,8.0,304.0,0.0,305.0" stroke="black" stroke-width="1" fill="none" />
<polyline points="13.0,302.0,27.0,294.0" stroke="black" stroke-width="1" fill="none" />
<polyline points="105.0,298.0,97.0,302.0,89.0,305.0,108.0,297.0" stroke="black" stroke-width="1" fill="none" />
<polyline points="333.0,249.0,325.0,259.0,317.0,266.0,309.0,273.0,303.0,284.0,307.0,276.0,314.0,268.0,324.0,260.0,331.0,252.0,336.0,244.0" stroke="black" stroke-width="1" fill="none" />
<polyline points="340.0,244.0,342.0,252.0,344.0,260.0,345.0,268.0,346.0,276.0,345.0,284.0,353.0,292.0,372.0,300.0,383.0,308.0,386.0,316.0,391.0,324.0,397.0,333.0,402.0,341.0,408.0,349.0,410.0,357.0,411.0,365.0,414.0,373.0,421.0,381.0" stroke="black" stroke-width="1" fill="none" />
<polyline points="417.0,335.0,409.0,332.0,401.0,330.0,393.0,327.0,385.0,311.0,377.0,302.0,369.0,298.0,361.0,295.0,353.0,291.0,341.0,287.0,343.0,279.0,343.0,271.0,342.0,263.0,340.0,255.0,339.0,247.0,340.0,240.0,341.0,232.0,342.0,224.0,344.0,216.0,346.0,208.0,349.0,200.0,349.0,192.0" stroke="black" stroke-width="1" fill="none" />
<polyline points="344.0,140.0,336.0,129.0,328.0,119.0,320.0,113.0,312.0,109.0,304.0,105.0,296.0,103.0,289.0,100.0,281.0,102.0,273.0,103.0,265.0,104.0,257.0,106.0,249.0,111.0,241.0,117.0,233.0,129.0,237.0,121.0,246.0,113.0,260.0,105.0" stroke="black" stroke-width="1" fill="none" />
<polyline points="288.0,84.0,285.0,76.0" stroke="black" stroke-width="1" fill="none" />
<polyline points="282.0,85.0,275.0,83.0,271.0,78.0,273.0,70.0" stroke="black" stroke-width="1" fill="none" />
<polyline points="268.0,69.0,256.0,77.0,263.0,81.0,260.0,86.0,253.0,91.0,249.0,95.0,238.0,104.0,238.0,104.0,246.0,96.0,254.0,91.0,262.0,86.0,269.0,84.0,279.0,75.0,280.0,79.0,288.0,75.0" stroke="black" stroke-width="1" fill="none" />
<polyline points="300.0,104.0,317.0,112.0,328.0,120.0,334.0,128.0,340.0,136.0,344.0,144.0,344.0,152.0,345.0,160.0,344.0,168.0,344.0,176.0,345.0,189.0" stroke="black" stroke-width="1" fill="none" />
</svg>