<svg xmlns="http://www.w3.org/2000/svg" height="299px" width="395px" version="1.1"><polyline points="260.0,0.0,261.5,4.0,260.5,8.0,259.0,12.0,257.5,16.0,256.0,20.0,255.0,24.0,253.5,28.0,252.5,32.0,251.5,36.0,250.0,40.0,249.0,44.0,247.5,48.0,246.5,52.0,243.5,56.0,237.0,60.0,231.0,64.0,228.5,67.5,235.5,71.5,242.5,75.5,248.5,79.5" stroke="black" stroke-width="1" fill="none" />
<polyline points="228.5,67.5,232.5,69.5,236.5,71.5,240.5,74.0,244.5,76.5,248.5,79.0,252.5,81.0,256.5,81.0,260.5,80.5,264.5,80.5,268.5,80.5,272.5,81.5,276.5,82.5,280.5,83.5,284.5,85.0,288.5,86.0,292.5,87.5,296.5,89.0" stroke="black" stroke-width="1" fill="none" />
<polyline points="290.0,87.0,278.5,83.0" stroke="black" stroke-width="1" fill="none" />
<polyline points="246.5,51.5,242.5,56.5,238.5,59.0,234.5,61.5,230.5,64.5,226.5,67.0,222.5,65.5" stroke="black" stroke-width="1" fill="none" />
<polyline points="225.5,92.5,226.0,96.5,227.5,100.5,228.0,104.5,229.5,108.5,231.0,112.5,232.5,116.5" stroke="black" stroke-width="1" fill="none" />
<polyline points="225.5,106.0,224.5,102.0,223.5,98.0,223.5,94.0" stroke="black" stroke-width="1" fill="none" />
<polyline points="202.5,109.0,202.5,113.0,203.5,117.0,205.5,121.0" stroke="black" stroke-width="1" fill="none" />
<polyline points="156.5,109.5,154.5,112.0,150.5,110.0" stroke="black" stroke-width="1" fill="none" />
<polyline points="146.0,105.0,144.0,101.0,143.0,97.0,142.0,93.0,141.5,89.0,144.5,85.5,146.0,81.5,144.5,85.5" stroke="black" stroke-width="1" fill="none" />
<polyline points="147.5,91.0,151.5,91.5" stroke="black" stroke-width="1" fill="none" />
<polyline points="151.0,91.5,154.0,95.5,154.5,99.5,154.0,103.5" stroke="black" stroke-width="1" fill="none" />
<polyline points="147.5,107.0,143.5,99.5" stroke="black" stroke-width="1" fill="none" />
<polyline points="134.0,95.0,130.0,89.0" stroke="black" stroke-width="1" fill="none" />
<polyline points="130.0,89.0,132.5,93.0,135.0,97.0" stroke="black" stroke-width="1" fill="none" />
<polyline points="122.0,89.5,125.0,94.0,125.5,98.0,126.5,102.0,128.0,106.0,129.0,110.0,130.0,111.5" stroke="black" stroke-width="1" fill="none" />
<polyline points="105.0,82.5,101.0,83.5,97.0,85.0" stroke="black" stroke-width="1" fill="none" />
<polyline points="120.0,66.5,124.0,66.5,128.0,66.0,132.0,65.5,136.0,65.0,140.0,64.5,144.0,64.0,148.0,63.5,152.0,62.5,156.0,60.0" stroke="black" stroke-width="1" fill="none" />
<polyline points="165.0,56.0,168.5,54.5,164.5,60.5,168.5,60.5,172.5,60.5" stroke="black" stroke-width="1" fill="none" />
<polyline points="156.0,56.5,152.0,57.0,148.0,58.0,144.0,59.0,140.0,60.5,136.0,61.0,132.0,61.0,128.0,60.5,124.0,59.5,120.0,59.5,116.0,58.5,112.0,58.5,108.0,57.5,104.0,57.5,100.0,58.0,95.5,57.0,92.0,56.0,88.0,56.5,84.0,57.0,81.0,53.5,77.0,53.5" stroke="black" stroke-width="1" fill="none" />
<polyline points="70.0,49.5,66.0,51.5,63.0,51.5,59.0,53.5,55.0,55.0,51.0,57.5,60.5,53.0,65.0,49.0,71.0,48.0" stroke="black" stroke-width="1" fill="none" />
<polyline points="51.5,55.0,47.5,58.0,43.5,62.0,39.5,66.0,35.5,72.0,31.5,78.5,27.5,84.5,23.5,92.5" stroke="black" stroke-width="1" fill="none" />
<polyline points="51.0,54.5,46.5,58.5,42.5,62.5,39.0,66.5,36.0,70.5,34.0,74.5,31.5,78.5,28.5,82.5,27.0,86.5,25.0,90.5,23.0,94.5,23.5,98.5,23.5,102.5,22.0,106.5,21.0,110.5,20.5,114.0,19.5,118.0,18.5,122.0,17.0,126.0,17.5,130.0,16.5,134.0,15.5,135.0,15.5,139.0,16.0,143.0,16.5,147.0,16.0,151.5,17.5,156.0,19.0,160.0,21.0,164.0,23.5,168.0" stroke="black" stroke-width="1" fill="none" />
<polyline points="20.5,167.5,23.0,175.0,24.5,178.0,27.5,185.5,31.5,192.0,31.5,195.5,35.0,200.0" stroke="black" stroke-width="1" fill="none" />
<polyline points="31.0,200.5,36.0,204.5,42.5,208.5,45.5,212.5,49.5,217.5,56.0,221.5,53.5,227.0,63.5,232.0,66.0,231.0" stroke="black" stroke-width="1" fill="none" />
<polyline points="67.5,230.0,69.5,234.0,70.0,238.0,69.5,242.0" stroke="black" stroke-width="1" fill="none" />
<polyline points="65.0,233.0,63.0,230.5,59.0,228.5,55.0,227.5,51.0,226.5,47.0,226.0" stroke="black" stroke-width="1" fill="none" />
<polyline points="46.5,224.0,50.5,224.0,54.5,223.5" stroke="black" stroke-width="1" fill="none" />
<polyline points="54.5,219.0,50.5,218.0,49.0,214.0,45.0,212.0,43.0,208.5,39.0,205.5,35.0,203.5,31.0,200.5" stroke="black" stroke-width="1" fill="none" />
<polyline points="25.0,170.5,21.0,163.5,17.0,154.5" stroke="black" stroke-width="1" fill="none" />
<polyline points="20.5,166.5,22.0,170.5,23.5,174.5,24.5,178.5,26.5,182.5,28.0,186.5,30.5,190.5,30.5,194.5,32.5,198.5" stroke="black" stroke-width="1" fill="none" />
<polyline points="75.5,233.0,74.5,237.0,74.0,241.0" stroke="black" stroke-width="1" fill="none" />
<polyline points="77.0,237.0,77.0,233.0" stroke="black" stroke-width="1" fill="none" />
<polyline points="78.0,238.0,79.5,234.0,82.0,230.0" stroke="black" stroke-width="1" fill="none" />
<polyline points="82.0,230.0,83.5,231.5,85.0,235.5" stroke="black" stroke-width="1" fill="none" />
<polyline points="86.0,237.0,87.0,233.0" stroke="black" stroke-width="1" fill="none" />
<polyline points="86.5,231.0,90.5,233.5" stroke="black" stroke-width="1" fill="none" />
<polyline points="90.5,231.0,94.5,234.0" stroke="black" stroke-width="1" fill="none" />
<polyline points="92.5,231.0,94.5,235.0,100.0,231.0,103.5,230.5,107.5,231.5,111.5,230.5,115.5,229.0,119.5,228.5,123.5,226.5,127.5,225.5,131.5,224.0,135.5,223.0,139.5,221.0,143.5,220.0,147.5,218.5,151.5,217.5,155.5,217.0,159.5,219.0,163.5,219.0,167.5,219.0,171.5,218.5,175.5,217.5,179.5,217.0,183.5,215.5,187.5,215.0,191.5,213.5,195.5,212.0,199.5,209.5,203.5,207.5,207.5,204.5,211.5,200.5,215.5,199.5,219.5,198.0,223.5,196.5,227.5,195.0,231.5,193.5,235.5,191.5,239.5,188.5,243.5,186.5,247.5,183.5,251.5,180.0,255.5,177.0" stroke="black" stroke-width="1" fill="none" />
<polyline points="255.5,177.0,250.0,181.0,245.5,185.0,239.0,189.0,232.0,193.0,222.5,197.0" stroke="black" stroke-width="1" fill="none" />
<polyline points="212.0,200.0,208.0,204.0,202.5,208.0,195.0,212.0" stroke="black" stroke-width="1" fill="none" />
<polyline points="187.5,208.0,183.5,208.5,179.5,209.0,175.5,209.5" stroke="black" stroke-width="1" fill="none" />
<polyline points="141.5,220.0,132.5,224.0" stroke="black" stroke-width="1" fill="none" />
<polyline points="138.0,198.5,137.0,197.5,135.0,193.5" stroke="black" stroke-width="1" fill="none" />
<polyline points="162.0,178.0,162.0,174.0,161.5,170.0,157.5,166.0" stroke="black" stroke-width="1" fill="none" />
<polyline points="157.5,166.0,161.5,168.5" stroke="black" stroke-width="1" fill="none" />
<polyline points="161.0,160.0,161.5,156.0" stroke="black" stroke-width="1" fill="none" />
<polyline points="163.5,110.5,163.0,111.0,165.0,107.0,166.0,103.0,166.5,99.0,165.5,95.0,164.5,91.0,163.0,87.0,161.5,83.0" stroke="black" stroke-width="1" fill="none" />
<polyline points="149.0,78.0,148.5,82.0,147.5,86.0,146.5,90.0" stroke="black" stroke-width="1" fill="none" />
<polyline points="126.5,73.0,123.5,77.0,122.5,78.0,126.5,73.0" stroke="black" stroke-width="1" fill="none" />
<polyline points="256.0,20.0,260.0,8.5" stroke="black" stroke-width="1" fill="none" />
<polyline points="338.5,108.0,341.5,112.0,343.0,116.0,343.0,120.0,341.5,124.0,338.5,128.0,335.0,132.0,330.5,136.0,326.0,140.0,320.5,144.0,318.0,146.0,322.0,143.0,326.0,140.0,330.0,136.5,334.0,133.0,338.0,129.0,342.0,123.5" stroke="black" stroke-width="1" fill="none" />
<polyline points="342.5,113.0,338.5,108.0" stroke="black" stroke-width="1" fill="none" />
<polyline points="259.0,193.0,263.5,197.0,266.5,201.0,269.0,205.0,272.0,209.0,274.5,213.0,277.0,217.0,279.5,221.0,282.0,225.0,284.5,229.0,287.5,233.0,290.5,237.0,293.5,241.0,296.5,245.0,299.5,249.0,303.5,253.0,307.0,257.0,311.0,261.0,315.5,265.0,320.0,269.0,324.5,273.0,329.5,277.0,335.5,281.0,343.5,285.0,354.0,289.0" stroke="black" stroke-width="1" fill="none" />
<polyline points="394.5,298.5,390.5,297.5,386.5,296.5,382.5,295.0,378.5,293.5,374.5,292.5,370.5,292.5,366.5,291.5,362.5,291.0,358.5,290.0,354.5,289.0,350.5,287.5,346.5,286.0,342.5,284.0,338.5,282.0,334.5,280.0,330.5,277.0,326.5,274.5,322.5,271.0,318.5,267.5,314.5,264.0,310.5,260.0,306.5,256.0,302.5,251.5,298.5,247.0,294.5,242.0,290.5,236.5,286.5,231.0,282.5,225.0,278.5,219.0,274.5,212.5,270.5,206.5,266.5,200.5,262.5,195.0,258.5,192.5,254.5,192.0,250.5,191.5,246.5,190.5,242.5,189.0" stroke="black" stroke-width="1" fill="none" />
<polyline points="91.5,234.5,88.0,230.5" stroke="black" stroke-width="1" fill="none" />
</svg>