<svg xmlns="http://www.w3.org/2000/svg" height="298px" width="355px" version="1.1"><polyline points="91.5,78.0,86.5,82.0,82.0,86.0,77.0,90.0,73.0,94.0,70.0,98.0,67.0,102.0,65.5,106.0,62.0,110.0,60.0,114.0,57.5,118.0,56.5,122.0,55.0,126.0,54.5,130.0,54.0,134.0" stroke="black" stroke-width="1" fill="none" />
<polyline points="51.0,138.5,52.5,132.5,52.0,128.5" stroke="black" stroke-width="1" fill="none" />
<polyline points="50.0,128.5,50.0,130.0,50.5,134.0,47.5,137.5,48.0,141.5,49.0,145.5,50.0,149.5,48.0,153.5,48.5,157.5,48.0,161.5,48.5,165.5,49.0,169.5,49.5,173.5,52.0,177.5,50.5,180.5,53.5,184.5,54.0,188.5,56.5,192.5,59.0,196.5,60.5,201.0,65.0,205.0,65.0,209.0,68.5,213.0,72.0,217.0,71.0,221.5,73.5,225.5,76.0,230.0,80.5,234.0,77.0,238.0,79.5,233.0" stroke="black" stroke-width="1" fill="none" />
<polyline points="78.0,231.5,75.0,227.0,73.0,223.5,69.0,219.5" stroke="black" stroke-width="1" fill="none" />
<polyline points="69.0,213.5,65.0,208.5" stroke="black" stroke-width="1" fill="none" />
<polyline points="63.5,203.0,60.5,198.0,56.5,192.0,53.5,184.0,49.5,179.5" stroke="black" stroke-width="1" fill="none" />
<polyline points="53.5,179.5,49.5,173.0" stroke="black" stroke-width="1" fill="none" />
<polyline points="57.5,118.0,61.5,111.0" stroke="black" stroke-width="1" fill="none" />
<polyline points="63.5,102.5,63.0,106.5,67.5,101.5,71.5,96.0" stroke="black" stroke-width="1" fill="none" />
<polyline points="70.0,92.5,68.0,96.5,73.5,92.5,78.0,88.0,82.0,86.0,86.0,82.5,90.0,79.0,94.0,78.0,98.0,76.5,102.0,75.5,106.0,74.0,110.0,74.5,114.0,74.5,118.0,75.5,122.0,75.0,126.0,76.0,130.0,76.0,134.0,75.5,138.0,77.0,142.0,77.5,146.0,78.0,150.0,80.0,154.0,81.0,158.0,80.0,161.5,82.5,166.5,79.0,170.5,77.5,174.5,76.5,178.5,76.0,182.5,76.0,186.5,76.0,190.5,76.5,195.0,77.5,199.0,78.5,203.0,80.0,207.0,83.5,211.0,87.0,215.0,92.5" stroke="black" stroke-width="1" fill="none" />
<polyline points="213.5,96.5,212.0,100.5,213.0,98.0" stroke="black" stroke-width="1" fill="none" />
<polyline points="215.0,102.5,219.0,104.5,223.0,106.0,227.0,106.5,231.0,98.5,235.0,91.5,239.0,86.5,243.0,84.0,247.0,82.0,251.0,80.5,255.0,79.5,259.0,78.5,263.0,77.5,267.0,77.0,271.0,74.5,275.0,66.0,279.0,57.5,283.0,50.0,287.0,43.0,291.0,36.5,295.0,30.5,299.0,25.5,303.0,19.5,307.0,13.5,311.0,9.0,315.0,3.5,317.0,1.0,314.0,5.0,311.0,9.0,307.5,13.0,305.0,17.0,302.5,21.0,299.5,25.0,296.5,29.0,293.5,33.0,291.0,37.0,288.5,41.0,286.0,45.0,284.0,49.0,281.5,53.0,279.5,57.0,277.0,61.0,275.5,65.0,273.5,69.0,272.0,73.0" stroke="black" stroke-width="1" fill="none" />
<polyline points="254.0,79.5,244.0,83.5,237.5,87.5,235.0,91.5,232.5,95.5,230.5,99.5,228.5,103.5,226.5,107.5" stroke="black" stroke-width="1" fill="none" />
<polyline points="228.0,107.5,232.0,108.5,236.0,110.0,240.0,111.0,244.0,111.5,248.0,112.5,252.0,113.0,256.0,113.5,260.0,113.5,264.0,113.0,268.0,113.0,272.0,113.5,276.0,114.5" stroke="black" stroke-width="1" fill="none" />
<polyline points="296.0,122.0,301.0,126.0,307.0,130.0,312.0,134.0,316.5,138.0,322.0,142.0,329.0,146.0" stroke="black" stroke-width="1" fill="none" />
<polyline points="328.0,145.0,324.0,142.5,320.0,140.5,316.0,137.0,312.0,133.5,308.0,130.5,304.0,128.0,300.0,125.0,296.0,122.0" stroke="black" stroke-width="1" fill="none" />
<polyline points="335.0,159.0,336.0,163.0,336.0,167.0,334.0,171.0,329.0,175.0,319.5,179.0,309.0,183.0,312.5,181.5,316.5,180.0,320.5,179.0,324.5,177.5,328.5,175.5,332.5,172.5" stroke="black" stroke-width="1" fill="none" />
<polyline points="351.0,168.0,355.0,168.0,355.0,169.0" stroke="black" stroke-width="1" fill="none" />
<polyline points="272.0,202.0,269.0,206.0,263.5,210.0" stroke="black" stroke-width="1" fill="none" />
<polyline points="255.0,214.5,259.0,216.0,263.0,218.0,267.0,221.5,271.0,232.0,275.0,243.0,279.0,251.0,283.0,259.5,287.0,267.0,291.0,274.5,295.0,281.0,299.0,286.0,303.0,290.0,307.0,293.5,311.0,296.5" stroke="black" stroke-width="1" fill="none" />
<polyline points="312.5,298.0,307.5,294.0,302.5,290.0,298.5,286.0,295.5,282.0,292.5,278.0,290.0,274.0,288.5,270.0,286.0,266.0,284.0,262.0,282.0,258.0,280.0,254.0,278.0,250.0,276.0,246.0,274.5,242.0,273.0,238.0,271.5,234.0,270.0,230.0,268.5,226.0,267.0,222.0,262.0,218.0,254.0,214.0" stroke="black" stroke-width="1" fill="none" />
<polyline points="245.5,214.5,234.0,218.5" stroke="black" stroke-width="1" fill="none" />
<polyline points="221.0,222.5,209.0,226.5" stroke="black" stroke-width="1" fill="none" />
<polyline points="206.5,188.0,208.0,184.0,210.0,180.0,207.0,186.0" stroke="black" stroke-width="1" fill="none" />
<polyline points="214.5,186.0,214.0,182.0,213.0,178.0,210.0,174.0" stroke="black" stroke-width="1" fill="none" />
<polyline points="235.0,166.5,235.5,170.5,235.5,174.5,235.0,178.5,234.0,182.5,234.0,186.5,234.0,190.5,233.5,194.5,233.0,198.5,232.0,202.5" stroke="black" stroke-width="1" fill="none" />
<polyline points="271.5,202.5,267.5,207.5,263.5,210.0,259.5,212.0,255.5,212.5,251.5,213.5,247.5,214.5,243.5,215.5,239.5,216.5,235.5,218.0,231.5,219.5,227.5,221.0,223.5,222.0,219.5,223.0,215.5,224.5,211.5,226.0,207.5,227.0,203.5,228.5,199.5,229.5,195.5,230.0,191.5,230.5,187.5,230.5,183.5,230.0,179.5,228.5,175.5,227.5,171.5,226.5,167.5,225.5,163.5,224.5,159.5,225.5,155.5,226.5,151.5,227.0,147.5,227.5,143.5,227.0,139.5,228.0,135.5,229.0,131.5,230.0,127.5,230.0,123.5,229.0,123.0,229.0,118.0,228.5,114.5,224.5" stroke="black" stroke-width="1" fill="none" />
<polyline points="114.5,224.5,118.5,228.5" stroke="black" stroke-width="1" fill="none" />
<polyline points="112.5,235.5,110.0,231.5,109.0,229.5" stroke="black" stroke-width="1" fill="none" />
<polyline points="109.0,225.5,113.5,229.5" stroke="black" stroke-width="1" fill="none" />
<polyline points="117.0,232.5,113.0,229.0,109.0,225.5" stroke="black" stroke-width="1" fill="none" />
<polyline points="104.5,229.5,102.0,231.0,100.5,228.5,106.5,231.5,110.5,236.0" stroke="black" stroke-width="1" fill="none" />
<polyline points="108.5,234.0,105.0,230.0" stroke="black" stroke-width="1" fill="none" />
<polyline points="101.0,228.0,99.5,232.0,98.5,236.0" stroke="black" stroke-width="1" fill="none" />
<polyline points="93.0,236.0,93.0,232.0" stroke="black" stroke-width="1" fill="none" />
<polyline points="91.0,232.5,88.5,236.5,86.0,240.0,90.0,234.0" stroke="black" stroke-width="1" fill="none" />
<polyline points="87.5,232.0,85.5,236.0" stroke="black" stroke-width="1" fill="none" />
<polyline points="86.5,231.5,82.5,234.0,79.0,239.0,82.0,235.0,85.5,231.0" stroke="black" stroke-width="1" fill="none" />
<polyline points="95.0,234.5,96.0,230.5" stroke="black" stroke-width="1" fill="none" />
<polyline points="99.5,212.5,105.5,216.5,116.5,220.5" stroke="black" stroke-width="1" fill="none" />
<polyline points="99.5,212.5,103.5,215.0,107.5,217.0,111.5,218.5,115.5,220.0,119.5,221.0,123.5,222.0,127.5,222.5,131.5,223.0,135.5,223.5,139.5,223.5,143.5,217.5" stroke="black" stroke-width="1" fill="none" />
<polyline points="143.0,220.5,144.0,216.5,145.5,212.5,147.0,208.5" stroke="black" stroke-width="1" fill="none" />
<polyline points="170.0,167.5,169.5,163.5,170.0,159.5,168.0,155.5" stroke="black" stroke-width="1" fill="none" />
<polyline points="169.5,156.0,165.5,155.0,163.0,153.5,164.0,149.5,165.5,145.5,166.5,141.5,167.5,137.5" stroke="black" stroke-width="1" fill="none" />
<polyline points="147.5,132.0,144.5,136.0,143.0,140.0,146.5,133.5" stroke="black" stroke-width="1" fill="none" />
<polyline points="143.5,154.0,144.5,158.0,144.0,162.0,145.0,166.0,146.0,170.0" stroke="black" stroke-width="1" fill="none" />
<polyline points="181.0,92.0,185.0,93.5,189.0,92.0,191.5,88.0" stroke="black" stroke-width="1" fill="none" />
<polyline points="182.5,87.0,180.5,91.0,182.0,87.5" stroke="black" stroke-width="1" fill="none" />
<polyline points="179.5,81.0,169.5,85.0,169.0,85.5,173.0,83.5,177.0,82.0" stroke="black" stroke-width="1" fill="none" />
<polyline points="167.5,80.0,166.0,84.0,165.5,88.5,169.5,95.5,170.5,96.0,174.5,98.0" stroke="black" stroke-width="1" fill="none" />
<polyline points="168.0,89.5,163.5,88.0,162.5,86.5,161.5,82.5" stroke="black" stroke-width="1" fill="none" />
<polyline points="199.0,78.5,205.5,82.5,210.0,86.5,213.5,90.5,215.5,94.5,215.0,98.5,214.0,102.5" stroke="black" stroke-width="1" fill="none" />
</svg>