<svg xmlns="http://www.w3.org/2000/svg" height="538px" width="310px" version="1.1"><polyline points="179.5,223.5,170.0,227.5,164.0,228.0,158.5,232.5,156.5,236.5" stroke="black" stroke-width="1" fill="none" />
<polyline points="160.0,233.0,164.0,231.5,166.5,229.5,170.5,227.5,174.5,225.5,178.5,224.0,182.5,223.0,186.5,222.5,190.5,222.0,194.5,222.0,197.5,220.0,199.0,223.0,203.0,221.5,207.0,223.0,211.0,224.0,215.0,225.5,219.0,227.5,223.0,229.5,227.0,231.5,231.0,234.0,235.0,236.5,239.0,239.5,243.0,242.0,247.0,244.5,251.0,246.5,255.0,252.0,259.0,260.5,263.0,265.0,267.0,270.0,271.0,280.0" stroke="black" stroke-width="1" fill="none" />
<polyline points="275.5,292.5,279.5,299.0" stroke="black" stroke-width="1" fill="none" />
<polyline points="276.0,327.5,272.0,334.0" stroke="black" stroke-width="1" fill="none" />
<polyline points="271.0,343.0,267.0,347.5,263.0,351.5,259.0,357.0" stroke="black" stroke-width="1" fill="none" />
<polyline points="235.5,340.0,231.5,341.0,227.5,341.0" stroke="black" stroke-width="1" fill="none" />
<polyline points="226.5,339.5,229.5,337.5,226.0,333.5" stroke="black" stroke-width="1" fill="none" />
<polyline points="225.5,333.0,223.0,337.0" stroke="black" stroke-width="1" fill="none" />
<polyline points="224.0,328.0,227.0,327.5,234.5,331.5,237.0,335.5,236.5,339.5" stroke="black" stroke-width="1" fill="none" />
<polyline points="235.0,331.5,231.0,329.0,227.0,327.5,223.0,327.0" stroke="black" stroke-width="1" fill="none" />
<polyline points="226.0,330.5,222.0,329.5,218.0,329.0,214.0,330.0,210.0,331.0,206.0,333.5,207.0,336.5,210.5,332.5" stroke="black" stroke-width="1" fill="none" />
<polyline points="212.0,333.0,213.5,337.0,214.5,339.5,218.5,340.5,222.5,338.0,226.5,333.5" stroke="black" stroke-width="1" fill="none" />
<polyline points="216.5,333.0,211.5,332.5,207.5,334.5,206.0,338.5,204.0,334.5,210.5,330.5" stroke="black" stroke-width="1" fill="none" />
<polyline points="211.5,328.0,207.5,330.5,204.5,331.0,209.0,327.0" stroke="black" stroke-width="1" fill="none" />
<polyline points="202.0,320.0,206.0,316.5,210.0,316.0,214.0,314.5,218.0,313.0,222.0,312.0,226.0,311.0,230.0,311.0,236.5,312.5,242.0,316.5,244.5,320.5,249.0,327.0" stroke="black" stroke-width="1" fill="none" />
<polyline points="248.0,324.5,249.5,328.5,251.0,332.5,252.0,336.5,252.5,340.5,253.0,344.5,253.0,348.5,253.0,352.5,252.5,356.5,252.0,360.5,251.5,364.5,251.0,368.5" stroke="black" stroke-width="1" fill="none" />
<polyline points="204.5,375.0,201.5,371.0" stroke="black" stroke-width="1" fill="none" />
<polyline points="200.0,370.5,196.5,374.5,199.0,371.0,203.0,371.5" stroke="black" stroke-width="1" fill="none" />
<polyline points="201.0,375.5,197.0,374.5" stroke="black" stroke-width="1" fill="none" />
<polyline points="181.5,375.0,177.5,374.0" stroke="black" stroke-width="1" fill="none" />
<polyline points="177.0,372.5,181.0,370.0,185.0,371.5,185.5,373.5" stroke="black" stroke-width="1" fill="none" />
<polyline points="178.5,370.0,177.5,374.0,178.0,378.5,176.0,379.0" stroke="black" stroke-width="1" fill="none" />
<polyline points="176.5,376.5,172.5,377.0,173.0,375.5" stroke="black" stroke-width="1" fill="none" />
<polyline points="174.5,362.0,178.5,362.0" stroke="black" stroke-width="1" fill="none" />
<polyline points="174.0,361.0,178.0,359.5,183.0,360.0" stroke="black" stroke-width="1" fill="none" />
<polyline points="171.5,332.5,167.5,331.0,163.5,330.0,159.5,329.0,155.5,330.0,151.5,330.5" stroke="black" stroke-width="1" fill="none" />
<polyline points="151.0,329.5,155.0,328.0" stroke="black" stroke-width="1" fill="none" />
<polyline points="155.5,326.5,151.5,327.5,147.5,329.0,143.5,331.5,139.5,335.5" stroke="black" stroke-width="1" fill="none" />
<polyline points="148.5,336.5,152.5,333.5,156.5,338.5,160.5,341.0,164.5,338.0,168.5,333.0,172.5,336.0" stroke="black" stroke-width="1" fill="none" />
<polyline points="170.5,330.0,166.5,328.0" stroke="black" stroke-width="1" fill="none" />
<polyline points="166.5,327.0,170.5,328.0" stroke="black" stroke-width="1" fill="none" />
<polyline points="168.5,327.0,173.5,331.0,175.0,335.0" stroke="black" stroke-width="1" fill="none" />
<polyline points="166.5,333.0,165.0,337.0" stroke="black" stroke-width="1" fill="none" />
<polyline points="155.5,338.0,153.5,334.0" stroke="black" stroke-width="1" fill="none" />
<polyline points="152.0,333.5,148.5,337.5,150.0,339.0,154.0,340.0" stroke="black" stroke-width="1" fill="none" />
<polyline points="156.0,342.5,152.0,342.0,148.0,341.5,144.0,341.5,140.0,341.0,139.0,338.5,140.0,334.5,144.5,330.5,153.5,326.5" stroke="black" stroke-width="1" fill="none" />
<polyline points="141.0,324.0,134.5,328.0" stroke="black" stroke-width="1" fill="none" />
<polyline points="129.5,326.0,132.0,318.5,136.0,315.5,140.0,314.5,144.0,312.0,148.0,311.0,152.0,311.0,156.0,311.5,160.0,312.0,164.0,313.0,168.0,314.0,172.0,315.5,176.0,317.0,180.0,319.0" stroke="black" stroke-width="1" fill="none" />
<polyline points="180.5,322.5,178.5,318.5,169.0,314.5" stroke="black" stroke-width="1" fill="none" />
<polyline points="168.0,326.5,170.5,330.5,171.5,335.5" stroke="black" stroke-width="1" fill="none" />
<polyline points="178.5,324.5,174.5,324.5,170.5,324.0,166.5,323.0,162.5,321.5,158.5,321.0,154.5,320.5,150.5,321.5,146.5,322.5,142.5,324.0,138.5,325.0,134.5,328.0,130.5,328.0,129.5,327.0,131.5,323.0,131.5,319.0,137.0,315.0,146.5,311.0" stroke="black" stroke-width="1" fill="none" />
<polyline points="136.5,290.5,140.5,285.0,144.5,280.5,148.5,277.5,152.5,274.5,156.5,272.5,160.5,271.5,164.5,271.0,168.5,270.5,172.5,270.0,176.5,269.5,180.5,270.5,184.5,271.0,188.5,270.5,192.5,270.0,196.5,270.5,200.5,270.5,204.5,270.5,208.5,272.5,212.5,274.0,216.5,276.0,220.5,277.5,224.5,279.5,228.5,282.0,232.5,285.5,236.5,290.5,240.5,298.0" stroke="black" stroke-width="1" fill="none" />
<polyline points="232.0,310.0,236.0,312.0,240.0,314.0,244.0,318.0" stroke="black" stroke-width="1" fill="none" />
<polyline points="237.5,322.5,243.0,326.5" stroke="black" stroke-width="1" fill="none" />
<polyline points="220.5,321.0,212.5,327.0,206.5,331.0,208.0,327.5,212.0,326.5" stroke="black" stroke-width="1" fill="none" />
<polyline points="205.5,316.5,202.0,320.5,202.5,324.0,206.5,324.5,210.5,325.0,214.5,323.5,218.5,322.0,222.5,321.0,226.5,320.5,230.5,320.5,234.5,320.5,238.5,322.5,242.5,325.5" stroke="black" stroke-width="1" fill="none" />
<polyline points="224.0,311.0,212.0,315.0" stroke="black" stroke-width="1" fill="none" />
<polyline points="246.0,328.5,246.5,324.5,246.5,319.0,245.0,315.0,244.5,311.0,243.5,307.0,242.0,303.0,240.5,299.0,238.5,295.0,236.5,291.0,233.5,287.0,229.0,283.0,222.5,279.0,214.0,275.0,205.0,271.0" stroke="black" stroke-width="1" fill="none" />
<polyline points="157.5,272.0,151.0,276.0,145.0,280.0,141.5,284.0,138.0,288.0,136.5,292.0,134.5,296.0,132.0,300.0,131.0,304.0,129.5,308.0,128.0,312.0,126.5,316.0,125.5,320.0,125.0,324.0,124.5,328.0,124.0,332.0,124.0,336.0,123.5,340.0,123.5,344.0,123.0,348.0,123.0,352.0,123.5,356.0,124.0,360.0,124.5,364.0,124.5,368.0,124.5,372.0" stroke="black" stroke-width="1" fill="none" />
<polyline points="124.0,373.5,120.0,371.5,117.5,363.5" stroke="black" stroke-width="1" fill="none" />
<polyline points="120.0,372.0,119.0,367.5,117.0,363.5,116.5,359.5,116.0,355.5,114.5,351.5" stroke="black" stroke-width="1" fill="none" />
<polyline points="108.0,345.0,106.0,341.0,106.0,341.0" stroke="black" stroke-width="1" fill="none" />
<polyline points="101.5,341.0,101.0,337.0,99.5,333.0" stroke="black" stroke-width="1" fill="none" />
<polyline points="95.0,328.5,98.5,334.0,99.5,338.0,103.0,338.5,104.5,342.5,106.5,346.5,110.0,350.5" stroke="black" stroke-width="1" fill="none" />
<polyline points="94.5,292.5,98.5,285.5,102.5,277.5,106.5,270.0,110.5,264.5,114.5,259.5,118.5,255.0,122.5,250.5,126.5,247.5,130.5,244.5,134.5,242.5,138.5,240.5,142.5,239.0,146.5,238.5,150.5,238.5,154.5,238.0,158.5,232.5,162.5,229.5,166.5,227.0,172.5,223.0" stroke="black" stroke-width="1" fill="none" />
<polyline points="184.5,220.0,188.5,219.5" stroke="black" stroke-width="1" fill="none" />
<polyline points="209.0,223.5,218.0,227.5,226.5,231.5,233.0,235.5,238.5,239.5,244.5,243.5,251.5,247.5,254.0,251.5,257.0,255.5,258.0,259.5,261.0,263.5,265.0,267.5,267.5,271.5,269.0,275.5,270.5,279.5,272.5,283.5,274.5,287.5,275.0,291.5,276.5,295.5,279.5,299.5,280.5,303.5,280.5,307.5,280.5,311.5,280.5,315.5,280.0,319.5,279.0,323.5,276.0,327.5,273.0,331.5,272.0,335.5,271.5,339.5,270.5,343.5,267.0,347.5,262.0,351.5,259.5,355.5,258.5,359.5,257.0,363.5,254.5,367.5,252.5,370.0,256.5,364.5" stroke="black" stroke-width="1" fill="none" />
<polyline points="207.0,405.5,203.0,405.0,199.0,404.5,195.0,404.5,191.0,404.5,187.0,404.5,183.0,404.5,179.0,404.5,175.0,404.0,171.0,404.5,167.0,403.5" stroke="black" stroke-width="1" fill="none" />
<polyline points="166.0,403.5,170.0,401.5,174.0,401.5,178.0,401.5,182.0,401.0,186.0,401.0,190.0,401.0,194.0,401.5,198.0,402.0,202.0,402.0,206.0,402.0,210.0,402.5" stroke="black" stroke-width="1" fill="none" />
<polyline points="225.0,436.0,223.5,440.0,220.5,444.0,216.0,448.0,211.0,452.0,205.0,456.0" stroke="black" stroke-width="1" fill="none" />
<polyline points="236.5,449.5,242.0,445.0,242.0,449.0,244.0,452.5,245.5,456.5,247.0,460.5" stroke="black" stroke-width="1" fill="none" />
<polyline points="248.0,460.0,244.0,453.5" stroke="black" stroke-width="1" fill="none" />
<polyline points="240.5,451.0,246.0,454.0,248.5,458.0,254.0,462.0" stroke="black" stroke-width="1" fill="none" />
<polyline points="259.5,463.0,267.0,467.0,274.5,471.0,283.0,475.0,290.0,481.5,292.0,481.5" stroke="black" stroke-width="1" fill="none" />
<polyline points="297.0,476.5,299.5,480.5" stroke="black" stroke-width="1" fill="none" />
<polyline points="296.0,496.0,298.5,497.5,299.0,496.0,300.0,499.5,303.5,501.0" stroke="black" stroke-width="1" fill="none" />
<polyline points="303.5,501.0,303.5,497.0" stroke="black" stroke-width="1" fill="none" />
<polyline points="292.0,500.0,288.0,498.5,284.0,496.0" stroke="black" stroke-width="1" fill="none" />
<polyline points="283.5,494.5,286.5,498.5,291.0,500.5" stroke="black" stroke-width="1" fill="none" />
<polyline points="291.5,497.0,291.5,494.5,287.5,496.0,283.5,494.5" stroke="black" stroke-width="1" fill="none" />
<polyline points="285.5,505.0,284.0,509.0,286.0,512.0,288.5,512.0,288.5,511.0,290.0,510.0" stroke="black" stroke-width="1" fill="none" />
<polyline points="292.0,505.0,288.5,509.0,287.5,513.5,291.5,514.0,295.5,513.0,299.5,508.0,303.5,509.0,307.5,512.0,309.0,509.0" stroke="black" stroke-width="1" fill="none" />
<polyline points="306.0,518.0,310.0,518.5" stroke="black" stroke-width="1" fill="none" />
<polyline points="302.0,524.0,302.0,522.5,298.0,524.0" stroke="black" stroke-width="1" fill="none" />
<polyline points="294.5,513.5,296.5,509.5" stroke="black" stroke-width="1" fill="none" />
<polyline points="286.5,505.5,286.5,509.5,287.0,505.5,291.5,505.5,295.5,506.0,299.5,505.5,303.5,506.0,307.5,507.0" stroke="black" stroke-width="1" fill="none" />
<polyline points="309.0,536.0,310.0,532.0,309.5,528.0,309.5,524.0,310.0,520.0,308.5,514.5,304.5,516.0,305.0,515.5,307.0,512.0,307.0,509.0,310.0,508.0,309.5,504.0,310.0,500.0,310.0,496.0,310.0,492.0,310.0,488.0,310.0,484.0,310.0,480.0,308.5,477.5,304.5,478.5,300.5,481.0,296.5,477.0,292.5,479.0,288.5,478.0,284.5,475.5,280.5,473.0,276.5,471.5,272.5,469.5,268.5,467.5,264.5,465.5,260.5,463.5,256.5,463.0,252.5,460.5,248.5,457.5,244.5,450.0,240.5,450.0" stroke="black" stroke-width="1" fill="none" />
<polyline points="239.5,444.5,240.0,444.0,239.0,448.0,238.0,452.0,236.0,456.0,234.5,460.0,232.5,464.0,230.0,468.0,227.5,472.0,225.0,476.0,221.5,480.0,218.0,484.0,214.5,488.0,212.0,492.0,209.5,496.0,207.5,500.0,205.5,504.0,203.5,508.0,202.5,512.0,205.0,516.0,202.5,520.0,196.5,524.0" stroke="black" stroke-width="1" fill="none" />
<polyline points="207.0,526.0,207.0,522.0,206.0,516.0,202.0,513.0" stroke="black" stroke-width="1" fill="none" />
<polyline points="202.5,510.5,206.5,502.0,210.5,494.5,214.5,488.0,218.5,483.5,222.5,479.0,226.5,473.5,230.5,467.0,234.5,459.5,240.5,450.0,242.0,454.0,243.5,458.0" stroke="black" stroke-width="1" fill="none" />
<polyline points="241.0,461.0,242.5,465.0,246.5,469.0,247.5,473.0" stroke="black" stroke-width="1" fill="none" />
<polyline points="247.0,469.5,243.0,465.5" stroke="black" stroke-width="1" fill="none" />
<polyline points="237.0,467.5,241.0,471.0,245.0,476.5" stroke="black" stroke-width="1" fill="none" />
<polyline points="242.0,486.5,238.0,485.5" stroke="black" stroke-width="1" fill="none" />
<polyline points="240.5,487.5,241.0,491.0,239.5,487.0,240.0,487.5,244.0,489.0" stroke="black" stroke-width="1" fill="none" />
<polyline points="242.5,473.5,238.5,469.5,236.5,465.5,239.5,461.5,240.5,460.5,236.5,465.0" stroke="black" stroke-width="1" fill="none" />
<polyline points="228.0,481.0,232.5,477.5,231.0,479.0,230.5,483.0,232.0,483.0" stroke="black" stroke-width="1" fill="none" />
<polyline points="232.5,483.0,228.5,482.0" stroke="black" stroke-width="1" fill="none" />
<polyline points="227.5,486.5,227.5,490.5,226.5,492.0" stroke="black" stroke-width="1" fill="none" />
<polyline points="228.5,491.5,227.5,492.5,225.5,490.0,226.5,486.0,226.0,486.5" stroke="black" stroke-width="1" fill="none" />
<polyline points="223.0,518.5,224.5,522.5,222.5,526.5,223.5,528.5" stroke="black" stroke-width="1" fill="none" />
<polyline points="225.5,530.5,222.5,531.0,223.0,531.5,222.0,527.5,221.5,523.5,221.5,519.5,221.5,518.5" stroke="black" stroke-width="1" fill="none" />
<polyline points="209.0,519.0,209.0,523.0" stroke="black" stroke-width="1" fill="none" />
<polyline points="235.5,527.5,233.5,531.5,233.5,530.5,234.5,532.0" stroke="black" stroke-width="1" fill="none" />
<polyline points="242.5,527.5,246.5,529.5" stroke="black" stroke-width="1" fill="none" />
<polyline points="248.5,522.5,244.5,521.5,240.5,523.0" stroke="black" stroke-width="1" fill="none" />
<polyline points="243.0,521.5,242.0,525.5,244.5,529.5,245.0,534.0,245.0,534.0" stroke="black" stroke-width="1" fill="none" />
<polyline points="250.0,530.0,250.5,526.0,246.5,522.0" stroke="black" stroke-width="1" fill="none" />
<polyline points="263.5,510.5,260.0,511.0,260.0,507.0,261.0,503.0,264.0,501.5,260.0,504.5" stroke="black" stroke-width="1" fill="none" />
<polyline points="265.5,502.0,266.0,506.0,264.5,510.0" stroke="black" stroke-width="1" fill="none" />
<polyline points="270.5,509.5,271.0,508.5,270.5,504.5,271.5,503.0" stroke="black" stroke-width="1" fill="none" />
<polyline points="271.5,503.0,273.5,507.0,273.5,511.0" stroke="black" stroke-width="1" fill="none" />
<polyline points="270.0,524.0,274.0,524.5" stroke="black" stroke-width="1" fill="none" />
<polyline points="150.0,493.0,146.0,491.0" stroke="black" stroke-width="1" fill="none" />
<polyline points="145.0,487.0,145.5,491.0,151.0,495.0,150.0,499.5" stroke="black" stroke-width="1" fill="none" />
<polyline points="150.5,499.0,146.5,501.0,144.5,500.0,143.0,496.0,142.0,492.0,143.5,488.0,143.5,487.0" stroke="black" stroke-width="1" fill="none" />
<polyline points="141.0,478.5,137.0,479.0" stroke="black" stroke-width="1" fill="none" />
<polyline points="138.5,478.0,139.0,482.0,141.5,482.0,140.5,482.5" stroke="black" stroke-width="1" fill="none" />
<polyline points="145.0,473.0,149.0,479.5,153.0,484.0,157.0,489.0,161.0,495.5,165.0,504.5,164.0,511.5,166.0,515.5,169.0,519.5,175.0,523.5" stroke="black" stroke-width="1" fill="none" />
<polyline points="114.5,528.0,110.5,526.5,106.5,527.5" stroke="black" stroke-width="1" fill="none" />
<polyline points="105.0,529.5,106.0,533.5,104.5,529.0,105.0,532.0" stroke="black" stroke-width="1" fill="none" />
<polyline points="105.0,523.0,107.0,528.5,108.5,532.5,111.0,533.0,110.0,534.5,114.0,531.0" stroke="black" stroke-width="1" fill="none" />
<polyline points="113.5,516.5,115.0,512.5,115.0,508.5,113.5,506.0,109.5,506.5,105.5,507.0,101.5,508.5" stroke="black" stroke-width="1" fill="none" />
<polyline points="103.0,507.5,102.0,511.5,102.5,515.5,100.0,513.0,104.5,513.5,108.5,517.0,112.5,517.5" stroke="black" stroke-width="1" fill="none" />
<polyline points="96.0,512.5,96.5,508.5" stroke="black" stroke-width="1" fill="none" />
<polyline points="95.5,508.5,94.5,512.5,94.0,516.5,96.5,512.0" stroke="black" stroke-width="1" fill="none" />
<polyline points="92.5,512.5,88.5,513.5" stroke="black" stroke-width="1" fill="none" />
<polyline points="78.0,515.0,78.0,519.0" stroke="black" stroke-width="1" fill="none" />
<polyline points="76.0,520.0,76.0,516.0,76.0,516.0" stroke="black" stroke-width="1" fill="none" />
<polyline points="67.5,520.5,63.5,523.0" stroke="black" stroke-width="1" fill="none" />
<polyline points="66.0,514.5,66.0,513.0,62.0,511.5" stroke="black" stroke-width="1" fill="none" />
<polyline points="61.5,487.0,65.5,485.0,69.5,484.0,73.5,483.0,77.5,481.0,81.5,480.5,72.5,483.0" stroke="black" stroke-width="1" fill="none" />
<polyline points="67.0,484.5,61.5,488.5,61.5,492.5,61.5,496.5,61.5,500.5,62.0,504.5,62.0,508.5,62.5,512.5,69.5,516.5,67.5,520.5,62.5,524.0,62.0,528.0,62.0,532.0,63.5,534.0,67.5,535.0,71.5,535.5,75.5,535.5,79.5,535.5,83.5,535.5,87.5,535.5,91.5,535.5,95.5,536.0,101.0,536.0,105.0,536.0,109.0,536.5,113.0,536.0,117.0,536.0,121.0,536.5,125.0,536.5,129.0,536.5,133.0,536.5,137.0,536.5,141.0,537.0,145.0,537.0,149.0,537.0,153.0,537.0,157.0,537.0,161.0,537.0,165.0,537.0,169.0,537.0,173.0,537.0,177.0,537.0,181.0,537.0,185.0,537.0,189.0,537.0,193.0,537.0,197.0,537.0,201.0,537.0,205.0,537.0,209.0,537.0,213.0,537.0,217.0,537.0,221.0,537.0,225.0,537.0,229.0,537.0,233.0,537.0,237.0,537.0,241.0,537.0,245.0,537.5,249.0,537.0,253.0,537.0,257.0,537.0,261.0,537.0,265.0,537.0,269.0,537.0,273.0,537.0,277.0,537.0,281.0,537.0,285.0,537.0,289.0,537.0,293.0,537.0,297.0,536.5,301.0,536.5,305.0,536.5,309.0,536.0" stroke="black" stroke-width="1" fill="none" />
<polyline points="224.5,438.0,220.5,443.5,216.5,447.5,212.5,451.0,208.5,454.0,204.5,456.5,200.5,458.5,196.5,459.5,192.5,460.5,188.5,460.5,184.5,460.5,180.5,460.5,176.5,460.5,172.5,460.0,168.5,460.0,164.5,459.5,160.5,458.5,156.5,456.5,152.5,452.5,148.5,448.0,144.5,443.0,140.5,432.5" stroke="black" stroke-width="1" fill="none" />
<polyline points="141.5,427.0,145.0,431.0,150.5,435.0,155.5,439.0,160.0,443.0,167.0,447.0" stroke="black" stroke-width="1" fill="none" />
<polyline points="143.5,460.5,140.0,453.0,136.0,446.5" stroke="black" stroke-width="1" fill="none" />
<polyline points="134.0,439.5,135.0,443.5,136.0,447.5,139.0,451.5,141.0,455.5,143.0,459.5,145.0,463.5,145.0,467.5,144.5,471.5,146.0,475.5,148.5,479.5,152.5,483.5,155.5,487.5,158.0,491.5,160.5,495.5,162.5,499.5,164.5,503.5,166.0,507.5,167.5,511.0,166.0,515.0,170.0,519.5,174.0,522.5,178.0,525.0,182.0,526.0,186.0,525.5,190.0,524.0,194.0,523.5,198.0,523.5,202.0,520.5,207.5,519.0" stroke="black" stroke-width="1" fill="none" />
<polyline points="200.5,449.5,208.0,445.5,214.5,441.5,221.0,437.5,224.0,435.5,220.0,438.0,216.0,440.0,212.0,443.5,208.0,445.5,204.0,448.0,200.0,450.0,196.0,450.5,192.0,451.0,188.0,451.0,184.0,451.0,180.0,451.0,176.0,450.0,172.0,449.0,168.0,447.0,164.0,445.0,160.0,442.5,156.0,439.0,152.0,436.0,148.0,433.0,144.0,429.5,140.0,426.5" stroke="black" stroke-width="1" fill="none" />
<polyline points="140.0,426.5,140.0,430.5,141.0,434.5,142.5,438.5,144.0,442.5,146.5,446.5,150.5,450.5,154.0,454.5,159.5,458.5" stroke="black" stroke-width="1" fill="none" />
<polyline points="132.5,439.5,131.5,443.5,130.5,447.5,129.0,451.5,127.5,455.5,124.5,459.5,121.5,463.5" stroke="black" stroke-width="1" fill="none" />
<polyline points="126.5,457.0,122.5,463.0,118.5,464.5,114.5,465.0,110.5,467.0,106.5,468.5,102.5,469.5,98.5,474.5,94.5,476.0,90.5,476.5,86.5,479.5,82.5,481.5,78.5,483.5,78.0,483.5,86.5,479.5,92.5,475.5" stroke="black" stroke-width="1" fill="none" />
<polyline points="100.5,473.5,102.5,469.5" stroke="black" stroke-width="1" fill="none" />
<polyline points="106.0,497.0,110.0,496.5" stroke="black" stroke-width="1" fill="none" />
<polyline points="97.5,533.0,93.5,534.0" stroke="black" stroke-width="1" fill="none" />
<polyline points="93.0,532.5,97.0,531.0,99.5,532.0,100.0,536.0" stroke="black" stroke-width="1" fill="none" />
<polyline points="112.5,351.0,108.5,348.5,104.5,341.0,99.0,341.0,98.0,339.0,97.0,335.0,96.0,331.0,94.5,327.0,93.5,323.0,93.0,319.0,92.0,315.0,92.0,311.0,92.0,307.0,93.0,303.0,93.5,299.0,94.0,295.0,95.0,291.0,98.0,287.0,100.0,283.0,102.0,279.0,104.0,275.0,106.0,271.0,108.5,267.0,112.0,263.0,115.0,259.0,118.5,255.0,122.0,251.0,127.0,247.0,133.0,243.0,142.0,239.0" stroke="black" stroke-width="1" fill="none" />
</svg>