<svg xmlns="http://www.w3.org/2000/svg" height="489px" width="508px" version="1.1"><polyline points="323.0,3.0,343.0,11.0,362.0,19.0,378.0,27.0,390.0,35.0,399.0,43.0,407.0,51.0,414.0,59.0,420.0,67.0,424.0,75.0,428.0,83.0,432.0,91.0,435.0,99.0,439.0,107.0,442.0,115.0,444.0,123.0,449.0,131.0,448.0,139.0,450.0,147.0,451.0,155.0,454.0,163.0,457.0,171.0,460.0,179.0,464.0,187.0,469.0,195.0,474.0,203.0,482.0,211.0,493.0,219.0" stroke="black" stroke-width="1" fill="none" />
<polyline points="508.0,224.0,500.0,222.0,492.0,217.0,484.0,212.0,476.0,204.0,468.0,192.0,460.0,177.0,452.0,156.0" stroke="black" stroke-width="1" fill="none" />
<polyline points="467.0,163.0,459.0,149.0,451.0,133.0,443.0,117.0,435.0,96.0,427.0,79.0,419.0,65.0,411.0,55.0,403.0,46.0,395.0,38.0,387.0,32.0,379.0,27.0,371.0,23.0,363.0,19.0,355.0,15.0,347.0,13.0,339.0,9.0,331.0,6.0,323.0,3.0,315.0,1.0,307.0,1.0" stroke="black" stroke-width="1" fill="none" />
<polyline points="280.0,1.0,272.0,2.0,264.0,5.0,256.0,5.0,248.0,5.0,240.0,6.0,232.0,8.0,224.0,9.0,216.0,12.0,208.0,16.0,200.0,20.0,192.0,26.0,184.0,31.0,176.0,37.0,168.0,44.0,160.0,52.0,152.0,61.0,144.0,71.0,136.0,83.0,128.0,98.0,120.0,121.0" stroke="black" stroke-width="1" fill="none" />
<polyline points="84.0,135.0,85.0,143.0,85.0,151.0,86.0,159.0,84.0,167.0,79.0,170.0,87.0,177.0" stroke="black" stroke-width="1" fill="none" />
<polyline points="87.0,178.0,79.0,170.0,81.0,162.0,83.0,154.0,83.0,146.0,82.0,138.0,82.0,134.0" stroke="black" stroke-width="1" fill="none" />
<polyline points="55.0,136.0,55.0,144.0" stroke="black" stroke-width="1" fill="none" />
<polyline points="55.0,153.0,56.0,161.0,57.0,169.0,58.0,177.0" stroke="black" stroke-width="1" fill="none" />
<polyline points="53.0,185.0,48.0,183.0,49.0,175.0,51.0,167.0,53.0,159.0,53.0,147.0,52.0,139.0,52.0,135.0" stroke="black" stroke-width="1" fill="none" />
<polyline points="52.0,118.0,52.0,110.0,52.0,106.0" stroke="black" stroke-width="1" fill="none" />
<polyline points="55.0,107.0,55.0,115.0" stroke="black" stroke-width="1" fill="none" />
<polyline points="32.0,93.0,40.0,75.0,48.0,73.0" stroke="black" stroke-width="1" fill="none" />
<polyline points="47.0,70.0,52.0,78.0,54.0,86.0" stroke="black" stroke-width="1" fill="none" />
<polyline points="47.0,70.0,39.0,72.0,31.0,87.0" stroke="black" stroke-width="1" fill="none" />
<polyline points="43.0,72.0,38.0,80.0,34.0,88.0,32.0,96.0,31.0,104.0,31.0,112.0,29.0,120.0,27.0,129.0,27.0,137.0" stroke="black" stroke-width="1" fill="none" />
<polyline points="23.0,124.0,15.0,122.0" stroke="black" stroke-width="1" fill="none" />
<polyline points="17.0,118.0,11.0,126.0,8.0,134.0,7.0,142.0,5.0,150.0,4.0,158.0,3.0,166.0,3.0,174.0,2.0,182.0,1.0,190.0,1.0,198.0,1.0,206.0,2.0,214.0,2.0,222.0,1.0,230.0" stroke="black" stroke-width="1" fill="none" />
<polyline points="3.0,264.0,3.0,272.0,4.0,280.0,8.0,288.0,10.0,296.0,14.0,304.0,16.0,312.0,19.0,320.0,22.0,328.0,25.0,333.0,31.0,337.0,39.0,345.0" stroke="black" stroke-width="1" fill="none" />
<polyline points="27.0,338.0,35.0,351.0,43.0,358.0,51.0,360.0,50.0,362.0,54.0,370.0,57.0,378.0,58.0,386.0,62.0,394.0,70.0,402.0,88.0,411.0" stroke="black" stroke-width="1" fill="none" />
<polyline points="61.0,386.0,69.0,397.0,77.0,404.0,85.0,408.0,93.0,413.0,101.0,399.0,109.0,387.0,117.0,376.0,125.0,365.0,133.0,355.0" stroke="black" stroke-width="1" fill="none" />
<polyline points="111.0,350.0,103.0,351.0,93.0,351.0,85.0,352.0" stroke="black" stroke-width="1" fill="none" />
<polyline points="53.0,360.0,56.0,368.0,60.0,376.0,60.0,384.0,64.0,392.0,71.0,400.0,78.0,408.0" stroke="black" stroke-width="1" fill="none" />
<polyline points="83.0,411.0,75.0,406.0,66.0,398.0,58.0,386.0" stroke="black" stroke-width="1" fill="none" />
<polyline points="51.0,408.0,59.0,426.0,67.0,434.0,75.0,436.0,83.0,430.0,91.0,419.0" stroke="black" stroke-width="1" fill="none" />
<polyline points="49.0,446.0,57.0,464.0,65.0,475.0,73.0,482.0,81.0,488.0,90.0,489.0,98.0,488.0,106.0,488.0,114.0,488.0,122.0,489.0,130.0,489.0,138.0,489.0,146.0,488.0,154.0,488.0,162.0,488.0,170.0,489.0,178.0,489.0,186.0,488.0,194.0,488.0,202.0,488.0,210.0,488.0,218.0,489.0,226.0,488.0,234.0,488.0,242.0,489.0,250.0,489.0,258.0,489.0,266.0,489.0,274.0,489.0,285.0,488.0,293.0,489.0,301.0,488.0" stroke="black" stroke-width="1" fill="none" />
<polyline points="314.0,489.0,311.0,483.0,309.0,475.0,300.0,471.0" stroke="black" stroke-width="1" fill="none" />
<polyline points="306.0,471.0,314.0,473.0,322.0,479.0" stroke="black" stroke-width="1" fill="none" />
<polyline points="319.0,480.0,312.0,472.0" stroke="black" stroke-width="1" fill="none" />
<polyline points="322.0,452.0,321.0,438.0,313.0,431.0" stroke="black" stroke-width="1" fill="none" />
<polyline points="314.0,430.0,316.0,438.0,318.0,446.0,323.0,454.0,327.0,462.0" stroke="black" stroke-width="1" fill="none" />
<polyline points="336.0,489.0,344.0,488.0,352.0,489.0,360.0,489.0,368.0,489.0,376.0,489.0,384.0,489.0,392.0,489.0,400.0,489.0,408.0,488.0,416.0,489.0" stroke="black" stroke-width="1" fill="none" />
<polyline points="417.0,442.0,409.0,435.0,401.0,430.0,393.0,425.0,385.0,418.0,377.0,411.0" stroke="black" stroke-width="1" fill="none" />
<polyline points="376.0,410.0,384.0,406.0,392.0,402.0,400.0,396.0,408.0,390.0,416.0,383.0,419.0,379.0,412.0,387.0,402.0,395.0,389.0,403.0,376.0,411.0,385.0,419.0,395.0,427.0,407.0,435.0,417.0,443.0,423.0,451.0,425.0,459.0,424.0,467.0,423.0,475.0,422.0,483.0,411.0,489.0" stroke="black" stroke-width="1" fill="none" />
<polyline points="367.0,398.0,359.0,390.0,351.0,381.0" stroke="black" stroke-width="1" fill="none" />
<polyline points="350.0,378.0,358.0,363.0,366.0,350.0,365.0,352.0,360.0,360.0,356.0,368.0,351.0,376.0,352.0,384.0,360.0,392.0" stroke="black" stroke-width="1" fill="none" />
<polyline points="330.0,375.0,322.0,357.0" stroke="black" stroke-width="1" fill="none" />
<polyline points="323.0,360.0,327.0,368.0,330.0,376.0,329.0,384.0,328.0,392.0,327.0,400.0,328.0,408.0,328.0,416.0,328.0,424.0" stroke="black" stroke-width="1" fill="none" />
<polyline points="326.0,427.0,319.0,419.0" stroke="black" stroke-width="1" fill="none" />
<polyline points="313.0,417.0,321.0,427.0,329.0,439.0,337.0,452.0" stroke="black" stroke-width="1" fill="none" />
<polyline points="312.0,450.0,304.0,432.0" stroke="black" stroke-width="1" fill="none" />
<polyline points="304.0,432.0,307.0,440.0,311.0,448.0,314.0,456.0,316.0,464.0,318.0,472.0,322.0,480.0,327.0,488.0" stroke="black" stroke-width="1" fill="none" />
<polyline points="341.0,488.0,338.0,482.0,340.0,474.0,340.0,466.0,339.0,458.0,335.0,450.0,330.0,442.0,325.0,434.0,319.0,426.0,313.0,418.0,307.0,410.0,302.0,399.0,305.0,391.0,312.0,383.0,318.0,375.0,315.0,364.0,307.0,376.0,299.0,387.0" stroke="black" stroke-width="1" fill="none" />
<polyline points="309.0,377.0,302.0,395.0,303.0,387.0,307.0,379.0,318.0,371.0,316.0,378.0,308.0,388.0,299.0,397.0,299.0,389.0,303.0,381.0,309.0,373.0,314.0,365.0,319.0,357.0,324.0,349.0,316.0,360.0" stroke="black" stroke-width="1" fill="none" />
<polyline points="300.0,312.0,292.0,307.0,284.0,306.0,276.0,311.0" stroke="black" stroke-width="1" fill="none" />
<polyline points="284.0,303.0,275.0,311.0,281.0,305.0,289.0,303.0,297.0,307.0" stroke="black" stroke-width="1" fill="none" />
<polyline points="271.0,356.0,260.0,353.0" stroke="black" stroke-width="1" fill="none" />
<polyline points="254.0,358.0,262.0,365.0,270.0,373.0,283.0,382.0,291.0,391.0" stroke="black" stroke-width="1" fill="none" />
<polyline points="292.0,404.0,290.0,402.0,282.0,412.0,274.0,412.0,266.0,394.0" stroke="black" stroke-width="1" fill="none" />
<polyline points="292.0,427.0,293.0,425.0,290.0,433.0,290.0,441.0,284.0,454.0" stroke="black" stroke-width="1" fill="none" />
<polyline points="282.0,469.0,282.0,477.0" stroke="black" stroke-width="1" fill="none" />
<polyline points="284.0,478.0,285.0,470.0" stroke="black" stroke-width="1" fill="none" />
<polyline points="286.0,436.0,289.0,428.0,293.0,420.0,287.0,431.0" stroke="black" stroke-width="1" fill="none" />
<polyline points="302.0,432.0,301.0,440.0,299.0,448.0,299.0,456.0,299.0,464.0,300.0,472.0,307.0,478.0,307.0,486.0,311.0,488.0,318.0,489.0,325.0,488.0,333.0,489.0" stroke="black" stroke-width="1" fill="none" />
<polyline points="281.0,489.0,272.0,488.0,274.0,480.0,271.0,472.0,270.0,464.0,271.0,456.0,273.0,448.0,275.0,440.0,278.0,432.0,278.0,424.0,275.0,416.0,272.0,408.0,269.0,400.0,265.0,392.0,261.0,384.0,256.0,376.0,252.0,368.0,247.0,360.0,242.0,352.0,233.0,345.0,234.0,343.0,233.0,335.0,231.0,327.0,229.0,319.0,223.0,311.0,217.0,303.0,210.0,295.0,208.0,287.0,207.0,279.0,204.0,271.0,200.0,263.0,196.0,255.0,192.0,247.0,188.0,239.0,185.0,231.0,183.0,223.0,183.0,215.0,183.0,207.0,185.0,199.0,187.0,191.0,188.0,183.0,190.0,175.0,192.0,167.0,197.0,159.0,197.0,151.0,200.0,143.0,203.0,135.0,209.0,127.0,210.0,121.0,215.0,113.0,221.0,105.0,229.0,97.0,237.0,88.0,239.0,80.0,241.0,72.0,242.0,64.0,245.0,56.0,246.0,48.0,249.0,40.0,253.0,32.0,255.0,27.0,247.0,44.0" stroke="black" stroke-width="1" fill="none" />
<polyline points="226.0,29.0,221.0,37.0,217.0,45.0,212.0,53.0,208.0,61.0,204.0,69.0,200.0,77.0,197.0,85.0,194.0,93.0,191.0,101.0,197.0,84.0,205.0,66.0,213.0,50.0,221.0,37.0" stroke="black" stroke-width="1" fill="none" />
<polyline points="220.0,32.0,212.0,39.0,204.0,45.0,196.0,52.0,188.0,59.0,190.0,53.0,195.0,45.0,201.0,37.0" stroke="black" stroke-width="1" fill="none" />
<polyline points="198.0,37.0,191.0,45.0,185.0,53.0,179.0,61.0,175.0,69.0,171.0,77.0,168.0,85.0,166.0,93.0,160.0,101.0,155.0,109.0,151.0,117.0,154.0,111.0,162.0,100.0,170.0,80.0,178.0,63.0,186.0,51.0,194.0,41.0" stroke="black" stroke-width="1" fill="none" />
<polyline points="195.0,45.0,187.0,58.0,196.0,52.0,206.0,44.0,216.0,36.0,225.0,28.0" stroke="black" stroke-width="1" fill="none" />
<polyline points="221.0,14.0,210.0,22.0,200.0,30.0,192.0,38.0,184.0,46.0,176.0,54.0,171.0,62.0,167.0,70.0,162.0,78.0,159.0,86.0,156.0,94.0,154.0,102.0,150.0,110.0,147.0,118.0" stroke="black" stroke-width="1" fill="none" />
<polyline points="161.0,136.0,164.0,144.0,175.0,152.0" stroke="black" stroke-width="1" fill="none" />
<polyline points="192.0,159.0,184.0,156.0,176.0,152.0,168.0,146.0,160.0,140.0" stroke="black" stroke-width="1" fill="none" />
<polyline points="159.0,139.0,167.0,139.0,175.0,143.0" stroke="black" stroke-width="1" fill="none" />
<polyline points="164.0,137.0,176.0,145.0,189.0,153.0" stroke="black" stroke-width="1" fill="none" />
<polyline points="212.0,145.0,220.0,153.0" stroke="black" stroke-width="1" fill="none" />
<polyline points="216.0,146.0,225.0,154.0,230.0,162.0" stroke="black" stroke-width="1" fill="none" />
<polyline points="224.0,178.0,232.0,176.0,240.0,179.0" stroke="black" stroke-width="1" fill="none" />
<polyline points="237.0,180.0,245.0,184.0" stroke="black" stroke-width="1" fill="none" />
<polyline points="243.0,191.0,235.0,182.0,227.0,183.0,219.0,185.0,211.0,189.0,203.0,194.0,195.0,204.0" stroke="black" stroke-width="1" fill="none" />
<polyline points="201.0,211.0,209.0,201.0,217.0,196.0,225.0,193.0,233.0,194.0,241.0,198.0" stroke="black" stroke-width="1" fill="none" />
<polyline points="233.0,194.0,243.0,202.0,245.0,210.0,248.0,218.0,248.0,226.0,247.0,234.0,244.0,242.0,239.0,250.0" stroke="black" stroke-width="1" fill="none" />
<polyline points="238.0,234.0,230.0,235.0,222.0,239.0" stroke="black" stroke-width="1" fill="none" />
<polyline points="213.0,231.0,221.0,246.0,229.0,244.0,237.0,241.0,238.0,240.0" stroke="black" stroke-width="1" fill="none" />
<polyline points="205.0,222.0,210.0,214.0" stroke="black" stroke-width="1" fill="none" />
<polyline points="227.0,199.0,218.0,207.0,213.0,215.0,212.0,223.0,213.0,231.0,216.0,239.0,221.0,247.0,224.0,253.0,232.0,251.0,240.0,250.0" stroke="black" stroke-width="1" fill="none" />
<polyline points="194.0,248.0,186.0,232.0" stroke="black" stroke-width="1" fill="none" />
<polyline points="173.0,240.0,183.0,248.0,191.0,256.0,203.0,268.0" stroke="black" stroke-width="1" fill="none" />
<polyline points="210.0,294.0,218.0,304.0,226.0,314.0" stroke="black" stroke-width="1" fill="none" />
<polyline points="236.0,338.0,244.0,342.0,252.0,345.0,260.0,349.0,268.0,354.0,276.0,358.0,284.0,360.0,292.0,359.0,300.0,356.0,308.0,353.0,316.0,348.0,324.0,346.0,332.0,342.0,340.0,338.0,348.0,332.0,356.0,326.0,364.0,317.0,372.0,302.0,380.0,283.0" stroke="black" stroke-width="1" fill="none" />
<polyline points="382.0,286.0,384.0,278.0" stroke="black" stroke-width="1" fill="none" />
<polyline points="387.0,275.0,387.0,283.0,384.0,291.0,385.0,291.0" stroke="black" stroke-width="1" fill="none" />
<polyline points="391.0,287.0,391.0,295.0,392.0,303.0,393.0,311.0,395.0,319.0,395.0,327.0,394.0,335.0,393.0,343.0,391.0,351.0,389.0,359.0,387.0,367.0,386.0,375.0,384.0,383.0,381.0,391.0,373.0,399.0,370.0,401.0,378.0,396.0" stroke="black" stroke-width="1" fill="none" />
<polyline points="420.0,396.0,421.0,388.0,422.0,380.0" stroke="black" stroke-width="1" fill="none" />
<polyline points="449.0,371.0,451.0,363.0,451.0,355.0,452.0,347.0,452.0,339.0" stroke="black" stroke-width="1" fill="none" />
<polyline points="441.0,308.0,441.0,316.0,441.0,324.0,440.0,332.0,439.0,340.0,439.0,348.0,439.0,356.0,437.0,364.0,435.0,372.0,432.0,380.0,429.0,388.0,424.0,396.0,422.0,400.0,430.0,385.0" stroke="black" stroke-width="1" fill="none" />
<polyline points="368.0,397.0,369.0,389.0,371.0,381.0,371.0,373.0,371.0,365.0,370.0,357.0,369.0,349.0" stroke="black" stroke-width="1" fill="none" />
<polyline points="299.0,403.0,291.0,395.0,283.0,386.0,274.0,373.0,266.0,365.0,258.0,357.0,250.0,350.0" stroke="black" stroke-width="1" fill="none" />
<polyline points="247.0,348.0,262.0,351.0,270.0,359.0,272.0,360.0,284.0,363.0" stroke="black" stroke-width="1" fill="none" />
<polyline points="246.0,350.0,254.0,356.0,263.0,363.0,271.0,371.0,277.0,381.0,285.0,389.0,292.0,397.0,287.0,405.0,281.0,413.0" stroke="black" stroke-width="1" fill="none" />
<polyline points="316.0,431.0,321.0,439.0,324.0,447.0,327.0,455.0" stroke="black" stroke-width="1" fill="none" />
<polyline points="320.0,377.0,312.0,387.0,312.0,387.0,319.0,379.0,321.0,371.0,318.0,363.0,316.0,351.0,318.0,350.0,310.0,355.0,302.0,358.0,296.0,366.0,288.0,371.0,280.0,376.0,272.0,379.0,264.0,383.0,265.0,382.0,269.0,373.0,261.0,365.0,253.0,357.0,248.0,349.0,236.0,340.0" stroke="black" stroke-width="1" fill="none" />
<polyline points="233.0,345.0,241.0,348.0,249.0,361.0,257.0,376.0" stroke="black" stroke-width="1" fill="none" />
<polyline points="224.0,320.0,216.0,313.0,208.0,307.0,200.0,303.0,192.0,297.0,184.0,295.0,176.0,295.0,168.0,290.0,160.0,281.0" stroke="black" stroke-width="1" fill="none" />
<polyline points="156.0,273.0,159.0,278.0,164.0,286.0,173.0,294.0" stroke="black" stroke-width="1" fill="none" />
<polyline points="187.0,296.0,200.0,304.0,214.0,312.0,224.0,320.0" stroke="black" stroke-width="1" fill="none" />
<polyline points="192.0,256.0,184.0,249.0,176.0,241.0,168.0,240.0" stroke="black" stroke-width="1" fill="none" />
<polyline points="169.0,238.0,166.0,246.0,163.0,254.0,159.0,262.0,154.0,270.0,156.0,276.0,156.0,284.0" stroke="black" stroke-width="1" fill="none" />
<polyline points="154.0,270.0,162.0,256.0" stroke="black" stroke-width="1" fill="none" />
<polyline points="122.0,259.0,121.0,251.0" stroke="black" stroke-width="1" fill="none" />
<polyline points="116.0,249.0,107.0,257.0" stroke="black" stroke-width="1" fill="none" />
<polyline points="91.0,252.0,88.0,260.0,84.0,268.0,80.0,276.0,78.0,284.0,76.0,292.0,74.0,300.0,73.0,308.0" stroke="black" stroke-width="1" fill="none" />
<polyline points="70.0,314.0,71.0,306.0,72.0,298.0,74.0,290.0,76.0,282.0,79.0,274.0,82.0,266.0,85.0,258.0,90.0,255.0,82.0,271.0" stroke="black" stroke-width="1" fill="none" />
<polyline points="74.0,286.0,82.0,265.0,90.0,251.0" stroke="black" stroke-width="1" fill="none" />
<polyline points="70.0,234.0,62.0,237.0,54.0,241.0,46.0,247.0,46.0,247.0,57.0,239.0" stroke="black" stroke-width="1" fill="none" />
<polyline points="65.0,233.0,57.0,237.0,49.0,241.0,41.0,248.0,36.0,254.0,42.0,247.0,52.0,239.0,69.0,231.0" stroke="black" stroke-width="1" fill="none" />
<polyline points="108.0,228.0,116.0,236.0,118.0,244.0,108.0,252.0,109.0,255.0,117.0,249.0" stroke="black" stroke-width="1" fill="none" />
<polyline points="117.0,233.0,109.0,222.0" stroke="black" stroke-width="1" fill="none" />
<polyline points="108.0,228.0,116.0,236.0" stroke="black" stroke-width="1" fill="none" />
<polyline points="127.0,209.0,127.0,200.0,125.0,192.0,125.0,184.0,123.0,176.0,121.0,168.0,118.0,160.0,117.0,152.0,115.0,144.0,118.0,136.0,119.0,128.0,121.0,120.0,123.0,112.0,125.0,104.0,129.0,96.0,133.0,88.0,138.0,80.0,142.0,72.0,149.0,64.0,156.0,56.0,164.0,48.0,172.0,40.0,182.0,32.0,194.0,24.0,207.0,16.0,223.0,14.0,215.0,18.0,207.0,25.0,199.0,31.0,191.0,39.0,183.0,47.0,175.0,55.0,167.0,68.0,159.0,85.0" stroke="black" stroke-width="1" fill="none" />
<polyline points="176.0,90.0,177.0,98.0,185.0,106.0,188.0,114.0,184.0,122.0,183.0,130.0,181.0,138.0,180.0,147.0,188.0,152.0,196.0,153.0,204.0,133.0" stroke="black" stroke-width="1" fill="none" />
<polyline points="211.0,142.0,219.0,148.0,227.0,155.0,235.0,161.0" stroke="black" stroke-width="1" fill="none" />
<polyline points="228.0,179.0,235.0,177.0,246.0,185.0,251.0,193.0" stroke="black" stroke-width="1" fill="none" />
<polyline points="246.0,199.0,242.0,191.0,235.0,183.0" stroke="black" stroke-width="1" fill="none" />
<polyline points="224.0,183.0,207.0,191.0,198.0,199.0,195.0,207.0,194.0,215.0,197.0,223.0,199.0,226.0,210.0,214.0,220.0,205.0,228.0,199.0,236.0,199.0,237.0,205.0,238.0,214.0,245.0,209.0" stroke="black" stroke-width="1" fill="none" />
<polyline points="237.0,214.0,234.0,206.0,231.0,198.0" stroke="black" stroke-width="1" fill="none" />
<polyline points="221.0,194.0,208.0,202.0,202.0,210.0,200.0,218.0" stroke="black" stroke-width="1" fill="none" />
<polyline points="144.0,219.0,156.0,227.0,157.0,235.0,155.0,243.0,154.0,251.0,152.0,259.0,151.0,267.0,151.0,275.0,151.0,283.0,150.0,291.0,147.0,299.0,143.0,307.0,138.0,315.0,135.0,323.0,130.0,331.0,126.0,339.0,115.0,349.0,123.0,346.0,131.0,337.0" stroke="black" stroke-width="1" fill="none" />
<polyline points="120.0,347.0,130.0,339.0,134.0,330.0,138.0,322.0" stroke="black" stroke-width="1" fill="none" />
<polyline points="141.0,315.0,141.0,323.0,140.0,331.0,139.0,339.0,137.0,347.0,133.0,355.0,126.0,363.0,120.0,371.0,114.0,379.0,109.0,387.0,104.0,395.0,98.0,403.0,95.0,411.0,91.0,419.0,86.0,427.0,76.0,435.0" stroke="black" stroke-width="1" fill="none" />
<polyline points="47.0,437.0,39.0,415.0" stroke="black" stroke-width="1" fill="none" />
<polyline points="47.0,385.0,39.0,368.0" stroke="black" stroke-width="1" fill="none" />
<polyline points="30.0,377.0,22.0,359.0" stroke="black" stroke-width="1" fill="none" />
<polyline points="15.0,319.0,23.0,335.0,30.0,344.0,35.0,352.0,37.0,360.0,38.0,368.0,43.0,376.0,46.0,384.0,48.0,392.0,50.0,400.0,51.0,408.0,53.0,416.0,56.0,424.0,63.0,432.0" stroke="black" stroke-width="1" fill="none" />
<polyline points="91.0,488.0,76.0,484.0,65.0,476.0,59.0,468.0,55.0,460.0,51.0,452.0,48.0,444.0,46.0,436.0,43.0,428.0,41.0,420.0,38.0,412.0,36.0,404.0,34.0,396.0,32.0,388.0,31.0,380.0,27.0,372.0,24.0,364.0,21.0,356.0,21.0,348.0,24.0,340.0,21.0,332.0,17.0,324.0,14.0,316.0,9.0,308.0,5.0,300.0,2.0,292.0,1.0,284.0,1.0,276.0,1.0,268.0,3.0,260.0,2.0,252.0,1.0,244.0,2.0,236.0,3.0,228.0,5.0,220.0,5.0,212.0,4.0,204.0,4.0,190.0,4.0,182.0,6.0,174.0,7.0,166.0,7.0,158.0,8.0,150.0,9.0,142.0,11.0,134.0,14.0,126.0,10.0,136.0" stroke="black" stroke-width="1" fill="none" />
<polyline points="9.0,130.0,17.0,118.0,25.0,122.0" stroke="black" stroke-width="1" fill="none" />
<polyline points="25.0,159.0,25.0,163.0,25.0,171.0,25.0,179.0,22.0,187.0,21.0,195.0,19.0,203.0,20.0,208.0,28.0,204.0" stroke="black" stroke-width="1" fill="none" />
<polyline points="28.0,193.0,25.0,185.0" stroke="black" stroke-width="1" fill="none" />
<polyline points="22.0,208.0,31.0,200.0,31.0,192.0,28.0,184.0,27.0,176.0,27.0,168.0,28.0,160.0" stroke="black" stroke-width="1" fill="none" />
<polyline points="54.0,167.0,55.0,175.0,55.0,183.0" stroke="black" stroke-width="1" fill="none" />
<polyline points="86.0,164.0,88.0,172.0,93.0,180.0" stroke="black" stroke-width="1" fill="none" />
<polyline points="113.0,198.0,105.0,206.0,104.0,214.0,106.0,222.0,104.0,230.0,103.0,238.0,103.0,246.0,101.0,254.0,101.0,262.0,106.0,255.0,114.0,247.0" stroke="black" stroke-width="1" fill="none" />
<polyline points="132.0,217.0,124.0,211.0,116.0,203.0,108.0,206.0" stroke="black" stroke-width="1" fill="none" />
<polyline points="105.0,205.0,113.0,198.0,121.0,202.0" stroke="black" stroke-width="1" fill="none" />
<polyline points="115.0,203.0,123.0,211.0" stroke="black" stroke-width="1" fill="none" />
<polyline points="112.0,202.0,108.0,210.0,108.0,218.0,110.0,226.0,118.0,234.0,122.0,242.0,121.0,250.0,118.0,258.0,121.0,263.0" stroke="black" stroke-width="1" fill="none" />
<polyline points="144.0,303.0,136.0,320.0,128.0,336.0,120.0,344.0,112.0,347.0,104.0,348.0,96.0,348.0,88.0,350.0,84.0,348.0,76.0,350.0,68.0,352.0,60.0,352.0,52.0,350.0,44.0,348.0,36.0,342.0,28.0,332.0,19.0,318.0,11.0,311.0,3.0,294.0" stroke="black" stroke-width="1" fill="none" />
<polyline points="114.0,199.0,123.0,207.0,133.0,213.0,141.0,218.0,149.0,220.0,157.0,227.0" stroke="black" stroke-width="1" fill="none" />
<polyline points="236.0,165.0,239.0,159.0,237.0,151.0,236.0,143.0,235.0,135.0,234.0,127.0,234.0,119.0,233.0,111.0,234.0,103.0,235.0,95.0,232.0,93.0,224.0,102.0,216.0,112.0,208.0,124.0,200.0,119.0,192.0,112.0,184.0,104.0,176.0,94.0" stroke="black" stroke-width="1" fill="none" />
<polyline points="175.0,93.0,183.0,95.0,191.0,104.0,199.0,113.0,207.0,121.0" stroke="black" stroke-width="1" fill="none" />
<polyline points="211.0,113.0,213.0,105.0,216.0,97.0,218.0,89.0,221.0,81.0,224.0,73.0,228.0,65.0,232.0,57.0,237.0,49.0,242.0,41.0,248.0,33.0,253.0,25.0,251.0,28.0,243.0,39.0,235.0,53.0,227.0,66.0,219.0,84.0" stroke="black" stroke-width="1" fill="none" />
<polyline points="255.0,101.0,253.0,109.0,253.0,117.0,251.0,125.0,251.0,133.0,251.0,141.0,251.0,149.0,250.0,157.0,251.0,165.0,251.0,173.0,252.0,181.0,253.0,189.0" stroke="black" stroke-width="1" fill="none" />
<polyline points="262.0,139.0,254.0,126.0" stroke="black" stroke-width="1" fill="none" />
<polyline points="254.0,126.0,258.0,134.0,264.0,142.0" stroke="black" stroke-width="1" fill="none" />
<polyline points="252.0,171.0,256.0,177.0,246.0,182.0,244.0,177.0,241.0,169.0,234.0,161.0,221.0,154.0,212.0,146.0,213.0,143.0" stroke="black" stroke-width="1" fill="none" />
<polyline points="204.0,124.0,195.0,116.0,185.0,118.0" stroke="black" stroke-width="1" fill="none" />
<polyline points="201.0,116.0,194.0,108.0,186.0,100.0,179.0,92.0" stroke="black" stroke-width="1" fill="none" />
<polyline points="255.0,102.0,257.0,110.0,259.0,118.0,263.0,126.0,266.0,134.0,270.0,142.0,274.0,150.0,278.0,158.0,284.0,166.0,290.0,174.0,297.0,182.0,303.0,190.0,310.0,198.0,318.0,206.0,332.0,198.0,340.0,195.0,348.0,195.0,356.0,198.0,364.0,202.0" stroke="black" stroke-width="1" fill="none" />
<polyline points="356.0,206.0,360.0,214.0,362.0,222.0,361.0,230.0,358.0,238.0,353.0,246.0" stroke="black" stroke-width="1" fill="none" />
<polyline points="347.0,242.0,350.0,238.0,342.0,244.0,334.0,239.0" stroke="black" stroke-width="1" fill="none" />
<polyline points="326.0,236.0,334.0,237.0,342.0,237.0,350.0,235.0" stroke="black" stroke-width="1" fill="none" />
<polyline points="355.0,213.0,355.0,211.0,347.0,209.0" stroke="black" stroke-width="1" fill="none" />
<polyline points="353.0,215.0,348.0,214.0,348.0,206.0,342.0,198.0" stroke="black" stroke-width="1" fill="none" />
<polyline points="338.0,199.0,328.0,207.0,326.0,215.0,324.0,223.0,324.0,231.0,326.0,239.0,330.0,247.0,333.0,249.0,341.0,250.0,349.0,251.0,357.0,239.0" stroke="black" stroke-width="1" fill="none" />
<polyline points="373.0,231.0,374.0,228.0,378.0,220.0,379.0,212.0,377.0,204.0,369.0,196.0,367.0,188.0,363.0,180.0,358.0,172.0,353.0,164.0,349.0,156.0,345.0,161.0,337.0,168.0,329.0,164.0,321.0,170.0,324.0,174.0,327.0,166.0,338.0,163.0,348.0,155.0,342.0,147.0,338.0,139.0,332.0,131.0,326.0,123.0,320.0,115.0,314.0,107.0,308.0,100.0" stroke="black" stroke-width="1" fill="none" />
<polyline points="307.0,99.0,308.0,101.0,311.0,109.0,312.0,117.0,314.0,125.0,314.0,133.0,315.0,141.0,316.0,149.0,315.0,157.0,315.0,165.0,316.0,173.0,318.0,181.0,319.0,189.0,327.0,183.0,335.0,181.0,344.0,180.0,361.0,190.0" stroke="black" stroke-width="1" fill="none" />
<polyline points="367.0,187.0,359.0,174.0,351.0,159.0,343.0,147.0,335.0,134.0,327.0,123.0,319.0,113.0,311.0,102.0" stroke="black" stroke-width="1" fill="none" />
<polyline points="316.0,122.0,323.0,130.0,332.0,138.0" stroke="black" stroke-width="1" fill="none" />
<polyline points="332.0,137.0,324.0,130.0,316.0,122.0" stroke="black" stroke-width="1" fill="none" />
<polyline points="312.0,151.0,310.0,143.0,308.0,135.0,306.0,127.0,304.0,119.0,302.0,111.0,299.0,103.0,297.0,95.0,295.0,87.0,293.0,79.0,290.0,71.0,287.0,63.0,284.0,55.0,282.0,47.0,279.0,39.0,277.0,34.0" stroke="black" stroke-width="1" fill="none" />
<polyline points="277.0,34.0,277.0,42.0,279.0,50.0,281.0,58.0,282.0,66.0,284.0,74.0,287.0,82.0,288.0,90.0,290.0,98.0,293.0,106.0,294.0,114.0,297.0,122.0,299.0,130.0,301.0,138.0,304.0,146.0,306.0,154.0,309.0,162.0,311.0,170.0,314.0,178.0,320.0,174.0,323.0,175.0,332.0,169.0,340.0,162.0" stroke="black" stroke-width="1" fill="none" />
<polyline points="332.0,165.0,322.0,173.0,326.0,176.0" stroke="black" stroke-width="1" fill="none" />
<polyline points="331.0,178.0,321.0,186.0,328.0,179.0,336.0,177.0,344.0,177.0" stroke="black" stroke-width="1" fill="none" />
<polyline points="335.0,184.0,328.0,192.0,326.0,200.0" stroke="black" stroke-width="1" fill="none" />
<polyline points="327.0,204.0,336.0,196.0" stroke="black" stroke-width="1" fill="none" />
<polyline points="352.0,196.0,364.0,204.0,370.0,212.0,371.0,220.0,371.0,228.0" stroke="black" stroke-width="1" fill="none" />
<polyline points="368.0,219.0,363.0,211.0" stroke="black" stroke-width="1" fill="none" />
<polyline points="381.0,211.0,384.0,219.0,384.0,227.0,385.0,235.0,385.0,243.0,385.0,251.0,386.0,259.0,386.0,267.0,384.0,275.0,380.0,283.0,377.0,291.0,374.0,299.0,370.0,307.0,365.0,315.0,359.0,323.0,350.0,331.0,337.0,339.0,319.0,347.0,312.0,353.0,301.0,355.0,297.0,365.0,284.0,373.0,282.0,381.0,289.0,389.0,296.0,397.0,299.0,405.0,289.0,406.0,288.0,415.0,283.0,418.0,278.0,422.0,287.0,416.0,289.0,406.0,297.0,409.0,305.0,407.0,313.0,414.0,321.0,420.0" stroke="black" stroke-width="1" fill="none" />
<polyline points="473.0,354.0,476.0,346.0,478.0,338.0,479.0,330.0,480.0,322.0,480.0,314.0,479.0,306.0,478.0,298.0" stroke="black" stroke-width="1" fill="none" />
<polyline points="477.0,287.0,478.0,295.0,476.0,303.0,476.0,311.0,476.0,319.0,475.0,327.0,475.0,335.0,473.0,343.0,471.0,351.0,470.0,353.0" stroke="black" stroke-width="1" fill="none" />
<polyline points="448.0,342.0,440.0,351.0,446.0,344.0,451.0,336.0,455.0,328.0,457.0,320.0,458.0,312.0,458.0,304.0,458.0,296.0,458.0,288.0,456.0,280.0,454.0,272.0,453.0,264.0" stroke="black" stroke-width="1" fill="none" />
<polyline points="450.0,247.0,450.0,255.0,450.0,263.0,451.0,271.0,451.0,279.0,451.0,287.0,451.0,295.0,450.0,303.0,449.0,311.0,447.0,319.0,445.0,327.0" stroke="black" stroke-width="1" fill="none" />
<polyline points="427.0,226.0,419.0,214.0,411.0,203.0" stroke="black" stroke-width="1" fill="none" />
<polyline points="409.0,221.0,406.0,229.0,403.0,237.0,399.0,245.0,397.0,253.0" stroke="black" stroke-width="1" fill="none" />
<polyline points="411.0,223.0,412.0,231.0,415.0,239.0,416.0,247.0,418.0,255.0,419.0,263.0,420.0,271.0,421.0,279.0,421.0,287.0" stroke="black" stroke-width="1" fill="none" />
<polyline points="467.0,212.0,475.0,217.0,483.0,221.0,491.0,223.0,499.0,227.0,507.0,227.0" stroke="black" stroke-width="1" fill="none" />
<polyline points="496.0,226.0,477.0,218.0" stroke="black" stroke-width="1" fill="none" />
<polyline points="465.0,203.0,466.0,211.0,468.0,219.0,468.0,227.0,468.0,235.0,469.0,243.0,470.0,251.0,472.0,259.0,473.0,267.0,474.0,275.0,476.0,283.0,474.0,291.0,473.0,299.0,473.0,307.0,472.0,315.0,471.0,323.0,469.0,331.0,467.0,339.0,464.0,347.0,461.0,355.0,457.0,363.0,452.0,371.0,454.0,368.0,462.0,354.0" stroke="black" stroke-width="1" fill="none" />
<polyline points="467.0,168.0,459.0,154.0,451.0,139.0" stroke="black" stroke-width="1" fill="none" />
<polyline points="453.0,139.0,457.0,147.0,462.0,155.0,467.0,163.0,470.0,171.0,473.0,179.0" stroke="black" stroke-width="1" fill="none" />
<polyline points="470.0,178.0,467.0,170.0,463.0,162.0,458.0,154.0,454.0,146.0,453.0,138.0,446.0,132.0" stroke="black" stroke-width="1" fill="none" />
<polyline points="408.0,172.0,405.0,180.0,404.0,188.0,404.0,196.0,403.0,204.0,403.0,212.0,402.0,220.0,401.0,228.0,399.0,236.0,397.0,244.0,394.0,252.0,395.0,249.0,404.0,233.0" stroke="black" stroke-width="1" fill="none" />
<polyline points="359.0,211.0,351.0,202.0,343.0,199.0,335.0,201.0,322.0,205.0,321.0,197.0,322.0,189.0,330.0,181.0" stroke="black" stroke-width="1" fill="none" />
<polyline points="377.0,125.0,369.0,108.0,361.0,95.0,353.0,84.0,345.0,74.0" stroke="black" stroke-width="1" fill="none" />
<polyline points="345.0,69.0,351.0,77.0,357.0,85.0,362.0,93.0,367.0,101.0,373.0,103.0,375.0,111.0,378.0,119.0,381.0,127.0" stroke="black" stroke-width="1" fill="none" />
<polyline points="367.0,100.0,359.0,88.0,351.0,76.0,343.0,69.0" stroke="black" stroke-width="1" fill="none" />
<polyline points="343.0,69.0,347.0,77.0,353.0,85.0,359.0,93.0,364.0,101.0,369.0,109.0,374.0,117.0,377.0,125.0,379.0,133.0" stroke="black" stroke-width="1" fill="none" />
<polyline points="408.0,174.0,409.0,182.0,410.0,190.0,410.0,198.0,413.0,206.0,418.0,214.0,423.0,222.0,429.0,230.0" stroke="black" stroke-width="1" fill="none" />
<polyline points="291.0,72.0,283.0,52.0" stroke="black" stroke-width="1" fill="none" />
<polyline points="259.0,90.0,260.0,98.0,263.0,106.0,260.0,118.0,268.0,137.0,276.0,153.0,284.0,165.0,292.0,175.0,300.0,186.0,308.0,195.0,316.0,204.0,327.0,195.0,335.0,184.0,343.0,183.0,351.0,184.0,359.0,188.0,367.0,193.0,374.0,199.0,382.0,212.0" stroke="black" stroke-width="1" fill="none" />
<polyline points="101.0,76.0,93.0,65.0,80.0,63.0,72.0,53.0,64.0,54.0,56.0,66.0" stroke="black" stroke-width="1" fill="none" />
<polyline points="60.0,64.0,68.0,55.0,76.0,61.0" stroke="black" stroke-width="1" fill="none" />
<polyline points="71.0,56.0,77.0,64.0,79.0,72.0" stroke="black" stroke-width="1" fill="none" />
<polyline points="84.0,81.0,86.0,73.0,90.0,65.0" stroke="black" stroke-width="1" fill="none" />
<polyline points="90.0,62.0,84.0,70.0,89.0,63.0,97.0,63.0" stroke="black" stroke-width="1" fill="none" />
<polyline points="95.0,63.0,99.0,71.0,101.0,79.0,103.0,87.0,105.0,95.0,105.0,103.0,107.0,111.0,108.0,119.0,109.0,127.0,111.0,135.0" stroke="black" stroke-width="1" fill="none" />
<polyline points="84.0,106.0,84.0,98.0" stroke="black" stroke-width="1" fill="none" />
<polyline points="82.0,98.0,81.0,106.0" stroke="black" stroke-width="1" fill="none" />
<polyline points="99.0,66.0,103.0,74.0,105.0,82.0,107.0,90.0,108.0,98.0,109.0,106.0,110.0,114.0,111.0,122.0,113.0,130.0,114.0,138.0" stroke="black" stroke-width="1" fill="none" />
<polyline points="25.0,137.0,25.0,129.0,24.0,122.0,26.0,117.0,28.0,109.0,28.0,101.0,30.0,93.0,32.0,85.0,36.0,77.0,44.0,69.0" stroke="black" stroke-width="1" fill="none" />
<polyline points="56.0,87.0,57.0,79.0,59.0,71.0,61.0,63.0,68.0,55.0" stroke="black" stroke-width="1" fill="none" />
<polyline points="69.0,52.0,59.0,60.0,56.0,68.0,52.0,74.0" stroke="black" stroke-width="1" fill="none" />
<polyline points="71.0,53.0,79.0,61.0,81.0,69.0,82.0,79.0" stroke="black" stroke-width="1" fill="none" />
</svg>