<svg xmlns="http://www.w3.org/2000/svg" height="531px" width="393px" version="1.1"><polyline points="219.0,61.5,216.0,73.5,219.0,64.5" stroke="black" stroke-width="1" fill="none" />
<polyline points="198.0,63.0,213.0,52.5,211.5,64.5,207.0,69.0,205.5,79.5,207.0,85.5,198.0,97.5,190.5,102.0,180.0,109.5,171.0,115.5,174.0,120.0,180.0,108.0,192.0,106.5,195.0,109.5" stroke="black" stroke-width="1" fill="none" />
<polyline points="183.0,135.0,171.0,133.5" stroke="black" stroke-width="1" fill="none" />
<polyline points="166.5,142.5,178.5,142.5,190.5,139.5,187.5,151.5,190.5,160.5,183.0,169.5,172.5,174.0,178.5,175.5,178.5,183.0,166.5,202.5,169.5,208.5,172.5,220.5,166.5,232.5,165.0,243.0,165.0,252.0,177.0,252.0,189.0,252.0,195.0,262.5,205.5,276.0,217.5,300.0" stroke="black" stroke-width="1" fill="none" />
<polyline points="211.5,288.0,211.5,300.0,217.5,300.0,214.5,312.0,210.0,315.0,232.5,327.0,225.0,339.0,222.0,351.0,217.5,351.0,213.0,352.5" stroke="black" stroke-width="1" fill="none" />
<polyline points="226.5,364.5,238.5,376.5,231.0,391.5,226.5,399.0" stroke="black" stroke-width="1" fill="none" />
<polyline points="222.0,417.0,234.0,423.0,246.0,429.0,256.5,430.5,267.0,433.5,279.0,439.5,258.0,456.0,265.5,456.0,277.5,454.5,289.5,453.0" stroke="black" stroke-width="1" fill="none" />
<polyline points="291.0,454.5,295.5,441.0,292.5,429.0" stroke="black" stroke-width="1" fill="none" />
<polyline points="315.0,430.5,325.5,448.5,328.5,460.5,342.0,462.0,336.0,474.0,333.0,486.0,328.5,490.5,328.5,498.0,333.0,496.5,334.5,499.5,346.5,502.5,348.0,505.5,363.0,504.0,372.0,502.5,384.0,510.0" stroke="black" stroke-width="1" fill="none" />
<polyline points="379.5,522.0,367.5,526.5,364.5,525.0,349.5,528.0,343.5,516.0,360.0,504.0,363.0,505.5,354.0,499.5,372.0,496.5,367.5,484.5,352.5,478.5,351.0,477.0,345.0,475.5,333.0,475.5" stroke="black" stroke-width="1" fill="none" />
<polyline points="310.5,466.5,298.5,466.5,298.5,460.5,286.5,462.0,279.0,463.5,267.0,463.5,255.0,465.0,259.5,451.5,247.5,459.0,238.5,445.5,237.0,447.0,228.0,438.0,231.0,424.5,243.0,405.0,240.0,393.0,240.0,381.0,235.5,375.0,228.0,379.5,222.0,364.5,216.0,358.5,205.5,364.5,193.5,360.0,187.5,360.0,178.5,384.0,178.5,387.0,166.5,384.0,154.5,379.5,142.5,375.0,130.5,370.5,118.5,366.0,114.0,364.5,115.5,351.0,118.5,339.0,123.0,327.0,124.5,312.0,117.0,304.5,91.5,298.5,67.5,292.5,73.5,280.5,70.5,271.5,58.5,289.5,45.0,280.5,51.0,282.0,39.0,274.5,19.5,267.0,10.5,258.0,18.0,246.0,0.0,259.5" stroke="black" stroke-width="1" fill="none" />
<polyline points="0.0,265.5,12.0,250.5,34.5,252.0,64.5,264.0,67.5,276.0,61.5,288.0,64.5,300.0,76.5,306.0,88.5,310.5,100.5,315.0,112.5,319.5,124.5,324.0,130.5,318.0,148.5,295.5,160.5,300.0,172.5,304.5,184.5,309.0,196.5,313.5,207.0,318.0" stroke="black" stroke-width="1" fill="none" />
<polyline points="208.5,318.0,220.5,309.0,222.0,319.5" stroke="black" stroke-width="1" fill="none" />
<polyline points="211.5,319.5,223.5,324.0,235.5,328.5,247.5,333.0,259.5,337.5,271.5,342.0,283.5,346.5,295.5,351.0,307.5,355.5,319.5,354.0" stroke="black" stroke-width="1" fill="none" />
<polyline points="310.5,351.0,298.5,346.5,286.5,342.0,274.5,337.5,262.5,333.0,250.5,328.5,238.5,325.5,226.5,309.0,214.5,282.0,202.5,252.0" stroke="black" stroke-width="1" fill="none" />
<polyline points="205.5,223.5,189.0,237.0,184.5,228.0,172.5,229.5,165.0,228.0,159.0,225.0,151.5,217.5,136.5,211.5,124.5,211.5,124.5,216.0,126.0,202.5,117.0,186.0,123.0,174.0,132.0,165.0,132.0,151.5,144.0,135.0,157.5,126.0,165.0,112.5,171.0,109.5,174.0,96.0,177.0,82.5,183.0,67.5,202.5,66.0,204.0,54.0,186.0,48.0" stroke="black" stroke-width="1" fill="none" />
<polyline points="184.5,45.0,196.5,39.0,205.5,46.5,217.5,46.5" stroke="black" stroke-width="1" fill="none" />
<polyline points="183.0,55.5,189.0,60.0,193.5,72.0,199.5,76.5,193.5,96.0,201.0,103.5,198.0,117.0,196.5,123.0,193.5,136.5,190.5,136.5,168.0,145.5,177.0,157.5,178.5,150.0,187.5,148.5,192.0,147.0" stroke="black" stroke-width="1" fill="none" />
<polyline points="187.5,178.5,175.5,180.0" stroke="black" stroke-width="1" fill="none" />
<polyline points="184.5,201.0,183.0,213.0" stroke="black" stroke-width="1" fill="none" />
<polyline points="202.5,205.5,198.0,217.5,195.0,231.0,193.5,243.0,190.5,261.0,195.0,273.0,190.5,285.0,180.0,289.5,184.5,279.0,196.5,280.5" stroke="black" stroke-width="1" fill="none" />
<polyline points="199.5,300.0,186.0,298.5,184.5,286.5,183.0,283.5,171.0,273.0,168.0,279.0,165.0,291.0,157.5,283.5,154.5,294.0,142.5,292.5,130.5,289.5,118.5,283.5,106.5,279.0,94.5,274.5,82.5,271.5,70.5,286.5,72.0,292.5,78.0,280.5,72.0,276.0,57.0,282.0,45.0,276.0,33.0,271.5,21.0,267.0,19.5,274.5,7.5,268.5,0.0,276.0,10.5,264.0,19.5,252.0,4.5,240.0" stroke="black" stroke-width="1" fill="none" />
<polyline points="0.0,238.5,6.0,229.5,18.0,223.5,30.0,217.5,42.0,213.0,54.0,205.5,66.0,199.5,78.0,204.0,90.0,208.5,102.0,214.5,114.0,217.5,126.0,220.5" stroke="black" stroke-width="1" fill="none" />
<polyline points="138.0,228.0,138.0,240.0,130.5,252.0,127.5,262.5,123.0,274.5,138.0,291.0,136.5,303.0,132.0,315.0,144.0,324.0,145.5,322.5,157.5,327.0" stroke="black" stroke-width="1" fill="none" />
<polyline points="163.5,327.0,175.5,334.5,187.5,339.0" stroke="black" stroke-width="1" fill="none" />
<polyline points="172.5,351.0,160.5,343.5" stroke="black" stroke-width="1" fill="none" />
<polyline points="160.5,340.5,157.5,351.0,175.5,358.5,175.5,370.5,177.0,382.5,177.0,397.5,183.0,403.5,195.0,409.5" stroke="black" stroke-width="1" fill="none" />
<polyline points="190.5,405.0,202.5,414.0" stroke="black" stroke-width="1" fill="none" />
<polyline points="184.5,424.5,187.5,442.5,186.0,451.5,174.0,462.0,189.0,471.0,199.5,475.5,214.5,492.0,226.5,496.5,234.0,501.0,240.0,495.0,247.5,516.0,256.5,523.5,267.0,525.0,280.5,525.0,292.5,523.5" stroke="black" stroke-width="1" fill="none" />
<polyline points="301.5,528.0,295.5,516.0,298.5,514.5" stroke="black" stroke-width="1" fill="none" />
<polyline points="310.5,513.0,307.5,525.0" stroke="black" stroke-width="1" fill="none" />
<polyline points="333.0,510.0,316.5,501.0,304.5,501.0,303.0,492.0,294.0,487.5,282.0,487.5,270.0,492.0,258.0,478.5" stroke="black" stroke-width="1" fill="none" />
<polyline points="241.5,453.0,244.5,459.0,241.5,465.0,240.0,469.5,244.5,481.5,264.0,483.0,258.0,492.0,262.5,498.0,258.0,505.5,268.5,514.5" stroke="black" stroke-width="1" fill="none" />
<polyline points="234.0,528.0,241.5,523.5,228.0,525.0,228.0,529.5" stroke="black" stroke-width="1" fill="none" />
<polyline points="238.5,510.0,228.0,519.0,223.5,528.0,223.5,519.0,234.0,516.0,219.0,511.5,207.0,516.0" stroke="black" stroke-width="1" fill="none" />
<polyline points="198.0,463.5,186.0,466.5" stroke="black" stroke-width="1" fill="none" />
<polyline points="186.0,447.0,198.0,454.5,210.0,451.5" stroke="black" stroke-width="1" fill="none" />
<polyline points="234.0,426.0,246.0,427.5" stroke="black" stroke-width="1" fill="none" />
<polyline points="265.5,406.5,277.5,417.0,289.5,420.0" stroke="black" stroke-width="1" fill="none" />
<polyline points="309.0,429.0,306.0,418.5,304.5,406.5,310.5,400.5,298.5,397.5,286.5,397.5" stroke="black" stroke-width="1" fill="none" />
<polyline points="256.5,388.5,256.5,384.0,268.5,387.0,273.0,390.0,271.5,402.0,267.0,409.5,273.0,427.5,279.0,439.5,286.5,451.5,286.5,463.5,273.0,469.5,280.5,469.5,285.0,483.0,291.0,489.0,280.5,493.5,301.5,499.5,322.5,511.5" stroke="black" stroke-width="1" fill="none" />
<polyline points="324.0,514.5,316.5,511.5,304.5,505.5,292.5,504.0,285.0,502.5,273.0,493.5,261.0,490.5,250.5,489.0,238.5,481.5,232.5,486.0,220.5,474.0,219.0,484.5,207.0,487.5,195.0,478.5,183.0,471.0,177.0,460.5,165.0,459.0,153.0,451.5" stroke="black" stroke-width="1" fill="none" />
<polyline points="159.0,441.0,165.0,435.0,177.0,438.0,183.0,424.5,178.5,436.5" stroke="black" stroke-width="1" fill="none" />
<polyline points="166.5,420.0,151.5,432.0,171.0,444.0,163.5,453.0,166.5,456.0,178.5,451.5,187.5,453.0,187.5,460.5,198.0,469.5,214.5,457.5,226.5,459.0,243.0,462.0,244.5,469.5,247.5,469.5,259.5,472.5,271.5,471.0,276.0,480.0,288.0,480.0,301.5,486.0,313.5,489.0,313.5,495.0,319.5,504.0,327.0,499.5,333.0,484.5,345.0,481.5,357.0,480.0" stroke="black" stroke-width="1" fill="none" />
<polyline points="360.0,486.0,355.5,493.5,342.0,495.0,348.0,486.0" stroke="black" stroke-width="1" fill="none" />
<polyline points="369.0,525.0,366.0,517.5,373.5,511.5,378.0,499.5,366.0,501.0,361.5,490.5,352.5,483.0,349.5,469.5,336.0,472.5,333.0,468.0,325.5,471.0,322.5,468.0,322.5,484.5,318.0,481.5,306.0,478.5,298.5,475.5,294.0,477.0,282.0,469.5,274.5,448.5,273.0,444.0,261.0,448.5,258.0,448.5,250.5,444.0,238.5,451.5,228.0,454.5,228.0,447.0,219.0,429.0,207.0,430.5,201.0,424.5,189.0,421.5,177.0,421.5,165.0,423.0,153.0,426.0,145.5,436.5,133.5,435.0,121.5,433.5,117.0,430.5,105.0,439.5,84.0,421.5,64.5,412.5,40.5,400.5,24.0,379.5,24.0,369.0,28.5,358.5,39.0,346.5,49.5,334.5,45.0,328.5,49.5,316.5,57.0,304.5,42.0,292.5,19.5,283.5,1.5,265.5,10.5,253.5,9.0,249.0,1.5,234.0,21.0,222.0,37.5,217.5,54.0,205.5,60.0,195.0" stroke="black" stroke-width="1" fill="none" />
<polyline points="69.0,195.0,81.0,193.5,88.5,199.5" stroke="black" stroke-width="1" fill="none" />
<polyline points="96.0,202.5,85.5,184.5,73.5,181.5,52.5,174.0,48.0,172.5,36.0,169.5" stroke="black" stroke-width="1" fill="none" />
<polyline points="24.0,151.5,36.0,144.0,48.0,144.0,60.0,150.0,61.5,156.0,43.5,171.0,51.0,183.0,36.0,192.0,43.5,201.0,42.0,204.0,46.5,190.5,61.5,183.0,70.5,184.5,72.0,189.0,84.0,190.5,96.0,190.5,108.0,193.5,120.0,199.5,132.0,204.0" stroke="black" stroke-width="1" fill="none" />
<polyline points="148.5,195.0,145.5,207.0,148.5,223.5,148.5,238.5,159.0,240.0,165.0,238.5,180.0,256.5,189.0,244.5,199.5,246.0,211.5,226.5" stroke="black" stroke-width="1" fill="none" />
<polyline points="213.0,222.0,201.0,204.0,193.5,196.5,180.0,204.0,175.5,207.0,175.5,195.0,165.0,183.0,165.0,172.5,150.0,175.5,145.5,171.0,145.5,163.5,150.0,150.0,159.0,147.0,160.5,135.0,165.0,123.0,165.0,121.5" stroke="black" stroke-width="1" fill="none" />
<polyline points="151.5,102.0,163.5,105.0,180.0,102.0" stroke="black" stroke-width="1" fill="none" />
<polyline points="171.0,78.0,183.0,79.5,186.0,63.0,198.0,58.5,207.0,54.0" stroke="black" stroke-width="1" fill="none" />
<polyline points="190.5,150.0,178.5,163.5,166.5,160.5,162.0,150.0,147.0,168.0,135.0,168.0" stroke="black" stroke-width="1" fill="none" />
<polyline points="139.5,180.0,132.0,192.0" stroke="black" stroke-width="1" fill="none" />
<polyline points="138.0,183.0,136.5,195.0,139.5,207.0,144.0,217.5,145.5,229.5,144.0,241.5,151.5,241.5,144.0,261.0,145.5,273.0,147.0,288.0,154.5,289.5,172.5,292.5,178.5,307.5,193.5,319.5,190.5,331.5,184.5,346.5,195.0,348.0,202.5,345.0,214.5,349.5,229.5,354.0,241.5,358.5,258.0,361.5,270.0,369.0" stroke="black" stroke-width="1" fill="none" />
<polyline points="286.5,351.0,285.0,363.0,286.5,375.0,318.0,390.0" stroke="black" stroke-width="1" fill="none" />
<polyline points="316.5,372.0,318.0,364.5,295.5,351.0" stroke="black" stroke-width="1" fill="none" />
<polyline points="288.0,364.5,289.5,352.5,267.0,340.5" stroke="black" stroke-width="1" fill="none" />
<polyline points="264.0,340.5,262.5,352.5,261.0,364.5,276.0,370.5,280.5,373.5,291.0,385.5,300.0,388.5,309.0,391.5,313.5,393.0,316.5,399.0,322.5,390.0" stroke="black" stroke-width="1" fill="none" />
<polyline points="319.5,450.0,322.5,462.0,304.5,483.0" stroke="black" stroke-width="1" fill="none" />
<polyline points="391.5,523.5,391.5,525.0,388.5,525.0,381.0,520.5,385.5,511.5,381.0,502.5,370.5,487.5,358.5,487.5,355.5,498.0,354.0,508.5,342.0,519.0,336.0,525.0,324.0,520.5,312.0,517.5,306.0,511.5,294.0,511.5,286.5,511.5,274.5,516.0,262.5,519.0,258.0,514.5,255.0,508.5,258.0,511.5,244.5,510.0,246.0,498.0,240.0,495.0,225.0,490.5,217.5,486.0,220.5,474.0,234.0,469.5,229.5,457.5,226.5,454.5,226.5,442.5,222.0,429.0,222.0,417.0,222.0,408.0,213.0,414.0,223.5,400.5,217.5,387.0,219.0,375.0,223.5,363.0,213.0,357.0,192.0,340.5,195.0,328.5,198.0,316.5,204.0,303.0,192.0,298.5,205.5,289.5,208.5,282.0,202.5,268.5,198.0,256.5,199.5,247.5,187.5,241.5,186.0,232.5,189.0,211.5,181.5,223.5,171.0,219.0,159.0,214.5,147.0,211.5,132.0,226.5,117.0,220.5,118.5,208.5,105.0,205.5,102.0,204.0,97.5,201.0,82.5,190.5,87.0,186.0,67.5,175.5,69.0,169.5,73.5,157.5,78.0,144.0,97.5,132.0,114.0,120.0,129.0,108.0,142.5,96.0,154.5,84.0,166.5,72.0,175.5,69.0,183.0,57.0,184.5,45.0,195.0,40.5,190.5,48.0,181.5,54.0,169.5,69.0,157.5,81.0,145.5,93.0,133.5,105.0,121.5,114.0,109.5,124.5,97.5,132.0,85.5,141.0,73.5,147.0,61.5,150.0,49.5,145.5" stroke="black" stroke-width="1" fill="none" />
<polyline points="46.5,148.5,45.0,160.5,42.0,180.0" stroke="black" stroke-width="1" fill="none" />
<polyline points="30.0,205.5,18.0,205.5,9.0,210.0,1.5,219.0,16.5,208.5,27.0,201.0,13.5,199.5" stroke="black" stroke-width="1" fill="none" />
<polyline points="6.0,199.5,6.0,211.5,9.0,199.5,15.0,192.0" stroke="black" stroke-width="1" fill="none" />
<polyline points="13.5,178.5,25.5,184.5,37.5,187.5" stroke="black" stroke-width="1" fill="none" />
<polyline points="49.5,214.5,40.5,228.0,28.5,226.5" stroke="black" stroke-width="1" fill="none" />
<polyline points="28.5,222.0,42.0,226.5,30.0,231.0,25.5,238.5,28.5,244.5,58.5,256.5,75.0,271.5,69.0,283.5,63.0,300.0,84.0,300.0,90.0,318.0,84.0,330.0,78.0,342.0,88.5,360.0,106.5,361.5,114.0,364.5,126.0,376.5,144.0,379.5,139.5,391.5,139.5,399.0,163.5,409.5,172.5,411.0,183.0,414.0,196.5,426.0,204.0,426.0,210.0,427.5,217.5,445.5,211.5,459.0,214.5,471.0,207.0,472.5,201.0,477.0,205.5,474.0,213.0,469.5,219.0,468.0,231.0,472.5,240.0,478.5,252.0,486.0,247.5,501.0,256.5,504.0,259.5,492.0,267.0,504.0,270.0,508.5,283.5,507.0,286.5,517.5,292.5,528.0" stroke="black" stroke-width="1" fill="none" />
<polyline points="160.5,484.5,144.0,495.0,132.0,505.5,133.5,502.5,136.5,492.0,148.5,490.5,147.0,486.0,135.0,495.0" stroke="black" stroke-width="1" fill="none" />
<polyline points="139.5,498.0,133.5,510.0" stroke="black" stroke-width="1" fill="none" />
<polyline points="105.0,469.5,93.0,474.0" stroke="black" stroke-width="1" fill="none" />
<polyline points="93.0,474.0,94.5,486.0,97.5,483.0" stroke="black" stroke-width="1" fill="none" />
<polyline points="82.5,462.0,70.5,477.0,58.5,474.0" stroke="black" stroke-width="1" fill="none" />
<polyline points="63.0,460.5,51.0,459.0" stroke="black" stroke-width="1" fill="none" />
<polyline points="63.0,445.5,51.0,436.5" stroke="black" stroke-width="1" fill="none" />
<polyline points="49.5,426.0,54.0,414.0,48.0,421.5,54.0,441.0,49.5,457.5,48.0,466.5,39.0,481.5,36.0,487.5,46.5,499.5,37.5,517.5,27.0,519.0,34.5,528.0,46.5,528.0,51.0,517.5" stroke="black" stroke-width="1" fill="none" />
<polyline points="64.5,498.0,63.0,508.5,52.5,505.5,52.5,495.0,54.0,486.0,58.5,475.5,66.0,463.5,81.0,459.0,73.5,457.5,64.5,465.0,63.0,469.5,49.5,471.0,42.0,468.0,40.5,457.5,37.5,463.5,42.0,450.0,39.0,438.0,36.0,441.0" stroke="black" stroke-width="1" fill="none" />
<polyline points="18.0,460.5,25.5,460.5,15.0,462.0,7.5,474.0,13.5,487.5,28.5,489.0,40.5,489.0,52.5,489.0" stroke="black" stroke-width="1" fill="none" />
<polyline points="34.5,454.5,22.5,451.5,16.5,462.0,15.0,456.0,3.0,456.0" stroke="black" stroke-width="1" fill="none" />
<polyline points="0.0,478.5,12.0,472.5,16.5,465.0,19.5,474.0,40.5,478.5,52.5,484.5" stroke="black" stroke-width="1" fill="none" />
<polyline points="33.0,525.0,27.0,526.5,1.5,514.5,0.0,514.5" stroke="black" stroke-width="1" fill="none" />
<polyline points="0.0,504.0,12.0,510.0,15.0,520.5" stroke="black" stroke-width="1" fill="none" />
<polyline points="43.5,520.5,37.5,511.5,24.0,499.5,1.5,487.5" stroke="black" stroke-width="1" fill="none" />
<polyline points="0.0,487.5,12.0,492.0,24.0,498.0,36.0,504.0,48.0,510.0,60.0,510.0" stroke="black" stroke-width="1" fill="none" />
<polyline points="66.0,510.0,54.0,498.0,42.0,501.0,30.0,495.0,12.0,486.0,0.0,481.5" stroke="black" stroke-width="1" fill="none" />
<polyline points="0.0,432.0,12.0,432.0,18.0,444.0,30.0,444.0,31.5,457.5,51.0,448.5,60.0,454.5" stroke="black" stroke-width="1" fill="none" />
<polyline points="93.0,426.0,81.0,420.0,69.0,414.0,57.0,406.5,45.0,402.0,33.0,396.0,21.0,391.5,9.0,385.5,7.5,388.5,4.5,393.0" stroke="black" stroke-width="1" fill="none" />
<polyline points="7.5,376.5,19.5,381.0,31.5,381.0,36.0,379.5,48.0,378.0,60.0,382.5,76.5,376.5,79.5,385.5,79.5,379.5,85.5,372.0,96.0,382.5" stroke="black" stroke-width="1" fill="none" />
<polyline points="100.5,375.0,88.5,376.5,85.5,376.5,93.0,364.5" stroke="black" stroke-width="1" fill="none" />
<polyline points="84.0,342.0,67.5,346.5,55.5,342.0,43.5,337.5,30.0,336.0,18.0,331.5,6.0,330.0,3.0,337.5" stroke="black" stroke-width="1" fill="none" />
<polyline points="1.5,339.0,13.5,343.5,16.5,339.0" stroke="black" stroke-width="1" fill="none" />
<polyline points="10.5,346.5,22.5,348.0" stroke="black" stroke-width="1" fill="none" />
<polyline points="27.0,360.0,39.0,354.0,46.5,360.0,51.0,361.5,63.0,363.0,79.5,369.0,93.0,363.0,105.0,364.5,108.0,369.0,121.5,376.5,133.5,375.0" stroke="black" stroke-width="1" fill="none" />
<polyline points="151.5,393.0,165.0,396.0,177.0,414.0,196.5,420.0" stroke="black" stroke-width="1" fill="none" />
<polyline points="150.0,421.5,153.0,420.0,141.0,421.5,136.5,424.5,121.5,429.0,112.5,420.0,121.5,403.5,105.0,403.5,97.5,385.5,108.0,384.0,111.0,376.5,121.5,358.5,124.5,340.5,126.0,319.5,132.0,307.5,136.5,295.5,139.5,279.0,138.0,267.0,138.0,259.5,138.0,247.5,130.5,250.5" stroke="black" stroke-width="1" fill="none" />
<polyline points="130.5,264.0,130.5,264.0,132.0,276.0" stroke="black" stroke-width="1" fill="none" />
<polyline points="132.0,297.0,120.0,285.0,87.0,273.0,69.0,261.0,57.0,255.0,45.0,249.0" stroke="black" stroke-width="1" fill="none" />
<polyline points="67.5,252.0,79.5,255.0" stroke="black" stroke-width="1" fill="none" />
<polyline points="72.0,291.0,81.0,291.0,93.0,295.5,105.0,300.0,105.0,307.5,117.0,304.5,129.0,301.5" stroke="black" stroke-width="1" fill="none" />
<polyline points="144.0,294.0,139.5,306.0,135.0,318.0,135.0,328.5,141.0,330.0,153.0,334.5,153.0,330.0,160.5,354.0,175.5,358.5" stroke="black" stroke-width="1" fill="none" />
<polyline points="196.5,336.0,199.5,324.0,199.5,304.5,184.5,304.5,181.5,292.5,177.0,280.5,181.5,264.0,177.0,259.5,168.0,258.0,156.0,256.5,144.0,253.5" stroke="black" stroke-width="1" fill="none" />
<polyline points="154.5,252.0,166.5,249.0,178.5,244.5" stroke="black" stroke-width="1" fill="none" />
<polyline points="180.0,234.0,168.0,243.0,169.5,241.5,171.0,232.5,192.0,223.5,195.0,211.5,189.0,199.5,186.0,189.0,181.5,186.0,183.0,183.0,181.5,196.5,169.5,192.0,168.0,183.0,156.0,186.0,154.5,180.0,142.5,181.5,130.5,177.0,114.0,190.5,108.0,184.5,105.0,181.5,111.0,165.0,123.0,153.0,136.5,142.5,126.0,136.5,117.0,129.0,121.5,120.0,132.0,117.0,144.0,112.5,142.5,100.5,145.5,106.5,136.5,108.0,124.5,115.5" stroke="black" stroke-width="1" fill="none" />
<polyline points="132.0,117.0,144.0,111.0,150.0,99.0,156.0,96.0,168.0,93.0,180.0,84.0,190.5,84.0,196.5,69.0,208.5,63.0,208.5,60.0" stroke="black" stroke-width="1" fill="none" />
<polyline points="133.5,135.0,121.5,133.5" stroke="black" stroke-width="1" fill="none" />
<polyline points="111.0,127.5,123.0,118.5,123.0,126.0,135.0,126.0,139.5,123.0" stroke="black" stroke-width="1" fill="none" />
<polyline points="91.5,148.5,103.5,147.0,109.5,138.0,121.5,142.5,127.5,150.0,135.0,139.5,148.5,126.0,154.5,114.0,159.0,117.0,162.0,100.5,168.0,97.5,174.0,93.0,178.5,90.0,186.0,93.0,198.0,91.5,199.5,85.5,201.0,82.5,204.0,70.5,219.0,61.5" stroke="black" stroke-width="1" fill="none" />
<polyline points="145.5,145.5,133.5,148.5,121.5,145.5,109.5,150.0,109.5,157.5,97.5,156.0,96.0,153.0,84.0,151.5" stroke="black" stroke-width="1" fill="none" />
<polyline points="82.5,147.0,94.5,144.0,102.0,135.0,109.5,135.0,121.5,130.5,133.5,129.0,141.0,135.0,153.0,132.0,165.0,129.0,177.0,126.0,189.0,126.0,189.0,118.5" stroke="black" stroke-width="1" fill="none" />
<polyline points="147.0,183.0,145.5,195.0,151.5,199.5,157.5,219.0,160.5,231.0,157.5,243.0,160.5,258.0,177.0,262.5,174.0,268.5,168.0,274.5,163.5,291.0,166.5,298.5,169.5,286.5,177.0,292.5,184.5,304.5,189.0,295.5,195.0,289.5,190.5,291.0,202.5,286.5" stroke="black" stroke-width="1" fill="none" />
<polyline points="204.0,319.5,201.0,331.5,198.0,343.5,192.0,360.0,207.0,372.0,207.0,378.0,208.5,390.0,210.0,408.0,228.0,408.0,244.5,406.5,259.5,421.5,271.5,426.0,283.5,426.0,295.5,429.0,297.0,433.5,301.5,447.0,313.5,447.0,325.5,448.5" stroke="black" stroke-width="1" fill="none" />
<polyline points="321.0,523.5,319.5,528.0,325.5,528.0,303.0,525.0,288.0,513.0,288.0,496.5,271.5,493.5,279.0,486.0,264.0,474.0,258.0,462.0,240.0,450.0,243.0,444.0,259.5,436.5,255.0,427.5,261.0,420.0,255.0,411.0,250.5,399.0,252.0,387.0,253.5,375.0,229.5,363.0" stroke="black" stroke-width="1" fill="none" />
<polyline points="258.0,363.0,259.5,351.0,261.0,339.0" stroke="black" stroke-width="1" fill="none" />
<polyline points="259.5,337.5,256.5,349.5,255.0,361.5,262.5,375.0,286.5,387.0,283.5,399.0,283.5,411.0,286.5,427.5,288.0,436.5,301.5,441.0,303.0,454.5,309.0,456.0,313.5,462.0,319.5,472.5,330.0,480.0,337.5,490.5,349.5,492.0" stroke="black" stroke-width="1" fill="none" />
<polyline points="198.0,420.0,186.0,408.0,175.5,408.0,162.0,412.5,150.0,412.5,138.0,408.0,126.0,411.0,111.0,414.0,99.0,414.0,93.0,406.5,82.5,399.0,81.0,406.5,69.0,405.0,58.5,400.5,69.0,396.0,60.0,396.0,55.5,384.0,39.0,381.0,42.0,363.0,33.0,345.0,31.5,333.0,6.0,334.5" stroke="black" stroke-width="1" fill="none" />
<polyline points="0.0,324.0,3.0,321.0,15.0,306.0,27.0,289.5,28.5,286.5,19.5,298.5,13.5,310.5,16.5,327.0,24.0,339.0,30.0,343.5,22.5,351.0,34.5,343.5,34.5,340.5,46.5,342.0,58.5,351.0,70.5,351.0,82.5,355.5,84.0,352.5,96.0,357.0,108.0,361.5,120.0,337.5,132.0,337.5,144.0,342.0,144.0,345.0,159.0,336.0,171.0,340.5,181.5,337.5" stroke="black" stroke-width="1" fill="none" />
<polyline points="169.5,307.5,166.5,319.5,165.0,331.5,175.5,343.5,189.0,355.5,184.5,367.5,181.5,379.5,192.0,393.0,198.0,403.5,199.5,400.5" stroke="black" stroke-width="1" fill="none" />
<polyline points="172.5,403.5,160.5,402.0,150.0,405.0,133.5,397.5,121.5,397.5,126.0,394.5,114.0,399.0,112.5,397.5,100.5,397.5,79.5,390.0,75.0,396.0,61.5,393.0,66.0,387.0,54.0,397.5,42.0,391.5,30.0,387.0" stroke="black" stroke-width="1" fill="none" />
<polyline points="46.5,364.5,39.0,366.0,33.0,361.5,27.0,370.5,24.0,378.0,18.0,366.0,6.0,367.5,3.0,375.0" stroke="black" stroke-width="1" fill="none" />
<polyline points="42.0,352.5,54.0,352.5,63.0,352.5" stroke="black" stroke-width="1" fill="none" />
<polyline points="76.5,385.5,90.0,402.0,88.5,408.0,100.5,414.0,114.0,426.0" stroke="black" stroke-width="1" fill="none" />
<polyline points="114.0,406.5,102.0,400.5" stroke="black" stroke-width="1" fill="none" />
<polyline points="112.5,420.0,100.5,421.5,88.5,415.5,78.0,403.5,78.0,397.5,72.0,387.0" stroke="black" stroke-width="1" fill="none" />
<polyline points="79.5,316.5,67.5,312.0,61.5,318.0,48.0,319.5,43.5,330.0,31.5,333.0,19.5,328.5,7.5,322.5" stroke="black" stroke-width="1" fill="none" />
<polyline points="13.5,295.5,12.0,291.0,0.0,286.5" stroke="black" stroke-width="1" fill="none" />
<polyline points="1.5,286.5,10.5,298.5,7.5,310.5,4.5,322.5,4.5,334.5,6.0,345.0,9.0,351.0,1.5,363.0,6.0,376.5,31.5,388.5,57.0,400.5,81.0,412.5,103.5,424.5,124.5,436.5,145.5,448.5,165.0,460.5,184.5,472.5,201.0,484.5,219.0,496.5,235.5,508.5,250.5,520.5,273.0,525.0,282.0,529.5" stroke="black" stroke-width="1" fill="none" />
<polyline points="171.0,400.5,159.0,393.0,156.0,396.0,150.0,390.0,130.5,390.0,124.5,382.5,114.0,385.5,103.5,378.0,103.5,372.0,108.0,354.0,108.0,342.0,111.0,330.0,114.0,330.0,102.0,325.5,91.5,313.5,84.0,328.5,73.5,345.0,75.0,333.0,78.0,321.0,61.5,318.0,61.5,306.0,42.0,301.5,30.0,297.0" stroke="black" stroke-width="1" fill="none" />
<polyline points="28.5,297.0,43.5,310.5,42.0,322.5,46.5,339.0,51.0,351.0,73.5,352.5,67.5,360.0,73.5,364.5,67.5,376.5,63.0,370.5,63.0,366.0,69.0,370.5,81.0,363.0,84.0,366.0,96.0,370.5,102.0,379.5,120.0,379.5,132.0,384.0,133.5,393.0,139.5,379.5,150.0,381.0,157.5,384.0,169.5,388.5,172.5,393.0,186.0,397.5,198.0,396.0,210.0,403.5,214.5,418.5,228.0,414.0,234.0,417.0,246.0,415.5,253.5,417.0,265.5,420.0,277.5,430.5" stroke="black" stroke-width="1" fill="none" />
<polyline points="211.5,439.5,199.5,436.5,187.5,442.5,178.5,444.0,163.5,445.5,160.5,450.0,154.5,439.5,148.5,448.5,147.0,445.5,159.0,442.5,148.5,439.5,144.0,435.0,136.5,420.0,123.0,417.0,144.0,403.5,147.0,390.0,142.5,369.0,142.5,357.0,136.5,345.0" stroke="black" stroke-width="1" fill="none" />
<polyline points="147.0,295.5,166.5,307.5,162.0,319.5,156.0,339.0,153.0,351.0,150.0,363.0,154.5,379.5,159.0,381.0,184.5,393.0,195.0,399.0,199.5,408.0,208.5,412.5,213.0,423.0,216.0,427.5,214.5,439.5,229.5,433.5,229.5,429.0,241.5,433.5,243.0,438.0,255.0,436.5,258.0,426.0,270.0,429.0,282.0,439.5,294.0,438.0,303.0,441.0,312.0,432.0,312.0,450.0,327.0,453.0,339.0,459.0,339.0,465.0" stroke="black" stroke-width="1" fill="none" />
<polyline points="249.0,357.0,253.5,345.0,247.5,333.0" stroke="black" stroke-width="1" fill="none" />
<polyline points="231.0,330.0,228.0,342.0,226.5,361.5,238.5,366.0,250.5,370.5,262.5,375.0,271.5,378.0,280.5,381.0,291.0,376.5,303.0,382.5" stroke="black" stroke-width="1" fill="none" />
<polyline points="132.0,279.0,120.0,280.5,108.0,276.0,96.0,270.0,84.0,264.0,70.5,265.5,58.5,261.0,46.5,256.5,34.5,252.0,21.0,241.5,18.0,234.0,6.0,232.5" stroke="black" stroke-width="1" fill="none" />
<polyline points="13.5,214.5,25.5,211.5" stroke="black" stroke-width="1" fill="none" />
<polyline points="42.0,235.5,30.0,240.0,48.0,231.0,40.5,249.0,28.5,244.5,16.5,255.0" stroke="black" stroke-width="1" fill="none" />
<polyline points="22.5,274.5,34.5,276.0,37.5,282.0,49.5,285.0" stroke="black" stroke-width="1" fill="none" />
<polyline points="49.5,307.5,37.5,307.5" stroke="black" stroke-width="1" fill="none" />
<polyline points="43.5,292.5,33.0,288.0,21.0,283.5,9.0,279.0" stroke="black" stroke-width="1" fill="none" />
<polyline points="76.5,297.0,88.5,297.0,90.0,301.5,102.0,303.0" stroke="black" stroke-width="1" fill="none" />
<polyline points="183.0,259.5,186.0,264.0,168.0,261.0,160.5,261.0,160.5,270.0,148.5,273.0,133.5,280.5,108.0,276.0,82.5,264.0,64.5,250.5,54.0,249.0,48.0,241.5,54.0,229.5,52.5,220.5,60.0,208.5" stroke="black" stroke-width="1" fill="none" />
<polyline points="48.0,196.5,36.0,192.0,24.0,189.0,12.0,189.0,0.0,186.0" stroke="black" stroke-width="1" fill="none" />
<polyline points="3.0,177.0,3.0,174.0,15.0,171.0,25.5,168.0,37.5,159.0,45.0,157.5,57.0,156.0" stroke="black" stroke-width="1" fill="none" />
<polyline points="43.5,148.5,31.5,160.5,21.0,177.0,1.5,181.5,15.0,183.0,13.5,174.0,25.5,172.5,33.0,177.0,45.0,180.0,48.0,184.5,54.0,180.0,66.0,178.5,69.0,165.0,76.5,154.5,88.5,160.5,100.5,165.0,112.5,169.5,124.5,171.0,127.5,166.5,129.0,162.0,142.5,165.0,154.5,169.5,154.5,165.0,166.5,165.0,178.5,168.0,190.5,160.5" stroke="black" stroke-width="1" fill="none" />
<polyline points="204.0,207.0,210.0,219.0,210.0,231.0,204.0,243.0,205.5,261.0,210.0,273.0,214.5,285.0,220.5,297.0,226.5,309.0,220.5,310.5,235.5,324.0,268.5,336.0,300.0,348.0,312.0,366.0,307.5,378.0,300.0,388.5,321.0,400.5,315.0,408.0,315.0,420.0,316.5,426.0,319.5,438.0,313.5,442.5,307.5,459.0,330.0,471.0,316.5,477.0,315.0,487.5,303.0,493.5,321.0,498.0,324.0,499.5,337.5,508.5,337.5,514.5,331.5,520.5,333.0,529.5,343.5,528.0,355.5,522.0,358.5,531.0,370.5,514.5,381.0,514.5,393.0,516.0" stroke="black" stroke-width="1" fill="none" />
<polyline points="61.5,448.5,49.5,442.5,37.5,436.5,27.0,433.5,16.5,433.5,15.0,438.0,12.0,426.0,0.0,423.0" stroke="black" stroke-width="1" fill="none" />
<polyline points="1.5,423.0,4.5,435.0,10.5,439.5,7.5,447.0,12.0,465.0,21.0,468.0,15.0,481.5,22.5,483.0,27.0,490.5,43.5,492.0,57.0,495.0,63.0,484.5,82.5,475.5,94.5,477.0,111.0,478.5,115.5,486.0" stroke="black" stroke-width="1" fill="none" />
<polyline points="171.0,208.5,163.5,199.5,154.5,189.0,141.0,195.0,126.0,192.0,121.5,189.0,123.0,177.0" stroke="black" stroke-width="1" fill="none" />
<polyline points="97.5,177.0,99.0,165.0" stroke="black" stroke-width="1" fill="none" />
<polyline points="96.0,163.5,90.0,175.5,102.0,177.0,91.5,192.0,103.5,198.0,114.0,205.5,126.0,207.0" stroke="black" stroke-width="1" fill="none" />
<polyline points="76.5,159.0,88.5,160.5,85.5,172.5,90.0,171.0,99.0,177.0,111.0,157.5,118.5,156.0,126.0,157.5,138.0,157.5,145.5,148.5,147.0,141.0,162.0,144.0,166.5,154.5,168.0,135.0,180.0,129.0,192.0,129.0" stroke="black" stroke-width="1" fill="none" />
<polyline points="28.5,147.0,22.5,159.0,31.5,171.0,39.0,174.0,27.0,186.0,28.5,198.0,34.5,198.0" stroke="black" stroke-width="1" fill="none" />
</svg>