<svg xmlns="http://www.w3.org/2000/svg" height="173px" width="253px" version="1.1"><polyline points="59.0,0.0,57.0,8.0,56.0,16.0,55.0,24.0,54.0,32.0,47.0,35.0,52.0,43.0,56.0,46.0,64.0,48.0,72.0,48.0,80.0,47.0,86.0,46.0,94.0,43.0" stroke="black" stroke-width="1" fill="none" />
<polyline points="90.0,35.0,98.0,29.0,98.0,33.0,96.0,41.0,83.0,53.0,76.0,61.0,77.0,70.0,74.0,78.0" stroke="black" stroke-width="1" fill="none" />
<polyline points="75.0,66.0,78.0,59.0,86.0,50.0,94.0,48.0" stroke="black" stroke-width="1" fill="none" />
<polyline points="90.0,57.0,85.0,57.0,82.0,65.0,79.0,72.0,76.0,80.0,76.0,94.0,78.0,102.0" stroke="black" stroke-width="1" fill="none" />
<polyline points="80.0,98.0,88.0,116.0,96.0,127.0,99.0,130.0,100.0,138.0,100.0,146.0,99.0,154.0,99.0,162.0,99.0,170.0" stroke="black" stroke-width="1" fill="none" />
<polyline points="128.0,171.0,120.0,164.0,112.0,155.0,104.0,141.0" stroke="black" stroke-width="1" fill="none" />
<polyline points="101.0,133.0,104.0,141.0,107.0,149.0,113.0,157.0,120.0,165.0" stroke="black" stroke-width="1" fill="none" />
<polyline points="135.0,129.0,127.0,132.0,120.0,133.0,123.0,127.0,139.0,126.0,138.0,118.0,126.0,123.0" stroke="black" stroke-width="1" fill="none" />
<polyline points="143.0,137.0,149.0,130.0,152.0,122.0,152.0,114.0,151.0,106.0" stroke="black" stroke-width="1" fill="none" />
<polyline points="160.0,84.0,152.0,84.0,144.0,81.0" stroke="black" stroke-width="1" fill="none" />
<polyline points="145.0,70.0,151.0,62.0,147.0,62.0,143.0,70.0,135.0,66.0,136.0,58.0,142.0,50.0,142.0,43.0,141.0,35.0,139.0,29.0,131.0,34.0" stroke="black" stroke-width="1" fill="none" />
<polyline points="134.0,36.0,131.0,44.0,129.0,52.0,128.0,60.0,131.0,68.0,145.0,76.0,157.0,87.0,156.0,86.0" stroke="black" stroke-width="1" fill="none" />
<polyline points="172.0,71.0,180.0,75.0" stroke="black" stroke-width="1" fill="none" />
<polyline points="205.0,55.0,213.0,64.0,226.0,78.0,234.0,92.0" stroke="black" stroke-width="1" fill="none" />
<polyline points="239.0,81.0,231.0,73.0" stroke="black" stroke-width="1" fill="none" />
<polyline points="236.0,79.0,242.0,87.0,243.0,95.0,243.0,103.0,241.0,111.0,239.0,119.0,236.0,127.0,232.0,135.0,226.0,143.0,220.0,151.0,212.0,159.0,202.0,167.0,197.0,170.0,205.0,165.0,213.0,158.0,221.0,149.0,229.0,139.0,237.0,124.0" stroke="black" stroke-width="1" fill="none" />
<polyline points="249.0,79.0,241.0,74.0,233.0,65.0,225.0,57.0,217.0,51.0" stroke="black" stroke-width="1" fill="none" />
<polyline points="217.0,51.0,226.0,59.0,233.0,67.0,242.0,75.0" stroke="black" stroke-width="1" fill="none" />
<polyline points="252.0,48.0,244.0,48.0,236.0,48.0,228.0,48.0,220.0,48.0,212.0,47.0" stroke="black" stroke-width="1" fill="none" />
<polyline points="219.0,62.0,213.0,54.0,212.0,48.0,202.0,40.0,197.0,27.0,199.0,19.0,198.0,20.0" stroke="black" stroke-width="1" fill="none" />
<polyline points="195.0,16.0,203.0,14.0,195.0,18.0,193.0,26.0,190.0,40.0,194.0,48.0,197.0,56.0,199.0,64.0,203.0,72.0,206.0,80.0,208.0,88.0,212.0,96.0" stroke="black" stroke-width="1" fill="none" />
<polyline points="229.0,45.0,221.0,45.0,213.0,45.0,205.0,41.0,197.0,37.0" stroke="black" stroke-width="1" fill="none" />
<polyline points="196.0,42.0,204.0,48.0,208.0,54.0,216.0,64.0,224.0,75.0,232.0,77.0,239.0,90.0" stroke="black" stroke-width="1" fill="none" />
<polyline points="216.0,89.0,212.0,81.0,207.0,73.0,206.0,65.0,201.0,57.0,192.0,45.0" stroke="black" stroke-width="1" fill="none" />
<polyline points="191.0,41.0,199.0,41.0,207.0,47.0,215.0,55.0,223.0,67.0" stroke="black" stroke-width="1" fill="none" />
<polyline points="212.0,21.0,220.0,21.0,228.0,21.0,236.0,21.0,244.0,24.0,252.0,26.0" stroke="black" stroke-width="1" fill="none" />
<polyline points="253.0,2.0,245.0,2.0,237.0,2.0,229.0,2.0,221.0,2.0" stroke="black" stroke-width="1" fill="none" />
<polyline points="215.0,20.0,212.0,28.0,213.0,36.0,220.0,37.0,228.0,37.0,236.0,37.0,244.0,37.0,252.0,37.0" stroke="black" stroke-width="1" fill="none" />
<polyline points="242.0,23.0,239.0,15.0,231.0,11.0,223.0,10.0,215.0,10.0,207.0,10.0,199.0,7.0" stroke="black" stroke-width="1" fill="none" />
<polyline points="189.0,8.0,191.0,4.0,188.0,12.0,186.0,20.0,184.0,28.0,187.0,36.0,197.0,35.0,197.0,43.0,202.0,51.0,208.0,59.0,209.0,60.0,215.0,68.0,226.0,74.0,232.0,74.0,234.0,81.0,238.0,89.0,240.0,96.0" stroke="black" stroke-width="1" fill="none" />
<polyline points="234.0,93.0,229.0,85.0,224.0,77.0,219.0,69.0,213.0,61.0,207.0,53.0,203.0,44.0,193.0,35.0,185.0,29.0" stroke="black" stroke-width="1" fill="none" />
<polyline points="182.0,31.0,190.0,37.0,190.0,53.0,200.0,66.0,209.0,75.0" stroke="black" stroke-width="1" fill="none" />
<polyline points="200.0,88.0,195.0,80.0,195.0,72.0,194.0,64.0,191.0,56.0,187.0,48.0,183.0,40.0,182.0,37.0" stroke="black" stroke-width="1" fill="none" />
<polyline points="168.0,33.0,160.0,26.0,152.0,21.0" stroke="black" stroke-width="1" fill="none" />
<polyline points="157.0,20.0,168.0,28.0,175.0,36.0,181.0,44.0,186.0,52.0,187.0,57.0,189.0,65.0,193.0,73.0,199.0,81.0" stroke="black" stroke-width="1" fill="none" />
<polyline points="192.0,91.0,192.0,83.0,189.0,75.0,185.0,67.0,182.0,59.0,178.0,51.0,173.0,43.0,168.0,35.0,160.0,27.0,152.0,19.0,144.0,15.0" stroke="black" stroke-width="1" fill="none" />
<polyline points="142.0,22.0,158.0,30.0,166.0,38.0,171.0,46.0,180.0,54.0,188.0,72.0,198.0,85.0,208.0,88.0" stroke="black" stroke-width="1" fill="none" />
<polyline points="186.0,75.0,178.0,67.0,170.0,57.0,162.0,50.0,154.0,45.0,146.0,44.0,138.0,49.0" stroke="black" stroke-width="1" fill="none" />
<polyline points="141.0,57.0,138.0,65.0,146.0,76.0,154.0,78.0,162.0,79.0,170.0,77.0,171.0,85.0" stroke="black" stroke-width="1" fill="none" />
<polyline points="146.0,57.0,138.0,61.0" stroke="black" stroke-width="1" fill="none" />
<polyline points="135.0,61.0,143.0,50.0,151.0,49.0,159.0,53.0" stroke="black" stroke-width="1" fill="none" />
<polyline points="153.0,50.0,162.0,58.0,164.0,66.0,161.0,74.0,171.0,86.0,178.0,86.0,177.0,94.0,177.0,102.0,174.0,110.0,171.0,118.0,166.0,126.0,160.0,134.0,167.0,125.0,175.0,109.0" stroke="black" stroke-width="1" fill="none" />
<polyline points="161.0,74.0,153.0,75.0,145.0,73.0,137.0,72.0,129.0,63.0" stroke="black" stroke-width="1" fill="none" />
<polyline points="125.0,78.0,133.0,83.0" stroke="black" stroke-width="1" fill="none" />
<polyline points="108.0,77.0,112.0,70.0,110.0,67.0" stroke="black" stroke-width="1" fill="none" />
<polyline points="110.0,53.0,111.0,49.0,112.0,44.0,102.0,54.0,92.0,63.0,85.0,69.0" stroke="black" stroke-width="1" fill="none" />
<polyline points="89.0,81.0,93.0,89.0,100.0,97.0" stroke="black" stroke-width="1" fill="none" />
<polyline points="96.0,93.0,89.0,81.0" stroke="black" stroke-width="1" fill="none" />
<polyline points="79.0,96.0,83.0,91.0,80.0,99.0,83.0,107.0,87.0,115.0,92.0,123.0,96.0,131.0,93.0,139.0,92.0,147.0,90.0,155.0,87.0,163.0,85.0,171.0" stroke="black" stroke-width="1" fill="none" />
<polyline points="33.0,173.0,25.0,167.0,22.0,169.0,8.0,169.0,0.0,171.0" stroke="black" stroke-width="1" fill="none" />
<polyline points="0.0,163.0,8.0,162.0,16.0,159.0,24.0,160.0,32.0,160.0,40.0,166.0" stroke="black" stroke-width="1" fill="none" />
<polyline points="34.0,168.0,26.0,163.0,18.0,168.0,13.0,171.0,23.0,163.0" stroke="black" stroke-width="1" fill="none" />
<polyline points="28.0,159.0,40.0,167.0,46.0,172.0" stroke="black" stroke-width="1" fill="none" />
<polyline points="2.0,82.0,10.0,84.0,18.0,84.0,26.0,84.0,34.0,84.0,42.0,84.0,50.0,84.0,58.0,84.0,66.0,84.0,74.0,83.0,81.0,74.0,86.0,74.0,99.0,79.0,101.0,75.0,109.0,79.0,117.0,81.0" stroke="black" stroke-width="1" fill="none" />
<polyline points="148.0,87.0,140.0,84.0,138.0,79.0,130.0,73.0,122.0,60.0,116.0,40.0,111.0,35.0,108.0,51.0,100.0,56.0,91.0,57.0,83.0,59.0,80.0,49.0,72.0,45.0,64.0,44.0,56.0,42.0" stroke="black" stroke-width="1" fill="none" />
<polyline points="41.0,53.0,49.0,53.0,57.0,53.0,65.0,53.0,73.0,54.0" stroke="black" stroke-width="1" fill="none" />
<polyline points="48.0,71.0,40.0,70.0,32.0,70.0,24.0,70.0,16.0,70.0,8.0,70.0,0.0,70.0" stroke="black" stroke-width="1" fill="none" />
<polyline points="1.0,71.0,1.0,79.0,2.0,88.0,10.0,88.0,18.0,88.0,26.0,88.0,34.0,88.0,42.0,88.0,50.0,88.0,58.0,88.0,66.0,88.0,74.0,88.0,84.0,83.0,92.0,77.0,100.0,67.0" stroke="black" stroke-width="1" fill="none" />
<polyline points="91.0,94.0,89.0,93.0,86.0,85.0,85.0,74.0,98.0,70.0,100.0,62.0,95.0,60.0,92.0,52.0,98.0,48.0,100.0,40.0,101.0,32.0" stroke="black" stroke-width="1" fill="none" />
<polyline points="113.0,34.0,108.0,42.0,115.0,44.0,117.0,49.0,120.0,57.0,124.0,65.0,126.0,73.0,127.0,81.0,150.0,88.0,156.0,96.0" stroke="black" stroke-width="1" fill="none" />
<polyline points="189.0,86.0,187.0,78.0,181.0,70.0,172.0,62.0,164.0,54.0,154.0,46.0" stroke="black" stroke-width="1" fill="none" />
<polyline points="170.0,47.0,162.0,35.0,154.0,32.0,146.0,29.0,138.0,24.0" stroke="black" stroke-width="1" fill="none" />
<polyline points="136.0,22.0,144.0,23.0,152.0,27.0,160.0,30.0,168.0,39.0" stroke="black" stroke-width="1" fill="none" />
<polyline points="180.0,41.0,172.0,31.0,164.0,24.0,156.0,19.0,150.0,13.0,142.0,8.0,134.0,8.0" stroke="black" stroke-width="1" fill="none" />
<polyline points="131.0,5.0,139.0,5.0" stroke="black" stroke-width="1" fill="none" />
<polyline points="152.0,0.0,153.0,8.0,160.0,10.0,170.0,15.0" stroke="black" stroke-width="1" fill="none" />
<polyline points="173.0,8.0,176.0,0.0" stroke="black" stroke-width="1" fill="none" />
<polyline points="164.0,0.0,164.0,8.0,171.0,16.0,167.0,16.0,170.0,19.0" stroke="black" stroke-width="1" fill="none" />
<polyline points="168.0,45.0,162.0,37.0,144.0,29.0,137.0,21.0" stroke="black" stroke-width="1" fill="none" />
<polyline points="113.0,8.0,116.0,0.0" stroke="black" stroke-width="1" fill="none" />
<polyline points="114.0,7.0,106.0,11.0,100.0,14.0,92.0,27.0,91.0,34.0,101.0,26.0,101.0,22.0,98.0,16.0,103.0,8.0,104.0,0.0" stroke="black" stroke-width="1" fill="none" />
<polyline points="98.0,0.0,97.0,8.0,94.0,16.0,91.0,24.0,86.0,27.0,93.0,29.0,101.0,22.0" stroke="black" stroke-width="1" fill="none" />
<polyline points="92.0,0.0,91.0,8.0,90.0,16.0,88.0,24.0,90.0,26.0,87.0,34.0,86.0,42.0,78.0,47.0,75.0,58.0,72.0,66.0,72.0,74.0" stroke="black" stroke-width="1" fill="none" />
<polyline points="56.0,70.0,48.0,67.0,40.0,65.0,32.0,66.0,24.0,67.0,16.0,67.0,8.0,65.0,0.0,64.0" stroke="black" stroke-width="1" fill="none" />
<polyline points="0.0,37.0,8.0,36.0,16.0,36.0,24.0,37.0,32.0,38.0,40.0,36.0,48.0,36.0,53.0,33.0" stroke="black" stroke-width="1" fill="none" />
<polyline points="74.0,32.0,76.0,24.0,77.0,16.0,78.0,8.0,80.0,0.0" stroke="black" stroke-width="1" fill="none" />
<polyline points="66.0,0.0,65.0,8.0,63.0,16.0,62.0,24.0,61.0,32.0,63.0,33.0,71.0,34.0" stroke="black" stroke-width="1" fill="none" />
</svg>