<svg xmlns="http://www.w3.org/2000/svg" height="548px" width="392px" version="1.1"><polyline points="295.5,3.0,280.5,15.0,271.5,27.0,264.0,42.0,274.5,33.0,277.5,37.5,292.5,12.0" stroke="black" stroke-width="1" fill="none" />
<polyline points="301.5,10.5,292.5,22.5,291.0,34.5,304.5,34.5" stroke="black" stroke-width="1" fill="none" />
<polyline points="289.5,46.5,301.5,52.5,313.5,64.5" stroke="black" stroke-width="1" fill="none" />
<polyline points="321.0,39.0,309.0,42.0,297.0,40.5,285.0,45.0,273.0,42.0" stroke="black" stroke-width="1" fill="none" />
<polyline points="283.5,51.0,303.0,63.0,315.0,75.0,324.0,87.0,325.5,88.5,327.0,99.0,318.0,111.0,313.5,123.0,310.5,135.0,307.5,147.0,306.0,159.0,328.5,169.5,327.0,181.5,315.0,193.5,315.0,198.0,307.5,210.0" stroke="black" stroke-width="1" fill="none" />
<polyline points="319.5,199.5,331.5,183.0" stroke="black" stroke-width="1" fill="none" />
<polyline points="328.5,177.0,316.5,192.0,328.5,198.0,337.5,186.0,334.5,169.5,325.5,151.5,321.0,145.5,316.5,156.0,313.5,153.0,315.0,141.0,318.0,129.0,321.0,117.0,324.0,103.5,312.0,124.5" stroke="black" stroke-width="1" fill="none" />
<polyline points="316.5,130.5,328.5,108.0,337.5,99.0,339.0,103.5,340.5,115.5,339.0,127.5,336.0,135.0,330.0,156.0,337.5,168.0,333.0,181.5,322.5,193.5,327.0,208.5,300.0,220.5" stroke="black" stroke-width="1" fill="none" />
<polyline points="286.5,195.0,274.5,190.5,262.5,184.5" stroke="black" stroke-width="1" fill="none" />
<polyline points="241.5,198.0,253.5,214.5,265.5,220.5,277.5,220.5,289.5,219.0,301.5,213.0,313.5,202.5,328.5,198.0" stroke="black" stroke-width="1" fill="none" />
<polyline points="328.5,211.5,345.0,223.5,364.5,235.5,384.0,247.5,391.5,259.5,390.0,271.5,384.0,283.5,372.0,295.5,354.0,307.5,345.0,312.0,357.0,306.0,369.0,298.5,381.0,288.0" stroke="black" stroke-width="1" fill="none" />
<polyline points="354.0,315.0,370.5,307.5,358.5,310.5,346.5,318.0" stroke="black" stroke-width="1" fill="none" />
<polyline points="313.5,309.0,325.5,286.5" stroke="black" stroke-width="1" fill="none" />
<polyline points="313.5,286.5,301.5,265.5,289.5,262.5" stroke="black" stroke-width="1" fill="none" />
<polyline points="289.5,259.5,301.5,259.5,313.5,264.0,325.5,267.0,337.5,276.0" stroke="black" stroke-width="1" fill="none" />
<polyline points="319.5,265.5,333.0,277.5,324.0,289.5,318.0,301.5,313.5,313.5,319.5,325.5" stroke="black" stroke-width="1" fill="none" />
<polyline points="312.0,315.0,324.0,327.0,336.0,330.0,348.0,331.5,360.0,330.0,369.0,307.5,370.5,319.5,358.5,337.5,369.0,349.5,379.5,361.5,387.0,373.5,388.5,385.5,387.0,397.5,382.5,409.5,375.0,421.5,367.5,433.5,378.0,453.0,379.5,465.0,376.5,477.0,373.5,489.0,366.0,501.0,352.5,513.0,352.5,513.0,364.5,502.5" stroke="black" stroke-width="1" fill="none" />
<polyline points="343.5,511.5,336.0,501.0,343.5,498.0,331.5,502.5" stroke="black" stroke-width="1" fill="none" />
<polyline points="328.5,507.0,340.5,514.5" stroke="black" stroke-width="1" fill="none" />
<polyline points="331.5,528.0,345.0,540.0" stroke="black" stroke-width="1" fill="none" />
<polyline points="339.0,543.0,337.5,537.0,325.5,531.0" stroke="black" stroke-width="1" fill="none" />
<polyline points="324.0,526.5,336.0,529.5,348.0,540.0" stroke="black" stroke-width="1" fill="none" />
<polyline points="334.5,546.0,322.5,547.5,310.5,544.5,298.5,540.0,286.5,532.5,274.5,520.5" stroke="black" stroke-width="1" fill="none" />
<polyline points="273.0,502.5,285.0,490.5,297.0,498.0,309.0,499.5" stroke="black" stroke-width="1" fill="none" />
<polyline points="288.0,486.0,277.5,474.0,270.0,462.0,262.5,450.0,258.0,438.0,250.5,426.0,250.5,414.0,235.5,402.0,226.5,390.0,217.5,378.0,210.0,366.0,204.0,354.0,199.5,342.0,196.5,330.0,192.0,318.0,190.5,306.0,189.0,294.0,190.5,282.0,193.5,270.0,198.0,258.0,211.5,250.5,199.5,253.5,187.5,259.5,175.5,249.0,163.5,243.0,151.5,237.0,139.5,231.0,127.5,225.0,115.5,219.0,103.5,213.0,91.5,207.0,79.5,199.5,67.5,192.0,55.5,183.0,43.5,175.5,31.5,165.0,19.5,153.0,7.5,127.5" stroke="black" stroke-width="1" fill="none" />
<polyline points="6.0,111.0,18.0,112.5" stroke="black" stroke-width="1" fill="none" />
<polyline points="15.0,109.5,19.5,121.5" stroke="black" stroke-width="1" fill="none" />
<polyline points="25.5,118.5,30.0,106.5,33.0,94.5,43.5,87.0,31.5,99.0" stroke="black" stroke-width="1" fill="none" />
<polyline points="45.0,88.5,46.5,100.5,58.5,103.5,60.0,115.5" stroke="black" stroke-width="1" fill="none" />
<polyline points="55.5,108.0,63.0,105.0,66.0,117.0,64.5,129.0,63.0,141.0,84.0,159.0" stroke="black" stroke-width="1" fill="none" />
<polyline points="55.5,150.0,67.5,153.0,79.5,157.5,91.5,162.0,103.5,165.0,115.5,169.5,127.5,172.5,139.5,177.0,151.5,180.0,163.5,183.0,175.5,184.5,187.5,189.0,199.5,198.0,211.5,213.0,223.5,219.0,235.5,223.5,247.5,225.0,259.5,225.0,271.5,226.5,283.5,226.5,295.5,223.5,307.5,217.5,319.5,211.5,331.5,213.0,343.5,222.0,355.5,229.5,367.5,235.5,379.5,241.5,391.5,255.0" stroke="black" stroke-width="1" fill="none" />
<polyline points="303.0,267.0,307.5,279.0,316.5,291.0,310.5,303.0,306.0,315.0,312.0,327.0" stroke="black" stroke-width="1" fill="none" />
<polyline points="306.0,313.5,318.0,330.0,330.0,334.5,342.0,337.5,354.0,336.0,366.0,343.5,378.0,358.5" stroke="black" stroke-width="1" fill="none" />
<polyline points="376.5,448.5,364.5,442.5,352.5,445.5,340.5,448.5,328.5,445.5,316.5,433.5" stroke="black" stroke-width="1" fill="none" />
<polyline points="315.0,432.0,327.0,436.5,339.0,441.0,351.0,439.5,363.0,436.5,375.0,421.5" stroke="black" stroke-width="1" fill="none" />
<polyline points="319.5,415.5,307.5,426.0,295.5,430.5,283.5,432.0,271.5,429.0,259.5,423.0,247.5,420.0" stroke="black" stroke-width="1" fill="none" />
<polyline points="249.0,421.5,261.0,444.0,273.0,466.5,285.0,481.5,297.0,490.5,309.0,493.5,321.0,492.0,333.0,490.5,345.0,484.5,345.0,484.5,322.5,498.0,318.0,504.0,321.0,507.0,333.0,496.5,345.0,490.5,354.0,486.0,331.5,498.0,318.0,510.0,343.5,517.5,351.0,529.5" stroke="black" stroke-width="1" fill="none" />
<polyline points="291.0,537.0,276.0,525.0,271.5,513.0,274.5,501.0,282.0,489.0" stroke="black" stroke-width="1" fill="none" />
<polyline points="339.0,450.0,322.5,441.0,318.0,429.0" stroke="black" stroke-width="1" fill="none" />
<polyline points="327.0,369.0,315.0,351.0,303.0,337.5,291.0,325.5,279.0,300.0" stroke="black" stroke-width="1" fill="none" />
<polyline points="274.5,306.0,286.5,327.0,298.5,340.5,310.5,352.5,322.5,373.5" stroke="black" stroke-width="1" fill="none" />
<polyline points="318.0,408.0,306.0,420.0,294.0,424.5,282.0,424.5,270.0,421.5,258.0,417.0,246.0,409.5,234.0,397.5,222.0,382.5,210.0,363.0,198.0,336.0" stroke="black" stroke-width="1" fill="none" />
<polyline points="238.5,261.0,252.0,249.0" stroke="black" stroke-width="1" fill="none" />
<polyline points="252.0,243.0,237.0,255.0" stroke="black" stroke-width="1" fill="none" />
<polyline points="259.5,250.5,265.5,262.5,268.5,274.5,270.0,286.5,271.5,298.5,276.0,310.5,282.0,322.5,291.0,334.5,303.0,346.5,313.5,358.5,321.0,370.5,324.0,382.5,324.0,394.5,319.5,406.5,309.0,418.5" stroke="black" stroke-width="1" fill="none" />
<polyline points="304.5,427.5,319.5,415.5,327.0,403.5,330.0,391.5,330.0,379.5,325.5,367.5,318.0,355.5,307.5,343.5,295.5,331.5,286.5,319.5,280.5,307.5,277.5,295.5,276.0,283.5,273.0,271.5,271.5,259.5,264.0,247.5" stroke="black" stroke-width="1" fill="none" />
<polyline points="280.5,199.5,268.5,193.5,255.0,178.5,243.0,186.0,231.0,189.0,228.0,195.0" stroke="black" stroke-width="1" fill="none" />
<polyline points="238.5,193.5,250.5,189.0,264.0,181.5,276.0,184.5" stroke="black" stroke-width="1" fill="none" />
<polyline points="297.0,174.0,309.0,171.0,292.5,174.0,304.5,186.0,312.0,174.0,315.0,180.0" stroke="black" stroke-width="1" fill="none" />
<polyline points="286.5,147.0,274.5,135.0,262.5,123.0,250.5,114.0,238.5,109.5,226.5,109.5" stroke="black" stroke-width="1" fill="none" />
<polyline points="229.5,114.0,241.5,117.0" stroke="black" stroke-width="1" fill="none" />
<polyline points="253.5,123.0,265.5,135.0,277.5,147.0,273.0,159.0,264.0,174.0,256.5,177.0,238.5,193.5,244.5,205.5,256.5,217.5" stroke="black" stroke-width="1" fill="none" />
<polyline points="258.0,187.5,238.5,180.0,226.5,181.5,214.5,183.0,202.5,184.5" stroke="black" stroke-width="1" fill="none" />
<polyline points="201.0,178.5,213.0,177.0,225.0,175.5,237.0,174.0,249.0,174.0,249.0,189.0,235.5,202.5,244.5,214.5" stroke="black" stroke-width="1" fill="none" />
<polyline points="241.5,217.5,229.5,214.5,217.5,211.5,205.5,195.0,193.5,186.0,181.5,180.0,169.5,162.0" stroke="black" stroke-width="1" fill="none" />
<polyline points="202.5,157.5,214.5,157.5,226.5,160.5,238.5,162.0,250.5,160.5,267.0,171.0,267.0,175.5,279.0,175.5,279.0,180.0" stroke="black" stroke-width="1" fill="none" />
<polyline points="267.0,135.0,255.0,123.0,234.0,123.0,222.0,121.5" stroke="black" stroke-width="1" fill="none" />
<polyline points="211.5,130.5,223.5,130.5,235.5,127.5,256.5,118.5,268.5,130.5,280.5,142.5,285.0,154.5,277.5,166.5,283.5,168.0,295.5,169.5,307.5,166.5,321.0,163.5,328.5,169.5" stroke="black" stroke-width="1" fill="none" />
<polyline points="294.0,148.5,282.0,159.0,271.5,163.5,259.5,160.5,256.5,157.5,253.5,145.5,250.5,133.5" stroke="black" stroke-width="1" fill="none" />
<polyline points="249.0,132.0,246.0,144.0,247.5,165.0,261.0,183.0,283.5,195.0" stroke="black" stroke-width="1" fill="none" />
<polyline points="238.5,156.0,226.5,154.5,214.5,151.5,202.5,151.5" stroke="black" stroke-width="1" fill="none" />
<polyline points="211.5,136.5,223.5,136.5,235.5,133.5,247.5,130.5,243.0,123.0,231.0,135.0" stroke="black" stroke-width="1" fill="none" />
<polyline points="229.5,99.0,217.5,111.0,219.0,106.5,231.0,99.0,243.0,97.5" stroke="black" stroke-width="1" fill="none" />
<polyline points="243.0,93.0,231.0,93.0,219.0,99.0,210.0,117.0,213.0,105.0,228.0,93.0" stroke="black" stroke-width="1" fill="none" />
<polyline points="252.0,46.5,264.0,46.5,276.0,48.0,288.0,52.5,300.0,58.5,312.0,70.5" stroke="black" stroke-width="1" fill="none" />
<polyline points="306.0,58.5,286.5,46.5" stroke="black" stroke-width="1" fill="none" />
<polyline points="312.0,10.5,300.0,3.0,288.0,6.0,276.0,19.5,264.0,36.0,252.0,39.0,240.0,43.5,228.0,43.5,216.0,48.0,204.0,52.5,192.0,46.5,180.0,34.5,168.0,22.5,156.0,13.5,144.0,10.5,132.0,13.5,120.0,22.5,118.5,24.0,133.5,12.0" stroke="black" stroke-width="1" fill="none" />
<polyline points="144.0,21.0,162.0,33.0,169.5,45.0,175.5,57.0,180.0,69.0,181.5,81.0,181.5,93.0,177.0,105.0,168.0,117.0,165.0,129.0,165.0,141.0,166.5,153.0,171.0,165.0,177.0,177.0,193.5,187.5,208.5,199.5,216.0,211.5" stroke="black" stroke-width="1" fill="none" />
<polyline points="213.0,217.5,205.5,205.5,192.0,193.5,166.5,177.0,154.5,174.0,142.5,171.0,130.5,160.5,118.5,144.0,106.5,117.0" stroke="black" stroke-width="1" fill="none" />
<polyline points="136.5,100.5,148.5,117.0" stroke="black" stroke-width="1" fill="none" />
<polyline points="142.5,99.0,154.5,112.5,166.5,111.0" stroke="black" stroke-width="1" fill="none" />
<polyline points="148.5,111.0,141.0,99.0,139.5,87.0" stroke="black" stroke-width="1" fill="none" />
<polyline points="136.5,87.0,135.0,99.0,141.0,111.0,153.0,123.0,159.0,135.0,160.5,147.0,162.0,159.0,166.5,171.0" stroke="black" stroke-width="1" fill="none" />
<polyline points="201.0,238.5,195.0,250.5" stroke="black" stroke-width="1" fill="none" />
<polyline points="207.0,247.5,213.0,259.5" stroke="black" stroke-width="1" fill="none" />
<polyline points="204.0,238.5,216.0,250.5,220.5,262.5,222.0,270.0,234.0,265.5,246.0,253.5,258.0,247.5" stroke="black" stroke-width="1" fill="none" />
<polyline points="298.5,144.0,297.0,132.0" stroke="black" stroke-width="1" fill="none" />
<polyline points="330.0,109.5,331.5,121.5,330.0,133.5,321.0,145.5,316.5,157.5,313.5,172.5,297.0,181.5,309.0,186.0" stroke="black" stroke-width="1" fill="none" />
<polyline points="264.0,246.0,252.0,243.0,240.0,252.0,228.0,264.0,216.0,247.5,204.0,238.5,189.0,264.0,178.5,252.0,156.0,240.0,132.0,228.0,106.5,216.0,85.5,204.0,66.0,192.0,49.5,180.0,33.0,168.0,21.0,156.0,13.5,144.0,9.0,132.0,6.0,120.0,9.0,108.0" stroke="black" stroke-width="1" fill="none" />
<polyline points="105.0,55.5,117.0,36.0,129.0,28.5,141.0,25.5,153.0,30.0,165.0,45.0" stroke="black" stroke-width="1" fill="none" />
<polyline points="171.0,45.0,159.0,28.5,147.0,21.0,135.0,21.0,123.0,24.0" stroke="black" stroke-width="1" fill="none" />
<polyline points="130.5,27.0,114.0,39.0,106.5,51.0,103.5,63.0,102.0,75.0,100.5,87.0,102.0,99.0,105.0,111.0,108.0,123.0,112.5,135.0,118.5,147.0,127.5,159.0,139.5,171.0" stroke="black" stroke-width="1" fill="none" />
<polyline points="214.5,63.0,204.0,52.5,231.0,40.5" stroke="black" stroke-width="1" fill="none" />
<polyline points="204.0,61.5,193.5,49.5,181.5,37.5,169.5,25.5,153.0,13.5" stroke="black" stroke-width="1" fill="none" />
<polyline points="142.5,27.0,159.0,39.0,166.5,51.0,171.0,63.0,174.0,75.0,175.5,87.0,174.0,99.0,166.5,111.0,168.0,117.0" stroke="black" stroke-width="1" fill="none" />
<polyline points="331.5,91.5,319.5,90.0,319.5,66.0,321.0,54.0,319.5,42.0,319.5,30.0,315.0,18.0,304.5,6.0" stroke="black" stroke-width="1" fill="none" />
<polyline points="304.5,4.5,289.5,16.5,285.0,28.5,298.5,13.5" stroke="black" stroke-width="1" fill="none" />
</svg>