<svg xmlns="http://www.w3.org/2000/svg" height="511px" width="499px" version="1.1"><polyline points="291.0,2.0,293.0,10.0,287.0,18.0,282.0,26.0,286.0,20.0,296.0,13.0,303.0,20.0,312.0,36.0,320.0,43.0,328.0,51.0" stroke="black" stroke-width="1" fill="none" />
<polyline points="342.0,43.0,334.0,42.0,326.0,42.0,318.0,38.0,310.0,29.0" stroke="black" stroke-width="1" fill="none" />
<polyline points="302.0,16.0,307.0,24.0,311.0,32.0,319.0,40.0,330.0,49.0,333.0,57.0,333.0,65.0,333.0,73.0,333.0,81.0,332.0,89.0,330.0,96.0,325.0,104.0,318.0,112.0,311.0,120.0,306.0,128.0,300.0,136.0,286.0,144.0,270.0,155.0,278.0,152.0,286.0,148.0,296.0,144.0,302.0,139.0,308.0,129.0,316.0,119.0,324.0,109.0,332.0,99.0,340.0,101.0,348.0,101.0,356.0,94.0" stroke="black" stroke-width="1" fill="none" />
<polyline points="368.0,98.0,367.0,102.0" stroke="black" stroke-width="1" fill="none" />
<polyline points="353.0,63.0,361.0,48.0,365.0,51.0,367.0,59.0,369.0,67.0,371.0,75.0,372.0,83.0,373.0,91.0,367.0,99.0,369.0,101.0,372.0,107.0,364.0,115.0,355.0,121.0,352.0,129.0,338.0,137.0,326.0,143.0" stroke="black" stroke-width="1" fill="none" />
<polyline points="336.0,155.0,344.0,162.0,352.0,170.0,360.0,177.0,368.0,180.0,376.0,181.0,384.0,184.0,392.0,187.0,400.0,190.0,408.0,192.0,416.0,192.0,424.0,190.0,432.0,186.0,440.0,182.0,448.0,178.0,456.0,172.0,464.0,157.0,472.0,144.0" stroke="black" stroke-width="1" fill="none" />
<polyline points="471.0,154.0,477.0,162.0,489.0,163.0,488.0,171.0,491.0,179.0,493.0,187.0,495.0,195.0,489.0,203.0,481.0,211.0,481.0,211.0,489.0,203.0,494.0,204.0" stroke="black" stroke-width="1" fill="none" />
<polyline points="487.0,209.0,479.0,215.0" stroke="black" stroke-width="1" fill="none" />
<polyline points="477.0,245.0,485.0,253.0,493.0,262.0,493.0,269.0" stroke="black" stroke-width="1" fill="none" />
<polyline points="489.0,265.0,484.0,259.0,478.0,251.0" stroke="black" stroke-width="1" fill="none" />
<polyline points="451.0,249.0,443.0,257.0,455.0,271.0,469.0,279.0" stroke="black" stroke-width="1" fill="none" />
<polyline points="463.0,278.0,455.0,274.0,447.0,270.0" stroke="black" stroke-width="1" fill="none" />
<polyline points="441.0,253.0,449.0,250.0,457.0,248.0,465.0,246.0,473.0,245.0,477.0,247.0,482.0,250.0,487.0,256.0,491.0,261.0,496.0,267.0,498.0,275.0,494.0,283.0,493.0,288.0,493.0,296.0,491.0,299.0,488.0,306.0,484.0,313.0,476.0,321.0,467.0,333.0,461.0,332.0,469.0,325.0,477.0,316.0,485.0,307.0" stroke="black" stroke-width="1" fill="none" />
<polyline points="482.0,315.0,474.0,322.0" stroke="black" stroke-width="1" fill="none" />
<polyline points="426.0,302.0,420.0,307.0" stroke="black" stroke-width="1" fill="none" />
<polyline points="423.0,304.0,419.0,304.0,412.0,312.0,406.0,320.0,401.0,324.0,405.0,332.0,401.0,339.0" stroke="black" stroke-width="1" fill="none" />
<polyline points="388.0,325.0,396.0,316.0,392.0,323.0,392.0,332.0,393.0,334.0,401.0,336.0,412.0,330.0,420.0,333.0,428.0,337.0,436.0,339.0" stroke="black" stroke-width="1" fill="none" />
<polyline points="425.0,361.0,417.0,362.0" stroke="black" stroke-width="1" fill="none" />
<polyline points="405.0,365.0,423.0,360.0,432.0,353.0,437.0,347.0,437.0,341.0,456.0,335.0,467.0,327.0,473.0,319.0,480.0,311.0,486.0,303.0,488.0,295.0,491.0,287.0,493.0,279.0,494.0,271.0,487.0,263.0,481.0,255.0,474.0,247.0,481.0,238.0,478.0,234.0,483.0,225.0,486.0,217.0,491.0,209.0,498.0,201.0,499.0,193.0,497.0,191.0,497.0,183.0,496.0,180.0,491.0,171.0,480.0,161.0,477.0,161.0,469.0,158.0" stroke="black" stroke-width="1" fill="none" />
<polyline points="475.0,157.0,483.0,158.0,491.0,165.0,493.0,169.0" stroke="black" stroke-width="1" fill="none" />
<polyline points="489.0,167.0,484.0,163.0,476.0,158.0" stroke="black" stroke-width="1" fill="none" />
<polyline points="477.0,137.0,479.0,129.0" stroke="black" stroke-width="1" fill="none" />
<polyline points="476.0,127.0,468.0,129.0,460.0,139.0,452.0,147.0,444.0,156.0,436.0,161.0,447.0,152.0,455.0,144.0,462.0,136.0,470.0,128.0" stroke="black" stroke-width="1" fill="none" />
<polyline points="471.0,109.0,463.0,99.0" stroke="black" stroke-width="1" fill="none" />
<polyline points="442.0,107.0,433.0,108.0,425.0,90.0,417.0,74.0,409.0,57.0" stroke="black" stroke-width="1" fill="none" />
<polyline points="408.0,54.0,416.0,65.0,424.0,82.0,432.0,98.0,440.0,105.0,448.0,103.0" stroke="black" stroke-width="1" fill="none" />
<polyline points="435.0,119.0,435.0,111.0,433.0,102.0,429.0,94.0,425.0,86.0,421.0,78.0,418.0,70.0,414.0,62.0,403.0,54.0,395.0,53.0" stroke="black" stroke-width="1" fill="none" />
<polyline points="391.0,39.0,382.0,43.0,385.0,51.0,387.0,49.0,395.0,50.0,403.0,51.0,411.0,49.0,419.0,44.0" stroke="black" stroke-width="1" fill="none" />
<polyline points="419.0,44.0,404.0,52.0,410.0,59.0,413.0,67.0,417.0,75.0,421.0,83.0,425.0,91.0,429.0,99.0,432.0,107.0,433.0,115.0" stroke="black" stroke-width="1" fill="none" />
<polyline points="413.0,143.0,392.0,135.0,387.0,133.0,383.0,125.0,378.0,117.0,369.0,111.0,361.0,115.0,353.0,125.0,345.0,134.0,337.0,138.0,329.0,141.0,321.0,143.0,313.0,142.0,305.0,136.0" stroke="black" stroke-width="1" fill="none" />
<polyline points="305.0,141.0,313.0,147.0" stroke="black" stroke-width="1" fill="none" />
<polyline points="294.0,143.0,280.0,151.0" stroke="black" stroke-width="1" fill="none" />
<polyline points="246.0,138.0,238.0,151.0,230.0,159.0,222.0,168.0,214.0,175.0,206.0,179.0,198.0,178.0,190.0,177.0,182.0,176.0,174.0,171.0,166.0,161.0,158.0,154.0,150.0,146.0,142.0,137.0,134.0,132.0,126.0,130.0,118.0,130.0,110.0,129.0" stroke="black" stroke-width="1" fill="none" />
<polyline points="115.0,122.0,107.0,128.0,117.0,119.0" stroke="black" stroke-width="1" fill="none" />
<polyline points="120.0,104.0,112.0,90.0" stroke="black" stroke-width="1" fill="none" />
<polyline points="113.0,87.0,116.0,95.0,121.0,103.0,128.0,113.0,136.0,115.0,144.0,118.0" stroke="black" stroke-width="1" fill="none" />
<polyline points="161.0,118.0,169.0,114.0,168.0,111.0,164.0,116.0,160.0,124.0,164.0,126.0,167.0,131.0,171.0,139.0" stroke="black" stroke-width="1" fill="none" />
<polyline points="171.0,137.0,179.0,145.0,187.0,145.0,195.0,146.0" stroke="black" stroke-width="1" fill="none" />
<polyline points="189.0,119.0,181.0,114.0" stroke="black" stroke-width="1" fill="none" />
<polyline points="180.0,112.0,189.0,120.0,194.0,128.0,195.0,136.0" stroke="black" stroke-width="1" fill="none" />
<polyline points="194.0,144.0,186.0,142.0,178.0,142.0,170.0,133.0,162.0,121.0" stroke="black" stroke-width="1" fill="none" />
<polyline points="184.0,113.0,194.0,121.0,196.0,129.0,197.0,137.0" stroke="black" stroke-width="1" fill="none" />
<polyline points="205.0,112.0,216.0,104.0,223.0,92.0,229.0,84.0,236.0,76.0,222.0,68.0,207.0,60.0,192.0,52.0,184.0,52.0" stroke="black" stroke-width="1" fill="none" />
<polyline points="198.0,55.0,206.0,59.0,214.0,63.0,222.0,67.0,230.0,71.0,238.0,73.0,246.0,84.0" stroke="black" stroke-width="1" fill="none" />
<polyline points="245.0,81.0,248.0,89.0,252.0,97.0,259.0,111.0" stroke="black" stroke-width="1" fill="none" />
<polyline points="249.0,116.0,241.0,111.0" stroke="black" stroke-width="1" fill="none" />
<polyline points="243.0,110.0,259.0,119.0,259.0,127.0,258.0,135.0,259.0,143.0" stroke="black" stroke-width="1" fill="none" />
<polyline points="252.0,115.0,244.0,110.0,236.0,106.0,228.0,101.0,217.0,99.0,209.0,106.0,201.0,112.0,193.0,118.0,185.0,113.0,173.0,110.0,165.0,112.0,157.0,118.0,149.0,117.0,141.0,114.0,133.0,112.0,125.0,110.0,117.0,117.0,109.0,123.0,101.0,121.0,113.0,120.0,121.0,112.0,116.0,101.0,113.0,93.0,107.0,84.0,99.0,106.0" stroke="black" stroke-width="1" fill="none" />
<polyline points="90.0,117.0,97.0,120.0,101.0,128.0,104.0,136.0,107.0,144.0,109.0,152.0,101.0,160.0,92.0,168.0" stroke="black" stroke-width="1" fill="none" />
<polyline points="73.0,162.0,73.0,170.0,74.0,178.0" stroke="black" stroke-width="1" fill="none" />
<polyline points="70.0,192.0,62.0,195.0,72.0,187.0,72.0,179.0,71.0,171.0,71.0,163.0,71.0,155.0,72.0,147.0,72.0,139.0,73.0,131.0,73.0,123.0,73.0,115.0,73.0,107.0,73.0,99.0,74.0,91.0,74.0,83.0,74.0,75.0,75.0,67.0,75.0,59.0,75.0,51.0,75.0,43.0,75.0,35.0,76.0,27.0,76.0,19.0,79.0,11.0,79.0,7.0,71.0,13.0" stroke="black" stroke-width="1" fill="none" />
<polyline points="78.0,6.0,72.0,14.0,72.0,22.0,69.0,30.0,69.0,38.0" stroke="black" stroke-width="1" fill="none" />
<polyline points="77.0,30.0,77.0,38.0,77.0,46.0,78.0,55.0,77.0,63.0,77.0,71.0,77.0,79.0,77.0,87.0,76.0,95.0,76.0,103.0,75.0,111.0,75.0,119.0,75.0,127.0,75.0,135.0,74.0,143.0" stroke="black" stroke-width="1" fill="none" />
<polyline points="61.0,137.0,64.0,145.0,63.0,153.0,62.0,161.0,61.0,169.0,59.0,177.0,59.0,185.0,60.0,193.0" stroke="black" stroke-width="1" fill="none" />
<polyline points="64.0,194.0,62.0,186.0,62.0,178.0,63.0,170.0,64.0,162.0,65.0,154.0,66.0,146.0,64.0,139.0,56.0,144.0,48.0,149.0,40.0,159.0,32.0,170.0,24.0,175.0" stroke="black" stroke-width="1" fill="none" />
<polyline points="22.0,179.0,31.0,179.0,20.0,184.0,27.0,189.0,34.0,178.0,34.0,184.0,32.0,192.0,31.0,201.0,29.0,209.0" stroke="black" stroke-width="1" fill="none" />
<polyline points="17.0,213.0,19.0,221.0,18.0,229.0,18.0,236.0,16.0,244.0,18.0,252.0" stroke="black" stroke-width="1" fill="none" />
<polyline points="12.0,241.0,24.0,228.0,21.0,236.0,26.0,242.0,31.0,250.0,41.0,254.0" stroke="black" stroke-width="1" fill="none" />
<polyline points="36.0,249.0,28.0,239.0" stroke="black" stroke-width="1" fill="none" />
<polyline points="29.0,232.0,38.0,240.0" stroke="black" stroke-width="1" fill="none" />
<polyline points="43.0,242.0,35.0,237.0,27.0,230.0" stroke="black" stroke-width="1" fill="none" />
<polyline points="20.0,238.0,20.0,246.0,21.0,253.0,21.0,261.0,20.0,269.0,20.0,277.0,20.0,285.0,22.0,293.0,20.0,300.0,28.0,308.0,36.0,316.0,44.0,321.0" stroke="black" stroke-width="1" fill="none" />
<polyline points="53.0,321.0,45.0,318.0,43.0,311.0,35.0,310.0" stroke="black" stroke-width="1" fill="none" />
<polyline points="34.0,308.0,36.0,312.0,37.0,322.0,45.0,331.0,54.0,334.0,62.0,333.0,70.0,333.0,78.0,334.0,86.0,333.0,94.0,323.0,102.0,317.0,110.0,315.0" stroke="black" stroke-width="1" fill="none" />
<polyline points="106.0,315.0,93.0,323.0,87.0,331.0,90.0,337.0,98.0,334.0,106.0,328.0,114.0,321.0,122.0,314.0,130.0,306.0" stroke="black" stroke-width="1" fill="none" />
<polyline points="144.0,289.0,152.0,288.0,160.0,277.0" stroke="black" stroke-width="1" fill="none" />
<polyline points="158.0,285.0,150.0,296.0,143.0,310.0,139.0,315.0,131.0,324.0,123.0,330.0,115.0,335.0,107.0,341.0,99.0,345.0,91.0,344.0,83.0,343.0,75.0,343.0,67.0,343.0,60.0,340.0,57.0,338.0,62.0,329.0,73.0,321.0,70.0,316.0,62.0,319.0,58.0,316.0,59.0,308.0,61.0,300.0,64.0,292.0,65.0,284.0,67.0,276.0,68.0,268.0,70.0,260.0,71.0,252.0,79.0,245.0,98.0,237.0,119.0,229.0,132.0,219.0,133.0,211.0,134.0,203.0,131.0,195.0,125.0,187.0,123.0,179.0,124.0,171.0,126.0,163.0,123.0,172.0" stroke="black" stroke-width="1" fill="none" />
<polyline points="126.0,163.0,134.0,158.0,142.0,160.0,150.0,162.0,154.0,160.0,151.0,168.0,148.0,176.0,145.0,184.0,142.0,192.0,139.0,198.0,137.0,206.0,135.0,214.0" stroke="black" stroke-width="1" fill="none" />
<polyline points="142.0,207.0,143.0,215.0,140.0,223.0,141.0,231.0,144.0,239.0" stroke="black" stroke-width="1" fill="none" />
<polyline points="142.0,235.0,150.0,243.0,164.0,248.0,172.0,253.0,180.0,250.0" stroke="black" stroke-width="1" fill="none" />
<polyline points="178.0,256.0,184.0,248.0,178.0,256.0,170.0,255.0,162.0,250.0" stroke="black" stroke-width="1" fill="none" />
<polyline points="160.0,245.0,152.0,241.0,144.0,231.0" stroke="black" stroke-width="1" fill="none" />
<polyline points="129.0,228.0,126.0,236.0,122.0,244.0,114.0,252.0" stroke="black" stroke-width="1" fill="none" />
<polyline points="125.0,239.0,117.0,250.0,109.0,255.0,101.0,256.0,93.0,255.0,85.0,263.0,77.0,274.0,69.0,295.0" stroke="black" stroke-width="1" fill="none" />
<polyline points="96.0,317.0,110.0,309.0,119.0,301.0,122.0,293.0,128.0,285.0,136.0,277.0,148.0,269.0" stroke="black" stroke-width="1" fill="none" />
<polyline points="150.0,274.0,148.0,274.0,143.0,274.0,137.0,280.0,136.0,288.0,134.0,296.0,131.0,304.0,124.0,312.0,115.0,320.0,105.0,328.0,95.0,336.0,95.0,333.0,103.0,327.0,111.0,320.0,112.0,319.0,102.0,327.0" stroke="black" stroke-width="1" fill="none" />
<polyline points="112.0,337.0,124.0,329.0,135.0,321.0,140.0,313.0,142.0,305.0,145.0,297.0,144.0,289.0,154.0,285.0,160.0,277.0,161.0,271.0,153.0,272.0,145.0,273.0,137.0,283.0" stroke="black" stroke-width="1" fill="none" />
<polyline points="116.0,288.0,111.0,296.0,103.0,305.0,107.0,302.0,114.0,292.0" stroke="black" stroke-width="1" fill="none" />
<polyline points="101.0,303.0,109.0,295.0,114.0,287.0,122.0,279.0,127.0,271.0,132.0,263.0,135.0,263.0,139.0,255.0" stroke="black" stroke-width="1" fill="none" />
<polyline points="138.0,254.0,136.0,262.0,128.0,270.0,120.0,281.0,112.0,290.0,104.0,301.0,96.0,306.0,88.0,310.0,80.0,311.0,72.0,313.0,64.0,316.0,61.0,311.0,66.0,307.0,67.0,303.0,69.0,295.0,73.0,287.0,76.0,279.0,78.0,271.0,85.0,263.0,89.0,255.0" stroke="black" stroke-width="1" fill="none" />
<polyline points="81.0,247.0,89.0,243.0,97.0,241.0,108.0,236.0,116.0,233.0,124.0,231.0" stroke="black" stroke-width="1" fill="none" />
<polyline points="124.0,232.0,121.0,240.0,115.0,248.0" stroke="black" stroke-width="1" fill="none" />
<polyline points="121.0,231.0,101.0,239.0,94.0,241.0,79.0,250.0,85.0,258.0,80.0,266.0,80.0,266.0" stroke="black" stroke-width="1" fill="none" />
<polyline points="72.0,226.0,72.0,234.0,72.0,242.0,77.0,246.0,85.0,242.0,93.0,239.0,101.0,236.0,109.0,233.0,117.0,230.0,125.0,227.0" stroke="black" stroke-width="1" fill="none" />
<polyline points="122.0,239.0,114.0,249.0,106.0,253.0,98.0,253.0,90.0,253.0,82.0,249.0,79.0,249.0,73.0,253.0,70.0,241.0,70.0,233.0,70.0,225.0" stroke="black" stroke-width="1" fill="none" />
<polyline points="56.0,224.0,53.0,232.0,53.0,231.0,56.0,223.0" stroke="black" stroke-width="1" fill="none" />
<polyline points="54.0,223.0,50.0,231.0,51.0,235.0,48.0,244.0,48.0,252.0,47.0,260.0,46.0,268.0,45.0,276.0,45.0,284.0,45.0,292.0,45.0,300.0,45.0,308.0,45.0,316.0,49.0,328.0,57.0,331.0,65.0,327.0,73.0,321.0,81.0,320.0,89.0,321.0,97.0,317.0,105.0,312.0,113.0,307.0,121.0,294.0,129.0,284.0,137.0,276.0,145.0,270.0,153.0,269.0,161.0,269.0,169.0,269.0,177.0,264.0,185.0,256.0" stroke="black" stroke-width="1" fill="none" />
<polyline points="185.0,262.0,175.0,269.0,183.0,263.0" stroke="black" stroke-width="1" fill="none" />
<polyline points="189.0,255.0,189.0,247.0" stroke="black" stroke-width="1" fill="none" />
<polyline points="192.0,216.0,200.0,213.0" stroke="black" stroke-width="1" fill="none" />
<polyline points="215.0,194.0,223.0,189.0,231.0,187.0" stroke="black" stroke-width="1" fill="none" />
<polyline points="227.0,202.0,219.0,210.0,225.0,206.0" stroke="black" stroke-width="1" fill="none" />
<polyline points="208.0,197.0,199.0,202.0,197.0,200.0,189.0,187.0" stroke="black" stroke-width="1" fill="none" />
<polyline points="147.0,164.0,139.0,162.0,131.0,163.0" stroke="black" stroke-width="1" fill="none" />
<polyline points="129.0,162.0,126.0,170.0,125.0,178.0,128.0,186.0,130.0,188.0,133.0,199.0,140.0,195.0" stroke="black" stroke-width="1" fill="none" />
<polyline points="141.0,202.0,140.0,210.0,140.0,218.0,143.0,228.0,145.0,236.0,156.0,244.0,166.0,253.0" stroke="black" stroke-width="1" fill="none" />
<polyline points="142.0,184.0,144.0,180.0,147.0,172.0,146.0,164.0" stroke="black" stroke-width="1" fill="none" />
<polyline points="139.0,135.0,147.0,143.0,155.0,151.0,163.0,159.0,170.0,167.0,178.0,175.0" stroke="black" stroke-width="1" fill="none" />
<polyline points="133.0,132.0,140.0,140.0,148.0,148.0,153.0,156.0,158.0,158.0,165.0,166.0,172.0,174.0,180.0,182.0,187.0,190.0,190.0,198.0,191.0,206.0,190.0,214.0,189.0,222.0,187.0,230.0,184.0,238.0,182.0,246.0" stroke="black" stroke-width="1" fill="none" />
<polyline points="248.0,175.0,241.0,183.0,235.0,191.0,229.0,194.0,224.0,202.0,213.0,209.0,209.0,213.0,214.0,208.0,220.0,205.0,228.0,195.0,232.0,189.0,240.0,184.0,250.0,173.0" stroke="black" stroke-width="1" fill="none" />
<polyline points="214.0,179.0,217.0,173.0,224.0,165.0,232.0,157.0,241.0,149.0,246.0,141.0,248.0,133.0,251.0,125.0,249.0,117.0,240.0,109.0,228.0,101.0" stroke="black" stroke-width="1" fill="none" />
<polyline points="228.0,88.0,236.0,80.0,243.0,84.0,246.0,92.0,250.0,100.0,255.0,108.0,259.0,111.0,256.0,119.0,256.0,127.0,256.0,135.0,256.0,143.0,256.0,151.0,256.0,159.0,252.0,167.0,244.0,175.0,233.0,183.0,217.0,191.0,216.0,192.0,224.0,186.0,232.0,184.0,240.0,179.0,248.0,171.0,256.0,158.0,264.0,151.0,269.0,151.0,277.0,149.0,285.0,145.0,293.0,141.0,301.0,135.0,309.0,123.0,317.0,113.0,325.0,104.0,326.0,93.0" stroke="black" stroke-width="1" fill="none" />
<polyline points="309.0,86.0,307.0,94.0" stroke="black" stroke-width="1" fill="none" />
<polyline points="319.0,87.0,313.0,79.0" stroke="black" stroke-width="1" fill="none" />
<polyline points="309.0,78.0,306.0,86.0,304.0,94.0,296.0,102.0" stroke="black" stroke-width="1" fill="none" />
<polyline points="285.0,86.0,277.0,78.0" stroke="black" stroke-width="1" fill="none" />
<polyline points="265.0,73.0,257.0,67.0,249.0,62.0" stroke="black" stroke-width="1" fill="none" />
<polyline points="254.0,61.0,260.0,69.0" stroke="black" stroke-width="1" fill="none" />
<polyline points="255.0,62.0,266.0,70.0,274.0,78.0,286.0,87.0,288.0,95.0,286.0,103.0,289.0,107.0,293.0,104.0,301.0,99.0,305.0,89.0,313.0,78.0,321.0,88.0,329.0,84.0" stroke="black" stroke-width="1" fill="none" />
<polyline points="287.0,89.0,279.0,79.0,271.0,73.0,263.0,67.0,255.0,61.0,247.0,52.0,241.0,63.0,233.0,66.0,225.0,66.0,217.0,61.0,209.0,57.0,201.0,53.0,194.0,55.0,186.0,55.0,178.0,55.0,170.0,55.0,161.0,51.0,151.0,51.0,141.0,55.0,133.0,60.0,122.0,67.0,116.0,70.0,131.0,65.0,130.0,61.0,140.0,59.0,150.0,51.0" stroke="black" stroke-width="1" fill="none" />
<polyline points="125.0,67.0,115.0,75.0,107.0,78.0,107.0,84.0,104.0,92.0,101.0,100.0,99.0,108.0,99.0,116.0,102.0,124.0,107.0,135.0,110.0,143.0,111.0,151.0,107.0,159.0,97.0,167.0,86.0,176.0,94.0,170.0,102.0,163.0,110.0,154.0" stroke="black" stroke-width="1" fill="none" />
<polyline points="109.0,150.0,101.0,160.0,93.0,167.0,85.0,174.0,77.0,186.0,69.0,195.0,73.0,193.0,79.0,185.0,83.0,177.0,83.0,169.0,84.0,161.0,85.0,153.0,86.0,145.0,87.0,137.0,88.0,129.0" stroke="black" stroke-width="1" fill="none" />
<polyline points="89.0,123.0,97.0,119.0,105.0,131.0,113.0,132.0,121.0,133.0,129.0,133.0,137.0,136.0,145.0,144.0,153.0,152.0,161.0,160.0,169.0,170.0,177.0,178.0,185.0,186.0,191.0,191.0,193.0,199.0,193.0,208.0,196.0,216.0,191.0,223.0,191.0,233.0,187.0,241.0,186.0,249.0,185.0,257.0,174.0,265.0,162.0,279.0,158.0,286.0,152.0,294.0,148.0,302.0,144.0,306.0,144.0,313.0,137.0,323.0,124.0,334.0,113.0,341.0,103.0,347.0" stroke="black" stroke-width="1" fill="none" />
<polyline points="19.0,290.0,18.0,282.0" stroke="black" stroke-width="1" fill="none" />
<polyline points="16.0,278.0,16.0,286.0,17.0,294.0,17.0,302.0" stroke="black" stroke-width="1" fill="none" />
<polyline points="45.0,245.0,39.0,237.0,24.0,228.0,16.0,238.0" stroke="black" stroke-width="1" fill="none" />
<polyline points="14.0,237.0,12.0,245.0,14.0,253.0,17.0,263.0,16.0,271.0,13.0,279.0,13.0,287.0,13.0,295.0,25.0,306.0,29.0,310.0,33.0,318.0,41.0,326.0" stroke="black" stroke-width="1" fill="none" />
<polyline points="42.0,239.0,34.0,232.0,26.0,226.0,18.0,218.0" stroke="black" stroke-width="1" fill="none" />
<polyline points="24.0,193.0,29.0,185.0" stroke="black" stroke-width="1" fill="none" />
<polyline points="36.0,180.0,35.0,188.0,33.0,199.0,32.0,207.0,30.0,215.0" stroke="black" stroke-width="1" fill="none" />
<polyline points="65.0,106.0,65.0,98.0" stroke="black" stroke-width="1" fill="none" />
<polyline points="111.0,87.0,119.0,99.0" stroke="black" stroke-width="1" fill="none" />
<polyline points="167.0,52.0,159.0,55.0,151.0,55.0,143.0,58.0,135.0,63.0,127.0,68.0,120.0,72.0,112.0,78.0,107.0,78.0,99.0,96.0,98.0,94.0,96.0,86.0,97.0,78.0,95.0,69.0,94.0,55.0,93.0,44.0,91.0,36.0" stroke="black" stroke-width="1" fill="none" />
<polyline points="72.0,25.0,72.0,33.0,71.0,41.0,68.0,49.0,71.0,54.0,70.0,62.0,67.0,70.0,70.0,74.0,69.0,82.0,66.0,90.0,69.0,96.0,69.0,104.0,65.0,112.0,68.0,114.0,64.0,122.0,67.0,123.0,67.0,131.0,64.0,139.0,50.0,147.0,43.0,155.0,37.0,163.0,31.0,171.0,26.0,179.0,23.0,187.0,18.0,195.0,22.0,197.0,19.0,205.0,14.0,213.0,14.0,221.0,27.0,230.0,27.0,238.0,31.0,246.0,37.0,253.0,44.0,261.0,43.0,269.0,42.0,277.0,42.0,285.0,42.0,293.0,42.0,301.0,42.0,309.0,40.0,312.0,39.0,320.0,47.0,320.0,49.0,329.0,54.0,335.0,63.0,345.0,71.0,347.0,79.0,347.0,87.0,346.0,101.0,348.0,109.0,342.0,116.0,338.0,123.0,335.0,131.0,329.0" stroke="black" stroke-width="1" fill="none" />
<polyline points="258.0,401.0,256.0,409.0,256.0,417.0,254.0,417.0,256.0,425.0,258.0,422.0,266.0,420.0,274.0,418.0,281.0,413.0,289.0,420.0" stroke="black" stroke-width="1" fill="none" />
<polyline points="284.0,416.0,292.0,424.0,288.0,432.0,286.0,439.0" stroke="black" stroke-width="1" fill="none" />
<polyline points="268.0,442.0,260.0,445.0,252.0,454.0" stroke="black" stroke-width="1" fill="none" />
<polyline points="255.0,456.0,263.0,460.0,271.0,465.0,279.0,470.0,287.0,467.0,295.0,465.0,303.0,463.0,311.0,462.0,319.0,461.0" stroke="black" stroke-width="1" fill="none" />
<polyline points="309.0,467.0,317.0,473.0,325.0,470.0,333.0,476.0,344.0,477.0,352.0,477.0,360.0,477.0,368.0,479.0,376.0,482.0,384.0,488.0" stroke="black" stroke-width="1" fill="none" />
<polyline points="376.0,485.0,364.0,486.0,356.0,488.0,348.0,489.0,340.0,484.0,328.0,485.0,320.0,484.0,317.0,481.0,317.0,473.0,316.0,465.0,310.0,459.0,316.0,454.0,318.0,446.0,323.0,438.0,328.0,428.0,336.0,420.0,345.0,412.0,352.0,404.0,356.0,396.0,347.0,397.0,339.0,397.0,331.0,392.0,323.0,384.0,315.0,377.0" stroke="black" stroke-width="1" fill="none" />
<polyline points="314.0,376.0,322.0,384.0,330.0,392.0" stroke="black" stroke-width="1" fill="none" />
<polyline points="336.0,393.0,327.0,385.0,320.0,377.0,309.0,380.0" stroke="black" stroke-width="1" fill="none" />
<polyline points="300.0,378.0,306.0,370.0" stroke="black" stroke-width="1" fill="none" />
<polyline points="314.0,368.0,322.0,373.0,330.0,376.0,338.0,377.0,346.0,373.0" stroke="black" stroke-width="1" fill="none" />
<polyline points="350.0,369.0,347.0,361.0" stroke="black" stroke-width="1" fill="none" />
<polyline points="347.0,361.0,355.0,368.0,367.0,357.0,375.0,364.0,383.0,368.0,392.0,374.0" stroke="black" stroke-width="1" fill="none" />
<polyline points="394.0,369.0,393.0,373.0,390.0,374.0,388.0,382.0,382.0,390.0" stroke="black" stroke-width="1" fill="none" />
<polyline points="387.0,389.0,391.0,382.0,392.0,381.0,384.0,387.0,376.0,394.0,368.0,394.0" stroke="black" stroke-width="1" fill="none" />
<polyline points="383.0,347.0,375.0,345.0,367.0,341.0,359.0,339.0" stroke="black" stroke-width="1" fill="none" />
<polyline points="355.0,340.0,363.0,348.0,371.0,357.0,379.0,364.0,387.0,365.0,395.0,366.0,403.0,366.0,411.0,363.0,418.0,364.0,420.0,359.0,428.0,356.0,435.0,353.0" stroke="black" stroke-width="1" fill="none" />
<polyline points="419.0,291.0,420.0,289.0,414.0,289.0,418.0,287.0,422.0,285.0,414.0,283.0" stroke="black" stroke-width="1" fill="none" />
<polyline points="401.0,276.0,403.0,273.0,411.0,266.0,419.0,256.0" stroke="black" stroke-width="1" fill="none" />
<polyline points="419.0,261.0,424.0,256.0,423.0,245.0,406.0,242.0" stroke="black" stroke-width="1" fill="none" />
<polyline points="415.0,244.0,424.0,252.0,416.0,260.0,410.0,268.0,409.0,275.0,403.0,277.0" stroke="black" stroke-width="1" fill="none" />
<polyline points="391.0,278.0,389.0,286.0,390.0,294.0,394.0,302.0,397.0,310.0,402.0,318.0,408.0,326.0,420.0,334.0,441.0,339.0" stroke="black" stroke-width="1" fill="none" />
<polyline points="460.0,295.0,452.0,303.0,444.0,307.0,436.0,306.0,428.0,302.0,420.0,302.0,412.0,312.0,404.0,322.0,396.0,305.0,396.0,290.0,397.0,282.0,399.0,274.0,398.0,266.0,390.0,266.0" stroke="black" stroke-width="1" fill="none" />
<polyline points="392.0,260.0,400.0,253.0" stroke="black" stroke-width="1" fill="none" />
<polyline points="389.0,277.0,381.0,278.0,373.0,285.0,365.0,293.0,360.0,293.0,352.0,304.0" stroke="black" stroke-width="1" fill="none" />
<polyline points="361.0,308.0,369.0,307.0,377.0,304.0,385.0,299.0,390.0,302.0,394.0,310.0,393.0,318.0,388.0,326.0,390.0,334.0,389.0,342.0,395.0,342.0,403.0,338.0" stroke="black" stroke-width="1" fill="none" />
<polyline points="396.0,290.0,388.0,287.0" stroke="black" stroke-width="1" fill="none" />
<polyline points="382.0,277.0,373.0,285.0,365.0,293.0,360.0,301.0,358.0,304.0,366.0,305.0,374.0,302.0,382.0,298.0,392.0,303.0,400.0,320.0,407.0,323.0,412.0,327.0,420.0,330.0,428.0,334.0,436.0,336.0,444.0,335.0,452.0,337.0,460.0,336.0,468.0,332.0" stroke="black" stroke-width="1" fill="none" />
<polyline points="439.0,250.0,447.0,247.0,455.0,246.0,463.0,244.0,471.0,242.0,479.0,231.0,487.0,215.0,488.0,220.0,487.0,223.0,493.0,211.0" stroke="black" stroke-width="1" fill="none" />
<polyline points="450.0,218.0,442.0,215.0,434.0,210.0,426.0,205.0" stroke="black" stroke-width="1" fill="none" />
<polyline points="425.0,203.0,435.0,211.0,450.0,219.0,453.0,227.0" stroke="black" stroke-width="1" fill="none" />
<polyline points="457.0,220.0,449.0,215.0,441.0,211.0,433.0,206.0,425.0,203.0" stroke="black" stroke-width="1" fill="none" />
<polyline points="428.0,204.0,442.0,212.0,456.0,220.0,455.0,229.0" stroke="black" stroke-width="1" fill="none" />
<polyline points="425.0,189.0,442.0,181.0,455.0,173.0,460.0,165.0,464.0,157.0,470.0,148.0,474.0,140.0,476.0,132.0,482.0,124.0,481.0,116.0,479.0,108.0,477.0,100.0,475.0,92.0,473.0,84.0,471.0,76.0,466.0,63.0,458.0,60.0,450.0,56.0" stroke="black" stroke-width="1" fill="none" />
<polyline points="444.0,53.0,457.0,56.0,469.0,66.0,474.0,74.0,476.0,82.0,477.0,90.0,481.0,103.0,484.0,113.0,485.0,122.0,485.0,127.0,480.0,134.0,477.0,142.0,475.0,153.0,468.0,157.0,463.0,165.0,459.0,173.0,448.0,181.0,428.0,189.0" stroke="black" stroke-width="1" fill="none" />
<polyline points="397.0,203.0,389.0,207.0,381.0,202.0" stroke="black" stroke-width="1" fill="none" />
<polyline points="376.0,200.0,380.0,202.0,383.0,210.0,387.0,218.0,392.0,228.0,399.0,235.0,406.0,240.0,411.0,247.0,406.0,249.0,414.0,245.0,422.0,247.0,430.0,253.0,438.0,253.0,446.0,269.0,454.0,270.0,462.0,275.0" stroke="black" stroke-width="1" fill="none" />
<polyline points="445.0,306.0,458.0,298.0,463.0,290.0,467.0,282.0,453.0,274.0,444.0,266.0,441.0,258.0,434.0,249.0,443.0,241.0,440.0,244.0,432.0,251.0,424.0,245.0,416.0,241.0,408.0,238.0,400.0,235.0,392.0,227.0,384.0,211.0" stroke="black" stroke-width="1" fill="none" />
<polyline points="394.0,204.0,404.0,196.0,386.0,188.0" stroke="black" stroke-width="1" fill="none" />
<polyline points="375.0,181.0,383.0,187.0,379.0,195.0,376.0,203.0,379.0,211.0,383.0,219.0,390.0,224.0,389.0,232.0,399.0,240.0,405.0,248.0,399.0,256.0,394.0,256.0,392.0,264.0,395.0,265.0,393.0,273.0,387.0,281.0,385.0,289.0,383.0,297.0" stroke="black" stroke-width="1" fill="none" />
<polyline points="372.0,281.0,380.0,274.0,374.0,280.0,359.0,294.0,353.0,303.0,356.0,307.0,352.0,315.0,349.0,323.0,331.0,331.0" stroke="black" stroke-width="1" fill="none" />
<polyline points="325.0,332.0,326.0,324.0,322.0,323.0,314.0,331.0" stroke="black" stroke-width="1" fill="none" />
<polyline points="310.0,330.0,318.0,322.0,326.0,314.0,334.0,314.0,342.0,311.0,350.0,311.0,355.0,321.0,343.0,329.0,328.0,335.0,336.0,332.0,344.0,329.0,354.0,325.0,353.0,333.0,355.0,341.0,363.0,349.0,367.0,357.0,375.0,365.0" stroke="black" stroke-width="1" fill="none" />
<polyline points="386.0,343.0,378.0,343.0,370.0,339.0,362.0,336.0,354.0,339.0" stroke="black" stroke-width="1" fill="none" />
<polyline points="351.0,341.0,359.0,349.0,372.0,359.0" stroke="black" stroke-width="1" fill="none" />
<polyline points="360.0,365.0,363.0,357.0,358.0,349.0,351.0,341.0,350.0,333.0,350.0,323.0,342.0,327.0,334.0,330.0,326.0,330.0,330.0,322.0,333.0,314.0,332.0,311.0" stroke="black" stroke-width="1" fill="none" />
<polyline points="328.0,312.0,320.0,320.0,312.0,328.0,309.0,337.0,302.0,346.0,310.0,354.0,308.0,362.0,302.0,370.0,296.0,378.0,299.0,379.0,310.0,371.0,318.0,375.0,326.0,377.0,334.0,379.0" stroke="black" stroke-width="1" fill="none" />
<polyline points="318.0,359.0,326.0,350.0,334.0,349.0" stroke="black" stroke-width="1" fill="none" />
<polyline points="335.0,347.0,345.0,361.0,347.0,369.0" stroke="black" stroke-width="1" fill="none" />
<polyline points="341.0,352.0,333.0,345.0,325.0,347.0,317.0,355.0,322.0,354.0,334.0,346.0" stroke="black" stroke-width="1" fill="none" />
<polyline points="331.0,344.0,319.0,352.0,315.0,360.0,317.0,371.0,327.0,384.0,335.0,392.0,343.0,394.0,351.0,395.0,358.0,395.0,363.0,396.0,371.0,399.0,378.0,397.0,386.0,390.0" stroke="black" stroke-width="1" fill="none" />
<polyline points="349.0,408.0,341.0,416.0,333.0,423.0,325.0,426.0,317.0,426.0,309.0,426.0,301.0,426.0,293.0,420.0,285.0,412.0,281.0,407.0,273.0,407.0" stroke="black" stroke-width="1" fill="none" />
<polyline points="275.0,403.0,283.0,405.0" stroke="black" stroke-width="1" fill="none" />
<polyline points="284.0,385.0,276.0,377.0" stroke="black" stroke-width="1" fill="none" />
<polyline points="274.0,367.0,282.0,381.0,290.0,384.0,298.0,376.0,306.0,364.0" stroke="black" stroke-width="1" fill="none" />
<polyline points="299.0,348.0,291.0,348.0,283.0,357.0,275.0,365.0" stroke="black" stroke-width="1" fill="none" />
<polyline points="273.0,364.0,281.0,353.0,289.0,344.0,297.0,344.0,305.0,344.0,307.0,348.0" stroke="black" stroke-width="1" fill="none" />
<polyline points="289.0,348.0,284.0,356.0,278.0,364.0,276.0,377.0,283.0,385.0" stroke="black" stroke-width="1" fill="none" />
<polyline points="278.0,415.0,272.0,407.0,272.0,399.0,265.0,399.0,257.0,404.0" stroke="black" stroke-width="1" fill="none" />
<polyline points="246.0,428.0,249.0,416.0,245.0,424.0,242.0,435.0,245.0,444.0,255.0,447.0,263.0,440.0,271.0,440.0,279.0,439.0,287.0,434.0,295.0,427.0,303.0,429.0,311.0,429.0,319.0,430.0,328.0,428.0,336.0,425.0,343.0,418.0,346.0,415.0,339.0,422.0" stroke="black" stroke-width="1" fill="none" />
<polyline points="318.0,430.0,320.0,438.0" stroke="black" stroke-width="1" fill="none" />
<polyline points="317.0,452.0,305.0,465.0,297.0,467.0,289.0,469.0,281.0,473.0,273.0,472.0,265.0,468.0,255.0,460.0,247.0,456.0,245.0,448.0,247.0,447.0,247.0,439.0,246.0,431.0,249.0,423.0,252.0,415.0,252.0,407.0,257.0,399.0,271.0,395.0,258.0,398.0,250.0,411.0,242.0,427.0" stroke="black" stroke-width="1" fill="none" />
<polyline points="261.0,440.0,254.0,448.0,250.0,451.0,248.0,457.0,256.0,462.0,264.0,467.0" stroke="black" stroke-width="1" fill="none" />
<polyline points="286.0,472.0,293.0,480.0,304.0,491.0,313.0,492.0,317.0,499.0,327.0,494.0" stroke="black" stroke-width="1" fill="none" />
<polyline points="326.0,475.0,334.0,480.0,342.0,473.0,350.0,473.0" stroke="black" stroke-width="1" fill="none" />
<polyline points="368.0,474.0,376.0,479.0,384.0,475.0,392.0,476.0,400.0,473.0,408.0,477.0" stroke="black" stroke-width="1" fill="none" />
<polyline points="403.0,479.0,395.0,475.0" stroke="black" stroke-width="1" fill="none" />
<polyline points="399.0,473.0,407.0,481.0,405.0,489.0,404.0,497.0,402.0,502.0" stroke="black" stroke-width="1" fill="none" />
<polyline points="405.0,499.0,409.0,491.0" stroke="black" stroke-width="1" fill="none" />
<polyline points="396.0,484.0,388.0,484.0,386.0,484.0,385.0,476.0" stroke="black" stroke-width="1" fill="none" />
<polyline points="371.0,475.0,377.0,483.0,385.0,491.0,385.0,499.0" stroke="black" stroke-width="1" fill="none" />
<polyline points="373.0,507.0,365.0,508.0,357.0,508.0,357.0,505.0,362.0,511.0" stroke="black" stroke-width="1" fill="none" />
<polyline points="341.0,504.0,335.0,500.0,330.0,492.0,331.0,483.0,325.0,475.0,322.0,474.0" stroke="black" stroke-width="1" fill="none" />
<polyline points="330.0,473.0,336.0,481.0,329.0,489.0,325.0,497.0,328.0,500.0,333.0,505.0,341.0,508.0" stroke="black" stroke-width="1" fill="none" />
<polyline points="310.0,486.0,312.0,491.0,304.0,488.0,294.0,480.0,286.0,479.0" stroke="black" stroke-width="1" fill="none" />
<polyline points="286.0,479.0,295.0,487.0,303.0,487.0,311.0,482.0" stroke="black" stroke-width="1" fill="none" />
<polyline points="296.0,485.0,288.0,482.0,288.0,479.0" stroke="black" stroke-width="1" fill="none" />
<polyline points="307.0,463.0,310.0,471.0,313.0,479.0,313.0,484.0,308.0,492.0,311.0,495.0,319.0,495.0,322.0,499.0,330.0,488.0,336.0,501.0,344.0,505.0,352.0,508.0,352.0,510.0,357.0,505.0,365.0,503.0,373.0,501.0,381.0,500.0,381.0,505.0,389.0,505.0,395.0,506.0,400.0,504.0,408.0,495.0" stroke="black" stroke-width="1" fill="none" />
<polyline points="373.0,484.0,382.0,492.0,380.0,500.0,377.0,508.0,374.0,509.0" stroke="black" stroke-width="1" fill="none" />
<polyline points="272.0,467.0,259.0,459.0,256.0,451.0,262.0,443.0" stroke="black" stroke-width="1" fill="none" />
<polyline points="298.0,426.0,290.0,418.0,282.0,410.0,274.0,400.0,274.0,392.0,273.0,384.0,273.0,376.0,275.0,368.0,276.0,360.0,282.0,352.0,289.0,344.0" stroke="black" stroke-width="1" fill="none" />
<polyline points="322.0,321.0,315.0,329.0,313.0,337.0,313.0,345.0,313.0,353.0,312.0,361.0,309.0,369.0,311.0,377.0,310.0,385.0,310.0,393.0,300.0,401.0,290.0,402.0,293.0,405.0,301.0,400.0,309.0,394.0" stroke="black" stroke-width="1" fill="none" />
<polyline points="341.0,314.0,349.0,314.0" stroke="black" stroke-width="1" fill="none" />
<polyline points="353.0,176.0,345.0,170.0" stroke="black" stroke-width="1" fill="none" />
<polyline points="434.0,155.0,436.0,148.0,428.0,148.0,420.0,145.0,412.0,142.0,404.0,139.0,396.0,136.0,388.0,130.0,380.0,119.0,370.0,114.0,362.0,120.0,354.0,129.0,346.0,137.0,338.0,140.0,329.0,144.0,318.0,147.0,298.0,143.0,304.0,136.0,309.0,128.0,315.0,120.0,321.0,112.0,329.0,104.0,333.0,96.0,327.0,88.0,330.0,80.0,330.0,72.0,330.0,64.0,330.0,56.0,325.0,48.0,316.0,40.0,308.0,32.0,303.0,24.0,297.0,16.0,301.0,14.0,295.0,8.0,287.0,4.0" stroke="black" stroke-width="1" fill="none" />
<polyline points="293.0,14.0,288.0,22.0,285.0,26.0,293.0,14.0" stroke="black" stroke-width="1" fill="none" />
<polyline points="272.0,31.0,264.0,30.0,256.0,27.0,248.0,26.0,240.0,9.0" stroke="black" stroke-width="1" fill="none" />
<polyline points="238.0,11.0,246.0,23.0,254.0,24.0,262.0,26.0,270.0,29.0" stroke="black" stroke-width="1" fill="none" />
<polyline points="246.0,42.0,246.0,34.0,243.0,22.0,239.0,14.0,236.0,6.0" stroke="black" stroke-width="1" fill="none" />
<polyline points="234.0,5.0,221.0,13.0,206.0,21.0,192.0,24.0,191.0,32.0,185.0,40.0,181.0,48.0,182.0,45.0,188.0,35.0,194.0,23.0,202.0,18.0,210.0,16.0" stroke="black" stroke-width="1" fill="none" />
<polyline points="198.0,22.0,196.0,31.0,194.0,39.0,186.0,44.0,183.0,52.0" stroke="black" stroke-width="1" fill="none" />
<polyline points="191.0,29.0,196.0,36.0,196.0,48.0,198.0,52.0,212.0,59.0,227.0,67.0" stroke="black" stroke-width="1" fill="none" />
<polyline points="195.0,26.0,203.0,22.0,211.0,19.0,219.0,14.0,226.0,10.0,234.0,5.0,239.0,4.0,247.0,3.0,255.0,4.0,263.0,4.0,271.0,4.0,277.0,4.0,285.0,1.0,292.0,2.0,300.0,12.0,308.0,24.0,315.0,26.0,323.0,23.0,331.0,21.0,333.0,17.0,341.0,22.0,345.0,25.0,354.0,36.0,362.0,41.0,371.0,50.0,379.0,49.0" stroke="black" stroke-width="1" fill="none" />
<polyline points="396.0,37.0,404.0,34.0,417.0,35.0,427.0,42.0,434.0,44.0" stroke="black" stroke-width="1" fill="none" />
<polyline points="423.0,40.0,434.0,48.0,448.0,56.0,464.0,64.0,465.0,72.0,464.0,80.0,464.0,88.0,462.0,96.0,461.0,104.0" stroke="black" stroke-width="1" fill="none" />
<polyline points="476.0,112.0,465.0,104.0,464.0,96.0,466.0,88.0,467.0,80.0,467.0,72.0" stroke="black" stroke-width="1" fill="none" />
<polyline points="436.0,150.0,437.0,158.0" stroke="black" stroke-width="1" fill="none" />
<polyline points="352.0,98.0,359.0,90.0,358.0,82.0,355.0,74.0,353.0,66.0,356.0,58.0,360.0,50.0,362.0,42.0,351.0,34.0" stroke="black" stroke-width="1" fill="none" />
<polyline points="349.0,33.0,351.0,41.0" stroke="black" stroke-width="1" fill="none" />
<polyline points="357.0,33.0,366.0,40.0,367.0,48.0,369.0,56.0,371.0,64.0,373.0,72.0,375.0,80.0,376.0,88.0,375.0,96.0,375.0,104.0,372.0,112.0,362.0,120.0,356.0,127.0,349.0,135.0,334.0,144.0,331.0,152.0,333.0,156.0,338.0,164.0,348.0,172.0,354.0,172.0,357.0,180.0,360.0,182.0,368.0,183.0,376.0,185.0,380.0,192.0,388.0,188.0,396.0,191.0,404.0,194.0,413.0,195.0,421.0,193.0,434.0,188.0,442.0,184.0,450.0,180.0,458.0,174.0,466.0,159.0,471.0,153.0,473.0,155.0,477.0,144.0,484.0,133.0" stroke="black" stroke-width="1" fill="none" />
<polyline points="470.0,67.0,469.0,62.0,461.0,57.0,453.0,53.0,445.0,48.0,439.0,50.0,439.0,44.0,431.0,39.0,425.0,41.0,417.0,39.0,409.0,38.0,401.0,39.0,393.0,42.0,385.0,45.0,382.0,43.0,373.0,46.0,365.0,38.0,357.0,32.0,349.0,33.0,347.0,38.0,344.0,30.0,331.0,22.0" stroke="black" stroke-width="1" fill="none" />
<polyline points="240.0,3.0,240.0,11.0,244.0,19.0,244.0,31.0,244.0,39.0,245.0,47.0,246.0,56.0,238.0,64.0,238.0,76.0,232.0,85.0,225.0,93.0,215.0,101.0,205.0,109.0,194.0,117.0,201.0,115.0,209.0,110.0,217.0,103.0,223.0,92.0,231.0,82.0,236.0,75.0,245.0,89.0,253.0,105.0" stroke="black" stroke-width="1" fill="none" />
<polyline points="86.0,5.0,76.0,13.0,82.0,12.0" stroke="black" stroke-width="1" fill="none" />
<polyline points="80.0,6.0,86.0,14.0,87.0,22.0,88.0,30.0,88.0,38.0,89.0,46.0,90.0,54.0,91.0,62.0,92.0,70.0,93.0,78.0,94.0,86.0,95.0,94.0,95.0,102.0,96.0,110.0,90.0,118.0,89.0,124.0,85.0,134.0,84.0,142.0,83.0,150.0,82.0,158.0,81.0,166.0,80.0,174.0,78.0,182.0" stroke="black" stroke-width="1" fill="none" />
</svg>