<svg xmlns="http://www.w3.org/2000/svg" height="179px" width="300px" version="1.1"><polyline points="114.0,31.5,99.0,43.5,97.5,55.5,96.0,67.5,96.0,79.5,96.0,91.5,96.0,103.5,96.0,115.5,96.0,127.5,96.0,139.5,96.0,151.5,99.0,163.5,109.5,175.5" stroke="black" stroke-width="1" fill="none" />
<polyline points="99.0,162.0,111.0,175.5,123.0,178.5,135.0,178.5,147.0,178.5,159.0,178.5,171.0,178.5,183.0,178.5,195.0,178.5,207.0,178.5,219.0,178.5,231.0,178.5,243.0,178.5,255.0,178.5,267.0,178.5,279.0,177.0,291.0,172.5" stroke="black" stroke-width="1" fill="none" />
<polyline points="238.5,123.0,244.5,121.5,231.0,121.5,222.0,133.5,207.0,145.5,211.5,151.5,216.0,136.5,228.0,124.5,241.5,114.0,243.0,109.5" stroke="black" stroke-width="1" fill="none" />
<polyline points="243.0,93.0,231.0,84.0,219.0,75.0" stroke="black" stroke-width="1" fill="none" />
<polyline points="210.0,96.0,219.0,93.0,222.0,105.0" stroke="black" stroke-width="1" fill="none" />
<polyline points="238.5,96.0,231.0,84.0,210.0,82.5,198.0,81.0,186.0,84.0" stroke="black" stroke-width="1" fill="none" />
<polyline points="187.5,87.0,199.5,90.0,207.0,82.5,216.0,82.5,226.5,94.5,228.0,106.5,222.0,118.5,207.0,130.5" stroke="black" stroke-width="1" fill="none" />
<polyline points="216.0,126.0,204.0,132.0,192.0,132.0,180.0,124.5,180.0,106.5,184.5,94.5,177.0,109.5" stroke="black" stroke-width="1" fill="none" />
<polyline points="177.0,94.5,178.5,91.5,175.5,103.5,180.0,117.0,195.0,120.0" stroke="black" stroke-width="1" fill="none" />
<polyline points="202.5,120.0,201.0,108.0" stroke="black" stroke-width="1" fill="none" />
<polyline points="196.5,108.0,190.5,120.0" stroke="black" stroke-width="1" fill="none" />
<polyline points="213.0,120.0,216.0,106.5,211.5,94.5,219.0,84.0,207.0,76.5,195.0,75.0,183.0,79.5,171.0,94.5" stroke="black" stroke-width="1" fill="none" />
<polyline points="165.0,120.0,177.0,133.5" stroke="black" stroke-width="1" fill="none" />
<polyline points="214.5,118.5,198.0,126.0,177.0,123.0,171.0,111.0,171.0,99.0,175.5,87.0,192.0,75.0" stroke="black" stroke-width="1" fill="none" />
<polyline points="184.5,69.0,172.5,75.0,157.5,84.0,169.5,82.5,181.5,70.5,190.5,58.5" stroke="black" stroke-width="1" fill="none" />
<polyline points="97.5,48.0,109.5,33.0,121.5,30.0,133.5,30.0,145.5,30.0,157.5,30.0,169.5,30.0,181.5,30.0,193.5,30.0,205.5,30.0,217.5,30.0,229.5,30.0,241.5,30.0,253.5,30.0,265.5,30.0,277.5,30.0,289.5,34.5" stroke="black" stroke-width="1" fill="none" />
<polyline points="285.0,33.0,298.5,45.0,300.0,57.0,300.0,69.0,300.0,81.0,300.0,93.0,300.0,105.0,300.0,117.0,300.0,129.0,300.0,141.0,300.0,153.0,297.0,165.0" stroke="black" stroke-width="1" fill="none" />
</svg>