<svg xmlns="http://www.w3.org/2000/svg" height="530px" width="395px" version="1.1"><polyline points="12.0,7.5,15.0,19.5,18.0,25.5,30.0,18.0" stroke="black" stroke-width="1" fill="none" />
<polyline points="33.0,13.5,42.0,3.0,45.0,16.5,45.0,28.5,43.5,40.5,49.5,54.0,61.5,46.5,78.0,49.5,84.0,64.5" stroke="black" stroke-width="1" fill="none" />
<polyline points="66.0,54.0,70.5,66.0,76.5,66.0,85.5,70.5,84.0,82.5,70.5,88.5,79.5,90.0" stroke="black" stroke-width="1" fill="none" />
<polyline points="58.5,73.5,57.0,60.0,52.5,72.0,40.5,93.0,39.0,105.0,31.5,120.0,36.0,109.5,48.0,99.0,55.5,100.5,67.5,100.5,70.5,105.0,70.5,117.0,66.0,129.0,61.5,141.0,46.5,153.0" stroke="black" stroke-width="1" fill="none" />
<polyline points="36.0,154.5,28.5,142.5,43.5,135.0,34.5,135.0,34.5,141.0" stroke="black" stroke-width="1" fill="none" />
<polyline points="19.5,129.0,15.0,133.5,19.5,141.0,12.0,153.0,7.5,165.0,6.0,166.5,18.0,144.0,30.0,144.0,42.0,156.0,54.0,144.0,67.5,127.5" stroke="black" stroke-width="1" fill="none" />
<polyline points="58.5,117.0,49.5,105.0,49.5,105.0" stroke="black" stroke-width="1" fill="none" />
<polyline points="31.5,108.0,31.5,96.0" stroke="black" stroke-width="1" fill="none" />
<polyline points="30.0,99.0,42.0,93.0,54.0,84.0,67.5,90.0" stroke="black" stroke-width="1" fill="none" />
<polyline points="61.5,60.0,61.5,72.0,58.5,60.0" stroke="black" stroke-width="1" fill="none" />
<polyline points="45.0,54.0,49.5,42.0,55.5,30.0,52.5,18.0,52.5,6.0,48.0,10.5,36.0,16.5" stroke="black" stroke-width="1" fill="none" />
<polyline points="19.5,13.5,12.0,13.5" stroke="black" stroke-width="1" fill="none" />
<polyline points="1.5,6.0,13.5,3.0,25.5,3.0,36.0,4.5,34.5,16.5,39.0,28.5,36.0,40.5,39.0,52.5,49.5,42.0" stroke="black" stroke-width="1" fill="none" />
<polyline points="181.5,46.5,193.5,36.0,192.0,45.0,201.0,54.0,199.5,66.0,198.0,84.0,199.5,81.0,199.5,93.0,198.0,109.5,196.5,121.5,187.5,126.0,181.5,145.5,180.0,157.5,181.5,169.5,169.5,189.0,171.0,204.0,162.0,210.0,163.5,225.0,154.5,232.5,157.5,231.0" stroke="black" stroke-width="1" fill="none" />
<polyline points="165.0,247.5,168.0,255.0,166.5,267.0,178.5,268.5,178.5,280.5,175.5,295.5,174.0,307.5,171.0,319.5,163.5,322.5,169.5,325.5,177.0,330.0,189.0,328.5,208.5,337.5,220.5,348.0,223.5,343.5,237.0,361.5,256.5,375.0,268.5,384.0,280.5,388.5,285.0,397.5,297.0,406.5,309.0,417.0,321.0,424.5,333.0,432.0,345.0,442.5" stroke="black" stroke-width="1" fill="none" />
<polyline points="354.0,423.0,366.0,418.5,378.0,414.0,390.0,396.0,394.5,402.0,385.5,414.0,388.5,421.5" stroke="black" stroke-width="1" fill="none" />
<polyline points="358.5,417.0,354.0,429.0,351.0,441.0" stroke="black" stroke-width="1" fill="none" />
<polyline points="369.0,474.0,372.0,478.5,375.0,490.5,376.5,495.0,381.0,508.5,385.5,517.5,393.0,519.0,388.5,519.0" stroke="black" stroke-width="1" fill="none" />
<polyline points="367.5,496.5,379.5,490.5,381.0,477.0" stroke="black" stroke-width="1" fill="none" />
<polyline points="313.5,489.0,300.0,480.0" stroke="black" stroke-width="1" fill="none" />
<polyline points="313.5,489.0,306.0,489.0,294.0,489.0,282.0,490.5,270.0,499.5" stroke="black" stroke-width="1" fill="none" />
<polyline points="268.5,489.0,280.5,481.5,292.5,483.0,268.5,489.0,270.0,499.5,282.0,504.0" stroke="black" stroke-width="1" fill="none" />
<polyline points="268.5,459.0,256.5,453.0" stroke="black" stroke-width="1" fill="none" />
<polyline points="249.0,439.5,261.0,435.0,273.0,442.5" stroke="black" stroke-width="1" fill="none" />
<polyline points="252.0,436.5,255.0,453.0,276.0,465.0" stroke="black" stroke-width="1" fill="none" />
<polyline points="259.5,435.0,234.0,438.0" stroke="black" stroke-width="1" fill="none" />
<polyline points="214.5,408.0,211.5,420.0,211.5,429.0,214.5,442.5,228.0,454.5,244.5,460.5,250.5,472.5,255.0,478.5,259.5,490.5,256.5,502.5,264.0,511.5,274.5,517.5,271.5,529.5,276.0,529.5,274.5,517.5,282.0,504.0,300.0,502.5,312.0,501.0" stroke="black" stroke-width="1" fill="none" />
<polyline points="327.0,495.0,333.0,483.0,340.5,471.0,324.0,459.0,334.5,454.5,331.5,442.5,325.5,438.0,313.5,436.5,313.5,424.5,315.0,411.0,307.5,399.0,303.0,387.0,297.0,375.0,289.5,363.0,285.0,351.0,279.0,339.0,270.0,327.0,268.5,315.0,274.5,294.0,264.0,282.0,252.0,270.0,240.0,258.0,226.5,246.0,216.0,235.5,202.5,219.0,201.0,208.5,198.0,202.5,199.5,190.5,192.0,172.5,189.0,166.5" stroke="black" stroke-width="1" fill="none" />
<polyline points="183.0,196.5,174.0,216.0,181.5,213.0,187.5,201.0,193.5,189.0,181.5,204.0" stroke="black" stroke-width="1" fill="none" />
<polyline points="202.5,201.0,202.5,217.5" stroke="black" stroke-width="1" fill="none" />
<polyline points="195.0,231.0,207.0,243.0,220.5,255.0,234.0,267.0,247.5,279.0,259.5,291.0,265.5,312.0,277.5,333.0,289.5,361.5,301.5,384.0,313.5,406.5" stroke="black" stroke-width="1" fill="none" />
<polyline points="307.5,420.0,298.5,408.0" stroke="black" stroke-width="1" fill="none" />
<polyline points="282.0,415.5,274.5,403.5,276.0,391.5,279.0,379.5,271.5,379.5,267.0,372.0,267.0,376.5" stroke="black" stroke-width="1" fill="none" />
<polyline points="255.0,375.0,270.0,387.0,268.5,399.0" stroke="black" stroke-width="1" fill="none" />
<polyline points="279.0,394.5,289.5,406.5,297.0,406.5,295.5,418.5,303.0,430.5" stroke="black" stroke-width="1" fill="none" />
<polyline points="316.5,421.5,333.0,433.5,340.5,445.5" stroke="black" stroke-width="1" fill="none" />
<polyline points="382.5,373.5,394.5,378.0" stroke="black" stroke-width="1" fill="none" />
<polyline points="394.5,367.5,382.5,369.0" stroke="black" stroke-width="1" fill="none" />
<polyline points="384.0,372.0,393.0,390.0,387.0,402.0,370.5,412.5,378.0,418.5,394.5,402.0" stroke="black" stroke-width="1" fill="none" />
<polyline points="253.5,394.5,252.0,382.5,262.5,370.5,267.0,358.5,261.0,355.5" stroke="black" stroke-width="1" fill="none" />
<polyline points="259.5,334.5,255.0,328.5,243.0,336.0" stroke="black" stroke-width="1" fill="none" />
<polyline points="234.0,346.5,246.0,361.5,246.0,373.5" stroke="black" stroke-width="1" fill="none" />
<polyline points="234.0,367.5,231.0,355.5" stroke="black" stroke-width="1" fill="none" />
<polyline points="217.5,328.5,216.0,315.0,211.5,303.0,219.0,291.0,216.0,279.0,196.5,267.0" stroke="black" stroke-width="1" fill="none" />
<polyline points="196.5,249.0,208.5,253.5,220.5,264.0,232.5,276.0,250.5,291.0,262.5,303.0" stroke="black" stroke-width="1" fill="none" />
<polyline points="262.5,304.5,252.0,292.5" stroke="black" stroke-width="1" fill="none" />
<polyline points="249.0,310.5,237.0,300.0,225.0,294.0" stroke="black" stroke-width="1" fill="none" />
<polyline points="229.5,292.5,241.5,304.5,252.0,316.5,256.5,327.0,244.5,339.0,246.0,340.5,258.0,343.5" stroke="black" stroke-width="1" fill="none" />
<polyline points="222.0,360.0,219.0,348.0,204.0,336.0" stroke="black" stroke-width="1" fill="none" />
<polyline points="204.0,328.5,219.0,340.5" stroke="black" stroke-width="1" fill="none" />
<polyline points="198.0,331.5,201.0,343.5,201.0,355.5,211.5,363.0,214.5,376.5,223.5,379.5,228.0,391.5,229.5,391.5,240.0,397.5" stroke="black" stroke-width="1" fill="none" />
<polyline points="196.5,400.5,199.5,412.5,201.0,424.5,205.5,436.5,204.0,448.5,207.0,460.5,205.5,472.5,208.5,484.5,207.0,496.5,208.5,508.5,210.0,520.5,211.5,522.0" stroke="black" stroke-width="1" fill="none" />
<polyline points="228.0,489.0,237.0,471.0,231.0,474.0" stroke="black" stroke-width="1" fill="none" />
<polyline points="183.0,466.5,186.0,457.5,195.0,445.5,186.0,457.5,184.5,469.5,195.0,472.5,192.0,484.5,186.0,496.5,195.0,496.5,198.0,508.5,193.5,519.0" stroke="black" stroke-width="1" fill="none" />
<polyline points="187.5,480.0,175.5,475.5" stroke="black" stroke-width="1" fill="none" />
<polyline points="169.5,481.5,181.5,484.5" stroke="black" stroke-width="1" fill="none" />
<polyline points="153.0,460.5,147.0,448.5" stroke="black" stroke-width="1" fill="none" />
<polyline points="133.5,451.5,123.0,463.5,124.5,475.5" stroke="black" stroke-width="1" fill="none" />
<polyline points="100.5,480.0,94.5,472.5,102.0,454.5,94.5,442.5,102.0,435.0,99.0,441.0" stroke="black" stroke-width="1" fill="none" />
<polyline points="109.5,439.5,121.5,439.5" stroke="black" stroke-width="1" fill="none" />
<polyline points="118.5,430.5,106.5,430.5,90.0,429.0,76.5,435.0,94.5,427.5" stroke="black" stroke-width="1" fill="none" />
<polyline points="111.0,406.5,108.0,406.5,109.5,390.0,121.5,384.0,129.0,372.0,130.5,360.0,118.5,366.0,106.5,372.0" stroke="black" stroke-width="1" fill="none" />
<polyline points="88.5,379.5,100.5,375.0,84.0,381.0,81.0,393.0" stroke="black" stroke-width="1" fill="none" />
<polyline points="82.5,382.5,79.5,370.5,75.0,390.0,73.5,402.0,63.0,408.0,81.0,399.0,93.0,396.0,111.0,388.5,123.0,382.5,135.0,385.5,147.0,379.5,159.0,375.0,171.0,370.5" stroke="black" stroke-width="1" fill="none" />
<polyline points="187.5,357.0,193.5,363.0,190.5,373.5,189.0,369.0,201.0,366.0" stroke="black" stroke-width="1" fill="none" />
<polyline points="198.0,361.5,195.0,373.5,195.0,382.5" stroke="black" stroke-width="1" fill="none" />
<polyline points="187.5,397.5,193.5,409.5,192.0,420.0,186.0,421.5,184.5,436.5,184.5,448.5,177.0,460.5,183.0,450.0" stroke="black" stroke-width="1" fill="none" />
<polyline points="171.0,439.5,165.0,451.5" stroke="black" stroke-width="1" fill="none" />
<polyline points="151.5,409.5,139.5,414.0" stroke="black" stroke-width="1" fill="none" />
<polyline points="139.5,414.0,148.5,418.5,139.5,423.0,139.5,439.5,118.5,453.0,115.5,465.0,115.5,477.0,121.5,478.5,133.5,466.5,139.5,460.5,151.5,469.5,166.5,450.0,175.5,451.5,181.5,444.0,168.0,456.0,151.5,471.0,160.5,477.0,163.5,489.0,168.0,492.0,180.0,489.0,190.5,490.5,211.5,492.0,219.0,492.0,226.5,495.0" stroke="black" stroke-width="1" fill="none" />
<polyline points="262.5,462.0,250.5,462.0,238.5,454.5,223.5,448.5,211.5,439.5,193.5,441.0,181.5,438.0,169.5,441.0,151.5,448.5,139.5,451.5,127.5,456.0,109.5,448.5,97.5,460.5" stroke="black" stroke-width="1" fill="none" />
<polyline points="84.0,490.5,72.0,484.5,60.0,480.0,48.0,481.5,36.0,484.5,24.0,487.5,12.0,492.0,0.0,498.0" stroke="black" stroke-width="1" fill="none" />
<polyline points="1.5,510.0,12.0,492.0,25.5,478.5" stroke="black" stroke-width="1" fill="none" />
<polyline points="40.5,505.5,30.0,517.5,24.0,529.5,34.5,516.0" stroke="black" stroke-width="1" fill="none" />
<polyline points="67.5,522.0,79.5,517.5" stroke="black" stroke-width="1" fill="none" />
<polyline points="43.5,423.0,31.5,426.0,19.5,430.5,7.5,435.0,3.0,432.0,7.5,420.0,13.5,420.0,16.5,408.0,25.5,403.5,13.5,411.0" stroke="black" stroke-width="1" fill="none" />
<polyline points="28.5,405.0,27.0,417.0,18.0,423.0,22.5,438.0,34.5,433.5" stroke="black" stroke-width="1" fill="none" />
<polyline points="34.5,403.5,46.5,396.0,37.5,400.5,33.0,412.5,36.0,424.5,46.5,426.0,42.0,429.0,54.0,417.0,66.0,412.5,78.0,408.0,90.0,403.5" stroke="black" stroke-width="1" fill="none" />
<polyline points="57.0,394.5,69.0,387.0,79.5,370.5,97.5,361.5,109.5,345.0,118.5,336.0" stroke="black" stroke-width="1" fill="none" />
<polyline points="108.0,330.0,120.0,333.0,121.5,351.0,112.5,357.0,117.0,361.5,129.0,355.5" stroke="black" stroke-width="1" fill="none" />
<polyline points="135.0,360.0,147.0,348.0" stroke="black" stroke-width="1" fill="none" />
<polyline points="136.5,376.5,148.5,372.0,166.5,351.0,166.5,363.0,177.0,381.0" stroke="black" stroke-width="1" fill="none" />
<polyline points="175.5,402.0,163.5,406.5,162.0,415.5,166.5,403.5" stroke="black" stroke-width="1" fill="none" />
<polyline points="171.0,405.0,165.0,417.0,159.0,433.5,171.0,430.5,178.5,420.0,190.5,421.5" stroke="black" stroke-width="1" fill="none" />
<polyline points="141.0,427.5,132.0,433.5,130.5,421.5" stroke="black" stroke-width="1" fill="none" />
<polyline points="121.5,421.5,121.5,433.5,109.5,441.0,108.0,454.5,94.5,459.0,103.5,472.5,106.5,474.0" stroke="black" stroke-width="1" fill="none" />
<polyline points="37.5,415.5,49.5,408.0,51.0,396.0" stroke="black" stroke-width="1" fill="none" />
<polyline points="51.0,381.0,52.5,372.0,40.5,384.0,43.5,381.0,55.5,369.0" stroke="black" stroke-width="1" fill="none" />
<polyline points="73.5,345.0,75.0,336.0,67.5,346.5,79.5,331.5" stroke="black" stroke-width="1" fill="none" />
<polyline points="85.5,319.5,97.5,309.0,108.0,288.0,120.0,280.5,135.0,273.0,147.0,267.0,159.0,261.0" stroke="black" stroke-width="1" fill="none" />
<polyline points="159.0,262.5,156.0,274.5,135.0,291.0,120.0,303.0,127.5,315.0,132.0,327.0,138.0,345.0,123.0,357.0,106.5,373.5,106.5,385.5,100.5,385.5,87.0,397.5,75.0,409.5" stroke="black" stroke-width="1" fill="none" />
<polyline points="130.5,385.5,142.5,387.0,139.5,396.0" stroke="black" stroke-width="1" fill="none" />
<polyline points="159.0,340.5,151.5,351.0,150.0,339.0,142.5,327.0,133.5,343.5,139.5,331.5,148.5,319.5,151.5,307.5,153.0,295.5,156.0,285.0,144.0,288.0,132.0,294.0,120.0,303.0" stroke="black" stroke-width="1" fill="none" />
<polyline points="121.5,304.5,133.5,319.5" stroke="black" stroke-width="1" fill="none" />
<polyline points="112.5,316.5,111.0,324.0" stroke="black" stroke-width="1" fill="none" />
<polyline points="99.0,321.0,97.5,322.5,91.5,313.5,99.0,298.5,100.5,286.5,99.0,274.5,114.0,262.5,136.5,250.5,157.5,238.5,177.0,229.5,192.0,214.5,192.0,204.0,187.5,192.0,193.5,180.0,189.0,175.5,201.0,168.0,193.5,165.0,187.5,163.5,195.0,148.5,195.0,136.5,181.5,135.0" stroke="black" stroke-width="1" fill="none" />
<polyline points="169.5,127.5,172.5,115.5,177.0,103.5,181.5,82.5,184.5,70.5,187.5,58.5,183.0,45.0,196.5,33.0,207.0,21.0,196.5,28.5" stroke="black" stroke-width="1" fill="none" />
<polyline points="207.0,31.5,219.0,43.5,220.5,46.5" stroke="black" stroke-width="1" fill="none" />
<polyline points="186.0,46.5,198.0,40.5,210.0,37.5,213.0,48.0,219.0,60.0,217.5,72.0,217.5,84.0,219.0,96.0" stroke="black" stroke-width="1" fill="none" />
<polyline points="204.0,120.0,199.5,132.0,211.5,141.0,211.5,153.0,213.0,165.0,211.5,178.5,211.5,190.5,211.5,202.5,213.0,214.5" stroke="black" stroke-width="1" fill="none" />
<polyline points="202.5,247.5,210.0,259.5,202.5,280.5,207.0,286.5,219.0,301.5,223.5,318.0,225.0,330.0,226.5,340.5,228.0,357.0,228.0,369.0,235.5,381.0,247.5,397.5,252.0,399.0,264.0,408.0,265.5,412.5,270.0,417.0,282.0,432.0,294.0,430.5,306.0,438.0,318.0,447.0,330.0,456.0,345.0,447.0,354.0,447.0,366.0,433.5" stroke="black" stroke-width="1" fill="none" />
<polyline points="337.5,454.5,322.5,444.0,306.0,432.0,286.5,418.5,267.0,402.0,255.0,394.5,240.0,391.5,232.5,385.5,226.5,381.0,214.5,376.5,213.0,370.5,201.0,361.5,189.0,363.0,184.5,358.5,169.5,364.5,160.5,358.5,168.0,346.5,189.0,334.5,196.5,322.5,199.5,310.5,198.0,298.5,198.0,286.5,196.5,274.5,189.0,264.0,177.0,270.0" stroke="black" stroke-width="1" fill="none" />
<polyline points="171.0,274.5,166.5,286.5,159.0,297.0,156.0,309.0,154.5,321.0,144.0,333.0,142.5,345.0,148.5,352.5,160.5,349.5,174.0,340.5,186.0,336.0,198.0,324.0,210.0,328.5,219.0,333.0" stroke="black" stroke-width="1" fill="none" />
<polyline points="195.0,337.5,195.0,349.5,186.0,354.0,171.0,358.5,160.5,376.5,172.5,387.0,180.0,399.0,181.5,402.0,174.0,420.0,165.0,411.0,177.0,405.0,192.0,405.0,201.0,403.5,204.0,406.5,207.0,418.5,214.5,408.0,232.5,418.5" stroke="black" stroke-width="1" fill="none" />
<polyline points="181.5,373.5,190.5,361.5" stroke="black" stroke-width="1" fill="none" />
<polyline points="198.0,286.5,210.0,288.0,228.0,282.0,240.0,286.5" stroke="black" stroke-width="1" fill="none" />
<polyline points="226.5,270.0,238.5,282.0,250.5,291.0,252.0,303.0,256.5,307.5" stroke="black" stroke-width="1" fill="none" />
<polyline points="183.0,303.0,165.0,310.5,162.0,306.0,166.5,307.5,169.5,295.5,162.0,286.5,165.0,274.5,162.0,280.5" stroke="black" stroke-width="1" fill="none" />
<polyline points="154.5,261.0,133.5,273.0,117.0,283.5,120.0,289.5,111.0,307.5,105.0,319.5,108.0,324.0,114.0,336.0,108.0,348.0,99.0,360.0,87.0,372.0,64.5,388.5,57.0,400.5,51.0,418.5,58.5,421.5,55.5,424.5,67.5,420.0,79.5,414.0,90.0,406.5,102.0,406.5,111.0,396.0,112.5,405.0,124.5,390.0,138.0,393.0" stroke="black" stroke-width="1" fill="none" />
<polyline points="108.0,291.0,120.0,289.5,136.5,283.5" stroke="black" stroke-width="1" fill="none" />
<polyline points="123.0,268.5,111.0,279.0,99.0,280.5" stroke="black" stroke-width="1" fill="none" />
<polyline points="115.5,273.0,97.5,276.0,109.5,265.5,121.5,258.0,133.5,252.0,145.5,244.5,157.5,238.5,169.5,232.5,183.0,225.0,195.0,223.5,207.0,226.5,219.0,237.0,231.0,249.0,243.0,259.5,255.0,271.5,267.0,283.5" stroke="black" stroke-width="1" fill="none" />
<polyline points="268.5,301.5,256.5,286.5,244.5,277.5,232.5,265.5,220.5,253.5,208.5,243.0,196.5,231.0,184.5,235.5,172.5,244.5,154.5,252.0,142.5,262.5,130.5,264.0,139.5,259.5,157.5,250.5" stroke="black" stroke-width="1" fill="none" />
<polyline points="177.0,250.5,189.0,246.0,201.0,255.0,210.0,262.5,219.0,264.0,223.5,276.0,235.5,288.0,225.0,297.0,228.0,309.0,229.5,321.0,231.0,333.0,232.5,345.0,238.5,357.0,240.0,370.5,234.0,387.0,241.5,396.0,252.0,399.0,259.5,406.5,264.0,415.5,271.5,415.5,273.0,424.5,286.5,427.5,291.0,432.0,297.0,442.5,306.0,444.0,313.5,445.5,316.5,457.5,325.5,459.0,337.5,466.5" stroke="black" stroke-width="1" fill="none" />
<polyline points="148.5,385.5,135.0,376.5,136.5,364.5,145.5,352.5,169.5,333.0,183.0,321.0,190.5,321.0,187.5,309.0,190.5,297.0,187.5,285.0,190.5,273.0,186.0,259.5,190.5,247.5" stroke="black" stroke-width="1" fill="none" />
<polyline points="141.0,229.5,141.0,234.0,136.5,229.5,142.5,211.5,150.0,192.0,150.0,192.0" stroke="black" stroke-width="1" fill="none" />
<polyline points="240.0,223.5,235.5,202.5,231.0,187.5,228.0,169.5,226.5,154.5,225.0,139.5,225.0,127.5" stroke="black" stroke-width="1" fill="none" />
</svg>