<svg xmlns="http://www.w3.org/2000/svg" height="546px" width="510px" version="1.1"><polyline points="350.0,25.0,350.0,29.0,350.0,33.0" stroke="black" stroke-width="1" fill="none" />
<polyline points="354.5,33.0,355.5,37.0,355.5,41.0,356.0,45.0" stroke="black" stroke-width="1" fill="none" />
<polyline points="362.0,56.0,362.5,59.0,365.5,61.0,365.5,65.0,365.5,69.0" stroke="black" stroke-width="1" fill="none" />
<polyline points="368.0,72.5,373.5,74.5,373.5,78.5,371.0,82.5,371.0,86.5" stroke="black" stroke-width="1" fill="none" />
<polyline points="370.5,85.5,373.5,85.5,374.0,89.5,374.0,93.5,378.5,97.0,378.5,101.0,379.0,105.0,378.5,109.0,379.0,113.0,379.0,117.0,378.5,121.0,379.0,125.0,379.5,127.5,383.5,128.5,383.5,132.5,383.5,136.5,384.0,140.5,383.5,144.5,384.0,148.5,388.5,151.5,388.5,155.5,388.5,159.5,388.5,163.5,388.5,167.5,388.5,171.5,388.5,175.5,388.5,179.5,389.0,183.5,389.0,187.5,390.0,189.5,394.0,189.5,398.0,189.0,401.5,192.0,402.0,194.5,401.5,198.5,401.5,202.5,396.5,203.5,396.5,207.5,396.5,211.5,399.0,217.0,399.0,221.0,399.5,225.0" stroke="black" stroke-width="1" fill="none" />
<polyline points="399.0,232.5,399.0,236.5,399.0,240.5" stroke="black" stroke-width="1" fill="none" />
<polyline points="402.0,253.0,401.5,257.0,402.0,261.0,401.5,265.0" stroke="black" stroke-width="1" fill="none" />
<polyline points="399.5,265.0,399.0,269.0,397.0,271.5,396.5,275.5" stroke="black" stroke-width="1" fill="none" />
<polyline points="391.5,281.0,391.0,285.0,386.5,287.0,387.0,288.5" stroke="black" stroke-width="1" fill="none" />
<polyline points="388.0,284.0,386.5,286.5,382.5,288.5,378.5,290.0" stroke="black" stroke-width="1" fill="none" />
<polyline points="380.0,288.5,378.5,292.5,378.5,296.5,378.5,300.5,379.0,304.5,378.5,308.5,378.5,312.5,378.5,316.5,378.5,320.5,378.5,324.5,378.5,328.5,378.5,332.5,378.5,336.5,378.5,340.5,378.5,344.5,378.5,348.5,378.5,352.5,378.5,356.5,378.5,360.5,378.5,364.5,379.0,368.5,379.0,372.5" stroke="black" stroke-width="1" fill="none" />
<polyline points="381.0,367.5,381.0,371.5,381.5,375.5,381.0,379.5,381.5,383.5,381.0,387.5" stroke="black" stroke-width="1" fill="none" />
<polyline points="383.5,380.0,383.5,384.0,383.5,388.0,384.0,392.0,384.0,396.0,383.5,400.0,386.5,403.5,386.5,407.5,388.5,407.5,388.5,411.5,389.0,415.5,389.0,419.5,389.0,423.5,389.0,427.5" stroke="black" stroke-width="1" fill="none" />
<polyline points="393.5,434.5,394.0,438.5,393.5,442.5,394.0,446.5,393.5,450.5,393.5,454.5" stroke="black" stroke-width="1" fill="none" />
<polyline points="399.0,455.0,399.0,459.0,402.0,463.0,403.0,462.5,404.5,465.0,405.0,462.5" stroke="black" stroke-width="1" fill="none" />
<polyline points="403.5,460.5,399.5,459.5" stroke="black" stroke-width="1" fill="none" />
<polyline points="396.5,447.0,396.5,451.0,397.0,455.0,396.5,459.0,396.5,464.0,399.5,467.0,399.5,471.0,402.0,473.5,401.5,477.5" stroke="black" stroke-width="1" fill="none" />
<polyline points="399.0,473.0,399.0,477.0,399.5,481.0,399.0,485.0" stroke="black" stroke-width="1" fill="none" />
<polyline points="397.0,483.0,396.5,487.0,396.5,491.0,396.5,495.0,394.0,495.5,394.0,499.5,391.5,501.0,391.5,505.0,389.0,507.0,391.0,508.0,386.0,511.5,383.5,515.5,378.5,519.5,373.5,523.0,375.0,524.0" stroke="black" stroke-width="1" fill="none" />
<polyline points="375.5,522.0,371.5,524.5,367.5,524.5" stroke="black" stroke-width="1" fill="none" />
<polyline points="365.5,527.0,369.5,526.5,373.5,525.5" stroke="black" stroke-width="1" fill="none" />
<polyline points="367.0,529.0,366.0,528.5,363.5,530.0,362.0,534.0,361.0,538.0,360.5,542.0,360.5,546.0" stroke="black" stroke-width="1" fill="none" />
<polyline points="358.5,545.5,358.5,541.5" stroke="black" stroke-width="1" fill="none" />
<polyline points="381.0,515.0,385.0,511.0,383.5,512.5,380.0,516.5,376.5,520.5,379.5,519.5,385.0,514.0,389.5,506.5,394.0,502.5" stroke="black" stroke-width="1" fill="none" />
<polyline points="431.0,457.5,432.0,461.5,432.5,465.5,434.5,466.0,435.0,470.0,438.0,472.5,444.0,475.5,448.0,476.0,452.0,476.0,456.0,476.0,460.0,476.0,464.0,476.0,467.0,481.0,471.0,480.5,475.0,481.0" stroke="black" stroke-width="1" fill="none" />
<polyline points="477.0,483.0,478.0,487.0,481.0,487.5,483.5,490.5,481.0,492.0,484.0,495.5,486.0,496.5,486.5,500.5,489.0,501.5,490.0,501.0,490.5,503.5,494.5,504.0,498.5,504.0" stroke="black" stroke-width="1" fill="none" />
<polyline points="493.5,505.0,497.5,506.0,501.5,506.0,505.5,506.0,509.5,506.5" stroke="black" stroke-width="1" fill="none" />
<polyline points="428.5,455.5,427.5,453.5,427.5,449.5,427.0,446.0,422.5,442.5,422.0,438.5,421.0,434.5" stroke="black" stroke-width="1" fill="none" />
<polyline points="420.0,439.0,417.0,437.5,417.0,433.5,417.5,429.5,417.0,425.5,417.0,421.5" stroke="black" stroke-width="1" fill="none" />
<polyline points="410.0,416.5,409.0,411.5,404.5,411.0,404.0,409.0,403.5,407.0,399.5,406.0,399.0,403.5,395.0,404.0,391.0,402.5" stroke="black" stroke-width="1" fill="none" />
<polyline points="395.5,401.0,391.5,401.5,387.5,401.0,386.5,398.5" stroke="black" stroke-width="1" fill="none" />
<polyline points="391.0,418.5,391.0,422.5,391.0,426.5,391.0,430.5,391.5,434.5,391.0,438.5,391.5,442.5,391.0,446.5" stroke="black" stroke-width="1" fill="none" />
<polyline points="415.5,424.0,413.0,419.0,412.0,419.5,411.5,415.5,410.5,411.5" stroke="black" stroke-width="1" fill="none" />
<polyline points="404.0,410.5,407.0,411.0,408.0,412.0,409.5,416.0,414.0,419.5,414.5,423.5,415.5,427.5,419.5,433.0,420.0,437.0,424.0,440.0,425.0,444.0,425.0,448.0,429.5,451.0,429.5,454.5,430.0,458.5,429.5,462.5,433.0,465.0,437.5,466.0,437.5,470.0,439.0,470.5,440.0,474.5,440.0,477.0,444.0,478.0,448.0,478.0,452.0,478.0,456.0,478.0,460.0,478.0,464.0,478.0,468.0,478.5,472.0,478.5,475.5,483.0,476.5,485.5,480.0,485.5" stroke="black" stroke-width="1" fill="none" />
<polyline points="363.0,393.0,363.0,389.0,365.5,388.0,365.5,384.0,365.5,384.0" stroke="black" stroke-width="1" fill="none" />
<polyline points="364.5,388.5,360.5,389.0" stroke="black" stroke-width="1" fill="none" />
<polyline points="361.0,388.5,360.5,392.5,360.5,396.5,358.0,401.5" stroke="black" stroke-width="1" fill="none" />
<polyline points="353.5,400.5,353.5,404.5,353.0,408.5" stroke="black" stroke-width="1" fill="none" />
<polyline points="350.0,411.5,350.5,407.5,350.5,403.5" stroke="black" stroke-width="1" fill="none" />
<polyline points="355.0,403.5,355.5,402.5,356.0,398.5,358.0,397.0,358.5,393.0" stroke="black" stroke-width="1" fill="none" />
<polyline points="349.0,388.5,345.0,389.0" stroke="black" stroke-width="1" fill="none" />
<polyline points="311.5,416.5,308.5,419.0,308.0,421.5,304.0,422.0,300.0,422.0,296.0,422.0" stroke="black" stroke-width="1" fill="none" />
<polyline points="293.5,424.5,297.5,424.5,301.5,424.0" stroke="black" stroke-width="1" fill="none" />
<polyline points="295.0,430.0,291.0,430.0" stroke="black" stroke-width="1" fill="none" />
<polyline points="294.5,432.0,290.5,432.0,286.5,432.5,282.5,432.0,278.5,432.5" stroke="black" stroke-width="1" fill="none" />
<polyline points="277.5,437.0,273.5,437.0,269.5,437.5,265.5,437.0,261.5,437.5,257.5,437.5,253.5,437.0,249.5,437.0,245.5,437.0" stroke="black" stroke-width="1" fill="none" />
<polyline points="239.5,434.5,243.5,434.5,247.5,435.0,251.5,435.0,255.5,435.0,259.5,434.5,263.5,434.5,267.5,434.5,271.5,435.0,275.5,434.5,279.5,434.5,283.5,434.5,287.5,435.0" stroke="black" stroke-width="1" fill="none" />
<polyline points="244.5,432.0,240.5,432.5,236.5,432.5,232.5,432.0" stroke="black" stroke-width="1" fill="none" />
<polyline points="227.5,429.5,231.5,429.5,235.5,430.0,239.5,430.0" stroke="black" stroke-width="1" fill="none" />
<polyline points="230.0,427.0,226.0,427.0,222.0,427.0" stroke="black" stroke-width="1" fill="none" />
<polyline points="204.5,447.0,202.5,444.5,198.5,444.5" stroke="black" stroke-width="1" fill="none" />
<polyline points="173.5,445.0,176.0,446.0,176.5,450.0,178.5,453.5,179.0,457.5,181.5,460.0,181.5,464.0" stroke="black" stroke-width="1" fill="none" />
<polyline points="171.0,442.5,171.5,446.5,171.0,450.5,168.5,451.5,168.5,455.5,166.5,457.0,166.0,461.0,164.0,461.0,163.5,465.0,161.5,466.5,158.5,470.0,155.5,473.5,156.0,477.5,153.5,481.5,153.5,485.5,153.0,489.5,150.5,493.0" stroke="black" stroke-width="1" fill="none" />
<polyline points="153.0,482.0,155.5,481.5,158.0,475.0,155.5,473.5" stroke="black" stroke-width="1" fill="none" />
<polyline points="151.0,490.5,147.0,494.0,143.0,497.5,139.0,498.5,135.0,499.0" stroke="black" stroke-width="1" fill="none" />
<polyline points="150.0,496.0,146.0,496.0,141.0,500.0,137.0,501.0,133.0,501.0,129.0,501.0,125.0,501.5,121.5,503.5,117.5,504.0" stroke="black" stroke-width="1" fill="none" />
<polyline points="110.0,506.5,114.0,506.5,118.0,506.0,122.0,506.0,127.5,503.5" stroke="black" stroke-width="1" fill="none" />
<polyline points="116.5,508.5,112.5,508.5,108.5,508.5,105.0,511.0,105.0,515.0,107.0,514.0,107.0,511.5" stroke="black" stroke-width="1" fill="none" />
<polyline points="105.0,511.0,102.5,515.0,101.0,519.0" stroke="black" stroke-width="1" fill="none" />
<polyline points="101.5,521.5,97.5,521.5,93.5,521.5,89.5,521.5,85.5,521.5,81.5,520.5" stroke="black" stroke-width="1" fill="none" />
<polyline points="78.5,517.0,74.5,517.0,70.5,517.0" stroke="black" stroke-width="1" fill="none" />
<polyline points="67.5,521.5,63.5,521.5" stroke="black" stroke-width="1" fill="none" />
<polyline points="100.5,519.5,96.5,519.5,92.5,519.5,88.5,519.5,84.5,519.5,80.5,519.5,76.5,519.0,72.5,519.0,68.5,519.5,64.5,519.5,60.5,522.0,57.0,524.5,55.0,526.5,51.0,527.0,49.5,529.0,48.5,531.5,46.5,529.5,42.5,534.0,39.5,537.0,37.5,539.5,33.5,540.0,29.5,542.0,25.5,542.5,21.5,542.0,17.5,542.5" stroke="black" stroke-width="1" fill="none" />
<polyline points="9.5,545.0,13.5,545.0,17.5,545.0,21.5,544.5,25.5,544.5,29.5,544.5" stroke="black" stroke-width="1" fill="none" />
<polyline points="166.5,544.0,166.0,543.5,166.5,542.5,170.5,542.5" stroke="black" stroke-width="1" fill="none" />
<polyline points="170.0,542.0,171.0,546.0" stroke="black" stroke-width="1" fill="none" />
<polyline points="194.0,546.0,191.5,543.0,189.5,542.0,189.0,538.0,188.0,534.0,187.0,533.5,187.0,529.5,186.5,525.5,187.0,521.5,187.0,517.5,187.0,513.5" stroke="black" stroke-width="1" fill="none" />
<polyline points="255.5,505.5,255.5,509.5,255.5,513.5,258.5,516.0,260.5,521.5,264.5,522.0,265.5,525.0,269.5,524.5,273.5,524.0" stroke="black" stroke-width="1" fill="none" />
<polyline points="261.0,522.5,260.5,519.0,260.5,515.0,260.5,511.0" stroke="black" stroke-width="1" fill="none" />
<polyline points="258.0,508.0,258.0,512.0,258.5,516.0,262.0,519.0,265.5,520.5,263.5,524.5,266.0,526.0,268.0,526.5,272.0,527.0,276.0,526.5" stroke="black" stroke-width="1" fill="none" />
<polyline points="205.5,401.5,201.5,400.0" stroke="black" stroke-width="1" fill="none" />
<polyline points="196.0,388.5,200.0,389.0,199.5,394.0,201.5,396.5,202.0,400.5,204.5,404.5,207.0,407.5,208.0,409.0,212.0,409.0,212.5,413.5,212.0,416.5,216.0,416.5,218.0,419.0,218.5,421.5,222.5,422.0,224.5,424.5,228.5,424.5" stroke="black" stroke-width="1" fill="none" />
<polyline points="237.0,357.5,233.0,357.0" stroke="black" stroke-width="1" fill="none" />
<polyline points="245.0,353.0,243.0,357.0,243.0,357.0,247.0,357.5,251.0,357.5" stroke="black" stroke-width="1" fill="none" />
<polyline points="250.0,337.0,254.0,337.0,258.0,335.0,262.0,334.5" stroke="black" stroke-width="1" fill="none" />
<polyline points="269.0,329.0,273.0,330.0,277.0,329.5,281.0,329.5,286.5,329.5,286.0,333.5,285.0,332.0,288.0,329.5,295.0,330.0,299.0,329.5,303.0,329.5,305.5,329.5,309.5,329.5,310.5,327.5,314.5,326.0" stroke="black" stroke-width="1" fill="none" />
<polyline points="309.0,314.0,305.0,314.0,301.0,314.0" stroke="black" stroke-width="1" fill="none" />
<polyline points="289.0,319.5,293.0,319.5,297.0,319.5,301.0,320.0,305.0,319.5,309.0,319.5,313.0,319.5,317.0,320.0,319.5,322.5,317.0,323.5,312.0,330.0,314.5,327.0,317.5,324.5,322.0,321.0,322.5,319.5,326.5,319.5" stroke="black" stroke-width="1" fill="none" />
<polyline points="322.0,317.0,318.0,317.0,314.0,316.5,310.0,316.5,306.0,317.0,302.0,316.5,298.0,316.5,294.0,316.5,290.0,317.0,286.5,320.0,282.5,320.0,278.5,320.0" stroke="black" stroke-width="1" fill="none" />
<polyline points="278.0,327.5,282.0,327.5,286.0,327.5,290.0,327.0,292.0,328.5,292.0,332.5" stroke="black" stroke-width="1" fill="none" />
<polyline points="293.0,327.0,297.0,327.5,304.0,328.0,304.5,332.0,305.5,332.0,307.0,332.0,311.0,332.0" stroke="black" stroke-width="1" fill="none" />
<polyline points="299.5,330.0,299.0,334.0" stroke="black" stroke-width="1" fill="none" />
<polyline points="284.5,345.5,279.0,347.5,275.0,347.5,271.0,348.0" stroke="black" stroke-width="1" fill="none" />
<polyline points="265.5,322.5,269.5,322.0,273.5,322.0,277.5,322.0,281.5,322.0,285.5,322.5,289.5,321.0,293.5,322.0" stroke="black" stroke-width="1" fill="none" />
<polyline points="269.5,293.5,265.5,293.5" stroke="black" stroke-width="1" fill="none" />
<polyline points="265.0,284.0,269.0,284.0,273.0,283.5,277.0,283.5,281.0,284.0,285.0,283.5,289.0,284.5,284.5,288.5" stroke="black" stroke-width="1" fill="none" />
<polyline points="287.0,281.5,282.5,281.0,278.5,281.5,274.5,281.5,270.5,281.5" stroke="black" stroke-width="1" fill="none" />
<polyline points="270.0,286.0,266.0,286.5,262.0,286.5,258.0,286.5" stroke="black" stroke-width="1" fill="none" />
<polyline points="256.0,293.5,252.0,294.0,248.0,293.5,244.0,293.5,240.0,293.5" stroke="black" stroke-width="1" fill="none" />
<polyline points="235.0,301.5,239.0,301.5,243.0,301.5,247.0,301.5,251.0,301.5,255.0,301.5,255.5,299.0,259.5,299.0,263.5,299.0" stroke="black" stroke-width="1" fill="none" />
<polyline points="253.0,325.0,257.0,325.0,261.0,325.0,265.0,324.5,269.0,324.5,273.0,324.5,277.0,325.0,281.0,324.5,287.5,324.5,291.5,325.0,295.5,324.5,299.5,325.0" stroke="black" stroke-width="1" fill="none" />
<polyline points="273.0,327.5,269.0,327.5,265.0,327.0,261.0,327.0,257.0,327.0,253.0,327.5,249.0,327.5,245.0,327.0" stroke="black" stroke-width="1" fill="none" />
<polyline points="227.0,337.0,231.0,337.5,235.0,337.5,239.0,337.0,243.0,337.0,246.0,335.0,250.0,335.0,254.0,335.0,258.0,333.5,262.0,332.0,266.0,332.5,270.0,332.0,274.0,332.0,278.0,332.5" stroke="black" stroke-width="1" fill="none" />
<polyline points="285.5,288.5,281.5,289.0,277.5,288.5,273.5,288.5,269.5,289.0,263.0,288.5,259.0,289.0,255.0,289.0,251.0,289.0,247.0,289.0,241.5,288.5,237.5,288.5,233.5,288.5,229.5,289.0" stroke="black" stroke-width="1" fill="none" />
<polyline points="228.0,286.0,232.0,286.5,236.0,286.5" stroke="black" stroke-width="1" fill="none" />
<polyline points="227.0,293.5,223.0,293.5,219.0,293.5,215.0,294.0" stroke="black" stroke-width="1" fill="none" />
<polyline points="212.0,288.5,212.5,292.5,212.5,296.5,214.5,299.0,216.5,299.0,220.5,299.0,224.5,299.5,228.5,299.0,232.5,299.5,236.5,299.0,240.5,299.5,244.5,299.0,248.5,299.5,252.5,299.5,256.5,297.0,260.5,295.0,264.0,294.0,267.5,291.0,271.5,291.0,275.5,291.5" stroke="black" stroke-width="1" fill="none" />
<polyline points="258.5,291.0,254.5,291.5,250.5,291.5,246.5,291.5,242.5,291.5,238.5,291.0,234.5,291.0,230.5,291.0,226.5,291.0,222.5,291.5,223.5,291.0" stroke="black" stroke-width="1" fill="none" />
<polyline points="224.0,301.5,220.0,302.0,216.0,301.5" stroke="black" stroke-width="1" fill="none" />
<polyline points="219.0,332.0,223.0,332.0,227.0,332.0,231.0,332.5,235.0,332.0,239.0,332.0,243.0,332.5,242.5,335.0,242.5,339.0" stroke="black" stroke-width="1" fill="none" />
<polyline points="229.5,334.5,225.5,334.5,221.5,334.5,217.5,335.0,213.5,335.0,209.5,334.5" stroke="black" stroke-width="1" fill="none" />
<polyline points="207.0,337.5,211.0,337.0,215.0,337.5,219.0,337.0" stroke="black" stroke-width="1" fill="none" />
<polyline points="217.0,345.0,222.0,343.0,222.0,347.0" stroke="black" stroke-width="1" fill="none" />
<polyline points="225.0,344.5,225.0,348.5,225.5,352.5,224.5,355.5,227.0,357.5" stroke="black" stroke-width="1" fill="none" />
<polyline points="212.0,355.0,216.0,355.0,220.0,355.0,224.0,355.0,226.5,352.5,230.5,353.0,234.5,352.5,238.5,353.0,242.5,352.5,246.5,355.0,250.5,355.0,251.5,353.0,255.5,353.0,259.5,352.5,263.5,353.0" stroke="black" stroke-width="1" fill="none" />
<polyline points="213.5,340.0,209.5,340.5,205.5,340.0,201.5,340.5" stroke="black" stroke-width="1" fill="none" />
<polyline points="202.0,340.0,201.5,344.0,204.5,345.0,204.0,347.5,208.0,348.0,211.0,352.5,214.5,353.0" stroke="black" stroke-width="1" fill="none" />
<polyline points="196.5,345.5,200.5,345.0,205.5,350.0,209.5,350.0,213.5,350.0,217.0,344.0,221.0,342.5,225.5,340.5,229.5,340.0,234.0,340.0,238.0,340.0" stroke="black" stroke-width="1" fill="none" />
<polyline points="182.0,361.0,182.0,365.0" stroke="black" stroke-width="1" fill="none" />
<polyline points="163.5,351.5,164.0,347.5,163.5,343.5,163.5,339.5" stroke="black" stroke-width="1" fill="none" />
<polyline points="161.5,340.0,161.5,336.0,161.0,332.0" stroke="black" stroke-width="1" fill="none" />
<polyline points="140.5,342.5,141.0,346.5,141.0,350.5,141.0,354.5" stroke="black" stroke-width="1" fill="none" />
<polyline points="143.0,354.5,143.0,358.5,143.5,362.5,143.5,366.5" stroke="black" stroke-width="1" fill="none" />
<polyline points="137.5,347.0,138.0,343.0,137.5,339.0,137.5,335.0,138.0,331.0,137.5,327.0" stroke="black" stroke-width="1" fill="none" />
<polyline points="135.5,325.0,131.5,324.5,127.5,324.5,125.0,323.0,125.5,319.0" stroke="black" stroke-width="1" fill="none" />
<polyline points="118.5,316.5,114.5,315.5" stroke="black" stroke-width="1" fill="none" />
<polyline points="117.5,314.5,113.5,311.5,109.5,310.5" stroke="black" stroke-width="1" fill="none" />
<polyline points="111.5,299.5,111.0,297.0,107.0,295.0" stroke="black" stroke-width="1" fill="none" />
<polyline points="115.0,307.0,114.5,303.0,113.5,299.0,107.5,298.0,107.5,294.0,107.0,290.0,104.5,286.5,104.5,282.5,105.0,278.5,104.5,274.5,105.0,270.5,105.0,266.5,102.5,260.5,102.0,256.5,102.0,252.5,99.5,251.0,97.5,245.5,95.5,247.5" stroke="black" stroke-width="1" fill="none" />
<polyline points="97.0,242.5,101.0,242.5,104.5,245.5,106.0,247.5" stroke="black" stroke-width="1" fill="none" />
<polyline points="109.5,255.5,109.5,259.5,110.0,263.5,115.0,263.5" stroke="black" stroke-width="1" fill="none" />
<polyline points="117.0,263.5,117.5,267.5,118.0,271.5,118.0,275.5,118.0,279.5,118.0,283.5,117.5,287.5,118.0,291.5,120.5,294.0,120.0,293.5" stroke="black" stroke-width="1" fill="none" />
<polyline points="128.0,296.5,127.5,300.5,128.0,304.5,128.0,308.5,130.0,309.5,130.5,313.5,132.5,316.0,132.5,320.0,135.0,326.0,135.5,330.0" stroke="black" stroke-width="1" fill="none" />
<polyline points="102.0,285.0,102.5,281.0" stroke="black" stroke-width="1" fill="none" />
<polyline points="115.0,268.5,114.5,264.5,112.0,262.0,111.0,258.0" stroke="black" stroke-width="1" fill="none" />
<polyline points="125.0,270.5,125.0,274.5,125.5,278.5,127.5,282.0,127.5,286.0,127.5,290.0,130.0,296.0,130.5,300.0" stroke="black" stroke-width="1" fill="none" />
<polyline points="105.5,253.0,101.5,250.5,98.0,247.5,97.0,249.0,97.0,249.0,94.5,248.0,94.0,244.0,93.0,240.0" stroke="black" stroke-width="1" fill="none" />
<polyline points="93.0,240.0,97.0,240.5,101.0,240.0" stroke="black" stroke-width="1" fill="none" />
<polyline points="103.5,232.5,99.5,233.0,95.5,235.0,91.5,236.5" stroke="black" stroke-width="1" fill="none" />
<polyline points="93.0,235.0,91.5,239.0,91.5,243.0,92.0,247.0,92.0,251.0,91.5,255.0,92.0,259.0,92.0,263.0,94.0,264.0,94.5,268.0,94.5,272.0,97.0,274.5,97.5,278.5,99.5,279.0,99.5,283.0,102.0,287.0,102.5,291.0,104.5,291.5,104.5,295.5,105.0,299.5,107.0,300.0,107.0,304.0,109.5,304.5,110.0,308.5,111.5,309.5,114.5,311.0,115.0,315.0,118.0,318.0,121.5,319.5" stroke="black" stroke-width="1" fill="none" />
<polyline points="129.0,306.5,125.5,302.5,125.0,298.5,122.5,298.0,122.0,294.0,125.0,293.0,125.5,289.0,123.0,286.0,123.0,282.0,122.5,278.0,120.5,277.5,120.5,273.5,123.0,271.5,122.5,267.5,122.5,263.5,122.5,259.5,122.5,255.5,122.5,251.5,122.5,247.5,122.5,243.5,122.5,239.5,122.5,235.5" stroke="black" stroke-width="1" fill="none" />
<polyline points="109.5,232.0,109.5,236.0,109.5,240.0,109.5,244.0,109.5,250.0,105.0,256.0,105.5,256.0,109.5,255.5" stroke="black" stroke-width="1" fill="none" />
<polyline points="120.5,241.0,120.0,237.0,120.5,233.0,120.0,229.0,117.5,229.0,117.5,225.0,117.5,221.0,117.5,217.0" stroke="black" stroke-width="1" fill="none" />
<polyline points="115.0,219.0,114.5,215.0,114.5,211.0,114.5,207.0" stroke="black" stroke-width="1" fill="none" />
<polyline points="130.0,203.0,135.0,205.5,134.0,209.5" stroke="black" stroke-width="1" fill="none" />
<polyline points="138.0,201.0,142.0,201.5" stroke="black" stroke-width="1" fill="none" />
<polyline points="139.0,199.0,137.5,203.0,137.5,207.0,135.0,212.5" stroke="black" stroke-width="1" fill="none" />
<polyline points="137.5,200.5,141.5,199.5,145.5,199.0" stroke="black" stroke-width="1" fill="none" />
<polyline points="143.0,197.0,147.0,196.5,151.0,196.5,155.0,196.5,160.0,196.5,164.0,197.0,168.0,197.0,172.0,196.5,176.0,196.5,180.0,196.5,184.0,196.5" stroke="black" stroke-width="1" fill="none" />
<polyline points="184.0,201.5,188.0,201.5,192.0,202.0,196.0,202.0" stroke="black" stroke-width="1" fill="none" />
<polyline points="197.0,210.0,201.0,209.5,205.0,210.0" stroke="black" stroke-width="1" fill="none" />
<polyline points="205.0,214.0,206.5,212.5,210.5,212.0,213.5,217.0,217.5,217.5" stroke="black" stroke-width="1" fill="none" />
<polyline points="213.0,215.0,209.0,215.0" stroke="black" stroke-width="1" fill="none" />
<polyline points="200.5,222.5,196.5,222.5" stroke="black" stroke-width="1" fill="none" />
<polyline points="196.5,218.5,200.5,219.5,204.5,220.0,209.5,218.5,212.5,222.5,212.0,223.0" stroke="black" stroke-width="1" fill="none" />
<polyline points="207.0,217.0,208.5,217.0,205.0,217.0,201.0,215.0,197.0,215.0,193.0,217.0" stroke="black" stroke-width="1" fill="none" />
<polyline points="190.0,225.0,186.0,225.0,182.5,227.5,178.5,227.5,173.0,227.5,172.5,224.5" stroke="black" stroke-width="1" fill="none" />
<polyline points="168.5,222.5,168.5,226.0,168.5,230.0,172.5,230.0" stroke="black" stroke-width="1" fill="none" />
<polyline points="178.0,230.5,182.0,230.0,179.0,233.5" stroke="black" stroke-width="1" fill="none" />
<polyline points="178.0,237.5,174.0,238.0" stroke="black" stroke-width="1" fill="none" />
<polyline points="173.5,229.0,173.0,225.0,171.0,224.5,167.5,224.5,163.5,222.0" stroke="black" stroke-width="1" fill="none" />
<polyline points="161.0,222.5,166.0,223.5,166.0,227.5,166.0,231.5,166.5,235.5" stroke="black" stroke-width="1" fill="none" />
<polyline points="163.0,237.5,159.0,238.0,155.0,237.5" stroke="black" stroke-width="1" fill="none" />
<polyline points="156.0,233.0,155.5,229.0,155.0,225.0,152.5,224.5" stroke="black" stroke-width="1" fill="none" />
<polyline points="154.0,220.0,150.0,220.0" stroke="black" stroke-width="1" fill="none" />
<polyline points="164.0,227.5,163.5,231.5" stroke="black" stroke-width="1" fill="none" />
<polyline points="166.5,217.0,170.5,217.0,172.0,215.0,176.0,214.5" stroke="black" stroke-width="1" fill="none" />
<polyline points="173.5,212.0,177.5,212.0,181.5,212.0,185.5,212.0,189.5,212.0,193.5,212.0,192.0,215.0,191.5,219.0,192.0,223.0,189.5,226.5,190.0,227.0" stroke="black" stroke-width="1" fill="none" />
<polyline points="188.0,227.0,184.0,227.5" stroke="black" stroke-width="1" fill="none" />
<polyline points="184.0,219.0,183.5,215.0" stroke="black" stroke-width="1" fill="none" />
<polyline points="184.0,215.0,181.5,218.5,183.0,214.5" stroke="black" stroke-width="1" fill="none" />
<polyline points="189.0,206.5,193.0,206.5,197.0,207.0" stroke="black" stroke-width="1" fill="none" />
<polyline points="194.0,204.0,190.0,204.0,186.0,204.5" stroke="black" stroke-width="1" fill="none" />
<polyline points="192.0,199.5,188.0,199.0,184.0,199.0,180.0,199.0,176.0,199.0" stroke="black" stroke-width="1" fill="none" />
<polyline points="175.5,183.5,179.5,184.0,183.5,184.0,187.5,184.0,191.5,184.0,195.5,183.5,199.5,184.0,203.5,184.0,209.5,188.0,210.0,192.0,213.0,189.5,212.0,192.5,212.0,197.0,212.5,201.0,217.0,204.0,221.5,207.0,222.0,211.0" stroke="black" stroke-width="1" fill="none" />
<polyline points="220.0,210.5,218.5,207.0,219.5,203.0,217.0,199.0" stroke="black" stroke-width="1" fill="none" />
<polyline points="214.5,196.5,214.5,200.5,215.0,204.5" stroke="black" stroke-width="1" fill="none" />
<polyline points="208.5,189.0,204.5,189.0" stroke="black" stroke-width="1" fill="none" />
<polyline points="209.5,186.5,205.5,186.5,201.5,186.5,197.5,186.5,193.5,186.5" stroke="black" stroke-width="1" fill="none" />
<polyline points="190.0,181.5,186.0,181.5,182.0,181.5,178.0,181.0,174.0,181.5,170.0,181.0,166.0,181.0,162.0,181.0,158.0,181.0,154.0,181.5,150.0,181.5" stroke="black" stroke-width="1" fill="none" />
<polyline points="155.0,183.5,151.0,184.0,147.0,183.5,143.0,184.0" stroke="black" stroke-width="1" fill="none" />
<polyline points="140.0,187.0,144.0,187.0,148.0,186.5" stroke="black" stroke-width="1" fill="none" />
<polyline points="148.0,194.5,152.0,194.0,156.0,194.5,160.0,194.0,164.0,194.0,168.0,194.0,172.0,194.0,176.0,194.5,180.0,194.0" stroke="black" stroke-width="1" fill="none" />
<polyline points="142.5,189.0,138.5,189.5,137.5,190.5" stroke="black" stroke-width="1" fill="none" />
<polyline points="135.5,193.5,136.0,192.0,137.5,192.0,135.5,194.0,133.0,196.0,133.0,200.0,130.5,201.0,130.5,205.0,130.5,209.0,133.0,212.0,132.5,216.0" stroke="black" stroke-width="1" fill="none" />
<polyline points="112.5,209.0,112.0,205.0,112.0,201.0,112.0,197.0,112.0,193.0,112.5,189.0" stroke="black" stroke-width="1" fill="none" />
<polyline points="97.0,189.0,97.0,193.0,97.0,197.0,97.5,201.0,97.0,205.0,97.5,209.0,97.5,213.0,97.5,217.0,99.5,217.0,99.5,221.0,102.0,221.5,102.5,225.5,104.5,226.5,105.0,230.5,107.0,230.5,107.0,234.5,105.0,235.0" stroke="black" stroke-width="1" fill="none" />
<polyline points="94.5,202.0,94.0,198.0,94.5,194.0,94.5,190.0,94.5,186.0,94.0,182.0,94.0,178.0,94.0,174.0,94.0,170.0,94.0,166.0" stroke="black" stroke-width="1" fill="none" />
<polyline points="89.0,162.0,89.5,160.0,89.5,156.0,89.0,152.0,89.0,148.0,89.5,144.0,89.0,140.0,89.5,136.0,89.5,132.0,89.0,128.0,89.0,124.0,89.5,120.0,89.0,116.0,89.5,112.0,89.5,108.0,89.5,104.0" stroke="black" stroke-width="1" fill="none" />
<polyline points="97.0,96.0,97.0,92.0,97.0,88.0,97.5,84.0,97.0,83.0" stroke="black" stroke-width="1" fill="none" />
<polyline points="94.5,86.5,94.5,90.5,94.5,94.5,94.5,98.5,92.0,100.0,91.5,104.0,91.5,108.0,91.5,112.0,92.0,116.0,91.5,120.0,91.5,124.0,92.0,128.0,91.5,132.0,91.5,136.0,91.5,140.0,91.5,146.0,92.0,150.0,92.0,154.0,91.5,158.0,92.0,162.0,92.0,166.0,92.0,170.0,92.0,174.0,92.0,178.0,92.0,182.0" stroke="black" stroke-width="1" fill="none" />
<polyline points="127.5,107.5,131.5,107.0,135.5,107.0,136.0,102.5,140.0,102.0" stroke="black" stroke-width="1" fill="none" />
<polyline points="143.0,95.5,147.0,94.0,149.5,91.5,153.0,89.0,157.0,89.0" stroke="black" stroke-width="1" fill="none" />
<polyline points="168.5,84.5,172.5,84.0,176.5,84.0,180.5,84.0,184.0,82.0" stroke="black" stroke-width="1" fill="none" />
<polyline points="196.5,82.0,195.0,79.5,191.0,82.0,194.0,80.5,194.5,74.5,194.0,70.5" stroke="black" stroke-width="1" fill="none" />
<polyline points="201.5,72.5,203.0,71.0,201.5,75.0" stroke="black" stroke-width="1" fill="none" />
<polyline points="206.5,79.0,210.5,79.0,214.5,79.0" stroke="black" stroke-width="1" fill="none" />
<polyline points="217.0,75.0,217.5,71.5" stroke="black" stroke-width="1" fill="none" />
<polyline points="217.0,74.0,219.5,72.0,220.0,76.0,220.0,80.0,222.0,81.0,222.0,79.5,226.0,79.0" stroke="black" stroke-width="1" fill="none" />
<polyline points="221.5,77.0,225.5,76.5,229.5,76.5,236.0,79.5,240.0,79.0,243.0,81.5,245.5,79.0" stroke="black" stroke-width="1" fill="none" />
<polyline points="245.5,74.0,249.5,73.5,253.5,74.0,253.0,80.0,255.5,81.0" stroke="black" stroke-width="1" fill="none" />
<polyline points="257.5,73.5,261.5,73.5,265.5,74.0,269.5,73.5,273.5,74.0,277.5,73.5,281.5,74.0,285.5,73.5" stroke="black" stroke-width="1" fill="none" />
<polyline points="291.0,76.5,295.0,76.5,299.0,76.5" stroke="black" stroke-width="1" fill="none" />
<polyline points="298.5,79.0,302.5,79.0,306.5,79.0" stroke="black" stroke-width="1" fill="none" />
<polyline points="307.5,82.0,303.5,81.5" stroke="black" stroke-width="1" fill="none" />
<polyline points="306.5,84.0,310.5,84.0,314.5,84.5,318.5,84.0" stroke="black" stroke-width="1" fill="none" />
<polyline points="317.0,89.0,321.0,89.0,325.0,89.0,329.0,89.5,333.0,93.5" stroke="black" stroke-width="1" fill="none" />
<polyline points="325.5,87.0,321.5,87.0,317.5,86.5,313.5,86.5,309.5,86.5" stroke="black" stroke-width="1" fill="none" />
<polyline points="299.0,48.0,303.0,48.0,303.5,46.0" stroke="black" stroke-width="1" fill="none" />
<polyline points="329.5,24.0,333.5,25.5" stroke="black" stroke-width="1" fill="none" />
<polyline points="335.5,24.5,337.5,24.0,337.5,24.0,333.5,23.0,329.5,23.0" stroke="black" stroke-width="1" fill="none" />
<polyline points="335.0,16.5,339.0,17.5,343.5,20.0" stroke="black" stroke-width="1" fill="none" />
<polyline points="326.5,7.5,321.5,5.0,317.5,4.0" stroke="black" stroke-width="1" fill="none" />
<polyline points="312.0,0.5,316.0,2.0,320.0,2.5,324.5,5.5,324.5,9.5,322.0,11.5,324.5,8.5,328.5,10.0,332.5,10.0,335.0,10.5,335.5,14.5,340.0,17.5,340.0,21.5,342.0,22.5,346.5,22.5,348.0,24.5,349.0,27.5,353.0,31.0,353.5,35.0,353.5,39.0,358.0,44.0,358.5,48.0,360.5,49.0,361.0,53.0,361.0,57.0,363.0,58.5,363.0,62.5,367.0,63.5,368.0,66.5,368.5,70.5,370.0,71.5,370.5,75.5,370.5,78.0,376.0,78.0,376.0,82.0,376.0,86.0,376.0,90.0,376.0,94.0,376.0,98.0,376.5,102.0,381.0,105.5,381.5,109.5,381.0,113.5,381.0,117.5,381.0,121.5,381.0,125.5,381.5,129.5,381.5,132.0" stroke="black" stroke-width="1" fill="none" />
<polyline points="386.0,137.5,386.0,141.5,386.0,145.5,386.0,149.5,386.5,153.5,386.5,157.5,386.5,161.5,386.5,165.5,386.5,169.5,386.5,173.5,386.0,177.5,386.5,181.5,386.0,185.5,384.0,189.0,383.5,193.0,383.5,197.0,383.5,201.0" stroke="black" stroke-width="1" fill="none" />
<polyline points="381.5,196.5,381.0,200.5,381.0,204.5,381.0,208.5,381.5,212.5" stroke="black" stroke-width="1" fill="none" />
<polyline points="386.5,212.0,386.0,208.0,389.0,205.0,391.0,201.5,393.5,201.0,393.5,197.0,393.5,197.0" stroke="black" stroke-width="1" fill="none" />
<polyline points="396.5,194.5,400.5,194.0,404.0,198.0,404.0,202.0,404.0,206.0,404.5,210.0" stroke="black" stroke-width="1" fill="none" />
<polyline points="406.5,203.5,406.5,207.5,406.5,211.5,407.0,215.5,407.0,219.5,406.5,223.5,406.5,227.5,406.5,231.5,406.5,235.5,404.5,238.0,404.0,242.0,404.0,246.0,404.0,250.0,404.0,254.0,404.0,258.0" stroke="black" stroke-width="1" fill="none" />
<polyline points="386.0,231.0,386.5,227.0,386.0,223.0,386.0,219.0,388.5,218.0,388.5,214.0,389.0,210.0,390.0,206.5,386.0,207.0" stroke="black" stroke-width="1" fill="none" />
<polyline points="388.5,204.5,392.5,204.0,396.5,203.0,399.5,201.5,401.0,204.0" stroke="black" stroke-width="1" fill="none" />
<polyline points="397.5,196.5,401.5,195.5" stroke="black" stroke-width="1" fill="none" />
<polyline points="387.0,191.5,386.0,193.0,386.0,189.0" stroke="black" stroke-width="1" fill="none" />
<polyline points="379.0,203.5,379.0,207.5,378.5,211.5,378.5,215.5,379.0,219.5,381.5,222.0,383.5,226.0,384.0,230.0,383.5,234.0,381.5,240.0,381.0,244.0,381.5,248.0,381.0,252.0,381.5,256.0,381.5,260.0,381.5,264.0,381.5,268.0,381.0,272.0,381.0,276.0,381.0,280.0,381.5,284.0" stroke="black" stroke-width="1" fill="none" />
<polyline points="378.5,253.5,378.5,249.5,378.5,245.5,378.5,241.5,378.5,237.5,379.0,233.5,378.5,229.5,379.0,225.5,374.0,224.0" stroke="black" stroke-width="1" fill="none" />
<polyline points="375.0,224.5,376.0,228.5,376.5,232.5,376.0,236.5,376.5,240.5,376.0,244.5,376.5,248.5,376.5,252.5,376.5,256.5,376.5,260.5" stroke="black" stroke-width="1" fill="none" />
<polyline points="373.5,228.5,374.0,224.5,373.5,220.5,373.5,216.5" stroke="black" stroke-width="1" fill="none" />
<polyline points="371.0,221.5,371.0,217.5,370.5,213.5,369.5,209.5" stroke="black" stroke-width="1" fill="none" />
<polyline points="368.5,215.0,368.5,211.0,368.5,207.0,368.0,203.0,368.0,199.0,368.0,195.0,368.5,191.0,368.0,187.0,368.0,183.0" stroke="black" stroke-width="1" fill="none" />
<polyline points="363.5,177.0,363.5,173.0,363.5,169.0,363.0,165.0,358.5,162.0,358.0,158.0,353.0,155.5" stroke="black" stroke-width="1" fill="none" />
<polyline points="358.0,163.0,360.5,162.0,361.0,166.0,360.5,170.0" stroke="black" stroke-width="1" fill="none" />
<polyline points="364.5,168.5,365.5,172.5,365.5,176.5,366.0,180.5,365.5,184.5,366.0,188.5,366.0,192.5,366.0,196.5,365.5,200.5" stroke="black" stroke-width="1" fill="none" />
<polyline points="347.0,176.5,343.0,175.5" stroke="black" stroke-width="1" fill="none" />
<polyline points="340.0,168.5,335.5,165.5,334.5,163.5,330.5,163.0,330.5,161.0,326.5,161.0,322.5,160.5,318.5,160.5,314.5,160.5,310.5,160.5,306.5,161.0" stroke="black" stroke-width="1" fill="none" />
<polyline points="309.5,158.5,313.5,158.5,317.5,158.5,321.5,158.5,325.5,158.5" stroke="black" stroke-width="1" fill="none" />
<polyline points="337.0,166.5,338.0,170.5,339.0,171.5,342.5,172.5,344.0,173.5,345.5,178.0,347.5,180.0,345.5,183.0" stroke="black" stroke-width="1" fill="none" />
<polyline points="332.5,207.5,331.0,206.5,327.0,206.5" stroke="black" stroke-width="1" fill="none" />
<polyline points="329.5,206.5,329.5,210.5" stroke="black" stroke-width="1" fill="none" />
<polyline points="325.5,215.0,321.5,215.0" stroke="black" stroke-width="1" fill="none" />
<polyline points="327.0,210.5,327.0,206.5,326.0,204.0,322.0,204.0,318.0,204.0" stroke="black" stroke-width="1" fill="none" />
<polyline points="317.0,206.5,317.5,210.5,319.5,216.0,322.0,219.0,322.5,217.0,326.5,217.5" stroke="black" stroke-width="1" fill="none" />
<polyline points="321.5,201.5,317.5,202.0,313.5,201.5,309.5,201.5" stroke="black" stroke-width="1" fill="none" />
<polyline points="309.5,205.5,313.5,204.0,310.0,206.5,307.0,210.5,308.5,209.5" stroke="black" stroke-width="1" fill="none" />
<polyline points="305.5,212.0,301.5,212.5,297.5,212.0,293.5,212.5,289.5,212.5,285.5,212.5,278.5,212.5,274.5,212.0" stroke="black" stroke-width="1" fill="none" />
<polyline points="276.5,214.5,272.5,214.5,271.5,211.5,273.5,210.0,276.0,206.0,273.5,208.0" stroke="black" stroke-width="1" fill="none" />
<polyline points="278.0,204.5,282.0,204.0,286.0,201.5,289.0,205.0,289.5,209.0,291.0,210.0,289.0,217.0,293.0,217.0,297.0,217.5" stroke="black" stroke-width="1" fill="none" />
<polyline points="306.5,224.5,310.5,224.5,314.5,224.5,318.5,224.5" stroke="black" stroke-width="1" fill="none" />
<polyline points="327.5,211.5,322.0,212.0,318.0,212.0,315.0,212.0,314.5,208.0,313.5,204.0" stroke="black" stroke-width="1" fill="none" />
<polyline points="316.5,197.0,312.5,196.0" stroke="black" stroke-width="1" fill="none" />
<polyline points="312.0,195.5,316.0,194.0,320.0,194.5,324.0,194.5,325.5,197.0,329.5,197.0" stroke="black" stroke-width="1" fill="none" />
<polyline points="342.0,171.5,338.0,170.5,334.0,173.5,330.0,174.0,326.0,173.5,322.0,173.5,318.0,173.5,315.0,175.5,311.0,176.0,307.0,176.0,300.5,178.5,296.5,179.0" stroke="black" stroke-width="1" fill="none" />
<polyline points="298.5,181.0,295.5,183.5,291.5,184.0,290.0,186.5,286.0,187.0" stroke="black" stroke-width="1" fill="none" />
<polyline points="278.5,189.5,282.5,189.0,283.0,187.0,287.0,184.0,291.0,181.5,295.0,181.5,298.5,176.5,302.5,176.5,306.5,175.0,310.0,174.0,314.0,173.5,317.5,171.5,321.5,171.5,325.5,171.5,329.5,171.5,333.5,171.0,336.0,176.0,340.0,176.5,342.5,179.0,343.0,180.5,347.0,183.5" stroke="black" stroke-width="1" fill="none" />
<polyline points="310.0,191.5,306.0,191.5,302.0,192.0,298.0,191.5,294.0,192.0,290.0,191.5,289.0,194.5,285.0,194.0,281.0,194.0" stroke="black" stroke-width="1" fill="none" />
<polyline points="283.0,204.5,287.0,204.5" stroke="black" stroke-width="1" fill="none" />
<polyline points="281.0,208.0,283.5,206.0,281.0,210.0,278.5,214.0" stroke="black" stroke-width="1" fill="none" />
<polyline points="271.5,199.5,275.5,199.0,279.5,199.0,283.5,197.0,287.5,196.5,288.5,199.5,292.5,199.5,296.5,199.5,300.5,199.5,304.5,199.0,308.5,199.5,312.5,199.5" stroke="black" stroke-width="1" fill="none" />
<polyline points="302.0,196.5,298.0,196.5,294.0,195.5" stroke="black" stroke-width="1" fill="none" />
<polyline points="289.0,166.5,293.0,166.5,297.0,166.5,301.0,166.0,305.0,166.0,309.0,166.0,309.5,165.5" stroke="black" stroke-width="1" fill="none" />
<polyline points="298.5,168.5,294.5,168.5,290.5,168.5,286.5,169.0,282.5,168.5,278.5,169.0" stroke="black" stroke-width="1" fill="none" />
<polyline points="281.5,173.5,277.5,173.5,273.5,173.5" stroke="black" stroke-width="1" fill="none" />
<polyline points="279.5,176.0,275.5,176.5,273.0,178.5,269.0,178.5,265.0,179.0" stroke="black" stroke-width="1" fill="none" />
<polyline points="262.5,176.5,263.5,176.0,263.0,180.0,263.0,184.5,263.0,188.5,263.0,192.5,260.5,195.5,260.5,199.5" stroke="black" stroke-width="1" fill="none" />
<polyline points="258.0,202.0,258.0,198.0,258.0,194.0" stroke="black" stroke-width="1" fill="none" />
<polyline points="261.0,178.0,260.5,182.0,260.5,186.0,263.0,184.0,268.5,181.5,272.5,181.0" stroke="black" stroke-width="1" fill="none" />
<polyline points="265.0,174.0,269.0,174.0,273.0,173.5,276.5,171.5,280.5,171.5,284.5,171.5,288.5,171.0" stroke="black" stroke-width="1" fill="none" />
<polyline points="350.0,145.0,350.5,149.0,353.0,151.5,353.0,155.5,355.5,156.5,355.5,160.5,358.5,158.5" stroke="black" stroke-width="1" fill="none" />
<polyline points="278.5,71.0,274.5,71.0,270.5,71.5,266.5,71.0,262.5,71.0" stroke="black" stroke-width="1" fill="none" />
<polyline points="252.5,45.5,248.5,45.0" stroke="black" stroke-width="1" fill="none" />
<polyline points="248.0,40.0,248.0,44.0,245.5,47.0,245.5,51.0,246.5,53.0,250.5,53.0,253.0,49.5" stroke="black" stroke-width="1" fill="none" />
<polyline points="238.0,53.5,239.5,51.0,240.0,51.5,237.5,55.5" stroke="black" stroke-width="1" fill="none" />
<polyline points="228.0,56.0,227.5,60.0" stroke="black" stroke-width="1" fill="none" />
<polyline points="230.5,71.0,230.0,75.0,227.5,76.0,230.0,71.5" stroke="black" stroke-width="1" fill="none" />
<polyline points="231.5,71.0,232.5,75.0,233.0,79.0,233.5,81.5" stroke="black" stroke-width="1" fill="none" />
<polyline points="234.0,76.5,238.0,76.5,242.5,76.5,246.5,76.5,250.5,76.5" stroke="black" stroke-width="1" fill="none" />
<polyline points="213.0,76.5,209.0,74.0" stroke="black" stroke-width="1" fill="none" />
<polyline points="186.5,32.5,187.0,28.5,184.0,27.0,184.5,23.0,188.5,20.5,184.5,23.0,184.5,24.5" stroke="black" stroke-width="1" fill="none" />
<polyline points="180.0,27.5,181.5,29.0" stroke="black" stroke-width="1" fill="none" />
<polyline points="180.5,33.0,176.5,33.0,176.0,29.0,179.0,25.0,176.0,29.0" stroke="black" stroke-width="1" fill="none" />
<polyline points="168.5,0.5,165.0,2.0,164.0,4.5,160.0,4.5,156.5,7.5,156.0,9.5,152.5,12.5,148.5,13.0" stroke="black" stroke-width="1" fill="none" />
<polyline points="146.0,12.0,147.5,9.5,147.5,9.5,148.0,10.0,148.5,14.0,148.5,16.0,145.5,18.0,143.0,21.5,140.5,25.5,138.0,27.5,135.0,31.5,135.0,35.5,132.0,38.5" stroke="black" stroke-width="1" fill="none" />
<polyline points="125.0,41.0,128.0,42.5,130.5,44.0,130.0,48.0,130.0,52.0,127.5,56.0" stroke="black" stroke-width="1" fill="none" />
<polyline points="126.0,48.0,125.0,44.5,125.5,40.5,129.5,40.5,130.5,36.5,130.5,32.5,130.5,28.5,132.5,26.5,135.5,22.5,137.0,20.0,136.0,22.5" stroke="black" stroke-width="1" fill="none" />
<polyline points="124.0,45.5,120.0,46.0" stroke="black" stroke-width="1" fill="none" />
<polyline points="120.0,47.0,123.0,50.0,123.0,54.0" stroke="black" stroke-width="1" fill="none" />
<polyline points="128.0,53.0,124.0,53.0,120.0,55.0,120.5,51.5,120.5,47.5,117.5,48.5" stroke="black" stroke-width="1" fill="none" />
<polyline points="118.0,47.5,118.0,51.5,114.5,53.5,118.5,53.5" stroke="black" stroke-width="1" fill="none" />
<polyline points="120.0,58.0,116.0,58.5,112.0,57.5" stroke="black" stroke-width="1" fill="none" />
<polyline points="112.0,56.5,116.0,56.0,120.0,56.0" stroke="black" stroke-width="1" fill="none" />
<polyline points="110.5,61.5,111.0,58.5,110.0,58.5,110.0,62.5" stroke="black" stroke-width="1" fill="none" />
<polyline points="107.5,61.5,107.5,65.5,107.0,69.5,104.5,70.0,102.5,73.0,100.0,77.0,99.5,81.0,99.5,85.0,100.0,85.5" stroke="black" stroke-width="1" fill="none" />
<polyline points="102.0,76.0,104.5,73.0,105.0,67.0,104.5,70.0,103.5,74.0" stroke="black" stroke-width="1" fill="none" />
<polyline points="144.5,94.0,143.0,98.0,140.5,102.5,143.5,99.5" stroke="black" stroke-width="1" fill="none" />
<polyline points="309.5,6.0,313.5,4.5,314.0,7.0,318.0,7.5,320.0,9.5,323.5,12.5,327.5,13.0,331.5,12.5,335.5,14.5,339.5,15.5" stroke="black" stroke-width="1" fill="none" />
<polyline points="291.5,275.5,291.5,279.5,291.5,283.5" stroke="black" stroke-width="1" fill="none" />
<polyline points="350.5,306.5,350.0,310.5,350.5,314.5,350.0,318.5" stroke="black" stroke-width="1" fill="none" />
<polyline points="343.0,324.0,343.0,328.0,342.5,332.0" stroke="black" stroke-width="1" fill="none" />
<polyline points="376.5,334.5,376.0,338.5,376.5,342.5,376.0,346.5,376.5,350.5,376.5,354.5" stroke="black" stroke-width="1" fill="none" />
</svg>