<svg xmlns="http://www.w3.org/2000/svg" height="332px" width="386px" version="1.1"><polyline points="138.0,78.0,136.5,90.0,138.0,102.0,142.5,114.0,147.0,126.0,148.5,138.0,148.5,150.0,150.0,162.0,165.0,174.0,181.5,186.0,166.5,198.0,168.0,180.0" stroke="black" stroke-width="1" fill="none" />
<polyline points="168.0,180.0,159.0,192.0,157.5,210.0,175.5,219.0,187.5,216.0,198.0,217.5" stroke="black" stroke-width="1" fill="none" />
<polyline points="193.5,217.5,186.0,229.5,180.0,241.5,168.0,253.5,171.0,262.5,171.0,274.5,172.5,294.0,172.5,294.0,183.0,298.5,195.0,276.0,207.0,279.0,219.0,277.5,231.0,274.5,243.0,253.5,255.0,247.5" stroke="black" stroke-width="1" fill="none" />
<polyline points="256.5,253.5,241.5,265.5,237.0,277.5,243.0,283.5,255.0,279.0,267.0,274.5" stroke="black" stroke-width="1" fill="none" />
<polyline points="271.5,276.0,262.5,276.0" stroke="black" stroke-width="1" fill="none" />
<polyline points="264.0,285.0,283.5,273.0,291.0,285.0" stroke="black" stroke-width="1" fill="none" />
<polyline points="298.5,273.0,292.5,261.0,279.0,261.0" stroke="black" stroke-width="1" fill="none" />
<polyline points="273.0,289.5,268.5,288.0,283.5,291.0" stroke="black" stroke-width="1" fill="none" />
<polyline points="288.0,292.5,276.0,285.0,264.0,292.5" stroke="black" stroke-width="1" fill="none" />
<polyline points="267.0,297.0,279.0,298.5,291.0,300.0,303.0,292.5,315.0,285.0,327.0,277.5,339.0,267.0,351.0,255.0,363.0,238.5,375.0,216.0" stroke="black" stroke-width="1" fill="none" />
<polyline points="382.5,198.0,370.5,183.0,358.5,178.5" stroke="black" stroke-width="1" fill="none" />
<polyline points="366.0,180.0,376.5,192.0" stroke="black" stroke-width="1" fill="none" />
<polyline points="363.0,198.0,348.0,184.5,340.5,196.5,328.5,210.0,316.5,220.5,304.5,229.5,292.5,235.5,280.5,240.0,268.5,241.5,255.0,231.0,244.5,229.5,232.5,226.5,220.5,223.5,208.5,222.0,196.5,223.5,183.0,232.5,171.0,253.5,159.0,258.0,160.5,246.0,169.5,234.0,174.0,222.0,193.5,210.0,196.5,198.0,178.5,190.5,166.5,198.0" stroke="black" stroke-width="1" fill="none" />
<polyline points="159.0,198.0,160.5,211.5" stroke="black" stroke-width="1" fill="none" />
<polyline points="193.5,207.0,205.5,198.0,217.5,198.0,229.5,204.0,241.5,214.5" stroke="black" stroke-width="1" fill="none" />
<polyline points="238.5,196.5,246.0,199.5,258.0,199.5,270.0,193.5,282.0,189.0" stroke="black" stroke-width="1" fill="none" />
<polyline points="283.5,193.5,270.0,210.0,265.5,222.0,259.5,234.0" stroke="black" stroke-width="1" fill="none" />
<polyline points="258.0,238.5,246.0,234.0,229.5,246.0,217.5,249.0,205.5,264.0,211.5,258.0,217.5,258.0,229.5,246.0,240.0,234.0,249.0,222.0,243.0,207.0,237.0,195.0,238.5,183.0,249.0,171.0,274.5,153.0,276.0,141.0,273.0,129.0,270.0,117.0,273.0,105.0,276.0,93.0,277.5,81.0,274.5,69.0,268.5,67.5,256.5,70.5,244.5,73.5,232.5,78.0,220.5,76.5,208.5,76.5,196.5,78.0,184.5,84.0,172.5,84.0,160.5,81.0,148.5,78.0,136.5,79.5" stroke="black" stroke-width="1" fill="none" />
<polyline points="165.0,150.0,171.0,162.0" stroke="black" stroke-width="1" fill="none" />
<polyline points="165.0,156.0,177.0,169.5" stroke="black" stroke-width="1" fill="none" />
<polyline points="174.0,156.0,162.0,153.0" stroke="black" stroke-width="1" fill="none" />
<polyline points="168.0,153.0,180.0,165.0" stroke="black" stroke-width="1" fill="none" />
<polyline points="150.0,159.0,162.0,171.0,174.0,177.0,186.0,190.5,198.0,196.5,210.0,189.0,222.0,177.0,234.0,169.5,246.0,163.5,258.0,160.5,270.0,156.0" stroke="black" stroke-width="1" fill="none" />
<polyline points="267.0,166.5,286.5,178.5,300.0,190.5" stroke="black" stroke-width="1" fill="none" />
<polyline points="294.0,195.0,282.0,195.0,270.0,202.5,255.0,214.5,268.5,207.0,283.5,187.5,285.0,175.5,273.0,168.0,261.0,166.5,249.0,171.0,237.0,184.5" stroke="black" stroke-width="1" fill="none" />
<polyline points="223.5,199.5,235.5,211.5" stroke="black" stroke-width="1" fill="none" />
<polyline points="246.0,234.0,261.0,246.0,238.5,258.0,232.5,270.0" stroke="black" stroke-width="1" fill="none" />
<polyline points="238.5,274.5,250.5,268.5,262.5,264.0,262.5,270.0,237.0,273.0,249.0,256.5,261.0,253.5,273.0,252.0,285.0,255.0,297.0,264.0" stroke="black" stroke-width="1" fill="none" />
<polyline points="288.0,307.5,303.0,319.5" stroke="black" stroke-width="1" fill="none" />
<polyline points="208.5,315.0,210.0,301.5,205.5,297.0" stroke="black" stroke-width="1" fill="none" />
<polyline points="208.5,277.5,196.5,279.0,202.5,286.5,193.5,298.5,178.5,310.5,177.0,322.5,183.0,328.5,195.0,319.5,207.0,316.5,219.0,319.5,231.0,319.5,243.0,318.0,255.0,319.5,267.0,318.0,279.0,319.5,291.0,327.0,303.0,328.5" stroke="black" stroke-width="1" fill="none" />
<polyline points="226.5,241.5,214.5,243.0,202.5,253.5,190.5,265.5,183.0,280.5,171.0,271.5" stroke="black" stroke-width="1" fill="none" />
<polyline points="175.5,258.0,178.5,270.0,181.5,282.0" stroke="black" stroke-width="1" fill="none" />
<polyline points="175.5,286.5,163.5,285.0,151.5,279.0,138.0,277.5,138.0,265.5,130.5,258.0" stroke="black" stroke-width="1" fill="none" />
<polyline points="136.5,255.0,148.5,256.5,160.5,246.0,172.5,226.5" stroke="black" stroke-width="1" fill="none" />
<polyline points="126.0,238.5,132.0,250.5,136.5,258.0,133.5,270.0,136.5,282.0,135.0,294.0,141.0,298.5,153.0,292.5" stroke="black" stroke-width="1" fill="none" />
<polyline points="153.0,292.5,156.0,280.5" stroke="black" stroke-width="1" fill="none" />
<polyline points="123.0,303.0,111.0,300.0,99.0,301.5,87.0,313.5,75.0,327.0,63.0,331.5,51.0,328.5" stroke="black" stroke-width="1" fill="none" />
<polyline points="55.5,289.5,43.5,271.5,31.5,264.0" stroke="black" stroke-width="1" fill="none" />
<polyline points="34.5,246.0,51.0,258.0" stroke="black" stroke-width="1" fill="none" />
<polyline points="63.0,238.5,51.0,226.5" stroke="black" stroke-width="1" fill="none" />
<polyline points="49.5,219.0,61.5,219.0,73.5,228.0,85.5,240.0" stroke="black" stroke-width="1" fill="none" />
<polyline points="118.5,237.0,112.5,249.0,96.0,261.0,93.0,273.0,96.0,285.0" stroke="black" stroke-width="1" fill="none" />
<polyline points="99.0,301.5,87.0,313.5,76.5,325.5" stroke="black" stroke-width="1" fill="none" />
<polyline points="60.0,318.0,51.0,324.0,64.5,312.0,58.5,300.0,54.0,288.0,46.5,276.0,31.5,264.0,22.5,265.5,10.5,267.0" stroke="black" stroke-width="1" fill="none" />
<polyline points="28.5,244.5,13.5,256.5,7.5,262.5,19.5,250.5,31.5,244.5,43.5,249.0,55.5,258.0" stroke="black" stroke-width="1" fill="none" />
<polyline points="57.0,219.0,75.0,231.0,85.5,243.0,87.0,255.0,88.5,267.0,94.5,262.5,106.5,253.5,118.5,237.0" stroke="black" stroke-width="1" fill="none" />
<polyline points="63.0,253.5,61.5,241.5,51.0,229.5,51.0,217.5" stroke="black" stroke-width="1" fill="none" />
<polyline points="225.0,150.0,213.0,168.0,219.0,157.5,231.0,145.5" stroke="black" stroke-width="1" fill="none" />
<polyline points="229.5,139.5,217.5,151.5,210.0,163.5,213.0,156.0,225.0,142.5" stroke="black" stroke-width="1" fill="none" />
<polyline points="246.0,163.5,223.5,175.5,211.5,187.5,217.5,205.5,231.0,226.5,228.0,240.0,204.0,252.0,193.5,264.0,187.5,276.0,189.0,288.0,181.5,300.0,183.0,306.0,195.0,298.5,207.0,283.5,219.0,283.5,231.0,280.5,243.0,277.5,256.5,273.0,268.5,270.0,286.5,274.5" stroke="black" stroke-width="1" fill="none" />
<polyline points="300.0,315.0,288.0,306.0,276.0,306.0,273.0,301.5,300.0,294.0,322.5,282.0,336.0,270.0,349.5,258.0,357.0,246.0,366.0,234.0,372.0,222.0,373.5,210.0,361.5,198.0" stroke="black" stroke-width="1" fill="none" />
<polyline points="376.5,126.0,364.5,117.0" stroke="black" stroke-width="1" fill="none" />
<polyline points="369.0,115.5,364.5,127.5,363.0,139.5,360.0,151.5,357.0,163.5,351.0,175.5,345.0,187.5,337.5,199.5,327.0,211.5,313.5,223.5,291.0,235.5" stroke="black" stroke-width="1" fill="none" />
<polyline points="261.0,114.0,249.0,102.0" stroke="black" stroke-width="1" fill="none" />
<polyline points="246.0,99.0,258.0,87.0,261.0,84.0,249.0,96.0,255.0,108.0" stroke="black" stroke-width="1" fill="none" />
<polyline points="255.0,115.5,243.0,103.5" stroke="black" stroke-width="1" fill="none" />
<polyline points="246.0,108.0,243.0,96.0,253.5,84.0,265.5,75.0,253.5,84.0,241.5,97.5" stroke="black" stroke-width="1" fill="none" />
<polyline points="369.0,118.5,378.0,130.5,382.5,142.5,384.0,154.5,385.5,166.5,385.5,178.5,384.0,190.5,381.0,204.0" stroke="black" stroke-width="1" fill="none" />
</svg>