<svg xmlns="http://www.w3.org/2000/svg" height="389px" width="326px" version="1.1"><polyline points="182.0,14.0,178.5,15.5,182.5,14.0,186.5,13.0,190.5,12.5,194.5,12.5,198.5,13.0,202.5,13.5,206.5,13.5,210.5,13.5,214.5,14.0,218.5,15.0,222.5,16.5,226.5,17.0,230.5,18.0,234.5,20.5,238.5,23.0,242.5,25.0,246.5,27.5,250.5,31.0,254.5,33.0,258.5,35.5,262.5,39.0,266.5,43.5,270.5,47.0,274.5,50.5,278.5,54.5" stroke="black" stroke-width="1" fill="none" />
<polyline points="270.5,57.0,276.0,61.0,280.5,65.0" stroke="black" stroke-width="1" fill="none" />
<polyline points="286.0,68.5,289.5,72.5,293.5,76.5" stroke="black" stroke-width="1" fill="none" />
<polyline points="294.0,77.5,290.0,72.5,286.0,68.5" stroke="black" stroke-width="1" fill="none" />
<polyline points="264.0,71.0,260.0,68.0" stroke="black" stroke-width="1" fill="none" />
<polyline points="260.0,54.0,255.0,50.0,248.5,46.0" stroke="black" stroke-width="1" fill="none" />
<polyline points="240.0,42.5,236.0,40.0,232.0,38.0,228.0,37.0,224.0,37.0,220.0,37.0,216.0,35.5,212.0,35.0,208.0,35.0,204.0,35.0,200.0,35.0,196.0,35.5,192.0,35.5,188.0,37.0,184.0,38.0,180.0,38.0,176.0,38.0,172.0,38.5,168.0,39.0,164.0,40.5,160.0,41.0,156.0,42.0,152.0,42.5,148.0,44.0,144.0,46.0,140.0,48.0,136.0,50.0,132.0,53.0,128.0,54.0,124.0,57.0,120.0,59.0,116.0,60.0" stroke="black" stroke-width="1" fill="none" />
<polyline points="137.0,71.5,134.0,75.5,137.0,71.5" stroke="black" stroke-width="1" fill="none" />
<polyline points="166.0,76.0,167.5,73.0,166.0,77.0,165.0,81.0" stroke="black" stroke-width="1" fill="none" />
<polyline points="174.5,84.0,178.5,82.5" stroke="black" stroke-width="1" fill="none" />
<polyline points="185.0,83.5,181.0,83.5,183.5,84.5,189.5,83.0,188.5,79.0" stroke="black" stroke-width="1" fill="none" />
<polyline points="193.0,83.0,193.0,84.0,195.5,80.0,197.0,76.0" stroke="black" stroke-width="1" fill="none" />
<polyline points="206.0,78.0,208.0,74.0" stroke="black" stroke-width="1" fill="none" />
<polyline points="209.0,61.5,206.0,60.5,206.5,60.0,205.5,56.0" stroke="black" stroke-width="1" fill="none" />
<polyline points="207.5,46.5,204.5,50.0,208.0,46.0" stroke="black" stroke-width="1" fill="none" />
<polyline points="233.0,38.5,240.0,42.5,245.0,44.5,249.0,46.0,253.0,48.5,257.0,50.5,261.0,54.0,265.0,56.0,269.0,56.5,273.0,58.0,277.0,61.0,281.0,63.0" stroke="black" stroke-width="1" fill="none" />
<polyline points="302.5,89.0,306.5,90.0,310.5,95.5" stroke="black" stroke-width="1" fill="none" />
<polyline points="311.0,98.0,309.0,94.0,306.0,90.0,303.0,90.0" stroke="black" stroke-width="1" fill="none" />
<polyline points="308.5,132.0,306.5,136.0,307.0,133.5" stroke="black" stroke-width="1" fill="none" />
<polyline points="314.0,135.5,318.0,130.5,315.5,134.0,315.0,138.0" stroke="black" stroke-width="1" fill="none" />
<polyline points="314.5,137.5,318.5,139.5" stroke="black" stroke-width="1" fill="none" />
<polyline points="325.5,138.5,326.0,142.5,325.0,146.5,325.5,150.5,326.0,154.5,326.0,158.5,326.0,162.5,325.5,168.5,325.0,172.5,323.5,176.5,322.5,180.5,322.0,185.0,321.0,189.0,320.0,193.0,319.5,197.5,318.0,201.5,316.0,205.5,313.0,209.5,309.5,213.5,306.0,217.5,303.5,221.5,298.5,225.5,293.0,229.5,285.0,233.5,278.0,236.0,273.5,240.0" stroke="black" stroke-width="1" fill="none" />
<polyline points="264.5,245.0,268.5,244.0,274.0,239.0,278.0,236.0,281.5,232.5,285.5,233.0,289.5,231.5,293.5,229.0,297.5,226.5,301.5,223.5,305.5,218.0,309.5,213.5,313.5,209.0,317.5,203.0" stroke="black" stroke-width="1" fill="none" />
<polyline points="290.5,211.0,294.0,210.5,295.0,206.5,295.0,202.5,294.5,198.5,295.0,194.5,295.0,190.5,295.0,186.5,291.0,182.5,287.5,186.0,283.5,189.5" stroke="black" stroke-width="1" fill="none" />
<polyline points="281.0,190.0,285.0,184.5,289.0,182.0,293.0,183.0" stroke="black" stroke-width="1" fill="none" />
<polyline points="290.0,183.5,285.5,187.5,285.5,191.0,285.5,195.5,288.5,197.0,290.5,201.0,292.0,205.0,291.5,209.0,293.0,211.5" stroke="black" stroke-width="1" fill="none" />
<polyline points="285.0,203.5,281.0,200.5" stroke="black" stroke-width="1" fill="none" />
<polyline points="281.0,200.5,285.5,204.5,287.0,210.0,286.5,214.0,284.0,218.0,276.0,223.0,270.5,227.0,270.0,231.0,270.5,233.5,274.5,231.0" stroke="black" stroke-width="1" fill="none" />
<polyline points="270.0,227.5,274.0,224.5,278.0,222.0,283.5,218.5" stroke="black" stroke-width="1" fill="none" />
<polyline points="281.5,215.0,277.5,219.0,273.5,221.5,271.0,223.5,277.0,219.5,279.5,215.5" stroke="black" stroke-width="1" fill="none" />
<polyline points="276.5,214.5,272.5,217.0,268.5,218.5,269.5,221.0,272.5,217.0,277.5,213.0,279.0,209.0,278.0,205.0,276.0,201.0,277.5,195.0,276.5,192.5,279.5,188.5,280.0,187.0,275.0,193.5,274.5,189.5,275.0,185.5,276.0,181.5,280.5,177.5,285.0,177.0,283.0,178.5" stroke="black" stroke-width="1" fill="none" />
<polyline points="278.5,182.5,281.5,179.5,275.5,182.5,279.5,178.0,283.5,176.0,287.5,175.5,291.5,176.5,295.5,180.0" stroke="black" stroke-width="1" fill="none" />
<polyline points="291.0,176.5,295.5,180.5,297.0,184.5,297.0,188.5,298.0,192.5,298.5,196.5,298.5,200.5,299.0,204.5,298.0,208.5,296.0,212.5,293.5,216.5,291.0,220.5,288.5,224.5,284.5,228.5,278.5,232.5,273.5,236.5,269.5,240.5,266.5,242.0,270.5,239.0,274.5,236.0,278.5,232.5,282.5,230.5,286.5,226.0,290.5,221.0,294.5,215.0" stroke="black" stroke-width="1" fill="none" />
<polyline points="292.0,203.5,286.0,196.0,281.0,195.5,277.0,197.0" stroke="black" stroke-width="1" fill="none" />
<polyline points="273.5,208.5,272.5,212.5" stroke="black" stroke-width="1" fill="none" />
<polyline points="262.0,229.5,261.0,233.5,260.5,237.5,260.0,241.5,259.5,245.5,258.5,249.5,258.0,253.5,253.5,255.5,250.5,259.5,251.0,263.5,247.5,267.5,242.5,271.5,242.5,271.0,246.5,268.5,250.5,264.0,253.0,256.0" stroke="black" stroke-width="1" fill="none" />
<polyline points="255.5,258.5,253.0,261.5,250.5,254.5,252.0,250.5" stroke="black" stroke-width="1" fill="none" />
<polyline points="239.0,248.0,239.5,244.0" stroke="black" stroke-width="1" fill="none" />
<polyline points="245.0,233.0,241.0,227.5" stroke="black" stroke-width="1" fill="none" />
<polyline points="241.0,227.5,243.5,231.5" stroke="black" stroke-width="1" fill="none" />
<polyline points="243.5,226.5,242.5,222.5" stroke="black" stroke-width="1" fill="none" />
<polyline points="246.5,216.0,242.5,211.5" stroke="black" stroke-width="1" fill="none" />
<polyline points="242.5,211.5,245.5,215.5" stroke="black" stroke-width="1" fill="none" />
<polyline points="228.5,250.5,232.5,256.5" stroke="black" stroke-width="1" fill="none" />
<polyline points="236.0,257.0,237.5,261.0" stroke="black" stroke-width="1" fill="none" />
<polyline points="234.5,269.0,230.5,261.5,228.5,253.0,224.5,253.0,220.5,252.0" stroke="black" stroke-width="1" fill="none" />
<polyline points="221.0,252.5,224.5,256.5" stroke="black" stroke-width="1" fill="none" />
<polyline points="220.5,258.0,223.5,262.0,225.0,266.0" stroke="black" stroke-width="1" fill="none" />
<polyline points="230.0,267.0,224.0,262.0,220.0,257.5,216.0,258.0,212.0,257.0,208.0,256.5,204.0,255.5,200.0,255.5,196.0,257.5,192.0,258.5,188.0,258.5,184.0,257.5,180.0,257.0,176.0,257.0,172.0,257.5,168.0,257.5,164.0,258.5,160.0,262.5" stroke="black" stroke-width="1" fill="none" />
<polyline points="165.0,260.0,167.0,264.0" stroke="black" stroke-width="1" fill="none" />
<polyline points="165.0,260.0,169.0,261.5,172.5,262.0,176.5,263.5,180.5,265.0,181.5,262.5,185.5,263.5,189.5,263.0,193.5,263.5,197.5,263.0,201.5,263.0,205.5,261.0,210.0,262.0,214.0,262.0,218.0,260.5" stroke="black" stroke-width="1" fill="none" />
<polyline points="213.0,261.5,210.0,265.5,204.5,268.0,208.5,266.5,212.5,264.5" stroke="black" stroke-width="1" fill="none" />
<polyline points="211.0,253.5,207.0,252.0,203.0,250.5,199.0,250.0,195.0,250.0,191.0,252.0,187.0,252.0,183.0,251.0,179.0,250.5,175.0,251.0,171.0,252.5,167.0,254.5" stroke="black" stroke-width="1" fill="none" />
<polyline points="172.5,251.5,165.0,258.0,160.5,262.0,160.0,266.0,160.0,270.0,165.0,272.0,167.0,271.5,171.5,281.5,175.5,281.0,179.0,282.0,183.0,275.0,189.5,274.0" stroke="black" stroke-width="1" fill="none" />
<polyline points="192.0,273.5,191.5,277.5,191.0,281.5,191.0,286.0,191.5,290.0" stroke="black" stroke-width="1" fill="none" />
<polyline points="199.5,288.5,203.5,293.5,207.5,303.0" stroke="black" stroke-width="1" fill="none" />
<polyline points="213.5,307.5,213.5,303.5,215.0,299.5,215.5,295.5,209.0,292.0,207.5,288.0,206.0,284.0,204.0,282.5,200.0,283.5" stroke="black" stroke-width="1" fill="none" />
<polyline points="200.5,284.5,204.5,286.0,205.5,290.5,209.5,292.0" stroke="black" stroke-width="1" fill="none" />
<polyline points="210.0,284.0,214.0,277.5,217.0,278.0,214.5,278.5,216.5,278.5,219.0,276.0,219.0,280.0" stroke="black" stroke-width="1" fill="none" />
<polyline points="221.5,285.5,225.5,281.5,222.0,284.0,221.5,288.0,221.5,292.0,221.5,298.0" stroke="black" stroke-width="1" fill="none" />
<polyline points="215.5,302.0,215.5,306.0,215.5,310.0" stroke="black" stroke-width="1" fill="none" />
<polyline points="216.5,311.5,218.5,307.5,217.5,303.5,218.0,299.5,218.0,295.5,217.0,291.5,217.5,287.5,217.0,288.5" stroke="black" stroke-width="1" fill="none" />
<polyline points="219.5,288.0,219.5,292.0" stroke="black" stroke-width="1" fill="none" />
<polyline points="229.0,288.0,229.0,289.0,231.0,285.0,231.0,281.0,232.5,277.0,235.0,273.0,234.5,269.0,232.5,265.0,230.0,261.0,228.0,257.0,225.0,250.5,221.0,247.0,217.0,242.0,213.0,242.5,209.0,240.0" stroke="black" stroke-width="1" fill="none" />
<polyline points="209.5,239.5,210.0,243.5,213.5,243.5,217.5,247.5" stroke="black" stroke-width="1" fill="none" />
<polyline points="217.5,243.0,220.5,247.0,225.5,251.0,227.5,253.5,232.0,256.5,234.5,260.5,236.5,264.5,238.5,268.5,240.0,272.5" stroke="black" stroke-width="1" fill="none" />
<polyline points="230.5,268.0,231.0,272.0,235.5,275.5,234.5,280.5,234.5,283.0,233.5,287.0,232.5,291.0,230.5,295.0,231.0,294.5" stroke="black" stroke-width="1" fill="none" />
<polyline points="227.0,294.5,226.0,294.0,225.5,290.0,226.0,286.5,225.5,282.5" stroke="black" stroke-width="1" fill="none" />
<polyline points="224.0,276.0,226.0,272.0" stroke="black" stroke-width="1" fill="none" />
<polyline points="213.0,277.0,211.0,281.0,210.0,285.0,209.5,288.5,212.5,292.5,212.5,296.5,212.5,300.5,211.5,304.5" stroke="black" stroke-width="1" fill="none" />
<polyline points="199.5,302.0,199.5,306.0,197.0,308.5,197.5,312.5,200.0,316.0,199.5,320.0,199.0,324.0,198.0,328.0" stroke="black" stroke-width="1" fill="none" />
<polyline points="196.5,327.0,195.0,323.0,195.0,322.5,191.0,316.5" stroke="black" stroke-width="1" fill="none" />
<polyline points="194.5,316.0,200.5,315.5" stroke="black" stroke-width="1" fill="none" />
<polyline points="196.5,322.0,195.5,318.0,191.0,317.0,190.0,313.0" stroke="black" stroke-width="1" fill="none" />
<polyline points="188.5,313.0,188.5,317.0,188.5,321.0" stroke="black" stroke-width="1" fill="none" />
<polyline points="181.5,321.5,180.5,321.0,178.5,317.0,177.0,313.0,177.0,309.0,176.0,305.0,177.0,301.5,178.5,297.5,181.0,293.5,182.5,289.5,183.5,285.5,182.0,282.5,184.5,278.5,185.0,274.5,187.5,270.0,189.5,268.0,185.5,267.0" stroke="black" stroke-width="1" fill="none" />
<polyline points="188.5,267.0,190.0,271.0,189.0,275.0,187.5,279.0,185.5,283.0,180.5,288.5,178.0,292.5,174.5,296.5,174.0,301.5,171.0,305.5,171.0,309.5" stroke="black" stroke-width="1" fill="none" />
<polyline points="184.0,309.0,187.0,308.0,186.0,312.0,183.0,315.5,183.0,319.5" stroke="black" stroke-width="1" fill="none" />
<polyline points="187.5,323.0,186.0,319.0,185.5,315.0,185.0,313.0" stroke="black" stroke-width="1" fill="none" />
<polyline points="198.0,307.5,199.5,311.5,202.5,317.0,203.0,321.0,205.5,318.0" stroke="black" stroke-width="1" fill="none" />
<polyline points="196.0,335.0,197.0,339.0,196.5,343.0,196.5,347.0" stroke="black" stroke-width="1" fill="none" />
<polyline points="189.5,351.0,193.5,349.5,194.0,352.5,192.5,356.5,191.0,360.5,191.5,364.5" stroke="black" stroke-width="1" fill="none" />
<polyline points="195.0,362.5,199.0,357.0,201.5,355.0,197.0,359.0,195.0,363.0,195.5,367.0" stroke="black" stroke-width="1" fill="none" />
<polyline points="197.5,364.5,198.5,360.5,197.5,362.5" stroke="black" stroke-width="1" fill="none" />
<polyline points="205.0,361.0,205.5,357.0,204.0,355.0" stroke="black" stroke-width="1" fill="none" />
<polyline points="192.5,345.0,194.0,341.0,194.0,337.0,193.0,332.5,189.0,330.5,185.0,328.5,181.0,326.5,177.0,324.5,173.0,320.5,169.0,316.0,165.0,312.5,161.0,309.0,157.0,307.5,153.0,303.5,149.0,298.0,145.0,290.5" stroke="black" stroke-width="1" fill="none" />
<polyline points="143.5,286.5,145.0,284.5,144.0,288.5,145.5,292.5,147.5,296.5,150.5,300.5,153.0,304.5,158.5,308.5,164.5,312.5,169.0,316.5,173.0,320.5,176.0,324.5,185.0,328.5,190.5,332.5,190.0,336.5,191.0,340.5,191.5,344.5,189.5,351.5,189.0,355.5,189.0,359.5,189.5,363.5" stroke="black" stroke-width="1" fill="none" />
<polyline points="185.5,363.0,185.5,359.0" stroke="black" stroke-width="1" fill="none" />
<polyline points="181.0,368.5,183.5,372.5,184.0,376.5" stroke="black" stroke-width="1" fill="none" />
<polyline points="172.5,357.0,168.5,353.5" stroke="black" stroke-width="1" fill="none" />
<polyline points="168.5,353.5,172.5,357.5" stroke="black" stroke-width="1" fill="none" />
<polyline points="162.0,349.0,158.0,344.0" stroke="black" stroke-width="1" fill="none" />
<polyline points="158.0,344.0,160.5,348.0" stroke="black" stroke-width="1" fill="none" />
<polyline points="157.0,362.0,161.0,369.0,165.0,376.5,169.0,384.5" stroke="black" stroke-width="1" fill="none" />
<polyline points="183.0,370.5,179.0,368.0,175.0,364.5,171.0,358.5,167.0,354.5,163.0,352.0,159.0,349.0,155.0,342.5,151.0,333.5" stroke="black" stroke-width="1" fill="none" />
<polyline points="147.5,332.0,151.5,335.5,153.0,339.5,155.5,343.5,157.5,347.5,161.5,351.5,167.5,355.5,171.0,359.5,174.5,363.5,177.0,367.5,180.5,371.5,181.5,375.5,182.0,379.0" stroke="black" stroke-width="1" fill="none" />
<polyline points="194.0,336.5,198.0,336.0,202.0,333.5,206.0,330.0,210.0,326.0,214.0,325.0,218.0,322.0,222.0,318.0,226.0,314.0,230.0,310.5,234.0,306.0,238.0,302.5,242.0,298.5,246.0,294.0,250.0,288.5,254.0,283.5,258.0,277.5,262.0,268.5,264.5,271.5,265.5,275.5,266.0,279.5,266.0,283.5,265.5,287.5,265.0,291.5,264.0,295.5,262.5,299.5,260.5,303.5,259.0,307.5,256.0,311.5,253.0,315.5,249.5,319.5,246.5,323.5,243.5,327.5,239.5,331.5,236.0,335.5,232.5,339.5,229.5,343.5,226.0,347.5,223.0,351.5,219.0,355.5,214.0,359.5,208.5,363.5,204.0,367.5,199.0,371.5,192.5,375.5,187.5,379.5,181.5,383.5,175.0,387.5,175.0,387.5,179.0,385.0,183.0,382.5,187.0,380.0,191.0,376.5,195.0,374.0,199.0,371.5,203.0,368.5,207.0,365.0,211.0,361.5,215.0,358.5,219.0,355.5,223.0,351.5,227.0,346.5,231.0,341.5,235.0,336.5,239.0,332.0,243.0,328.0,247.0,322.5,251.0,317.5,255.0,312.5,259.0,307.0,263.0,297.5" stroke="black" stroke-width="1" fill="none" />
<polyline points="278.5,298.0,278.5,302.0" stroke="black" stroke-width="1" fill="none" />
<polyline points="279.0,309.0,279.0,313.0,279.0,317.0,279.0,321.0,279.0,325.0,279.0,329.0,279.0,333.0,279.0,337.0,279.0,341.0,278.5,345.0,278.5,349.0,278.5,353.0,278.0,357.0,278.0,364.0,278.5,368.0,278.5,372.0,279.0,376.0,279.0,380.0,279.0,384.0,279.0,388.0" stroke="black" stroke-width="1" fill="none" />
<polyline points="303.5,343.5,299.5,332.5" stroke="black" stroke-width="1" fill="none" />
<polyline points="316.5,312.5,312.5,309.5,308.5,307.0,304.5,305.0" stroke="black" stroke-width="1" fill="none" />
<polyline points="304.5,305.0,311.0,309.0,316.5,313.0" stroke="black" stroke-width="1" fill="none" />
<polyline points="294.0,301.5,290.0,303.5" stroke="black" stroke-width="1" fill="none" />
<polyline points="292.0,301.0,290.0,305.0,289.5,309.0,289.5,313.0,289.5,317.0,289.5,321.0,290.0,325.0,290.5,329.0,290.0,333.0,290.5,337.0,290.5,341.0,291.0,345.0,291.0,349.0,292.0,353.0,292.5,357.0,293.5,361.0,294.5,365.0,295.0,369.0,295.5,373.0,296.0,377.0,297.0,381.0,297.0,385.0,297.5,389.0" stroke="black" stroke-width="1" fill="none" />
<polyline points="241.5,326.5,239.0,328.5" stroke="black" stroke-width="1" fill="none" />
<polyline points="251.0,274.5,255.0,273.5,260.5,265.0,264.5,263.5,268.5,266.0,272.5,269.5" stroke="black" stroke-width="1" fill="none" />
<polyline points="278.5,274.0,282.5,278.5" stroke="black" stroke-width="1" fill="none" />
<polyline points="278.5,277.5,282.5,279.0,279.0,275.0" stroke="black" stroke-width="1" fill="none" />
<polyline points="276.0,278.0,277.5,282.0,278.0,286.0" stroke="black" stroke-width="1" fill="none" />
<polyline points="293.0,301.0,296.0,305.0,296.0,309.0,297.0,313.0,298.0,317.0,298.5,321.0,298.0,325.0,298.5,329.0,299.5,333.0,301.5,337.0,302.5,341.0,304.0,345.0,306.0,349.0,307.0,353.0,307.5,357.0,309.0,361.0,310.5,365.0,312.0,369.0,313.0,373.0,313.5,377.0" stroke="black" stroke-width="1" fill="none" />
<polyline points="256.5,276.0,252.5,281.5,248.5,287.0,244.5,292.0,240.5,296.0,236.5,300.0,232.5,304.5,233.5,303.5,237.0,299.5,241.0,295.5,245.0,291.5,248.0,287.5,251.5,283.5,254.0,279.5,257.0,275.5,259.0,271.5" stroke="black" stroke-width="1" fill="none" />
<polyline points="264.0,263.5,270.0,267.5,274.0,271.5,275.0,275.5,275.0,279.5,275.5,283.5,276.5,287.5,276.5,291.5,276.5,295.5,276.5,299.5,277.0,303.5,277.0,307.5,277.0,311.5,276.5,315.5,276.5,319.5,276.5,323.5,276.5,327.5,276.5,331.5,276.5,335.5,276.5,339.5,276.5,343.5,276.0,347.5,276.0,351.5,276.0,355.5,276.0,359.5,275.5,363.5,276.0,367.5,276.0,371.5,276.5,375.5,276.5,379.5,276.5,383.5,277.0,387.5" stroke="black" stroke-width="1" fill="none" />
<polyline points="205.0,290.5,201.0,287.0,200.0,283.5,198.5,279.5" stroke="black" stroke-width="1" fill="none" />
<polyline points="196.0,266.5,196.5,270.5,198.0,274.5,199.0,278.5,198.0,283.0,199.0,287.0,201.0,291.0,204.0,295.0,205.5,299.0,207.0,303.0,209.0,307.0,208.5,311.0,208.5,315.0,204.5,319.0,207.5,321.0,206.0,325.0" stroke="black" stroke-width="1" fill="none" />
<polyline points="178.0,298.0,182.0,291.0" stroke="black" stroke-width="1" fill="none" />
<polyline points="179.0,286.5,176.0,290.5,174.5,292.5,178.5,287.0,185.0,283.5" stroke="black" stroke-width="1" fill="none" />
<polyline points="181.5,283.0,179.5,290.0,175.5,295.5,173.0,302.5,170.0,301.0,170.5,297.0,170.5,293.0,173.0,292.5,173.5,287.5,173.5,282.5,179.0,282.0,182.0,278.0,183.5,274.0" stroke="black" stroke-width="1" fill="none" />
<polyline points="175.0,284.5,173.0,291.5,167.5,294.5,163.5,290.5,160.5,294.5,158.5,292.0,160.0,288.0,160.0,284.0,161.0,280.0,158.0,278.0,157.0,273.0,154.0,275.5" stroke="black" stroke-width="1" fill="none" />
<polyline points="154.0,279.5,158.0,277.5" stroke="black" stroke-width="1" fill="none" />
<polyline points="162.5,279.0,162.5,283.0,162.5,289.0,164.5,291.5,167.0,295.5,168.0,302.0,168.5,306.0,169.0,310.0" stroke="black" stroke-width="1" fill="none" />
<polyline points="158.5,305.5,154.5,301.5,150.5,297.5" stroke="black" stroke-width="1" fill="none" />
<polyline points="150.5,297.5,154.0,301.5,157.5,305.5" stroke="black" stroke-width="1" fill="none" />
<polyline points="161.0,305.0,157.0,300.5,153.0,297.0,149.0,291.5,145.0,285.5" stroke="black" stroke-width="1" fill="none" />
<polyline points="145.5,286.0,148.0,290.0,149.5,294.0,153.5,298.0,158.0,302.0,161.5,306.0" stroke="black" stroke-width="1" fill="none" />
<polyline points="160.5,294.5,160.5,290.5" stroke="black" stroke-width="1" fill="none" />
<polyline points="168.5,293.5,169.5,289.5" stroke="black" stroke-width="1" fill="none" />
<polyline points="165.0,282.0,166.0,278.0,165.0,276.5" stroke="black" stroke-width="1" fill="none" />
<polyline points="167.0,275.5,169.0,279.5,167.0,280.0" stroke="black" stroke-width="1" fill="none" />
<polyline points="155.0,265.0,159.0,259.5,163.0,252.5,168.0,251.5,172.0,249.0,176.0,246.5,180.0,242.5,186.0,238.0,192.5,233.0,195.0,234.5,198.0,235.5,201.0,240.5,202.0,236.0,206.0,239.5,210.0,243.5" stroke="black" stroke-width="1" fill="none" />
<polyline points="208.5,250.5,204.5,249.0,200.5,247.0,196.5,240.5,192.5,237.5" stroke="black" stroke-width="1" fill="none" />
<polyline points="194.0,235.5,199.0,238.0,202.5,242.0" stroke="black" stroke-width="1" fill="none" />
<polyline points="203.0,240.5,201.5,236.5" stroke="black" stroke-width="1" fill="none" />
<polyline points="203.5,236.0,206.0,240.0,209.0,244.0,211.5,244.0,211.0,246.5,217.0,247.0" stroke="black" stroke-width="1" fill="none" />
<polyline points="222.0,251.0,223.0,255.0,227.0,259.0,227.0,263.0,229.5,267.0,228.5,271.0,227.5,275.0,222.0,279.0,220.0,280.0,224.0,278.0,228.0,274.0" stroke="black" stroke-width="1" fill="none" />
<polyline points="195.0,266.5,194.5,270.5,194.5,274.5,195.0,278.5,194.5,282.5,194.0,286.5,192.5,290.5" stroke="black" stroke-width="1" fill="none" />
<polyline points="182.0,253.0,178.0,253.0" stroke="black" stroke-width="1" fill="none" />
<polyline points="187.0,246.5,186.5,242.5" stroke="black" stroke-width="1" fill="none" />
<polyline points="191.5,246.5,191.0,242.5,189.5,238.5,189.5,234.5" stroke="black" stroke-width="1" fill="none" />
<polyline points="188.5,228.0,192.5,227.0,196.5,225.0,200.5,220.5,204.5,219.0" stroke="black" stroke-width="1" fill="none" />
<polyline points="204.5,215.5,204.5,219.5,198.5,226.0,199.0,225.0,203.0,224.0,207.0,225.0" stroke="black" stroke-width="1" fill="none" />
<polyline points="207.0,225.0,201.5,229.0,209.0,228.5,213.0,228.5" stroke="black" stroke-width="1" fill="none" />
<polyline points="212.0,228.5,209.0,227.5,209.5,223.5,209.0,219.5,207.5,215.5,206.0,214.0,202.0,213.5" stroke="black" stroke-width="1" fill="none" />
<polyline points="203.0,213.0,202.0,217.0,200.0,221.0,196.5,225.0,191.5,231.0,193.0,233.5,192.0,237.5,196.5,241.5,198.5,245.5,205.5,249.5" stroke="black" stroke-width="1" fill="none" />
<polyline points="215.5,227.5,214.0,223.5,212.5,219.5,210.0,215.5,207.0,211.5,203.0,207.5,204.0,205.5,200.0,204.0" stroke="black" stroke-width="1" fill="none" />
<polyline points="205.5,191.5,201.5,182.5" stroke="black" stroke-width="1" fill="none" />
<polyline points="201.5,182.5,203.5,186.5,204.5,190.5,206.5,194.5,206.5,198.5,207.0,205.0,204.0,208.5,208.0,212.0,212.0,217.5" stroke="black" stroke-width="1" fill="none" />
<polyline points="221.0,189.0,217.0,186.5,213.0,185.0" stroke="black" stroke-width="1" fill="none" />
<polyline points="212.5,187.5,217.0,191.5" stroke="black" stroke-width="1" fill="none" />
<polyline points="216.5,190.5,212.5,187.5" stroke="black" stroke-width="1" fill="none" />
<polyline points="219.0,185.0,223.0,186.5" stroke="black" stroke-width="1" fill="none" />
<polyline points="226.5,183.0,222.5,183.0,218.5,183.0" stroke="black" stroke-width="1" fill="none" />
<polyline points="219.0,182.5,221.0,186.5" stroke="black" stroke-width="1" fill="none" />
<polyline points="219.0,176.0,215.0,174.5,219.0,171.0,215.0,173.5" stroke="black" stroke-width="1" fill="none" />
<polyline points="218.5,177.5,214.5,177.0,210.5,177.0,206.5,178.0" stroke="black" stroke-width="1" fill="none" />
<polyline points="207.5,179.0,211.5,179.5,215.5,179.5,219.5,180.0,223.5,180.5,230.0,184.0,234.0,183.5,237.5,185.0" stroke="black" stroke-width="1" fill="none" />
<polyline points="231.0,175.5,236.0,174.0,232.0,174.0,228.0,177.0,224.0,177.0,220.0,171.0" stroke="black" stroke-width="1" fill="none" />
<polyline points="220.0,171.0,222.0,175.0" stroke="black" stroke-width="1" fill="none" />
<polyline points="234.0,172.5,234.0,176.5,231.5,181.0,230.5,181.5,234.5,180.5,235.0,177.5,239.0,178.0,243.0,178.5,247.0,178.5,251.0,180.0" stroke="black" stroke-width="1" fill="none" />
<polyline points="250.0,177.0,255.0,173.0" stroke="black" stroke-width="1" fill="none" />
<polyline points="268.5,167.5,272.5,165.0" stroke="black" stroke-width="1" fill="none" />
<polyline points="271.0,156.5,267.0,145.0,263.0,145.0" stroke="black" stroke-width="1" fill="none" />
<polyline points="265.0,143.0,267.5,147.0,269.0,151.0,270.5,155.0,273.0,159.0,273.5,163.0,271.0,167.0,270.0,170.0,273.0,174.0,273.0,178.0,273.5,182.0,272.5,186.0,272.0,190.0,273.0,194.0,273.0,198.0,276.5,200.5,280.5,203.0" stroke="black" stroke-width="1" fill="none" />
<polyline points="290.0,191.5,288.5,187.5" stroke="black" stroke-width="1" fill="none" />
<polyline points="290.5,185.0,291.5,189.0,292.0,193.0" stroke="black" stroke-width="1" fill="none" />
<polyline points="288.5,181.5,284.0,185.5,281.5,189.5,281.5,195.0,279.0,201.5" stroke="black" stroke-width="1" fill="none" />
<polyline points="247.5,166.5,243.5,169.0,239.5,168.0,235.5,166.0,231.5,164.5,227.5,163.5,223.5,165.0,219.5,165.0,215.5,166.0,211.5,167.5,207.5,170.0,209.0,169.0,207.5,166.5" stroke="black" stroke-width="1" fill="none" />
<polyline points="214.5,160.5,208.5,164.5,207.5,165.0,211.5,162.0,215.5,160.5,219.5,160.0,223.5,159.5,227.5,158.0,231.5,156.0,235.5,156.0,239.5,157.0,243.5,160.0,247.5,163.5" stroke="black" stroke-width="1" fill="none" />
<polyline points="244.0,161.0,248.5,165.5,242.5,169.5,246.0,176.0,250.0,175.0,252.0,176.0" stroke="black" stroke-width="1" fill="none" />
<polyline points="252.5,162.0,248.5,157.0,244.0,153.5,240.0,148.5,236.0,148.5,233.0,145.5,229.0,149.0,225.0,148.0,221.0,149.5,217.0,151.0,213.0,149.5,210.0,152.5,206.0,153.5,202.0,154.0,198.0,154.5" stroke="black" stroke-width="1" fill="none" />
<polyline points="200.0,153.5,199.0,157.5" stroke="black" stroke-width="1" fill="none" />
<polyline points="196.5,159.0,192.5,156.5,190.0,161.0,184.0,161.0,181.0,161.5,179.0,159.5,182.5,155.5" stroke="black" stroke-width="1" fill="none" />
<polyline points="181.5,157.5,177.5,158.0,180.5,154.0" stroke="black" stroke-width="1" fill="none" />
<polyline points="174.0,153.5,174.0,157.5" stroke="black" stroke-width="1" fill="none" />
<polyline points="177.5,158.0,170.5,156.5,173.0,152.5" stroke="black" stroke-width="1" fill="none" />
<polyline points="182.0,164.5,182.5,164.0,182.0,168.0,183.0,172.0,183.0,176.0,181.0,180.0,177.5,184.0,171.5,187.5,167.0,191.5" stroke="black" stroke-width="1" fill="none" />
<polyline points="164.5,189.5,160.5,191.5,156.5,193.0,152.5,194.5,155.0,193.0" stroke="black" stroke-width="1" fill="none" />
<polyline points="144.0,194.0,148.0,193.5,154.5,196.0,158.5,195.0,162.5,194.0,166.5,192.0,170.5,188.0,174.5,185.5,178.5,184.0,182.5,177.0" stroke="black" stroke-width="1" fill="none" />
<polyline points="192.5,174.0,196.5,176.0,200.5,177.0,204.5,181.5,208.5,186.5,212.5,191.5" stroke="black" stroke-width="1" fill="none" />
<polyline points="212.0,191.5,208.5,187.5,205.5,183.5,202.5,179.5,198.0,175.5" stroke="black" stroke-width="1" fill="none" />
<polyline points="191.0,149.0,190.0,153.0,190.5,159.0,192.5,163.0,194.0,167.0,193.5,171.0,193.0,175.0,192.5,179.0,192.5,183.5,194.0,187.5,193.0,191.5,193.0,195.5,193.5,199.5,192.5,203.5,193.5,207.5,194.5,211.5,197.5,215.0,197.0,219.0,194.0,223.0,196.0,220.5" stroke="black" stroke-width="1" fill="none" />
<polyline points="191.0,222.5,193.0,219.0,189.0,224.0,185.0,223.5,181.0,219.5" stroke="black" stroke-width="1" fill="none" />
<polyline points="174.5,219.5,170.5,221.0" stroke="black" stroke-width="1" fill="none" />
<polyline points="169.0,223.0,173.5,224.5,177.5,223.5,181.5,226.0" stroke="black" stroke-width="1" fill="none" />
<polyline points="183.0,233.0,183.0,237.0,181.5,241.0,177.5,245.0,172.0,249.0,166.0,253.0,162.0,254.0,160.0,258.0,157.0,262.0,155.0,266.0,154.5,270.0,154.0,274.0,153.5,278.0,154.0,282.5,153.0,286.5,161.0,279.0" stroke="black" stroke-width="1" fill="none" />
<polyline points="149.0,271.5,146.0,268.0,147.0,264.0,150.5,260.0,153.5,256.0,156.5,252.0,153.0,256.5,149.0,262.0,149.0,265.5,147.5,270.0,149.0,266.0,154.5,261.0,157.0,257.0,160.0,253.0,164.0,249.5,160.0,253.0,156.0,258.5,152.0,264.0" stroke="black" stroke-width="1" fill="none" />
<polyline points="151.5,262.0,154.5,256.5,152.5,260.5,152.0,264.5,150.0,269.0,149.5,273.0,150.5,277.0,151.5,281.0,151.0,285.0" stroke="black" stroke-width="1" fill="none" />
<polyline points="142.0,284.0,142.5,283.0,142.5,287.0,142.5,291.0,142.5,295.0,142.5,299.0,143.0,303.0,143.5,307.0,144.5,311.0,145.0,315.0,145.0,319.0,145.5,323.0,146.0,327.0,147.0,331.0,149.0,335.0,149.5,339.0,150.0,343.0,151.5,347.0,152.5,351.0,154.0,355.0,155.5,359.0,157.5,363.0,159.5,367.0,162.0,371.0,163.5,375.0,166.0,379.0,168.0,383.0,170.0,387.0" stroke="black" stroke-width="1" fill="none" />
<polyline points="124.0,349.5,128.0,339.5" stroke="black" stroke-width="1" fill="none" />
<polyline points="123.0,345.0,119.0,352.5" stroke="black" stroke-width="1" fill="none" />
<polyline points="115.0,371.5,116.0,367.5,117.0,363.5,118.0,359.5,118.5,355.5,119.5,351.5,121.5,347.5,124.0,343.5,125.5,339.5,127.0,335.5,127.5,331.5,129.0,327.5,130.0,323.5,130.5,319.5,131.5,315.5,132.5,311.5,133.0,307.5,133.0,303.5,133.5,299.5,134.0,295.5,130.0,299.0,126.0,305.0,122.0,312.0" stroke="black" stroke-width="1" fill="none" />
<polyline points="114.0,313.5,114.0,308.5,110.5,312.5,104.5,316.5,101.0,320.5,97.5,324.5,95.0,328.5,92.0,332.5,90.5,336.5,88.5,340.5,87.0,342.0,91.0,334.5,95.0,328.0,99.0,322.5,103.0,318.0,107.0,314.5,111.0,312.0,115.0,307.0,115.5,310.5,114.0,314.5,113.0,318.5,112.5,322.5,111.5,326.5,111.0,330.5,110.5,334.5,110.0,338.5,109.0,342.5,108.0,346.5,107.0,350.5,105.0,354.5,103.0,358.5,102.0,362.5,99.5,366.5,98.0,370.5,96.5,374.5,95.5,378.5,94.5,382.5,93.5,386.5" stroke="black" stroke-width="1" fill="none" />
<polyline points="96.5,373.0,100.5,365.0,104.5,355.0" stroke="black" stroke-width="1" fill="none" />
<polyline points="82.5,346.5,79.5,350.5,76.5,354.5,75.0,358.5,72.5,362.5,70.0,366.5,67.5,370.5,65.5,374.5,63.0,378.5,61.0,382.5,60.5,383.0,64.5,376.0,68.5,369.0,72.5,362.5,76.5,354.5,80.5,348.5" stroke="black" stroke-width="1" fill="none" />
<polyline points="95.0,332.0,92.0,338.5,93.5,334.5,97.0,330.5" stroke="black" stroke-width="1" fill="none" />
<polyline points="124.0,336.0,125.5,332.0" stroke="black" stroke-width="1" fill="none" />
<polyline points="116.5,366.0,114.0,365.0,114.5,361.0,115.5,357.0,116.5,353.0,117.0,349.0,118.0,345.0,119.5,341.0,121.5,337.0,122.5,333.0,123.0,329.0,123.0,325.0,122.0,321.0,121.5,317.0,122.0,313.0,124.5,309.0,126.0,305.0,128.5,301.0,131.5,297.0,134.5,293.0,135.0,289.0" stroke="black" stroke-width="1" fill="none" />
<polyline points="134.5,249.0,130.5,249.0,126.5,247.0" stroke="black" stroke-width="1" fill="none" />
<polyline points="127.0,245.5,126.0,246.5,130.0,246.5,134.0,244.5,139.0,250.0" stroke="black" stroke-width="1" fill="none" />
<polyline points="135.5,241.0,137.0,245.0,138.5,249.0,140.0,253.0,141.0,257.0,141.5,261.0,141.0,265.0" stroke="black" stroke-width="1" fill="none" />
<polyline points="151.0,248.5,155.0,246.0,159.0,243.5,163.0,241.0,166.5,242.0,170.5,237.5,174.5,235.0,179.0,234.0" stroke="black" stroke-width="1" fill="none" />
<polyline points="174.0,239.5,178.0,236.5,170.5,238.0,166.5,242.0,162.5,242.0,156.0,245.5,153.0,249.5,149.5,253.5,147.5,257.5,144.5,261.5,142.5,265.5,144.0,262.0,148.0,256.0,152.0,253.0,156.0,250.5" stroke="black" stroke-width="1" fill="none" />
<polyline points="155.0,228.5,153.5,232.5,159.0,225.0,165.0,218.5,169.0,212.5,173.0,209.0" stroke="black" stroke-width="1" fill="none" />
<polyline points="173.5,208.0,169.5,212.0,167.0,216.0,164.0,220.5,161.5,224.5,159.0,228.5,158.5,229.5" stroke="black" stroke-width="1" fill="none" />
<polyline points="165.5,224.5,162.5,228.5,159.0,232.5,156.5,236.5,154.0,240.5,155.5,237.5,159.5,232.0,163.5,228.5,167.5,225.0,171.5,228.5" stroke="black" stroke-width="1" fill="none" />
<polyline points="174.0,225.5,178.0,228.5,182.0,229.0,187.0,231.0,191.0,231.5,195.0,229.5,199.0,228.5,203.0,228.5" stroke="black" stroke-width="1" fill="none" />
<polyline points="188.5,248.0,184.5,246.0,184.0,246.0,184.5,242.0,186.0,238.0,187.5,234.0,185.5,228.0,183.5,226.5,181.0,220.0,180.0,216.0,180.0,212.0" stroke="black" stroke-width="1" fill="none" />
<polyline points="176.5,211.0,177.0,215.0,174.0,219.5,169.0,219.0,173.0,212.0,178.5,208.0" stroke="black" stroke-width="1" fill="none" />
<polyline points="182.5,201.5,181.5,205.5,176.0,209.5,171.5,213.5,169.5,217.5,168.5,221.5,170.5,225.5,175.0,227.5" stroke="black" stroke-width="1" fill="none" />
<polyline points="170.5,228.5,166.5,224.5" stroke="black" stroke-width="1" fill="none" />
<polyline points="149.0,209.5,147.5,207.5" stroke="black" stroke-width="1" fill="none" />
<polyline points="139.0,216.0,139.0,216.0,138.5,220.0" stroke="black" stroke-width="1" fill="none" />
<polyline points="135.5,219.5,136.5,223.5,136.5,227.5,137.5,228.5" stroke="black" stroke-width="1" fill="none" />
<polyline points="125.0,216.0,121.0,211.0" stroke="black" stroke-width="1" fill="none" />
<polyline points="118.5,212.0,122.5,216.5" stroke="black" stroke-width="1" fill="none" />
<polyline points="124.5,216.0,121.5,212.0,115.5,211.0" stroke="black" stroke-width="1" fill="none" />
<polyline points="110.5,211.0,114.5,217.0,119.5,221.5,123.5,223.0,127.5,224.5,131.5,231.5" stroke="black" stroke-width="1" fill="none" />
<polyline points="121.5,234.0,117.5,228.5,113.5,225.0" stroke="black" stroke-width="1" fill="none" />
<polyline points="106.0,214.0,110.0,221.0,113.0,220.5,117.0,225.5,121.0,229.5,125.0,234.0,132.0,234.0" stroke="black" stroke-width="1" fill="none" />
<polyline points="118.5,206.0,114.5,205.5" stroke="black" stroke-width="1" fill="none" />
<polyline points="106.5,208.5,110.5,215.5,116.5,221.0,120.5,226.0,124.5,228.5,128.5,232.0" stroke="black" stroke-width="1" fill="none" />
<polyline points="124.5,234.0,121.5,230.0,117.0,226.0,114.0,222.5,111.5,218.0,109.0,214.0,107.0,210.0,103.5,208.0" stroke="black" stroke-width="1" fill="none" />
<polyline points="110.0,196.0,108.5,200.0,110.5,204.0,110.5,204.5,110.0,208.5,112.5,214.0,114.5,218.0,117.0,222.5,120.5,226.5,126.5,230.5,128.0,234.5" stroke="black" stroke-width="1" fill="none" />
<polyline points="119.5,236.0,115.5,234.0,111.5,232.0,107.5,229.5,103.5,227.5,99.5,224.0,95.5,220.5,91.5,215.0,87.5,208.0,83.5,200.5,79.5,192.0" stroke="black" stroke-width="1" fill="none" />
<polyline points="104.0,188.5,108.0,183.5,112.0,184.0,117.5,185.0" stroke="black" stroke-width="1" fill="none" />
<polyline points="116.0,190.0,112.0,188.5" stroke="black" stroke-width="1" fill="none" />
<polyline points="112.0,190.5,118.0,194.5" stroke="black" stroke-width="1" fill="none" />
<polyline points="114.5,191.5,110.5,191.0,106.5,193.5" stroke="black" stroke-width="1" fill="none" />
<polyline points="105.5,190.5,109.5,188.5,114.5,190.0" stroke="black" stroke-width="1" fill="none" />
<polyline points="109.5,191.0,106.5,195.0,106.5,199.0,111.0,196.0,115.0,198.0" stroke="black" stroke-width="1" fill="none" />
<polyline points="112.0,196.5,115.5,200.5,115.0,204.5,118.0,211.0,120.0,215.0,124.5,219.0" stroke="black" stroke-width="1" fill="none" />
<polyline points="123.0,202.0,123.0,198.0" stroke="black" stroke-width="1" fill="none" />
<polyline points="127.0,196.5,126.5,200.5,127.0,204.5" stroke="black" stroke-width="1" fill="none" />
<polyline points="142.5,192.0,146.5,191.5" stroke="black" stroke-width="1" fill="none" />
<polyline points="141.5,188.5,145.5,187.5,149.5,188.5,153.5,190.0,157.5,189.5,161.5,188.0,165.5,187.0,157.0,185.5,156.5,187.0" stroke="black" stroke-width="1" fill="none" />
<polyline points="163.5,190.0,166.5,186.0" stroke="black" stroke-width="1" fill="none" />
<polyline points="169.5,180.0,165.5,175.0,161.5,180.5,157.5,182.0,153.5,181.0,149.5,177.5,145.5,180.0,141.5,181.5,137.5,181.5,133.5,179.0" stroke="black" stroke-width="1" fill="none" />
<polyline points="132.5,178.5,136.5,178.0,140.5,179.0" stroke="black" stroke-width="1" fill="none" />
<polyline points="135.0,180.5,134.5,176.5" stroke="black" stroke-width="1" fill="none" />
<polyline points="135.5,184.0,131.5,183.5" stroke="black" stroke-width="1" fill="none" />
<polyline points="124.0,190.5,124.5,186.5,124.0,182.5,123.0,178.5,121.0,174.5,121.0,174.0,117.0,171.5" stroke="black" stroke-width="1" fill="none" />
<polyline points="128.5,165.5,127.5,164.5,128.0,160.5,127.5,161.5" stroke="black" stroke-width="1" fill="none" />
<polyline points="129.5,162.5,133.5,156.5,137.5,152.0,141.5,151.5,145.5,150.0,149.5,149.5,153.5,151.0" stroke="black" stroke-width="1" fill="none" />
<polyline points="148.5,149.0,153.0,152.5,157.0,153.0,161.0,154.5,165.0,154.5,169.0,157.0,173.0,152.5" stroke="black" stroke-width="1" fill="none" />
<polyline points="165.0,165.0,161.0,163.5,157.0,162.0,153.0,162.5,149.0,160.5,145.0,158.0,141.0,158.0,137.0,159.5,133.5,166.0,129.5,163.5" stroke="black" stroke-width="1" fill="none" />
<polyline points="133.0,166.0,135.5,162.0,139.0,158.0" stroke="black" stroke-width="1" fill="none" />
<polyline points="138.5,151.5,134.5,155.5,132.0,159.5,129.5,163.5,133.5,170.0,139.5,173.5,137.5,175.5,141.5,175.5,145.5,173.5,149.5,172.0,153.5,171.0,157.5,169.5,161.5,168.5,166.0,167.0,167.5,165.0" stroke="black" stroke-width="1" fill="none" />
<polyline points="161.5,168.5,162.5,165.0,158.5,161.0" stroke="black" stroke-width="1" fill="none" />
<polyline points="151.5,162.0,146.0,158.0" stroke="black" stroke-width="1" fill="none" />
<polyline points="147.0,172.5,140.0,177.5" stroke="black" stroke-width="1" fill="none" />
<polyline points="148.5,177.0,143.5,181.0,140.5,188.0,140.5,186.0,144.5,185.0,148.5,185.0,152.5,185.5,156.5,185.0,160.5,184.5,164.5,183.0,168.5,182.0" stroke="black" stroke-width="1" fill="none" />
<polyline points="169.0,180.0,166.0,176.0" stroke="black" stroke-width="1" fill="none" />
<polyline points="165.5,175.0,162.5,179.0" stroke="black" stroke-width="1" fill="none" />
<polyline points="154.0,182.0,150.5,178.0" stroke="black" stroke-width="1" fill="none" />
<polyline points="121.0,158.5,121.5,154.5" stroke="black" stroke-width="1" fill="none" />
<polyline points="119.0,154.0,119.0,158.0,118.5,162.0" stroke="black" stroke-width="1" fill="none" />
<polyline points="117.0,150.5,121.0,141.0,125.0,136.0,129.0,130.5,133.0,126.5,137.0,123.0,141.0,121.5,145.0,120.5,149.0,118.0,153.0,116.5,159.0,114.0,163.0,113.0,167.0,112.0,171.0,112.0,175.0,111.0,179.0,110.5,183.0,110.5,187.0,109.0,191.0,109.5,195.0,108.5" stroke="black" stroke-width="1" fill="none" />
<polyline points="204.5,107.5,208.5,107.5,212.5,107.5,216.5,108.0,220.5,108.5,224.5,110.5,228.5,112.5,232.5,114.5,236.5,117.0,240.5,119.5,244.5,122.5,248.5,126.0,252.5,129.5,256.5,132.5" stroke="black" stroke-width="1" fill="none" />
<polyline points="264.5,141.5,263.0,145.5,263.5,149.5,266.5,153.5,267.0,157.5,268.5,161.5,266.0,165.0,267.0,169.0,268.5,173.0,268.5,175.0,270.0,179.0,270.5,183.0,270.0,187.0,270.0,191.0,270.0,195.0,271.0,199.0,272.0,205.5,271.0,209.5,269.5,213.5,268.5,217.5,267.0,221.5,266.0,225.5,264.5,229.5,264.0,233.5,263.0,237.5,263.0,241.5,263.0,246.0,262.0,250.0,261.0,254.0,260.5,258.0,260.0,262.0,259.0,266.0,257.5,270.0,252.5,274.0,251.0,278.0,250.0,282.0,246.5,286.0,243.0,290.0,239.0,294.0,235.0,298.0,232.0,302.0,229.5,306.0,233.0,300.5,237.0,295.5,241.0,292.0,245.0,287.5,249.0,283.0" stroke="black" stroke-width="1" fill="none" />
<polyline points="262.0,262.5,261.5,266.5,261.5,270.5,260.0,274.5,257.5,278.5,254.5,282.5,251.5,286.5,249.0,290.5,245.5,294.5,242.0,298.5,238.0,302.5,233.5,306.5,230.0,310.5,225.5,314.5,221.5,318.5,217.0,322.5,209.0,326.5,205.5,330.5,201.0,334.5,198.5,339.5" stroke="black" stroke-width="1" fill="none" />
<polyline points="124.5,239.0,122.0,235.0,119.0,231.0,115.5,227.0,111.0,223.0,108.5,219.0,106.0,215.0,104.5,211.0,103.0,207.0,102.0,203.0,101.5,199.0,102.5,195.0,103.5,191.0,104.5,187.0,109.0,183.0" stroke="black" stroke-width="1" fill="none" />
<polyline points="122.0,239.0,116.5,235.0,109.5,231.0,102.5,227.0,98.0,223.0,94.0,219.0,91.0,215.0,89.0,211.0,86.5,207.0,84.5,203.0,82.0,199.0,80.5,195.0,79.0,191.0,78.0,187.0,77.0,183.0,75.5,179.0,74.0,175.0,73.5,171.0,72.5,167.0,71.5,163.0,70.5,159.0,70.0,155.0,70.0,151.0,69.5,147.0,69.5,143.0,69.5,139.0" stroke="black" stroke-width="1" fill="none" />
<polyline points="85.5,108.5,79.5,113.0,84.0,110.5,87.0,106.5" stroke="black" stroke-width="1" fill="none" />
<polyline points="92.5,95.0,91.0,99.0,88.5,102.0,92.5,95.0" stroke="black" stroke-width="1" fill="none" />
<polyline points="138.0,128.0,134.5,132.0,132.0,136.0,130.0,140.0,130.5,139.0,134.5,132.0,138.5,128.0" stroke="black" stroke-width="1" fill="none" />
<polyline points="150.5,117.0,141.5,121.0,134.5,125.0,130.5,129.0,126.5,133.0,124.5,137.0,121.0,141.0,119.0,147.0,117.0,151.0,117.0,155.0,117.0,159.0,116.5,163.0,116.5,167.0,116.5,171.0,118.5,175.0,119.0,179.0,119.5,183.0,120.0,186.5,121.0,190.5,121.0,194.5,120.0,198.5,119.0,202.5,118.0,206.5,115.5,212.5,117.0,216.5,118.5,220.5,126.0,223.0,128.5,227.0,131.0,231.0,132.0,235.0,133.0,239.5,132.0,243.5,135.0,249.5,136.5,253.5,137.5,257.5,137.5,261.5,138.0,265.5,139.0,269.5,140.0,273.5,141.5,277.5,139.0,281.5,138.0,285.5,137.0,289.5,137.0,293.5,136.5,297.5,136.0,301.5,135.5,305.5,135.0,309.5,134.5,313.5,134.0,317.5,133.5,321.5,132.0,325.5,131.0,329.5,130.0,333.5,129.0,337.5,127.5,341.5,126.0,345.5,124.0,349.5,123.0,353.5,121.5,357.5,120.0,361.5,119.5,365.5,117.5,369.5,117.0,373.5,116.0,377.5,115.0,381.5,114.5,385.5" stroke="black" stroke-width="1" fill="none" />
<polyline points="2.5,387.5,1.0,386.0,1.0,382.0,1.5,378.0" stroke="black" stroke-width="1" fill="none" />
<polyline points="227.5,166.5,227.5,163.5" stroke="black" stroke-width="1" fill="none" />
<polyline points="234.5,165.5,240.5,169.5,242.5,173.5,243.5,179.5" stroke="black" stroke-width="1" fill="none" />
<polyline points="240.0,161.5,243.5,160.5,238.5,156.5" stroke="black" stroke-width="1" fill="none" />
<polyline points="232.0,155.5,225.0,159.5" stroke="black" stroke-width="1" fill="none" />
<polyline points="238.0,148.0,242.0,152.0,242.5,156.0,245.5,157.5,249.5,159.0,252.5,163.0,253.5,167.0,250.0,169.0" stroke="black" stroke-width="1" fill="none" />
<polyline points="242.0,125.5,238.0,122.0" stroke="black" stroke-width="1" fill="none" />
<polyline points="238.0,122.0,242.0,126.0,245.0,128.5,246.5,129.5" stroke="black" stroke-width="1" fill="none" />
<polyline points="230.5,116.5,226.5,115.0,222.5,114.0,218.5,112.5" stroke="black" stroke-width="1" fill="none" />
<polyline points="221.5,109.0,228.5,113.0,236.0,117.0,242.0,121.0,247.0,125.0,251.5,129.0,256.5,133.0" stroke="black" stroke-width="1" fill="none" />
<polyline points="163.0,62.0,161.0,64.0,164.5,60.0" stroke="black" stroke-width="1" fill="none" />
<polyline points="150.5,42.5,142.0,46.5,135.5,50.5,127.5,54.5,122.0,58.5" stroke="black" stroke-width="1" fill="none" />
<polyline points="166.5,19.0,158.0,23.0,152.0,27.0,147.5,31.0,143.0,35.0,137.0,39.0,131.0,43.0,126.5,47.0,122.0,51.0,118.5,55.0,115.0,59.0,117.0,57.0,121.0,53.0,125.0,48.5,129.0,45.0,133.0,42.0,137.0,39.0,141.0,36.5,145.0,33.5,149.0,30.0,153.0,26.5,157.0,23.5,161.0,22.0,165.0,20.0,169.0,18.5,173.0,17.5" stroke="black" stroke-width="1" fill="none" />
<polyline points="229.5,18.0,236.5,22.0,244.0,26.0,249.0,30.0,256.0,34.0,261.0,38.0,265.0,42.0,268.5,46.0,273.5,50.0,277.5,54.0,280.5,58.0,282.0,62.0" stroke="black" stroke-width="1" fill="none" />
</svg>