<svg xmlns="http://www.w3.org/2000/svg" height="735px" width="489px" version="1.1"><polyline points="297.0,13.0,307.0,14.0,315.0,16.0,323.0,19.0,331.0,22.0,339.0,23.0,347.0,27.0,355.0,31.0,363.0,32.0,371.0,40.0,379.0,45.0,387.0,52.0,393.0,62.0,401.0,70.0,406.0,79.0,409.0,79.0,412.0,88.0,417.0,91.0,420.0,100.0,421.0,102.0,425.0,108.0,435.0,120.0,444.0,125.0" stroke="black" stroke-width="1" fill="none" />
<polyline points="434.0,119.0,436.0,107.0,428.0,96.0,420.0,86.0" stroke="black" stroke-width="1" fill="none" />
<polyline points="411.0,93.0,415.0,101.0,420.0,102.0" stroke="black" stroke-width="1" fill="none" />
<polyline points="414.0,104.0,415.0,112.0,419.0,119.0,426.0,127.0,432.0,135.0,437.0,143.0,443.0,151.0,446.0,159.0,449.0,167.0,451.0,175.0,453.0,183.0,454.0,197.0" stroke="black" stroke-width="1" fill="none" />
<polyline points="445.0,156.0,437.0,142.0,429.0,130.0,421.0,120.0,411.0,111.0,398.0,117.0,395.0,124.0,389.0,116.0,381.0,114.0,373.0,117.0,360.0,123.0,352.0,122.0,358.0,126.0,360.0,118.0,364.0,106.0,361.0,98.0,358.0,90.0,358.0,82.0,353.0,74.0,350.0,66.0,344.0,61.0,341.0,53.0,334.0,44.0,326.0,38.0,324.0,37.0" stroke="black" stroke-width="1" fill="none" />
<polyline points="325.0,37.0,333.0,39.0,341.0,46.0,349.0,56.0" stroke="black" stroke-width="1" fill="none" />
<polyline points="349.0,49.0,357.0,58.0,369.0,64.0,377.0,72.0,377.0,71.0,385.0,74.0,391.0,78.0,394.0,81.0,399.0,89.0,402.0,97.0,404.0,105.0,403.0,108.0,399.0,116.0,391.0,122.0,381.0,130.0,379.0,132.0,387.0,126.0" stroke="black" stroke-width="1" fill="none" />
<polyline points="397.0,109.0,405.0,104.0" stroke="black" stroke-width="1" fill="none" />
<polyline points="379.0,113.0,365.0,107.0,358.0,87.0,350.0,82.0,349.0,80.0,353.0,69.0,348.0,55.0,346.0,48.0,339.0,40.0,328.0,45.0,320.0,42.0" stroke="black" stroke-width="1" fill="none" />
<polyline points="323.0,41.0,329.0,49.0,338.0,57.0,342.0,65.0,348.0,73.0,355.0,82.0" stroke="black" stroke-width="1" fill="none" />
<polyline points="365.0,90.0,364.0,98.0,369.0,100.0,372.0,108.0,373.0,117.0,373.0,125.0,368.0,131.0,370.0,128.0,376.0,120.0" stroke="black" stroke-width="1" fill="none" />
<polyline points="370.0,120.0,366.0,116.0,358.0,114.0,350.0,114.0,342.0,107.0,336.0,115.0,328.0,111.0,318.0,112.0,305.0,103.0,297.0,95.0,286.0,91.0,284.0,93.0" stroke="black" stroke-width="1" fill="none" />
<polyline points="297.0,95.0,305.0,101.0,313.0,105.0" stroke="black" stroke-width="1" fill="none" />
<polyline points="307.0,99.0,315.0,105.0,324.0,103.0,328.0,111.0" stroke="black" stroke-width="1" fill="none" />
<polyline points="321.0,109.0,318.0,117.0" stroke="black" stroke-width="1" fill="none" />
<polyline points="342.0,108.0,340.0,111.0,347.0,119.0" stroke="black" stroke-width="1" fill="none" />
<polyline points="362.0,117.0,365.0,125.0" stroke="black" stroke-width="1" fill="none" />
<polyline points="371.0,110.0,367.0,102.0,369.0,94.0" stroke="black" stroke-width="1" fill="none" />
<polyline points="369.0,74.0,367.0,67.0,365.0,62.0" stroke="black" stroke-width="1" fill="none" />
<polyline points="378.0,49.0,369.0,45.0,361.0,36.0" stroke="black" stroke-width="1" fill="none" />
<polyline points="361.0,32.0,370.0,40.0,383.0,48.0,383.0,58.0,386.0,66.0,391.0,74.0,391.0,81.0,391.0,89.0,395.0,91.0" stroke="black" stroke-width="1" fill="none" />
<polyline points="387.0,84.0,387.0,76.0" stroke="black" stroke-width="1" fill="none" />
<polyline points="373.0,55.0,361.0,44.0,356.0,42.0" stroke="black" stroke-width="1" fill="none" />
<polyline points="346.0,33.0,338.0,26.0" stroke="black" stroke-width="1" fill="none" />
<polyline points="338.0,26.0,347.0,32.0,350.0,40.0" stroke="black" stroke-width="1" fill="none" />
<polyline points="338.0,35.0,348.0,43.0,355.0,51.0,360.0,59.0,372.0,59.0,377.0,68.0,385.0,71.0,380.0,73.0,383.0,81.0,386.0,89.0" stroke="black" stroke-width="1" fill="none" />
<polyline points="334.0,52.0,326.0,46.0" stroke="black" stroke-width="1" fill="none" />
<polyline points="325.0,55.0,317.0,53.0" stroke="black" stroke-width="1" fill="none" />
<polyline points="310.0,52.0,318.0,59.0,323.0,61.0,331.0,68.0,339.0,72.0" stroke="black" stroke-width="1" fill="none" />
<polyline points="342.0,55.0,340.0,40.0,332.0,36.0,324.0,30.0,316.0,27.0" stroke="black" stroke-width="1" fill="none" />
<polyline points="325.0,25.0,326.0,33.0,336.0,41.0,343.0,49.0,352.0,53.0,359.0,61.0,355.0,66.0,362.0,67.0,359.0,70.0,363.0,78.0,372.0,82.0,372.0,90.0,379.0,92.0,381.0,100.0" stroke="black" stroke-width="1" fill="none" />
<polyline points="339.0,68.0,332.0,64.0,328.0,64.0,324.0,56.0,322.0,48.0,314.0,43.0" stroke="black" stroke-width="1" fill="none" />
<polyline points="314.0,43.0,318.0,51.0,324.0,59.0,332.0,65.0,342.0,73.0,348.0,72.0,356.0,67.0,361.0,69.0,363.0,77.0,367.0,79.0,375.0,84.0" stroke="black" stroke-width="1" fill="none" />
<polyline points="320.0,67.0,312.0,64.0,306.0,58.0,298.0,47.0,297.0,41.0,286.0,34.0,286.0,30.0" stroke="black" stroke-width="1" fill="none" />
<polyline points="283.0,32.0,291.0,27.0" stroke="black" stroke-width="1" fill="none" />
<polyline points="286.0,21.0,288.0,29.0,282.0,37.0,298.0,42.0,301.0,50.0,308.0,52.0,312.0,55.0,311.0,63.0,317.0,71.0,319.0,73.0,320.0,71.0,322.0,76.0,330.0,79.0" stroke="black" stroke-width="1" fill="none" />
<polyline points="299.0,51.0,291.0,49.0" stroke="black" stroke-width="1" fill="none" />
<polyline points="290.0,59.0,282.0,57.0" stroke="black" stroke-width="1" fill="none" />
<polyline points="282.0,57.0,288.0,61.0" stroke="black" stroke-width="1" fill="none" />
<polyline points="283.0,39.0,291.0,40.0,300.0,38.0,308.0,41.0,308.0,45.0,316.0,52.0,324.0,53.0,335.0,53.0,338.0,57.0,344.0,67.0" stroke="black" stroke-width="1" fill="none" />
<polyline points="372.0,90.0,364.0,89.0,359.0,84.0,352.0,72.0,341.0,77.0,334.0,69.0,325.0,65.0,322.0,61.0,319.0,55.0,311.0,47.0,301.0,39.0" stroke="black" stroke-width="1" fill="none" />
<polyline points="294.0,17.0,300.0,19.0,306.0,18.0,314.0,20.0,315.0,27.0,323.0,26.0,330.0,30.0,338.0,32.0,346.0,41.0,354.0,49.0,362.0,58.0,364.0,63.0,372.0,54.0,380.0,58.0,392.0,74.0,395.0,89.0" stroke="black" stroke-width="1" fill="none" />
<polyline points="340.0,24.0,355.0,32.0,362.0,40.0,371.0,48.0,378.0,49.0,389.0,58.0,396.0,66.0,403.0,74.0,404.0,83.0,416.0,84.0,422.0,88.0,427.0,96.0,433.0,104.0,438.0,112.0,441.0,120.0,445.0,128.0,447.0,136.0,450.0,144.0,451.0,152.0,453.0,160.0,454.0,168.0,455.0,176.0" stroke="black" stroke-width="1" fill="none" />
<polyline points="463.0,242.0,462.0,250.0,463.0,259.0,468.0,266.0" stroke="black" stroke-width="1" fill="none" />
<polyline points="469.0,271.0,468.0,279.0" stroke="black" stroke-width="1" fill="none" />
<polyline points="460.0,253.0,452.0,248.0" stroke="black" stroke-width="1" fill="none" />
<polyline points="455.0,248.0,462.0,256.0,466.0,264.0,466.0,272.0,464.0,280.0,462.0,288.0,459.0,296.0,457.0,304.0,450.0,312.0,458.0,318.0" stroke="black" stroke-width="1" fill="none" />
<polyline points="450.0,312.0,457.0,301.0" stroke="black" stroke-width="1" fill="none" />
<polyline points="441.0,331.0,433.0,332.0" stroke="black" stroke-width="1" fill="none" />
<polyline points="438.0,309.0,430.0,297.0,422.0,289.0" stroke="black" stroke-width="1" fill="none" />
<polyline points="423.0,288.0,422.0,296.0,416.0,304.0,421.0,304.0,431.0,307.0" stroke="black" stroke-width="1" fill="none" />
<polyline points="418.0,302.0,410.0,305.0,402.0,299.0,394.0,294.0" stroke="black" stroke-width="1" fill="none" />
<polyline points="389.0,290.0,397.0,287.0,405.0,283.0,414.0,282.0,422.0,282.0" stroke="black" stroke-width="1" fill="none" />
<polyline points="423.0,279.0,415.0,276.0,407.0,277.0,399.0,272.0" stroke="black" stroke-width="1" fill="none" />
<polyline points="406.0,271.0,414.0,272.0,422.0,271.0,430.0,276.0,438.0,281.0,446.0,289.0" stroke="black" stroke-width="1" fill="none" />
<polyline points="431.0,305.0,423.0,306.0,419.0,305.0,430.0,297.0,424.0,289.0" stroke="black" stroke-width="1" fill="none" />
<polyline points="416.0,277.0,424.0,280.0,435.0,280.0,444.0,288.0,443.0,296.0,445.0,304.0,434.0,309.0,438.0,313.0,437.0,324.0,445.0,319.0,453.0,315.0,457.0,310.0,445.0,319.0" stroke="black" stroke-width="1" fill="none" />
<polyline points="459.0,339.0,460.0,347.0,459.0,355.0,458.0,363.0,457.0,371.0,455.0,379.0,453.0,387.0,450.0,395.0,449.0,403.0,447.0,411.0,446.0,419.0,444.0,427.0,442.0,435.0,439.0,443.0,436.0,451.0,433.0,459.0,429.0,467.0,426.0,475.0,421.0,483.0,417.0,491.0,412.0,499.0,408.0,507.0,403.0,515.0,399.0,523.0,395.0,531.0,391.0,539.0,385.0,547.0,375.0,555.0,360.0,563.0,342.0,571.0" stroke="black" stroke-width="1" fill="none" />
<polyline points="303.0,573.0,311.0,578.0,319.0,577.0,323.0,579.0,318.0,587.0,313.0,595.0,308.0,603.0,302.0,611.0,295.0,619.0,287.0,627.0,278.0,635.0,270.0,643.0" stroke="black" stroke-width="1" fill="none" />
<polyline points="279.0,650.0,293.0,658.0,300.0,666.0,305.0,674.0,307.0,682.0,308.0,690.0,309.0,698.0,310.0,706.0,313.0,714.0,317.0,722.0,321.0,730.0" stroke="black" stroke-width="1" fill="none" />
<polyline points="321.0,729.0,313.0,714.0" stroke="black" stroke-width="1" fill="none" />
<polyline points="302.0,701.0,311.0,717.0,319.0,732.0" stroke="black" stroke-width="1" fill="none" />
<polyline points="311.0,729.0,309.0,721.0,306.0,713.0,303.0,705.0,301.0,697.0,299.0,689.0,297.0,681.0,297.0,679.0" stroke="black" stroke-width="1" fill="none" />
<polyline points="299.0,679.0,302.0,687.0,304.0,695.0,306.0,703.0,308.0,711.0,311.0,719.0,315.0,727.0" stroke="black" stroke-width="1" fill="none" />
<polyline points="328.0,729.0,328.0,721.0,327.0,713.0,325.0,705.0,324.0,697.0,322.0,689.0" stroke="black" stroke-width="1" fill="none" />
<polyline points="322.0,687.0,321.0,695.0,322.0,703.0,324.0,711.0,325.0,719.0,327.0,727.0" stroke="black" stroke-width="1" fill="none" />
<polyline points="362.0,700.0,364.0,702.0,367.0,710.0,371.0,718.0,373.0,726.0,377.0,734.0" stroke="black" stroke-width="1" fill="none" />
<polyline points="396.0,724.0,388.0,711.0,380.0,697.0,372.0,680.0" stroke="black" stroke-width="1" fill="none" />
<polyline points="372.0,683.0,376.0,691.0,380.0,699.0,385.0,707.0,390.0,715.0,394.0,723.0,399.0,731.0" stroke="black" stroke-width="1" fill="none" />
<polyline points="375.0,728.0,373.0,709.0,365.0,694.0,364.0,681.0,364.0,678.0" stroke="black" stroke-width="1" fill="none" />
<polyline points="359.0,673.0,371.0,677.0,369.0,685.0,371.0,687.0,374.0,691.0,384.0,692.0,392.0,697.0,400.0,702.0,408.0,702.0,416.0,705.0,424.0,708.0,432.0,712.0,440.0,715.0,448.0,719.0,456.0,724.0,464.0,728.0" stroke="black" stroke-width="1" fill="none" />
<polyline points="481.0,717.0,473.0,711.0,465.0,703.0,456.0,699.0" stroke="black" stroke-width="1" fill="none" />
<polyline points="456.0,709.0,463.0,711.0,474.0,719.0" stroke="black" stroke-width="1" fill="none" />
<polyline points="487.0,721.0,485.0,720.0,477.0,715.0,468.0,707.0,461.0,704.0,455.0,707.0,455.0,699.0,452.0,691.0,450.0,690.0" stroke="black" stroke-width="1" fill="none" />
<polyline points="427.0,691.0,410.0,683.0,402.0,673.0,394.0,670.0,386.0,668.0" stroke="black" stroke-width="1" fill="none" />
<polyline points="370.0,670.0,378.0,674.0,386.0,679.0,393.0,681.0,401.0,682.0,409.0,687.0,417.0,689.0,425.0,693.0,433.0,697.0,441.0,701.0" stroke="black" stroke-width="1" fill="none" />
<polyline points="475.0,719.0,467.0,714.0,462.0,709.0,448.0,702.0,440.0,696.0,432.0,693.0,424.0,688.0,416.0,685.0,408.0,681.0,400.0,677.0,392.0,674.0,384.0,672.0,376.0,668.0,368.0,667.0" stroke="black" stroke-width="1" fill="none" />
<polyline points="355.0,676.0,366.0,682.0,377.0,681.0,385.0,684.0,393.0,688.0,401.0,692.0,409.0,694.0,417.0,697.0,425.0,701.0,433.0,705.0,441.0,708.0,449.0,712.0,457.0,716.0,465.0,720.0,473.0,724.0,481.0,728.0,489.0,733.0" stroke="black" stroke-width="1" fill="none" />
<polyline points="411.0,707.0,403.0,704.0,390.0,701.0,386.0,694.0,377.0,686.0,375.0,678.0,367.0,671.0,359.0,655.0,351.0,651.0" stroke="black" stroke-width="1" fill="none" />
<polyline points="355.0,650.0,360.0,658.0,363.0,666.0,368.0,674.0,378.0,676.0,383.0,684.0,401.0,692.0,423.0,700.0,440.0,708.0,456.0,716.0,472.0,724.0,486.0,732.0" stroke="black" stroke-width="1" fill="none" />
<polyline points="433.0,686.0,425.0,681.0,417.0,673.0,409.0,667.0,404.0,661.0,396.0,656.0,382.0,648.0,374.0,645.0,366.0,641.0,358.0,640.0,349.0,634.0,341.0,628.0" stroke="black" stroke-width="1" fill="none" />
<polyline points="341.0,636.0,349.0,641.0" stroke="black" stroke-width="1" fill="none" />
<polyline points="371.0,645.0,356.0,638.0,346.0,632.0,334.0,619.0" stroke="black" stroke-width="1" fill="none" />
<polyline points="332.0,614.0,336.0,622.0,338.0,630.0,342.0,638.0,345.0,646.0,352.0,650.0,349.0,658.0,351.0,666.0,354.0,674.0,358.0,682.0,366.0,685.0,364.0,693.0,368.0,701.0,372.0,709.0,376.0,717.0,379.0,725.0,383.0,733.0" stroke="black" stroke-width="1" fill="none" />
<polyline points="397.0,699.0,410.0,707.0,427.0,710.0,445.0,719.0,461.0,727.0,472.0,733.0" stroke="black" stroke-width="1" fill="none" />
<polyline points="434.0,698.0,418.0,690.0,399.0,682.0" stroke="black" stroke-width="1" fill="none" />
<polyline points="391.0,652.0,398.0,660.0,411.0,670.0,414.0,672.0,423.0,680.0,434.0,688.0,445.0,700.0" stroke="black" stroke-width="1" fill="none" />
<polyline points="382.0,531.0,374.0,533.0" stroke="black" stroke-width="1" fill="none" />
<polyline points="380.0,500.0,368.0,508.0,371.0,506.0,379.0,501.0,384.0,504.0,391.0,502.0,399.0,506.0" stroke="black" stroke-width="1" fill="none" />
<polyline points="397.0,505.0,388.0,497.0" stroke="black" stroke-width="1" fill="none" />
<polyline points="398.0,466.0,394.0,462.0,397.0,453.0,407.0,445.0,411.0,437.0,404.0,449.0,396.0,454.0" stroke="black" stroke-width="1" fill="none" />
<polyline points="398.0,437.0,406.0,435.0" stroke="black" stroke-width="1" fill="none" />
<polyline points="399.0,435.0,399.0,443.0" stroke="black" stroke-width="1" fill="none" />
<polyline points="392.0,444.0,384.0,436.0,376.0,437.0,368.0,443.0,360.0,441.0,361.0,435.0,356.0,427.0,358.0,419.0,356.0,415.0" stroke="black" stroke-width="1" fill="none" />
<polyline points="340.0,393.0,332.0,392.0,332.0,388.0,317.0,376.0" stroke="black" stroke-width="1" fill="none" />
<polyline points="321.0,385.0,329.0,386.0,337.0,389.0,346.0,381.0,354.0,383.0,361.0,378.0,369.0,376.0,368.0,381.0" stroke="black" stroke-width="1" fill="none" />
<polyline points="364.0,374.0,364.0,382.0,358.0,390.0,366.0,388.0,374.0,388.0,382.0,384.0,390.0,380.0,400.0,380.0" stroke="black" stroke-width="1" fill="none" />
<polyline points="397.0,379.0,384.0,387.0" stroke="black" stroke-width="1" fill="none" />
<polyline points="394.0,396.0,402.0,390.0,409.0,381.0,404.0,389.0,394.0,397.0,392.0,405.0,389.0,413.0" stroke="black" stroke-width="1" fill="none" />
<polyline points="382.0,435.0,389.0,443.0" stroke="black" stroke-width="1" fill="none" />
<polyline points="379.0,434.0,370.0,442.0" stroke="black" stroke-width="1" fill="none" />
<polyline points="379.0,462.0,387.0,462.0,395.0,460.0,393.0,470.0" stroke="black" stroke-width="1" fill="none" />
<polyline points="418.0,472.0,414.0,480.0,408.0,486.0,407.0,487.0,413.0,482.0,420.0,472.0" stroke="black" stroke-width="1" fill="none" />
<polyline points="423.0,424.0,415.0,408.0,408.0,399.0" stroke="black" stroke-width="1" fill="none" />
<polyline points="404.0,393.0,407.0,396.0,411.0,404.0,416.0,412.0,421.0,419.0,424.0,427.0" stroke="black" stroke-width="1" fill="none" />
<polyline points="438.0,446.0,430.0,465.0,422.0,482.0,414.0,495.0,406.0,509.0,398.0,524.0,390.0,540.0,382.0,550.0,374.0,556.0,366.0,559.0,358.0,564.0,350.0,569.0,342.0,571.0,334.0,574.0,326.0,576.0,318.0,587.0,310.0,600.0,302.0,611.0,294.0,620.0,286.0,628.0,278.0,635.0,270.0,643.0,262.0,634.0,254.0,623.0,246.0,612.0,239.0,604.0,231.0,597.0,223.0,589.0,215.0,582.0,207.0,574.0,199.0,568.0,191.0,561.0,183.0,555.0,175.0,549.0,167.0,542.0,159.0,535.0,151.0,528.0,143.0,521.0,135.0,514.0,127.0,505.0,119.0,497.0,111.0,488.0,103.0,477.0,97.0,469.0,89.0,457.0" stroke="black" stroke-width="1" fill="none" />
<polyline points="120.0,467.0,128.0,477.0,135.0,484.0,143.0,492.0,151.0,501.0,159.0,507.0,166.0,511.0,171.0,516.0,179.0,523.0" stroke="black" stroke-width="1" fill="none" />
<polyline points="173.0,524.0,182.0,532.0,194.0,538.0,202.0,546.0,214.0,554.0,223.0,562.0,231.0,570.0,243.0,578.0,252.0,585.0" stroke="black" stroke-width="1" fill="none" />
<polyline points="269.0,562.0,277.0,565.0" stroke="black" stroke-width="1" fill="none" />
<polyline points="275.0,542.0,267.0,535.0" stroke="black" stroke-width="1" fill="none" />
<polyline points="267.0,535.0,273.0,543.0" stroke="black" stroke-width="1" fill="none" />
<polyline points="295.0,452.0,303.0,456.0,303.0,452.0,308.0,452.0,314.0,450.0,322.0,450.0,330.0,452.0,338.0,452.0,346.0,453.0,352.0,461.0,364.0,454.0,358.0,458.0,348.0,462.0" stroke="black" stroke-width="1" fill="none" />
<polyline points="338.0,455.0,330.0,463.0,322.0,462.0" stroke="black" stroke-width="1" fill="none" />
<polyline points="319.0,444.0,311.0,446.0,303.0,445.0,295.0,444.0,287.0,441.0" stroke="black" stroke-width="1" fill="none" />
<polyline points="277.0,444.0,285.0,440.0,293.0,437.0,282.0,444.0,279.0,452.0,282.0,448.0,290.0,446.0,298.0,449.0,305.0,454.0,313.0,457.0,322.0,454.0,326.0,443.0,334.0,441.0,342.0,439.0,350.0,436.0,358.0,435.0,359.0,432.0" stroke="black" stroke-width="1" fill="none" />
<polyline points="338.0,381.0,346.0,374.0,354.0,371.0,362.0,370.0,370.0,372.0" stroke="black" stroke-width="1" fill="none" />
<polyline points="353.0,371.0,340.0,379.0,340.0,384.0,344.0,392.0" stroke="black" stroke-width="1" fill="none" />
<polyline points="343.0,390.0,326.0,389.0,319.0,381.0,318.0,373.0,318.0,364.0,319.0,356.0,316.0,366.0" stroke="black" stroke-width="1" fill="none" />
<polyline points="311.0,303.0,319.0,300.0" stroke="black" stroke-width="1" fill="none" />
<polyline points="302.0,279.0,294.0,274.0,286.0,271.0,278.0,270.0" stroke="black" stroke-width="1" fill="none" />
<polyline points="287.0,278.0,286.0,286.0,278.0,294.0,279.0,297.0,287.0,292.0,295.0,292.0,301.0,293.0,308.0,293.0,319.0,288.0" stroke="black" stroke-width="1" fill="none" />
<polyline points="302.0,287.0,294.0,280.0,286.0,284.0,278.0,294.0,270.0,291.0,262.0,290.0,254.0,283.0,246.0,289.0,237.0,291.0,244.0,283.0" stroke="black" stroke-width="1" fill="none" />
<polyline points="245.0,275.0,232.0,281.0,240.0,278.0,248.0,275.0,256.0,272.0,264.0,271.0,272.0,269.0,280.0,267.0,288.0,266.0,296.0,266.0,304.0,266.0" stroke="black" stroke-width="1" fill="none" />
<polyline points="307.0,259.0,302.0,257.0,284.0,258.0,276.0,260.0,268.0,259.0" stroke="black" stroke-width="1" fill="none" />
<polyline points="269.0,251.0,277.0,247.0,278.0,253.0,286.0,246.0,289.0,248.0,298.0,245.0,306.0,244.0,314.0,246.0,322.0,251.0,330.0,252.0" stroke="black" stroke-width="1" fill="none" />
<polyline points="322.0,257.0,314.0,257.0,306.0,256.0,298.0,258.0,290.0,256.0,282.0,253.0" stroke="black" stroke-width="1" fill="none" />
<polyline points="276.0,240.0,268.0,238.0" stroke="black" stroke-width="1" fill="none" />
<polyline points="266.0,237.0,274.0,236.0" stroke="black" stroke-width="1" fill="none" />
<polyline points="265.0,251.0,273.0,245.0,281.0,243.0,289.0,242.0,294.0,242.0,302.0,241.0,310.0,240.0,318.0,242.0,326.0,244.0" stroke="black" stroke-width="1" fill="none" />
<polyline points="319.0,248.0,326.0,251.0,341.0,253.0" stroke="black" stroke-width="1" fill="none" />
<polyline points="368.0,275.0,376.0,272.0,384.0,276.0,393.0,278.0,401.0,264.0,408.0,252.0,416.0,247.0" stroke="black" stroke-width="1" fill="none" />
<polyline points="414.0,244.0,422.0,244.0,430.0,247.0,438.0,246.0,446.0,253.0" stroke="black" stroke-width="1" fill="none" />
<polyline points="449.0,257.0,440.0,249.0" stroke="black" stroke-width="1" fill="none" />
<polyline points="408.0,240.0,409.0,246.0,412.0,244.0,414.0,248.0,404.0,256.0,401.0,264.0,398.0,272.0,391.0,280.0,388.0,288.0,392.0,296.0,393.0,304.0,395.0,312.0,398.0,320.0,402.0,328.0,404.0,336.0" stroke="black" stroke-width="1" fill="none" />
<polyline points="402.0,327.0,394.0,307.0" stroke="black" stroke-width="1" fill="none" />
<polyline points="402.0,304.0,404.0,303.0,399.0,295.0,399.0,285.0,397.0,281.0,406.0,268.0,416.0,260.0,427.0,252.0,430.0,251.0,422.0,256.0,414.0,262.0,406.0,268.0" stroke="black" stroke-width="1" fill="none" />
<polyline points="401.0,279.0,393.0,282.0" stroke="black" stroke-width="1" fill="none" />
<polyline points="372.0,311.0,378.0,319.0,383.0,327.0,386.0,335.0" stroke="black" stroke-width="1" fill="none" />
<polyline points="390.0,325.0,390.0,321.0,391.0,329.0,397.0,331.0,399.0,339.0" stroke="black" stroke-width="1" fill="none" />
<polyline points="379.0,353.0,379.0,354.0,382.0,362.0,386.0,360.0" stroke="black" stroke-width="1" fill="none" />
<polyline points="404.0,367.0,402.0,375.0,391.0,378.0,377.0,386.0,368.0,395.0,369.0,395.0,375.0,392.0,383.0,388.0,391.0,383.0,398.0,372.0,406.0,371.0,410.0,376.0" stroke="black" stroke-width="1" fill="none" />
<polyline points="407.0,368.0,410.0,376.0,404.0,384.0,394.0,392.0,393.0,393.0,401.0,388.0" stroke="black" stroke-width="1" fill="none" />
<polyline points="386.0,333.0,380.0,321.0,372.0,311.0" stroke="black" stroke-width="1" fill="none" />
<polyline points="301.0,287.0,291.0,279.0" stroke="black" stroke-width="1" fill="none" />
<polyline points="292.0,273.0,303.0,281.0,310.0,288.0,310.0,296.0,299.0,301.0,306.0,296.0,311.0,289.0,319.0,284.0" stroke="black" stroke-width="1" fill="none" />
<polyline points="307.0,249.0,299.0,247.0" stroke="black" stroke-width="1" fill="none" />
<polyline points="264.0,294.0,267.0,298.0,258.0,288.0,247.0,291.0" stroke="black" stroke-width="1" fill="none" />
<polyline points="222.0,273.0,214.0,266.0" stroke="black" stroke-width="1" fill="none" />
<polyline points="157.0,265.0,153.0,277.0,145.0,281.0" stroke="black" stroke-width="1" fill="none" />
<polyline points="129.0,266.0,128.0,262.0" stroke="black" stroke-width="1" fill="none" />
<polyline points="147.0,266.0,149.0,258.0" stroke="black" stroke-width="1" fill="none" />
<polyline points="157.0,262.0,153.0,270.0,153.0,278.0,146.0,286.0,146.0,294.0,149.0,299.0,145.0,300.0,133.0,308.0,133.0,308.0,141.0,305.0,152.0,295.0" stroke="black" stroke-width="1" fill="none" />
<polyline points="148.0,242.0,156.0,237.0,164.0,234.0" stroke="black" stroke-width="1" fill="none" />
<polyline points="153.0,232.0,148.0,242.0,151.0,233.0,156.0,226.0,169.0,221.0,169.0,221.0" stroke="black" stroke-width="1" fill="none" />
<polyline points="166.0,212.0,170.0,207.0" stroke="black" stroke-width="1" fill="none" />
<polyline points="155.0,196.0,149.0,204.0,150.0,196.0,154.0,190.0" stroke="black" stroke-width="1" fill="none" />
<polyline points="150.0,192.0,147.0,200.0,144.0,208.0,140.0,216.0,137.0,224.0,146.0,225.0,156.0,226.0,165.0,228.0" stroke="black" stroke-width="1" fill="none" />
<polyline points="147.0,224.0,149.0,214.0" stroke="black" stroke-width="1" fill="none" />
<polyline points="140.0,213.0,149.0,202.0" stroke="black" stroke-width="1" fill="none" />
<polyline points="140.0,189.0,140.0,186.0" stroke="black" stroke-width="1" fill="none" />
<polyline points="148.0,172.0,156.0,170.0" stroke="black" stroke-width="1" fill="none" />
<polyline points="157.0,156.0,162.0,144.0,170.0,139.0" stroke="black" stroke-width="1" fill="none" />
<polyline points="161.0,132.0,168.0,134.0,157.0,142.0,148.0,150.0,149.0,150.0,157.0,142.0,165.0,137.0,167.0,126.0,175.0,122.0,179.0,112.0,187.0,107.0" stroke="black" stroke-width="1" fill="none" />
<polyline points="184.0,107.0,175.0,115.0,174.0,122.0,166.0,130.0,168.0,140.0,163.0,152.0,156.0,160.0,148.0,161.0,148.0,170.0,143.0,183.0,136.0,191.0,139.0,196.0" stroke="black" stroke-width="1" fill="none" />
<polyline points="57.0,153.0,65.0,137.0,73.0,117.0,81.0,103.0,89.0,92.0,97.0,84.0,105.0,77.0,113.0,70.0,121.0,64.0,129.0,57.0,137.0,51.0,145.0,45.0,153.0,41.0,161.0,37.0,169.0,30.0,177.0,27.0,185.0,23.0,193.0,18.0,192.0,19.0,177.0,27.0,163.0,35.0,150.0,43.0,137.0,51.0,126.0,59.0,117.0,67.0,107.0,75.0,98.0,83.0,91.0,91.0,84.0,99.0,78.0,107.0,74.0,115.0,70.0,123.0,67.0,131.0,64.0,139.0,61.0,147.0,58.0,155.0,56.0,163.0,54.0,171.0,53.0,179.0,53.0,187.0,53.0,195.0,54.0,203.0,56.0,211.0,59.0,219.0,54.0,227.0,59.0,231.0,60.0,239.0,60.0,247.0,62.0,255.0,63.0,263.0,63.0,271.0,62.0,277.0,54.0,285.0,51.0,293.0,49.0,301.0,49.0,309.0,50.0,317.0,52.0,325.0,54.0,333.0,57.0,341.0,59.0,349.0,63.0,357.0,67.0,365.0,70.0,373.0,75.0,381.0,81.0,389.0,84.0,397.0,84.0,405.0,84.0,413.0,85.0,421.0,85.0,429.0,86.0,436.0,84.0,444.0,85.0,448.0,88.0,453.0,91.0,461.0,96.0,469.0,102.0,477.0,108.0,485.0,114.0,493.0,122.0,501.0,129.0,509.0,138.0,517.0,146.0,525.0,155.0,533.0,165.0,541.0,174.0,549.0,185.0,557.0,194.0,565.0,204.0,573.0,213.0,581.0,222.0,589.0,230.0,597.0,239.0,605.0,246.0,613.0,252.0,621.0,257.0,629.0,263.0,637.0,267.0,648.0,260.0,656.0,252.0,664.0,242.0,672.0,236.0,680.0,235.0,688.0,227.0,700.0,229.0,708.0,232.0,716.0,235.0,724.0,238.0,732.0" stroke="black" stroke-width="1" fill="none" />
<polyline points="237.0,728.0,229.0,707.0" stroke="black" stroke-width="1" fill="none" />
<polyline points="227.0,709.0,235.0,729.0" stroke="black" stroke-width="1" fill="none" />
<polyline points="236.0,733.0,233.0,725.0,230.0,717.0,227.0,709.0,225.0,701.0,223.0,695.0,226.0,691.0,220.0,693.0" stroke="black" stroke-width="1" fill="none" />
<polyline points="226.0,693.0,234.0,689.0,245.0,690.0,250.0,698.0,258.0,706.0,258.0,714.0,259.0,722.0,259.0,730.0" stroke="black" stroke-width="1" fill="none" />
<polyline points="261.0,703.0,253.0,697.0" stroke="black" stroke-width="1" fill="none" />
<polyline points="253.0,697.0,263.0,705.0,263.0,713.0,265.0,721.0,266.0,729.0" stroke="black" stroke-width="1" fill="none" />
<polyline points="253.0,702.0,245.0,689.0,237.0,680.0" stroke="black" stroke-width="1" fill="none" />
<polyline points="234.0,674.0,228.0,682.0,219.0,690.0,211.0,698.0,210.0,706.0,214.0,714.0,218.0,722.0,222.0,730.0,223.0,731.0" stroke="black" stroke-width="1" fill="none" />
<polyline points="228.0,727.0,224.0,719.0,217.0,719.0" stroke="black" stroke-width="1" fill="none" />
<polyline points="206.0,694.0,198.0,682.0" stroke="black" stroke-width="1" fill="none" />
<polyline points="198.0,682.0,204.0,690.0,208.0,700.0,216.0,693.0,224.0,685.0,232.0,675.0,240.0,674.0,248.0,667.0,256.0,660.0,264.0,653.0,272.0,648.0,280.0,650.0,288.0,654.0,296.0,660.0,304.0,670.0" stroke="black" stroke-width="1" fill="none" />
<polyline points="254.0,586.0,246.0,580.0,238.0,574.0,230.0,568.0,222.0,560.0,214.0,553.0,206.0,547.0,198.0,540.0,189.0,536.0,181.0,530.0,173.0,524.0" stroke="black" stroke-width="1" fill="none" />
<polyline points="121.0,553.0,125.0,561.0,130.0,569.0,136.0,577.0,139.0,585.0,144.0,593.0,148.0,601.0,152.0,609.0,158.0,617.0,162.0,625.0,165.0,633.0,169.0,638.0,175.0,646.0,180.0,654.0,186.0,662.0,191.0,670.0" stroke="black" stroke-width="1" fill="none" />
<polyline points="192.0,670.0,184.0,659.0,176.0,646.0,168.0,635.0,161.0,622.0,153.0,609.0,145.0,595.0,137.0,578.0,129.0,565.0,121.0,553.0" stroke="black" stroke-width="1" fill="none" />
<polyline points="69.0,606.0,85.0,614.0,92.0,617.0,105.0,624.0,115.0,632.0,119.0,640.0,121.0,648.0,124.0,656.0,126.0,662.0,127.0,670.0,129.0,675.0,131.0,683.0,133.0,691.0,135.0,699.0,129.0,703.0,137.0,710.0,139.0,718.0,133.0,726.0,141.0,733.0" stroke="black" stroke-width="1" fill="none" />
<polyline points="110.0,649.0,102.0,642.0,94.0,641.0" stroke="black" stroke-width="1" fill="none" />
<polyline points="91.0,643.0,99.0,648.0" stroke="black" stroke-width="1" fill="none" />
<polyline points="105.0,650.0,96.0,647.0,87.0,640.0,83.0,643.0,75.0,641.0" stroke="black" stroke-width="1" fill="none" />
<polyline points="61.0,645.0,64.0,645.0,65.0,653.0,69.0,662.0,70.0,671.0,72.0,679.0,78.0,695.0,75.0,703.0" stroke="black" stroke-width="1" fill="none" />
<polyline points="79.0,715.0,79.0,707.0,82.0,706.0,80.0,696.0,79.0,688.0,76.0,680.0,75.0,673.0,73.0,665.0,72.0,657.0,69.0,649.0,67.0,641.0,56.0,627.0" stroke="black" stroke-width="1" fill="none" />
<polyline points="49.0,611.0,57.0,610.0,72.0,611.0,80.0,615.0" stroke="black" stroke-width="1" fill="none" />
<polyline points="91.0,632.0,91.0,640.0,93.0,640.0,101.0,646.0,108.0,651.0,118.0,651.0" stroke="black" stroke-width="1" fill="none" />
<polyline points="121.0,645.0,113.0,628.0,105.0,623.0,97.0,619.0,89.0,615.0,81.0,611.0,73.0,607.0,65.0,604.0,57.0,602.0,49.0,603.0" stroke="black" stroke-width="1" fill="none" />
<polyline points="49.0,608.0,55.0,605.0,50.0,607.0,52.0,615.0,55.0,623.0,57.0,631.0,61.0,637.0,61.0,645.0,62.0,653.0,64.0,661.0,66.0,669.0,68.0,677.0,69.0,685.0,71.0,693.0,74.0,701.0,74.0,705.0,76.0,713.0,78.0,721.0,83.0,729.0" stroke="black" stroke-width="1" fill="none" />
<polyline points="99.0,735.0,91.0,731.0,83.0,728.0,78.0,723.0,71.0,724.0,68.0,716.0,66.0,708.0,64.0,700.0,62.0,692.0,61.0,684.0,59.0,676.0" stroke="black" stroke-width="1" fill="none" />
<polyline points="57.0,667.0,58.0,675.0,57.0,683.0,59.0,691.0" stroke="black" stroke-width="1" fill="none" />
<polyline points="48.0,648.0,41.0,645.0,50.0,641.0,48.0,633.0,38.0,636.0,30.0,639.0,22.0,642.0,14.0,645.0,6.0,648.0" stroke="black" stroke-width="1" fill="none" />
<polyline points="0.0,660.0,8.0,658.0,16.0,655.0,24.0,651.0,32.0,648.0,40.0,646.0,48.0,644.0" stroke="black" stroke-width="1" fill="none" />
<polyline points="37.0,636.0,17.0,644.0,6.0,645.0,2.0,646.0,10.0,643.0,18.0,640.0,26.0,638.0,34.0,634.0,42.0,629.0" stroke="black" stroke-width="1" fill="none" />
<polyline points="30.0,623.0,31.0,627.0,32.0,619.0" stroke="black" stroke-width="1" fill="none" />
<polyline points="34.0,613.0,24.0,621.0,24.0,629.0,21.0,627.0,25.0,619.0" stroke="black" stroke-width="1" fill="none" />
<polyline points="26.0,603.0,18.0,597.0" stroke="black" stroke-width="1" fill="none" />
<polyline points="16.0,592.0,24.0,592.0" stroke="black" stroke-width="1" fill="none" />
<polyline points="11.0,580.0,9.0,585.0,1.0,589.0" stroke="black" stroke-width="1" fill="none" />
<polyline points="0.0,596.0,8.0,595.0,18.0,597.0,26.0,600.0" stroke="black" stroke-width="1" fill="none" />
<polyline points="15.0,614.0,17.0,607.0,15.0,614.0,7.0,619.0,18.0,622.0,28.0,614.0,32.0,614.0,32.0,611.0,24.0,618.0,16.0,623.0,8.0,627.0,0.0,629.0" stroke="black" stroke-width="1" fill="none" />
<polyline points="54.0,608.0,56.0,616.0,61.0,617.0,58.0,618.0,60.0,626.0,64.0,628.0,66.0,636.0,72.0,640.0,71.0,635.0,79.0,636.0,87.0,639.0,90.0,634.0" stroke="black" stroke-width="1" fill="none" />
<polyline points="109.0,630.0,113.0,638.0,114.0,646.0,119.0,652.0,118.0,660.0,123.0,669.0,122.0,677.0,126.0,685.0,127.0,693.0,135.0,702.0,134.0,710.0,132.0,718.0,140.0,726.0,135.0,734.0" stroke="black" stroke-width="1" fill="none" />
<polyline points="38.0,632.0,47.0,631.0,44.0,623.0,41.0,615.0,37.0,607.0,33.0,599.0,32.0,594.0,26.0,589.0,27.0,581.0,24.0,573.0" stroke="black" stroke-width="1" fill="none" />
<polyline points="18.0,569.0,8.0,577.0,1.0,583.0,9.0,575.0,17.0,570.0,25.0,575.0,33.0,596.0,41.0,615.0,49.0,635.0" stroke="black" stroke-width="1" fill="none" />
<polyline points="11.0,542.0,2.0,550.0,5.0,542.0,13.0,539.0" stroke="black" stroke-width="1" fill="none" />
<polyline points="15.0,540.0,17.0,548.0,18.0,556.0,20.0,564.0,23.0,572.0,15.0,580.0,9.0,585.0,1.0,591.0,8.0,591.0,11.0,599.0,17.0,590.0,25.0,590.0" stroke="black" stroke-width="1" fill="none" />
<polyline points="126.0,474.0,133.0,482.0,139.0,490.0,147.0,498.0,156.0,506.0,165.0,509.0,171.0,514.0,177.0,522.0" stroke="black" stroke-width="1" fill="none" />
<polyline points="137.0,476.0,130.0,463.0" stroke="black" stroke-width="1" fill="none" />
<polyline points="126.0,436.0,125.0,428.0,125.0,420.0,125.0,412.0,124.0,404.0,126.0,396.0,126.0,388.0,126.0,380.0,122.0,379.0" stroke="black" stroke-width="1" fill="none" />
<polyline points="123.0,357.0,115.0,346.0" stroke="black" stroke-width="1" fill="none" />
<polyline points="114.0,355.0,110.0,347.0,110.0,339.0,112.0,338.0,104.0,335.0" stroke="black" stroke-width="1" fill="none" />
<polyline points="104.0,325.0,105.0,333.0,104.0,341.0,100.0,351.0,107.0,357.0,108.0,351.0,118.0,359.0" stroke="black" stroke-width="1" fill="none" />
<polyline points="95.0,364.0,87.0,364.0" stroke="black" stroke-width="1" fill="none" />
<polyline points="85.0,354.0,93.0,357.0,101.0,362.0,109.0,365.0" stroke="black" stroke-width="1" fill="none" />
<polyline points="96.0,363.0,87.0,355.0,82.0,351.0" stroke="black" stroke-width="1" fill="none" />
<polyline points="87.0,364.0,78.0,358.0,75.0,351.0,76.0,343.0,74.0,335.0,65.0,339.0" stroke="black" stroke-width="1" fill="none" />
<polyline points="58.0,336.0,59.0,348.0,67.0,364.0,75.0,380.0,83.0,390.0,94.0,400.0,102.0,405.0,110.0,410.0,118.0,407.0" stroke="black" stroke-width="1" fill="none" />
<polyline points="121.0,411.0,122.0,419.0,122.0,427.0,123.0,435.0,125.0,443.0,126.0,451.0,129.0,459.0,132.0,467.0,136.0,475.0,142.0,483.0" stroke="black" stroke-width="1" fill="none" />
<polyline points="129.0,407.0,116.0,412.0,108.0,414.0,100.0,414.0,92.0,414.0,90.0,417.0,90.0,409.0,85.0,408.0" stroke="black" stroke-width="1" fill="none" />
<polyline points="123.0,370.0,115.0,382.0,112.0,386.0,119.0,378.0,123.0,370.0,124.0,360.0,118.0,352.0,114.0,344.0,114.0,336.0,114.0,328.0,111.0,331.0,107.0,323.0,103.0,314.0,96.0,309.0,88.0,299.0,80.0,291.0,72.0,288.0,64.0,287.0" stroke="black" stroke-width="1" fill="none" />
<polyline points="73.0,289.0,86.0,297.0,85.0,302.0,90.0,304.0" stroke="black" stroke-width="1" fill="none" />
<polyline points="101.0,321.0,102.0,329.0,101.0,337.0,97.0,347.0,102.0,355.0,98.0,368.0,101.0,366.0" stroke="black" stroke-width="1" fill="none" />
<polyline points="125.0,354.0,123.0,346.0,129.0,338.0,128.0,330.0,124.0,329.0,125.0,321.0,127.0,313.0,120.0,305.0,118.0,298.0,113.0,290.0,103.0,282.0,95.0,280.0,87.0,275.0,79.0,273.0,71.0,272.0,63.0,263.0" stroke="black" stroke-width="1" fill="none" />
<polyline points="74.0,286.0,87.0,294.0,94.0,302.0,93.0,305.0,99.0,313.0,90.0,321.0,95.0,319.0,98.0,321.0" stroke="black" stroke-width="1" fill="none" />
<polyline points="105.0,318.0,97.0,305.0,89.0,295.0,81.0,288.0,73.0,285.0,65.0,283.0,58.0,280.0,50.0,294.0" stroke="black" stroke-width="1" fill="none" />
<polyline points="61.0,300.0,59.0,308.0,59.0,316.0,61.0,324.0" stroke="black" stroke-width="1" fill="none" />
<polyline points="53.0,314.0,54.0,322.0,56.0,330.0,59.0,339.0,62.0,347.0,71.0,354.0,74.0,359.0,79.0,358.0,83.0,369.0,91.0,377.0" stroke="black" stroke-width="1" fill="none" />
<polyline points="97.0,404.0,88.0,396.0,92.0,384.0,88.0,376.0,81.0,368.0,74.0,360.0,70.0,352.0,68.0,344.0,68.0,336.0,65.0,328.0,63.0,320.0,62.0,312.0,61.0,304.0" stroke="black" stroke-width="1" fill="none" />
<polyline points="86.0,275.0,96.0,283.0,103.0,286.0,113.0,288.0" stroke="black" stroke-width="1" fill="none" />
<polyline points="118.0,79.0,110.0,85.0,111.0,84.0,120.0,76.0,127.0,67.0,124.0,71.0" stroke="black" stroke-width="1" fill="none" />
<polyline points="129.0,63.0,137.0,64.0,141.0,54.0" stroke="black" stroke-width="1" fill="none" />
<polyline points="159.0,48.0,167.0,45.0" stroke="black" stroke-width="1" fill="none" />
<polyline points="159.0,42.0,167.0,40.0,175.0,39.0,183.0,40.0" stroke="black" stroke-width="1" fill="none" />
<polyline points="187.0,26.0,195.0,30.0,204.0,25.0" stroke="black" stroke-width="1" fill="none" />
<polyline points="209.0,28.0,201.0,31.0" stroke="black" stroke-width="1" fill="none" />
<polyline points="193.0,23.0,201.0,19.0,209.0,16.0,217.0,15.0,225.0,15.0,233.0,14.0,241.0,14.0,249.0,16.0,257.0,12.0,265.0,14.0,273.0,14.0,281.0,14.0,289.0,14.0,297.0,13.0,305.0,13.0,313.0,11.0,321.0,13.0" stroke="black" stroke-width="1" fill="none" />
<polyline points="291.0,17.0,280.0,21.0,268.0,29.0,260.0,27.0,252.0,25.0" stroke="black" stroke-width="1" fill="none" />
<polyline points="238.0,92.0,230.0,89.0,223.0,83.0,215.0,84.0" stroke="black" stroke-width="1" fill="none" />
<polyline points="213.0,94.0,205.0,100.0,197.0,106.0,202.0,102.0,211.0,94.0" stroke="black" stroke-width="1" fill="none" />
<polyline points="254.0,98.0,248.0,106.0,255.0,98.0,263.0,100.0,271.0,100.0,279.0,100.0,286.0,107.0,294.0,106.0,302.0,111.0,310.0,111.0" stroke="black" stroke-width="1" fill="none" />
</svg>