<svg xmlns="http://www.w3.org/2000/svg" height="236px" width="392px" version="1.1"><polyline points="96.0,30.0,90.0,42.0,90.0,54.0,88.5,66.0,88.5,78.0,96.0,81.0,108.0,79.5,120.0,79.5,132.0,79.5,144.0,79.5,156.0,81.0,168.0,82.5,180.0,87.0,192.0,93.0,204.0,99.0,216.0,100.5,228.0,99.0,240.0,100.5" stroke="black" stroke-width="1" fill="none" />
<polyline points="219.0,108.0,231.0,109.5,243.0,109.5,255.0,111.0,267.0,109.5,279.0,108.0,291.0,105.0" stroke="black" stroke-width="1" fill="none" />
<polyline points="291.0,84.0,279.0,79.5,271.5,69.0,259.5,67.5" stroke="black" stroke-width="1" fill="none" />
<polyline points="259.5,73.5,271.5,75.0,283.5,75.0,295.5,75.0" stroke="black" stroke-width="1" fill="none" />
<polyline points="297.0,64.5,285.0,55.5,273.0,42.0,261.0,33.0,249.0,31.5,237.0,31.5,225.0,31.5,213.0,31.5,201.0,31.5,189.0,31.5,177.0,31.5,165.0,31.5,153.0,33.0,141.0,33.0,129.0,33.0,117.0,34.5,105.0,34.5,93.0,34.5,75.0,36.0,63.0,42.0" stroke="black" stroke-width="1" fill="none" />
<polyline points="63.0,64.5,75.0,76.5" stroke="black" stroke-width="1" fill="none" />
<polyline points="66.0,84.0,54.0,81.0,42.0,78.0" stroke="black" stroke-width="1" fill="none" />
<polyline points="39.0,78.0,51.0,75.0,63.0,76.5" stroke="black" stroke-width="1" fill="none" />
<polyline points="67.5,90.0,81.0,75.0,82.5,63.0,82.5,51.0,79.5,39.0,60.0,49.5,48.0,64.5,36.0,66.0,24.0,69.0,12.0,87.0" stroke="black" stroke-width="1" fill="none" />
<polyline points="12.0,102.0,16.5,112.5,19.5,124.5,22.5,136.5,25.5,148.5,28.5,160.5,31.5,172.5" stroke="black" stroke-width="1" fill="none" />
<polyline points="37.5,166.5,51.0,178.5" stroke="black" stroke-width="1" fill="none" />
<polyline points="61.5,181.5,49.5,177.0,37.5,166.5" stroke="black" stroke-width="1" fill="none" />
<polyline points="31.5,159.0,43.5,162.0,55.5,166.5,75.0,178.5,87.0,162.0,99.0,166.5" stroke="black" stroke-width="1" fill="none" />
<polyline points="93.0,180.0,96.0,195.0,96.0,207.0" stroke="black" stroke-width="1" fill="none" />
<polyline points="94.5,210.0,82.5,198.0" stroke="black" stroke-width="1" fill="none" />
<polyline points="79.5,193.5,91.5,187.5,109.5,189.0,111.0,201.0,112.5,207.0" stroke="black" stroke-width="1" fill="none" />
<polyline points="120.0,187.5,132.0,189.0,144.0,189.0,156.0,189.0,168.0,189.0" stroke="black" stroke-width="1" fill="none" />
<polyline points="174.0,174.0,186.0,169.5,198.0,169.5,210.0,169.5,222.0,169.5,234.0,169.5,246.0,169.5,258.0,169.5,270.0,169.5,282.0,168.0,294.0,166.5,306.0,166.5,318.0,165.0,330.0,163.5,336.0,165.0,342.0,177.0" stroke="black" stroke-width="1" fill="none" />
<polyline points="363.0,186.0,375.0,184.5,378.0,175.5" stroke="black" stroke-width="1" fill="none" />
<polyline points="370.5,172.5,358.5,174.0,367.5,174.0,375.0,162.0,373.5,154.5,361.5,151.5" stroke="black" stroke-width="1" fill="none" />
<polyline points="361.5,157.5,361.5,169.5,357.0,160.5,369.0,162.0" stroke="black" stroke-width="1" fill="none" />
<polyline points="376.5,192.0,364.5,195.0,352.5,196.5,340.5,193.5,328.5,193.5,316.5,193.5,304.5,195.0,292.5,196.5,280.5,196.5,268.5,196.5,256.5,198.0,244.5,198.0,232.5,198.0,220.5,198.0,208.5,198.0,196.5,196.5,184.5,196.5,172.5,196.5,160.5,195.0,148.5,195.0,136.5,195.0,124.5,195.0,117.0,202.5,114.0,214.5,102.0,217.5,90.0,216.0,78.0,204.0,63.0,193.5,61.5,189.0,54.0,190.5,66.0,178.5,66.0,166.5,69.0,154.5,73.5,142.5,76.5,130.5,78.0,118.5,64.5,120.0" stroke="black" stroke-width="1" fill="none" />
<polyline points="76.5,123.0,88.5,115.5,102.0,135.0" stroke="black" stroke-width="1" fill="none" />
<polyline points="85.5,144.0,85.5,156.0,79.5,171.0,76.5,159.0,87.0,144.0,99.0,157.5" stroke="black" stroke-width="1" fill="none" />
<polyline points="103.5,168.0,91.5,180.0,79.5,181.5" stroke="black" stroke-width="1" fill="none" />
<polyline points="88.5,187.5,81.0,199.5,94.5,211.5" stroke="black" stroke-width="1" fill="none" />
<polyline points="79.5,207.0,73.5,195.0,72.0,183.0,72.0,171.0,76.5,159.0,78.0,147.0,70.5,147.0" stroke="black" stroke-width="1" fill="none" />
<polyline points="82.5,127.5,93.0,121.5,97.5,133.5,100.5,147.0,90.0,150.0,102.0,157.5,102.0,169.5,106.5,180.0,102.0,192.0,103.5,204.0,115.5,213.0,133.5,205.5,145.5,205.5,157.5,205.5,169.5,202.5,181.5,201.0" stroke="black" stroke-width="1" fill="none" />
<polyline points="181.5,169.5,172.5,181.5,175.5,189.0,187.5,190.5,199.5,190.5,211.5,190.5,223.5,190.5,235.5,190.5,247.5,190.5,259.5,190.5,271.5,189.0,283.5,189.0,295.5,187.5,307.5,186.0,319.5,184.5,331.5,184.5,343.5,180.0" stroke="black" stroke-width="1" fill="none" />
<polyline points="364.5,126.0,367.5,114.0,363.0,108.0,351.0,109.5,339.0,108.0" stroke="black" stroke-width="1" fill="none" />
<polyline points="348.0,115.5,354.0,112.5" stroke="black" stroke-width="1" fill="none" />
<polyline points="346.5,124.5,334.5,127.5,328.5,129.0,336.0,117.0,334.5,112.5,322.5,112.5,310.5,114.0,298.5,115.5,286.5,115.5,274.5,117.0,262.5,118.5,250.5,118.5,238.5,118.5,226.5,118.5,214.5,118.5,202.5,118.5,190.5,117.0,178.5,118.5,166.5,117.0,154.5,115.5,142.5,118.5" stroke="black" stroke-width="1" fill="none" />
<polyline points="132.0,117.0,136.5,129.0,136.5,136.5,148.5,139.5,160.5,139.5,172.5,141.0,184.5,141.0,196.5,141.0,208.5,142.5,220.5,142.5,232.5,144.0,244.5,144.0,256.5,144.0,268.5,145.5,280.5,144.0,292.5,142.5,304.5,139.5,316.5,138.0,328.5,136.5,340.5,135.0,352.5,133.5,364.5,123.0" stroke="black" stroke-width="1" fill="none" />
<polyline points="376.5,129.0,378.0,135.0,379.5,147.0,379.5,159.0,379.5,171.0,379.5,180.0,376.5,192.0" stroke="black" stroke-width="1" fill="none" />
<polyline points="382.5,198.0,376.5,205.5,385.5,193.5,388.5,181.5,390.0,169.5,390.0,157.5,387.0,145.5,381.0,133.5,370.5,135.0,358.5,139.5,346.5,141.0,334.5,142.5,322.5,145.5,310.5,147.0,298.5,147.0,286.5,150.0,274.5,150.0,262.5,151.5,250.5,151.5,238.5,150.0,226.5,150.0,214.5,150.0,202.5,148.5,190.5,148.5,178.5,148.5,166.5,147.0,154.5,147.0,142.5,145.5,138.0,138.0,127.5,126.0,138.0,118.5,126.0,120.0" stroke="black" stroke-width="1" fill="none" />
<polyline points="136.5,127.5,148.5,132.0" stroke="black" stroke-width="1" fill="none" />
<polyline points="165.0,121.5,156.0,133.5,157.5,132.0,174.0,130.5" stroke="black" stroke-width="1" fill="none" />
<polyline points="190.5,132.0,202.5,133.5" stroke="black" stroke-width="1" fill="none" />
<polyline points="216.0,108.0,228.0,105.0,240.0,105.0,252.0,103.5,264.0,105.0,276.0,103.5,288.0,102.0" stroke="black" stroke-width="1" fill="none" />
<polyline points="289.5,97.5,277.5,99.0,265.5,99.0,253.5,90.0,241.5,79.5,229.5,73.5,217.5,69.0,205.5,69.0" stroke="black" stroke-width="1" fill="none" />
<polyline points="211.5,73.5,223.5,78.0,235.5,85.5" stroke="black" stroke-width="1" fill="none" />
<polyline points="237.0,88.5,219.0,76.5" stroke="black" stroke-width="1" fill="none" />
<polyline points="220.5,70.5,244.5,82.5,256.5,94.5" stroke="black" stroke-width="1" fill="none" />
<polyline points="283.5,81.0,297.0,93.0" stroke="black" stroke-width="1" fill="none" />
<polyline points="319.5,63.0,310.5,75.0,321.0,78.0,333.0,79.5,345.0,81.0,357.0,85.5" stroke="black" stroke-width="1" fill="none" />
<polyline points="348.0,82.5,364.5,94.5,364.5,106.5,358.5,118.5" stroke="black" stroke-width="1" fill="none" />
<polyline points="388.5,54.0,376.5,54.0,364.5,55.5,352.5,55.5,340.5,55.5,328.5,55.5,316.5,57.0,304.5,57.0,292.5,55.5,280.5,43.5" stroke="black" stroke-width="1" fill="none" />
<polyline points="280.5,40.5,292.5,42.0,304.5,39.0,316.5,40.5" stroke="black" stroke-width="1" fill="none" />
<polyline points="301.5,37.5,280.5,45.0,294.0,57.0" stroke="black" stroke-width="1" fill="none" />
<polyline points="316.5,64.5,298.5,69.0,285.0,57.0,274.5,45.0,259.5,33.0" stroke="black" stroke-width="1" fill="none" />
<polyline points="345.0,40.5,337.5,45.0,349.5,42.0" stroke="black" stroke-width="1" fill="none" />
<polyline points="385.5,36.0,366.0,48.0,378.0,39.0,390.0,39.0" stroke="black" stroke-width="1" fill="none" />
<polyline points="273.0,132.0,261.0,136.5,249.0,132.0" stroke="black" stroke-width="1" fill="none" />
<polyline points="246.0,132.0,258.0,126.0,270.0,126.0" stroke="black" stroke-width="1" fill="none" />
<polyline points="193.5,94.5,165.0,82.5" stroke="black" stroke-width="1" fill="none" />
<polyline points="138.0,159.0,127.5,171.0,133.5,183.0,138.0,184.5,150.0,178.5" stroke="black" stroke-width="1" fill="none" />
<polyline points="144.0,166.5,144.0,175.5,147.0,181.5,153.0,169.5,151.5,163.5,139.5,159.0,127.5,168.0" stroke="black" stroke-width="1" fill="none" />
<polyline points="63.0,163.5,51.0,156.0,39.0,148.5" stroke="black" stroke-width="1" fill="none" />
<polyline points="39.0,148.5,55.5,160.5" stroke="black" stroke-width="1" fill="none" />
<polyline points="10.5,177.0,13.5,174.0,12.0,186.0" stroke="black" stroke-width="1" fill="none" />
<polyline points="16.5,135.0,9.0,124.5" stroke="black" stroke-width="1" fill="none" />
<polyline points="22.5,69.0,15.0,81.0,10.5,93.0,12.0,105.0,7.5,117.0,13.5,126.0,12.0,138.0,18.0,147.0,10.5,163.5,21.0,168.0,21.0,180.0,16.5,192.0,12.0,196.5,19.5,202.5,31.5,204.0,43.5,204.0,55.5,205.5,67.5,210.0,79.5,219.0,91.5,229.5,103.5,231.0,115.5,231.0,127.5,232.5,139.5,234.0,151.5,235.5,163.5,235.5,175.5,235.5,187.5,235.5,199.5,235.5,211.5,234.0,223.5,234.0,235.5,234.0,247.5,234.0,259.5,232.5,271.5,234.0,283.5,232.5,295.5,232.5,307.5,231.0,319.5,231.0,331.5,231.0,343.5,229.5,355.5,229.5,367.5,228.0,379.5,228.0,391.5,226.5" stroke="black" stroke-width="1" fill="none" />
<polyline points="79.5,220.5,63.0,208.5" stroke="black" stroke-width="1" fill="none" />
<polyline points="70.5,70.5,58.5,63.0,55.5,54.0,63.0,42.0,48.0,39.0,36.0,37.5,24.0,39.0,12.0,39.0,0.0,39.0" stroke="black" stroke-width="1" fill="none" />
</svg>