<svg xmlns="http://www.w3.org/2000/svg" height="802px" width="504px" version="1.1"><polyline points="184.0,62.0,184.0,70.0,184.0,78.0,184.0,85.0,184.0,93.0,184.0,101.0,179.0,106.0,171.0,114.0,173.0,126.0,165.0,135.0,165.0,141.0,169.0,149.0,168.0,151.0,179.0,159.0,176.0,164.0,178.0,169.0,179.0,175.0,183.0,179.0,185.0,174.0,193.0,174.0,194.0,180.0,201.0,174.0,209.0,170.0,216.0,165.0,216.0,155.0" stroke="black" stroke-width="1" fill="none" />
<polyline points="212.0,166.0,207.0,171.0,212.0,163.0,215.0,163.0,222.0,155.0,215.0,154.0,217.0,153.0,222.0,140.0,224.0,139.0,223.0,131.0,220.0,123.0,216.0,123.0,213.0,119.0,205.0,121.0,203.0,123.0" stroke="black" stroke-width="1" fill="none" />
<polyline points="196.0,125.0,204.0,127.0,210.0,127.0,200.0,122.0,201.0,130.0" stroke="black" stroke-width="1" fill="none" />
<polyline points="196.0,134.0,198.0,129.0,194.0,124.0,199.0,116.0,205.0,112.0,197.0,117.0" stroke="black" stroke-width="1" fill="none" />
<polyline points="193.0,127.0,194.0,135.0" stroke="black" stroke-width="1" fill="none" />
<polyline points="188.0,130.0,196.0,121.0,203.0,130.0" stroke="black" stroke-width="1" fill="none" />
<polyline points="219.0,129.0,220.0,137.0,221.0,145.0,220.0,153.0" stroke="black" stroke-width="1" fill="none" />
<polyline points="195.0,172.0,190.0,169.0,182.0,161.0,178.0,153.0,170.0,142.0,162.0,138.0" stroke="black" stroke-width="1" fill="none" />
<polyline points="155.0,137.0,163.0,135.0,171.0,130.0" stroke="black" stroke-width="1" fill="none" />
<polyline points="167.0,130.0,163.0,129.0,155.0,131.0,147.0,132.0" stroke="black" stroke-width="1" fill="none" />
<polyline points="148.0,131.0,156.0,125.0" stroke="black" stroke-width="1" fill="none" />
<polyline points="147.0,130.0,155.0,123.0,148.0,129.0,149.0,137.0,156.0,147.0,154.0,147.0,163.0,154.0,167.0,161.0,166.0,163.0,169.0,162.0,170.0,168.0,171.0,173.0,179.0,178.0,187.0,180.0" stroke="black" stroke-width="1" fill="none" />
<polyline points="190.0,169.0,189.0,160.0,184.0,168.0,176.0,163.0,174.0,151.0,166.0,143.0,162.0,149.0,154.0,150.0,150.0,143.0,145.0,146.0,137.0,148.0" stroke="black" stroke-width="1" fill="none" />
<polyline points="140.0,148.0,138.0,147.0,139.0,155.0,141.0,170.0,149.0,179.0,157.0,184.0,165.0,187.0,173.0,189.0,181.0,189.0,189.0,188.0,197.0,184.0,205.0,180.0,213.0,175.0,221.0,168.0" stroke="black" stroke-width="1" fill="none" />
<polyline points="214.0,146.0,212.0,144.0,216.0,136.0,218.0,128.0,219.0,120.0,210.0,112.0,202.0,108.0,194.0,107.0,190.0,111.0,182.0,113.0,174.0,116.0,166.0,116.0,158.0,119.0,150.0,124.0,144.0,128.0,156.0,120.0,153.0,112.0,150.0,104.0,151.0,96.0,150.0,98.0" stroke="black" stroke-width="1" fill="none" />
<polyline points="156.0,98.0,156.0,106.0,157.0,114.0" stroke="black" stroke-width="1" fill="none" />
<polyline points="173.0,108.0,181.0,106.0" stroke="black" stroke-width="1" fill="none" />
<polyline points="180.0,113.0,175.0,121.0,168.0,129.0,155.0,134.0,154.0,141.0,151.0,150.0,155.0,152.0,158.0,156.0,161.0,164.0,167.0,168.0,171.0,176.0,176.0,184.0" stroke="black" stroke-width="1" fill="none" />
<polyline points="188.0,201.0,196.0,197.0,204.0,196.0,212.0,197.0,220.0,201.0" stroke="black" stroke-width="1" fill="none" />
<polyline points="217.0,202.0,209.0,199.0,201.0,199.0,193.0,201.0,185.0,206.0,198.0,199.0" stroke="black" stroke-width="1" fill="none" />
<polyline points="199.0,196.0,189.0,197.0,184.0,208.0,187.0,216.0,183.0,224.0,185.0,233.0,192.0,241.0,196.0,249.0,195.0,257.0,198.0,260.0,206.0,263.0,214.0,265.0,222.0,271.0" stroke="black" stroke-width="1" fill="none" />
<polyline points="213.0,277.0,205.0,276.0" stroke="black" stroke-width="1" fill="none" />
<polyline points="204.0,274.0,212.0,275.0,218.0,281.0" stroke="black" stroke-width="1" fill="none" />
<polyline points="223.0,268.0,215.0,263.0,207.0,260.0,205.0,258.0,200.0,257.0,201.0,254.0,188.0,250.0,186.0,242.0,185.0,237.0,174.0,229.0,169.0,226.0,161.0,225.0" stroke="black" stroke-width="1" fill="none" />
<polyline points="158.0,223.0,166.0,221.0,174.0,222.0,182.0,225.0,182.0,229.0,190.0,229.0,200.0,236.0,208.0,241.0,216.0,243.0,224.0,243.0,229.0,237.0,237.0,241.0,245.0,252.0,257.0,239.0,263.0,240.0,271.0,239.0,281.0,226.0,289.0,219.0" stroke="black" stroke-width="1" fill="none" />
<polyline points="293.0,220.0,285.0,225.0,277.0,233.0,271.0,235.0,275.0,237.0,281.0,229.0,282.0,225.0,294.0,217.0" stroke="black" stroke-width="1" fill="none" />
<polyline points="295.0,219.0,282.0,220.0,275.0,228.0,275.0,242.0,268.0,248.0,266.0,256.0,276.0,253.0,273.0,261.0,253.0,266.0,261.0,265.0,269.0,264.0,277.0,261.0,282.0,264.0,285.0,259.0,293.0,258.0,301.0,258.0" stroke="black" stroke-width="1" fill="none" />
<polyline points="308.0,256.0,323.0,264.0,326.0,272.0,329.0,280.0,329.0,288.0,330.0,294.0,325.0,302.0,317.0,310.0,315.0,311.0,323.0,305.0,328.0,290.0" stroke="black" stroke-width="1" fill="none" />
<polyline points="334.0,306.0,342.0,297.0,346.0,298.0,354.0,301.0,362.0,313.0" stroke="black" stroke-width="1" fill="none" />
<polyline points="372.0,307.0,378.0,305.0,380.0,313.0,386.0,322.0,386.0,333.0,380.0,341.0,374.0,349.0,366.0,357.0,355.0,365.0,347.0,365.0,342.0,362.0,349.0,369.0,357.0,363.0,365.0,358.0,373.0,350.0,381.0,340.0,393.0,337.0,401.0,332.0,397.0,340.0" stroke="black" stroke-width="1" fill="none" />
<polyline points="391.0,337.0,389.0,329.0" stroke="black" stroke-width="1" fill="none" />
<polyline points="396.0,328.0,397.0,336.0" stroke="black" stroke-width="1" fill="none" />
<polyline points="395.0,319.0,403.0,323.0,403.0,335.0,403.0,343.0,398.0,351.0,397.0,359.0,401.0,367.0,414.0,375.0,418.0,383.0,418.0,391.0,417.0,399.0,414.0,407.0,408.0,415.0,404.0,423.0,403.0,431.0,403.0,439.0,407.0,447.0,421.0,455.0,421.0,463.0,420.0,471.0,410.0,477.0,411.0,485.0,423.0,493.0,427.0,501.0" stroke="black" stroke-width="1" fill="none" />
<polyline points="440.0,509.0,445.0,520.0,447.0,528.0,444.0,536.0,442.0,543.0,446.0,534.0" stroke="black" stroke-width="1" fill="none" />
<polyline points="432.0,525.0,435.0,533.0,437.0,541.0,436.0,549.0,444.0,557.0,445.0,565.0,448.0,570.0,446.0,578.0,445.0,586.0,448.0,594.0,448.0,602.0,447.0,611.0,445.0,619.0" stroke="black" stroke-width="1" fill="none" />
<polyline points="446.0,587.0,438.0,582.0" stroke="black" stroke-width="1" fill="none" />
<polyline points="435.0,555.0,440.0,563.0,442.0,571.0,443.0,579.0,440.0,587.0,442.0,595.0,444.0,603.0,445.0,611.0,443.0,619.0" stroke="black" stroke-width="1" fill="none" />
<polyline points="382.0,611.0,374.0,621.0,364.0,629.0,356.0,639.0" stroke="black" stroke-width="1" fill="none" />
<polyline points="353.0,640.0,361.0,628.0,369.0,621.0,377.0,614.0" stroke="black" stroke-width="1" fill="none" />
<polyline points="381.0,579.0,385.0,587.0,386.0,595.0,386.0,603.0,382.0,611.0,376.0,619.0,366.0,626.0,359.0,634.0,355.0,642.0,354.0,650.0,354.0,658.0,357.0,666.0" stroke="black" stroke-width="1" fill="none" />
<polyline points="355.0,660.0,363.0,672.0,371.0,673.0" stroke="black" stroke-width="1" fill="none" />
<polyline points="373.0,678.0,365.0,677.0,356.0,668.0,352.0,660.0,352.0,652.0,352.0,644.0,355.0,636.0,361.0,628.0,370.0,620.0,378.0,612.0,383.0,604.0,384.0,596.0,382.0,588.0,379.0,580.0,386.0,571.0,392.0,563.0,395.0,555.0,397.0,547.0,397.0,539.0,392.0,541.0" stroke="black" stroke-width="1" fill="none" />
<polyline points="386.0,539.0,388.0,547.0,387.0,555.0,384.0,563.0,378.0,571.0,382.0,580.0,384.0,592.0" stroke="black" stroke-width="1" fill="none" />
<polyline points="398.0,568.0,399.0,573.0,407.0,565.0,417.0,553.0,420.0,545.0,420.0,537.0,419.0,529.0,418.0,531.0" stroke="black" stroke-width="1" fill="none" />
<polyline points="421.0,529.0,424.0,537.0,424.0,545.0,422.0,553.0,415.0,561.0,412.0,565.0,420.0,555.0" stroke="black" stroke-width="1" fill="none" />
<polyline points="424.0,554.0,416.0,564.0,419.0,561.0,425.0,553.0,430.0,545.0,432.0,537.0,429.0,524.0" stroke="black" stroke-width="1" fill="none" />
<polyline points="430.0,523.0,430.0,531.0,428.0,539.0" stroke="black" stroke-width="1" fill="none" />
<polyline points="431.0,554.0,423.0,562.0,419.0,565.0,427.0,558.0,435.0,554.0" stroke="black" stroke-width="1" fill="none" />
<polyline points="415.0,556.0,411.0,558.0,415.0,550.0,415.0,542.0,414.0,534.0,410.0,531.0" stroke="black" stroke-width="1" fill="none" />
<polyline points="405.0,529.0,404.0,537.0,407.0,537.0,410.0,537.0,411.0,545.0,410.0,553.0,406.0,561.0,400.0,569.0,403.0,570.0,411.0,558.0" stroke="black" stroke-width="1" fill="none" />
<polyline points="399.0,561.0,391.0,571.0,395.0,566.0,400.0,558.0,402.0,550.0,402.0,542.0,401.0,543.0" stroke="black" stroke-width="1" fill="none" />
<polyline points="405.0,541.0,407.0,549.0,406.0,557.0,400.0,565.0,397.0,573.0,403.0,566.0" stroke="black" stroke-width="1" fill="none" />
<polyline points="389.0,566.0,381.0,575.0,373.0,577.0,366.0,580.0,380.0,572.0,387.0,564.0,389.0,556.0,391.0,548.0,393.0,540.0,391.0,532.0,388.0,530.0" stroke="black" stroke-width="1" fill="none" />
<polyline points="383.0,539.0,383.0,541.0,384.0,549.0,382.0,557.0,379.0,565.0,374.0,575.0,382.0,566.0" stroke="black" stroke-width="1" fill="none" />
<polyline points="369.0,568.0,361.0,576.0,364.0,573.0,372.0,565.0,375.0,557.0,375.0,549.0,375.0,541.0,375.0,540.0" stroke="black" stroke-width="1" fill="none" />
<polyline points="379.0,539.0,379.0,547.0,379.0,555.0,378.0,563.0,372.0,571.0,361.0,579.0" stroke="black" stroke-width="1" fill="none" />
<polyline points="350.0,579.0,358.0,567.0" stroke="black" stroke-width="1" fill="none" />
<polyline points="379.0,565.0,371.0,572.0,363.0,578.0,355.0,581.0,358.0,578.0,355.0,572.0,360.0,564.0,362.0,556.0,363.0,548.0,363.0,540.0,371.0,537.0,363.0,539.0" stroke="black" stroke-width="1" fill="none" />
<polyline points="366.0,537.0,369.0,545.0,368.0,553.0,366.0,561.0,363.0,569.0,356.0,577.0,345.0,585.0,346.0,584.0,354.0,579.0,362.0,570.0" stroke="black" stroke-width="1" fill="none" />
<polyline points="353.0,560.0,351.0,558.0,353.0,547.0,353.0,539.0,353.0,537.0" stroke="black" stroke-width="1" fill="none" />
<polyline points="357.0,538.0,361.0,546.0,358.0,554.0,357.0,562.0,353.0,570.0,348.0,578.0,340.0,586.0,331.0,594.0,319.0,602.0,313.0,610.0,308.0,618.0,304.0,626.0,302.0,634.0,302.0,642.0,302.0,650.0,304.0,658.0,307.0,666.0,309.0,659.0,315.0,668.0,323.0,678.0,330.0,683.0,338.0,687.0,346.0,688.0" stroke="black" stroke-width="1" fill="none" />
<polyline points="359.0,674.0,351.0,667.0,343.0,653.0" stroke="black" stroke-width="1" fill="none" />
<polyline points="340.0,657.0,348.0,670.0,356.0,676.0,364.0,680.0,372.0,681.0" stroke="black" stroke-width="1" fill="none" />
<polyline points="360.0,679.0,348.0,671.0,342.0,663.0,339.0,655.0,338.0,647.0,339.0,639.0,343.0,631.0,339.0,637.0" stroke="black" stroke-width="1" fill="none" />
<polyline points="345.0,632.0,342.0,640.0,342.0,648.0,344.0,656.0,347.0,664.0,355.0,672.0" stroke="black" stroke-width="1" fill="none" />
<polyline points="355.0,681.0,347.0,679.0,339.0,673.0,331.0,659.0" stroke="black" stroke-width="1" fill="none" />
<polyline points="328.0,663.0,336.0,675.0,344.0,681.0,352.0,684.0" stroke="black" stroke-width="1" fill="none" />
<polyline points="341.0,680.0,332.0,672.0,328.0,664.0,326.0,656.0,326.0,648.0,328.0,640.0,327.0,643.0" stroke="black" stroke-width="1" fill="none" />
<polyline points="331.0,639.0,330.0,647.0,330.0,655.0,332.0,663.0,336.0,671.0,346.0,679.0" stroke="black" stroke-width="1" fill="none" />
<polyline points="346.0,685.0,338.0,681.0,330.0,674.0,322.0,660.0" stroke="black" stroke-width="1" fill="none" />
<polyline points="318.0,661.0,322.0,669.0" stroke="black" stroke-width="1" fill="none" />
<polyline points="340.0,683.0,330.0,675.0,324.0,667.0,321.0,659.0,320.0,651.0,320.0,643.0,322.0,635.0,326.0,627.0,330.0,622.0,322.0,635.0" stroke="black" stroke-width="1" fill="none" />
<polyline points="318.0,639.0,319.0,634.0,320.0,618.0,324.0,608.0,317.0,616.0,313.0,624.0,310.0,632.0,307.0,640.0,307.0,648.0,308.0,656.0" stroke="black" stroke-width="1" fill="none" />
<polyline points="310.0,641.0,310.0,649.0,311.0,657.0,321.0,667.0" stroke="black" stroke-width="1" fill="none" />
<polyline points="327.0,682.0,318.0,674.0,313.0,666.0,318.0,658.0,317.0,650.0,318.0,642.0,317.0,636.0,322.0,628.0,320.0,626.0,326.0,618.0,334.0,610.0,343.0,607.0,338.0,607.0,330.0,613.0,322.0,622.0,320.0,629.0" stroke="black" stroke-width="1" fill="none" />
<polyline points="307.0,640.0,315.0,620.0,323.0,609.0,329.0,608.0,321.0,616.0,318.0,624.0,315.0,632.0,315.0,640.0,314.0,648.0,316.0,656.0,317.0,664.0,321.0,672.0" stroke="black" stroke-width="1" fill="none" />
<polyline points="302.0,631.0,310.0,615.0,318.0,604.0,326.0,597.0,334.0,592.0,342.0,583.0,350.0,576.0" stroke="black" stroke-width="1" fill="none" />
<polyline points="337.0,578.0,329.0,583.0,321.0,591.0,324.0,591.0,333.0,583.0,331.0,575.0,323.0,583.0,315.0,591.0,320.0,592.0,328.0,584.0,335.0,581.0,327.0,589.0,319.0,595.0" stroke="black" stroke-width="1" fill="none" />
<polyline points="312.0,591.0,320.0,580.0,328.0,574.0,332.0,570.0,322.0,578.0,316.0,586.0,310.0,599.0,312.0,601.0" stroke="black" stroke-width="1" fill="none" />
<polyline points="332.0,615.0,340.0,609.0" stroke="black" stroke-width="1" fill="none" />
<polyline points="306.0,613.0,298.0,627.0" stroke="black" stroke-width="1" fill="none" />
<polyline points="291.0,607.0,289.0,605.0,284.0,612.0,284.0,610.0,288.0,602.0,291.0,599.0,283.0,607.0,278.0,611.0,284.0,597.0,290.0,589.0,285.0,596.0,281.0,603.0,288.0,595.0,291.0,587.0,287.0,589.0,279.0,597.0,271.0,602.0,263.0,607.0,255.0,610.0,247.0,616.0" stroke="black" stroke-width="1" fill="none" />
<polyline points="230.0,615.0,238.0,616.0,247.0,612.0,255.0,607.0,263.0,604.0,271.0,599.0,279.0,593.0" stroke="black" stroke-width="1" fill="none" />
<polyline points="296.0,565.0,304.0,553.0,312.0,548.0,310.0,548.0,301.0,556.0,297.0,564.0,295.0,572.0,296.0,580.0,298.0,588.0,292.0,594.0,285.0,602.0,275.0,610.0,276.0,609.0,284.0,603.0,284.0,600.0,292.0,590.0,299.0,589.0,307.0,575.0,315.0,567.0,323.0,563.0,331.0,562.0" stroke="black" stroke-width="1" fill="none" />
<polyline points="326.0,562.0,312.0,570.0,305.0,578.0,302.0,586.0,296.0,596.0,293.0,604.0,298.0,605.0,301.0,613.0,288.0,614.0,285.0,617.0,293.0,610.0,296.0,599.0" stroke="black" stroke-width="1" fill="none" />
<polyline points="306.0,571.0,301.0,579.0,307.0,582.0,315.0,572.0,323.0,566.0,331.0,565.0,336.0,562.0" stroke="black" stroke-width="1" fill="none" />
<polyline points="333.0,567.0,325.0,572.0,317.0,578.0,309.0,590.0,319.0,587.0,327.0,579.0,335.0,571.0" stroke="black" stroke-width="1" fill="none" />
<polyline points="347.0,557.0,349.0,549.0,349.0,541.0,339.0,543.0" stroke="black" stroke-width="1" fill="none" />
<polyline points="339.0,543.0,327.0,551.0,316.0,559.0,306.0,567.0,300.0,576.0,300.0,576.0,308.0,565.0,316.0,559.0,324.0,554.0,332.0,548.0" stroke="black" stroke-width="1" fill="none" />
<polyline points="339.0,545.0,337.0,553.0,333.0,561.0,319.0,573.0,315.0,581.0,310.0,589.0,307.0,597.0,307.0,605.0,306.0,613.0,301.0,621.0,298.0,629.0,297.0,637.0,297.0,645.0,298.0,653.0,301.0,661.0" stroke="black" stroke-width="1" fill="none" />
<polyline points="256.0,636.0,256.0,644.0,252.0,652.0,247.0,660.0,240.0,668.0,236.0,676.0,233.0,684.0,230.0,692.0,227.0,700.0,225.0,708.0,225.0,716.0" stroke="black" stroke-width="1" fill="none" />
<polyline points="223.0,712.0,224.0,704.0,226.0,696.0,229.0,688.0,232.0,680.0,235.0,672.0,239.0,664.0,239.0,656.0,237.0,648.0,245.0,646.0,244.0,640.0,238.0,630.0,242.0,621.0,244.0,619.0,248.0,611.0,264.0,603.0,277.0,595.0,285.0,587.0,284.0,579.0,282.0,571.0,282.0,563.0,282.0,555.0,282.0,547.0,287.0,544.0,286.0,536.0,294.0,528.0,307.0,522.0,320.0,520.0,325.0,512.0,328.0,504.0,328.0,496.0,331.0,488.0,330.0,486.0,331.0,475.0,339.0,467.0,343.0,459.0,346.0,451.0,349.0,443.0,348.0,435.0,344.0,427.0,344.0,426.0" stroke="black" stroke-width="1" fill="none" />
<polyline points="346.0,427.0,350.0,435.0,354.0,443.0,352.0,451.0,349.0,459.0,344.0,467.0,339.0,475.0,326.0,483.0,323.0,497.0,316.0,505.0,318.0,507.0,314.0,512.0,318.0,518.0,311.0,526.0,301.0,534.0,294.0,537.0,289.0,545.0,285.0,553.0,286.0,567.0,287.0,575.0,292.0,581.0,286.0,590.0,277.0,598.0,264.0,606.0,249.0,614.0,248.0,622.0,244.0,631.0,256.0,635.0,254.0,643.0,249.0,651.0,242.0,658.0,244.0,660.0,244.0,650.0,250.0,650.0" stroke="black" stroke-width="1" fill="none" />
<polyline points="248.0,658.0,240.0,668.0,232.0,685.0" stroke="black" stroke-width="1" fill="none" />
<polyline points="237.0,668.0,229.0,687.0,226.0,703.0" stroke="black" stroke-width="1" fill="none" />
<polyline points="218.0,663.0,221.0,661.0,225.0,654.0,231.0,641.0,231.0,633.0,227.0,632.0,219.0,630.0" stroke="black" stroke-width="1" fill="none" />
<polyline points="217.0,629.0,225.0,623.0,227.0,633.0,221.0,637.0" stroke="black" stroke-width="1" fill="none" />
<polyline points="215.0,641.0,213.0,636.0,207.0,635.0,193.0,623.0,185.0,612.0" stroke="black" stroke-width="1" fill="none" />
<polyline points="189.0,609.0,197.0,616.0,203.0,618.0,205.0,610.0" stroke="black" stroke-width="1" fill="none" />
<polyline points="206.0,600.0,215.0,608.0,224.0,616.0,224.0,624.0,217.0,632.0,213.0,640.0,220.0,641.0,217.0,650.0,218.0,654.0,207.0,659.0,213.0,662.0,217.0,670.0,214.0,672.0,216.0,662.0,224.0,670.0" stroke="black" stroke-width="1" fill="none" />
<polyline points="220.0,657.0,228.0,655.0" stroke="black" stroke-width="1" fill="none" />
<polyline points="215.0,656.0,223.0,650.0,231.0,654.0,232.0,661.0,228.0,669.0" stroke="black" stroke-width="1" fill="none" />
<polyline points="210.0,670.0,208.0,661.0" stroke="black" stroke-width="1" fill="none" />
<polyline points="208.0,652.0,216.0,651.0" stroke="black" stroke-width="1" fill="none" />
<polyline points="213.0,644.0,205.0,636.0" stroke="black" stroke-width="1" fill="none" />
<polyline points="205.0,634.0,208.0,642.0,209.0,655.0,212.0,661.0,213.0,669.0" stroke="black" stroke-width="1" fill="none" />
<polyline points="226.0,668.0,229.0,664.0,229.0,656.0,232.0,646.0,234.0,638.0,233.0,630.0,233.0,625.0,225.0,616.0,217.0,609.0,209.0,602.0,201.0,592.0" stroke="black" stroke-width="1" fill="none" />
<polyline points="201.0,592.0,199.0,600.0,197.0,608.0,199.0,611.0,202.0,608.0,210.0,611.0,218.0,618.0" stroke="black" stroke-width="1" fill="none" />
<polyline points="221.0,628.0,220.0,636.0,221.0,641.0,225.0,644.0,229.0,644.0,237.0,647.0,238.0,639.0,243.0,636.0,244.0,633.0" stroke="black" stroke-width="1" fill="none" />
<polyline points="240.0,626.0,234.0,620.0,233.0,612.0,228.0,613.0" stroke="black" stroke-width="1" fill="none" />
<polyline points="231.0,598.0,233.0,601.0,225.0,604.0,220.0,607.0,229.0,597.0,222.0,600.0,214.0,602.0" stroke="black" stroke-width="1" fill="none" />
<polyline points="212.0,599.0,208.0,594.0,208.0,592.0,216.0,593.0,225.0,597.0,233.0,592.0" stroke="black" stroke-width="1" fill="none" />
<polyline points="222.0,586.0,214.0,590.0,206.0,590.0" stroke="black" stroke-width="1" fill="none" />
<polyline points="205.0,588.0,210.0,596.0,216.0,604.0,226.0,607.0,228.0,607.0,229.0,611.0,237.0,610.0,235.0,613.0,239.0,626.0,244.0,629.0,249.0,622.0,249.0,631.0,251.0,632.0,239.0,634.0,248.0,637.0,251.0,639.0,250.0,645.0,243.0,653.0,244.0,647.0,248.0,649.0,249.0,643.0" stroke="black" stroke-width="1" fill="none" />
<polyline points="227.0,588.0,213.0,586.0,205.0,586.0" stroke="black" stroke-width="1" fill="none" />
<polyline points="204.0,584.0,212.0,584.0,220.0,583.0,228.0,582.0" stroke="black" stroke-width="1" fill="none" />
<polyline points="230.0,567.0,227.0,573.0,220.0,571.0,212.0,574.0,204.0,574.0,198.0,573.0,190.0,572.0" stroke="black" stroke-width="1" fill="none" />
<polyline points="182.0,577.0,181.0,585.0,178.0,593.0,171.0,601.0,169.0,611.0" stroke="black" stroke-width="1" fill="none" />
<polyline points="173.0,610.0,165.0,618.0,162.0,626.0,158.0,626.0,158.0,634.0" stroke="black" stroke-width="1" fill="none" />
<polyline points="157.0,636.0,155.0,628.0,157.0,620.0,167.0,613.0,175.0,605.0,184.0,602.0,190.0,594.0,192.0,587.0,184.0,598.0,176.0,608.0,168.0,615.0" stroke="black" stroke-width="1" fill="none" />
<polyline points="172.0,616.0,180.0,608.0,188.0,598.0,198.0,588.0,203.0,577.0,203.0,579.0,211.0,577.0" stroke="black" stroke-width="1" fill="none" />
<polyline points="200.0,589.0,196.0,597.0,193.0,605.0,193.0,610.0,195.0,615.0,205.0,617.0,204.0,621.0,202.0,623.0,210.0,624.0" stroke="black" stroke-width="1" fill="none" />
<polyline points="183.0,620.0,191.0,623.0,198.0,636.0,200.0,644.0,196.0,652.0,198.0,653.0" stroke="black" stroke-width="1" fill="none" />
<polyline points="197.0,650.0,200.0,651.0,202.0,643.0,202.0,635.0,200.0,627.0,196.0,619.0,190.0,611.0,189.0,603.0,194.0,595.0,196.0,592.0,188.0,606.0" stroke="black" stroke-width="1" fill="none" />
<polyline points="180.0,617.0,188.0,619.0,186.0,626.0,190.0,634.0,190.0,642.0,186.0,650.0" stroke="black" stroke-width="1" fill="none" />
<polyline points="181.0,649.0,183.0,641.0,184.0,636.0,180.0,634.0,178.0,626.0,180.0,625.0,179.0,622.0" stroke="black" stroke-width="1" fill="none" />
<polyline points="174.0,623.0,178.0,631.0,178.0,639.0,176.0,647.0" stroke="black" stroke-width="1" fill="none" />
<polyline points="191.0,643.0,184.0,647.0,192.0,645.0,192.0,636.0,195.0,628.0,192.0,627.0,188.0,619.0,174.0,616.0" stroke="black" stroke-width="1" fill="none" />
<polyline points="173.0,622.0,181.0,629.0" stroke="black" stroke-width="1" fill="none" />
<polyline points="181.0,640.0,175.0,633.0,167.0,622.0" stroke="black" stroke-width="1" fill="none" />
<polyline points="165.0,623.0,173.0,619.0,176.0,614.0,173.0,614.0,167.0,619.0,171.0,623.0,174.0,631.0,175.0,639.0,172.0,647.0" stroke="black" stroke-width="1" fill="none" />
<polyline points="170.0,635.0,170.0,627.0,164.0,627.0,156.0,622.0" stroke="black" stroke-width="1" fill="none" />
<polyline points="146.0,616.0,152.0,619.0,149.0,627.0,153.0,614.0,161.0,609.0,169.0,603.0,177.0,594.0" stroke="black" stroke-width="1" fill="none" />
<polyline points="165.0,599.0,157.0,606.0,169.0,600.0,175.0,592.0,179.0,584.0,180.0,576.0,180.0,576.0" stroke="black" stroke-width="1" fill="none" />
<polyline points="174.0,593.0,166.0,603.0,158.0,608.0" stroke="black" stroke-width="1" fill="none" />
<polyline points="167.0,596.0,159.0,601.0,164.0,592.0,169.0,584.0,172.0,576.0,168.0,579.0,160.0,590.0" stroke="black" stroke-width="1" fill="none" />
<polyline points="164.0,592.0,156.0,600.0,150.0,601.0,157.0,598.0,159.0,590.0,162.0,582.0,165.0,574.0,166.0,566.0,163.0,558.0,170.0,551.0,165.0,544.0,167.0,536.0,162.0,528.0,159.0,520.0,159.0,516.0,149.0,511.0,148.0,503.0" stroke="black" stroke-width="1" fill="none" />
<polyline points="148.0,497.0,156.0,508.0,164.0,517.0,165.0,523.0,166.0,528.0" stroke="black" stroke-width="1" fill="none" />
<polyline points="174.0,514.0,182.0,521.0" stroke="black" stroke-width="1" fill="none" />
<polyline points="177.0,519.0,175.0,511.0" stroke="black" stroke-width="1" fill="none" />
<polyline points="173.0,512.0,181.0,513.0,189.0,517.0,197.0,517.0,205.0,519.0,213.0,515.0,215.0,516.0" stroke="black" stroke-width="1" fill="none" />
<polyline points="216.0,499.0,208.0,500.0,200.0,506.0,196.0,504.0,200.0,498.0,194.0,494.0,205.0,488.0,204.0,485.0,206.0,478.0,224.0,472.0,222.0,464.0,214.0,462.0" stroke="black" stroke-width="1" fill="none" />
<polyline points="213.0,460.0,221.0,459.0,224.0,462.0,229.0,470.0,224.0,478.0" stroke="black" stroke-width="1" fill="none" />
<polyline points="231.0,466.0,239.0,475.0" stroke="black" stroke-width="1" fill="none" />
<polyline points="236.0,475.0,231.0,467.0,219.0,461.0" stroke="black" stroke-width="1" fill="none" />
<polyline points="222.0,473.0,214.0,474.0,206.0,478.0,198.0,482.0,190.0,480.0,188.0,482.0" stroke="black" stroke-width="1" fill="none" />
<polyline points="178.0,471.0,185.0,469.0,185.0,477.0,182.0,484.0,188.0,491.0,187.0,495.0,195.0,493.0,203.0,487.0" stroke="black" stroke-width="1" fill="none" />
<polyline points="190.0,489.0,182.0,483.0,174.0,472.0" stroke="black" stroke-width="1" fill="none" />
<polyline points="164.0,480.0,161.0,488.0" stroke="black" stroke-width="1" fill="none" />
<polyline points="172.0,489.0,172.0,485.0,175.0,477.0,171.0,489.0,171.0,502.0,184.0,507.0,187.0,522.0,195.0,523.0,203.0,522.0,211.0,519.0,216.0,512.0" stroke="black" stroke-width="1" fill="none" />
<polyline points="175.0,507.0,174.0,503.0" stroke="black" stroke-width="1" fill="none" />
<polyline points="166.0,505.0,174.0,506.0,182.0,509.0,190.0,512.0,198.0,512.0,206.0,510.0,214.0,507.0,222.0,505.0,230.0,504.0" stroke="black" stroke-width="1" fill="none" />
<polyline points="233.0,470.0,221.0,481.0,213.0,483.0,205.0,488.0,195.0,497.0,189.0,501.0,181.0,500.0,173.0,501.0,165.0,502.0" stroke="black" stroke-width="1" fill="none" />
<polyline points="145.0,495.0,146.0,506.0,149.0,518.0,157.0,530.0,159.0,545.0" stroke="black" stroke-width="1" fill="none" />
<polyline points="158.0,549.0,159.0,557.0,157.0,565.0,154.0,573.0,159.0,566.0" stroke="black" stroke-width="1" fill="none" />
<polyline points="160.0,561.0,158.0,569.0,156.0,581.0" stroke="black" stroke-width="1" fill="none" />
<polyline points="141.0,572.0,133.0,582.0,125.0,589.0,117.0,593.0" stroke="black" stroke-width="1" fill="none" />
<polyline points="108.0,605.0,105.0,613.0,103.0,621.0,102.0,629.0,103.0,637.0,107.0,645.0,116.0,653.0,129.0,661.0" stroke="black" stroke-width="1" fill="none" />
<polyline points="142.0,641.0,140.0,633.0,141.0,625.0,146.0,617.0,141.0,624.0" stroke="black" stroke-width="1" fill="none" />
<polyline points="138.0,626.0,146.0,613.0,142.0,618.0,138.0,626.0,138.0,634.0,140.0,642.0" stroke="black" stroke-width="1" fill="none" />
<polyline points="141.0,643.0,131.0,644.0,123.0,635.0,124.0,624.0,127.0,616.0,128.0,619.0" stroke="black" stroke-width="1" fill="none" />
<polyline points="124.0,623.0,132.0,614.0,135.0,613.0,131.0,621.0,129.0,629.0,129.0,637.0,131.0,645.0" stroke="black" stroke-width="1" fill="none" />
<polyline points="133.0,659.0,127.0,645.0,119.0,643.0,111.0,633.0,116.0,624.0,119.0,616.0,117.0,619.0" stroke="black" stroke-width="1" fill="none" />
<polyline points="113.0,623.0,121.0,610.0,118.0,613.0,114.0,621.0,113.0,629.0,110.0,633.0,117.0,641.0,124.0,649.0,131.0,657.0,135.0,665.0,137.0,673.0,135.0,681.0,129.0,689.0" stroke="black" stroke-width="1" fill="none" />
<polyline points="119.0,696.0,111.0,696.0" stroke="black" stroke-width="1" fill="none" />
<polyline points="108.0,694.0,116.0,694.0" stroke="black" stroke-width="1" fill="none" />
<polyline points="130.0,663.0,122.0,652.0,114.0,643.0,106.0,633.0" stroke="black" stroke-width="1" fill="none" />
<polyline points="104.0,638.0,112.0,649.0,120.0,654.0,128.0,667.0" stroke="black" stroke-width="1" fill="none" />
<polyline points="125.0,662.0,122.0,653.0,115.0,645.0,108.0,637.0,105.0,629.0,105.0,627.0" stroke="black" stroke-width="1" fill="none" />
<polyline points="101.0,613.0,107.0,604.0,102.0,612.0,100.0,620.0,99.0,628.0,100.0,636.0,103.0,644.0" stroke="black" stroke-width="1" fill="none" />
<polyline points="100.0,647.0,92.0,646.0,84.0,644.0" stroke="black" stroke-width="1" fill="none" />
<polyline points="92.0,615.0,100.0,601.0,108.0,594.0,110.0,592.0,101.0,600.0,96.0,608.0,92.0,616.0,90.0,624.0,91.0,632.0,93.0,640.0,97.0,648.0,107.0,653.0,120.0,661.0,129.0,669.0,131.0,677.0,128.0,685.0,123.0,691.0,131.0,686.0" stroke="black" stroke-width="1" fill="none" />
<polyline points="183.0,641.0,177.0,644.0,174.0,650.0,175.0,642.0,172.0,633.0,164.0,636.0,165.0,637.0,151.0,639.0,148.0,638.0,149.0,632.0,148.0,625.0,151.0,617.0,161.0,609.0,168.0,608.0,177.0,607.0,183.0,599.0,189.0,591.0,192.0,583.0,192.0,575.0,188.0,567.0,174.0,559.0,167.0,558.0,163.0,550.0,161.0,542.0,157.0,541.0,157.0,533.0,153.0,525.0,147.0,517.0,147.0,509.0,154.0,507.0,151.0,501.0,147.0,501.0,144.0,493.0,146.0,486.0,143.0,483.0,139.0,479.0,137.0,471.0,137.0,463.0,136.0,455.0,133.0,447.0,132.0,439.0,131.0,431.0,128.0,423.0,130.0,415.0,128.0,412.0,130.0,404.0,134.0,396.0,140.0,388.0,139.0,380.0,140.0,372.0,139.0,364.0,136.0,356.0,134.0,348.0,134.0,340.0,136.0,332.0,142.0,324.0,142.0,316.0,145.0,308.0,150.0,300.0,158.0,299.0,163.0,292.0,155.0,294.0" stroke="black" stroke-width="1" fill="none" />
<polyline points="154.0,292.0,162.0,290.0,170.0,290.0" stroke="black" stroke-width="1" fill="none" />
<polyline points="181.0,292.0,173.0,288.0,165.0,287.0,157.0,288.0" stroke="black" stroke-width="1" fill="none" />
<polyline points="156.0,286.0,164.0,285.0,172.0,285.0,180.0,287.0" stroke="black" stroke-width="1" fill="none" />
<polyline points="182.0,283.0,174.0,276.0,166.0,270.0" stroke="black" stroke-width="1" fill="none" />
<polyline points="166.0,268.0,177.0,276.0,188.0,283.0,196.0,289.0,204.0,293.0,212.0,293.0,220.0,292.0" stroke="black" stroke-width="1" fill="none" />
<polyline points="219.0,290.0,211.0,291.0,203.0,288.0,195.0,282.0,187.0,276.0,179.0,277.0,171.0,271.0,157.0,270.0,156.0,268.0,150.0,263.0,149.0,261.0,141.0,263.0,133.0,266.0,125.0,272.0,122.0,289.0,122.0,281.0,128.0,273.0,139.0,271.0,131.0,276.0" stroke="black" stroke-width="1" fill="none" />
<polyline points="133.0,277.0,135.0,272.0,126.0,280.0,124.0,278.0,132.0,270.0,140.0,266.0,148.0,267.0" stroke="black" stroke-width="1" fill="none" />
<polyline points="148.0,263.0,141.0,265.0,126.0,266.0,118.0,274.0,113.0,282.0,108.0,288.0,104.0,296.0,108.0,295.0,112.0,283.0,120.0,271.0,128.0,265.0,136.0,260.0,144.0,258.0,152.0,259.0" stroke="black" stroke-width="1" fill="none" />
<polyline points="154.0,255.0,146.0,254.0,138.0,254.0,130.0,256.0,118.0,261.0,115.0,270.0,117.0,262.0,134.0,254.0" stroke="black" stroke-width="1" fill="none" />
<polyline points="124.0,256.0,132.0,251.0,140.0,250.0,148.0,251.0,156.0,253.0,164.0,256.0,172.0,261.0,180.0,269.0,188.0,273.0,196.0,280.0,204.0,285.0,212.0,288.0,220.0,287.0,228.0,286.0,236.0,276.0,244.0,279.0,252.0,282.0,260.0,283.0,268.0,282.0,274.0,281.0,273.0,286.0,281.0,281.0,289.0,274.0,297.0,272.0,305.0,273.0,313.0,279.0" stroke="black" stroke-width="1" fill="none" />
<polyline points="307.0,277.0,299.0,275.0,291.0,276.0,283.0,283.0,273.0,282.0,265.0,287.0,257.0,287.0,249.0,285.0,241.0,284.0" stroke="black" stroke-width="1" fill="none" />
<polyline points="243.0,285.0,251.0,289.0,259.0,291.0,267.0,291.0,280.0,289.0" stroke="black" stroke-width="1" fill="none" />
<polyline points="283.0,296.0,287.0,304.0,289.0,309.0,285.0,311.0,293.0,314.0" stroke="black" stroke-width="1" fill="none" />
<polyline points="283.0,319.0,291.0,322.0,299.0,322.0,307.0,319.0" stroke="black" stroke-width="1" fill="none" />
<polyline points="299.0,335.0,301.0,330.0,309.0,330.0,317.0,337.0,316.0,340.0,315.0,348.0,317.0,356.0" stroke="black" stroke-width="1" fill="none" />
<polyline points="316.0,353.0,324.0,361.0,332.0,361.0,340.0,358.0,348.0,353.0,354.0,355.0,351.0,356.0" stroke="black" stroke-width="1" fill="none" />
<polyline points="362.0,373.0,363.0,374.0,366.0,382.0,365.0,390.0,362.0,398.0,359.0,406.0,365.0,417.0" stroke="black" stroke-width="1" fill="none" />
<polyline points="375.0,423.0,375.0,425.0,375.0,433.0,371.0,440.0,375.0,442.0,373.0,450.0,369.0,458.0,369.0,458.0" stroke="black" stroke-width="1" fill="none" />
<polyline points="385.0,450.0,381.0,450.0,385.0,442.0,387.0,434.0,384.0,432.0,386.0,424.0,385.0,425.0" stroke="black" stroke-width="1" fill="none" />
<polyline points="388.0,425.0,392.0,433.0,390.0,441.0,386.0,449.0" stroke="black" stroke-width="1" fill="none" />
<polyline points="403.0,439.0,411.0,448.0,419.0,450.0" stroke="black" stroke-width="1" fill="none" />
<polyline points="424.0,448.0,416.0,445.0,408.0,439.0" stroke="black" stroke-width="1" fill="none" />
<polyline points="404.0,421.0,412.0,410.0" stroke="black" stroke-width="1" fill="none" />
<polyline points="411.0,413.0,419.0,407.0" stroke="black" stroke-width="1" fill="none" />
<polyline points="398.0,422.0,398.0,423.0,397.0,431.0,400.0,431.0,396.0,436.0" stroke="black" stroke-width="1" fill="none" />
<polyline points="384.0,444.0,378.0,448.0,370.0,462.0,375.0,456.0,378.0,448.0,379.0,440.0,380.0,432.0,377.0,424.0" stroke="black" stroke-width="1" fill="none" />
<polyline points="362.0,432.0,366.0,432.0,367.0,440.0,367.0,448.0,363.0,456.0,358.0,464.0" stroke="black" stroke-width="1" fill="none" />
<polyline points="361.0,452.0,354.0,460.0,359.0,457.0,362.0,449.0,363.0,441.0,362.0,433.0,353.0,422.0" stroke="black" stroke-width="1" fill="none" />
<polyline points="352.0,420.0,355.0,422.0,358.0,430.0,359.0,438.0,359.0,447.0,356.0,455.0,354.0,454.0" stroke="black" stroke-width="1" fill="none" />
<polyline points="354.0,464.0,346.0,470.0" stroke="black" stroke-width="1" fill="none" />
<polyline points="338.0,468.0,330.0,476.0,322.0,480.0" stroke="black" stroke-width="1" fill="none" />
<polyline points="312.0,476.0,320.0,475.0,328.0,468.0,336.0,457.0" stroke="black" stroke-width="1" fill="none" />
<polyline points="334.0,457.0,336.0,449.0,335.0,437.0,327.0,428.0" stroke="black" stroke-width="1" fill="none" />
<polyline points="327.0,428.0,334.0,436.0,334.0,444.0,339.0,446.0,338.0,454.0,334.0,462.0,326.0,470.0,323.0,477.0,331.0,472.0,339.0,461.0,346.0,450.0" stroke="black" stroke-width="1" fill="none" />
<polyline points="353.0,439.0,345.0,429.0" stroke="black" stroke-width="1" fill="none" />
<polyline points="344.0,415.0,352.0,409.0,360.0,394.0" stroke="black" stroke-width="1" fill="none" />
<polyline points="375.0,395.0,373.0,398.0,377.0,390.0,380.0,382.0,380.0,374.0,375.0,371.0" stroke="black" stroke-width="1" fill="none" />
<polyline points="374.0,368.0,374.0,368.0,376.0,376.0,374.0,384.0,372.0,392.0,368.0,400.0" stroke="black" stroke-width="1" fill="none" />
<polyline points="380.0,391.0,383.0,383.0,385.0,375.0,385.0,367.0,385.0,364.0" stroke="black" stroke-width="1" fill="none" />
<polyline points="388.0,368.0,389.0,376.0,387.0,384.0" stroke="black" stroke-width="1" fill="none" />
<polyline points="400.0,366.0,408.0,370.0,416.0,376.0" stroke="black" stroke-width="1" fill="none" />
<polyline points="422.0,377.0,414.0,368.0,406.0,365.0,398.0,364.0" stroke="black" stroke-width="1" fill="none" />
<polyline points="398.0,361.0,406.0,352.0" stroke="black" stroke-width="1" fill="none" />
<polyline points="394.0,309.0,386.0,303.0" stroke="black" stroke-width="1" fill="none" />
<polyline points="387.0,301.0,389.0,309.0,390.0,317.0,394.0,327.0,394.0,335.0" stroke="black" stroke-width="1" fill="none" />
<polyline points="383.0,317.0,375.0,312.0,365.0,305.0,357.0,293.0,352.0,293.0" stroke="black" stroke-width="1" fill="none" />
<polyline points="353.0,295.0,361.0,302.0" stroke="black" stroke-width="1" fill="none" />
<polyline points="365.0,298.0,357.0,290.0" stroke="black" stroke-width="1" fill="none" />
<polyline points="351.0,296.0,359.0,304.0,367.0,314.0,371.0,315.0,373.0,323.0,374.0,331.0,373.0,339.0" stroke="black" stroke-width="1" fill="none" />
<polyline points="367.0,331.0,366.0,323.0,364.0,315.0,369.0,311.0,366.0,303.0,363.0,295.0,355.0,290.0,358.0,282.0,358.0,274.0,351.0,265.0,343.0,267.0,335.0,272.0" stroke="black" stroke-width="1" fill="none" />
<polyline points="339.0,270.0,343.0,278.0,344.0,286.0,347.0,295.0,350.0,302.0,358.0,310.0,361.0,319.0,364.0,327.0,365.0,335.0" stroke="black" stroke-width="1" fill="none" />
<polyline points="354.0,317.0,346.0,309.0,338.0,306.0" stroke="black" stroke-width="1" fill="none" />
<polyline points="340.0,304.0,349.0,312.0,356.0,320.0,353.0,323.0" stroke="black" stroke-width="1" fill="none" />
<polyline points="338.0,322.0,349.0,330.0,351.0,338.0,351.0,346.0,347.0,354.0,331.0,367.0,334.0,376.0,336.0,380.0,336.0,388.0,336.0,396.0,334.0,404.0,330.0,412.0,325.0,420.0,316.0,429.0,308.0,437.0,304.0,445.0,303.0,453.0,303.0,461.0,305.0,466.0,313.0,467.0,321.0,464.0" stroke="black" stroke-width="1" fill="none" />
<polyline points="326.0,465.0,318.0,472.0,310.0,477.0,318.0,472.0,327.0,464.0,331.0,456.0,331.0,448.0" stroke="black" stroke-width="1" fill="none" />
<polyline points="329.0,446.0,327.0,454.0,323.0,462.0" stroke="black" stroke-width="1" fill="none" />
<polyline points="340.0,477.0,343.0,485.0,333.0,486.0,338.0,488.0,341.0,496.0,343.0,504.0,342.0,512.0,338.0,520.0,331.0,528.0,322.0,536.0,304.0,544.0,296.0,552.0,292.0,560.0,284.0,566.0,284.0,574.0,290.0,579.0,301.0,579.0,311.0,566.0,323.0,557.0,331.0,551.0" stroke="black" stroke-width="1" fill="none" />
<polyline points="344.0,559.0,346.0,551.0,345.0,543.0" stroke="black" stroke-width="1" fill="none" />
<polyline points="336.0,526.0,344.0,514.0" stroke="black" stroke-width="1" fill="none" />
<polyline points="346.0,523.0,349.0,519.0,352.0,511.0,353.0,503.0,353.0,495.0,353.0,487.0,340.0,477.0" stroke="black" stroke-width="1" fill="none" />
<polyline points="346.0,487.0,349.0,495.0,350.0,503.0,349.0,511.0,346.0,519.0,340.0,527.0,341.0,525.0" stroke="black" stroke-width="1" fill="none" />
<polyline points="334.0,517.0,326.0,528.0,321.0,533.0,313.0,536.0,306.0,537.0,322.0,524.0,330.0,516.0,333.0,508.0,333.0,500.0,333.0,499.0" stroke="black" stroke-width="1" fill="none" />
<polyline points="330.0,499.0,335.0,492.0,330.0,500.0,330.0,508.0,326.0,516.0,314.0,528.0,301.0,540.0,292.0,548.0,284.0,554.0,292.0,548.0,300.0,541.0,305.0,534.0,311.0,534.0,319.0,531.0,320.0,526.0,328.0,518.0" stroke="black" stroke-width="1" fill="none" />
<polyline points="322.0,503.0,314.0,509.0" stroke="black" stroke-width="1" fill="none" />
<polyline points="320.0,520.0,312.0,530.0" stroke="black" stroke-width="1" fill="none" />
<polyline points="313.0,524.0,305.0,530.0,297.0,537.0,295.0,547.0" stroke="black" stroke-width="1" fill="none" />
<polyline points="290.0,554.0,298.0,549.0,306.0,543.0,314.0,539.0,322.0,536.0" stroke="black" stroke-width="1" fill="none" />
<polyline points="320.0,533.0,309.0,544.0,299.0,552.0,295.0,560.0,294.0,561.0,302.0,549.0,310.0,544.0" stroke="black" stroke-width="1" fill="none" />
<polyline points="285.0,538.0,293.0,529.0,301.0,518.0,310.0,507.0,306.0,515.0" stroke="black" stroke-width="1" fill="none" />
<polyline points="293.0,499.0,283.0,515.0,275.0,523.0,267.0,528.0,273.0,524.0,283.0,516.0,288.0,508.0,296.0,500.0,301.0,489.0,305.0,484.0,297.0,475.0" stroke="black" stroke-width="1" fill="none" />
<polyline points="298.0,472.0,306.0,479.0,314.0,483.0,322.0,484.0,330.0,483.0,338.0,476.0,346.0,464.0" stroke="black" stroke-width="1" fill="none" />
<polyline points="355.0,487.0,358.0,495.0,358.0,503.0,356.0,511.0,352.0,519.0,351.0,521.0" stroke="black" stroke-width="1" fill="none" />
<polyline points="371.0,512.0,372.0,515.0,377.0,507.0,380.0,499.0,381.0,491.0,383.0,483.0,380.0,482.0" stroke="black" stroke-width="1" fill="none" />
<polyline points="384.0,484.0,386.0,492.0,385.0,500.0,381.0,508.0,374.0,512.0" stroke="black" stroke-width="1" fill="none" />
<polyline points="387.0,500.0,389.0,497.0,391.0,489.0,391.0,481.0,391.0,480.0" stroke="black" stroke-width="1" fill="none" />
<polyline points="394.0,480.0,396.0,488.0,394.0,496.0,388.0,504.0" stroke="black" stroke-width="1" fill="none" />
<polyline points="368.0,511.0,364.0,517.0,369.0,509.0,371.0,501.0,371.0,493.0,371.0,485.0,367.0,486.0,353.0,486.0,341.0,491.0,336.0,486.0,327.0,491.0,317.0,497.0,315.0,506.0,315.0,511.0,310.0,512.0,306.0,517.0,299.0,525.0,294.0,520.0,286.0,527.0,282.0,538.0,274.0,543.0,266.0,548.0,254.0,554.0,256.0,553.0,259.0,542.0,270.0,536.0,277.0,525.0,285.0,518.0,292.0,510.0,292.0,500.0,298.0,492.0,301.0,484.0,297.0,476.0,293.0,468.0,293.0,460.0,292.0,452.0,294.0,444.0,299.0,436.0,305.0,428.0,311.0,420.0,316.0,412.0,319.0,404.0,318.0,396.0,317.0,388.0,313.0,380.0,305.0,372.0,297.0,361.0" stroke="black" stroke-width="1" fill="none" />
<polyline points="301.0,361.0,309.0,368.0,317.0,372.0,325.0,372.0,333.0,372.0,341.0,370.0,345.0,383.0,345.0,391.0,344.0,399.0,341.0,407.0,340.0,413.0" stroke="black" stroke-width="1" fill="none" />
<polyline points="341.0,405.0,343.0,414.0,349.0,406.0,353.0,398.0,355.0,390.0,354.0,382.0,355.0,374.0,354.0,378.0" stroke="black" stroke-width="1" fill="none" />
<polyline points="359.0,377.0,361.0,385.0,361.0,393.0,358.0,401.0,352.0,409.0,352.0,422.0,356.0,430.0,357.0,438.0,357.0,446.0,354.0,454.0,351.0,462.0,348.0,469.0,345.0,482.0,345.0,490.0,346.0,498.0,346.0,506.0,344.0,514.0,340.0,522.0,335.0,530.0,339.0,541.0,342.0,545.0,341.0,553.0,339.0,561.0,337.0,565.0,321.0,567.0,312.0,575.0,307.0,583.0,306.0,591.0,304.0,599.0,303.0,607.0,302.0,613.0" stroke="black" stroke-width="1" fill="none" />
<polyline points="273.0,554.0,261.0,553.0,253.0,557.0,245.0,562.0,251.0,558.0,267.0,550.0,270.0,540.0,262.0,542.0,256.0,549.0,248.0,552.0,246.0,557.0,238.0,562.0,233.0,558.0,225.0,570.0,223.0,575.0,218.0,575.0,226.0,569.0,229.0,564.0,236.0,556.0,238.0,550.0,251.0,542.0,247.0,547.0" stroke="black" stroke-width="1" fill="none" />
<polyline points="261.0,557.0,246.0,564.0,254.0,562.0,262.0,559.0,267.0,557.0" stroke="black" stroke-width="1" fill="none" />
<polyline points="265.0,545.0,245.0,553.0,240.0,560.0,235.0,561.0,229.0,572.0,229.0,581.0,227.0,588.0,217.0,591.0,220.0,596.0,225.0,587.0,229.0,591.0" stroke="black" stroke-width="1" fill="none" />
<polyline points="204.0,597.0,203.0,605.0,207.0,613.0,215.0,615.0" stroke="black" stroke-width="1" fill="none" />
<polyline points="170.0,606.0,162.0,612.0,157.0,607.0,160.0,600.0,165.0,587.0,168.0,579.0,170.0,571.0,156.0,581.0,160.0,573.0,162.0,565.0,164.0,564.0" stroke="black" stroke-width="1" fill="none" />
<polyline points="157.0,555.0,155.0,563.0,150.0,571.0" stroke="black" stroke-width="1" fill="none" />
<polyline points="134.0,564.0,121.0,579.0,120.0,571.0,121.0,562.0,122.0,554.0,121.0,546.0,118.0,539.0,110.0,533.0" stroke="black" stroke-width="1" fill="none" />
<polyline points="116.0,528.0,124.0,532.0" stroke="black" stroke-width="1" fill="none" />
<polyline points="123.0,532.0,127.0,540.0,129.0,548.0,129.0,556.0,127.0,564.0,123.0,572.0,112.0,578.0" stroke="black" stroke-width="1" fill="none" />
<polyline points="124.0,562.0,116.0,572.0,110.0,577.0,118.0,569.0,125.0,561.0,126.0,553.0,126.0,545.0,123.0,537.0,118.0,529.0,121.0,525.0,126.0,517.0,130.0,509.0,130.0,501.0,123.0,517.0,115.0,523.0" stroke="black" stroke-width="1" fill="none" />
<polyline points="124.0,526.0,132.0,536.0" stroke="black" stroke-width="1" fill="none" />
<polyline points="127.0,530.0,133.0,538.0,134.0,546.0,134.0,554.0,132.0,562.0,126.0,570.0,122.0,578.0,122.0,573.0,127.0,569.0" stroke="black" stroke-width="1" fill="none" />
<polyline points="141.0,567.0,144.0,561.0,143.0,569.0,146.0,561.0,148.0,553.0,148.0,545.0,148.0,537.0,140.0,536.0,130.0,528.0,122.0,525.0,114.0,529.0,111.0,525.0,107.0,523.0,107.0,520.0,112.0,514.0,118.0,510.0,120.0,503.0,113.0,501.0,105.0,509.0" stroke="black" stroke-width="1" fill="none" />
<polyline points="125.0,519.0,133.0,512.0" stroke="black" stroke-width="1" fill="none" />
<polyline points="129.0,520.0,137.0,525.0" stroke="black" stroke-width="1" fill="none" />
<polyline points="135.0,524.0,134.0,526.0" stroke="black" stroke-width="1" fill="none" />
<polyline points="133.0,523.0,137.0,531.0,145.0,533.0,146.0,541.0,145.0,549.0,142.0,557.0,137.0,565.0,139.0,574.0,136.0,582.0,129.0,590.0" stroke="black" stroke-width="1" fill="none" />
<polyline points="132.0,614.0,127.0,622.0,131.0,631.0,131.0,639.0" stroke="black" stroke-width="1" fill="none" />
<polyline points="122.0,659.0,118.0,656.0,110.0,653.0,107.0,649.0,99.0,646.0,96.0,638.0,94.0,630.0,95.0,622.0,97.0,614.0,101.0,606.0,108.0,598.0,112.0,594.0,104.0,602.0,96.0,615.0" stroke="black" stroke-width="1" fill="none" />
<polyline points="83.0,609.0,72.0,608.0,64.0,601.0,56.0,588.0" stroke="black" stroke-width="1" fill="none" />
<polyline points="54.0,590.0,62.0,602.0,70.0,610.0" stroke="black" stroke-width="1" fill="none" />
<polyline points="74.0,613.0,64.0,605.0,57.0,597.0,53.0,589.0,53.0,581.0,54.0,573.0,55.0,565.0,57.0,557.0,64.0,549.0,76.0,541.0,83.0,533.0,79.0,525.0,70.0,517.0,66.0,509.0,64.0,501.0,64.0,493.0,65.0,485.0,68.0,477.0,68.0,472.0,58.0,464.0,54.0,456.0,52.0,448.0,52.0,440.0,54.0,432.0,57.0,424.0,64.0,416.0,76.0,408.0,82.0,400.0,76.0,390.0,71.0,382.0,67.0,374.0,65.0,366.0,68.0,358.0,69.0,350.0,68.0,342.0,70.0,334.0,75.0,326.0,77.0,314.0,77.0,306.0,79.0,298.0,81.0,290.0,90.0,282.0,89.0,280.0,81.0,285.0,73.0,298.0" stroke="black" stroke-width="1" fill="none" />
<polyline points="80.0,304.0,88.0,294.0,81.0,301.0,80.0,309.0,74.0,321.0,82.0,329.0,90.0,336.0,98.0,347.0" stroke="black" stroke-width="1" fill="none" />
<polyline points="96.0,355.0,90.0,353.0,82.0,351.0,75.0,350.0,67.0,346.0,65.0,346.0,66.0,338.0,69.0,330.0,74.0,322.0,72.0,314.0,72.0,306.0,73.0,298.0,77.0,290.0,85.0,282.0,96.0,274.0,96.0,266.0,98.0,258.0,106.0,250.0,107.0,243.0,115.0,236.0,122.0,233.0,129.0,224.0,134.0,216.0,141.0,208.0,151.0,206.0" stroke="black" stroke-width="1" fill="none" />
<polyline points="145.0,213.0,136.0,221.0,132.0,229.0,137.0,227.0,145.0,228.0,153.0,228.0,161.0,231.0,169.0,232.0,177.0,235.0,185.0,240.0,193.0,252.0,203.0,251.0,211.0,254.0,219.0,250.0,220.0,254.0,221.0,248.0,229.0,250.0,237.0,256.0" stroke="black" stroke-width="1" fill="none" />
<polyline points="236.0,263.0,228.0,256.0" stroke="black" stroke-width="1" fill="none" />
<polyline points="228.0,250.0,229.0,257.0,238.0,270.0,243.0,269.0,251.0,260.0" stroke="black" stroke-width="1" fill="none" />
<polyline points="253.0,268.0,261.0,268.0,269.0,266.0" stroke="black" stroke-width="1" fill="none" />
<polyline points="287.0,261.0,295.0,261.0,303.0,261.0,311.0,262.0,319.0,266.0,322.0,276.0,326.0,284.0,325.0,292.0,323.0,300.0,314.0,308.0,317.0,315.0,325.0,310.0,333.0,297.0" stroke="black" stroke-width="1" fill="none" />
<polyline points="340.0,304.0,348.0,308.0" stroke="black" stroke-width="1" fill="none" />
<polyline points="346.0,307.0,355.0,315.0" stroke="black" stroke-width="1" fill="none" />
<polyline points="362.0,305.0,364.0,304.0,360.0,296.0,350.0,290.0,352.0,282.0,352.0,274.0,351.0,267.0" stroke="black" stroke-width="1" fill="none" />
<polyline points="356.0,264.0,364.0,263.0,365.0,271.0" stroke="black" stroke-width="1" fill="none" />
<polyline points="362.0,281.0,361.0,273.0,356.0,265.0,360.0,263.0,361.0,249.0,353.0,245.0,345.0,243.0" stroke="black" stroke-width="1" fill="none" />
<polyline points="354.0,241.0,366.0,249.0,371.0,257.0,372.0,265.0,372.0,273.0,367.0,281.0,368.0,280.0,376.0,280.0,384.0,282.0,392.0,287.0" stroke="black" stroke-width="1" fill="none" />
<polyline points="388.0,287.0,380.0,283.0,372.0,283.0" stroke="black" stroke-width="1" fill="none" />
<polyline points="382.0,284.0,393.0,292.0,395.0,300.0,390.0,303.0,394.0,311.0,394.0,319.0,406.0,327.0,409.0,335.0,409.0,343.0,407.0,351.0,401.0,359.0,414.0,369.0,421.0,377.0,424.0,385.0,424.0,393.0,422.0,401.0,418.0,409.0,412.0,417.0,409.0,424.0,407.0,432.0,408.0,440.0,422.0,448.0,427.0,456.0,427.0,464.0,423.0,472.0,434.0,481.0,440.0,489.0,443.0,497.0,444.0,505.0,448.0,513.0,451.0,521.0,451.0,529.0,447.0,537.0,440.0,543.0,441.0,553.0" stroke="black" stroke-width="1" fill="none" />
<polyline points="440.0,488.0,432.0,477.0,424.0,473.0" stroke="black" stroke-width="1" fill="none" />
<polyline points="423.0,480.0,429.0,488.0,432.0,496.0,437.0,496.0,439.0,504.0,442.0,512.0,442.0,520.0,441.0,528.0,444.0,528.0,440.0,532.0" stroke="black" stroke-width="1" fill="none" />
<polyline points="427.0,490.0,419.0,482.0" stroke="black" stroke-width="1" fill="none" />
<polyline points="417.0,480.0,425.0,481.0" stroke="black" stroke-width="1" fill="none" />
<polyline points="419.0,479.0,424.0,487.0,429.0,495.0,430.0,503.0" stroke="black" stroke-width="1" fill="none" />
<polyline points="419.0,487.0,411.0,484.0" stroke="black" stroke-width="1" fill="none" />
<polyline points="409.0,488.0,414.0,496.0" stroke="black" stroke-width="1" fill="none" />
<polyline points="410.0,491.0,418.0,502.0" stroke="black" stroke-width="1" fill="none" />
<polyline points="414.0,489.0,401.0,492.0,399.0,488.0,400.0,480.0,399.0,482.0" stroke="black" stroke-width="1" fill="none" />
<polyline points="403.0,480.0,403.0,488.0" stroke="black" stroke-width="1" fill="none" />
<polyline points="413.0,489.0,419.0,497.0" stroke="black" stroke-width="1" fill="none" />
<polyline points="410.0,474.0,418.0,474.0,426.0,465.0" stroke="black" stroke-width="1" fill="none" />
<polyline points="374.0,487.0,376.0,495.0,375.0,503.0,372.0,511.0,374.0,515.0,382.0,505.0" stroke="black" stroke-width="1" fill="none" />
<polyline points="365.0,510.0,368.0,502.0,368.0,494.0,366.0,486.0" stroke="black" stroke-width="1" fill="none" />
<polyline points="364.0,485.0,363.0,493.0,363.0,501.0,362.0,509.0,360.0,517.0" stroke="black" stroke-width="1" fill="none" />
<polyline points="340.0,516.0,332.0,527.0,330.0,523.0,336.0,515.0,339.0,507.0,338.0,499.0" stroke="black" stroke-width="1" fill="none" />
<polyline points="288.0,494.0,280.0,506.0,275.0,512.0,282.0,504.0,286.0,496.0,291.0,488.0,289.0,485.0,285.0,493.0,289.0,485.0,287.0,484.0,279.0,498.0,283.0,492.0,287.0,484.0,289.0,476.0,285.0,468.0,283.0,460.0,283.0,452.0,286.0,444.0,291.0,436.0,297.0,428.0,301.0,423.0,307.0,411.0,308.0,403.0,311.0,403.0,313.0,395.0,309.0,392.0,307.0,380.0,303.0,372.0,298.0,364.0,295.0,356.0,288.0,356.0" stroke="black" stroke-width="1" fill="none" />
<polyline points="302.0,364.0,310.0,373.0,318.0,377.0" stroke="black" stroke-width="1" fill="none" />
<polyline points="319.0,379.0,323.0,387.0,326.0,395.0" stroke="black" stroke-width="1" fill="none" />
<polyline points="331.0,384.0,323.0,375.0" stroke="black" stroke-width="1" fill="none" />
<polyline points="325.0,376.0,330.0,384.0,332.0,392.0,332.0,400.0,329.0,408.0,324.0,416.0,316.0,424.0,308.0,432.0,314.0,427.0,322.0,418.0,330.0,405.0" stroke="black" stroke-width="1" fill="none" />
<polyline points="331.0,410.0,323.0,420.0,335.0,411.0,339.0,403.0,341.0,395.0,341.0,387.0,340.0,382.0,332.0,374.0" stroke="black" stroke-width="1" fill="none" />
<polyline points="345.0,377.0,349.0,380.0,350.0,388.0,349.0,396.0,347.0,404.0,341.0,412.0,349.0,406.0" stroke="black" stroke-width="1" fill="none" />
<polyline points="358.0,407.0,366.0,402.0,369.0,394.0,370.0,386.0,370.0,378.0,365.0,376.0" stroke="black" stroke-width="1" fill="none" />
<polyline points="336.0,409.0,328.0,419.0" stroke="black" stroke-width="1" fill="none" />
<polyline points="331.0,427.0,338.0,435.0,343.0,443.0,343.0,451.0,340.0,459.0,335.0,467.0,326.0,475.0,320.0,488.0,316.0,496.0,312.0,502.0,311.0,510.0,306.0,517.0,300.0,524.0,293.0,533.0,287.0,541.0,278.0,549.0,274.0,550.0,275.0,556.0,268.0,556.0,269.0,554.0,275.0,546.0,278.0,548.0,284.0,542.0,291.0,541.0,291.0,536.0,299.0,531.0,307.0,522.0,315.0,517.0,325.0,518.0" stroke="black" stroke-width="1" fill="none" />
<polyline points="297.0,497.0,289.0,507.0,287.0,505.0,290.0,497.0,295.0,489.0,295.0,488.0,287.0,502.0" stroke="black" stroke-width="1" fill="none" />
<polyline points="295.0,507.0,287.0,516.0,279.0,524.0" stroke="black" stroke-width="1" fill="none" />
<polyline points="231.0,494.0,223.0,498.0,215.0,497.0,207.0,497.0,199.0,497.0,198.0,499.0,195.0,508.0,190.0,504.0,188.0,504.0,179.0,492.0,176.0,488.0,180.0,480.0,175.0,475.0,174.0,474.0,179.0,469.0,182.0,469.0,183.0,461.0,187.0,453.0,182.0,446.0,182.0,438.0,183.0,431.0,182.0,423.0,188.0,419.0,185.0,416.0,178.0,408.0,180.0,399.0,165.0,393.0,157.0,394.0,149.0,396.0,141.0,400.0" stroke="black" stroke-width="1" fill="none" />
<polyline points="142.0,409.0,150.0,404.0,158.0,403.0,166.0,401.0,174.0,403.0,182.0,408.0,190.0,406.0" stroke="black" stroke-width="1" fill="none" />
<polyline points="192.0,397.0,193.0,405.0,189.0,410.0,193.0,412.0,192.0,420.0,187.0,428.0,186.0,436.0,185.0,441.0,187.0,449.0,187.0,460.0,174.0,467.0,169.0,475.0,165.0,483.0,162.0,483.0,172.0,471.0,180.0,463.0" stroke="black" stroke-width="1" fill="none" />
<polyline points="177.0,417.0,169.0,422.0,161.0,418.0" stroke="black" stroke-width="1" fill="none" />
<polyline points="160.0,416.0,168.0,417.0,175.0,419.0" stroke="black" stroke-width="1" fill="none" />
<polyline points="159.0,424.0,151.0,420.0" stroke="black" stroke-width="1" fill="none" />
<polyline points="150.0,417.0,158.0,411.0,166.0,411.0" stroke="black" stroke-width="1" fill="none" />
<polyline points="158.0,411.0,150.0,419.0,152.0,428.0" stroke="black" stroke-width="1" fill="none" />
<polyline points="160.0,428.0,152.0,433.0,151.0,429.0,143.0,427.0" stroke="black" stroke-width="1" fill="none" />
<polyline points="145.0,419.0,153.0,427.0,161.0,426.0" stroke="black" stroke-width="1" fill="none" />
<polyline points="144.0,416.0,152.0,408.0,160.0,405.0,168.0,405.0,176.0,407.0,184.0,412.0,188.0,426.0" stroke="black" stroke-width="1" fill="none" />
<polyline points="207.0,419.0,215.0,411.0" stroke="black" stroke-width="1" fill="none" />
<polyline points="210.0,402.0,212.0,399.0,213.0,405.0,219.0,407.0,227.0,398.0,235.0,390.0,243.0,388.0,251.0,387.0,259.0,385.0,267.0,388.0" stroke="black" stroke-width="1" fill="none" />
<polyline points="271.0,385.0,263.0,380.0,259.0,380.0" stroke="black" stroke-width="1" fill="none" />
<polyline points="251.0,380.0,259.0,378.0,267.0,377.0,275.0,381.0,277.0,392.0,274.0,400.0,277.0,403.0" stroke="black" stroke-width="1" fill="none" />
<polyline points="284.0,401.0,278.0,405.0,279.0,402.0,262.0,398.0,256.0,387.0,249.0,379.0,246.0,378.0" stroke="black" stroke-width="1" fill="none" />
<polyline points="242.0,393.0,250.0,392.0,258.0,393.0,266.0,398.0,274.0,396.0,282.0,399.0" stroke="black" stroke-width="1" fill="none" />
<polyline points="295.0,401.0,305.0,406.0,302.0,414.0,297.0,422.0" stroke="black" stroke-width="1" fill="none" />
<polyline points="312.0,418.0,304.0,429.0,296.0,439.0,288.0,448.0" stroke="black" stroke-width="1" fill="none" />
<polyline points="291.0,447.0,289.0,455.0" stroke="black" stroke-width="1" fill="none" />
<polyline points="295.0,448.0,303.0,434.0,311.0,424.0,319.0,414.0" stroke="black" stroke-width="1" fill="none" />
<polyline points="308.0,406.0,301.0,416.0,297.0,428.0,289.0,439.0,281.0,446.0,282.0,438.0,285.0,430.0,291.0,422.0,296.0,414.0,299.0,413.0,303.0,405.0,299.0,403.0,297.0,399.0,298.0,391.0,296.0,382.0,292.0,374.0,291.0,369.0,293.0,361.0,293.0,356.0,292.0,352.0,293.0,346.0,294.0,346.0,283.0,347.0,281.0,345.0,281.0,337.0,284.0,326.0,273.0,318.0,266.0,316.0,260.0,307.0,252.0,306.0,244.0,304.0" stroke="black" stroke-width="1" fill="none" />
<polyline points="245.0,306.0,253.0,309.0,261.0,309.0" stroke="black" stroke-width="1" fill="none" />
<polyline points="257.0,317.0,265.0,330.0" stroke="black" stroke-width="1" fill="none" />
<polyline points="283.0,331.0,283.0,339.0,290.0,341.0,288.0,349.0,285.0,357.0,284.0,365.0,286.0,373.0,290.0,381.0,294.0,389.0,294.0,397.0,292.0,405.0,294.0,409.0,289.0,417.0,290.0,429.0,284.0,438.0,284.0,432.0,292.0,421.0,294.0,409.0" stroke="black" stroke-width="1" fill="none" />
<polyline points="307.0,391.0,294.0,385.0,286.0,373.0" stroke="black" stroke-width="1" fill="none" />
<polyline points="293.0,377.0,301.0,386.0" stroke="black" stroke-width="1" fill="none" />
<polyline points="313.0,378.0,321.0,387.0" stroke="black" stroke-width="1" fill="none" />
<polyline points="311.0,386.0,303.0,382.0,295.0,371.0" stroke="black" stroke-width="1" fill="none" />
<polyline points="295.0,372.0,300.0,380.0,309.0,388.0,304.0,396.0,302.0,396.0,301.0,404.0,296.0,410.0,295.0,412.0" stroke="black" stroke-width="1" fill="none" />
<polyline points="291.0,427.0,283.0,437.0" stroke="black" stroke-width="1" fill="none" />
<polyline points="291.0,443.0,288.0,451.0,287.0,459.0,287.0,472.0,295.0,484.0" stroke="black" stroke-width="1" fill="none" />
<polyline points="303.0,447.0,311.0,433.0,322.0,423.0,333.0,428.0,341.0,439.0" stroke="black" stroke-width="1" fill="none" />
<polyline points="306.0,420.0,306.0,421.0,310.0,413.0,313.0,405.0,313.0,397.0" stroke="black" stroke-width="1" fill="none" />
<polyline points="312.0,356.0,320.0,365.0,328.0,366.0,338.0,369.0,346.0,366.0" stroke="black" stroke-width="1" fill="none" />
<polyline points="352.0,361.0,344.0,364.0,336.0,366.0,325.0,369.0,317.0,366.0,309.0,354.0" stroke="black" stroke-width="1" fill="none" />
<polyline points="310.0,348.0,312.0,356.0,317.0,364.0" stroke="black" stroke-width="1" fill="none" />
<polyline points="312.0,362.0,309.0,354.0,308.0,346.0" stroke="black" stroke-width="1" fill="none" />
<polyline points="298.0,346.0,294.0,338.0" stroke="black" stroke-width="1" fill="none" />
<polyline points="286.0,341.0,285.0,333.0" stroke="black" stroke-width="1" fill="none" />
<polyline points="295.0,320.0,287.0,319.0,283.0,320.0,283.0,313.0,277.0,305.0" stroke="black" stroke-width="1" fill="none" />
<polyline points="281.0,297.0,289.0,302.0,297.0,307.0,305.0,307.0,313.0,303.0" stroke="black" stroke-width="1" fill="none" />
<polyline points="319.0,304.0,311.0,310.0,303.0,311.0,295.0,311.0,294.0,306.0,280.0,302.0,278.0,297.0,279.0,289.0,269.0,294.0,261.0,299.0,253.0,299.0,245.0,299.0,237.0,294.0" stroke="black" stroke-width="1" fill="none" />
<polyline points="238.0,292.0,244.0,305.0,257.0,317.0,264.0,326.0,272.0,326.0,280.0,330.0,288.0,336.0,295.0,343.0,302.0,346.0" stroke="black" stroke-width="1" fill="none" />
<polyline points="328.0,313.0,331.0,317.0,339.0,315.0,339.0,317.0,347.0,321.0" stroke="black" stroke-width="1" fill="none" />
<polyline points="350.0,321.0,340.0,313.0" stroke="black" stroke-width="1" fill="none" />
<polyline points="357.0,308.0,349.0,301.0,338.0,295.0,333.0,305.0,338.0,297.0,340.0,289.0,340.0,281.0,336.0,273.0,340.0,271.0" stroke="black" stroke-width="1" fill="none" />
<polyline points="346.0,272.0,347.0,280.0,346.0,288.0,353.0,295.0,361.0,303.0,361.0,311.0,369.0,319.0,371.0,327.0,371.0,335.0" stroke="black" stroke-width="1" fill="none" />
<polyline points="380.0,328.0,379.0,320.0,377.0,312.0" stroke="black" stroke-width="1" fill="none" />
<polyline points="376.0,311.0,376.0,319.0,377.0,327.0" stroke="black" stroke-width="1" fill="none" />
<polyline points="385.0,307.0,377.0,301.0" stroke="black" stroke-width="1" fill="none" />
<polyline points="380.0,302.0,386.0,310.0,388.0,318.0,385.0,319.0,396.0,327.0" stroke="black" stroke-width="1" fill="none" />
<polyline points="352.0,320.0,344.0,314.0,336.0,312.0,328.0,313.0,320.0,316.0,317.0,320.0,309.0,322.0,304.0,323.0,300.0,317.0,292.0,317.0,284.0,313.0,281.0,306.0,274.0,304.0,270.0,304.0,262.0,304.0,254.0,302.0,245.0,299.0,236.0,291.0" stroke="black" stroke-width="1" fill="none" />
<polyline points="236.0,291.0,244.0,295.0" stroke="black" stroke-width="1" fill="none" />
<polyline points="231.0,297.0,236.0,305.0,252.0,313.0,261.0,321.0,263.0,329.0" stroke="black" stroke-width="1" fill="none" />
<polyline points="229.0,297.0,224.0,305.0,214.0,313.0" stroke="black" stroke-width="1" fill="none" />
<polyline points="235.0,284.0,243.0,279.0" stroke="black" stroke-width="1" fill="none" />
<polyline points="242.0,274.0,250.0,279.0,258.0,280.0,266.0,278.0,274.0,272.0,264.0,278.0" stroke="black" stroke-width="1" fill="none" />
<polyline points="274.0,270.0,266.0,274.0,258.0,275.0,250.0,273.0" stroke="black" stroke-width="1" fill="none" />
<polyline points="247.0,272.0,255.0,272.0,263.0,272.0,271.0,269.0" stroke="black" stroke-width="1" fill="none" />
<polyline points="289.0,274.0,279.0,282.0,269.0,290.0,276.0,297.0,273.0,302.0,269.0,307.0,266.0,310.0,264.0,318.0,269.0,326.0,279.0,327.0,292.0,335.0,299.0,339.0,305.0,345.0,305.0,353.0,303.0,362.0,311.0,370.0,325.0,380.0,327.0,388.0,328.0,396.0" stroke="black" stroke-width="1" fill="none" />
<polyline points="266.0,421.0,262.0,421.0,254.0,425.0,246.0,425.0" stroke="black" stroke-width="1" fill="none" />
<polyline points="246.0,427.0,254.0,427.0,262.0,428.0" stroke="black" stroke-width="1" fill="none" />
<polyline points="258.0,420.0,266.0,414.0,265.0,411.0,260.0,411.0,255.0,412.0,255.0,412.0" stroke="black" stroke-width="1" fill="none" />
<polyline points="256.0,409.0,248.0,414.0,242.0,413.0,248.0,409.0,244.0,409.0,244.0,409.0" stroke="black" stroke-width="1" fill="none" />
<polyline points="239.0,407.0,231.0,415.0,230.0,411.0,238.0,401.0,246.0,398.0,254.0,398.0,262.0,400.0,270.0,405.0" stroke="black" stroke-width="1" fill="none" />
<polyline points="261.0,400.0,272.0,408.0,264.0,416.0,260.0,422.0,256.0,428.0" stroke="black" stroke-width="1" fill="none" />
<polyline points="257.0,430.0,249.0,430.0" stroke="black" stroke-width="1" fill="none" />
<polyline points="230.0,419.0,229.0,428.0,225.0,424.0,232.0,423.0,224.0,417.0,224.0,407.0,228.0,407.0,234.0,399.0,235.0,393.0" stroke="black" stroke-width="1" fill="none" />
<polyline points="231.0,394.0,222.0,402.0,217.0,410.0,208.0,417.0,206.0,425.0,208.0,428.0,210.0,417.0,212.0,423.0,220.0,414.0,227.0,408.0,230.0,399.0,233.0,400.0,241.0,396.0,249.0,395.0,257.0,396.0" stroke="black" stroke-width="1" fill="none" />
<polyline points="245.0,398.0,233.0,406.0" stroke="black" stroke-width="1" fill="none" />
<polyline points="232.0,423.0,224.0,421.0" stroke="black" stroke-width="1" fill="none" />
<polyline points="225.0,385.0,217.0,384.0" stroke="black" stroke-width="1" fill="none" />
<polyline points="226.0,383.0,226.0,380.0,220.0,378.0,211.0,375.0,209.0,374.0,205.0,375.0" stroke="black" stroke-width="1" fill="none" />
<polyline points="208.0,372.0,216.0,380.0,224.0,378.0,232.0,382.0,240.0,378.0,248.0,375.0,256.0,374.0,262.0,380.0,269.0,380.0,269.0,387.0,273.0,389.0,283.0,388.0,283.0,390.0,286.0,394.0,285.0,396.0,287.0,395.0,283.0,403.0" stroke="black" stroke-width="1" fill="none" />
<polyline points="233.0,467.0,239.0,475.0" stroke="black" stroke-width="1" fill="none" />
<polyline points="185.0,385.0,177.0,384.0" stroke="black" stroke-width="1" fill="none" />
<polyline points="174.0,396.0,166.0,393.0" stroke="black" stroke-width="1" fill="none" />
<polyline points="155.0,398.0,142.0,406.0,132.0,407.0,137.0,407.0,145.0,404.0,153.0,399.0,161.0,398.0,169.0,397.0,177.0,400.0" stroke="black" stroke-width="1" fill="none" />
<polyline points="190.0,394.0,186.0,392.0,181.0,389.0,173.0,386.0,165.0,386.0,157.0,384.0,149.0,385.0,141.0,382.0" stroke="black" stroke-width="1" fill="none" />
<polyline points="149.0,378.0,145.0,375.0,144.0,367.0,140.0,371.0" stroke="black" stroke-width="1" fill="none" />
<polyline points="124.0,390.0,116.0,385.0" stroke="black" stroke-width="1" fill="none" />
<polyline points="116.0,385.0,118.0,393.0,115.0,401.0,104.0,409.0" stroke="black" stroke-width="1" fill="none" />
<polyline points="101.0,400.0,102.0,392.0,91.0,385.0" stroke="black" stroke-width="1" fill="none" />
<polyline points="94.0,385.0,94.0,393.0,92.0,401.0,85.0,409.0,87.0,408.0,99.0,405.0,109.0,391.0" stroke="black" stroke-width="1" fill="none" />
<polyline points="105.0,383.0,113.0,380.0,121.0,382.0,129.0,380.0,120.0,386.0,126.0,386.0,123.0,394.0,127.0,400.0,137.0,398.0,141.0,390.0,149.0,390.0" stroke="black" stroke-width="1" fill="none" />
<polyline points="160.0,405.0,147.0,413.0,144.0,421.0,149.0,425.0,141.0,428.0,138.0,428.0,140.0,436.0" stroke="black" stroke-width="1" fill="none" />
<polyline points="132.0,422.0,137.0,415.0,140.0,414.0,132.0,417.0" stroke="black" stroke-width="1" fill="none" />
<polyline points="107.0,434.0,105.0,433.0,105.0,425.0,106.0,417.0,105.0,403.0,106.0,395.0,105.0,387.0,106.0,382.0,110.0,382.0,113.0,376.0" stroke="black" stroke-width="1" fill="none" />
<polyline points="113.0,382.0,114.0,390.0,113.0,398.0,110.0,406.0,115.0,411.0,113.0,406.0" stroke="black" stroke-width="1" fill="none" />
<polyline points="107.0,423.0,108.0,416.0,107.0,404.0,110.0,396.0,108.0,388.0,96.0,386.0,88.0,384.0" stroke="black" stroke-width="1" fill="none" />
<polyline points="85.0,390.0,83.0,390.0,78.0,387.0,70.0,371.0" stroke="black" stroke-width="1" fill="none" />
<polyline points="67.0,374.0,75.0,387.0" stroke="black" stroke-width="1" fill="none" />
<polyline points="77.0,407.0,69.0,413.0,61.0,418.0,53.0,433.0" stroke="black" stroke-width="1" fill="none" />
<polyline points="48.0,433.0,56.0,417.0,64.0,410.0,72.0,405.0,80.0,395.0" stroke="black" stroke-width="1" fill="none" />
<polyline points="92.0,406.0,84.0,414.0,76.0,425.0" stroke="black" stroke-width="1" fill="none" />
<polyline points="74.0,433.0,74.0,441.0,74.0,449.0,74.0,454.0,82.0,455.0,90.0,459.0,98.0,466.0" stroke="black" stroke-width="1" fill="none" />
<polyline points="98.0,460.0,97.0,466.0,91.0,458.0,85.0,450.0,80.0,442.0,89.0,441.0,89.0,433.0,91.0,433.0,95.0,433.0" stroke="black" stroke-width="1" fill="none" />
<polyline points="98.0,430.0,96.0,438.0,92.0,438.0,95.0,443.0,94.0,447.0,101.0,449.0,107.0,457.0,111.0,465.0,113.0,473.0,112.0,481.0,112.0,489.0,110.0,498.0,105.0,506.0,96.0,518.0,101.0,505.0,109.0,493.0,120.0,483.0,126.0,479.0,134.0,481.0" stroke="black" stroke-width="1" fill="none" />
<polyline points="134.0,477.0,128.0,481.0,134.0,486.0,131.0,486.0,130.0,489.0,123.0,501.0,115.0,513.0,115.0,520.0,106.0,521.0,98.0,527.0,85.0,528.0,77.0,523.0,93.0,511.0,100.0,500.0,103.0,492.0,104.0,484.0,98.0,480.0,95.0,472.0,94.0,465.0,80.0,453.0,72.0,452.0,71.0,444.0,71.0,436.0,71.0,433.0" stroke="black" stroke-width="1" fill="none" />
<polyline points="81.0,446.0,89.0,449.0,99.0,455.0,105.0,463.0,110.0,471.0,110.0,479.0,110.0,487.0,108.0,495.0" stroke="black" stroke-width="1" fill="none" />
<polyline points="99.0,502.0,89.0,511.0,81.0,516.0,89.0,502.0,92.0,494.0,92.0,486.0,91.0,478.0,86.0,470.0,74.0,470.0,66.0,473.0,58.0,469.0,50.0,459.0" stroke="black" stroke-width="1" fill="none" />
<polyline points="53.0,451.0,61.0,466.0" stroke="black" stroke-width="1" fill="none" />
<polyline points="78.0,473.0,70.0,483.0,66.0,492.0" stroke="black" stroke-width="1" fill="none" />
<polyline points="65.0,504.0,73.0,509.0,81.0,510.0,89.0,502.0" stroke="black" stroke-width="1" fill="none" />
<polyline points="92.0,501.0,84.0,511.0,76.0,513.0,88.0,508.0,93.0,500.0,96.0,488.0,88.0,473.0" stroke="black" stroke-width="1" fill="none" />
<polyline points="91.0,471.0,87.0,461.0,79.0,455.0" stroke="black" stroke-width="1" fill="none" />
<polyline points="87.0,445.0,88.0,452.0,94.0,451.0,96.0,444.0,104.0,451.0,103.0,459.0" stroke="black" stroke-width="1" fill="none" />
<polyline points="109.0,460.0,101.0,453.0" stroke="black" stroke-width="1" fill="none" />
<polyline points="109.0,448.0,101.0,441.0" stroke="black" stroke-width="1" fill="none" />
<polyline points="101.0,441.0,105.0,449.0,107.0,450.0" stroke="black" stroke-width="1" fill="none" />
<polyline points="109.0,450.0,103.0,442.0" stroke="black" stroke-width="1" fill="none" />
<polyline points="89.0,463.0,97.0,468.0,97.0,477.0" stroke="black" stroke-width="1" fill="none" />
<polyline points="106.0,481.0,106.0,489.0,105.0,497.0,101.0,505.0,96.0,513.0" stroke="black" stroke-width="1" fill="none" />
<polyline points="98.0,531.0,106.0,533.0,112.0,542.0,112.0,550.0,108.0,558.0,103.0,566.0,114.0,557.0" stroke="black" stroke-width="1" fill="none" />
<polyline points="116.0,558.0,115.0,561.0,118.0,553.0,118.0,545.0" stroke="black" stroke-width="1" fill="none" />
<polyline points="107.0,535.0,99.0,533.0" stroke="black" stroke-width="1" fill="none" />
<polyline points="96.0,509.0,88.0,515.0,77.0,521.0,69.0,514.0" stroke="black" stroke-width="1" fill="none" />
<polyline points="83.0,542.0,75.0,548.0,67.0,553.0,59.0,567.0" stroke="black" stroke-width="1" fill="none" />
<polyline points="57.0,557.0,65.0,548.0,73.0,543.0,81.0,536.0" stroke="black" stroke-width="1" fill="none" />
<polyline points="128.0,500.0,128.0,504.0,126.0,512.0,119.0,520.0,127.0,526.0,133.0,534.0,137.0,542.0,137.0,550.0,137.0,558.0,133.0,566.0,136.0,576.0,132.0,584.0,123.0,592.0,131.0,589.0,133.0,571.0,141.0,558.0,154.0,545.0,165.0,553.0,171.0,553.0,179.0,564.0,187.0,566.0,195.0,568.0,203.0,568.0,211.0,567.0,219.0,564.0,227.0,558.0,235.0,550.0,244.0,546.0,252.0,542.0,254.0,537.0,263.0,535.0,271.0,531.0,279.0,527.0,287.0,520.0,295.0,510.0,289.0,518.0,280.0,526.0,264.0,534.0,262.0,537.0,270.0,534.0" stroke="black" stroke-width="1" fill="none" />
<polyline points="171.0,533.0,169.0,528.0,161.0,524.0,154.0,519.0,148.0,511.0,143.0,502.0,141.0,494.0,139.0,486.0,134.0,478.0,135.0,475.0,130.0,472.0" stroke="black" stroke-width="1" fill="none" />
<polyline points="128.0,478.0,125.0,486.0,122.0,494.0,125.0,494.0,123.0,502.0,122.0,510.0,116.0,518.0,107.0,523.0,112.0,534.0,116.0,542.0,116.0,550.0,114.0,558.0,110.0,566.0,105.0,564.0" stroke="black" stroke-width="1" fill="none" />
<polyline points="89.0,599.0,84.0,607.0,82.0,615.0,82.0,623.0,83.0,631.0,86.0,639.0,90.0,645.0,97.0,653.0" stroke="black" stroke-width="1" fill="none" />
<polyline points="92.0,651.0,91.0,653.0,87.0,649.0,85.0,647.0,81.0,639.0,80.0,631.0,79.0,623.0,79.0,615.0,69.0,607.0,62.0,599.0,57.0,591.0,56.0,582.0,58.0,574.0,60.0,566.0,63.0,558.0,71.0,550.0,83.0,542.0,90.0,534.0,85.0,529.0,81.0,521.0,91.0,509.0,96.0,501.0,96.0,493.0,97.0,483.0,93.0,475.0,91.0,467.0,83.0,459.0,77.0,451.0,76.0,447.0,77.0,439.0,79.0,431.0,77.0,423.0,83.0,415.0,92.0,407.0,95.0,399.0,98.0,399.0,99.0,391.0,96.0,383.0,89.0,373.0,88.0,365.0,85.0,357.0,93.0,354.0,96.0,346.0,91.0,338.0,82.0,330.0,71.0,327.0,70.0,333.0" stroke="black" stroke-width="1" fill="none" />
<polyline points="74.0,344.0,73.0,352.0,70.0,361.0,69.0,369.0,72.0,377.0,76.0,385.0,80.0,393.0,77.0,401.0,65.0,409.0,56.0,417.0,52.0,425.0,48.0,433.0,47.0,441.0,47.0,449.0,49.0,457.0,53.0,465.0,63.0,473.0" stroke="black" stroke-width="1" fill="none" />
<polyline points="79.0,471.0,72.0,479.0,69.0,487.0,66.0,495.0,67.0,503.0,69.0,511.0,78.0,519.0,79.0,519.0,87.0,524.0,95.0,524.0,103.0,519.0,111.0,512.0,119.0,504.0" stroke="black" stroke-width="1" fill="none" />
<polyline points="120.0,484.0,119.0,492.0,117.0,500.0,114.0,508.0,107.0,516.0,100.0,524.0,106.0,537.0,110.0,545.0,108.0,553.0,104.0,561.0,106.0,557.0" stroke="black" stroke-width="1" fill="none" />
<polyline points="86.0,598.0,80.0,606.0,82.0,603.0" stroke="black" stroke-width="1" fill="none" />
<polyline points="134.0,619.0,133.0,623.0,136.0,615.0" stroke="black" stroke-width="1" fill="none" />
<polyline points="166.0,561.0,155.0,562.0,147.0,576.0,148.0,570.0,153.0,562.0,155.0,554.0,154.0,546.0" stroke="black" stroke-width="1" fill="none" />
<polyline points="152.0,544.0,151.0,552.0,150.0,560.0,146.0,568.0,142.0,574.0" stroke="black" stroke-width="1" fill="none" />
<polyline points="109.0,500.0,108.0,507.0,114.0,499.0,117.0,491.0,118.0,483.0" stroke="black" stroke-width="1" fill="none" />
<polyline points="82.0,406.0,76.0,413.0,83.0,405.0,88.0,398.0,89.0,390.0,91.0,382.0,83.0,374.0,75.0,366.0" stroke="black" stroke-width="1" fill="none" />
<polyline points="75.0,366.0,69.0,364.0" stroke="black" stroke-width="1" fill="none" />
<polyline points="80.0,358.0,83.0,350.0" stroke="black" stroke-width="1" fill="none" />
<polyline points="84.0,351.0,83.0,359.0,91.0,367.0" stroke="black" stroke-width="1" fill="none" />
<polyline points="103.0,383.0,95.0,381.0,87.0,376.0,83.0,367.0,75.0,361.0,78.0,353.0,75.0,353.0,78.0,345.0" stroke="black" stroke-width="1" fill="none" />
<polyline points="101.0,331.0,104.0,323.0,109.0,315.0,112.0,302.0" stroke="black" stroke-width="1" fill="none" />
<polyline points="114.0,307.0,122.0,304.0" stroke="black" stroke-width="1" fill="none" />
<polyline points="122.0,316.0,121.0,324.0" stroke="black" stroke-width="1" fill="none" />
<polyline points="113.0,315.0,109.0,323.0,107.0,331.0,113.0,315.0" stroke="black" stroke-width="1" fill="none" />
<polyline points="105.0,310.0,102.0,318.0,100.0,326.0,101.0,330.0,109.0,315.0,117.0,311.0,125.0,308.0" stroke="black" stroke-width="1" fill="none" />
<polyline points="143.0,312.0,151.0,300.0,159.0,296.0,167.0,294.0,175.0,294.0,183.0,297.0" stroke="black" stroke-width="1" fill="none" />
<polyline points="177.0,297.0,169.0,297.0,161.0,298.0,153.0,302.0,145.0,313.0" stroke="black" stroke-width="1" fill="none" />
<polyline points="152.0,302.0,147.0,310.0,144.0,318.0,147.0,326.0,143.0,337.0,140.0,345.0,138.0,345.0,139.0,353.0,144.0,356.0,143.0,364.0,143.0,372.0,144.0,380.0,141.0,384.0,141.0,392.0,139.0,397.0,138.0,402.0,133.0,408.0,140.0,416.0,134.0,418.0,138.0,422.0,136.0,430.0,137.0,437.0,137.0,447.0,140.0,455.0,141.0,464.0,141.0,469.0,143.0,471.0" stroke="black" stroke-width="1" fill="none" />
<polyline points="207.0,367.0,204.0,375.0,210.0,378.0,212.0,387.0,209.0,395.0,210.0,403.0,215.0,409.0,218.0,416.0,218.0,426.0,224.0,419.0,232.0,414.0,240.0,407.0,248.0,417.0,256.0,416.0,264.0,408.0" stroke="black" stroke-width="1" fill="none" />
<polyline points="182.0,313.0,174.0,308.0,166.0,306.0,158.0,310.0" stroke="black" stroke-width="1" fill="none" />
<polyline points="158.0,310.0,154.0,318.0,159.0,307.0,167.0,303.0,175.0,305.0" stroke="black" stroke-width="1" fill="none" />
<polyline points="172.0,304.0,185.0,312.0,189.0,317.0,197.0,318.0,205.0,318.0,213.0,314.0,221.0,308.0,229.0,297.0,238.0,306.0,246.0,311.0,254.0,313.0,262.0,312.0,269.0,313.0,272.0,320.0,280.0,327.0,288.0,329.0,296.0,331.0,296.0,337.0,304.0,339.0,312.0,338.0" stroke="black" stroke-width="1" fill="none" />
<polyline points="308.0,300.0,312.0,292.0,312.0,284.0,304.0,276.0" stroke="black" stroke-width="1" fill="none" />
<polyline points="306.0,274.0,314.0,282.0,315.0,290.0,312.0,298.0,311.0,301.0" stroke="black" stroke-width="1" fill="none" />
<polyline points="291.0,276.0,281.0,284.0,273.0,292.0,266.0,301.0,273.0,312.0,277.0,320.0,285.0,325.0,293.0,326.0,301.0,328.0,309.0,327.0,317.0,324.0,325.0,322.0,333.0,321.0,341.0,323.0,349.0,328.0" stroke="black" stroke-width="1" fill="none" />
<polyline points="350.0,296.0,354.0,283.0,354.0,275.0" stroke="black" stroke-width="1" fill="none" />
<polyline points="367.0,264.0,365.0,256.0,358.0,248.0,344.0,237.0,342.0,229.0,337.0,221.0,333.0,221.0,325.0,219.0" stroke="black" stroke-width="1" fill="none" />
<polyline points="329.0,217.0,337.0,225.0,339.0,233.0,339.0,241.0,344.0,243.0,352.0,240.0,360.0,243.0,368.0,249.0" stroke="black" stroke-width="1" fill="none" />
<polyline points="384.0,282.0,395.0,290.0,398.0,298.0,398.0,306.0" stroke="black" stroke-width="1" fill="none" />
<polyline points="308.0,300.0,317.0,297.0,320.0,289.0,321.0,281.0,322.0,271.0,312.0,263.0" stroke="black" stroke-width="1" fill="none" />
<polyline points="326.0,259.0,323.0,251.0,313.0,243.0" stroke="black" stroke-width="1" fill="none" />
<polyline points="312.0,240.0,325.0,248.0,328.0,256.0,328.0,264.0,330.0,277.0,334.0,285.0,335.0,293.0,332.0,301.0,326.0,309.0,309.0,314.0,300.0,324.0,300.0,332.0,312.0,332.0,307.0,340.0,298.0,343.0,302.0,351.0,304.0,359.0,303.0,366.0,311.0,374.0,318.0,382.0,322.0,390.0,324.0,398.0,324.0,406.0,319.0,414.0,313.0,422.0,307.0,430.0,301.0,438.0,296.0,446.0,295.0,454.0,296.0,462.0,297.0,470.0,303.0,478.0,309.0,487.0,312.0,495.0,308.0,503.0,305.0,511.0,300.0,519.0,291.0,521.0,283.0,529.0,279.0,540.0,264.0,548.0,244.0,551.0,233.0,552.0,225.0,560.0,210.0,574.0,216.0,578.0,222.0,578.0,222.0,581.0,230.0,579.0,231.0,569.0,237.0,559.0,241.0,553.0,249.0,550.0,257.0,546.0,257.0,543.0,265.0,539.0,270.0,529.0" stroke="black" stroke-width="1" fill="none" />
<polyline points="137.0,357.0,142.0,348.0,142.0,340.0" stroke="black" stroke-width="1" fill="none" />
<polyline points="135.0,334.0,144.0,329.0" stroke="black" stroke-width="1" fill="none" />
<polyline points="167.0,303.0,155.0,311.0,153.0,319.0,147.0,325.0,152.0,309.0,160.0,303.0,168.0,301.0,176.0,302.0,184.0,307.0,192.0,311.0,200.0,313.0,208.0,313.0" stroke="black" stroke-width="1" fill="none" />
<polyline points="224.0,284.0,217.0,279.0,217.0,273.0,209.0,270.0,201.0,270.0,199.0,267.0,198.0,265.0,190.0,258.0,182.0,246.0,174.0,239.0,166.0,240.0,154.0,242.0,157.0,244.0,150.0,240.0,142.0,236.0,134.0,236.0,126.0,237.0,118.0,239.0,110.0,243.0" stroke="black" stroke-width="1" fill="none" />
<polyline points="114.0,251.0,106.0,264.0" stroke="black" stroke-width="1" fill="none" />
<polyline points="113.0,266.0,121.0,254.0,129.0,252.0,122.0,253.0,115.0,261.0,113.0,269.0" stroke="black" stroke-width="1" fill="none" />
<polyline points="114.0,286.0,112.0,294.0,112.0,302.0,120.0,304.0,120.0,308.0,120.0,315.0,115.0,316.0,111.0,324.0,114.0,328.0,114.0,318.0,118.0,321.0,125.0,320.0" stroke="black" stroke-width="1" fill="none" />
<polyline points="101.0,319.0,101.0,312.0,97.0,320.0,96.0,328.0,97.0,336.0,97.0,342.0" stroke="black" stroke-width="1" fill="none" />
<polyline points="97.0,342.0,94.0,334.0,94.0,326.0,95.0,318.0,99.0,310.0" stroke="black" stroke-width="1" fill="none" />
<polyline points="97.0,309.0,93.0,317.0" stroke="black" stroke-width="1" fill="none" />
<polyline points="93.0,308.0,91.0,316.0,95.0,318.0,101.0,311.0" stroke="black" stroke-width="1" fill="none" />
<polyline points="92.0,307.0,88.0,315.0,91.0,308.0" stroke="black" stroke-width="1" fill="none" />
<polyline points="92.0,312.0,86.0,318.0,88.0,310.0,91.0,302.0" stroke="black" stroke-width="1" fill="none" />
<polyline points="90.0,301.0,85.0,309.0,89.0,301.0" stroke="black" stroke-width="1" fill="none" />
<polyline points="89.0,296.0,82.0,311.0,85.0,303.0,88.0,295.0" stroke="black" stroke-width="1" fill="none" />
<polyline points="80.0,291.0,88.0,283.0,96.0,280.0" stroke="black" stroke-width="1" fill="none" />
<polyline points="96.0,263.0,105.0,246.0,110.0,240.0,118.0,235.0,126.0,232.0,140.0,231.0,139.0,221.0" stroke="black" stroke-width="1" fill="none" />
<polyline points="133.0,225.0,141.0,215.0,149.0,212.0,157.0,210.0,165.0,210.0,169.0,206.0,178.0,211.0,188.0,198.0,196.0,193.0,204.0,192.0,212.0,192.0,220.0,194.0,228.0,201.0,232.0,212.0,240.0,223.0,248.0,227.0" stroke="black" stroke-width="1" fill="none" />
<polyline points="244.0,233.0,236.0,229.0,235.0,225.0,227.0,227.0,219.0,229.0,211.0,233.0,203.0,231.0" stroke="black" stroke-width="1" fill="none" />
<polyline points="196.0,236.0,204.0,241.0,212.0,244.0,220.0,246.0,228.0,246.0,236.0,251.0" stroke="black" stroke-width="1" fill="none" />
<polyline points="238.0,255.0,228.0,247.0" stroke="black" stroke-width="1" fill="none" />
<polyline points="228.0,235.0,242.0,243.0,247.0,251.0" stroke="black" stroke-width="1" fill="none" />
<polyline points="258.0,249.0,266.0,249.0" stroke="black" stroke-width="1" fill="none" />
<polyline points="271.0,250.0,281.0,242.0,295.0,234.0,297.0,236.0,289.0,241.0,281.0,244.0" stroke="black" stroke-width="1" fill="none" />
<polyline points="280.0,234.0,288.0,228.0,296.0,225.0,304.0,225.0" stroke="black" stroke-width="1" fill="none" />
<polyline points="301.0,233.0,288.0,241.0,282.0,250.0,290.0,245.0,298.0,240.0,306.0,239.0,314.0,240.0,322.0,244.0" stroke="black" stroke-width="1" fill="none" />
<polyline points="329.0,231.0,327.0,223.0,323.0,221.0,315.0,215.0,307.0,214.0,299.0,214.0,291.0,215.0,283.0,219.0,275.0,227.0" stroke="black" stroke-width="1" fill="none" />
<polyline points="271.0,241.0,263.0,243.0" stroke="black" stroke-width="1" fill="none" />
<polyline points="236.0,260.0,228.0,254.0,209.0,251.0,201.0,247.0,193.0,242.0" stroke="black" stroke-width="1" fill="none" />
<polyline points="199.0,242.0,205.0,250.0,215.0,260.0,223.0,265.0" stroke="black" stroke-width="1" fill="none" />
<polyline points="226.0,264.0,218.0,259.0,204.0,255.0,190.0,252.0,182.0,243.0,174.0,237.0,166.0,235.0" stroke="black" stroke-width="1" fill="none" />
<polyline points="171.0,236.0,188.0,244.0,192.0,252.0,210.0,256.0,219.0,266.0" stroke="black" stroke-width="1" fill="none" />
<polyline points="212.0,265.0,217.0,274.0" stroke="black" stroke-width="1" fill="none" />
<polyline points="213.0,247.0,205.0,247.0,197.0,240.0,189.0,236.0,182.0,234.0,169.0,232.0,156.0,234.0" stroke="black" stroke-width="1" fill="none" />
<polyline points="155.0,232.0,161.0,240.0,169.0,248.0,173.0,256.0" stroke="black" stroke-width="1" fill="none" />
<polyline points="183.0,260.0,175.0,252.0,167.0,241.0" stroke="black" stroke-width="1" fill="none" />
<polyline points="172.0,239.0,182.0,247.0,187.0,255.0,193.0,263.0" stroke="black" stroke-width="1" fill="none" />
<polyline points="185.0,272.0,191.0,280.0,202.0,288.0" stroke="black" stroke-width="1" fill="none" />
<polyline points="198.0,282.0,188.0,274.0" stroke="black" stroke-width="1" fill="none" />
<polyline points="179.0,262.0,171.0,250.0,163.0,241.0,155.0,236.0,147.0,234.0,139.0,233.0,131.0,233.0,123.0,230.0,115.0,234.0" stroke="black" stroke-width="1" fill="none" />
<polyline points="119.0,238.0,115.0,245.0,108.0,253.0,104.0,261.0,102.0,269.0,101.0,277.0" stroke="black" stroke-width="1" fill="none" />
<polyline points="102.0,254.0,112.0,253.0,107.0,261.0,105.0,269.0,106.0,256.0,114.0,246.0,122.0,243.0,130.0,240.0,138.0,240.0,146.0,242.0,156.0,240.0" stroke="black" stroke-width="1" fill="none" />
<polyline points="159.0,236.0,170.0,244.0,174.0,252.0,179.0,260.0" stroke="black" stroke-width="1" fill="none" />
<polyline points="163.0,267.0,172.0,275.0,181.0,283.0,183.0,291.0,182.0,300.0,185.0,308.0" stroke="black" stroke-width="1" fill="none" />
<polyline points="172.0,307.0,184.0,315.0,188.0,314.0,196.0,316.0,204.0,316.0" stroke="black" stroke-width="1" fill="none" />
<polyline points="165.0,301.0,152.0,309.0,149.0,317.0,150.0,325.0,154.0,331.0,157.0,331.0,158.0,332.0" stroke="black" stroke-width="1" fill="none" />
<polyline points="108.0,295.0,112.0,287.0,120.0,279.0,126.0,271.0,139.0,263.0" stroke="black" stroke-width="1" fill="none" />
<polyline points="153.0,252.0,170.0,260.0,178.0,268.0,183.0,276.0,190.0,285.0,192.0,292.0" stroke="black" stroke-width="1" fill="none" />
<polyline points="205.0,229.0,199.0,226.0,191.0,218.0,186.0,226.0,178.0,220.0,170.0,218.0,162.0,218.0" stroke="black" stroke-width="1" fill="none" />
<polyline points="160.0,209.0,153.0,217.0,146.0,225.0,151.0,218.0,159.0,214.0,162.0,216.0,170.0,214.0,178.0,215.0,186.0,218.0,194.0,225.0,202.0,230.0,210.0,227.0,211.0,225.0,219.0,223.0,227.0,222.0,239.0,228.0,239.0,230.0,247.0,235.0" stroke="black" stroke-width="1" fill="none" />
<polyline points="228.0,232.0,225.0,241.0,240.0,245.0,245.0,253.0,242.0,261.0,239.0,269.0,236.0,277.0,231.0,281.0,221.0,289.0,221.0,291.0" stroke="black" stroke-width="1" fill="none" />
<polyline points="223.0,221.0,215.0,221.0,207.0,217.0,199.0,218.0,191.0,215.0,183.0,213.0" stroke="black" stroke-width="1" fill="none" />
<polyline points="191.0,219.0,195.0,227.0,197.0,234.0,210.0,242.0" stroke="black" stroke-width="1" fill="none" />
<polyline points="219.0,237.0,211.0,235.0,203.0,233.0,201.0,230.0,194.0,222.0" stroke="black" stroke-width="1" fill="none" />
<polyline points="199.0,219.0,206.0,220.0,206.0,219.0,214.0,223.0" stroke="black" stroke-width="1" fill="none" />
<polyline points="193.0,216.0,199.0,224.0,215.0,229.0,216.0,233.0,224.0,232.0,232.0,233.0,233.0,236.0,241.0,241.0,249.0,255.0,263.0,254.0,271.0,250.0,275.0,250.0,281.0,254.0,289.0,248.0,297.0,243.0,305.0,242.0,313.0,243.0,321.0,247.0" stroke="black" stroke-width="1" fill="none" />
<polyline points="322.0,262.0,314.0,258.0,306.0,255.0,298.0,254.0,290.0,255.0,285.0,255.0,282.0,261.0,286.0,250.0,299.0,242.0" stroke="black" stroke-width="1" fill="none" />
<polyline points="301.0,239.0,286.0,247.0,277.0,261.0,271.0,269.0" stroke="black" stroke-width="1" fill="none" />
<polyline points="320.0,239.0,320.0,239.0,326.0,231.0,324.0,223.0,312.0,215.0" stroke="black" stroke-width="1" fill="none" />
<polyline points="305.0,228.0,298.0,232.0,290.0,237.0,282.0,242.0,280.0,239.0,273.0,245.0,265.0,247.0,257.0,248.0,255.0,253.0,258.0,245.0,260.0,236.0,272.0,228.0,278.0,220.0,292.0,212.0" stroke="black" stroke-width="1" fill="none" />
<polyline points="340.0,224.0,332.0,218.0,324.0,216.0,316.0,213.0,308.0,211.0,300.0,211.0,292.0,212.0,284.0,215.0,276.0,223.0,268.0,232.0,260.0,233.0,252.0,222.0,244.0,218.0,236.0,208.0,228.0,197.0,220.0,192.0,212.0,190.0,204.0,190.0,196.0,191.0,188.0,194.0,179.0,200.0,178.0,197.0,176.0,205.0,168.0,203.0,160.0,205.0,152.0,203.0,147.0,205.0,139.0,212.0,131.0,220.0,123.0,228.0,115.0,231.0,107.0,238.0,100.0,252.0,103.0,244.0,109.0,236.0,120.0,228.0" stroke="black" stroke-width="1" fill="none" />
<polyline points="174.0,156.0,166.0,155.0,160.0,144.0,156.0,134.0,148.0,136.0" stroke="black" stroke-width="1" fill="none" />
<polyline points="177.0,136.0,176.0,138.0,178.0,136.0,179.0,144.0" stroke="black" stroke-width="1" fill="none" />
<polyline points="177.0,135.0,172.0,143.0,177.0,151.0,174.0,159.0,185.0,164.0,185.0,169.0,179.0,178.0,179.0,180.0,187.0,182.0" stroke="black" stroke-width="1" fill="none" />
<polyline points="215.0,193.0,227.0,201.0,231.0,209.0,234.0,217.0,237.0,222.0,244.0,230.0,250.0,230.0,245.0,237.0" stroke="black" stroke-width="1" fill="none" />
<polyline points="243.0,283.0,239.0,280.0,241.0,272.0,246.0,265.0,252.0,255.0,250.0,247.0,257.0,239.0,257.0,231.0,252.0,223.0,239.0,215.0,235.0,208.0,230.0,200.0,220.0,192.0" stroke="black" stroke-width="1" fill="none" />
<polyline points="158.0,185.0,147.0,177.0,139.0,169.0,135.0,161.0,134.0,153.0,133.0,145.0,132.0,137.0,131.0,129.0,130.0,121.0,130.0,113.0" stroke="black" stroke-width="1" fill="none" />
<polyline points="139.0,118.0,138.0,109.0,137.0,101.0" stroke="black" stroke-width="1" fill="none" />
<polyline points="156.0,96.0,154.0,104.0,153.0,107.0,157.0,107.0,165.0,115.0,170.0,115.0,178.0,110.0" stroke="black" stroke-width="1" fill="none" />
<polyline points="172.0,102.0,173.0,110.0,173.0,119.0,179.0,121.0,180.0,116.0,188.0,113.0" stroke="black" stroke-width="1" fill="none" />
<polyline points="170.0,100.0,170.0,108.0,163.0,116.0" stroke="black" stroke-width="1" fill="none" />
<polyline points="206.0,92.0,207.0,100.0,211.0,108.0,218.0,116.0,224.0,124.0,227.0,132.0,228.0,140.0,228.0,148.0,228.0,156.0,224.0,164.0,216.0,172.0,205.0,180.0,195.0,191.0,185.0,199.0,181.0,207.0,179.0,208.0,181.0,217.0,186.0,227.0,190.0,229.0,193.0,232.0,197.0,240.0,201.0,240.0,213.0,251.0,220.0,258.0,219.0,263.0,225.0,264.0" stroke="black" stroke-width="1" fill="none" />
<polyline points="190.0,172.0,196.0,171.0,201.0,169.0,207.0,163.0,211.0,155.0,215.0,147.0,212.0,136.0,211.0,134.0,213.0,130.0,210.0,122.0,207.0,114.0,209.0,104.0,205.0,99.0,206.0,91.0" stroke="black" stroke-width="1" fill="none" />
<polyline points="186.0,62.0,186.0,70.0,186.0,78.0,186.0,90.0,186.0,98.0,192.0,103.0,200.0,103.0,208.0,106.0,216.0,112.0,224.0,122.0" stroke="black" stroke-width="1" fill="none" />
<polyline points="162.0,172.0,153.0,175.0,153.0,160.0,149.0,159.0,147.0,152.0,145.0,150.0,145.0,142.0,143.0,135.0,139.0,129.0,142.0,121.0,141.0,113.0,141.0,105.0,140.0,97.0,134.0,84.0,133.0,76.0" stroke="black" stroke-width="1" fill="none" />
<polyline points="131.0,73.0,131.0,81.0,132.0,89.0,139.0,94.0,134.0,102.0,135.0,110.0,135.0,118.0,136.0,126.0,133.0,126.0,136.0,135.0,134.0,135.0" stroke="black" stroke-width="1" fill="none" />
<polyline points="0.0,765.0,8.0,765.0,16.0,765.0,24.0,765.0,32.0,765.0,40.0,765.0,48.0,765.0,56.0,765.0,64.0,765.0,72.0,765.0,80.0,765.0,88.0,765.0,96.0,765.0,104.0,765.0,112.0,765.0,120.0,765.0,128.0,765.0,136.0,765.0,144.0,765.0,152.0,765.0,160.0,765.0,168.0,765.0,176.0,766.0,184.0,765.0,192.0,765.0,200.0,765.0,208.0,765.0,216.0,765.0,224.0,765.0,232.0,765.0,240.0,765.0,248.0,765.0,256.0,765.0,264.0,765.0,272.0,765.0,280.0,765.0,288.0,765.0,296.0,765.0,304.0,765.0,312.0,765.0,320.0,765.0,328.0,765.0,336.0,765.0,344.0,765.0,352.0,765.0,360.0,766.0,368.0,766.0,376.0,765.0,384.0,765.0,392.0,765.0,400.0,765.0,408.0,765.0,416.0,765.0,424.0,765.0,432.0,765.0,440.0,765.0,448.0,765.0,456.0,765.0,464.0,765.0,472.0,765.0,480.0,765.0,488.0,765.0,496.0,765.0,504.0,765.0" stroke="black" stroke-width="1" fill="none" />
<polyline points="492.0,788.0,484.0,792.0" stroke="black" stroke-width="1" fill="none" />
<polyline points="488.0,787.0,480.0,787.0,470.0,793.0,462.0,793.0" stroke="black" stroke-width="1" fill="none" />
<polyline points="449.0,786.0,441.0,786.0,433.0,787.0,425.0,787.0,417.0,786.0" stroke="black" stroke-width="1" fill="none" />
<polyline points="406.0,792.0,398.0,792.0" stroke="black" stroke-width="1" fill="none" />
<polyline points="397.0,788.0,405.0,788.0,413.0,787.0,417.0,792.0,426.0,792.0,435.0,793.0,443.0,793.0,451.0,789.0,457.0,787.0,465.0,787.0,473.0,793.0,481.0,790.0" stroke="black" stroke-width="1" fill="none" />
<polyline points="362.0,787.0,354.0,792.0" stroke="black" stroke-width="1" fill="none" />
<polyline points="343.0,792.0,335.0,793.0,329.0,792.0,317.0,793.0,312.0,793.0,312.0,787.0,310.0,786.0,298.0,787.0,290.0,787.0,282.0,788.0" stroke="black" stroke-width="1" fill="none" />
<polyline points="280.0,785.0,278.0,793.0,283.0,792.0,291.0,793.0,298.0,793.0,311.0,785.0,319.0,787.0,330.0,785.0,338.0,786.0,346.0,785.0,344.0,792.0,354.0,785.0,362.0,785.0,368.0,785.0" stroke="black" stroke-width="1" fill="none" />
<polyline points="326.0,786.0,323.0,786.0" stroke="black" stroke-width="1" fill="none" />
<polyline points="295.0,787.0,296.0,795.0" stroke="black" stroke-width="1" fill="none" />
<polyline points="154.0,785.0,149.0,793.0" stroke="black" stroke-width="1" fill="none" />
<polyline points="146.0,783.0,146.0,791.0,151.0,792.0,152.0,792.0,165.0,795.0" stroke="black" stroke-width="1" fill="none" />
<polyline points="145.0,796.0,139.0,791.0,142.0,790.0,144.0,782.0" stroke="black" stroke-width="1" fill="none" />
<polyline points="132.0,792.0,127.0,791.0,130.0,789.0,124.0,781.0" stroke="black" stroke-width="1" fill="none" />
<polyline points="122.0,779.0,122.0,787.0,118.0,791.0,124.0,796.0,131.0,793.0,135.0,789.0,139.0,795.0,152.0,796.0,160.0,793.0" stroke="black" stroke-width="1" fill="none" />
<polyline points="115.0,785.0,109.0,793.0,110.0,801.0" stroke="black" stroke-width="1" fill="none" />
<polyline points="104.0,795.0,103.0,787.0" stroke="black" stroke-width="1" fill="none" />
<polyline points="99.0,788.0,91.0,791.0,87.0,792.0,79.0,794.0,68.0,793.0,62.0,789.0,65.0,793.0,64.0,785.0" stroke="black" stroke-width="1" fill="none" />
<polyline points="70.0,788.0,72.0,796.0,69.0,801.0" stroke="black" stroke-width="1" fill="none" />
<polyline points="78.0,795.0,81.0,787.0,90.0,792.0,87.0,789.0" stroke="black" stroke-width="1" fill="none" />
<polyline points="99.0,797.0,98.0,789.0,102.0,781.0" stroke="black" stroke-width="1" fill="none" />
<polyline points="106.0,783.0,106.0,791.0,113.0,792.0,111.0,800.0,115.0,796.0" stroke="black" stroke-width="1" fill="none" />
<polyline points="58.0,780.0,50.0,786.0,36.0,786.0,28.0,788.0" stroke="black" stroke-width="1" fill="none" />
<polyline points="32.0,785.0,28.0,793.0,35.0,789.0,34.0,792.0,36.0,789.0" stroke="black" stroke-width="1" fill="none" />
<polyline points="40.0,791.0,40.0,783.0,32.0,782.0,24.0,785.0" stroke="black" stroke-width="1" fill="none" />
<polyline points="20.0,783.0,28.0,777.0,36.0,777.0,44.0,782.0,41.0,787.0,44.0,789.0,40.0,797.0,43.0,799.0" stroke="black" stroke-width="1" fill="none" />
<polyline points="43.0,796.0,35.0,798.0,27.0,797.0,24.0,797.0,24.0,789.0,33.0,781.0" stroke="black" stroke-width="1" fill="none" />
<polyline points="27.0,777.0,20.0,785.0,20.0,793.0,24.0,801.0,31.0,802.0,39.0,801.0,50.0,795.0,53.0,788.0,64.0,785.0,72.0,786.0,80.0,788.0,88.0,786.0,96.0,786.0,101.0,780.0,109.0,786.0,117.0,786.0,117.0,789.0,127.0,786.0,135.0,786.0,143.0,785.0,151.0,786.0,159.0,787.0" stroke="black" stroke-width="1" fill="none" />
<polyline points="84.0,788.0,76.0,793.0,68.0,796.0,60.0,793.0,52.0,796.0,51.0,796.0,48.0,788.0,56.0,780.0" stroke="black" stroke-width="1" fill="none" />
</svg>