<svg xmlns="http://www.w3.org/2000/svg" height="437px" width="510px" version="1.1"><polyline points="242.0,1.0,235.0,9.0,230.0,17.0" stroke="black" stroke-width="1" fill="none" />
<polyline points="219.0,25.0,211.0,23.0" stroke="black" stroke-width="1" fill="none" />
<polyline points="211.0,23.0,212.0,31.0" stroke="black" stroke-width="1" fill="none" />
<polyline points="207.0,22.0,215.0,19.0,223.0,23.0,231.0,15.0,239.0,3.0,247.0,1.0,255.0,1.0,263.0,4.0,271.0,8.0,279.0,13.0,287.0,22.0,295.0,23.0,303.0,26.0,311.0,30.0,319.0,37.0,327.0,49.0,335.0,63.0,343.0,68.0,351.0,73.0,359.0,79.0,367.0,86.0,375.0,94.0,383.0,102.0,391.0,111.0,399.0,122.0,407.0,135.0,415.0,149.0,423.0,169.0" stroke="black" stroke-width="1" fill="none" />
<polyline points="430.0,234.0,448.0,226.0,465.0,218.0,485.0,210.0" stroke="black" stroke-width="1" fill="none" />
<polyline points="479.0,208.0,461.0,216.0,444.0,224.0" stroke="black" stroke-width="1" fill="none" />
<polyline points="475.0,240.0,483.0,233.0,491.0,237.0,499.0,243.0" stroke="black" stroke-width="1" fill="none" />
<polyline points="505.0,244.0,497.0,237.0,489.0,231.0" stroke="black" stroke-width="1" fill="none" />
<polyline points="488.0,229.0,496.0,224.0,504.0,221.0,508.0,219.0,491.0,227.0,493.0,235.0,503.0,243.0,510.0,251.0,502.0,259.0" stroke="black" stroke-width="1" fill="none" />
<polyline points="492.0,271.0,484.0,261.0" stroke="black" stroke-width="1" fill="none" />
<polyline points="483.0,257.0,486.0,265.0,492.0,273.0,493.0,281.0" stroke="black" stroke-width="1" fill="none" />
<polyline points="485.0,269.0,477.0,259.0,469.0,262.0" stroke="black" stroke-width="1" fill="none" />
<polyline points="478.0,260.0,483.0,268.0,489.0,276.0" stroke="black" stroke-width="1" fill="none" />
<polyline points="487.0,284.0,479.0,283.0,471.0,280.0,463.0,278.0,455.0,282.0,447.0,286.0,439.0,288.0,431.0,288.0,423.0,302.0,415.0,321.0,407.0,337.0,399.0,350.0,391.0,360.0,383.0,370.0,375.0,379.0,367.0,386.0,359.0,393.0,351.0,399.0,343.0,405.0,335.0,410.0,327.0,414.0,319.0,418.0,311.0,422.0,303.0,425.0,295.0,428.0,287.0,430.0,279.0,432.0,271.0,434.0,263.0,435.0,255.0,436.0,247.0,437.0,239.0,437.0,231.0,437.0,223.0,437.0,215.0,437.0,207.0,436.0,199.0,435.0,191.0,433.0,183.0,431.0,175.0,429.0,167.0,427.0,159.0,423.0,151.0,420.0,143.0,416.0,135.0,412.0,127.0,407.0,119.0,402.0,111.0,396.0,103.0,390.0,95.0,383.0,87.0,375.0,79.0,366.0,71.0,355.0,63.0,344.0,55.0,330.0,47.0,313.0,39.0,290.0" stroke="black" stroke-width="1" fill="none" />
<polyline points="30.0,269.0,38.0,271.0,46.0,266.0,54.0,262.0,62.0,257.0,70.0,253.0,78.0,253.0,86.0,255.0,94.0,259.0,102.0,260.0,111.0,256.0,128.0,264.0" stroke="black" stroke-width="1" fill="none" />
<polyline points="151.0,253.0,143.0,240.0" stroke="black" stroke-width="1" fill="none" />
<polyline points="142.0,238.0,150.0,232.0,158.0,227.0,166.0,232.0,174.0,238.0,182.0,243.0,190.0,248.0,198.0,253.0,206.0,259.0,214.0,264.0,222.0,269.0,230.0,275.0,238.0,280.0,246.0,285.0,254.0,290.0,262.0,296.0,270.0,301.0,278.0,306.0,282.0,316.0,280.0,324.0,286.0,332.0,293.0,340.0,304.0,348.0" stroke="black" stroke-width="1" fill="none" />
<polyline points="319.0,343.0,311.0,349.0,303.0,347.0,295.0,341.0,287.0,333.0,279.0,321.0" stroke="black" stroke-width="1" fill="none" />
<polyline points="278.0,319.0,286.0,314.0,294.0,317.0,302.0,322.0,310.0,327.0,318.0,333.0" stroke="black" stroke-width="1" fill="none" />
<polyline points="297.0,349.0,289.0,341.0,281.0,331.0,273.0,321.0,265.0,324.0,257.0,327.0,249.0,329.0,241.0,331.0,233.0,332.0,225.0,333.0,217.0,333.0" stroke="black" stroke-width="1" fill="none" />
<polyline points="216.0,331.0,224.0,330.0,232.0,329.0,240.0,328.0,248.0,326.0,256.0,324.0,264.0,321.0,272.0,317.0,280.0,313.0" stroke="black" stroke-width="1" fill="none" />
<polyline points="290.0,315.0,303.0,323.0,315.0,331.0,323.0,339.0,313.0,347.0" stroke="black" stroke-width="1" fill="none" />
<polyline points="302.0,355.0,294.0,359.0,286.0,363.0,278.0,366.0,270.0,369.0,262.0,371.0,254.0,373.0,246.0,374.0,238.0,374.0,230.0,374.0,222.0,374.0,214.0,373.0,206.0,372.0,198.0,370.0,190.0,367.0,182.0,364.0,174.0,361.0,166.0,357.0,158.0,352.0,150.0,346.0,142.0,339.0,134.0,332.0,126.0,322.0,118.0,311.0,110.0,297.0,102.0,277.0" stroke="black" stroke-width="1" fill="none" />
<polyline points="99.0,265.0,107.0,264.0,115.0,262.0,123.0,266.0,131.0,269.0,139.0,271.0,147.0,269.0" stroke="black" stroke-width="1" fill="none" />
<polyline points="152.0,264.0,152.0,256.0,148.0,248.0,142.0,240.0,150.0,232.0,148.0,227.0,140.0,233.0" stroke="black" stroke-width="1" fill="none" />
<polyline points="135.0,233.0,143.0,247.0" stroke="black" stroke-width="1" fill="none" />
<polyline points="146.0,264.0,147.0,256.0,143.0,248.0,138.0,240.0,134.0,232.0,143.0,231.0,150.0,223.0,139.0,215.0,126.0,207.0,114.0,199.0,106.0,199.0" stroke="black" stroke-width="1" fill="none" />
<polyline points="99.0,253.0,107.0,254.0,115.0,257.0,123.0,261.0,131.0,265.0,139.0,267.0,147.0,263.0" stroke="black" stroke-width="1" fill="none" />
<polyline points="158.0,228.0,170.0,236.0,182.0,244.0,195.0,252.0,207.0,260.0,219.0,268.0,231.0,276.0,243.0,284.0,255.0,292.0,267.0,300.0,280.0,308.0,273.0,316.0,254.0,324.0" stroke="black" stroke-width="1" fill="none" />
<polyline points="274.0,322.0,279.0,330.0,285.0,338.0,293.0,346.0,303.0,354.0,288.0,362.0" stroke="black" stroke-width="1" fill="none" />
<polyline points="337.0,268.0,345.0,273.0,353.0,278.0,361.0,282.0" stroke="black" stroke-width="1" fill="none" />
<polyline points="357.0,282.0,345.0,274.0,336.0,266.0,340.0,258.0,330.0,254.0" stroke="black" stroke-width="1" fill="none" />
<polyline points="345.0,258.0,361.0,266.0,364.0,274.0,361.0,282.0" stroke="black" stroke-width="1" fill="none" />
<polyline points="346.0,254.0,361.0,262.0,373.0,270.0,387.0,278.0,399.0,279.0,404.0,282.0,402.0,290.0,398.0,298.0,400.0,293.0" stroke="black" stroke-width="1" fill="none" />
<polyline points="399.0,302.0,407.0,303.0,415.0,297.0,423.0,289.0,431.0,283.0,439.0,278.0,428.0,284.0,419.0,292.0,411.0,300.0" stroke="black" stroke-width="1" fill="none" />
<polyline points="431.0,288.0,425.0,296.0,423.0,304.0,420.0,312.0,416.0,320.0,412.0,328.0,408.0,336.0,403.0,344.0,397.0,352.0,391.0,360.0,385.0,368.0,378.0,376.0,369.0,384.0,360.0,392.0,349.0,400.0,337.0,408.0,323.0,416.0,305.0,424.0" stroke="black" stroke-width="1" fill="none" />
<polyline points="159.0,424.0,141.0,416.0,127.0,408.0,115.0,400.0,105.0,392.0,96.0,384.0,87.0,376.0,80.0,368.0,74.0,360.0,68.0,352.0,62.0,344.0,58.0,336.0,53.0,328.0,50.0,320.0,46.0,312.0,43.0,304.0,41.0,296.0,38.0,288.0,36.0,280.0,26.0,272.0,26.0,264.0,32.0,256.0,31.0,248.0,26.0,246.0,18.0,247.0,10.0,247.0,2.0,241.0" stroke="black" stroke-width="1" fill="none" />
<polyline points="4.0,236.0,12.0,229.0,20.0,227.0,28.0,225.0,36.0,224.0,44.0,222.0" stroke="black" stroke-width="1" fill="none" />
<polyline points="48.0,205.0,40.0,196.0,32.0,190.0,24.0,183.0" stroke="black" stroke-width="1" fill="none" />
<polyline points="23.0,178.0,31.0,177.0,39.0,179.0,47.0,182.0,55.0,187.0,63.0,192.0,71.0,196.0,79.0,200.0,87.0,203.0,91.0,201.0" stroke="black" stroke-width="1" fill="none" />
<polyline points="82.0,254.0,99.0,266.0,101.0,274.0,103.0,282.0,106.0,290.0,110.0,298.0,114.0,306.0,119.0,314.0,125.0,322.0,132.0,330.0,140.0,338.0,149.0,346.0,161.0,354.0,175.0,362.0" stroke="black" stroke-width="1" fill="none" />
<polyline points="108.0,257.0,100.0,255.0" stroke="black" stroke-width="1" fill="none" />
<polyline points="66.0,254.0,53.0,262.0,39.0,270.0" stroke="black" stroke-width="1" fill="none" />
<polyline points="34.0,276.0,26.0,271.0" stroke="black" stroke-width="1" fill="none" />
<polyline points="49.0,248.0,41.0,254.0,33.0,261.0,28.0,261.0,29.0,267.0,36.0,259.0,45.0,251.0,45.0,243.0" stroke="black" stroke-width="1" fill="none" />
<polyline points="24.0,222.0,16.0,224.0,8.0,226.0,0.0,233.0" stroke="black" stroke-width="1" fill="none" />
<polyline points="1.0,240.0,1.0,232.0,13.0,224.0" stroke="black" stroke-width="1" fill="none" />
<polyline points="18.0,227.0,5.0,235.0,10.0,243.0,12.0,243.0,20.0,243.0,28.0,242.0,36.0,241.0,44.0,242.0,52.0,246.0" stroke="black" stroke-width="1" fill="none" />
<polyline points="33.0,196.0,25.0,189.0,17.0,179.0" stroke="black" stroke-width="1" fill="none" />
<polyline points="18.0,175.0,26.0,171.0,34.0,173.0,42.0,171.0,50.0,151.0,58.0,135.0,66.0,123.0,74.0,112.0,82.0,102.0,90.0,94.0,98.0,87.0,106.0,80.0,114.0,74.0,122.0,68.0,130.0,63.0,138.0,59.0,146.0,55.0,154.0,51.0,162.0,48.0,170.0,45.0,178.0,43.0,186.0,41.0,194.0,39.0,202.0,38.0,210.0,36.0" stroke="black" stroke-width="1" fill="none" />
<polyline points="209.0,19.0,207.0,27.0,211.0,35.0,218.0,35.0,226.0,36.0,234.0,37.0,242.0,42.0,250.0,36.0" stroke="black" stroke-width="1" fill="none" />
<polyline points="267.0,49.0,262.0,55.0,269.0,47.0" stroke="black" stroke-width="1" fill="none" />
<polyline points="273.0,48.0,265.0,56.0,270.0,51.0" stroke="black" stroke-width="1" fill="none" />
<polyline points="269.0,66.0,268.0,74.0,270.0,81.0" stroke="black" stroke-width="1" fill="none" />
<polyline points="276.0,79.0,276.0,71.0,274.0,67.0,266.0,70.0" stroke="black" stroke-width="1" fill="none" />
<polyline points="239.0,55.0,247.0,42.0,248.0,41.0,242.0,49.0,239.0,57.0,238.0,65.0,238.0,73.0,238.0,81.0,236.0,89.0,232.0,97.0,227.0,105.0,223.0,113.0,219.0,121.0,218.0,129.0,217.0,137.0,219.0,145.0,221.0,153.0,225.0,161.0,230.0,169.0" stroke="black" stroke-width="1" fill="none" />
<polyline points="228.0,164.0,220.0,149.0" stroke="black" stroke-width="1" fill="none" />
<polyline points="215.0,147.0,223.0,163.0,231.0,173.0" stroke="black" stroke-width="1" fill="none" />
<polyline points="225.0,168.0,220.0,160.0,216.0,152.0,214.0,144.0,213.0,136.0,215.0,122.0,218.0,114.0,222.0,106.0,220.0,102.0,212.0,103.0,204.0,104.0,196.0,107.0,188.0,109.0,180.0,112.0,172.0,115.0,164.0,119.0,156.0,124.0,148.0,130.0,140.0,137.0" stroke="black" stroke-width="1" fill="none" />
<polyline points="141.0,139.0,149.0,144.0,157.0,140.0,165.0,136.0,173.0,133.0,181.0,131.0,189.0,130.0,197.0,129.0,205.0,129.0,213.0,128.0,221.0,108.0" stroke="black" stroke-width="1" fill="none" />
<polyline points="219.0,121.0,227.0,105.0,235.0,92.0" stroke="black" stroke-width="1" fill="none" />
<polyline points="193.0,107.0,172.0,115.0,158.0,123.0,147.0,131.0,140.0,139.0,156.0,146.0,164.0,141.0,172.0,138.0,180.0,136.0,188.0,134.0,196.0,133.0,204.0,133.0,212.0,134.0" stroke="black" stroke-width="1" fill="none" />
<polyline points="181.0,135.0,160.0,143.0,159.0,151.0,171.0,159.0,183.0,167.0,195.0,175.0,207.0,183.0,219.0,191.0,231.0,199.0,243.0,207.0,256.0,215.0,268.0,223.0,280.0,231.0,292.0,239.0,304.0,247.0,316.0,255.0,329.0,263.0,343.0,257.0,351.0,260.0,359.0,264.0" stroke="black" stroke-width="1" fill="none" />
<polyline points="449.0,280.0,463.0,272.0,472.0,271.0" stroke="black" stroke-width="1" fill="none" />
<polyline points="462.0,278.0,445.0,286.0,442.0,282.0,450.0,279.0,458.0,276.0,466.0,271.0,471.0,276.0,479.0,278.0,487.0,278.0" stroke="black" stroke-width="1" fill="none" />
<polyline points="483.0,257.0,491.0,257.0,499.0,258.0,507.0,257.0" stroke="black" stroke-width="1" fill="none" />
<polyline points="497.0,253.0,489.0,252.0,481.0,252.0,473.0,254.0,468.0,260.0,479.0,252.0" stroke="black" stroke-width="1" fill="none" />
<polyline points="485.0,234.0,496.0,242.0,505.0,250.0" stroke="black" stroke-width="1" fill="none" />
<polyline points="499.0,218.0,491.0,221.0,483.0,226.0,475.0,236.0,476.0,234.0,483.0,226.0,498.0,218.0,504.0,210.0" stroke="black" stroke-width="1" fill="none" />
<polyline points="410.0,236.0,406.0,228.0,397.0,220.0,388.0,212.0,380.0,204.0,374.0,196.0,369.0,188.0,364.0,180.0,354.0,172.0" stroke="black" stroke-width="1" fill="none" />
<polyline points="351.0,171.0,343.0,179.0,346.0,176.0,354.0,171.0,362.0,177.0,370.0,189.0,378.0,200.0,386.0,209.0,394.0,216.0,402.0,223.0,410.0,230.0,412.0,236.0,416.0,239.0,424.0,237.0,432.0,233.0,440.0,230.0,448.0,226.0,456.0,223.0,464.0,219.0,472.0,215.0,480.0,212.0,488.0,210.0,496.0,209.0,504.0,210.0" stroke="black" stroke-width="1" fill="none" />
<polyline points="297.0,175.0,289.0,178.0,281.0,174.0" stroke="black" stroke-width="1" fill="none" />
<polyline points="280.0,170.0,284.0,178.0,283.0,171.0,291.0,175.0" stroke="black" stroke-width="1" fill="none" />
<polyline points="285.0,140.0,293.0,134.0" stroke="black" stroke-width="1" fill="none" />
<polyline points="293.0,134.0,299.0,142.0,297.0,150.0" stroke="black" stroke-width="1" fill="none" />
<polyline points="294.0,155.0,286.0,152.0,285.0,149.0,285.0,141.0,292.0,133.0" stroke="black" stroke-width="1" fill="none" />
<polyline points="291.0,115.0,283.0,110.0" stroke="black" stroke-width="1" fill="none" />
<polyline points="282.0,109.0,290.0,111.0" stroke="black" stroke-width="1" fill="none" />
<polyline points="288.0,116.0,283.0,108.0" stroke="black" stroke-width="1" fill="none" />
<polyline points="307.0,78.0,308.0,70.0,306.0,66.0,298.0,67.0" stroke="black" stroke-width="1" fill="none" />
<polyline points="300.0,65.0,300.0,73.0,299.0,76.0,307.0,78.0" stroke="black" stroke-width="1" fill="none" />
<polyline points="309.0,52.0,301.0,49.0" stroke="black" stroke-width="1" fill="none" />
<polyline points="303.0,47.0,307.0,55.0" stroke="black" stroke-width="1" fill="none" />
<polyline points="310.0,56.0,304.0,48.0" stroke="black" stroke-width="1" fill="none" />
<polyline points="295.0,28.0,310.0,36.0,317.0,44.0,322.0,52.0,326.0,60.0,328.0,68.0,332.0,76.0,335.0,84.0,340.0,92.0,347.0,100.0,353.0,108.0,358.0,116.0,362.0,124.0,363.0,132.0,363.0,140.0,361.0,148.0,357.0,156.0,352.0,164.0,346.0,172.0,339.0,180.0,345.0,173.0,353.0,162.0,361.0,147.0" stroke="black" stroke-width="1" fill="none" />
<polyline points="359.0,116.0,351.0,104.0,343.0,94.0,335.0,82.0,327.0,63.0,319.0,45.0,311.0,36.0,303.0,31.0,295.0,28.0,287.0,26.0,279.0,25.0,271.0,25.0" stroke="black" stroke-width="1" fill="none" />
<polyline points="271.0,23.0,279.0,21.0" stroke="black" stroke-width="1" fill="none" />
<polyline points="296.0,24.0,313.0,32.0,321.0,40.0,325.0,48.0,329.0,56.0,336.0,64.0,348.0,72.0,359.0,80.0,368.0,88.0,377.0,96.0,384.0,104.0,391.0,112.0,397.0,120.0,402.0,128.0,407.0,136.0,412.0,144.0,415.0,152.0,419.0,160.0,422.0,168.0,425.0,176.0,427.0,184.0,429.0,192.0,431.0,200.0,432.0,208.0,433.0,216.0,434.0,224.0,439.0,226.0,447.0,223.0,455.0,219.0,463.0,216.0,471.0,211.0,479.0,208.0,487.0,206.0,495.0,205.0,503.0,205.0" stroke="black" stroke-width="1" fill="none" />
<polyline points="402.0,277.0,396.0,282.0,388.0,278.0,380.0,274.0,372.0,269.0,364.0,263.0,356.0,258.0,348.0,254.0,340.0,253.0,332.0,251.0,331.0,263.0,323.0,259.0,315.0,253.0,307.0,248.0,299.0,243.0,291.0,238.0,283.0,232.0,275.0,227.0,267.0,222.0,259.0,216.0,251.0,211.0,243.0,206.0,235.0,201.0,227.0,195.0,219.0,190.0,211.0,185.0,203.0,179.0,195.0,174.0,187.0,169.0,179.0,163.0,171.0,158.0,163.0,153.0,152.0,143.0,166.0,135.0" stroke="black" stroke-width="1" fill="none" />
<polyline points="149.0,221.0,141.0,216.0,133.0,210.0,125.0,205.0,117.0,200.0,109.0,195.0,106.0,202.0,98.0,200.0,90.0,199.0,87.0,199.0,72.0,197.0,58.0,189.0,43.0,181.0,43.0,170.0,45.0,162.0,49.0,154.0,52.0,146.0,57.0,138.0,61.0,130.0,67.0,122.0,72.0,114.0,79.0,106.0,86.0,98.0,94.0,90.0,103.0,82.0,113.0,74.0,125.0,66.0,139.0,58.0,156.0,50.0,179.0,42.0" stroke="black" stroke-width="1" fill="none" />
<polyline points="246.0,5.0,238.0,13.0,233.0,21.0,223.0,29.0,225.0,28.0,233.0,21.0,241.0,8.0,249.0,5.0,257.0,6.0,265.0,10.0,273.0,14.0" stroke="black" stroke-width="1" fill="none" />
<polyline points="273.0,15.0,258.0,7.0" stroke="black" stroke-width="1" fill="none" />
<polyline points="257.0,2.0,273.0,10.0,284.0,18.0" stroke="black" stroke-width="1" fill="none" />
<polyline points="26.0,176.0,24.0,184.0,34.0,192.0,43.0,200.0,50.0,208.0,54.0,216.0,55.0,224.0,51.0,224.0,52.0,228.0" stroke="black" stroke-width="1" fill="none" />
<polyline points="31.0,220.0,33.0,212.0,34.0,204.0,32.0,196.0,22.0,188.0,18.0,180.0,21.0,172.0" stroke="black" stroke-width="1" fill="none" />
</svg>