<svg xmlns="http://www.w3.org/2000/svg" height="209px" width="273px" version="1.1"><polyline points="211.5,54.0,205.5,66.0,202.5,78.0,220.5,58.5" stroke="black" stroke-width="1" fill="none" />
<polyline points="219.0,57.0,214.5,69.0,214.5,90.0,231.0,102.0,240.0,114.0,243.0,126.0,243.0,138.0,238.5,150.0,229.5,162.0,219.0,178.5,222.0,190.5,225.0,202.5" stroke="black" stroke-width="1" fill="none" />
<polyline points="234.0,199.5,222.0,178.5,205.5,183.0,181.5,180.0,169.5,195.0,171.0,192.0,174.0,177.0,154.5,192.0,162.0,180.0,159.0,192.0,168.0,180.0,169.5,178.5,157.5,193.5,166.5,190.5,174.0,178.5,169.5,165.0,159.0,153.0,154.5,141.0,154.5,129.0,156.0,117.0,162.0,105.0,175.5,93.0,186.0,73.5,184.5,61.5,175.5,57.0" stroke="black" stroke-width="1" fill="none" />
<polyline points="175.5,57.0,175.5,69.0,178.5,81.0" stroke="black" stroke-width="1" fill="none" />
<polyline points="172.5,76.5,160.5,66.0" stroke="black" stroke-width="1" fill="none" />
<polyline points="162.0,69.0,169.5,81.0" stroke="black" stroke-width="1" fill="none" />
<polyline points="163.5,79.5,151.5,73.5" stroke="black" stroke-width="1" fill="none" />
<polyline points="157.5,72.0,165.0,84.0" stroke="black" stroke-width="1" fill="none" />
<polyline points="153.0,82.5,141.0,81.0" stroke="black" stroke-width="1" fill="none" />
<polyline points="142.5,76.5,150.0,88.5" stroke="black" stroke-width="1" fill="none" />
<polyline points="148.5,93.0,136.5,87.0" stroke="black" stroke-width="1" fill="none" />
<polyline points="136.5,90.0,150.0,102.0" stroke="black" stroke-width="1" fill="none" />
<polyline points="148.5,99.0,136.5,90.0" stroke="black" stroke-width="1" fill="none" />
<polyline points="129.0,96.0,141.0,99.0,153.0,106.5" stroke="black" stroke-width="1" fill="none" />
<polyline points="162.0,118.5,174.0,117.0,180.0,118.5,178.5,130.5,172.5,142.5,175.5,147.0,190.5,124.5,204.0,126.0,211.5,139.5,216.0,142.5,219.0,154.5,214.5,154.5" stroke="black" stroke-width="1" fill="none" />
<polyline points="226.5,144.0,214.5,124.5" stroke="black" stroke-width="1" fill="none" />
<polyline points="213.0,123.0,222.0,135.0,226.5,147.0" stroke="black" stroke-width="1" fill="none" />
<polyline points="237.0,139.5,237.0,127.5,237.0,123.0,225.0,117.0,213.0,120.0" stroke="black" stroke-width="1" fill="none" />
<polyline points="214.5,118.5,205.5,127.5,210.0,139.5,214.5,151.5,210.0,163.5" stroke="black" stroke-width="1" fill="none" />
<polyline points="223.5,157.5,220.5,145.5,220.5,141.0,208.5,129.0" stroke="black" stroke-width="1" fill="none" />
<polyline points="193.5,141.0,201.0,135.0,205.5,147.0,207.0,159.0" stroke="black" stroke-width="1" fill="none" />
<polyline points="192.0,162.0,192.0,150.0,195.0,138.0,184.5,144.0" stroke="black" stroke-width="1" fill="none" />
<polyline points="183.0,139.5,180.0,151.5" stroke="black" stroke-width="1" fill="none" />
<polyline points="180.0,147.0,187.5,139.5,183.0,151.5,180.0,163.5" stroke="black" stroke-width="1" fill="none" />
<polyline points="174.0,156.0,177.0,144.0,183.0,132.0,174.0,136.5,162.0,141.0" stroke="black" stroke-width="1" fill="none" />
<polyline points="145.5,123.0,133.5,118.5,121.5,123.0" stroke="black" stroke-width="1" fill="none" />
<polyline points="124.5,123.0,136.5,124.5" stroke="black" stroke-width="1" fill="none" />
<polyline points="139.5,115.5,127.5,112.5" stroke="black" stroke-width="1" fill="none" />
<polyline points="123.0,111.0,135.0,108.0,147.0,114.0" stroke="black" stroke-width="1" fill="none" />
<polyline points="141.0,105.0,129.0,99.0" stroke="black" stroke-width="1" fill="none" />
<polyline points="129.0,99.0,148.5,111.0,163.5,103.5,175.5,93.0,187.5,88.5,199.5,87.0,211.5,88.5,223.5,94.5,235.5,105.0,252.0,109.5,264.0,106.5" stroke="black" stroke-width="1" fill="none" />
<polyline points="264.0,123.0,252.0,123.0" stroke="black" stroke-width="1" fill="none" />
<polyline points="253.5,126.0,265.5,127.5" stroke="black" stroke-width="1" fill="none" />
<polyline points="265.5,138.0,253.5,135.0" stroke="black" stroke-width="1" fill="none" />
<polyline points="250.5,135.0,262.5,133.5" stroke="black" stroke-width="1" fill="none" />
<polyline points="262.5,142.5,250.5,139.5" stroke="black" stroke-width="1" fill="none" />
<polyline points="252.0,144.0,264.0,148.5" stroke="black" stroke-width="1" fill="none" />
<polyline points="250.5,157.5,262.5,166.5" stroke="black" stroke-width="1" fill="none" />
<polyline points="271.5,151.5,258.0,147.0,252.0,133.5,249.0,117.0,253.5,103.5,264.0,99.0,252.0,105.0,259.5,96.0,261.0,96.0,249.0,100.5,256.5,91.5,259.5,82.5,247.5,88.5" stroke="black" stroke-width="1" fill="none" />
<polyline points="244.5,87.0,253.5,75.0" stroke="black" stroke-width="1" fill="none" />
<polyline points="249.0,75.0,249.0,90.0,243.0,103.5,244.5,97.5,256.5,91.5" stroke="black" stroke-width="1" fill="none" />
<polyline points="273.0,108.0,261.0,112.5,249.0,115.5" stroke="black" stroke-width="1" fill="none" />
<polyline points="250.5,118.5,262.5,117.0" stroke="black" stroke-width="1" fill="none" />
<polyline points="258.0,156.0,246.0,156.0" stroke="black" stroke-width="1" fill="none" />
<polyline points="244.5,156.0,253.5,168.0" stroke="black" stroke-width="1" fill="none" />
<polyline points="256.5,175.5,244.5,165.0" stroke="black" stroke-width="1" fill="none" />
<polyline points="241.5,168.0,253.5,180.0" stroke="black" stroke-width="1" fill="none" />
<polyline points="252.0,165.0,240.0,163.5" stroke="black" stroke-width="1" fill="none" />
<polyline points="240.0,166.5,250.5,178.5" stroke="black" stroke-width="1" fill="none" />
<polyline points="250.5,184.5,238.5,171.0,226.5,174.0" stroke="black" stroke-width="1" fill="none" />
<polyline points="226.5,174.0,231.0,186.0,235.5,198.0" stroke="black" stroke-width="1" fill="none" />
<polyline points="217.5,195.0,214.5,183.0" stroke="black" stroke-width="1" fill="none" />
<polyline points="211.5,181.5,213.0,193.5,208.5,202.5" stroke="black" stroke-width="1" fill="none" />
<polyline points="202.5,198.0,202.5,186.0" stroke="black" stroke-width="1" fill="none" />
<polyline points="205.5,183.0,207.0,195.0,210.0,207.0" stroke="black" stroke-width="1" fill="none" />
<polyline points="198.0,196.5,198.0,184.5" stroke="black" stroke-width="1" fill="none" />
<polyline points="195.0,183.0,192.0,195.0,190.5,207.0" stroke="black" stroke-width="1" fill="none" />
<polyline points="186.0,208.5,187.5,196.5,189.0,184.5" stroke="black" stroke-width="1" fill="none" />
<polyline points="190.5,184.5,178.5,202.5,181.5,195.0,186.0,183.0" stroke="black" stroke-width="1" fill="none" />
<polyline points="181.5,183.0,175.5,195.0,175.5,195.0" stroke="black" stroke-width="1" fill="none" />
<polyline points="154.5,174.0,144.0,187.5,151.5,175.5,156.0,166.5,144.0,174.0,147.0,172.5,148.5,166.5,136.5,174.0,144.0,168.0,147.0,156.0,135.0,160.5,148.5,160.5,147.0,162.0,135.0,165.0" stroke="black" stroke-width="1" fill="none" />
<polyline points="124.5,154.5,136.5,150.0" stroke="black" stroke-width="1" fill="none" />
<polyline points="124.5,145.5,136.5,145.5,148.5,144.0,132.0,163.5,133.5,156.0,145.5,153.0,160.5,153.0,172.5,166.5,184.5,174.0,196.5,175.5,208.5,174.0,220.5,169.5,232.5,159.0,247.5,148.5,259.5,153.0" stroke="black" stroke-width="1" fill="none" />
<polyline points="237.0,171.0,247.5,183.0" stroke="black" stroke-width="1" fill="none" />
<polyline points="235.5,186.0,229.5,174.0" stroke="black" stroke-width="1" fill="none" />
<polyline points="234.0,169.5,240.0,181.5" stroke="black" stroke-width="1" fill="none" />
<polyline points="228.0,192.0,223.5,180.0" stroke="black" stroke-width="1" fill="none" />
<polyline points="219.0,106.5,207.0,109.5,195.0,111.0,183.0,108.0,171.0,106.5" stroke="black" stroke-width="1" fill="none" />
<polyline points="168.0,115.5,160.5,127.5,160.5,139.5,165.0,151.5,181.5,165.0,199.5,169.5,214.5,165.0" stroke="black" stroke-width="1" fill="none" />
<polyline points="144.0,139.5,132.0,139.5,120.0,144.0" stroke="black" stroke-width="1" fill="none" />
<polyline points="124.5,135.0,136.5,135.0" stroke="black" stroke-width="1" fill="none" />
<polyline points="133.5,129.0,121.5,130.5" stroke="black" stroke-width="1" fill="none" />
<polyline points="160.5,93.0,150.0,81.0" stroke="black" stroke-width="1" fill="none" />
<polyline points="171.0,76.5,165.0,64.5" stroke="black" stroke-width="1" fill="none" />
<polyline points="163.5,63.0,151.5,75.0,160.5,87.0" stroke="black" stroke-width="1" fill="none" />
<polyline points="190.5,93.0,171.0,103.5,183.0,96.0,195.0,93.0,207.0,93.0,219.0,99.0" stroke="black" stroke-width="1" fill="none" />
<polyline points="244.5,87.0,234.0,90.0,235.5,81.0,243.0,69.0" stroke="black" stroke-width="1" fill="none" />
<polyline points="240.0,67.5,231.0,79.5,238.5,85.5,238.5,78.0,244.5,79.5" stroke="black" stroke-width="1" fill="none" />
<polyline points="238.5,69.0,226.5,85.5,228.0,76.5,234.0,64.5" stroke="black" stroke-width="1" fill="none" />
<polyline points="229.5,61.5,223.5,73.5,225.0,79.5" stroke="black" stroke-width="1" fill="none" />
<polyline points="231.0,63.0,219.0,81.0,219.0,72.0,222.0,60.0" stroke="black" stroke-width="1" fill="none" />
<polyline points="211.5,55.5,210.0,67.5,216.0,78.0" stroke="black" stroke-width="1" fill="none" />
<polyline points="195.0,69.0,195.0,57.0,183.0,57.0" stroke="black" stroke-width="1" fill="none" />
<polyline points="187.5,57.0,190.5,69.0" stroke="black" stroke-width="1" fill="none" />
<polyline points="180.0,70.5,175.5,58.5" stroke="black" stroke-width="1" fill="none" />
<polyline points="198.0,55.5,201.0,67.5,199.5,79.5" stroke="black" stroke-width="1" fill="none" />
</svg>