<svg xmlns="http://www.w3.org/2000/svg" height="626px" width="471px" version="1.1"><polyline points="168.0,46.0,149.0,54.0,132.0,62.0,119.0,70.0,109.0,78.0,99.0,86.0,90.0,94.0,83.0,102.0,77.0,110.0,71.0,118.0,66.0,126.0,62.0,134.0,58.0,142.0,55.0,150.0,53.0,158.0,51.0,166.0,49.0,174.0,48.0,182.0,47.0,190.0,47.0,198.0,46.0,206.0,47.0,214.0,47.0,222.0,47.0,230.0,49.0,238.0,50.0,246.0,51.0,254.0,53.0,262.0,55.0,270.0,61.0,278.0" stroke="black" stroke-width="1" fill="none" />
<polyline points="56.0,271.0,64.0,278.0,72.0,280.0,80.0,282.0,88.0,284.0,96.0,286.0,104.0,288.0,112.0,290.0,120.0,292.0,128.0,293.0,136.0,295.0,144.0,297.0,152.0,297.0" stroke="black" stroke-width="1" fill="none" />
<polyline points="142.0,157.0,150.0,139.0,158.0,126.0,166.0,117.0,174.0,109.0,182.0,103.0,190.0,98.0,198.0,95.0,206.0,93.0,214.0,91.0,222.0,90.0,230.0,89.0,238.0,90.0,246.0,91.0,254.0,92.0,262.0,95.0,270.0,98.0,278.0,103.0,286.0,109.0,294.0,117.0,302.0,128.0,310.0,143.0" stroke="black" stroke-width="1" fill="none" />
<polyline points="255.0,93.0,274.0,101.0,285.0,109.0,293.0,117.0,300.0,125.0,304.0,133.0,309.0,141.0,312.0,149.0,314.0,157.0,316.0,165.0,316.0,173.0,316.0,181.0,316.0,189.0,316.0,197.0,315.0,205.0,315.0,213.0,314.0,221.0,313.0,229.0,311.0,237.0,308.0,245.0,305.0,253.0,301.0,261.0,296.0,269.0,291.0,277.0,286.0,285.0,280.0,293.0,275.0,301.0,269.0,309.0,262.0,317.0,255.0,325.0,248.0,333.0,242.0,341.0,234.0,349.0,227.0,357.0,219.0,365.0,211.0,373.0,204.0,381.0,196.0,389.0,188.0,397.0,180.0,405.0,172.0,413.0,164.0,421.0,155.0,429.0,147.0,437.0,139.0,445.0,131.0,453.0,123.0,461.0,114.0,469.0,106.0,477.0,98.0,485.0,91.0,493.0,83.0,501.0,75.0,509.0,67.0,517.0,60.0,525.0,52.0,533.0,45.0,541.0,40.0,549.0,40.0,557.0,40.0,565.0,40.0,573.0,40.0,581.0,40.0,589.0,40.0,597.0,39.0,605.0,39.0,613.0,39.0,621.0,42.0,626.0,50.0,626.0,58.0,626.0,66.0,626.0,74.0,626.0,82.0,626.0,90.0,626.0,98.0,626.0,106.0,626.0,114.0,626.0,122.0,626.0,130.0,626.0,138.0,626.0,146.0,626.0,154.0,626.0,162.0,626.0,170.0,626.0,178.0,626.0,186.0,626.0,194.0,626.0,202.0,626.0,210.0,626.0,218.0,626.0,226.0,626.0,234.0,626.0,242.0,626.0,250.0,626.0,258.0,626.0,266.0,626.0,274.0,626.0,282.0,626.0,290.0,626.0,298.0,626.0,306.0,626.0,314.0,626.0,322.0,626.0,330.0,626.0,338.0,626.0,346.0,626.0,354.0,626.0,362.0,626.0,370.0,626.0,378.0,626.0,386.0,626.0,394.0,626.0,402.0,626.0,410.0,626.0,418.0,626.0,426.0,626.0,434.0,626.0,442.0,626.0,450.0,626.0,458.0,626.0" stroke="black" stroke-width="1" fill="none" />
<polyline points="463.0,620.0,463.0,612.0,463.0,604.0,463.0,596.0,463.0,588.0,463.0,580.0,463.0,572.0,463.0,564.0,463.0,556.0,463.0,548.0,463.0,540.0,463.0,532.0,463.0,524.0,463.0,516.0,463.0,508.0,463.0,500.0,461.0,494.0,453.0,494.0,445.0,494.0,437.0,494.0,429.0,494.0,421.0,494.0,413.0,494.0,405.0,494.0,397.0,494.0,389.0,494.0,381.0,494.0,373.0,494.0,365.0,494.0,357.0,494.0,349.0,494.0,341.0,494.0,333.0,494.0,325.0,494.0,317.0,494.0,309.0,494.0,301.0,494.0,293.0,494.0,285.0,494.0,277.0,494.0,269.0,494.0,261.0,494.0,253.0,494.0,245.0,494.0,237.0,494.0,229.0,494.0,221.0,494.0" stroke="black" stroke-width="1" fill="none" />
<polyline points="40.0,547.0,48.0,538.0,56.0,529.0,64.0,520.0,72.0,512.0,80.0,504.0,88.0,495.0,96.0,487.0,104.0,479.0,112.0,471.0,120.0,463.0,128.0,456.0,136.0,448.0,144.0,440.0,152.0,432.0,160.0,424.0,168.0,417.0,176.0,409.0,184.0,401.0,192.0,393.0,200.0,385.0,208.0,377.0,216.0,368.0,224.0,360.0,232.0,351.0,240.0,343.0,248.0,333.0,256.0,324.0,264.0,314.0,272.0,304.0,280.0,293.0,288.0,282.0,296.0,269.0,304.0,254.0" stroke="black" stroke-width="1" fill="none" />
<polyline points="151.0,295.0,149.0,287.0,146.0,279.0,144.0,271.0,142.0,263.0,140.0,255.0,138.0,247.0,137.0,239.0,136.0,231.0,135.0,223.0,135.0,215.0,135.0,207.0,135.0,199.0,136.0,191.0,136.0,183.0,138.0,175.0,140.0,167.0,142.0,159.0,145.0,151.0,148.0,143.0,152.0,135.0,157.0,127.0,164.0,119.0,172.0,111.0,182.0,103.0,197.0,95.0" stroke="black" stroke-width="1" fill="none" />
<polyline points="55.0,150.0,63.0,131.0,71.0,118.0,79.0,107.0,87.0,97.0,95.0,89.0,103.0,82.0,111.0,76.0,119.0,70.0,127.0,65.0,135.0,61.0,143.0,57.0,151.0,53.0,159.0,50.0,167.0,47.0,175.0,45.0,183.0,42.0,191.0,40.0,199.0,38.0,207.0,37.0,215.0,36.0,223.0,35.0,231.0,35.0,239.0,34.0,247.0,34.0,255.0,34.0,263.0,34.0,271.0,34.0,279.0,35.0,287.0,36.0,295.0,37.0,303.0,38.0,311.0,39.0,319.0,40.0,327.0,42.0,335.0,44.0,343.0,46.0,351.0,49.0,359.0,51.0,367.0,55.0,375.0,58.0,383.0,61.0,391.0,65.0,399.0,70.0,407.0,75.0,415.0,80.0,423.0,87.0,431.0,94.0,439.0,102.0,447.0,113.0,455.0,126.0,463.0,144.0" stroke="black" stroke-width="1" fill="none" />
<polyline points="455.0,260.0,447.0,275.0,439.0,287.0,431.0,299.0,423.0,309.0,415.0,318.0,407.0,327.0,399.0,336.0,391.0,344.0,383.0,351.0,375.0,358.0,367.0,365.0,359.0,371.0,351.0,378.0,343.0,384.0,335.0,391.0,327.0,398.0,319.0,404.0,311.0,411.0,303.0,418.0,295.0,425.0,287.0,432.0,279.0,439.0,271.0,446.0,263.0,453.0,255.0,461.0,247.0,468.0,239.0,475.0,231.0,483.0,223.0,490.0,222.0,490.0,232.0,482.0,240.0,474.0,249.0,466.0,258.0,458.0,267.0,450.0,275.0,442.0,284.0,434.0,293.0,426.0,303.0,418.0,312.0,410.0,322.0,402.0,332.0,394.0,341.0,386.0,351.0,378.0,360.0,370.0,370.0,362.0,379.0,354.0,388.0,346.0,397.0,338.0,404.0,330.0,412.0,322.0,419.0,314.0,426.0,306.0,432.0,298.0,438.0,290.0,443.0,282.0,448.0,274.0,452.0,266.0,456.0,258.0,459.0,250.0,462.0,242.0,465.0,234.0,467.0,226.0,469.0,218.0,470.0,210.0,470.0,202.0,471.0,194.0,470.0,186.0,470.0,178.0,469.0,170.0,467.0,162.0,466.0,154.0,463.0,146.0,460.0,138.0,457.0,130.0,452.0,122.0,447.0,114.0,441.0,106.0,434.0,98.0,425.0,90.0,416.0,82.0,404.0,74.0,391.0,66.0,375.0,58.0,354.0,50.0" stroke="black" stroke-width="1" fill="none" />
</svg>