<svg xmlns="http://www.w3.org/2000/svg" height="681px" width="511px" version="1.1"><polyline points="123.0,0.0,126.0,8.0,127.0,6.0" stroke="black" stroke-width="1" fill="none" />
<polyline points="101.0,3.0,118.0,11.0,132.0,19.0,143.0,27.0,151.0,35.0,157.0,34.0" stroke="black" stroke-width="1" fill="none" />
<polyline points="163.0,46.0,171.0,49.0,182.0,46.0" stroke="black" stroke-width="1" fill="none" />
<polyline points="189.0,53.0,188.0,61.0,193.0,64.0,195.0,67.0,202.0,72.0,196.0,79.0,195.0,87.0,198.0,97.0,195.0,105.0,197.0,107.0,197.0,112.0,202.0,101.0,211.0,101.0" stroke="black" stroke-width="1" fill="none" />
<polyline points="209.0,101.0,209.0,109.0,214.0,110.0" stroke="black" stroke-width="1" fill="none" />
<polyline points="207.0,126.0,211.0,134.0,215.0,137.0,209.0,149.0" stroke="black" stroke-width="1" fill="none" />
<polyline points="215.0,134.0,207.0,126.0" stroke="black" stroke-width="1" fill="none" />
<polyline points="232.0,115.0,240.0,113.0,248.0,104.0" stroke="black" stroke-width="1" fill="none" />
<polyline points="243.0,119.0,251.0,115.0,256.0,111.0,264.0,112.0,272.0,112.0,280.0,112.0" stroke="black" stroke-width="1" fill="none" />
<polyline points="284.0,118.0,293.0,126.0,305.0,134.0,309.0,144.0,314.0,152.0,319.0,160.0,324.0,168.0,335.0,175.0,336.0,181.0,338.0,189.0,344.0,197.0,348.0,205.0,350.0,213.0,352.0,221.0,354.0,229.0,354.0,237.0,354.0,245.0,355.0,253.0,355.0,261.0,355.0,269.0,355.0,277.0,355.0,285.0,356.0,293.0,356.0,301.0,357.0,309.0" stroke="black" stroke-width="1" fill="none" />
<polyline points="364.0,317.0,365.0,325.0,366.0,333.0,374.0,342.0,376.0,350.0,375.0,358.0,381.0,366.0,390.0,369.0,396.0,377.0,401.0,386.0,408.0,394.0,413.0,402.0,416.0,405.0" stroke="black" stroke-width="1" fill="none" />
<polyline points="429.0,409.0,421.0,394.0,420.0,383.0,412.0,372.0,404.0,360.0,396.0,350.0" stroke="black" stroke-width="1" fill="none" />
<polyline points="396.0,350.0,401.0,358.0,407.0,366.0,413.0,374.0,419.0,382.0,418.0,390.0,422.0,398.0,427.0,406.0" stroke="black" stroke-width="1" fill="none" />
<polyline points="446.0,403.0,454.0,399.0,462.0,395.0,470.0,391.0,478.0,387.0,486.0,383.0,494.0,379.0,507.0,378.0" stroke="black" stroke-width="1" fill="none" />
<polyline points="508.0,377.0,494.0,379.0,478.0,387.0,462.0,395.0,446.0,403.0,451.0,411.0,450.0,419.0,445.0,427.0,448.0,429.0" stroke="black" stroke-width="1" fill="none" />
<polyline points="462.0,439.0,470.0,433.0,478.0,429.0,486.0,424.0,494.0,420.0,502.0,415.0,493.0,420.0,480.0,428.0,464.0,436.0,464.0,444.0,465.0,452.0,465.0,459.0,472.0,466.0,478.0,476.0,483.0,489.0,486.0,498.0,487.0,511.0,495.0,511.0,501.0,519.0,509.0,511.0,506.0,520.0,501.0,528.0,504.0,536.0,507.0,544.0,509.0,552.0,508.0,560.0,509.0,568.0" stroke="black" stroke-width="1" fill="none" />
<polyline points="502.0,578.0,505.0,586.0,508.0,589.0" stroke="black" stroke-width="1" fill="none" />
<polyline points="510.0,581.0,502.0,578.0" stroke="black" stroke-width="1" fill="none" />
<polyline points="491.0,587.0,483.0,589.0" stroke="black" stroke-width="1" fill="none" />
<polyline points="480.0,591.0,488.0,592.0,496.0,591.0" stroke="black" stroke-width="1" fill="none" />
<polyline points="503.0,586.0,489.0,581.0,481.0,584.0,473.0,591.0" stroke="black" stroke-width="1" fill="none" />
<polyline points="478.0,592.0,486.0,585.0,494.0,583.0,496.0,578.0,498.0,583.0,503.0,581.0" stroke="black" stroke-width="1" fill="none" />
<polyline points="505.0,599.0,497.0,599.0,489.0,601.0,481.0,605.0" stroke="black" stroke-width="1" fill="none" />
<polyline points="489.0,603.0,479.0,611.0,479.0,619.0,480.0,627.0,482.0,635.0,483.0,643.0,486.0,651.0,488.0,659.0,489.0,667.0,488.0,675.0" stroke="black" stroke-width="1" fill="none" />
<polyline points="484.0,672.0,476.0,666.0,468.0,659.0" stroke="black" stroke-width="1" fill="none" />
<polyline points="468.0,659.0,476.0,667.0,486.0,675.0" stroke="black" stroke-width="1" fill="none" />
<polyline points="476.0,614.0,472.0,602.0,473.0,594.0,477.0,586.0,487.0,577.0,488.0,564.0,480.0,556.0,485.0,548.0,488.0,546.0,480.0,553.0" stroke="black" stroke-width="1" fill="none" />
<polyline points="480.0,534.0,478.0,543.0,470.0,551.0,469.0,552.0,477.0,544.0,477.0,536.0,481.0,540.0,489.0,541.0,498.0,551.0,506.0,554.0" stroke="black" stroke-width="1" fill="none" />
<polyline points="504.0,535.0,502.0,518.0,510.0,510.0,503.0,523.0,495.0,523.0,493.0,514.0,492.0,505.0,489.0,497.0,476.0,493.0,468.0,493.0,460.0,494.0" stroke="black" stroke-width="1" fill="none" />
<polyline points="466.0,497.0,461.0,500.0,469.0,497.0,477.0,496.0" stroke="black" stroke-width="1" fill="none" />
<polyline points="475.0,509.0,467.0,510.0" stroke="black" stroke-width="1" fill="none" />
<polyline points="464.0,509.0,472.0,507.0,480.0,506.0,488.0,505.0" stroke="black" stroke-width="1" fill="none" />
<polyline points="484.0,502.0,476.0,503.0,468.0,505.0,460.0,504.0" stroke="black" stroke-width="1" fill="none" />
<polyline points="473.0,519.0,470.0,527.0,463.0,535.0,461.0,539.0,469.0,528.0" stroke="black" stroke-width="1" fill="none" />
<polyline points="489.0,516.0,495.0,524.0,493.0,532.0,502.0,540.0,494.0,548.0,497.0,546.0" stroke="black" stroke-width="1" fill="none" />
<polyline points="506.0,508.0,506.0,508.0,498.0,516.0,490.0,508.0,490.0,498.0,482.0,485.0,474.0,482.0,466.0,484.0,458.0,487.0,466.0,479.0,458.0,480.0" stroke="black" stroke-width="1" fill="none" />
<polyline points="461.0,474.0,469.0,474.0" stroke="black" stroke-width="1" fill="none" />
<polyline points="466.0,468.0,458.0,469.0" stroke="black" stroke-width="1" fill="none" />
<polyline points="444.0,458.0,435.0,455.0" stroke="black" stroke-width="1" fill="none" />
<polyline points="433.0,463.0,441.0,477.0" stroke="black" stroke-width="1" fill="none" />
<polyline points="440.0,477.0,436.0,469.0,434.0,461.0,426.0,453.0,419.0,445.0,411.0,437.0,414.0,432.0,408.0,427.0,402.0,419.0,394.0,411.0,386.0,403.0,375.0,387.0" stroke="black" stroke-width="1" fill="none" />
<polyline points="375.0,387.0,379.0,395.0,382.0,403.0,388.0,411.0,393.0,419.0,400.0,427.0,405.0,435.0,403.0,443.0,403.0,451.0" stroke="black" stroke-width="1" fill="none" />
<polyline points="421.0,436.0,413.0,425.0,405.0,413.0,397.0,404.0" stroke="black" stroke-width="1" fill="none" />
<polyline points="400.0,404.0,407.0,412.0,413.0,420.0,418.0,428.0,424.0,436.0" stroke="black" stroke-width="1" fill="none" />
<polyline points="438.0,406.0,439.0,398.0,432.0,390.0,432.0,382.0,432.0,374.0,431.0,366.0,419.0,356.0" stroke="black" stroke-width="1" fill="none" />
<polyline points="428.0,352.0,436.0,349.0,444.0,347.0,452.0,344.0,461.0,347.0,469.0,344.0,477.0,341.0,485.0,340.0,493.0,341.0" stroke="black" stroke-width="1" fill="none" />
<polyline points="503.0,333.0,507.0,325.0,505.0,321.0,497.0,318.0" stroke="black" stroke-width="1" fill="none" />
<polyline points="497.0,318.0,489.0,326.0,496.0,331.0,480.0,346.0,460.0,354.0,442.0,361.0,450.0,358.0,458.0,355.0,466.0,352.0,474.0,349.0,482.0,345.0,489.0,336.0,502.0,334.0,508.0,331.0" stroke="black" stroke-width="1" fill="none" />
<polyline points="495.0,326.0,490.0,333.0,486.0,329.0,484.0,321.0" stroke="black" stroke-width="1" fill="none" />
<polyline points="477.0,310.0,469.0,312.0,461.0,315.0,453.0,317.0,445.0,320.0,437.0,321.0,429.0,324.0,421.0,326.0,413.0,328.0,405.0,319.0,398.0,311.0,386.0,309.0,387.0,307.0,379.0,303.0" stroke="black" stroke-width="1" fill="none" />
<polyline points="379.0,301.0,382.0,309.0,382.0,317.0,390.0,325.0,395.0,333.0,402.0,341.0,408.0,349.0" stroke="black" stroke-width="1" fill="none" />
<polyline points="406.0,346.0,398.0,335.0,390.0,324.0,389.0,319.0,381.0,316.0" stroke="black" stroke-width="1" fill="none" />
<polyline points="377.0,303.0,385.0,303.0,393.0,305.0,401.0,313.0,409.0,324.0,415.0,335.0,418.0,343.0,422.0,351.0,428.0,359.0,428.0,367.0,428.0,375.0,437.0,384.0,441.0,392.0,442.0,404.0,444.0,412.0,452.0,415.0,452.0,423.0,454.0,431.0,453.0,439.0" stroke="black" stroke-width="1" fill="none" />
<polyline points="428.0,437.0,423.0,429.0,420.0,421.0,415.0,413.0,410.0,405.0,404.0,397.0,399.0,389.0,394.0,381.0,388.0,373.0,382.0,365.0,379.0,357.0,375.0,347.0" stroke="black" stroke-width="1" fill="none" />
<polyline points="379.0,342.0,387.0,355.0,393.0,364.0,401.0,375.0,407.0,387.0,419.0,390.0,427.0,398.0,435.0,415.0" stroke="black" stroke-width="1" fill="none" />
<polyline points="448.0,406.0,454.0,424.0,462.0,425.0,466.0,420.0,474.0,419.0,484.0,418.0" stroke="black" stroke-width="1" fill="none" />
<polyline points="481.0,420.0,464.0,428.0" stroke="black" stroke-width="1" fill="none" />
<polyline points="469.0,418.0,461.0,426.0,458.0,431.0,464.0,433.0,472.0,428.0,480.0,424.0,488.0,420.0,496.0,414.0" stroke="black" stroke-width="1" fill="none" />
<polyline points="496.0,414.0,484.0,422.0,468.0,430.0,463.0,429.0,471.0,425.0,479.0,421.0,484.0,413.0,492.0,412.0,500.0,412.0" stroke="black" stroke-width="1" fill="none" />
<polyline points="492.0,445.0,500.0,443.0,502.0,447.0,492.0,455.0,481.0,463.0,476.0,459.0,484.0,454.0,492.0,448.0,500.0,447.0,508.0,445.0,503.0,451.0,492.0,459.0,481.0,467.0,482.0,467.0,490.0,461.0,498.0,455.0,506.0,448.0" stroke="black" stroke-width="1" fill="none" />
<polyline points="495.0,447.0,482.0,455.0" stroke="black" stroke-width="1" fill="none" />
<polyline points="468.0,461.0,461.0,455.0,453.0,456.0,445.0,455.0,437.0,450.0,429.0,437.0,421.0,423.0,413.0,408.0,405.0,398.0,397.0,385.0" stroke="black" stroke-width="1" fill="none" />
<polyline points="391.0,387.0,383.0,377.0" stroke="black" stroke-width="1" fill="none" />
<polyline points="383.0,377.0,389.0,385.0,393.0,390.0,392.0,395.0,400.0,403.0,408.0,412.0,416.0,423.0,424.0,436.0" stroke="black" stroke-width="1" fill="none" />
<polyline points="398.0,439.0,390.0,423.0" stroke="black" stroke-width="1" fill="none" />
<polyline points="390.0,423.0,393.0,431.0,397.0,439.0,400.0,447.0" stroke="black" stroke-width="1" fill="none" />
<polyline points="397.0,458.0,389.0,442.0,381.0,428.0" stroke="black" stroke-width="1" fill="none" />
<polyline points="375.0,441.0,379.0,449.0" stroke="black" stroke-width="1" fill="none" />
<polyline points="374.0,447.0,382.0,462.0,391.0,471.0,399.0,473.0" stroke="black" stroke-width="1" fill="none" />
<polyline points="390.0,471.0,386.0,468.0,381.0,460.0,377.0,452.0,373.0,444.0,371.0,438.0,367.0,428.0,363.0,419.0,360.0,411.0,355.0,408.0,355.0,400.0,353.0,392.0,343.0,384.0,332.0,376.0,319.0,368.0,305.0,355.0" stroke="black" stroke-width="1" fill="none" />
<polyline points="305.0,355.0,308.0,363.0,314.0,368.0,316.0,376.0,320.0,384.0,323.0,392.0,329.0,400.0,336.0,408.0,338.0,416.0,343.0,424.0" stroke="black" stroke-width="1" fill="none" />
<polyline points="342.0,421.0,332.0,415.0,324.0,400.0" stroke="black" stroke-width="1" fill="none" />
<polyline points="324.0,400.0,328.0,408.0,332.0,416.0" stroke="black" stroke-width="1" fill="none" />
<polyline points="340.0,412.0,346.0,420.0,352.0,428.0,359.0,436.0,364.0,444.0,369.0,452.0,374.0,460.0,380.0,470.0" stroke="black" stroke-width="1" fill="none" />
<polyline points="361.0,463.0,353.0,461.0,345.0,455.0" stroke="black" stroke-width="1" fill="none" />
<polyline points="342.0,456.0,350.0,463.0,358.0,467.0,366.0,469.0,374.0,472.0" stroke="black" stroke-width="1" fill="none" />
<polyline points="365.0,451.0,357.0,447.0,349.0,444.0,341.0,440.0" stroke="black" stroke-width="1" fill="none" />
<polyline points="345.0,446.0,337.0,445.0,329.0,440.0" stroke="black" stroke-width="1" fill="none" />
<polyline points="328.0,430.0,320.0,417.0" stroke="black" stroke-width="1" fill="none" />
<polyline points="317.0,406.0,319.0,414.0,322.0,422.0,327.0,430.0,333.0,437.0,336.0,445.0,341.0,445.0,361.0,449.0,365.0,457.0,372.0,464.0,380.0,472.0,381.0,480.0,381.0,488.0,381.0,496.0,380.0,504.0,379.0,512.0,379.0,520.0,379.0,528.0,379.0,536.0,378.0,544.0,378.0,552.0,378.0,560.0,378.0,568.0,378.0,576.0,379.0,583.0,387.0,580.0,395.0,578.0,403.0,576.0,411.0,574.0,419.0,572.0,427.0,569.0,435.0,561.0" stroke="black" stroke-width="1" fill="none" />
<polyline points="429.0,531.0,421.0,508.0,413.0,490.0" stroke="black" stroke-width="1" fill="none" />
<polyline points="416.0,490.0,420.0,498.0,423.0,506.0,425.0,514.0,428.0,522.0,431.0,530.0,431.0,538.0,437.0,552.0,436.0,560.0,428.0,568.0" stroke="black" stroke-width="1" fill="none" />
<polyline points="428.0,554.0,420.0,552.0,412.0,549.0,404.0,545.0,396.0,542.0" stroke="black" stroke-width="1" fill="none" />
<polyline points="384.0,520.0,390.0,528.0,400.0,536.0,418.0,544.0,430.0,556.0" stroke="black" stroke-width="1" fill="none" />
<polyline points="440.0,551.0,432.0,548.0,424.0,546.0,416.0,543.0,408.0,539.0,400.0,535.0,392.0,529.0,384.0,520.0" stroke="black" stroke-width="1" fill="none" />
<polyline points="404.0,518.0,406.0,510.0,406.0,502.0,407.0,494.0,406.0,486.0" stroke="black" stroke-width="1" fill="none" />
<polyline points="425.0,445.0,413.0,435.0,405.0,427.0,397.0,419.0,389.0,411.0,381.0,400.0" stroke="black" stroke-width="1" fill="none" />
<polyline points="385.0,401.0,393.0,408.0,401.0,416.0,409.0,425.0,417.0,435.0,425.0,444.0,433.0,449.0,439.0,461.0,440.0,466.0,448.0,474.0,458.0,473.0,466.0,472.0,474.0,472.0" stroke="black" stroke-width="1" fill="none" />
<polyline points="476.0,480.0,468.0,477.0,460.0,477.0,453.0,476.0,445.0,471.0,437.0,462.0,429.0,455.0,421.0,446.0,414.0,439.0,407.0,430.0,399.0,425.0,391.0,417.0" stroke="black" stroke-width="1" fill="none" />
<polyline points="394.0,417.0,402.0,425.0,412.0,434.0,406.0,441.0,405.0,449.0,405.0,457.0,406.0,465.0,409.0,473.0,412.0,481.0,416.0,489.0,417.0,497.0,420.0,505.0,422.0,513.0,425.0,521.0,428.0,529.0,434.0,538.0,439.0,546.0" stroke="black" stroke-width="1" fill="none" />
<polyline points="443.0,551.0,435.0,539.0,427.0,518.0,419.0,494.0,411.0,478.0,401.0,465.0,396.0,457.0,392.0,449.0,387.0,441.0,383.0,433.0,379.0,425.0,375.0,417.0,371.0,409.0,367.0,401.0,364.0,393.0,362.0,390.0" stroke="black" stroke-width="1" fill="none" />
<polyline points="371.0,390.0,375.0,398.0,374.0,406.0,378.0,414.0,380.0,422.0,385.0,430.0,389.0,438.0,393.0,446.0" stroke="black" stroke-width="1" fill="none" />
<polyline points="394.0,442.0,390.0,434.0,387.0,426.0,384.0,418.0,379.0,410.0,376.0,402.0,371.0,400.0" stroke="black" stroke-width="1" fill="none" />
<polyline points="367.0,400.0,375.0,417.0,383.0,426.0,391.0,441.0" stroke="black" stroke-width="1" fill="none" />
<polyline points="415.0,399.0,407.0,392.0,399.0,382.0,391.0,376.0,391.0,369.0,383.0,365.0,375.0,357.0" stroke="black" stroke-width="1" fill="none" />
<polyline points="366.0,346.0,370.0,354.0,373.0,362.0,375.0,370.0,379.0,378.0,385.0,386.0,390.0,394.0,398.0,402.0,402.0,410.0,408.0,418.0,413.0,426.0,419.0,434.0,426.0,442.0,434.0,451.0,439.0,453.0,442.0,461.0,449.0,467.0,458.0,465.0,466.0,465.0,474.0,466.0,482.0,462.0,490.0,457.0,498.0,451.0" stroke="black" stroke-width="1" fill="none" />
<polyline points="507.0,481.0,499.0,488.0,499.0,488.0,510.0,480.0" stroke="black" stroke-width="1" fill="none" />
<polyline points="488.0,491.0,480.0,492.0,472.0,490.0,460.0,491.0,452.0,495.0,455.0,493.0,468.0,485.0" stroke="black" stroke-width="1" fill="none" />
<polyline points="467.0,386.0,456.0,388.0,448.0,391.0,440.0,389.0,432.0,374.0" stroke="black" stroke-width="1" fill="none" />
<polyline points="416.0,371.0,424.0,381.0,432.0,398.0" stroke="black" stroke-width="1" fill="none" />
<polyline points="439.0,396.0,435.0,389.0,425.0,378.0,417.0,366.0,415.0,358.0,407.0,352.0,399.0,343.0" stroke="black" stroke-width="1" fill="none" />
<polyline points="399.0,343.0,405.0,351.0,415.0,359.0,421.0,367.0,425.0,378.0,421.0,391.0,427.0,399.0,431.0,407.0,434.0,415.0,438.0,423.0" stroke="black" stroke-width="1" fill="none" />
<polyline points="430.0,394.0,426.0,386.0,421.0,378.0,419.0,370.0,420.0,359.0,417.0,351.0,415.0,343.0,413.0,335.0,409.0,326.0,415.0,318.0,406.0,313.0,400.0,305.0,391.0,297.0,389.0,290.0,385.0,278.0,390.0,270.0,389.0,269.0,381.0,273.0" stroke="black" stroke-width="1" fill="none" />
<polyline points="386.0,266.0,394.0,268.0" stroke="black" stroke-width="1" fill="none" />
<polyline points="398.0,258.0,390.0,263.0,382.0,268.0,381.0,269.0,390.0,263.0,390.0,255.0,393.0,247.0,384.0,241.0,387.0,233.0,397.0,225.0,405.0,219.0,408.0,210.0,406.0,202.0,409.0,194.0,407.0,186.0,410.0,178.0,407.0,169.0,403.0,165.0" stroke="black" stroke-width="1" fill="none" />
<polyline points="415.0,178.0,423.0,178.0,436.0,178.0" stroke="black" stroke-width="1" fill="none" />
<polyline points="438.0,170.0,430.0,170.0" stroke="black" stroke-width="1" fill="none" />
<polyline points="412.0,186.0,414.0,194.0,410.0,201.0,414.0,205.0,414.0,216.0,419.0,220.0,419.0,228.0,418.0,236.0,418.0,244.0,417.0,252.0,416.0,260.0,413.0,268.0,412.0,276.0,416.0,278.0,415.0,286.0" stroke="black" stroke-width="1" fill="none" />
<polyline points="405.0,312.0,413.0,308.0,421.0,307.0,429.0,305.0,437.0,303.0,445.0,302.0,453.0,301.0,461.0,299.0,469.0,298.0" stroke="black" stroke-width="1" fill="none" />
<polyline points="468.0,279.0,466.0,276.0,458.0,279.0,450.0,275.0" stroke="black" stroke-width="1" fill="none" />
<polyline points="450.0,275.0,460.0,286.0,468.0,294.0" stroke="black" stroke-width="1" fill="none" />
<polyline points="494.0,258.0,502.0,259.0" stroke="black" stroke-width="1" fill="none" />
<polyline points="494.0,220.0,484.0,224.0,479.0,226.0,491.0,218.0" stroke="black" stroke-width="1" fill="none" />
<polyline points="435.0,231.0,432.0,225.0,425.0,229.0,418.0,233.0" stroke="black" stroke-width="1" fill="none" />
<polyline points="410.0,240.0,413.0,237.0,421.0,233.0,422.0,241.0,421.0,249.0,420.0,257.0,420.0,265.0,422.0,273.0,419.0,281.0,420.0,286.0,428.0,286.0,436.0,284.0,444.0,283.0,452.0,282.0,460.0,285.0,468.0,293.0" stroke="black" stroke-width="1" fill="none" />
<polyline points="504.0,303.0,496.0,304.0,488.0,306.0,480.0,306.0,472.0,307.0,464.0,309.0,456.0,312.0,448.0,315.0,440.0,317.0,432.0,320.0,424.0,322.0,416.0,324.0" stroke="black" stroke-width="1" fill="none" />
<polyline points="416.0,336.0,424.0,352.0,432.0,364.0,440.0,361.0,448.0,355.0,456.0,352.0,464.0,349.0" stroke="black" stroke-width="1" fill="none" />
<polyline points="467.0,348.0,446.0,356.0" stroke="black" stroke-width="1" fill="none" />
<polyline points="456.0,342.0,475.0,341.0" stroke="black" stroke-width="1" fill="none" />
<polyline points="494.0,360.0,502.0,361.0" stroke="black" stroke-width="1" fill="none" />
<polyline points="505.0,372.0,497.0,372.0,489.0,375.0,481.0,377.0,473.0,380.0,465.0,384.0,474.0,379.0" stroke="black" stroke-width="1" fill="none" />
<polyline points="483.0,381.0,475.0,385.0,467.0,389.0,459.0,393.0,451.0,397.0,443.0,401.0,457.0,394.0,473.0,386.0,488.0,378.0" stroke="black" stroke-width="1" fill="none" />
<polyline points="488.0,368.0,470.0,376.0,455.0,384.0,455.0,384.0,463.0,379.0,471.0,375.0,479.0,372.0,487.0,369.0,496.0,367.0,508.0,364.0" stroke="black" stroke-width="1" fill="none" />
<polyline points="455.0,309.0,447.0,311.0,439.0,314.0,431.0,315.0,423.0,317.0,415.0,318.0,407.0,315.0" stroke="black" stroke-width="1" fill="none" />
<polyline points="408.0,303.0,401.0,305.0,393.0,297.0,385.0,291.0,377.0,291.0" stroke="black" stroke-width="1" fill="none" />
<polyline points="372.0,284.0,380.0,285.0,388.0,289.0,396.0,291.0,404.0,290.0,412.0,289.0" stroke="black" stroke-width="1" fill="none" />
<polyline points="416.0,258.0,406.0,275.0,390.0,281.0,394.0,276.0,398.0,276.0,406.0,271.0,409.0,263.0,410.0,255.0,412.0,243.0,410.0,241.0,407.0,230.0,405.0,222.0,405.0,222.0" stroke="black" stroke-width="1" fill="none" />
<polyline points="414.0,214.0,424.0,215.0,423.0,223.0,426.0,228.0,431.0,232.0,431.0,238.0" stroke="black" stroke-width="1" fill="none" />
<polyline points="425.0,250.0,424.0,258.0,425.0,266.0,427.0,265.0" stroke="black" stroke-width="1" fill="none" />
<polyline points="399.0,245.0,391.0,250.0" stroke="black" stroke-width="1" fill="none" />
<polyline points="397.0,239.0,393.0,236.0,385.0,238.0" stroke="black" stroke-width="1" fill="none" />
<polyline points="387.0,225.0,395.0,221.0,390.0,223.0,384.0,236.0,392.0,228.0,392.0,224.0,398.0,229.0,398.0,237.0,398.0,249.0,400.0,259.0,397.0,267.0" stroke="black" stroke-width="1" fill="none" />
<polyline points="376.0,255.0,368.0,252.0,364.0,243.0,366.0,237.0,361.0,231.0" stroke="black" stroke-width="1" fill="none" />
<polyline points="371.0,252.0,378.0,260.0" stroke="black" stroke-width="1" fill="none" />
<polyline points="359.0,287.0,360.0,295.0,361.0,303.0,363.0,311.0,369.0,313.0" stroke="black" stroke-width="1" fill="none" />
<polyline points="371.0,306.0,379.0,321.0,386.0,335.0,394.0,355.0,402.0,370.0,410.0,379.0,411.0,385.0,419.0,400.0,427.0,412.0,435.0,427.0,443.0,438.0,451.0,448.0,459.0,448.0" stroke="black" stroke-width="1" fill="none" />
<polyline points="395.0,443.0,387.0,424.0,379.0,406.0,371.0,390.0" stroke="black" stroke-width="1" fill="none" />
<polyline points="389.0,391.0,381.0,381.0,378.0,372.0,374.0,363.0,366.0,346.0" stroke="black" stroke-width="1" fill="none" />
<polyline points="379.0,339.0,382.0,347.0,386.0,355.0,392.0,364.0,398.0,372.0,404.0,380.0,407.0,388.0,413.0,396.0,418.0,404.0" stroke="black" stroke-width="1" fill="none" />
<polyline points="365.0,422.0,362.0,427.0,354.0,414.0,346.0,408.0,338.0,401.0" stroke="black" stroke-width="1" fill="none" />
<polyline points="338.0,401.0,346.0,409.0,356.0,417.0,361.0,425.0,365.0,433.0,374.0,438.0,382.0,455.0" stroke="black" stroke-width="1" fill="none" />
<polyline points="371.0,454.0,363.0,440.0,355.0,430.0,347.0,420.0,339.0,410.0,331.0,401.0,323.0,392.0,315.0,373.0" stroke="black" stroke-width="1" fill="none" />
<polyline points="313.0,364.0,321.0,369.0,329.0,373.0,337.0,379.0,345.0,385.0,353.0,391.0" stroke="black" stroke-width="1" fill="none" />
<polyline points="306.0,389.0,298.0,378.0" stroke="black" stroke-width="1" fill="none" />
<polyline points="298.0,378.0,303.0,386.0" stroke="black" stroke-width="1" fill="none" />
<polyline points="293.0,386.0,285.0,376.0,277.0,368.0" stroke="black" stroke-width="1" fill="none" />
<polyline points="277.0,368.0,284.0,376.0,291.0,384.0,297.0,392.0" stroke="black" stroke-width="1" fill="none" />
<polyline points="289.0,411.0,293.0,419.0,295.0,427.0,298.0,435.0,299.0,444.0,300.0,452.0,301.0,460.0,302.0,468.0,302.0,476.0" stroke="black" stroke-width="1" fill="none" />
<polyline points="300.0,492.0,296.0,500.0,297.0,508.0,299.0,516.0,300.0,524.0,302.0,532.0,305.0,540.0" stroke="black" stroke-width="1" fill="none" />
<polyline points="306.0,541.0,304.0,528.0" stroke="black" stroke-width="1" fill="none" />
<polyline points="307.0,537.0,304.0,529.0,302.0,521.0,300.0,513.0,300.0,505.0" stroke="black" stroke-width="1" fill="none" />
<polyline points="321.0,466.0,315.0,458.0,304.0,442.0" stroke="black" stroke-width="1" fill="none" />
<polyline points="305.0,430.0,305.0,438.0,306.0,446.0,306.0,454.0,312.0,455.0,315.0,463.0" stroke="black" stroke-width="1" fill="none" />
<polyline points="319.0,463.0,311.0,457.0" stroke="black" stroke-width="1" fill="none" />
<polyline points="342.0,453.0,352.0,461.0,360.0,469.0" stroke="black" stroke-width="1" fill="none" />
<polyline points="345.0,377.0,341.0,377.0,345.0,374.0,336.0,366.0,334.0,370.0,333.0,365.0,338.0,357.0,337.0,349.0,327.0,348.0,319.0,349.0,311.0,347.0,303.0,334.0,295.0,320.0" stroke="black" stroke-width="1" fill="none" />
<polyline points="294.0,318.0,298.0,326.0,303.0,334.0,307.0,342.0" stroke="black" stroke-width="1" fill="none" />
<polyline points="302.0,345.0,294.0,328.0" stroke="black" stroke-width="1" fill="none" />
<polyline points="294.0,328.0,297.0,336.0,300.0,344.0" stroke="black" stroke-width="1" fill="none" />
<polyline points="311.0,327.0,297.0,319.0" stroke="black" stroke-width="1" fill="none" />
<polyline points="294.0,318.0,302.0,322.0,310.0,326.0,318.0,330.0,326.0,331.0" stroke="black" stroke-width="1" fill="none" />
<polyline points="332.0,334.0,335.0,326.0,334.0,318.0" stroke="black" stroke-width="1" fill="none" />
<polyline points="334.0,317.0,332.0,325.0,334.0,335.0,332.0,341.0" stroke="black" stroke-width="1" fill="none" />
<polyline points="328.0,289.0,333.0,281.0,336.0,273.0,339.0,265.0,342.0,257.0,345.0,249.0,348.0,241.0,346.0,230.0,342.0,239.0,346.0,231.0,347.0,223.0,346.0,215.0,344.0,207.0,339.0,199.0,327.0,195.0,319.0,196.0,311.0,201.0,309.0,210.0,310.0,202.0,320.0,201.0,320.0,198.0" stroke="black" stroke-width="1" fill="none" />
<polyline points="327.0,199.0,315.0,207.0,315.0,207.0,323.0,204.0,331.0,199.0" stroke="black" stroke-width="1" fill="none" />
<polyline points="326.0,188.0,318.0,189.0" stroke="black" stroke-width="1" fill="none" />
<polyline points="333.0,171.0,325.0,161.0,317.0,147.0,309.0,139.0" stroke="black" stroke-width="1" fill="none" />
<polyline points="313.0,143.0,318.0,151.0,323.0,159.0,329.0,167.0,326.0,177.0,331.0,185.0,336.0,193.0,330.0,201.0,320.0,209.0,318.0,210.0,327.0,205.0" stroke="black" stroke-width="1" fill="none" />
<polyline points="313.0,232.0,316.0,234.0,318.0,242.0,316.0,244.0,326.0,248.0,318.0,256.0,300.0,264.0,289.0,268.0,297.0,266.0,305.0,262.0,313.0,259.0,321.0,255.0" stroke="black" stroke-width="1" fill="none" />
<polyline points="320.0,260.0,302.0,269.0,310.0,267.0,318.0,262.0" stroke="black" stroke-width="1" fill="none" />
<polyline points="339.0,264.0,331.0,285.0,323.0,294.0,315.0,297.0,307.0,298.0,299.0,296.0,291.0,290.0" stroke="black" stroke-width="1" fill="none" />
<polyline points="288.0,272.0,296.0,273.0,304.0,275.0,312.0,274.0,320.0,268.0,328.0,256.0,329.0,255.0,324.0,263.0,317.0,271.0" stroke="black" stroke-width="1" fill="none" />
<polyline points="279.0,227.0,271.0,229.0,270.0,227.0,262.0,229.0,254.0,230.0" stroke="black" stroke-width="1" fill="none" />
<polyline points="238.0,227.0,246.0,220.0,254.0,215.0,262.0,212.0,270.0,213.0" stroke="black" stroke-width="1" fill="none" />
<polyline points="264.0,211.0,247.0,219.0,238.0,227.0,238.0,236.0,240.0,244.0,244.0,252.0,249.0,260.0,254.0,268.0,259.0,276.0,267.0,284.0,281.0,292.0" stroke="black" stroke-width="1" fill="none" />
<polyline points="293.0,294.0,281.0,291.0,273.0,287.0,265.0,281.0,257.0,272.0,249.0,258.0,241.0,246.0" stroke="black" stroke-width="1" fill="none" />
<polyline points="265.0,217.0,257.0,225.0,257.0,225.0,265.0,217.0,273.0,216.0,281.0,221.0" stroke="black" stroke-width="1" fill="none" />
<polyline points="304.0,186.0,296.0,174.0" stroke="black" stroke-width="1" fill="none" />
<polyline points="296.0,174.0,300.0,182.0,303.0,190.0" stroke="black" stroke-width="1" fill="none" />
<polyline points="289.0,201.0,286.0,189.0,285.0,181.0,283.0,173.0" stroke="black" stroke-width="1" fill="none" />
<polyline points="289.0,168.0,292.0,176.0,294.0,184.0,297.0,192.0,299.0,200.0,293.0,203.0" stroke="black" stroke-width="1" fill="none" />
<polyline points="281.0,222.0,273.0,211.0,277.0,207.0,276.0,199.0,276.0,191.0,275.0,183.0,276.0,175.0,275.0,167.0" stroke="black" stroke-width="1" fill="none" />
<polyline points="294.0,149.0,302.0,152.0,310.0,160.0,318.0,166.0" stroke="black" stroke-width="1" fill="none" />
<polyline points="320.0,142.0,312.0,133.0,304.0,125.0,296.0,120.0,288.0,119.0,280.0,117.0,272.0,118.0,264.0,117.0" stroke="black" stroke-width="1" fill="none" />
<polyline points="265.0,114.0,257.0,117.0,253.0,116.0,251.0,107.0,255.0,99.0,254.0,95.0,265.0,88.0,266.0,80.0,266.0,72.0,271.0,63.0,268.0,55.0,268.0,52.0,276.0,48.0,280.0,43.0,279.0,35.0,277.0,34.0,278.0,28.0,282.0,20.0,286.0,18.0,278.0,23.0" stroke="black" stroke-width="1" fill="none" />
<polyline points="279.0,27.0,290.0,19.0,290.0,27.0,290.0,35.0,289.0,49.0,284.0,51.0,275.0,56.0,286.0,58.0,276.0,64.0,273.0,72.0,275.0,80.0,271.0,88.0,275.0,96.0,278.0,101.0,272.0,104.0,285.0,107.0,293.0,110.0,300.0,112.0,308.0,112.0,306.0,96.0,305.0,101.0,304.0,109.0,308.0,118.0,316.0,123.0,318.0,112.0,325.0,104.0,330.0,111.0,334.0,114.0" stroke="black" stroke-width="1" fill="none" />
<polyline points="325.0,114.0,322.0,122.0,325.0,131.0,329.0,138.0,337.0,140.0,339.0,154.0,347.0,172.0,351.0,184.0,352.0,189.0,360.0,198.0" stroke="black" stroke-width="1" fill="none" />
<polyline points="341.0,191.0,333.0,177.0,328.0,171.0,320.0,161.0,312.0,148.0,304.0,132.0,296.0,127.0,288.0,122.0" stroke="black" stroke-width="1" fill="none" />
<polyline points="293.0,118.0,304.0,126.0,312.0,134.0,319.0,142.0" stroke="black" stroke-width="1" fill="none" />
<polyline points="296.0,150.0,306.0,158.0,317.0,166.0,325.0,174.0,332.0,185.0,339.0,198.0" stroke="black" stroke-width="1" fill="none" />
<polyline points="357.0,195.0,351.0,184.0,349.0,176.0" stroke="black" stroke-width="1" fill="none" />
<polyline points="367.0,146.0,364.0,138.0" stroke="black" stroke-width="1" fill="none" />
<polyline points="398.0,140.0,410.0,148.0,406.0,155.0" stroke="black" stroke-width="1" fill="none" />
<polyline points="387.0,192.0,397.0,200.0,398.0,208.0,405.0,215.0,409.0,206.0,414.0,202.0" stroke="black" stroke-width="1" fill="none" />
<polyline points="393.0,217.0,385.0,217.0,380.0,219.0,381.0,218.0,387.0,210.0,387.0,210.0" stroke="black" stroke-width="1" fill="none" />
<polyline points="395.0,198.0,387.0,192.0" stroke="black" stroke-width="1" fill="none" />
<polyline points="412.0,110.0,401.0,107.0" stroke="black" stroke-width="1" fill="none" />
<polyline points="409.0,94.0,407.0,86.0,410.0,84.0,410.0,76.0,409.0,60.0,401.0,62.0,393.0,63.0" stroke="black" stroke-width="1" fill="none" />
<polyline points="392.0,62.0,396.0,57.0,394.0,65.0,401.0,65.0,385.0,73.0,393.0,76.0" stroke="black" stroke-width="1" fill="none" />
<polyline points="394.0,80.0,386.0,80.0,378.0,79.0,372.0,79.0,366.0,78.0,366.0,70.0,370.0,68.0,366.0,60.0,367.0,52.0,363.0,51.0,355.0,52.0,347.0,55.0" stroke="black" stroke-width="1" fill="none" />
<polyline points="353.0,57.0,355.0,65.0,355.0,76.0,363.0,81.0,384.0,83.0,385.0,95.0,383.0,99.0,386.0,109.0,380.0,111.0,386.0,118.0,385.0,130.0,392.0,124.0" stroke="black" stroke-width="1" fill="none" />
<polyline points="391.0,94.0,383.0,95.0" stroke="black" stroke-width="1" fill="none" />
<polyline points="381.0,91.0,379.0,99.0,373.0,107.0,369.0,115.0,369.0,110.0,377.0,110.0,385.0,110.0,393.0,104.0,405.0,98.0" stroke="black" stroke-width="1" fill="none" />
<polyline points="421.0,97.0,427.0,94.0,422.0,100.0" stroke="black" stroke-width="1" fill="none" />
<polyline points="435.0,96.0,443.0,91.0" stroke="black" stroke-width="1" fill="none" />
<polyline points="453.0,96.0,454.0,88.0,458.0,80.0,464.0,76.0,456.0,83.0" stroke="black" stroke-width="1" fill="none" />
<polyline points="460.0,81.0,459.0,89.0,463.0,91.0,471.0,90.0" stroke="black" stroke-width="1" fill="none" />
<polyline points="484.0,76.0,489.0,68.0,489.0,60.0,489.0,65.0,493.0,58.0,496.0,50.0,493.0,42.0,491.0,36.0,490.0,29.0,494.0,21.0,482.0,16.0,477.0,8.0,474.0,5.0,479.0,1.0,471.0,9.0" stroke="black" stroke-width="1" fill="none" />
<polyline points="470.0,2.0,469.0,10.0,469.0,18.0,466.0,26.0,463.0,34.0,459.0,42.0,462.0,50.0,465.0,50.0" stroke="black" stroke-width="1" fill="none" />
<polyline points="468.0,52.0,476.0,39.0,474.0,41.0,470.0,49.0,467.0,57.0,468.0,65.0,465.0,73.0,463.0,81.0,462.0,89.0,453.0,89.0,457.0,98.0" stroke="black" stroke-width="1" fill="none" />
<polyline points="446.0,78.0,444.0,86.0,438.0,97.0,438.0,105.0,437.0,109.0" stroke="black" stroke-width="1" fill="none" />
<polyline points="436.0,121.0,435.0,129.0" stroke="black" stroke-width="1" fill="none" />
<polyline points="454.0,74.0,454.0,76.0,451.0,84.0,461.0,70.0,470.0,62.0,482.0,72.0" stroke="black" stroke-width="1" fill="none" />
<polyline points="482.0,55.0,490.0,50.0,482.0,55.0,483.0,63.0,488.0,63.0,494.0,57.0" stroke="black" stroke-width="1" fill="none" />
<polyline points="501.0,63.0,500.0,71.0,490.0,76.0" stroke="black" stroke-width="1" fill="none" />
<polyline points="489.0,42.0,492.0,34.0" stroke="black" stroke-width="1" fill="none" />
<polyline points="479.0,39.0,478.0,47.0,478.0,55.0,479.0,63.0,473.0,69.0,476.0,71.0,470.0,76.0,469.0,80.0,487.0,83.0,473.0,91.0,476.0,99.0,478.0,91.0,479.0,81.0,484.0,81.0" stroke="black" stroke-width="1" fill="none" />
<polyline points="494.0,76.0,486.0,74.0,482.0,67.0,470.0,60.0,457.0,57.0,456.0,62.0,465.0,50.0,469.0,42.0,470.0,34.0,473.0,26.0,477.0,18.0,474.0,13.0,466.0,9.0,466.0,1.0,465.0,3.0" stroke="black" stroke-width="1" fill="none" />
<polyline points="463.0,20.0,461.0,28.0" stroke="black" stroke-width="1" fill="none" />
<polyline points="463.0,20.0,471.0,16.0,475.0,17.0" stroke="black" stroke-width="1" fill="none" />
<polyline points="488.0,5.0,491.0,0.0,488.0,8.0,480.0,10.0,482.0,13.0,489.0,19.0,492.0,16.0,495.0,3.0,508.0,2.0" stroke="black" stroke-width="1" fill="none" />
<polyline points="509.0,0.0,493.0,4.0,491.0,12.0" stroke="black" stroke-width="1" fill="none" />
<polyline points="499.0,2.0,497.0,10.0,492.0,16.0,498.0,26.0" stroke="black" stroke-width="1" fill="none" />
<polyline points="507.0,42.0,504.0,50.0,506.0,60.0,511.0,64.0" stroke="black" stroke-width="1" fill="none" />
<polyline points="469.0,35.0,477.0,20.0" stroke="black" stroke-width="1" fill="none" />
<polyline points="453.0,31.0,445.0,30.0" stroke="black" stroke-width="1" fill="none" />
<polyline points="443.0,42.0,451.0,47.0" stroke="black" stroke-width="1" fill="none" />
<polyline points="430.0,52.0,421.0,56.0,418.0,61.0,425.0,53.0,431.0,47.0,432.0,39.0,439.0,28.0,441.0,20.0,441.0,12.0,441.0,4.0,433.0,5.0" stroke="black" stroke-width="1" fill="none" />
<polyline points="434.0,4.0,433.0,12.0,432.0,20.0,426.0,28.0,418.0,38.0,416.0,46.0,416.0,54.0,415.0,62.0" stroke="black" stroke-width="1" fill="none" />
<polyline points="417.0,73.0,413.0,81.0,413.0,89.0,411.0,97.0,412.0,105.0,416.0,110.0,415.0,119.0" stroke="black" stroke-width="1" fill="none" />
<polyline points="371.0,132.0,376.0,124.0,369.0,129.0,362.0,127.0,354.0,133.0,363.0,125.0,366.0,115.0,366.0,107.0,372.0,103.0,371.0,96.0,369.0,88.0,377.0,76.0,373.0,79.0" stroke="black" stroke-width="1" fill="none" />
<polyline points="383.0,72.0,389.0,80.0" stroke="black" stroke-width="1" fill="none" />
<polyline points="373.0,93.0,365.0,91.0,362.0,101.0,358.0,100.0,352.0,102.0,342.0,103.0,338.0,97.0,338.0,91.0,340.0,92.0,344.0,84.0" stroke="black" stroke-width="1" fill="none" />
<polyline points="355.0,89.0,354.0,97.0,348.0,106.0" stroke="black" stroke-width="1" fill="none" />
<polyline points="347.0,101.0,339.0,105.0,331.0,104.0" stroke="black" stroke-width="1" fill="none" />
<polyline points="334.0,104.0,331.0,106.0,328.0,115.0,328.0,125.0,335.0,127.0,334.0,125.0,342.0,126.0,350.0,126.0,358.0,128.0" stroke="black" stroke-width="1" fill="none" />
<polyline points="340.0,129.0,343.0,121.0,342.0,110.0,347.0,101.0,348.0,93.0,353.0,85.0,351.0,78.0,354.0,70.0,351.0,62.0,347.0,55.0,354.0,47.0,355.0,39.0,358.0,39.0,351.0,36.0,353.0,29.0,355.0,28.0,347.0,32.0" stroke="black" stroke-width="1" fill="none" />
<polyline points="346.0,17.0,346.0,13.0,354.0,15.0" stroke="black" stroke-width="1" fill="none" />
<polyline points="369.0,21.0,372.0,20.0,374.0,28.0,364.0,36.0,359.0,42.0,367.0,35.0,374.0,33.0,374.0,26.0,384.0,20.0,387.0,23.0" stroke="black" stroke-width="1" fill="none" />
<polyline points="401.0,24.0,409.0,21.0,412.0,31.0" stroke="black" stroke-width="1" fill="none" />
<polyline points="426.0,28.0,421.0,25.0,416.0,27.0,418.0,19.0,416.0,11.0,415.0,12.0,410.0,12.0,412.0,4.0,410.0,5.0" stroke="black" stroke-width="1" fill="none" />
<polyline points="404.0,0.0,401.0,0.0,400.0,8.0,400.0,13.0,401.0,21.0,406.0,27.0,403.0,35.0,405.0,43.0,397.0,40.0,390.0,41.0,398.0,36.0,409.0,36.0,416.0,43.0,424.0,35.0,436.0,27.0,447.0,18.0,451.0,19.0,459.0,11.0,453.0,4.0,458.0,12.0,450.0,20.0,455.0,21.0,455.0,29.0,454.0,38.0,452.0,46.0,445.0,51.0,446.0,56.0,446.0,64.0,442.0,68.0,442.0,76.0,442.0,84.0" stroke="black" stroke-width="1" fill="none" />
<polyline points="426.0,67.0,421.0,75.0,422.0,83.0,426.0,88.0,422.0,96.0,427.0,102.0,423.0,116.0,424.0,119.0" stroke="black" stroke-width="1" fill="none" />
<polyline points="424.0,69.0,415.0,74.0,405.0,75.0,395.0,71.0,386.0,69.0,386.0,58.0,376.0,52.0,372.0,44.0,372.0,36.0,378.0,22.0,370.0,21.0" stroke="black" stroke-width="1" fill="none" />
<polyline points="376.0,10.0,384.0,11.0,391.0,10.0,393.0,4.0" stroke="black" stroke-width="1" fill="none" />
<polyline points="397.0,0.0,395.0,8.0,386.0,9.0,382.0,19.0,386.0,22.0,384.0,35.0,381.0,37.0,380.0,45.0,382.0,51.0,371.0,62.0,378.0,57.0,380.0,53.0,384.0,41.0,385.0,35.0,386.0,28.0" stroke="black" stroke-width="1" fill="none" />
<polyline points="395.0,11.0,397.0,16.0,399.0,24.0,401.0,32.0,396.0,41.0,407.0,39.0" stroke="black" stroke-width="1" fill="none" />
<polyline points="399.0,58.0,399.0,66.0,403.0,74.0" stroke="black" stroke-width="1" fill="none" />
<polyline points="363.0,66.0,355.0,63.0" stroke="black" stroke-width="1" fill="none" />
<polyline points="337.0,49.0,343.0,45.0,341.0,41.0,346.0,31.0,346.0,23.0,337.0,13.0" stroke="black" stroke-width="1" fill="none" />
<polyline points="329.0,9.0,334.0,17.0,331.0,25.0,330.0,33.0,329.0,41.0,329.0,49.0,321.0,57.0,317.0,57.0,309.0,59.0,312.0,54.0,320.0,51.0,323.0,57.0,328.0,57.0" stroke="black" stroke-width="1" fill="none" />
<polyline points="331.0,58.0,333.0,66.0,329.0,74.0,332.0,76.0,328.0,89.0,327.0,96.0,323.0,99.0,326.0,107.0,322.0,112.0,318.0,120.0,322.0,126.0,325.0,120.0,333.0,122.0,341.0,122.0,343.0,115.0" stroke="black" stroke-width="1" fill="none" />
<polyline points="362.0,127.0,364.0,124.0,363.0,111.0,363.0,106.0,362.0,101.0,360.0,94.0,365.0,91.0,370.0,88.0,362.0,87.0,354.0,90.0,345.0,85.0,340.0,92.0,335.0,89.0,321.0,94.0,319.0,86.0,321.0,79.0,322.0,71.0,320.0,74.0" stroke="black" stroke-width="1" fill="none" />
<polyline points="312.0,88.0,320.0,86.0,314.0,91.0,315.0,99.0,314.0,102.0,304.0,108.0,312.0,104.0" stroke="black" stroke-width="1" fill="none" />
<polyline points="298.0,111.0,309.0,119.0,319.0,127.0,328.0,135.0,333.0,144.0,337.0,152.0,340.0,160.0,345.0,168.0,346.0,176.0,348.0,184.0,354.0,192.0,356.0,200.0,358.0,208.0,361.0,216.0,363.0,224.0,360.0,231.0,363.0,239.0,366.0,247.0,366.0,255.0,367.0,263.0,366.0,271.0,372.0,279.0,369.0,287.0,371.0,295.0,373.0,303.0,373.0,311.0,377.0,319.0,381.0,327.0,385.0,335.0,389.0,343.0,392.0,351.0,395.0,359.0,400.0,367.0,404.0,375.0,409.0,383.0,414.0,391.0,418.0,399.0,423.0,407.0,428.0,415.0,432.0,423.0,437.0,431.0,440.0,439.0,445.0,441.0,451.0,449.0,462.0,450.0,460.0,457.0,455.0,466.0,453.0,474.0,455.0,481.0,450.0,481.0,455.0,481.0,459.0,483.0,467.0,481.0,471.0,485.0,479.0,487.0,486.0,497.0" stroke="black" stroke-width="1" fill="none" />
<polyline points="490.0,600.0,478.0,609.0,486.0,605.0,494.0,602.0,502.0,602.0,510.0,604.0" stroke="black" stroke-width="1" fill="none" />
<polyline points="473.0,607.0,481.0,596.0,478.0,598.0,474.0,606.0,473.0,614.0,475.0,622.0" stroke="black" stroke-width="1" fill="none" />
<polyline points="481.0,656.0,473.0,654.0,465.0,651.0,457.0,649.0,449.0,650.0,441.0,648.0,433.0,646.0,425.0,642.0,417.0,639.0,409.0,634.0,401.0,634.0" stroke="black" stroke-width="1" fill="none" />
<polyline points="405.0,633.0,421.0,641.0" stroke="black" stroke-width="1" fill="none" />
<polyline points="428.0,679.0,420.0,679.0,412.0,679.0,404.0,679.0,396.0,677.0" stroke="black" stroke-width="1" fill="none" />
<polyline points="395.0,675.0,395.0,667.0,396.0,659.0,398.0,651.0,399.0,643.0,401.0,635.0,403.0,627.0,405.0,619.0,404.0,615.0,396.0,612.0,388.0,608.0,380.0,604.0,372.0,602.0,364.0,599.0,356.0,596.0,348.0,594.0" stroke="black" stroke-width="1" fill="none" />
<polyline points="355.0,596.0,377.0,604.0,394.0,612.0" stroke="black" stroke-width="1" fill="none" />
<polyline points="306.0,631.0,298.0,612.0,301.0,597.0,305.0,589.0" stroke="black" stroke-width="1" fill="none" />
<polyline points="301.0,596.0,291.0,592.0,283.0,582.0,275.0,563.0,267.0,556.0,259.0,551.0,251.0,548.0,243.0,546.0,235.0,546.0,227.0,546.0,219.0,546.0,211.0,548.0,203.0,550.0,195.0,552.0,187.0,555.0,179.0,560.0,171.0,570.0" stroke="black" stroke-width="1" fill="none" />
<polyline points="168.0,543.0,176.0,533.0,184.0,529.0,192.0,526.0,200.0,524.0,208.0,522.0,216.0,521.0,224.0,522.0,232.0,523.0,240.0,525.0,248.0,528.0,256.0,533.0,264.0,543.0" stroke="black" stroke-width="1" fill="none" />
<polyline points="264.0,535.0,256.0,511.0" stroke="black" stroke-width="1" fill="none" />
<polyline points="240.0,525.0,255.0,533.0,262.0,541.0" stroke="black" stroke-width="1" fill="none" />
<polyline points="254.0,549.0,268.0,557.0,275.0,565.0,279.0,573.0,282.0,581.0,289.0,589.0,293.0,597.0,295.0,605.0,298.0,613.0,302.0,621.0,305.0,629.0,309.0,637.0,312.0,645.0,314.0,653.0,317.0,661.0,319.0,669.0,321.0,677.0" stroke="black" stroke-width="1" fill="none" />
<polyline points="163.0,610.0,155.0,622.0,147.0,633.0,139.0,642.0,131.0,651.0,123.0,658.0,115.0,664.0,107.0,668.0,99.0,673.0,91.0,677.0,83.0,680.0,75.0,681.0" stroke="black" stroke-width="1" fill="none" />
<polyline points="25.0,558.0,8.0,566.0,4.0,568.0,12.0,564.0,20.0,561.0,28.0,558.0,36.0,555.0,44.0,554.0,52.0,552.0,60.0,550.0,68.0,548.0,76.0,546.0,84.0,543.0,92.0,541.0,100.0,539.0,108.0,536.0,116.0,534.0,124.0,530.0,132.0,527.0,140.0,523.0,148.0,520.0,156.0,516.0" stroke="black" stroke-width="1" fill="none" />
<polyline points="160.0,505.0,159.0,513.0,160.0,519.0,160.0,527.0,160.0,535.0,161.0,543.0,161.0,551.0,162.0,559.0" stroke="black" stroke-width="1" fill="none" />
<polyline points="145.0,520.0,129.0,528.0,108.0,536.0" stroke="black" stroke-width="1" fill="none" />
<polyline points="118.0,502.0,138.0,494.0" stroke="black" stroke-width="1" fill="none" />
<polyline points="152.0,491.0,144.0,493.0,136.0,495.0,128.0,498.0,120.0,502.0,112.0,504.0,104.0,506.0,96.0,509.0,88.0,510.0,80.0,512.0,72.0,515.0,64.0,518.0,56.0,520.0,48.0,521.0,40.0,523.0,32.0,530.0,24.0,533.0,16.0,534.0,8.0,535.0,0.0,536.0" stroke="black" stroke-width="1" fill="none" />
<polyline points="32.0,530.0,41.0,522.0" stroke="black" stroke-width="1" fill="none" />
<polyline points="159.0,456.0,158.0,464.0,158.0,472.0,161.0,481.0,168.0,479.0,173.0,457.0,181.0,454.0,189.0,451.0" stroke="black" stroke-width="1" fill="none" />
<polyline points="178.0,448.0,186.0,442.0,194.0,439.0,202.0,437.0,210.0,435.0,218.0,435.0,226.0,437.0,234.0,441.0,242.0,448.0" stroke="black" stroke-width="1" fill="none" />
<polyline points="239.0,432.0,231.0,430.0,223.0,430.0,215.0,431.0,207.0,432.0,199.0,434.0,191.0,437.0,183.0,440.0,180.0,446.0,196.0,438.0" stroke="black" stroke-width="1" fill="none" />
<polyline points="198.0,434.0,179.0,442.0,174.0,456.0,171.0,464.0,167.0,472.0,165.0,480.0,159.0,486.0" stroke="black" stroke-width="1" fill="none" />
<polyline points="169.0,476.0,166.0,484.0,165.0,492.0,165.0,500.0,164.0,508.0,164.0,516.0,164.0,524.0,165.0,532.0,166.0,540.0,165.0,548.0,165.0,556.0,166.0,564.0,166.0,572.0,164.0,580.0,160.0,588.0,154.0,596.0,148.0,604.0,142.0,612.0,136.0,620.0,136.0,620.0,144.0,609.0,152.0,599.0,160.0,587.0" stroke="black" stroke-width="1" fill="none" />
<polyline points="164.0,642.0,156.0,652.0,148.0,660.0,140.0,668.0,132.0,675.0,124.0,680.0,130.0,677.0,139.0,669.0,147.0,661.0,155.0,653.0,162.0,645.0,168.0,637.0,172.0,629.0,173.0,621.0,173.0,613.0,173.0,605.0,173.0,597.0,172.0,589.0,171.0,581.0,171.0,573.0,173.0,565.0,183.0,557.0,204.0,549.0" stroke="black" stroke-width="1" fill="none" />
<polyline points="190.0,526.0,175.0,534.0,169.0,542.0,168.0,550.0,168.0,558.0,168.0,572.0,169.0,580.0,169.0,588.0,169.0,596.0,167.0,604.0,162.0,612.0,157.0,620.0,151.0,628.0,145.0,636.0,137.0,644.0,130.0,652.0,120.0,660.0,107.0,668.0,92.0,676.0" stroke="black" stroke-width="1" fill="none" />
<polyline points="268.0,548.0,265.0,540.0,262.0,532.0,260.0,524.0,257.0,516.0,255.0,508.0,253.0,500.0,251.0,492.0,249.0,484.0,247.0,476.0,247.0,468.0,246.0,460.0,244.0,452.0,236.0,444.0,223.0,436.0" stroke="black" stroke-width="1" fill="none" />
<polyline points="266.0,374.0,258.0,362.0" stroke="black" stroke-width="1" fill="none" />
<polyline points="258.0,362.0,263.0,370.0,267.0,378.0,271.0,386.0" stroke="black" stroke-width="1" fill="none" />
<polyline points="217.0,346.0,209.0,341.0,204.0,345.0,196.0,344.0,188.0,345.0" stroke="black" stroke-width="1" fill="none" />
<polyline points="191.0,341.0,199.0,340.0,207.0,343.0" stroke="black" stroke-width="1" fill="none" />
<polyline points="210.0,338.0,202.0,338.0,194.0,339.0" stroke="black" stroke-width="1" fill="none" />
<polyline points="201.0,341.0,207.0,341.0,219.0,349.0" stroke="black" stroke-width="1" fill="none" />
<polyline points="195.0,351.0,210.0,359.0,218.0,367.0,224.0,375.0,228.0,383.0,232.0,391.0,236.0,399.0,239.0,407.0,241.0,415.0,243.0,423.0,244.0,431.0,246.0,439.0,246.0,447.0" stroke="black" stroke-width="1" fill="none" />
<polyline points="235.0,396.0,227.0,379.0,219.0,367.0,211.0,359.0,203.0,353.0,195.0,351.0,187.0,349.0,179.0,348.0,180.0,340.0,186.0,332.0,185.0,323.0,194.0,315.0,201.0,307.0,207.0,300.0,199.0,309.0,191.0,317.0,183.0,324.0,175.0,330.0,167.0,331.0,159.0,333.0,151.0,334.0,143.0,336.0,135.0,336.0,127.0,334.0,119.0,332.0" stroke="black" stroke-width="1" fill="none" />
<polyline points="145.0,339.0,153.0,341.0,161.0,343.0,169.0,346.0,177.0,344.0,185.0,334.0" stroke="black" stroke-width="1" fill="none" />
<polyline points="209.0,319.0,201.0,330.0,193.0,337.0,185.0,345.0,188.0,342.0,197.0,334.0,204.0,326.0,210.0,318.0" stroke="black" stroke-width="1" fill="none" />
<polyline points="220.0,317.0,211.0,325.0,211.0,325.0,219.0,319.0,224.0,324.0" stroke="black" stroke-width="1" fill="none" />
<polyline points="223.0,323.0,224.0,331.0" stroke="black" stroke-width="1" fill="none" />
<polyline points="240.0,322.0,243.0,330.0,247.0,338.0,252.0,346.0,258.0,354.0,265.0,362.0,273.0,370.0,281.0,378.0,288.0,386.0,295.0,394.0,301.0,402.0,307.0,410.0,313.0,418.0,319.0,426.0,324.0,434.0,330.0,442.0,336.0,450.0,343.0,458.0,349.0,466.0,362.0,469.0" stroke="black" stroke-width="1" fill="none" />
<polyline points="375.0,462.0,367.0,461.0,359.0,457.0,351.0,455.0,343.0,454.0,335.0,448.0,332.0,435.0,328.0,438.0,320.0,427.0,312.0,416.0,304.0,405.0,296.0,394.0,288.0,384.0,280.0,376.0,272.0,368.0,264.0,360.0,256.0,349.0,248.0,339.0,240.0,322.0" stroke="black" stroke-width="1" fill="none" />
<polyline points="148.0,272.0,156.0,252.0,164.0,246.0" stroke="black" stroke-width="1" fill="none" />
<polyline points="174.0,196.0,182.0,192.0,182.0,184.0" stroke="black" stroke-width="1" fill="none" />
<polyline points="176.0,158.0,184.0,143.0" stroke="black" stroke-width="1" fill="none" />
<polyline points="174.0,155.0,172.0,163.0,170.0,171.0,167.0,179.0,169.0,182.0,178.0,173.0,182.0,178.0,190.0,179.0" stroke="black" stroke-width="1" fill="none" />
<polyline points="157.0,132.0,149.0,116.0,141.0,105.0,133.0,96.0,125.0,91.0,117.0,89.0" stroke="black" stroke-width="1" fill="none" />
<polyline points="121.0,89.0,133.0,97.0,140.0,105.0,147.0,113.0,151.0,121.0,155.0,129.0,159.0,137.0,162.0,145.0,163.0,153.0,165.0,161.0,165.0,169.0,165.0,177.0,164.0,185.0,166.0,193.0,165.0,201.0,165.0,209.0" stroke="black" stroke-width="1" fill="none" />
<polyline points="133.0,193.0,125.0,186.0,117.0,185.0,109.0,187.0" stroke="black" stroke-width="1" fill="none" />
<polyline points="112.0,187.0,117.0,195.0,120.0,196.0,128.0,193.0" stroke="black" stroke-width="1" fill="none" />
<polyline points="122.0,185.0,128.0,193.0,131.0,194.0,138.0,196.0,146.0,198.0" stroke="black" stroke-width="1" fill="none" />
<polyline points="144.0,190.0,136.0,185.0,128.0,182.0,120.0,180.0,112.0,180.0,104.0,183.0" stroke="black" stroke-width="1" fill="none" />
<polyline points="128.0,182.0,142.0,190.0" stroke="black" stroke-width="1" fill="none" />
<polyline points="95.0,227.0,99.0,230.0,101.0,238.0,101.0,246.0,85.0,256.0,93.0,253.0,101.0,245.0" stroke="black" stroke-width="1" fill="none" />
<polyline points="69.0,245.0,61.0,241.0,53.0,244.0,45.0,234.0" stroke="black" stroke-width="1" fill="none" />
<polyline points="45.0,234.0,48.0,242.0" stroke="black" stroke-width="1" fill="none" />
<polyline points="63.0,242.0,76.0,249.0,84.0,246.0,92.0,245.0" stroke="black" stroke-width="1" fill="none" />
<polyline points="104.0,289.0,96.0,290.0,88.0,289.0,80.0,289.0,72.0,289.0,64.0,288.0,56.0,286.0,48.0,285.0,40.0,285.0,32.0,283.0" stroke="black" stroke-width="1" fill="none" />
<polyline points="27.0,280.0,35.0,280.0,43.0,282.0,51.0,282.0,59.0,283.0,67.0,285.0,75.0,286.0,83.0,285.0,91.0,286.0,99.0,286.0,107.0,287.0" stroke="black" stroke-width="1" fill="none" />
<polyline points="88.0,358.0,98.0,350.0,106.0,342.0,114.0,334.0,121.0,326.0,126.0,318.0,132.0,310.0,136.0,302.0,140.0,294.0,144.0,286.0,147.0,278.0,150.0,270.0,153.0,262.0,155.0,254.0,164.0,246.0,166.0,238.0,166.0,230.0,166.0,222.0,168.0,214.0,170.0,206.0,171.0,198.0,170.0,194.0,167.0,186.0,171.0,178.0,174.0,170.0,176.0,162.0,178.0,154.0,182.0,146.0,187.0,138.0,190.0,130.0,192.0,122.0,192.0,114.0,192.0,106.0,190.0,98.0,188.0,90.0,187.0,82.0,182.0,77.0,180.0,69.0,174.0,68.0,173.0,60.0,166.0,52.0,160.0,44.0,159.0,36.0,154.0,34.0,154.0,29.0,151.0,28.0,157.0,24.0,159.0,16.0,154.0,8.0,154.0,0.0,154.0,1.0" stroke="black" stroke-width="1" fill="none" />
<polyline points="155.0,10.0,161.0,12.0,159.0,15.0" stroke="black" stroke-width="1" fill="none" />
<polyline points="165.0,10.0,165.0,18.0,161.0,28.0" stroke="black" stroke-width="1" fill="none" />
<polyline points="173.0,32.0,176.0,38.0,176.0,46.0,177.0,55.0,177.0,63.0,182.0,65.0" stroke="black" stroke-width="1" fill="none" />
<polyline points="198.0,62.0,199.0,60.0,198.0,68.0,192.0,76.0,200.0,84.0,206.0,89.0,207.0,93.0,201.0,97.0,201.0,105.0,198.0,95.0,203.0,93.0" stroke="black" stroke-width="1" fill="none" />
<polyline points="214.0,74.0,222.0,78.0,220.0,79.0,231.0,71.0,236.0,55.0,249.0,56.0,257.0,58.0,260.0,50.0" stroke="black" stroke-width="1" fill="none" />
<polyline points="264.0,57.0,266.0,65.0,262.0,73.0,261.0,81.0,260.0,95.0,259.0,103.0,252.0,112.0,246.0,119.0,246.0,127.0,250.0,128.0" stroke="black" stroke-width="1" fill="none" />
<polyline points="243.0,124.0,246.0,116.0,246.0,108.0,238.0,104.0,240.0,96.0,251.0,94.0,253.0,90.0,252.0,84.0,257.0,82.0,255.0,81.0,257.0,77.0,253.0,75.0,250.0,67.0,255.0,61.0,252.0,56.0,247.0,51.0,252.0,43.0,249.0,40.0,248.0,31.0,253.0,23.0,256.0,15.0,257.0,7.0,257.0,5.0,256.0,6.0,248.0,9.0" stroke="black" stroke-width="1" fill="none" />
<polyline points="244.0,0.0,249.0,8.0,250.0,12.0,253.0,13.0,248.0,24.0,242.0,27.0,241.0,40.0,233.0,45.0,241.0,49.0,240.0,58.0,233.0,68.0,228.0,75.0,238.0,85.0,234.0,93.0,230.0,97.0,237.0,95.0,240.0,79.0,248.0,83.0,249.0,89.0,254.0,89.0,259.0,88.0,263.0,93.0,264.0,104.0,272.0,98.0,277.0,102.0,285.0,101.0,290.0,99.0,298.0,85.0,304.0,91.0,312.0,96.0,315.0,98.0,322.0,100.0,324.0,94.0,332.0,96.0,339.0,97.0,344.0,99.0,350.0,87.0,358.0,83.0,363.0,81.0,368.0,84.0,376.0,87.0,382.0,91.0,386.0,89.0,390.0,87.0,400.0,93.0" stroke="black" stroke-width="1" fill="none" />
<polyline points="344.0,48.0,337.0,36.0,343.0,37.0,340.0,29.0,331.0,29.0" stroke="black" stroke-width="1" fill="none" />
<polyline points="326.0,9.0,334.0,4.0" stroke="black" stroke-width="1" fill="none" />
<polyline points="323.0,6.0,321.0,14.0,319.0,22.0" stroke="black" stroke-width="1" fill="none" />
<polyline points="322.0,3.0,330.0,1.0,327.0,11.0,331.0,19.0,323.0,24.0,326.0,23.0,335.0,24.0,336.0,32.0,334.0,40.0,333.0,48.0,330.0,56.0,335.0,60.0,336.0,68.0,338.0,66.0" stroke="black" stroke-width="1" fill="none" />
<polyline points="319.0,59.0,306.0,59.0,311.0,53.0" stroke="black" stroke-width="1" fill="none" />
<polyline points="296.0,66.0,292.0,74.0,295.0,79.0,292.0,87.0,288.0,95.0,291.0,102.0" stroke="black" stroke-width="1" fill="none" />
<polyline points="293.0,101.0,292.0,93.0,296.0,92.0,299.0,84.0,296.0,78.0,288.0,93.0" stroke="black" stroke-width="1" fill="none" />
<polyline points="274.0,94.0,278.0,89.0,279.0,85.0,284.0,77.0,279.0,74.0,281.0,76.0,282.0,68.0,288.0,68.0,291.0,60.0,287.0,62.0,279.0,65.0,277.0,72.0" stroke="black" stroke-width="1" fill="none" />
<polyline points="274.0,85.0,282.0,77.0,289.0,78.0,294.0,74.0" stroke="black" stroke-width="1" fill="none" />
<polyline points="283.0,46.0,281.0,41.0,273.0,47.0,269.0,56.0,268.0,52.0,262.0,44.0,254.0,44.0,258.0,31.0,249.0,33.0" stroke="black" stroke-width="1" fill="none" />
<polyline points="259.0,20.0,251.0,25.0,247.0,38.0,239.0,43.0,233.0,44.0,227.0,45.0" stroke="black" stroke-width="1" fill="none" />
<polyline points="242.0,74.0,239.0,76.0,242.0,77.0,245.0,79.0,240.0,87.0" stroke="black" stroke-width="1" fill="none" />
<polyline points="245.0,83.0,241.0,91.0,234.0,99.0,243.0,95.0,250.0,97.0,255.0,98.0" stroke="black" stroke-width="1" fill="none" />
<polyline points="266.0,94.0,263.0,102.0,265.0,107.0" stroke="black" stroke-width="1" fill="none" />
<polyline points="280.0,36.0,280.0,33.0,288.0,29.0,282.0,31.0,288.0,34.0" stroke="black" stroke-width="1" fill="none" />
<polyline points="292.0,68.0,287.0,65.0,285.0,59.0,277.0,59.0,266.0,65.0,267.0,58.0,256.0,67.0,250.0,67.0,252.0,62.0,255.0,54.0,259.0,50.0,265.0,42.0,259.0,40.0,264.0,32.0,265.0,24.0,267.0,16.0,273.0,8.0,273.0,0.0" stroke="black" stroke-width="1" fill="none" />
<polyline points="267.0,0.0,265.0,8.0,264.0,16.0,260.0,24.0,252.0,31.0,244.0,41.0,240.0,46.0,248.0,43.0,259.0,37.0,265.0,22.0,271.0,11.0" stroke="black" stroke-width="1" fill="none" />
<polyline points="240.0,2.0,239.0,10.0,237.0,18.0,230.0,26.0,229.0,34.0,227.0,42.0,230.0,51.0,231.0,65.0,226.0,73.0,231.0,80.0" stroke="black" stroke-width="1" fill="none" />
<polyline points="209.0,83.0,215.0,72.0,215.0,64.0,209.0,62.0,199.0,64.0" stroke="black" stroke-width="1" fill="none" />
<polyline points="196.0,35.0,197.0,33.0,198.0,25.0,189.0,26.0,193.0,27.0,193.0,23.0" stroke="black" stroke-width="1" fill="none" />
<polyline points="188.0,18.0,196.0,15.0,188.0,22.0,186.0,30.0,190.0,34.0,193.0,42.0,201.0,50.0,204.0,47.0,204.0,51.0,212.0,52.0,218.0,51.0,226.0,44.0,234.0,33.0,243.0,31.0" stroke="black" stroke-width="1" fill="none" />
<polyline points="215.0,22.0,210.0,14.0,212.0,8.0,204.0,2.0" stroke="black" stroke-width="1" fill="none" />
<polyline points="204.0,2.0,203.0,10.0,208.0,18.0,212.0,26.0,215.0,21.0" stroke="black" stroke-width="1" fill="none" />
<polyline points="212.0,22.0,204.0,11.0" stroke="black" stroke-width="1" fill="none" />
<polyline points="217.0,1.0,225.0,7.0,229.0,2.0" stroke="black" stroke-width="1" fill="none" />
<polyline points="226.0,0.0,235.0,11.0,243.0,16.0,249.0,14.0,251.0,18.0,261.0,23.0" stroke="black" stroke-width="1" fill="none" />
<polyline points="235.0,8.0,238.0,0.0" stroke="black" stroke-width="1" fill="none" />
<polyline points="217.0,0.0,218.0,8.0,222.0,10.0,218.0,14.0,218.0,22.0,214.0,27.0,216.0,29.0" stroke="black" stroke-width="1" fill="none" />
<polyline points="176.0,38.0,179.0,43.0,179.0,54.0,183.0,58.0,182.0,66.0" stroke="black" stroke-width="1" fill="none" />
<polyline points="206.0,85.0,201.0,80.0,199.0,72.0,186.0,74.0,178.0,67.0,176.0,65.0,171.0,52.0,168.0,46.0,170.0,37.0,180.0,32.0,181.0,26.0,181.0,18.0,173.0,11.0,179.0,2.0,185.0,1.0,179.0,2.0,179.0,7.0" stroke="black" stroke-width="1" fill="none" />
<polyline points="172.0,64.0,164.0,53.0,156.0,43.0,148.0,36.0,140.0,29.0,132.0,23.0,124.0,17.0,116.0,13.0,108.0,9.0,100.0,6.0,92.0,4.0" stroke="black" stroke-width="1" fill="none" />
<polyline points="100.0,6.0,117.0,14.0,131.0,22.0,141.0,30.0,150.0,38.0,158.0,46.0,165.0,54.0,170.0,62.0" stroke="black" stroke-width="1" fill="none" />
<polyline points="101.0,76.0,120.0,84.0,132.0,92.0,141.0,100.0,148.0,108.0,153.0,116.0,157.0,124.0,160.0,132.0,164.0,140.0,166.0,148.0,168.0,156.0,168.0,164.0" stroke="black" stroke-width="1" fill="none" />
<polyline points="52.0,182.0,44.0,181.0,34.0,181.0,26.0,181.0,15.0,177.0,7.0,174.0" stroke="black" stroke-width="1" fill="none" />
<polyline points="3.0,174.0,11.0,170.0,19.0,168.0,27.0,168.0,35.0,170.0,38.0,173.0,33.0,181.0" stroke="black" stroke-width="1" fill="none" />
<polyline points="20.0,176.0,21.0,168.0" stroke="black" stroke-width="1" fill="none" />
<polyline points="37.0,166.0,51.0,174.0,51.0,178.0" stroke="black" stroke-width="1" fill="none" />
<polyline points="48.0,171.0,40.0,167.0,32.0,164.0,24.0,163.0,16.0,164.0,8.0,165.0,0.0,167.0" stroke="black" stroke-width="1" fill="none" />
<polyline points="33.0,74.0,16.0,82.0,4.0,90.0,4.0,90.0,12.0,85.0,20.0,80.0,28.0,77.0,36.0,74.0,44.0,71.0,52.0,70.0,60.0,69.0,68.0,70.0,76.0,71.0,84.0,72.0,92.0,74.0,100.0,75.0,108.0,78.0,116.0,81.0,124.0,86.0,132.0,91.0,140.0,98.0,148.0,107.0,156.0,121.0,164.0,140.0" stroke="black" stroke-width="1" fill="none" />
<polyline points="38.0,2.0,30.0,1.0,23.0,1.0,11.0,8.0,10.0,14.0,2.0,20.0,6.0,17.0,18.0,9.0,16.0,1.0,18.0,3.0,10.0,2.0" stroke="black" stroke-width="1" fill="none" />
<polyline points="3.0,1.0,13.0,4.0,2.0,0.0,2.0,8.0" stroke="black" stroke-width="1" fill="none" />
<polyline points="29.0,8.0,14.0,16.0,3.0,24.0,4.0,24.0,12.0,18.0,20.0,13.0,28.0,9.0,36.0,6.0,44.0,4.0,52.0,2.0,60.0,2.0,68.0,1.0,76.0,2.0,84.0,2.0,92.0,1.0,100.0,2.0,108.0,5.0,116.0,9.0,124.0,13.0,132.0,18.0,140.0,24.0,148.0,31.0,156.0,30.0,161.0,23.0" stroke="black" stroke-width="1" fill="none" />
<polyline points="377.0,0.0,371.0,2.0,374.0,10.0,374.0,18.0,379.0,20.0,382.0,25.0,386.0,28.0,392.0,33.0,386.0,41.0,387.0,49.0,382.0,57.0,386.0,58.0,389.0,63.0,380.0,71.0,383.0,79.0,383.0,87.0,394.0,87.0,397.0,90.0,407.0,98.0,408.0,106.0,401.0,108.0,405.0,114.0,400.0,120.0,412.0,114.0,420.0,113.0,421.0,112.0,411.0,116.0,412.0,120.0,414.0,122.0" stroke="black" stroke-width="1" fill="none" />
<polyline points="412.0,33.0,409.0,25.0,405.0,21.0,402.0,13.0" stroke="black" stroke-width="1" fill="none" />
<polyline points="381.0,2.0,376.0,10.0,379.0,4.0" stroke="black" stroke-width="1" fill="none" />
<polyline points="424.0,0.0,422.0,8.0,421.0,16.0,422.0,24.0,419.0,32.0,412.0,43.0,404.0,47.0,402.0,55.0,406.0,58.0,411.0,66.0,406.0,74.0,400.0,77.0,392.0,79.0,397.0,80.0,404.0,84.0,401.0,92.0,400.0,100.0,399.0,108.0,402.0,116.0" stroke="black" stroke-width="1" fill="none" />
<polyline points="430.0,30.0,435.0,22.0,435.0,13.0,436.0,5.0" stroke="black" stroke-width="1" fill="none" />
<polyline points="446.0,0.0,446.0,8.0,449.0,16.0,444.0,20.0,446.0,28.0,443.0,36.0,441.0,44.0,440.0,52.0,440.0,60.0,439.0,69.0,437.0,77.0,436.0,85.0,435.0,93.0,435.0,101.0,434.0,109.0,434.0,120.0,432.0,128.0,426.0,133.0" stroke="black" stroke-width="1" fill="none" />
<polyline points="144.0,285.0,136.0,302.0,128.0,315.0,120.0,327.0,112.0,336.0,104.0,344.0,96.0,352.0,88.0,358.0,80.0,360.0,72.0,361.0,64.0,362.0,56.0,362.0,48.0,361.0,40.0,360.0,32.0,358.0,24.0,357.0,16.0,355.0,8.0,353.0,0.0,350.0" stroke="black" stroke-width="1" fill="none" />
</svg>