<svg xmlns="http://www.w3.org/2000/svg" height="228px" width="318px" version="1.1"><polyline points="285.0,59.0,280.0,67.0,270.0,75.0,272.0,80.0,278.0,88.0,281.0,96.0,283.0,104.0,295.0,112.0,303.0,120.0,309.0,128.0,312.0,136.0,315.0,144.0,317.0,152.0,317.0,160.0,318.0,168.0,317.0,176.0,316.0,184.0,313.0,192.0,309.0,200.0,303.0,208.0,292.0,216.0,276.0,224.0" stroke="black" stroke-width="1" fill="none" />
<polyline points="261.0,210.0,269.0,225.0,277.0,224.0,285.0,220.0,293.0,215.0,301.0,210.0,309.0,200.0" stroke="black" stroke-width="1" fill="none" />
<polyline points="310.0,225.0,302.0,226.0" stroke="black" stroke-width="1" fill="none" />
<polyline points="303.0,228.0,311.0,227.0" stroke="black" stroke-width="1" fill="none" />
<polyline points="286.0,188.0,288.0,180.0,285.0,179.0,277.0,172.0,269.0,178.0" stroke="black" stroke-width="1" fill="none" />
<polyline points="267.0,177.0,275.0,169.0,283.0,171.0" stroke="black" stroke-width="1" fill="none" />
<polyline points="280.0,170.0,284.0,178.0,284.0,186.0" stroke="black" stroke-width="1" fill="none" />
<polyline points="282.0,190.0,274.0,191.0,266.0,181.0" stroke="black" stroke-width="1" fill="none" />
<polyline points="271.0,188.0,269.0,180.0,274.0,172.0" stroke="black" stroke-width="1" fill="none" />
<polyline points="275.0,169.0,267.0,177.0,267.0,185.0,272.0,193.0,276.0,194.0,284.0,191.0" stroke="black" stroke-width="1" fill="none" />
<polyline points="311.0,190.0,303.0,204.0,295.0,211.0,287.0,216.0,279.0,220.0,271.0,223.0,263.0,209.0,255.0,214.0,247.0,227.0,239.0,225.0,231.0,223.0,223.0,218.0,215.0,212.0,207.0,204.0,199.0,188.0" stroke="black" stroke-width="1" fill="none" />
<polyline points="202.0,190.0,210.0,204.0,218.0,212.0,226.0,217.0,234.0,221.0,242.0,223.0,250.0,220.0,258.0,209.0,254.0,217.0,251.0,225.0" stroke="black" stroke-width="1" fill="none" />
<polyline points="268.0,225.0,264.0,217.0,260.0,209.0" stroke="black" stroke-width="1" fill="none" />
<polyline points="240.0,190.0,232.0,194.0,224.0,188.0" stroke="black" stroke-width="1" fill="none" />
<polyline points="223.0,182.0,231.0,172.0,239.0,173.0,242.0,177.0,245.0,185.0,241.0,193.0" stroke="black" stroke-width="1" fill="none" />
<polyline points="237.0,174.0,229.0,175.0" stroke="black" stroke-width="1" fill="none" />
<polyline points="229.0,175.0,226.0,183.0,228.0,191.0" stroke="black" stroke-width="1" fill="none" />
<polyline points="241.0,188.0,241.0,180.0,236.0,172.0" stroke="black" stroke-width="1" fill="none" />
<polyline points="232.0,171.0,224.0,179.0,223.0,187.0,228.0,195.0,232.0,197.0,240.0,194.0" stroke="black" stroke-width="1" fill="none" />
<polyline points="224.0,157.0,216.0,151.0" stroke="black" stroke-width="1" fill="none" />
<polyline points="213.0,144.0,221.0,135.0,229.0,137.0,232.0,142.0,233.0,150.0,228.0,158.0" stroke="black" stroke-width="1" fill="none" />
<polyline points="216.0,142.0,224.0,138.0" stroke="black" stroke-width="1" fill="none" />
<polyline points="226.0,136.0,230.0,144.0,230.0,152.0" stroke="black" stroke-width="1" fill="none" />
<polyline points="226.0,160.0,218.0,159.0,217.0,154.0,215.0,146.0,220.0,138.0" stroke="black" stroke-width="1" fill="none" />
<polyline points="221.0,135.0,214.0,143.0,213.0,151.0,218.0,159.0" stroke="black" stroke-width="1" fill="none" />
<polyline points="200.0,142.0,208.0,124.0,216.0,116.0,224.0,108.0,232.0,107.0,240.0,107.0,248.0,106.0,256.0,106.0,264.0,106.0,272.0,105.0,280.0,105.0,290.0,111.0,298.0,118.0,306.0,127.0" stroke="black" stroke-width="1" fill="none" />
<polyline points="290.0,134.0,282.0,133.0,274.0,141.0" stroke="black" stroke-width="1" fill="none" />
<polyline points="277.0,146.0,285.0,155.0" stroke="black" stroke-width="1" fill="none" />
<polyline points="286.0,154.0,292.0,146.0,289.0,138.0,287.0,136.0,279.0,137.0" stroke="black" stroke-width="1" fill="none" />
<polyline points="279.0,137.0,276.0,145.0,280.0,153.0" stroke="black" stroke-width="1" fill="none" />
<polyline points="275.0,149.0,283.0,157.0,291.0,154.0" stroke="black" stroke-width="1" fill="none" />
<polyline points="281.0,157.0,275.0,149.0,274.0,141.0,280.0,133.0" stroke="black" stroke-width="1" fill="none" />
<polyline points="284.0,132.0,294.0,140.0,294.0,148.0,289.0,156.0" stroke="black" stroke-width="1" fill="none" />
<polyline points="313.0,137.0,305.0,121.0,297.0,113.0,289.0,107.0,281.0,108.0,273.0,108.0,265.0,108.0,257.0,109.0,249.0,109.0,241.0,110.0,233.0,110.0,225.0,111.0,213.0,115.0,205.0,124.0,197.0,144.0" stroke="black" stroke-width="1" fill="none" />
<polyline points="225.0,94.0,233.0,80.0,241.0,75.0,249.0,73.0,257.0,74.0,265.0,77.0,273.0,84.0" stroke="black" stroke-width="1" fill="none" />
<polyline points="272.0,79.0,280.0,91.0" stroke="black" stroke-width="1" fill="none" />
<polyline points="287.0,77.0,279.0,73.0,271.0,78.0" stroke="black" stroke-width="1" fill="none" />
<polyline points="259.0,72.0,266.0,78.0,273.0,86.0,278.0,94.0,281.0,102.0,290.0,112.0,300.0,120.0,306.0,128.0,310.0,136.0,312.0,144.0,314.0,152.0,315.0,160.0,315.0,168.0,315.0,176.0,313.0,184.0,310.0,192.0,306.0,200.0,299.0,208.0,287.0,216.0" stroke="black" stroke-width="1" fill="none" />
<polyline points="269.0,222.0,265.0,214.0,261.0,206.0,260.0,198.0,260.0,190.0,259.0,182.0,259.0,174.0,258.0,166.0,258.0,158.0,257.0,150.0,257.0,142.0,256.0,134.0,255.0,126.0,255.0,118.0,255.0,110.0" stroke="black" stroke-width="1" fill="none" />
<polyline points="252.0,110.0,252.0,118.0,253.0,126.0,253.0,134.0,254.0,142.0,254.0,150.0,255.0,158.0,255.0,166.0,256.0,174.0,256.0,182.0,257.0,190.0,257.0,198.0,256.0,206.0,253.0,214.0,250.0,222.0" stroke="black" stroke-width="1" fill="none" />
<polyline points="230.0,78.0,220.0,70.0,215.0,62.0,212.0,61.0,204.0,68.0" stroke="black" stroke-width="1" fill="none" />
<polyline points="209.0,61.0,204.0,69.0,206.0,77.0,210.0,79.0,218.0,75.0,226.0,77.0" stroke="black" stroke-width="1" fill="none" />
<polyline points="221.0,75.0,227.0,83.0,224.0,91.0,222.0,99.0,220.0,107.0,213.0,115.0,206.0,123.0,202.0,131.0,199.0,139.0,197.0,147.0,196.0,155.0,195.0,163.0,196.0,171.0,197.0,179.0,198.0,187.0,201.0,195.0,205.0,203.0,213.0,211.0,223.0,219.0" stroke="black" stroke-width="1" fill="none" />
<polyline points="231.0,220.0,218.0,212.0,209.0,204.0,204.0,196.0,201.0,188.0,199.0,180.0,198.0,172.0,198.0,164.0,198.0,156.0,199.0,148.0,201.0,140.0,204.0,132.0,208.0,124.0,216.0,116.0,223.0,106.0,224.0,98.0,227.0,90.0,231.0,82.0,242.0,74.0" stroke="black" stroke-width="1" fill="none" />
<polyline points="220.0,70.0,228.0,75.0,236.0,75.0,244.0,71.0,252.0,71.0,260.0,72.0,268.0,76.0,276.0,71.0,284.0,60.0,292.0,62.0" stroke="black" stroke-width="1" fill="none" />
<polyline points="289.0,60.0,294.0,68.0,289.0,76.0" stroke="black" stroke-width="1" fill="none" />
</svg>