<svg xmlns="http://www.w3.org/2000/svg" height="399px" width="399px" version="1.1"><polyline points="181.5,0.0,181.5,4.0,181.5,8.0,181.5,12.0,181.5,16.0" stroke="black" stroke-width="1" fill="none" />
<polyline points="178.0,18.0,174.0,18.0,170.0,18.0,166.0,18.0,162.0,18.0,158.0,18.0,154.0,18.0,150.0,18.0,146.0,18.0,142.0,18.0,138.0,18.0,134.0,18.0,130.0,18.0,126.0,18.0,122.0,18.0,118.0,18.0,114.0,18.0,110.0,18.0,106.0,18.0,102.0,18.0,98.0,18.0,94.0,18.0,90.0,18.0,86.0,18.0,82.0,18.0,78.0,18.0,74.0,18.0,70.0,18.0,66.0,18.0,62.0,18.0,58.0,18.0,54.0,18.0,50.0,18.0,46.0,18.0,42.0,18.0,38.0,18.0,34.0,18.0,30.0,18.0,26.0,18.0,22.0,18.0,18.0,19.5" stroke="black" stroke-width="1" fill="none" />
<polyline points="19.5,18.0,18.0,22.0,18.0,26.0,18.0,30.0,18.0,34.0,18.0,38.0,18.0,42.0,18.0,46.0,18.0,50.0,18.0,54.0,18.0,58.0,18.0,62.0,18.0,66.0,18.0,70.0,18.0,74.0,18.0,78.0,18.0,82.0,18.0,86.0,18.0,90.0,18.0,94.0,18.0,98.0,18.0,102.0,18.0,106.0,18.0,110.0,18.0,114.0,18.0,118.0,18.0,122.0,18.0,126.0,18.0,130.0,18.0,134.0,18.0,138.0,18.0,142.0,18.0,146.0,18.0,150.0,18.0,154.0,18.0,158.0,18.0,162.0,18.0,166.0,18.0,170.0,18.0,174.0,18.0,178.0" stroke="black" stroke-width="1" fill="none" />
<polyline points="16.0,181.5,12.0,181.5,8.0,181.5,4.0,181.5,0.0,181.5" stroke="black" stroke-width="1" fill="none" />
<polyline points="0.0,218.0,4.0,218.0,8.0,218.0,12.0,218.0,16.0,218.0,18.0,222.5,18.0,226.5,18.0,230.5,18.0,234.5,18.0,238.5,18.0,242.5,18.0,246.5,18.0,250.5,18.0,254.5,18.0,258.5,18.0,262.5,18.0,266.5,18.0,270.5,18.0,274.5,18.0,278.5,18.0,282.5,18.0,286.5,18.0,290.5,18.0,294.5,18.0,298.5,18.0,302.5,18.0,306.5,18.0,310.5,18.0,314.5,18.0,318.5,18.0,322.5,18.0,326.5,18.0,330.5,18.0,334.5,18.0,338.5,18.0,342.5,18.0,346.5,18.0,350.5,18.0,354.5,18.0,358.5,18.0,362.5,18.0,366.5,18.0,370.5,18.0,374.5,18.0,378.5,19.0,381.0,23.0,381.5,27.0,381.5,31.0,381.5,35.0,381.5,39.0,381.5,43.0,381.5,47.0,381.5,51.0,381.5,55.0,381.5,59.0,381.5,63.0,381.5,67.0,381.5,71.0,381.5,75.0,381.5,79.0,381.5,83.0,381.5,87.0,381.5,91.0,381.5,95.0,381.5,99.0,381.5,103.0,381.5,107.0,381.5,111.0,381.5,115.0,381.5,119.0,381.5,123.0,381.5,127.0,381.5,131.0,381.5,135.0,381.5,139.0,381.5,143.0,381.5,147.0,381.5,151.0,381.5,155.0,381.5,159.0,381.5,163.0,381.5,167.0,381.5,171.0,381.5,175.0,381.5,179.0,381.5,181.5,385.5,181.5,389.5,181.5,393.5,181.5,397.5" stroke="black" stroke-width="1" fill="none" />
<polyline points="218.0,399.0,218.0,395.0,218.0,391.0,218.0,387.0,218.0,383.0" stroke="black" stroke-width="1" fill="none" />
<polyline points="219.5,381.5,223.5,381.5,227.5,381.5,231.5,381.5,235.5,381.5,239.5,381.5,243.5,381.5,247.5,381.5,251.5,381.5,255.5,381.5,259.5,381.5,263.5,381.5,267.5,381.5,271.5,381.5,275.5,381.5,279.5,381.5,283.5,381.5,287.5,381.5,291.5,381.5,295.5,381.5,299.5,381.5,303.5,381.5,307.5,381.5,311.5,381.5,315.5,381.5,319.5,381.5,323.5,381.5,327.5,381.5,331.5,381.5,335.5,381.5,339.5,381.5,343.5,381.5,347.5,381.5,351.5,381.5,355.5,381.5,359.5,381.5,363.5,381.5,367.5,381.5,371.5,381.5,375.5,381.5,379.5,381.5" stroke="black" stroke-width="1" fill="none" />
<polyline points="381.5,379.5,381.5,375.5,381.5,371.5,381.5,367.5,381.5,363.5,381.5,359.5,381.5,355.5,381.5,351.5,381.5,347.5,381.5,343.5,381.5,339.5,381.5,335.5,381.5,331.5,381.5,327.5,381.5,323.5,381.5,319.5,381.5,315.5,381.5,311.5,381.5,307.5,381.5,303.5,381.5,299.5,381.5,295.5,381.5,291.5,381.5,287.5,381.5,283.5,381.5,279.5,381.5,275.5,381.5,271.5,381.5,267.5,381.5,263.5,381.5,259.5,381.5,255.5,381.5,251.5,381.5,247.5,381.5,243.5,381.5,239.5,381.5,235.5,381.5,231.5,381.5,227.5,381.5,223.5,381.5,219.5" stroke="black" stroke-width="1" fill="none" />
<polyline points="383.0,218.0,387.0,218.0,391.0,218.0,395.0,218.0,399.0,218.0" stroke="black" stroke-width="1" fill="none" />
<polyline points="398.5,181.5,394.5,181.5,390.5,181.5,386.5,181.5,382.5,181.0,381.5,178.5,381.5,174.5,381.5,170.5,381.5,166.5,381.5,162.5,381.5,158.5,381.5,154.5,381.5,150.5,381.5,146.5,381.5,142.5,381.5,138.5,381.5,134.5,381.5,130.5,381.5,126.5,381.5,122.5,381.5,118.5,381.5,114.5,381.5,110.5,381.5,106.5,381.5,102.5,381.5,98.5,381.5,94.5,381.5,90.5,381.5,86.5,381.5,82.5,381.5,78.5,381.5,74.5,381.5,70.5,381.5,66.5,381.5,62.5,381.5,58.5,381.5,54.5,381.5,50.5,381.5,46.5,381.5,42.5,381.5,38.5,381.5,34.5,381.5,30.5,381.5,26.5,381.5,22.5,380.5,18.5" stroke="black" stroke-width="1" fill="none" />
<polyline points="378.5,18.0,374.5,18.0,370.5,18.0,366.5,18.0,362.5,18.0,358.5,18.0,354.5,18.0,350.5,18.0,346.5,18.0,342.5,18.0,338.5,18.0,334.5,18.0,330.5,18.0,326.5,18.0,322.5,18.0,318.5,18.0,314.5,18.0,310.5,18.0,306.5,18.0,302.5,18.0,298.5,18.0,294.5,18.0,290.5,18.0,286.5,18.0,282.5,18.0,278.5,18.0,274.5,18.0,270.5,18.0,266.5,18.0,262.5,18.0,258.5,18.0,254.5,18.0,250.5,18.0,246.5,18.0,242.5,18.0,238.5,18.0,234.5,18.0,230.5,18.0,226.5,18.0,222.5,18.0,218.0,16.0,218.0,12.0,218.0,8.0,218.0,4.0,218.0,0.0" stroke="black" stroke-width="1" fill="none" />
</svg>