<svg xmlns="http://www.w3.org/2000/svg" height="523px" width="509px" version="1.1"><polyline points="340.0,10.0,339.0,18.0,339.0,26.0,339.0,34.0,339.0,42.0,339.0,50.0,338.0,58.0,339.0,66.0,338.0,74.0,338.0,82.0,338.0,90.0,339.0,98.0,339.0,106.0,339.0,114.0,339.0,122.0,339.0,130.0,338.0,138.0,334.0,146.0,326.0,154.0,319.0,162.0" stroke="black" stroke-width="1" fill="none" />
<polyline points="314.0,181.0,325.0,189.0,333.0,197.0,339.0,205.0,341.0,213.0,341.0,221.0,341.0,229.0,341.0,237.0,341.0,245.0,341.0,253.0,341.0,261.0,341.0,269.0,341.0,277.0,341.0,285.0,342.0,293.0,342.0,301.0,341.0,309.0,342.0,317.0,341.0,325.0,338.0,333.0,329.0,341.0,321.0,349.0" stroke="black" stroke-width="1" fill="none" />
<polyline points="314.0,362.0,323.0,370.0,331.0,378.0,337.0,386.0,340.0,394.0,340.0,402.0,340.0,410.0,340.0,418.0,341.0,426.0,340.0,434.0,341.0,442.0,341.0,450.0,341.0,458.0,341.0,466.0,341.0,474.0,341.0,482.0,341.0,490.0,341.0,498.0,341.0,506.0,341.0,514.0,339.0,522.0,345.0,522.0,357.0,522.0,365.0,522.0,373.0,522.0,381.0,521.0,389.0,521.0,397.0,521.0,402.0,523.0,410.0,523.0,418.0,523.0,426.0,523.0,434.0,523.0,442.0,523.0,450.0,523.0,458.0,523.0,466.0,523.0,474.0,522.0,482.0,522.0,490.0,522.0,498.0,521.0,506.0,516.0" stroke="black" stroke-width="1" fill="none" />
<polyline points="508.0,513.0,496.0,521.0" stroke="black" stroke-width="1" fill="none" />
<polyline points="501.0,515.0,493.0,514.0,485.0,519.0,477.0,517.0,469.0,518.0,461.0,519.0,453.0,520.0,445.0,520.0,440.0,518.0,432.0,518.0,424.0,520.0,416.0,520.0,408.0,521.0,400.0,521.0" stroke="black" stroke-width="1" fill="none" />
<polyline points="347.0,384.0,355.0,376.0,361.0,375.0,368.0,361.0,376.0,358.0,384.0,358.0,392.0,358.0,400.0,357.0,408.0,357.0,416.0,357.0,424.0,357.0,432.0,357.0,440.0,357.0,448.0,357.0,456.0,357.0,464.0,357.0,472.0,357.0,480.0,357.0,488.0,356.0,496.0,356.0,504.0,356.0" stroke="black" stroke-width="1" fill="none" />
<polyline points="461.0,367.0,453.0,367.0,445.0,367.0,437.0,368.0,429.0,367.0,421.0,367.0,413.0,367.0,405.0,367.0,397.0,366.0,389.0,366.0,381.0,365.0,373.0,362.0" stroke="black" stroke-width="1" fill="none" />
<polyline points="373.0,362.0,368.0,362.0,365.0,370.0,357.0,374.0,348.0,382.0,348.0,390.0,348.0,398.0,349.0,406.0,349.0,414.0,350.0,422.0,350.0,430.0,350.0,438.0,349.0,446.0,349.0,454.0,349.0,462.0,349.0,470.0,350.0,478.0,351.0,486.0,350.0,494.0,349.0,502.0,351.0,509.0,349.0,517.0,356.0,523.0" stroke="black" stroke-width="1" fill="none" />
<polyline points="336.0,398.0,328.0,387.0,320.0,379.0,312.0,370.0,304.0,368.0,296.0,367.0,288.0,367.0,280.0,368.0,272.0,367.0,264.0,367.0,256.0,366.0,248.0,367.0,240.0,368.0,232.0,368.0,224.0,367.0,216.0,368.0,208.0,367.0" stroke="black" stroke-width="1" fill="none" />
<polyline points="197.0,363.0,187.0,371.0,179.0,379.0,171.0,387.0,176.0,381.0,184.0,373.0,192.0,365.0,200.0,363.0,208.0,363.0,216.0,362.0,224.0,363.0,232.0,362.0,240.0,362.0,248.0,362.0,256.0,362.0,264.0,362.0,272.0,362.0,280.0,362.0,288.0,362.0,296.0,362.0,304.0,361.0,312.0,361.0,320.0,366.0,328.0,374.0,336.0,382.0" stroke="black" stroke-width="1" fill="none" />
<polyline points="312.0,371.0,320.0,379.0,327.0,387.0,333.0,395.0,334.0,403.0,334.0,411.0,334.0,419.0,333.0,426.0,334.0,434.0,334.0,442.0,334.0,450.0,335.0,457.0,334.0,465.0,334.0,473.0,334.0,481.0,335.0,489.0,334.0,497.0,335.0,505.0,334.0,513.0,331.0,520.0,334.0,519.0" stroke="black" stroke-width="1" fill="none" />
<polyline points="157.0,517.0,149.0,512.0" stroke="black" stroke-width="1" fill="none" />
<polyline points="154.0,385.0,146.0,379.0,138.0,370.0,130.0,363.0" stroke="black" stroke-width="1" fill="none" />
<polyline points="131.0,364.0,139.0,372.0,147.0,380.0,156.0,388.0,155.0,396.0,155.0,404.0,155.0,412.0,153.0,420.0,154.0,428.0,154.0,436.0,155.0,444.0,155.0,452.0,155.0,460.0,155.0,468.0,155.0,476.0,155.0,484.0,156.0,492.0,156.0,500.0,155.0,508.0,155.0,515.0,157.0,520.0,165.0,521.0" stroke="black" stroke-width="1" fill="none" />
<polyline points="96.0,523.0,88.0,523.0,80.0,523.0,72.0,523.0,64.0,523.0,56.0,523.0,48.0,523.0,40.0,523.0,32.0,523.0,24.0,523.0,16.0,523.0,8.0,520.0,0.0,514.0" stroke="black" stroke-width="1" fill="none" />
<polyline points="1.0,514.0,11.0,522.0" stroke="black" stroke-width="1" fill="none" />
<polyline points="166.0,522.0,162.0,515.0,163.0,507.0,163.0,499.0,163.0,491.0,163.0,483.0,163.0,475.0,162.0,467.0,162.0,459.0,162.0,451.0,162.0,443.0,162.0,435.0,162.0,427.0,162.0,419.0,161.0,411.0,162.0,403.0,161.0,395.0,161.0,387.0,158.0,379.0,148.0,371.0,141.0,363.0,128.0,363.0,120.0,363.0,112.0,364.0,104.0,364.0,96.0,365.0,88.0,365.0,80.0,365.0,72.0,365.0,64.0,365.0,56.0,364.0,48.0,365.0,40.0,365.0,32.0,365.0,24.0,364.0,16.0,366.0,8.0,365.0,0.0,362.0" stroke="black" stroke-width="1" fill="none" />
<polyline points="0.0,359.0,8.0,358.0,16.0,358.0,24.0,358.0,32.0,358.0,40.0,358.0,48.0,358.0,56.0,358.0,64.0,358.0,72.0,358.0,80.0,358.0,88.0,358.0,96.0,358.0,104.0,358.0,112.0,358.0,120.0,357.0,128.0,357.0,136.0,358.0,144.0,366.0,152.0,374.0,160.0,381.0" stroke="black" stroke-width="1" fill="none" />
<polyline points="235.0,351.0,243.0,352.0,251.0,353.0,259.0,353.0,267.0,353.0,275.0,353.0,283.0,352.0,291.0,352.0,299.0,353.0,307.0,353.0,315.0,352.0,323.0,348.0,331.0,339.0,339.0,330.0" stroke="black" stroke-width="1" fill="none" />
<polyline points="352.0,322.0,360.0,332.0,368.0,339.0,376.0,347.0,384.0,351.0,392.0,351.0,400.0,351.0,408.0,351.0,416.0,351.0,424.0,351.0,432.0,351.0,440.0,351.0,448.0,350.0,456.0,351.0,464.0,351.0,472.0,349.0,480.0,351.0,488.0,351.0,495.0,352.0,503.0,351.0" stroke="black" stroke-width="1" fill="none" />
<polyline points="483.0,165.0,475.0,169.0,467.0,169.0,457.0,170.0,449.0,169.0" stroke="black" stroke-width="1" fill="none" />
<polyline points="432.0,169.0,424.0,169.0" stroke="black" stroke-width="1" fill="none" />
<polyline points="380.0,178.0,366.0,186.0,358.0,194.0,351.0,202.0,351.0,210.0,350.0,218.0,350.0,226.0,350.0,234.0,350.0,242.0,350.0,250.0,350.0,258.0,350.0,266.0,350.0,274.0,350.0,282.0,350.0,290.0,350.0,298.0,350.0,306.0,350.0,314.0,352.0,322.0,357.0,330.0,366.0,338.0,373.0,346.0" stroke="black" stroke-width="1" fill="none" />
<polyline points="333.0,320.0,334.0,312.0,334.0,304.0,334.0,296.0,335.0,288.0,333.0,280.0,333.0,272.0,333.0,264.0,333.0,256.0,334.0,248.0,334.0,240.0,334.0,232.0,334.0,224.0" stroke="black" stroke-width="1" fill="none" />
<polyline points="351.0,202.0,359.0,193.0,367.0,185.0,375.0,180.0,383.0,178.0,391.0,178.0,399.0,177.0,407.0,177.0,415.0,177.0,423.0,177.0,431.0,177.0,439.0,177.0,447.0,177.0,455.0,176.0,463.0,176.0,471.0,176.0,479.0,176.0,487.0,176.0,495.0,176.0,503.0,175.0" stroke="black" stroke-width="1" fill="none" />
<polyline points="467.0,188.0,459.0,186.0,451.0,186.0,443.0,186.0,435.0,186.0,427.0,185.0,419.0,185.0,411.0,186.0,403.0,186.0,395.0,186.0,387.0,185.0,379.0,183.0" stroke="black" stroke-width="1" fill="none" />
<polyline points="348.0,143.0,356.0,151.0,364.0,159.0,372.0,168.0,380.0,169.0,388.0,170.0,396.0,170.0,404.0,170.0,410.0,169.0,415.0,169.0,423.0,169.0,431.0,166.0,442.0,166.0,444.0,169.0,452.0,165.0,465.0,169.0,473.0,165.0,485.0,169.0,493.0,169.0,501.0,169.0,509.0,169.0" stroke="black" stroke-width="1" fill="none" />
<polyline points="330.0,85.0,329.0,77.0,327.0,76.0" stroke="black" stroke-width="1" fill="none" />
<polyline points="349.0,35.0,348.0,43.0,347.0,51.0,348.0,59.0,346.0,67.0,346.0,75.0,346.0,83.0,348.0,91.0,349.0,99.0,347.0,107.0,347.0,115.0,347.0,123.0,347.0,131.0,347.0,139.0,350.0,147.0,359.0,155.0,366.0,163.0" stroke="black" stroke-width="1" fill="none" />
<polyline points="334.0,146.0,326.0,154.0,318.0,163.0,310.0,169.0,302.0,170.0,294.0,170.0,286.0,170.0,278.0,169.0,270.0,169.0,262.0,169.0" stroke="black" stroke-width="1" fill="none" />
<polyline points="309.0,188.0,320.0,196.0,329.0,204.0,334.0,211.0" stroke="black" stroke-width="1" fill="none" />
<polyline points="332.0,205.0,324.0,199.0,316.0,191.0,308.0,187.0,300.0,187.0,292.0,186.0,284.0,186.0,276.0,188.0,268.0,187.0,260.0,187.0,252.0,187.0,244.0,187.0,236.0,187.0,228.0,188.0,220.0,187.0,212.0,187.0,204.0,187.0,196.0,187.0,188.0,188.0,184.0,195.0,186.0,187.0" stroke="black" stroke-width="1" fill="none" />
<polyline points="191.0,181.0,180.0,189.0,173.0,197.0,171.0,199.0,179.0,190.0,187.0,183.0,195.0,181.0,203.0,180.0,211.0,180.0,219.0,180.0,227.0,180.0,235.0,180.0,243.0,180.0,251.0,180.0,259.0,180.0,267.0,180.0,275.0,180.0,283.0,179.0,291.0,179.0,299.0,179.0,307.0,179.0,315.0,181.0,323.0,186.0,331.0,194.0,339.0,204.0" stroke="black" stroke-width="1" fill="none" />
<polyline points="151.0,209.0,143.0,200.0,135.0,192.0,127.0,186.0,119.0,184.0,111.0,184.0,103.0,184.0,95.0,185.0,87.0,184.0,79.0,184.0,71.0,185.0,63.0,186.0,55.0,185.0,47.0,185.0,39.0,185.0,31.0,184.0,23.0,186.0,16.0,186.0,8.0,184.0,0.0,185.0" stroke="black" stroke-width="1" fill="none" />
<polyline points="0.0,180.0,8.0,180.0,16.0,180.0,24.0,180.0,32.0,180.0,40.0,180.0,48.0,179.0,56.0,179.0,64.0,179.0,72.0,179.0,80.0,179.0,88.0,179.0,96.0,179.0,104.0,179.0,112.0,179.0,120.0,179.0,128.0,180.0,136.0,183.0,144.0,190.0,152.0,198.0,154.0,205.0" stroke="black" stroke-width="1" fill="none" />
<polyline points="134.0,182.0,139.0,190.0,149.0,196.0,154.0,201.0,155.0,209.0,157.0,212.0,158.0,220.0,158.0,228.0,158.0,236.0,158.0,244.0,158.0,252.0,158.0,260.0,158.0,268.0,158.0,276.0,159.0,284.0,159.0,292.0,159.0,300.0,159.0,308.0,159.0,316.0,156.0,324.0,149.0,332.0,141.0,340.0,134.0,347.0,142.0,339.0,150.0,331.0,158.0,319.0" stroke="black" stroke-width="1" fill="none" />
<polyline points="153.0,321.0,153.0,313.0,153.0,305.0,153.0,297.0,153.0,289.0,154.0,281.0,153.0,273.0,153.0,265.0,153.0,257.0,154.0,249.0,153.0,241.0,153.0,233.0,153.0,225.0,153.0,217.0,150.0,209.0,143.0,201.0,135.0,193.0,125.0,185.0" stroke="black" stroke-width="1" fill="none" />
<polyline points="153.0,150.0,143.0,158.0,135.0,169.0,138.0,165.0,144.0,157.0,155.0,148.0,158.0,140.0,158.0,132.0,157.0,124.0,157.0,116.0,157.0,108.0,157.0,100.0,157.0,92.0,157.0,84.0,157.0,76.0,157.0,68.0,157.0,60.0,157.0,52.0,157.0,44.0,157.0,36.0,157.0,28.0,157.0,20.0,160.0,12.0,158.0,14.0" stroke="black" stroke-width="1" fill="none" />
<polyline points="163.0,12.0,164.0,20.0,164.0,28.0,165.0,36.0,165.0,44.0,165.0,52.0,165.0,60.0,165.0,68.0,165.0,76.0,166.0,84.0,165.0,92.0,166.0,100.0,166.0,108.0,166.0,116.0,166.0,124.0,166.0,132.0,167.0,140.0,171.0,143.0" stroke="black" stroke-width="1" fill="none" />
<polyline points="152.0,145.0,153.0,137.0,153.0,129.0,153.0,121.0,153.0,113.0,152.0,106.0,153.0,98.0,153.0,90.0,152.0,82.0,150.0,77.0,152.0,69.0,151.0,64.0,152.0,56.0,151.0,48.0,150.0,40.0,150.0,32.0,149.0,24.0,147.0,16.0,144.0,16.0,136.0,15.0,128.0,15.0,120.0,16.0,112.0,17.0" stroke="black" stroke-width="1" fill="none" />
<polyline points="45.0,166.0,32.0,170.0,24.0,170.0,16.0,170.0,8.0,170.0,0.0,170.0" stroke="black" stroke-width="1" fill="none" />
<polyline points="345.0,43.0,345.0,35.0,346.0,27.0,345.0,19.0,342.0,11.0" stroke="black" stroke-width="1" fill="none" />
</svg>