<svg xmlns="http://www.w3.org/2000/svg" height="425px" width="481px" version="1.1"><polyline points="33.0,86.0,31.0,94.0,31.0,102.0,31.0,110.0,30.0,118.0,31.0,126.0,30.0,134.0,30.0,142.0,31.0,150.0,30.0,158.0,30.0,166.0,30.0,174.0,30.0,182.0,30.0,190.0,30.0,198.0,30.0,206.0,30.0,214.0,30.0,222.0,30.0,230.0,30.0,238.0,30.0,246.0,30.0,254.0,30.0,262.0,30.0,270.0,31.0,278.0,31.0,286.0,31.0,294.0,31.0,302.0,31.0,310.0,30.0,318.0,31.0,326.0,30.0,334.0,31.0,342.0,30.0,350.0,31.0,358.0,31.0,366.0,30.0,374.0,30.0,382.0,31.0,390.0,31.0,398.0,31.0,406.0,31.0,414.0,31.0,422.0,37.0,425.0,45.0,425.0,53.0,424.0,61.0,424.0,69.0,424.0,77.0,425.0,85.0,425.0,93.0,424.0,101.0,425.0,109.0,425.0,117.0,424.0,125.0,424.0,133.0,424.0,141.0,424.0,149.0,424.0,157.0,424.0,165.0,424.0,173.0,424.0,181.0,424.0,189.0,424.0,197.0,424.0,205.0,424.0,213.0,424.0,221.0,424.0,229.0,424.0,237.0,424.0,245.0,424.0,253.0,424.0,261.0,424.0,269.0,425.0,277.0,424.0,285.0,425.0,293.0,424.0,301.0,424.0,309.0,424.0,317.0,424.0,325.0,424.0,333.0,425.0,341.0,425.0,349.0,424.0,357.0,424.0,365.0,425.0,373.0,424.0,381.0,424.0,389.0,424.0,397.0,425.0,405.0,424.0,413.0,424.0,421.0,424.0,429.0,424.0,437.0,424.0,445.0,424.0,453.0,424.0,461.0,424.0,469.0,425.0,477.0,424.0" stroke="black" stroke-width="1" fill="none" />
<polyline points="310.0,262.0,302.0,257.0,294.0,247.0" stroke="black" stroke-width="1" fill="none" />
<polyline points="294.0,242.0,295.0,250.0,302.0,258.0,303.0,267.0,295.0,275.0,294.0,283.0,294.0,291.0,295.0,299.0,295.0,307.0,294.0,315.0,294.0,323.0,295.0,331.0,294.0,339.0" stroke="black" stroke-width="1" fill="none" />
<polyline points="276.0,269.0,284.0,273.0,294.0,277.0,302.0,269.0,310.0,265.0,318.0,266.0,326.0,266.0,334.0,266.0,342.0,266.0,350.0,266.0,358.0,266.0,366.0,266.0,374.0,264.0" stroke="black" stroke-width="1" fill="none" />
<polyline points="375.0,190.0,375.0,198.0,376.0,206.0,376.0,214.0,376.0,222.0,376.0,230.0,376.0,238.0,375.0,246.0,376.0,254.0,375.0,262.0,377.0,271.0,377.0,279.0,377.0,287.0,377.0,295.0,377.0,303.0,376.0,311.0,376.0,319.0,376.0,327.0,376.0,335.0,374.0,343.0" stroke="black" stroke-width="1" fill="none" />
<polyline points="365.0,180.0,357.0,180.0,349.0,180.0,341.0,180.0,333.0,180.0,325.0,180.0,317.0,180.0,309.0,181.0,301.0,185.0,293.0,193.0,285.0,189.0,277.0,183.0" stroke="black" stroke-width="1" fill="none" />
<polyline points="288.0,168.0,280.0,176.0,272.0,183.0,264.0,183.0,256.0,183.0,248.0,184.0,240.0,184.0,232.0,184.0,224.0,184.0,216.0,187.0,208.0,199.0,200.0,193.0,192.0,188.0" stroke="black" stroke-width="1" fill="none" />
<polyline points="203.0,176.0,195.0,184.0,187.0,187.0,179.0,187.0,171.0,187.0,163.0,188.0,155.0,188.0,147.0,188.0,139.0,188.0,131.0,189.0" stroke="black" stroke-width="1" fill="none" />
<polyline points="130.0,113.0,138.0,106.0,146.0,106.0,154.0,106.0,162.0,105.0,170.0,105.0,178.0,105.0,186.0,105.0,194.0,104.0,202.0,104.0,207.0,107.0,206.0,115.0,206.0,123.0,206.0,131.0,206.0,139.0,206.0,147.0,206.0,155.0,206.0,163.0,206.0,171.0,199.0,179.0,196.0,190.0,204.0,198.0,207.0,206.0,207.0,214.0,207.0,222.0,207.0,230.0,207.0,238.0,206.0,246.0,206.0,254.0,199.0,262.0,201.0,274.0,209.0,282.0,209.0,290.0,208.0,298.0,209.0,306.0,209.0,314.0,209.0,322.0,209.0,330.0,209.0,338.0,208.0,346.0,214.0,345.0,222.0,345.0,230.0,346.0,238.0,346.0,246.0,346.0,254.0,346.0,262.0,346.0,270.0,346.0,278.0,346.0,286.0,346.0" stroke="black" stroke-width="1" fill="none" />
<polyline points="365.0,345.0,357.0,345.0,349.0,345.0,341.0,345.0,333.0,345.0,325.0,344.0,317.0,344.0,309.0,345.0,301.0,345.0,291.0,344.0,291.0,336.0,291.0,328.0,291.0,320.0,291.0,312.0,291.0,304.0,291.0,296.0,291.0,288.0,290.0,280.0,282.0,272.0,284.0,261.0,290.0,253.0,290.0,245.0,290.0,237.0,290.0,229.0,290.0,221.0,290.0,213.0,290.0,205.0,290.0,197.0,284.0,189.0,278.0,179.0,286.0,171.0,289.0,163.0,289.0,155.0,289.0,147.0,289.0,139.0,289.0,131.0,289.0,123.0,289.0,115.0,290.0,107.0,289.0,100.0,281.0,100.0,273.0,100.0,265.0,100.0,257.0,100.0,249.0,100.0,241.0,101.0,233.0,101.0,225.0,101.0,217.0,101.0,209.0,103.0" stroke="black" stroke-width="1" fill="none" />
<polyline points="221.0,184.0,212.0,192.0,209.0,200.0" stroke="black" stroke-width="1" fill="none" />
<polyline points="203.0,258.0,195.0,267.0,187.0,270.0,179.0,270.0,171.0,270.0,163.0,270.0,155.0,270.0,147.0,270.0,139.0,270.0,131.0,272.0" stroke="black" stroke-width="1" fill="none" />
<polyline points="192.0,270.0,200.0,272.0,208.0,280.0,216.0,275.0,224.0,269.0,232.0,268.0,240.0,268.0,248.0,269.0,256.0,269.0,264.0,269.0,272.0,269.0,280.0,264.0,288.0,256.0" stroke="black" stroke-width="1" fill="none" />
<polyline points="222.0,269.0,214.0,277.0" stroke="black" stroke-width="1" fill="none" />
<polyline points="297.0,189.0,306.0,181.0" stroke="black" stroke-width="1" fill="none" />
<polyline points="31.0,87.0,39.0,87.0,47.0,86.0,55.0,86.0,63.0,87.0,71.0,86.0,79.0,86.0,87.0,86.0,95.0,87.0,103.0,87.0,111.0,86.0,119.0,86.0,127.0,87.0,135.0,86.0,143.0,87.0,151.0,87.0,159.0,87.0,167.0,87.0,175.0,86.0,183.0,86.0,191.0,87.0,199.0,87.0,207.0,86.0,215.0,87.0,223.0,87.0,231.0,87.0,239.0,87.0,247.0,87.0,255.0,87.0,263.0,86.0,271.0,87.0,279.0,87.0,287.0,86.0,295.0,87.0,303.0,86.0,311.0,86.0,319.0,86.0,327.0,87.0,335.0,87.0,343.0,87.0,351.0,87.0,359.0,87.0,367.0,87.0,375.0,87.0,383.0,86.0,391.0,87.0,399.0,86.0,407.0,87.0,415.0,86.0,423.0,87.0,431.0,87.0,439.0,87.0,447.0,87.0,455.0,87.0,463.0,87.0,471.0,86.0,479.0,87.0,480.0,94.0,480.0,102.0,480.0,110.0,480.0,118.0,480.0,126.0,480.0,134.0,480.0,142.0,480.0,150.0,480.0,158.0,480.0,166.0,480.0,174.0,480.0,182.0,480.0,190.0,480.0,198.0,480.0,206.0,480.0,214.0,480.0,222.0,480.0,230.0,480.0,238.0,480.0,246.0,480.0,254.0,480.0,262.0,480.0,270.0,481.0,278.0,480.0,286.0,480.0,294.0,480.0,302.0,480.0,310.0,480.0,318.0,480.0,326.0,480.0,334.0,480.0,342.0,480.0,350.0,480.0,358.0,480.0,366.0,480.0,374.0,480.0,382.0,481.0,390.0,480.0,398.0,480.0,406.0,480.0,414.0,481.0,422.0" stroke="black" stroke-width="1" fill="none" />
</svg>