<svg xmlns="http://www.w3.org/2000/svg" height="376px" width="397px" version="1.1"><polyline points="387.0,89.0,391.0,97.0,391.0,105.0,391.0,113.0,392.0,121.0,392.0,129.0,392.0,137.0,392.0,145.0,392.0,153.0,393.0,161.0,393.0,169.0,394.0,179.0,396.0,187.0,396.0,195.0,396.0,203.0,396.0,211.0,396.0,219.0,397.0,227.0,396.0,235.0,396.0,243.0,396.0,251.0,397.0,259.0,396.0,267.0,396.0,279.0,396.0,287.0,396.0,295.0,396.0,303.0,396.0,311.0,396.0,319.0,397.0,327.0,397.0,335.0,397.0,343.0,397.0,351.0,395.0,359.0" stroke="black" stroke-width="1" fill="none" />
<polyline points="396.0,174.0,397.0,166.0,397.0,158.0,397.0,150.0,396.0,142.0,396.0,134.0,396.0,126.0,396.0,118.0,396.0,110.0,396.0,102.0,395.0,94.0,389.0,90.0,381.0,88.0,373.0,88.0,365.0,88.0,357.0,87.0,349.0,88.0,341.0,89.0,333.0,88.0,325.0,88.0,317.0,88.0,309.0,89.0" stroke="black" stroke-width="1" fill="none" />
<polyline points="309.0,91.0,309.0,99.0,309.0,107.0,309.0,115.0,309.0,123.0,309.0,131.0,309.0,139.0,309.0,147.0,309.0,155.0,309.0,164.0,317.0,172.0,322.0,180.0,314.0,188.0,311.0,196.0,311.0,204.0,311.0,212.0,311.0,220.0,311.0,228.0,311.0,236.0,311.0,244.0,311.0,252.0,315.0,260.0,324.0,268.0,319.0,277.0,311.0,285.0,311.0,293.0,311.0,301.0,311.0,309.0,311.0,317.0,311.0,325.0,311.0,333.0,311.0,341.0,311.0,349.0,311.0,357.0" stroke="black" stroke-width="1" fill="none" />
<polyline points="396.0,358.0,388.0,362.0,380.0,362.0,372.0,362.0,364.0,362.0,356.0,363.0,348.0,363.0,340.0,363.0,332.0,364.0,324.0,364.0,316.0,364.0,309.0,363.0,309.0,355.0,309.0,347.0,309.0,339.0,309.0,331.0,309.0,323.0,309.0,315.0,309.0,307.0,309.0,299.0,308.0,291.0,301.0,283.0,295.0,272.0,304.0,264.0,309.0,256.0,307.0,248.0,308.0,240.0,308.0,232.0,308.0,224.0,308.0,216.0,308.0,208.0,308.0,200.0,307.0,192.0,300.0,184.0,295.0,174.0,303.0,166.0,306.0,158.0,306.0,150.0,306.0,142.0,306.0,134.0,305.0,126.0,305.0,118.0,305.0,110.0,305.0,102.0,306.0,94.0,303.0,90.0,295.0,89.0,287.0,89.0,279.0,88.0,271.0,89.0,263.0,89.0,255.0,88.0,247.0,88.0,239.0,88.0,231.0,88.0,223.0,88.0,215.0,89.0" stroke="black" stroke-width="1" fill="none" />
<polyline points="209.0,91.0,212.0,99.0,211.0,107.0,211.0,115.0,212.0,123.0,211.0,131.0,211.0,139.0,211.0,147.0,211.0,155.0,212.0,163.0,207.0,171.0,200.0,179.0,204.0,190.0,211.0,198.0,212.0,206.0,212.0,214.0,212.0,222.0,212.0,230.0,212.0,238.0,213.0,246.0,212.0,254.0,218.0,263.0,225.0,271.0,228.0,280.0,219.0,288.0,217.0,296.0,217.0,304.0,217.0,312.0,217.0,320.0,217.0,328.0,217.0,336.0,217.0,344.0,217.0,352.0,216.0,360.0" stroke="black" stroke-width="1" fill="none" />
<polyline points="204.0,373.0,212.0,372.0,220.0,370.0,228.0,369.0,236.0,369.0,244.0,369.0,252.0,369.0,260.0,369.0,268.0,368.0,276.0,368.0,284.0,367.0,292.0,367.0,300.0,367.0,308.0,365.0" stroke="black" stroke-width="1" fill="none" />
<polyline points="216.0,194.0,224.0,183.0,232.0,180.0,240.0,180.0,248.0,180.0,256.0,180.0,264.0,180.0,272.0,180.0,280.0,181.0,288.0,180.0,296.0,180.0,304.0,187.0,314.0,188.0,322.0,179.0,333.0,178.0,341.0,178.0,349.0,178.0,357.0,178.0,365.0,178.0,373.0,178.0,381.0,178.0,389.0,179.0" stroke="black" stroke-width="1" fill="none" />
<polyline points="389.0,272.0,381.0,272.0,373.0,272.0,365.0,272.0,357.0,273.0,349.0,273.0,341.0,273.0,333.0,273.0,325.0,271.0,317.0,279.0,307.0,288.0,299.0,280.0,290.0,277.0,282.0,277.0,274.0,277.0,266.0,277.0,258.0,277.0,250.0,277.0,242.0,277.0,234.0,277.0,224.0,284.0,214.0,292.0,206.0,286.0,198.0,279.0,190.0,280.0,182.0,281.0,174.0,281.0,166.0,281.0,158.0,281.0,150.0,281.0,142.0,281.0,134.0,282.0,126.0,281.0" stroke="black" stroke-width="1" fill="none" />
<polyline points="126.0,183.0,134.0,183.0,142.0,183.0,150.0,183.0,158.0,183.0,166.0,183.0,174.0,183.0,182.0,183.0,190.0,184.0,198.0,184.0,206.0,191.0" stroke="black" stroke-width="1" fill="none" />
<polyline points="123.0,181.0,131.0,180.0,139.0,180.0,147.0,180.0,155.0,180.0,163.0,180.0,171.0,180.0,179.0,180.0,187.0,180.0,195.0,181.0,203.0,175.0,211.0,168.0,223.0,171.0,231.0,177.0,239.0,176.0,247.0,177.0,255.0,177.0,263.0,177.0,271.0,177.0,279.0,177.0,287.0,177.0,295.0,174.0,303.0,166.0,310.0,164.0,318.0,172.0,326.0,176.0,334.0,175.0,342.0,175.0,350.0,175.0,358.0,175.0,366.0,175.0,374.0,175.0,382.0,175.0,390.0,175.0" stroke="black" stroke-width="1" fill="none" />
<polyline points="213.0,364.0,214.0,356.0,214.0,348.0,214.0,340.0,214.0,332.0,214.0,324.0,214.0,316.0,214.0,308.0,214.0,300.0,213.0,292.0,204.0,284.0,200.0,274.0,209.0,266.0,216.0,258.0,216.0,250.0,216.0,242.0,216.0,234.0,216.0,226.0,216.0,218.0,216.0,210.0,217.0,202.0,216.0,194.0,221.0,186.0,230.0,177.0,220.0,169.0,215.0,161.0,215.0,153.0,215.0,145.0,215.0,137.0,215.0,129.0,215.0,121.0,215.0,113.0,215.0,105.0,215.0,97.0,215.0,89.0,206.0,90.0,198.0,90.0,190.0,90.0,182.0,90.0,174.0,90.0,166.0,90.0,158.0,90.0,150.0,90.0,142.0,90.0,134.0,90.0,126.0,91.0,118.0,96.0" stroke="black" stroke-width="1" fill="none" />
<polyline points="121.0,91.0,118.0,99.0,118.0,107.0,118.0,115.0,118.0,123.0,117.0,131.0,117.0,139.0,117.0,147.0,117.0,155.0,117.0,163.0,117.0,171.0,117.0,179.0,118.0,187.0,118.0,195.0,119.0,203.0,118.0,211.0,118.0,219.0,118.0,227.0,118.0,235.0,118.0,243.0,118.0,251.0,119.0,259.0,118.0,267.0,118.0,275.0,124.0,279.0,132.0,278.0,140.0,278.0,148.0,278.0,156.0,277.0,164.0,277.0,172.0,277.0,180.0,277.0,188.0,277.0,196.0,276.0,204.0,271.0,212.0,263.0,222.0,267.0,230.0,273.0,238.0,274.0,246.0,274.0,254.0,274.0,262.0,274.0,270.0,274.0,278.0,274.0,286.0,273.0,294.0,273.0,302.0,266.0,313.0,257.0,321.0,265.0,329.0,269.0,337.0,269.0,345.0,269.0,353.0,269.0,361.0,269.0,369.0,269.0,377.0,269.0,385.0,269.0,393.0,268.0" stroke="black" stroke-width="1" fill="none" />
<polyline points="12.0,352.0,14.0,360.0,17.0,368.0,18.0,376.0" stroke="black" stroke-width="1" fill="none" />
</svg>