<svg xmlns="http://www.w3.org/2000/svg" height="399px" width="399px" version="1.1"><polyline points="142.0,8.0,130.5,12.0,120.0,16.0,111.5,20.0,104.0,24.0,97.0,28.0,90.5,32.0,85.0,36.0,79.5,40.0,74.5,44.0,69.5,48.0,65.0,52.0,61.0,56.0,56.5,60.0,53.0,64.0,49.5,68.0,46.0,72.0,42.5,76.0,39.5,80.0,36.5,84.0,34.0,88.0,31.5,92.0,28.5,96.0,26.5,100.0,24.0,104.0,22.0,108.0,20.0,112.0,18.0,116.0,16.0,120.0,14.5,124.0,13.0,128.0,11.5,132.0,10.0,136.0,9.0,140.0,7.5,144.0,6.5,148.0,5.5,152.0,4.5,156.0,4.0,160.0,3.0,164.0,2.5,168.0,1.5,172.0,1.0,176.0,1.0,180.0,1.0,184.0" stroke="black" stroke-width="1" fill="none" />
<polyline points="1.0,212.5,1.0,216.5,1.0,220.5,1.5,224.5,2.0,228.5,2.5,232.5,3.5,236.5,4.0,240.5,5.0,244.5,5.5,248.5,7.0,252.5,8.0,256.5,9.5,260.5,10.5,264.5,12.0,268.5,13.5,272.5,15.0,276.5,17.0,280.5,18.5,284.5,20.5,288.5,22.5,292.5,24.5,296.5,27.0,300.5,29.5,304.5,32.0,308.5,34.5,312.5,37.5,316.5,40.5,320.5,43.5,324.5,46.5,328.5,50.0,332.5,54.0,336.5,57.5,340.5,61.5,344.5,66.0,348.5,70.5,352.5,75.5,356.5,80.5,360.5,86.0,364.5,92.0,368.5,98.5,372.5,106.0,376.5,113.5,380.5,122.5,384.5,133.0,388.5" stroke="black" stroke-width="1" fill="none" />
<polyline points="213.0,398.5,217.0,398.5,221.0,398.5,225.0,398.0,229.0,397.5,233.0,397.0,237.0,396.5,241.0,395.5,245.0,394.5,249.0,393.5,253.0,392.5,257.0,391.5,261.0,390.0,265.0,388.5,269.0,387.5,273.0,386.0,277.0,384.5,281.0,382.5,285.0,380.5,289.0,378.5,293.0,376.5,297.0,374.5,301.0,372.0,305.0,369.5,309.0,367.0,313.0,364.5,317.0,361.5,321.0,358.5,325.0,355.5,329.0,352.0,333.0,348.5,337.0,345.0,341.0,341.0,345.0,337.0,349.0,332.5,353.0,328.0,357.0,323.0,361.0,317.5,365.0,312.0,369.0,306.0,373.0,299.0,377.0,292.0,381.0,284.0,385.0,274.5,389.0,264.5" stroke="black" stroke-width="1" fill="none" />
<polyline points="398.5,213.5,398.5,217.0,398.5,221.0,398.0,225.0,397.5,229.0,397.0,233.0,396.5,237.0,395.5,241.0,394.5,245.0,393.5,249.0,392.5,253.0,391.5,257.0,390.0,261.0,389.0,265.0,387.5,269.0,386.0,273.0,384.5,277.0,382.5,281.0,380.5,285.0,378.5,289.0,376.5,293.0,374.5,297.0,372.0,301.0,369.5,305.0,367.0,309.0,364.5,313.0,361.5,317.0,358.5,321.0,355.5,325.0,352.0,329.0,348.5,333.0,345.0,337.0,341.0,341.0,337.0,345.0,332.5,349.0,327.5,353.0,323.0,357.0,317.5,361.0,312.0,365.0,306.0,369.0,299.0,373.0,292.0,377.0,284.0,381.0,274.5,385.0,264.0,389.0" stroke="black" stroke-width="1" fill="none" />
<polyline points="266.0,265.0,270.0,271.5,274.0,273.5,278.0,274.5,282.0,273.5,286.0,270.5,290.0,266.5,294.0,262.5,298.0,258.5,302.0,254.5,306.0,250.5,310.0,246.5,314.0,242.5,318.0,238.5,322.0,234.5,326.0,230.5,330.0,226.5,334.0,222.5,338.0,218.5,342.0,214.5,346.0,210.5,350.0,206.0" stroke="black" stroke-width="1" fill="none" />
<polyline points="322.0,197.5,318.0,193.5,314.0,189.5,310.0,185.5,306.0,181.5,302.0,177.5,298.0,173.5,294.0,169.5,290.0,165.5,286.0,161.5,282.0,157.5,278.0,153.5,274.0,149.5,270.0,145.5,266.0,139.0" stroke="black" stroke-width="1" fill="none" />
<polyline points="265.5,134.0,269.5,127.0,273.5,125.0,277.5,124.5,281.5,125.0,285.5,127.0,289.5,131.0,293.5,135.0,297.5,139.0,301.5,143.0,305.5,147.0,309.5,151.0,313.5,155.0,317.5,159.0,321.5,163.0,325.5,167.0,329.5,171.0,333.5,175.0,337.5,179.0,341.5,183.0,345.5,187.0,349.5,191.0" stroke="black" stroke-width="1" fill="none" />
<polyline points="321.5,201.0,317.5,205.0,313.5,209.0,309.5,213.0,305.5,217.0,301.5,221.0,297.5,225.0,293.5,229.0,289.5,233.0,285.5,237.0,281.5,241.0,277.5,245.0,273.5,249.0,269.5,253.0,265.5,260.0" stroke="black" stroke-width="1" fill="none" />
<polyline points="189.0,290.5,185.0,293.0,181.0,294.5,177.0,293.5,173.0,291.5,169.0,285.0" stroke="black" stroke-width="1" fill="none" />
<polyline points="133.0,258.0,129.0,252.5,125.0,248.0,121.0,244.5,117.0,240.0,113.0,236.5,109.0,232.0,105.0,228.0,101.0,224.0,97.0,220.0,93.0,216.5,89.0,212.0,85.0,208.0,81.0,204.0,77.0,200.0" stroke="black" stroke-width="1" fill="none" />
<polyline points="76.5,198.5,80.5,194.5,84.5,190.5,88.5,186.5,92.5,182.5,96.5,178.5,100.5,174.5,104.5,170.5,108.5,166.5,112.5,162.5,116.5,158.5,120.5,154.5,124.5,150.5,128.5,146.5,132.5,141.5" stroke="black" stroke-width="1" fill="none" />
<polyline points="131.0,128.0,127.0,125.5,123.0,124.5,119.0,124.5,115.0,126.5,111.0,130.0,107.0,134.0,103.0,138.0,99.0,142.0,95.0,146.0,91.0,150.0,87.0,154.0,83.0,158.0,79.0,162.0,75.0,166.0,71.0,170.0,67.0,174.0,63.0,178.0,59.0,182.0,55.0,186.0,51.0,190.0,47.0,196.5" stroke="black" stroke-width="1" fill="none" />
<polyline points="47.5,202.5,51.5,208.5,55.5,212.5,59.5,216.5,63.5,220.5,67.5,224.5,71.5,228.5,75.5,232.5,79.5,236.5,83.5,240.5,87.5,244.5,91.5,248.5,95.5,253.0,99.5,257.0,103.5,261.0,107.5,264.5,111.5,269.0,115.5,272.5,119.5,274.0,123.5,274.5,127.5,272.5,131.5,269.0" stroke="black" stroke-width="1" fill="none" />
<polyline points="8.5,258.0,12.5,269.5,16.5,279.5,20.5,288.0,24.5,295.5,28.5,302.5,32.5,309.0,36.5,314.5,40.5,320.0,44.5,325.5,48.5,330.0,52.5,334.5,56.5,339.0,60.5,343.0,64.5,346.5,68.5,350.0,72.5,353.5,76.5,357.0,80.5,360.0,84.5,363.0,88.5,365.5,92.5,368.5,96.5,371.0,100.5,373.0,104.5,375.5,108.5,377.5,112.5,379.5,116.5,381.5,120.5,383.5,124.5,385.0,128.5,386.5,132.5,388.0,136.5,389.5,140.5,391.0,144.5,392.0,148.5,393.0,152.5,394.0,156.5,395.0,160.5,396.0,164.5,397.0,168.5,397.0,172.5,398.0,176.5,398.5,180.5,398.5,184.5,398.5" stroke="black" stroke-width="1" fill="none" />
<polyline points="282.5,273.0,287.5,269.0,291.5,265.0,295.5,261.0,299.5,257.0,303.5,253.0,307.5,249.0,311.5,245.0,315.5,241.0,319.5,237.0,323.5,233.0,327.5,229.0,331.5,225.0,335.5,221.0,339.5,217.0,343.5,213.0,347.5,209.0,351.0,205.0,352.5,201.0,352.5,197.0,350.5,193.0,347.0,189.0,343.0,185.0,339.0,181.0,335.0,177.0,331.0,173.0,327.0,169.0,323.0,165.0,319.0,161.0,315.0,157.0,311.0,153.0,307.0,149.0,303.0,145.0,299.0,141.0,295.0,137.0,291.0,133.0,287.0,129.0,281.0,125.0" stroke="black" stroke-width="1" fill="none" />
<polyline points="272.5,125.0,268.0,129.0,266.0,133.0,265.5,137.0,266.5,141.0,269.0,145.0,273.0,149.0,277.0,153.0,281.0,157.0,285.0,161.0,289.0,165.0,293.0,169.0,297.0,173.0,301.0,177.0,305.0,181.0,309.0,185.0,313.0,189.0,317.0,193.0,321.0,197.0,321.5,201.0,317.5,205.0,313.5,209.0,309.5,213.0,305.5,217.0,301.5,221.0,297.5,225.0,293.5,229.0,289.5,233.0,285.5,237.0,281.5,241.0,277.5,245.0,273.5,249.0,269.5,253.0,267.0,257.0,265.5,261.0,266.0,265.0,267.5,269.0,272.0,273.0" stroke="black" stroke-width="1" fill="none" />
<polyline points="223.0,108.5,219.0,106.0,215.0,105.0,211.0,105.5,207.0,107.5,203.0,112.5" stroke="black" stroke-width="1" fill="none" />
<polyline points="211.0,105.5,205.0,109.5,203.0,113.5,202.0,117.5,201.5,121.5,200.5,125.5,199.5,129.5,199.0,133.5,198.0,137.5,197.0,141.5,196.5,145.5,195.5,149.5,194.5,153.5,194.0,157.5,193.0,161.5,192.5,165.5,191.5,169.5,190.5,173.5,190.0,177.5,189.0,181.5,188.0,185.5,187.5,189.5,186.5,193.5,185.5,197.5,185.0,201.5,184.0,205.5,183.0,209.5,182.5,213.5,181.5,217.5,180.5,221.5,180.0,225.5,179.0,229.5,178.0,233.5,177.5,237.5,176.5,241.5,175.5,245.5,175.0,249.5,174.5,253.5,173.5,257.5,172.5,261.5,172.0,265.5,170.5,269.5,170.0,273.5,169.5,277.5,168.5,281.5,169.0,285.5,171.0,289.5,176.5,293.5" stroke="black" stroke-width="1" fill="none" />
<polyline points="126.5,273.0,131.5,269.0,133.5,265.0,133.5,261.0,132.5,257.0,129.5,253.0,125.5,249.0,121.5,245.0,117.5,241.0,113.5,237.0,109.5,233.0,105.5,229.0,101.5,225.0,97.5,221.0,93.0,217.0,89.5,213.0,85.5,209.0,81.5,205.0,77.0,201.0,78.0,197.0,82.0,193.0,86.0,189.0,90.0,185.0,94.0,181.0,98.0,177.0,102.0,173.0,106.0,169.0,110.0,165.0,114.0,161.0,118.0,157.0,122.0,153.0,126.0,149.0,130.0,145.0,133.0,141.0,134.0,137.0,133.0,133.0,131.5,129.0,125.5,125.0" stroke="black" stroke-width="1" fill="none" />
<polyline points="118.5,124.5,112.5,128.5,108.5,132.5,104.5,136.5,100.5,140.5,96.5,144.5,92.5,148.5,88.5,152.5,84.5,156.5,80.5,160.5,76.5,164.5,72.5,168.5,68.5,172.5,64.5,176.5,60.5,180.5,56.5,184.5,52.5,188.5,49.0,192.5,47.0,196.5,47.0,200.5,48.0,204.5,51.0,208.5,55.0,212.5,59.0,216.5,63.0,220.5,67.0,224.5,71.0,228.5,75.0,232.5,79.0,236.5,83.0,240.5,87.0,244.5,91.0,248.5,94.5,252.5,99.0,256.5,102.5,260.5,107.0,264.5,110.5,268.5,115.0,272.5" stroke="black" stroke-width="1" fill="none" />
<polyline points="9.5,137.5,13.5,126.0,17.5,117.0,21.5,108.5,25.5,101.0,29.5,94.5,33.5,88.5,37.5,82.5,41.5,77.5,45.5,72.5,49.5,67.5,53.5,63.5,57.5,59.0,61.5,55.5,65.5,51.5,69.5,48.0,73.5,44.5,77.5,41.5,81.5,38.5,85.5,35.5,89.5,33.0,93.5,30.0,97.5,28.0,101.5,25.5,105.5,23.0,109.5,21.0,113.5,19.0,117.5,17.5,121.5,15.5,125.5,14.0,129.5,12.5,133.5,11.0,137.5,9.5,141.5,8.5,145.5,7.5,149.5,6.0,153.5,5.0,157.5,4.5,161.5,3.5,165.5,3.0,169.5,2.0,173.5,1.5,177.5,1.0,181.5,1.0,185.5,1.0" stroke="black" stroke-width="1" fill="none" />
<polyline points="212.5,1.0,216.5,1.0,220.5,1.0,224.5,1.5,228.5,2.0,232.5,2.5,236.5,3.5,240.5,4.0,244.5,5.0,248.5,5.5,252.5,7.0,256.5,8.0,260.5,9.5,264.5,10.5,268.5,12.0,272.5,13.5,276.5,15.0,280.5,16.5,284.5,18.5,288.5,20.5,292.5,22.5,296.5,24.5,300.5,27.0,304.5,29.5,308.5,32.0,312.5,34.5,316.5,37.5,320.5,40.5,324.5,43.5,328.5,46.5,332.5,50.0,336.5,53.5,340.5,57.5,344.5,61.5,348.5,66.0,352.5,70.5,356.5,75.5,360.5,80.5,364.5,86.0,368.5,92.0,372.5,98.5,376.5,105.5,380.5,113.5,384.5,122.5,388.5,132.5" stroke="black" stroke-width="1" fill="none" />
<polyline points="218.5,106.0,224.0,110.0,226.0,114.0,226.5,118.0,225.5,122.0,225.0,126.0,224.0,130.0,223.0,134.0,222.5,138.0,221.5,142.0,220.5,146.0,220.0,150.0,219.0,154.0,218.0,158.0,217.5,162.0,216.5,166.0,215.5,170.0,215.0,174.0,214.5,178.0,213.0,182.0,212.5,186.0,212.0,190.0,211.0,194.0,210.0,198.0,209.5,202.0,208.5,206.0,207.5,210.0,207.0,214.0,206.0,218.0,205.0,222.0,204.5,226.0,203.5,230.0,202.5,234.0,202.0,238.0,201.0,242.0,200.0,246.0,199.5,250.0,198.5,254.0,197.5,258.0,197.0,262.0,196.0,266.0,195.5,270.0,194.5,274.0,193.5,278.0,193.0,282.0,192.0,286.0,189.5,290.0,182.0,294.0" stroke="black" stroke-width="1" fill="none" />
<polyline points="398.5,186.0,398.5,182.0,398.5,178.0,398.0,174.0,397.5,170.0,397.0,166.0,396.5,162.0,395.5,158.0,394.5,154.0,393.5,150.0,392.5,146.0,391.5,142.0,390.0,138.0,389.0,134.0,387.0,130.0,385.5,126.0,384.0,122.0,382.5,118.0,380.5,114.0,378.5,110.0,376.5,106.0,374.0,102.0,372.0,98.0,369.5,94.0,366.5,90.0,364.0,86.0,361.0,82.0,358.0,78.0,355.0,74.0,351.5,70.0,348.0,66.0,344.5,62.0,340.5,58.0,336.5,54.0,332.0,50.0,327.0,46.0,322.0,42.0,317.0,38.0,311.0,34.0,305.0,30.0,298.0,26.0,291.0,22.0,283.0,18.0,273.5,14.0,262.5,10.0" stroke="black" stroke-width="1" fill="none" />
</svg>