<svg xmlns="http://www.w3.org/2000/svg" height="577px" width="467px" version="1.1"><polyline points="33.0,35.0,31.0,43.0,31.0,51.0,31.0,59.0,31.0,67.0,31.0,75.0,31.0,83.0,31.0,91.0,31.0,99.0,31.0,107.0,31.0,115.0,31.0,123.0,31.0,131.0,31.0,139.0,31.0,147.0,31.0,155.0,31.0,163.0,31.0,171.0,31.0,179.0,31.0,187.0,31.0,195.0,31.0,203.0,31.0,211.0,31.0,219.0,31.0,227.0,31.0,235.0,31.0,243.0,31.0,251.0,31.0,259.0,31.0,267.0,31.0,275.0,31.0,283.0,31.0,291.0,31.0,299.0,31.0,307.0,31.0,315.0,31.0,323.0,31.0,331.0,31.0,339.0,31.0,347.0,31.0,355.0,31.0,363.0,31.0,371.0,31.0,379.0,31.0,387.0,31.0,395.0,31.0,403.0,31.0,411.0,31.0,419.0,31.0,427.0,31.0,435.0,31.0,443.0,31.0,451.0,31.0,459.0,31.0,467.0,34.0,472.0,42.0,471.0,50.0,471.0,58.0,471.0,66.0,471.0,74.0,471.0,82.0,471.0,90.0,471.0,98.0,471.0,106.0,471.0,114.0,471.0,122.0,471.0,130.0,471.0,138.0,471.0,146.0,471.0,154.0,471.0,162.0,471.0,170.0,471.0,178.0,471.0,186.0,471.0,194.0,471.0,202.0,471.0,210.0,471.0,218.0,471.0,226.0,471.0,234.0,471.0,242.0,471.0,250.0,471.0,258.0,471.0,266.0,471.0,274.0,471.0,282.0,471.0,290.0,471.0,298.0,471.0,306.0,471.0,314.0,471.0,322.0,471.0,330.0,471.0,338.0,471.0,346.0,471.0,354.0,471.0,362.0,471.0,370.0,471.0,378.0,471.0,386.0,471.0,394.0,471.0,402.0,471.0,410.0,471.0,418.0,471.0,426.0,471.0,434.0,471.0,442.0,471.0,450.0,471.0,458.0,471.0,466.0,471.0" stroke="black" stroke-width="1" fill="none" />
<polyline points="387.0,534.0,379.0,535.0" stroke="black" stroke-width="1" fill="none" />
<polyline points="379.0,535.0,378.0,543.0,378.0,551.0,378.0,559.0,378.0,567.0" stroke="black" stroke-width="1" fill="none" />
<polyline points="371.0,568.0,369.0,562.0,369.0,554.0,369.0,546.0,369.0,538.0,365.0,534.0,357.0,532.0" stroke="black" stroke-width="1" fill="none" />
<polyline points="356.0,530.0,364.0,527.0,372.0,527.0,380.0,527.0,388.0,527.0" stroke="black" stroke-width="1" fill="none" />
<polyline points="340.0,528.0,344.0,536.0,347.0,544.0,350.0,552.0,353.0,560.0" stroke="black" stroke-width="1" fill="none" />
<polyline points="331.0,550.0,334.0,542.0,331.0,550.0,328.0,563.0" stroke="black" stroke-width="1" fill="none" />
<polyline points="317.0,568.0,325.0,568.0,333.0,560.0,341.0,560.0,349.0,568.0" stroke="black" stroke-width="1" fill="none" />
<polyline points="334.0,554.0,339.0,548.0,337.0,540.0" stroke="black" stroke-width="1" fill="none" />
<polyline points="346.0,540.0,338.0,527.0,330.0,528.0,322.0,549.0,316.0,567.0,318.0,559.0,321.0,551.0,324.0,543.0,327.0,535.0,331.0,527.0" stroke="black" stroke-width="1" fill="none" />
<polyline points="310.0,531.0,302.0,527.0,294.0,527.0,286.0,527.0,278.0,527.0" stroke="black" stroke-width="1" fill="none" />
<polyline points="278.0,527.0,278.0,535.0,278.0,543.0,278.0,551.0,278.0,559.0,278.0,567.0,285.0,568.0" stroke="black" stroke-width="1" fill="none" />
<polyline points="287.0,557.0,295.0,554.0,303.0,553.0,311.0,547.0" stroke="black" stroke-width="1" fill="none" />
<polyline points="300.0,544.0,300.0,536.0,295.0,535.0,287.0,538.0" stroke="black" stroke-width="1" fill="none" />
<polyline points="288.0,535.0,287.0,543.0,292.0,546.0,300.0,544.0" stroke="black" stroke-width="1" fill="none" />
<polyline points="290.0,554.0,287.0,562.0" stroke="black" stroke-width="1" fill="none" />
<polyline points="256.0,554.0,256.0,546.0,256.0,538.0,253.0,535.0,245.0,535.0" stroke="black" stroke-width="1" fill="none" />
<polyline points="245.0,535.0,245.0,543.0,244.0,551.0,241.0,559.0,248.0,560.0" stroke="black" stroke-width="1" fill="none" />
<polyline points="234.0,569.0,231.0,577.0" stroke="black" stroke-width="1" fill="none" />
<polyline points="234.0,569.0,242.0,568.0,250.0,568.0,258.0,568.0,262.0,572.0" stroke="black" stroke-width="1" fill="none" />
<polyline points="269.0,577.0,271.0,576.0,271.0,568.0,266.0,560.0,266.0,552.0,266.0,544.0,266.0,536.0,265.0,528.0,259.0,527.0,251.0,527.0,243.0,527.0,235.0,530.0" stroke="black" stroke-width="1" fill="none" />
<polyline points="236.0,527.0,235.0,535.0,235.0,543.0,233.0,551.0,229.0,559.0,225.0,571.0" stroke="black" stroke-width="1" fill="none" />
<polyline points="209.0,553.0,201.0,553.0" stroke="black" stroke-width="1" fill="none" />
<polyline points="200.0,551.0,208.0,545.0,202.0,547.0,200.0,560.0" stroke="black" stroke-width="1" fill="none" />
<polyline points="188.0,556.0,196.0,536.0,204.0,527.0,212.0,531.0,220.0,552.0" stroke="black" stroke-width="1" fill="none" />
<polyline points="209.0,549.0,206.0,541.0" stroke="black" stroke-width="1" fill="none" />
<polyline points="210.0,528.0,213.0,536.0,217.0,544.0,220.0,552.0,223.0,560.0,228.0,560.0" stroke="black" stroke-width="1" fill="none" />
<polyline points="232.0,577.0,224.0,569.0,216.0,568.0,208.0,560.0,200.0,560.0,192.0,568.0,185.0,567.0,188.0,559.0,191.0,551.0,194.0,543.0,197.0,535.0,200.0,527.0" stroke="black" stroke-width="1" fill="none" />
<polyline points="172.0,528.0,178.0,536.0,174.0,544.0,179.0,552.0,180.0,560.0" stroke="black" stroke-width="1" fill="none" />
<polyline points="167.0,560.0,168.0,552.0,163.0,551.0,155.0,551.0" stroke="black" stroke-width="1" fill="none" />
<polyline points="155.0,541.0,163.0,543.0,176.0,543.0" stroke="black" stroke-width="1" fill="none" />
<polyline points="167.0,536.0,162.0,534.0,154.0,537.0" stroke="black" stroke-width="1" fill="none" />
<polyline points="158.0,534.0,155.0,542.0,154.0,556.0,156.0,561.0,164.0,561.0" stroke="black" stroke-width="1" fill="none" />
<polyline points="132.0,557.0,124.0,547.0" stroke="black" stroke-width="1" fill="none" />
<polyline points="123.0,546.0,131.0,536.0,138.0,529.0,130.0,537.0,124.0,545.0,128.0,553.0,134.0,561.0" stroke="black" stroke-width="1" fill="none" />
<polyline points="137.0,568.0,129.0,568.0,121.0,558.0,113.0,551.0" stroke="black" stroke-width="1" fill="none" />
<polyline points="113.0,551.0,113.0,559.0,113.0,567.0" stroke="black" stroke-width="1" fill="none" />
<polyline points="128.0,568.0,122.0,560.0,116.0,552.0" stroke="black" stroke-width="1" fill="none" />
<polyline points="114.0,542.0,113.0,534.0,112.0,527.0,104.0,527.0" stroke="black" stroke-width="1" fill="none" />
<polyline points="104.0,527.0,103.0,535.0,103.0,543.0,103.0,551.0,103.0,559.0,104.0,567.0,110.0,568.0" stroke="black" stroke-width="1" fill="none" />
<polyline points="127.0,527.0,120.0,535.0,115.0,542.0,123.0,532.0,131.0,527.0,144.0,528.0,152.0,527.0,160.0,527.0,168.0,527.0,176.0,530.0" stroke="black" stroke-width="1" fill="none" />
<polyline points="145.0,527.0,144.0,535.0,144.0,543.0,144.0,551.0,144.0,559.0,145.0,567.0,151.0,568.0,159.0,568.0,167.0,568.0,175.0,566.0" stroke="black" stroke-width="1" fill="none" />
<polyline points="305.0,552.0,312.0,544.0,312.0,536.0,303.0,528.0" stroke="black" stroke-width="1" fill="none" />
<polyline points="375.0,337.0,388.0,329.0,396.0,321.0,401.0,313.0,404.0,305.0,405.0,297.0,403.0,291.0,395.0,293.0" stroke="black" stroke-width="1" fill="none" />
<polyline points="396.0,291.0,395.0,299.0,393.0,307.0,388.0,315.0,379.0,323.0,363.0,331.0" stroke="black" stroke-width="1" fill="none" />
<polyline points="337.0,255.0,331.0,255.0,329.0,247.0,329.0,239.0,329.0,231.0,326.0,227.0,318.0,226.0,310.0,226.0,302.0,226.0,294.0,227.0" stroke="black" stroke-width="1" fill="none" />
<polyline points="297.0,226.0,294.0,234.0,294.0,242.0,294.0,250.0" stroke="black" stroke-width="1" fill="none" />
<polyline points="286.0,201.0,294.0,197.0,302.0,197.0,310.0,197.0,318.0,197.0,326.0,197.0,334.0,197.0,342.0,197.0,344.0,203.0,344.0,211.0,344.0,219.0,344.0,227.0,344.0,235.0,344.0,243.0,344.0,251.0" stroke="black" stroke-width="1" fill="none" />
<polyline points="354.0,261.0,354.0,253.0,354.0,245.0,354.0,237.0,354.0,229.0,354.0,221.0,354.0,213.0,354.0,205.0,354.0,197.0,353.0,189.0,348.0,187.0,340.0,188.0,332.0,188.0,324.0,188.0,316.0,188.0,308.0,188.0,300.0,188.0,292.0,188.0,284.0,188.0,276.0,190.0" stroke="black" stroke-width="1" fill="none" />
<polyline points="277.0,188.0,276.0,196.0,276.0,204.0,276.0,212.0,276.0,220.0,276.0,228.0,276.0,236.0,276.0,244.0,276.0,252.0,276.0,260.0,279.0,265.0,287.0,264.0,295.0,264.0,303.0,264.0,311.0,264.0,319.0,264.0,327.0,264.0,335.0,264.0,343.0,264.0,351.0,264.0" stroke="black" stroke-width="1" fill="none" />
<polyline points="388.0,314.0,380.0,323.0,372.0,327.0,364.0,331.0,356.0,334.0,348.0,335.0,340.0,337.0,332.0,338.0,324.0,338.0,316.0,338.0,308.0,338.0,300.0,338.0,292.0,338.0,284.0,338.0,276.0,337.0,268.0,336.0,260.0,335.0,252.0,334.0,244.0,334.0,236.0,332.0,228.0,331.0,220.0,330.0,212.0,328.0,204.0,327.0,196.0,326.0,188.0,324.0,180.0,323.0,172.0,321.0,164.0,319.0,156.0,318.0,148.0,316.0,140.0,315.0,132.0,313.0,124.0,312.0,116.0,311.0,108.0,309.0,100.0,309.0" stroke="black" stroke-width="1" fill="none" />
<polyline points="100.0,309.0,100.0,317.0,107.0,319.0,115.0,320.0,123.0,322.0,131.0,323.0,139.0,325.0,147.0,326.0,155.0,328.0,163.0,330.0,171.0,331.0,179.0,333.0,187.0,334.0,195.0,335.0,203.0,337.0,211.0,338.0,219.0,340.0,227.0,341.0,235.0,342.0,243.0,343.0,251.0,344.0,259.0,345.0,267.0,346.0,275.0,347.0,283.0,347.0,291.0,348.0,299.0,348.0,307.0,348.0,315.0,348.0,323.0,348.0,331.0,348.0,339.0,347.0,347.0,346.0,355.0,344.0,363.0,342.0,371.0,339.0,379.0,335.0,387.0,330.0,395.0,322.0" stroke="black" stroke-width="1" fill="none" />
<polyline points="455.0,461.0,457.0,453.0,457.0,445.0,457.0,437.0,457.0,429.0,457.0,421.0,457.0,413.0,457.0,405.0,457.0,397.0,457.0,389.0,457.0,381.0,457.0,373.0,457.0,365.0,457.0,357.0,457.0,349.0,457.0,341.0,457.0,333.0,457.0,325.0,457.0,317.0,457.0,309.0,457.0,301.0,457.0,293.0,457.0,285.0,457.0,277.0,457.0,269.0,457.0,261.0,457.0,253.0,457.0,245.0,457.0,237.0,457.0,229.0,457.0,221.0,457.0,213.0,457.0,205.0,457.0,197.0,457.0,189.0,457.0,181.0,457.0,173.0,457.0,165.0,457.0,157.0,457.0,149.0,457.0,141.0,457.0,133.0,457.0,125.0,457.0,117.0,457.0,109.0,457.0,101.0,457.0,93.0,457.0,85.0,457.0,77.0,457.0,69.0,457.0,61.0,457.0,53.0,457.0,48.0,449.0,45.0,441.0,45.0,433.0,45.0,425.0,45.0,417.0,45.0,409.0,45.0,401.0,45.0,393.0,45.0,385.0,45.0,377.0,45.0,369.0,45.0,361.0,45.0,353.0,45.0,345.0,45.0,337.0,45.0,329.0,45.0,321.0,45.0,313.0,45.0,305.0,45.0,297.0,45.0,289.0,45.0,281.0,45.0,273.0,45.0,265.0,45.0,257.0,45.0,249.0,45.0,241.0,45.0,233.0,45.0,225.0,45.0,217.0,45.0,209.0,45.0,201.0,45.0,193.0,45.0,185.0,45.0,177.0,45.0,169.0,45.0,161.0,45.0,153.0,45.0,145.0,45.0,137.0,45.0,129.0,45.0,121.0,45.0,113.0,45.0,105.0,45.0,97.0,45.0,89.0,45.0,81.0,45.0,73.0,45.0,65.0,45.0,57.0,45.0,49.0,45.0,41.0,46.0" stroke="black" stroke-width="1" fill="none" />
<polyline points="43.0,45.0,41.0,53.0,41.0,61.0,41.0,69.0,41.0,77.0,41.0,85.0,41.0,93.0,41.0,101.0,41.0,109.0,41.0,117.0,41.0,125.0,41.0,133.0,41.0,141.0,41.0,149.0,41.0,157.0,41.0,165.0,41.0,173.0,41.0,181.0,41.0,189.0,41.0,197.0,41.0,205.0,41.0,213.0,41.0,221.0,41.0,229.0,41.0,237.0,41.0,245.0,41.0,253.0,41.0,261.0,41.0,269.0,41.0,277.0,41.0,285.0,41.0,293.0,41.0,301.0,41.0,309.0,41.0,317.0,41.0,325.0,41.0,333.0,41.0,341.0,41.0,349.0,41.0,357.0,41.0,365.0,41.0,373.0,41.0,381.0,41.0,389.0,41.0,397.0,41.0,405.0,41.0,413.0,41.0,421.0,41.0,429.0,41.0,437.0,41.0,445.0,41.0,453.0,41.0,461.0,48.0,462.0,56.0,462.0,64.0,462.0,72.0,462.0,80.0,462.0,88.0,462.0,96.0,462.0,104.0,462.0,112.0,462.0,120.0,462.0,128.0,462.0,136.0,462.0,144.0,462.0,152.0,462.0,160.0,462.0,168.0,462.0,176.0,462.0,184.0,462.0,192.0,462.0,200.0,462.0,208.0,462.0,216.0,462.0,224.0,462.0,232.0,462.0,240.0,462.0,248.0,462.0,256.0,462.0,264.0,462.0,272.0,462.0,280.0,462.0,288.0,462.0,296.0,462.0,304.0,462.0,312.0,462.0,320.0,462.0,328.0,462.0,336.0,462.0,344.0,462.0,352.0,462.0,360.0,462.0,368.0,462.0,376.0,462.0,384.0,462.0,392.0,462.0,400.0,462.0,408.0,462.0,416.0,462.0,424.0,462.0,432.0,462.0,440.0,462.0,448.0,462.0,456.0,460.0" stroke="black" stroke-width="1" fill="none" />
<polyline points="467.0,463.0,467.0,455.0,467.0,447.0,467.0,439.0,467.0,431.0,467.0,423.0,467.0,415.0,467.0,407.0,467.0,399.0,467.0,391.0,467.0,383.0,467.0,375.0,467.0,367.0,467.0,359.0,467.0,351.0,467.0,343.0,467.0,335.0,467.0,327.0,467.0,319.0,467.0,311.0,467.0,303.0,467.0,295.0,467.0,287.0,467.0,279.0,467.0,271.0,467.0,263.0,467.0,255.0,467.0,247.0,467.0,239.0,467.0,231.0,467.0,223.0,467.0,215.0,467.0,207.0,467.0,199.0,467.0,191.0,467.0,183.0,467.0,175.0,467.0,167.0,467.0,159.0,467.0,151.0,467.0,143.0,467.0,135.0,467.0,127.0,467.0,119.0,467.0,111.0,467.0,103.0,467.0,95.0,467.0,87.0,467.0,79.0,467.0,71.0,467.0,63.0,467.0,55.0,467.0,47.0,467.0,39.0,463.0,35.0,455.0,35.0,447.0,35.0,439.0,35.0,431.0,35.0,423.0,35.0,415.0,35.0,407.0,35.0,399.0,35.0,391.0,35.0,383.0,35.0,375.0,35.0,367.0,35.0,359.0,35.0,351.0,35.0,343.0,35.0,335.0,35.0,327.0,35.0,319.0,35.0,311.0,35.0,303.0,35.0,295.0,35.0,287.0,35.0,279.0,35.0,271.0,35.0,263.0,35.0,255.0,35.0,247.0,35.0,239.0,35.0,231.0,35.0,223.0,35.0,215.0,35.0,207.0,35.0,199.0,35.0,191.0,35.0,183.0,35.0,175.0,35.0,167.0,35.0,159.0,35.0,151.0,35.0,143.0,35.0,135.0,35.0,127.0,35.0,119.0,35.0,111.0,35.0,103.0,35.0,95.0,35.0,87.0,35.0,79.0,35.0,71.0,35.0,63.0,35.0,55.0,35.0,47.0,35.0,39.0,35.0,31.0,36.0" stroke="black" stroke-width="1" fill="none" />
<polyline points="138.0,188.0,137.0,196.0,138.0,204.0,138.0,212.0,138.0,220.0,138.0,228.0,138.0,236.0,138.0,244.0,138.0,252.0,137.0,260.0,140.0,265.0,148.0,264.0,156.0,264.0,164.0,264.0,172.0,264.0,180.0,264.0,188.0,264.0,196.0,264.0,204.0,264.0,212.0,265.0" stroke="black" stroke-width="1" fill="none" />
<polyline points="197.0,255.0,191.0,255.0,189.0,247.0,189.0,239.0,189.0,231.0,186.0,226.0,178.0,226.0,170.0,226.0,162.0,226.0,154.0,230.0" stroke="black" stroke-width="1" fill="none" />
<polyline points="158.0,226.0,154.0,234.0,155.0,242.0,155.0,250.0" stroke="black" stroke-width="1" fill="none" />
<polyline points="205.0,251.0,205.0,243.0,205.0,235.0,205.0,227.0,205.0,219.0,205.0,211.0,205.0,203.0,203.0,198.0,195.0,197.0,187.0,197.0,179.0,197.0,171.0,197.0,163.0,197.0,155.0,197.0,147.0,198.0" stroke="black" stroke-width="1" fill="none" />
<polyline points="150.0,197.0,147.0,205.0,147.0,213.0,147.0,221.0,147.0,229.0,147.0,237.0,147.0,245.0,147.0,253.0,153.0,254.0" stroke="black" stroke-width="1" fill="none" />
<polyline points="215.0,261.0,215.0,253.0,215.0,245.0,215.0,237.0,215.0,229.0,215.0,221.0,215.0,213.0,215.0,205.0,215.0,197.0,214.0,189.0,209.0,187.0,201.0,188.0,193.0,188.0,185.0,188.0,177.0,188.0,169.0,188.0,161.0,188.0,153.0,188.0,145.0,188.0,137.0,189.0" stroke="black" stroke-width="1" fill="none" />
<polyline points="289.0,197.0,286.0,205.0,286.0,213.0,286.0,221.0,286.0,229.0,286.0,237.0,286.0,245.0,287.0,253.0,292.0,255.0" stroke="black" stroke-width="1" fill="none" />
</svg>