<svg xmlns="http://www.w3.org/2000/svg" height="210px" width="351px" version="1.1"><polyline points="186.0,19.5,177.0,24.0,163.5,24.0,168.0,36.0,168.0,43.5,174.0,45.0,177.0,39.0,189.0,33.0,201.0,37.5,213.0,36.0,226.5,39.0,217.5,39.0" stroke="black" stroke-width="1" fill="none" />
<polyline points="219.0,48.0,207.0,42.0" stroke="black" stroke-width="1" fill="none" />
<polyline points="207.0,28.5,195.0,31.5" stroke="black" stroke-width="1" fill="none" />
<polyline points="181.5,36.0,181.5,24.0" stroke="black" stroke-width="1" fill="none" />
<polyline points="162.0,27.0,162.0,19.5,157.5,24.0,159.0,36.0,163.5,40.5,166.5,34.5,178.5,25.5,192.0,22.5,204.0,25.5,216.0,25.5,228.0,27.0,229.5,39.0,247.5,24.0,259.5,28.5,264.0,37.5,276.0,43.5,288.0,49.5" stroke="black" stroke-width="1" fill="none" />
<polyline points="265.5,51.0,253.5,46.5" stroke="black" stroke-width="1" fill="none" />
<polyline points="247.5,34.5,259.5,36.0,262.5,42.0,280.5,48.0,294.0,57.0,277.5,60.0" stroke="black" stroke-width="1" fill="none" />
<polyline points="288.0,100.5,300.0,102.0,312.0,100.5,324.0,102.0" stroke="black" stroke-width="1" fill="none" />
<polyline points="298.5,111.0,286.5,108.0" stroke="black" stroke-width="1" fill="none" />
<polyline points="282.0,127.5,303.0,139.5,319.5,151.5,309.0,169.5,300.0,175.5,313.5,166.5,325.5,169.5,337.5,169.5,349.5,162.0" stroke="black" stroke-width="1" fill="none" />
<polyline points="331.5,156.0,337.5,144.0" stroke="black" stroke-width="1" fill="none" />
<polyline points="343.5,142.5,351.0,154.5,345.0,166.5" stroke="black" stroke-width="1" fill="none" />
<polyline points="295.5,174.0,288.0,162.0" stroke="black" stroke-width="1" fill="none" />
<polyline points="270.0,145.5,258.0,139.5,252.0,154.5,240.0,154.5" stroke="black" stroke-width="1" fill="none" />
<polyline points="256.5,177.0,258.0,169.5,246.0,177.0,234.0,180.0,222.0,180.0" stroke="black" stroke-width="1" fill="none" />
<polyline points="222.0,208.5,210.0,208.5,198.0,208.5" stroke="black" stroke-width="1" fill="none" />
<polyline points="175.5,204.0,174.0,208.5" stroke="black" stroke-width="1" fill="none" />
<polyline points="207.0,180.0,195.0,183.0,208.5,177.0,208.5,165.0,208.5,156.0,201.0,153.0,189.0,157.5" stroke="black" stroke-width="1" fill="none" />
<polyline points="184.5,153.0,183.0,165.0,177.0,165.0,183.0,180.0,196.5,192.0,196.5,208.5,193.5,210.0,198.0,204.0,210.0,202.5,222.0,204.0" stroke="black" stroke-width="1" fill="none" />
<polyline points="186.0,190.5,174.0,189.0,162.0,187.5,150.0,184.5,138.0,175.5" stroke="black" stroke-width="1" fill="none" />
<polyline points="136.5,174.0,148.5,177.0,160.5,180.0,172.5,181.5,186.0,184.5,198.0,190.5,216.0,189.0,228.0,187.5,240.0,186.0,252.0,181.5" stroke="black" stroke-width="1" fill="none" />
<polyline points="231.0,130.5,234.0,118.5,235.5,106.5,231.0,94.5,226.5,82.5,219.0,78.0,207.0,72.0,195.0,72.0" stroke="black" stroke-width="1" fill="none" />
<polyline points="193.5,72.0,205.5,64.5,214.5,76.5,232.5,82.5,237.0,94.5,243.0,105.0,241.5,117.0,238.5,129.0" stroke="black" stroke-width="1" fill="none" />
<polyline points="258.0,123.0,255.0,135.0,253.5,145.5,264.0,157.5,223.5,175.5,208.5,186.0,207.0,187.5,219.0,183.0,222.0,162.0,234.0,157.5,246.0,142.5,261.0,124.5,273.0,124.5,285.0,127.5,297.0,133.5,309.0,142.5,321.0,151.5,333.0,153.0,345.0,144.0" stroke="black" stroke-width="1" fill="none" />
<polyline points="223.5,103.5,211.5,102.0" stroke="black" stroke-width="1" fill="none" />
<polyline points="210.0,99.0,210.0,100.5,217.5,102.0,208.5,118.5" stroke="black" stroke-width="1" fill="none" />
<polyline points="198.0,145.5,214.5,157.5,216.0,169.5,225.0,175.5,237.0,172.5,249.0,169.5,258.0,163.5,270.0,163.5,282.0,160.5,294.0,153.0" stroke="black" stroke-width="1" fill="none" />
<polyline points="241.5,93.0,229.5,76.5,217.5,69.0,205.5,64.5,193.5,61.5,184.5,82.5,172.5,96.0,160.5,121.5,168.0,114.0,169.5,102.0,177.0,90.0,189.0,78.0,190.5,69.0,178.5,70.5" stroke="black" stroke-width="1" fill="none" />
<polyline points="183.0,49.5,168.0,61.5,151.5,70.5,144.0,82.5,141.0,94.5,139.5,106.5,141.0,118.5,145.5,130.5,145.5,142.5,144.0,150.0" stroke="black" stroke-width="1" fill="none" />
<polyline points="132.0,150.0,144.0,144.0,157.5,148.5,145.5,160.5,151.5,178.5" stroke="black" stroke-width="1" fill="none" />
<polyline points="147.0,169.5,159.0,174.0,171.0,175.5" stroke="black" stroke-width="1" fill="none" />
<polyline points="166.5,166.5,154.5,165.0,142.5,168.0" stroke="black" stroke-width="1" fill="none" />
<polyline points="151.5,165.0,138.0,177.0" stroke="black" stroke-width="1" fill="none" />
<polyline points="105.0,166.5,103.5,160.5" stroke="black" stroke-width="1" fill="none" />
<polyline points="90.0,174.0,81.0,163.5,82.5,150.0,94.5,138.0,118.5,126.0" stroke="black" stroke-width="1" fill="none" />
<polyline points="108.0,109.5,108.0,97.5,96.0,99.0,81.0,100.5,69.0,99.0,66.0,103.5,82.5,111.0,79.5,109.5,67.5,108.0" stroke="black" stroke-width="1" fill="none" />
<polyline points="52.5,144.0,46.5,156.0,49.5,168.0,55.5,169.5,67.5,171.0,79.5,168.0,91.5,174.0,103.5,172.5,118.5,160.5,130.5,166.5,142.5,162.0,154.5,156.0" stroke="black" stroke-width="1" fill="none" />
<polyline points="157.5,123.0,153.0,111.0,154.5,99.0,159.0,87.0,168.0,75.0,166.5,76.5,154.5,97.5" stroke="black" stroke-width="1" fill="none" />
<polyline points="142.5,84.0,154.5,67.5,166.5,60.0,178.5,52.5,190.5,48.0,202.5,48.0,214.5,52.5,226.5,60.0,238.5,64.5,250.5,78.0" stroke="black" stroke-width="1" fill="none" />
<polyline points="235.5,63.0,247.5,75.0,253.5,87.0,256.5,99.0,256.5,111.0,255.0,123.0,250.5,135.0,241.5,147.0,241.5,156.0,273.0,160.5,252.0,174.0" stroke="black" stroke-width="1" fill="none" />
<polyline points="244.5,163.5,232.5,165.0,226.5,169.5,223.5,157.5,216.0,151.5,204.0,147.0,192.0,147.0,180.0,151.5,174.0,156.0,162.0,156.0,144.0,138.0,135.0,142.5,129.0,147.0,141.0,135.0,136.5,127.5,130.5,124.5,118.5,126.0,106.5,130.5,94.5,138.0,82.5,150.0,70.5,156.0,58.5,145.5,46.5,150.0" stroke="black" stroke-width="1" fill="none" />
<polyline points="54.0,145.5,64.5,157.5,60.0,159.0" stroke="black" stroke-width="1" fill="none" />
<polyline points="109.5,108.0,96.0,111.0,102.0,109.5,108.0,97.5" stroke="black" stroke-width="1" fill="none" />
<polyline points="102.0,55.5,114.0,55.5,126.0,48.0" stroke="black" stroke-width="1" fill="none" />
<polyline points="144.0,48.0,136.5,42.0,130.5,54.0,109.5,66.0,109.5,60.0,126.0,48.0,142.5,46.5,139.5,40.5,150.0,37.5,144.0,33.0,132.0,37.5,120.0,43.5,108.0,45.0" stroke="black" stroke-width="1" fill="none" />
<polyline points="100.5,51.0,100.5,55.5,106.5,67.5" stroke="black" stroke-width="1" fill="none" />
<polyline points="178.5,99.0,178.5,111.0,187.5,112.5,199.5,108.0,211.5,111.0" stroke="black" stroke-width="1" fill="none" />
<polyline points="193.5,153.0,189.0,165.0,189.0,177.0,193.5,175.5,205.5,174.0" stroke="black" stroke-width="1" fill="none" />
<polyline points="289.5,61.5,285.0,54.0,276.0,57.0,264.0,61.5,273.0,57.0,256.5,48.0,247.5,39.0,241.5,36.0,247.5,24.0" stroke="black" stroke-width="1" fill="none" />
</svg>