<svg xmlns="http://www.w3.org/2000/svg" height="530px" width="384px" version="1.1"><polyline points="226.5,39.0,222.0,51.0,210.0,67.5,189.0,79.5,169.5,91.5,154.5,103.5,144.0,115.5,136.5,127.5,129.0,139.5,142.5,117.0,154.5,103.5,166.5,93.0,178.5,85.5,190.5,79.5,202.5,73.5,214.5,72.0,226.5,64.5,229.5,55.5,234.0,61.5,246.0,60.0,258.0,57.0,270.0,54.0" stroke="black" stroke-width="1" fill="none" />
<polyline points="274.5,75.0,262.5,75.0" stroke="black" stroke-width="1" fill="none" />
<polyline points="265.5,76.5,298.5,91.5,310.5,99.0,322.5,106.5,334.5,115.5" stroke="black" stroke-width="1" fill="none" />
<polyline points="345.0,127.5,357.0,127.5,360.0,129.0,360.0,141.0,355.5,153.0,352.5,159.0" stroke="black" stroke-width="1" fill="none" />
<polyline points="367.5,160.5,355.5,180.0" stroke="black" stroke-width="1" fill="none" />
<polyline points="339.0,205.5,351.0,211.5" stroke="black" stroke-width="1" fill="none" />
<polyline points="331.5,198.0,319.5,193.5,324.0,189.0,321.0,181.5,316.5,174.0,324.0,162.0,342.0,165.0,340.5,153.0,340.5,141.0,336.0,129.0,358.5,114.0,354.0,114.0,348.0,106.5,339.0,111.0,342.0,99.0,345.0,87.0,346.5,75.0,355.5,63.0,352.5,63.0,340.5,58.5,328.5,64.5,316.5,75.0,304.5,84.0,292.5,94.5,280.5,88.5,268.5,82.5,256.5,82.5,244.5,78.0,232.5,78.0,220.5,79.5" stroke="black" stroke-width="1" fill="none" />
<polyline points="216.0,76.5,228.0,73.5,240.0,73.5,252.0,67.5,252.0,64.5,264.0,66.0,276.0,69.0" stroke="black" stroke-width="1" fill="none" />
<polyline points="271.5,79.5,283.5,84.0,295.5,82.5,307.5,75.0,319.5,66.0,331.5,55.5,343.5,52.5,355.5,58.5,367.5,69.0,379.5,94.5" stroke="black" stroke-width="1" fill="none" />
<polyline points="351.0,90.0,349.5,94.5,348.0,106.5,342.0,118.5,346.5,130.5,346.5,141.0,346.5,153.0,348.0,165.0,336.0,168.0,343.5,180.0,339.0,192.0,343.5,198.0,355.5,190.5,367.5,172.5,379.5,147.0" stroke="black" stroke-width="1" fill="none" />
<polyline points="375.0,100.5,363.0,73.5,351.0,78.0" stroke="black" stroke-width="1" fill="none" />
<polyline points="345.0,76.5,363.0,66.0,370.5,78.0,378.0,90.0,381.0,102.0,384.0,114.0,384.0,126.0,382.5,138.0,379.5,150.0,373.5,162.0,367.5,174.0,360.0,186.0,364.5,198.0,366.0,210.0,366.0,222.0,367.5,234.0,360.0,246.0,354.0,258.0,342.0,270.0,330.0,280.5,324.0,292.5,303.0,304.5,283.5,316.5,273.0,328.5,270.0,340.5,277.5,322.5,289.5,312.0,301.5,306.0,313.5,300.0,325.5,289.5,333.0,292.5,345.0,289.5,357.0,270.0,369.0,259.5,364.5,250.5,361.5,262.5,355.5,274.5,348.0,286.5,339.0,303.0,351.0,291.0,363.0,280.5,372.0,277.5,375.0,280.5" stroke="black" stroke-width="1" fill="none" />
<polyline points="375.0,255.0,372.0,267.0,363.0,274.5,355.5,285.0,348.0,297.0,342.0,309.0,351.0,321.0,352.5,333.0,354.0,345.0,349.5,357.0,333.0,369.0,318.0,381.0,321.0,393.0,327.0,405.0,334.5,417.0,340.5,429.0,345.0,441.0,345.0,453.0,343.5,465.0,342.0,477.0,339.0,489.0,336.0,501.0,333.0,513.0,333.0,525.0" stroke="black" stroke-width="1" fill="none" />
<polyline points="334.5,415.5,322.5,394.5" stroke="black" stroke-width="1" fill="none" />
<polyline points="316.5,379.5,328.5,372.0,340.5,366.0,352.5,349.5" stroke="black" stroke-width="1" fill="none" />
<polyline points="339.0,357.0,327.0,366.0,315.0,372.0,303.0,376.5,291.0,378.0,279.0,379.5,267.0,373.5,255.0,354.0,243.0,336.0" stroke="black" stroke-width="1" fill="none" />
<polyline points="247.5,334.5,252.0,315.0,246.0,327.0,237.0,340.5,234.0,352.5,229.5,364.5,232.5,354.0,240.0,351.0,252.0,363.0,264.0,379.5,276.0,384.0,288.0,390.0" stroke="black" stroke-width="1" fill="none" />
<polyline points="295.5,385.5,307.5,382.5,319.5,402.0,331.5,423.0" stroke="black" stroke-width="1" fill="none" />
<polyline points="309.0,421.5,297.0,397.5" stroke="black" stroke-width="1" fill="none" />
<polyline points="297.0,384.0,295.5,396.0,301.5,408.0,307.5,420.0,313.5,432.0,313.5,444.0,316.5,456.0,318.0,468.0,315.0,480.0,313.5,492.0,309.0,504.0,307.5,516.0,306.0,528.0" stroke="black" stroke-width="1" fill="none" />
<polyline points="324.0,525.0,327.0,513.0,328.5,501.0,331.5,489.0,334.5,477.0,337.5,465.0,337.5,453.0,337.5,441.0,333.0,429.0,327.0,417.0,321.0,405.0,315.0,393.0,307.5,375.0,331.5,363.0,345.0,351.0,346.5,339.0,346.5,327.0,342.0,322.5,330.0,324.0,318.0,325.5,306.0,328.5,294.0,336.0,282.0,342.0,270.0,340.5" stroke="black" stroke-width="1" fill="none" />
<polyline points="283.5,340.5,306.0,328.5" stroke="black" stroke-width="1" fill="none" />
<polyline points="313.5,310.5,307.5,322.5,294.0,325.5,285.0,331.5,291.0,327.0,298.5,325.5,307.5,322.5,322.5,318.0" stroke="black" stroke-width="1" fill="none" />
<polyline points="330.0,304.5,318.0,307.5,313.5,306.0,301.5,313.5,289.5,318.0,280.5,333.0,286.5,321.0,310.5,309.0,324.0,297.0" stroke="black" stroke-width="1" fill="none" />
<polyline points="333.0,282.0,333.0,294.0,328.5,307.5,334.5,313.5,348.0,315.0" stroke="black" stroke-width="1" fill="none" />
<polyline points="348.0,241.5,361.5,229.5,351.0,231.0,339.0,241.5,327.0,246.0,315.0,246.0,303.0,246.0,291.0,247.5,279.0,256.5,267.0,237.0,255.0,234.0,243.0,232.5,231.0,237.0,219.0,238.5,207.0,234.0,195.0,225.0,183.0,225.0" stroke="black" stroke-width="1" fill="none" />
<polyline points="184.5,228.0,196.5,235.5,208.5,240.0,220.5,243.0" stroke="black" stroke-width="1" fill="none" />
<polyline points="241.5,244.5,229.5,247.5,217.5,247.5,205.5,246.0,193.5,240.0,181.5,232.5" stroke="black" stroke-width="1" fill="none" />
<polyline points="180.0,219.0,192.0,219.0" stroke="black" stroke-width="1" fill="none" />
<polyline points="195.0,201.0,207.0,183.0,219.0,180.0,231.0,187.5,243.0,204.0" stroke="black" stroke-width="1" fill="none" />
<polyline points="225.0,192.0,213.0,189.0,201.0,201.0" stroke="black" stroke-width="1" fill="none" />
<polyline points="211.5,189.0,201.0,201.0,201.0,213.0,202.5,225.0" stroke="black" stroke-width="1" fill="none" />
<polyline points="190.5,238.5,175.5,226.5,172.5,214.5,171.0,202.5,172.5,190.5,177.0,178.5,181.5,166.5,202.5,154.5,214.5,156.0,202.5,165.0,190.5,174.0,178.5,190.5" stroke="black" stroke-width="1" fill="none" />
<polyline points="172.5,190.5,184.5,165.0,196.5,156.0,208.5,151.5,220.5,153.0,232.5,159.0,244.5,174.0" stroke="black" stroke-width="1" fill="none" />
<polyline points="238.5,175.5,226.5,162.0,214.5,159.0" stroke="black" stroke-width="1" fill="none" />
<polyline points="222.0,160.5,235.5,172.5,243.0,184.5,247.5,196.5,250.5,208.5,253.5,220.5,258.0,240.0,252.0,252.0,249.0,264.0,246.0,279.0,241.5,291.0,229.5,295.5,210.0,307.5,193.5,319.5,180.0,331.5,178.5,333.0,190.5,322.5,202.5,313.5,214.5,304.5,226.5,297.0,238.5,292.5,253.5,274.5,256.5,286.5,259.5,292.5" stroke="black" stroke-width="1" fill="none" />
<polyline points="261.0,297.0,249.0,306.0" stroke="black" stroke-width="1" fill="none" />
<polyline points="256.5,316.5,267.0,310.5,256.5,322.5,247.5,334.5,241.5,345.0,249.0,357.0,255.0,369.0,264.0,381.0" stroke="black" stroke-width="1" fill="none" />
<polyline points="261.0,414.0,246.0,426.0,237.0,438.0" stroke="black" stroke-width="1" fill="none" />
<polyline points="220.5,423.0,208.5,400.5,196.5,381.0,184.5,364.5,172.5,352.5,160.5,339.0" stroke="black" stroke-width="1" fill="none" />
<polyline points="163.5,336.0,175.5,348.0,187.5,360.0,196.5,372.0,205.5,384.0,211.5,396.0,219.0,408.0,223.5,420.0,229.5,432.0,238.5,442.5,250.5,430.5,262.5,420.0,274.5,418.5,286.5,418.5" stroke="black" stroke-width="1" fill="none" />
<polyline points="300.0,427.5,294.0,408.0,289.5,396.0,273.0,378.0,259.5,366.0,255.0,354.0,246.0,342.0,235.5,330.0,241.5,318.0,256.5,306.0,243.0,309.0,231.0,319.5,219.0,319.5,207.0,319.5" stroke="black" stroke-width="1" fill="none" />
<polyline points="207.0,319.5,222.0,331.5,213.0,343.5,207.0,355.5,204.0,367.5,216.0,349.5,228.0,336.0,244.5,330.0,256.5,313.5,267.0,307.5" stroke="black" stroke-width="1" fill="none" />
<polyline points="258.0,328.5,256.5,340.5" stroke="black" stroke-width="1" fill="none" />
<polyline points="229.5,369.0,238.5,358.5,235.5,337.5,223.5,328.5,211.5,322.5" stroke="black" stroke-width="1" fill="none" />
<polyline points="219.0,304.5,205.5,316.5,192.0,328.5,189.0,331.5,201.0,321.0,213.0,312.0,225.0,304.5,237.0,300.0,249.0,294.0" stroke="black" stroke-width="1" fill="none" />
<polyline points="247.5,267.0,235.5,267.0,223.5,267.0,211.5,268.5,199.5,271.5,187.5,277.5" stroke="black" stroke-width="1" fill="none" />
<polyline points="193.5,267.0,186.0,271.5,198.0,267.0,210.0,262.5,222.0,259.5,234.0,259.5,246.0,261.0,265.5,243.0,277.5,264.0,295.5,268.5,297.0,259.5,309.0,262.5,321.0,271.5,333.0,270.0,345.0,259.5,357.0,241.5" stroke="black" stroke-width="1" fill="none" />
<polyline points="354.0,235.5,342.0,246.0,330.0,252.0,318.0,252.0,306.0,252.0,294.0,252.0,283.5,258.0,294.0,246.0" stroke="black" stroke-width="1" fill="none" />
<polyline points="270.0,243.0,277.5,255.0,288.0,265.5,289.5,273.0,301.5,276.0,313.5,277.5,325.5,277.5,337.5,273.0,349.5,264.0,361.5,246.0,370.5,238.5" stroke="black" stroke-width="1" fill="none" />
<polyline points="363.0,232.5,355.5,244.5,348.0,256.5,334.5,268.5" stroke="black" stroke-width="1" fill="none" />
<polyline points="301.5,204.0,289.5,207.0,277.5,211.5" stroke="black" stroke-width="1" fill="none" />
<polyline points="291.0,199.5,276.0,211.5,286.5,201.0,298.5,199.5,313.5,196.5,313.5,201.0,325.5,205.5,337.5,211.5,349.5,217.5,361.5,225.0" stroke="black" stroke-width="1" fill="none" />
<polyline points="354.0,169.5,343.5,178.5,331.5,171.0,321.0,177.0" stroke="black" stroke-width="1" fill="none" />
<polyline points="316.5,172.5,328.5,159.0" stroke="black" stroke-width="1" fill="none" />
<polyline points="319.5,139.5,331.5,126.0,343.5,126.0,355.5,120.0" stroke="black" stroke-width="1" fill="none" />
<polyline points="334.5,153.0,322.5,154.5,318.0,148.5,322.5,136.5,328.5,115.5,316.5,132.0" stroke="black" stroke-width="1" fill="none" />
<polyline points="288.0,97.5,276.0,91.5" stroke="black" stroke-width="1" fill="none" />
<polyline points="276.0,91.5,294.0,103.5" stroke="black" stroke-width="1" fill="none" />
<polyline points="289.5,106.5,277.5,99.0,256.5,88.5,244.5,84.0,232.5,87.0,220.5,85.5,208.5,84.0" stroke="black" stroke-width="1" fill="none" />
<polyline points="208.5,87.0,220.5,91.5,232.5,94.5,244.5,99.0,256.5,106.5,268.5,115.5,280.5,129.0" stroke="black" stroke-width="1" fill="none" />
<polyline points="291.0,124.5,279.0,106.5,267.0,102.0,255.0,93.0,243.0,88.5" stroke="black" stroke-width="1" fill="none" />
<polyline points="238.5,90.0,250.5,96.0,262.5,103.5,274.5,115.5" stroke="black" stroke-width="1" fill="none" />
<polyline points="277.5,106.5,286.5,118.5,292.5,130.5" stroke="black" stroke-width="1" fill="none" />
<polyline points="279.0,129.0,268.5,117.0,252.0,105.0,228.0,93.0" stroke="black" stroke-width="1" fill="none" />
<polyline points="229.5,87.0,253.5,99.0,268.5,111.0,276.0,111.0,280.5,123.0,294.0,138.0" stroke="black" stroke-width="1" fill="none" />
<polyline points="315.0,111.0,298.5,99.0,277.5,87.0,249.0,85.5" stroke="black" stroke-width="1" fill="none" />
<polyline points="247.5,79.5,250.5,91.5,268.5,103.5,280.5,102.0" stroke="black" stroke-width="1" fill="none" />
<polyline points="267.0,70.5,255.0,73.5,243.0,72.0" stroke="black" stroke-width="1" fill="none" />
<polyline points="217.5,72.0,229.5,69.0,234.0,66.0,211.5,60.0,223.5,48.0" stroke="black" stroke-width="1" fill="none" />
<polyline points="241.5,46.5,253.5,51.0,265.5,49.5,277.5,48.0" stroke="black" stroke-width="1" fill="none" />
<polyline points="336.0,52.5,321.0,64.5,304.5,76.5,298.5,93.0,316.5,105.0,325.5,117.0,318.0,129.0,315.0,141.0,313.5,153.0,313.5,165.0,312.0,177.0,312.0,187.5,312.0,198.0,334.5,210.0,357.0,222.0,348.0,234.0" stroke="black" stroke-width="1" fill="none" />
<polyline points="304.5,270.0,283.5,270.0,271.5,258.0,265.5,246.0" stroke="black" stroke-width="1" fill="none" />
<polyline points="265.5,235.5,259.5,247.5,255.0,259.5,255.0,271.5,253.5,283.5,261.0,286.5,253.5,301.5,247.5,306.0,232.5,318.0,223.5,339.0,216.0,351.0,207.0,361.5,208.5,351.0,220.5,334.5,240.0,319.5,252.0,310.5,264.0,301.5" stroke="black" stroke-width="1" fill="none" />
<polyline points="214.5,285.0,192.0,295.5" stroke="black" stroke-width="1" fill="none" />
<polyline points="166.5,297.0,154.5,289.5,142.5,274.5,129.0,274.5,117.0,280.5,105.0,285.0,93.0,285.0,81.0,283.5,69.0,280.5,57.0,273.0,46.5,265.5,36.0,249.0,24.0,232.5" stroke="black" stroke-width="1" fill="none" />
<polyline points="30.0,231.0,42.0,252.0,54.0,265.5,66.0,271.5,78.0,277.5,90.0,274.5" stroke="black" stroke-width="1" fill="none" />
<polyline points="114.0,265.5,111.0,268.5,99.0,271.5,87.0,268.5,75.0,265.5,63.0,255.0,51.0,241.5,39.0,229.5" stroke="black" stroke-width="1" fill="none" />
<polyline points="46.5,226.5,58.5,241.5,70.5,255.0,82.5,261.0,94.5,264.0,106.5,264.0,118.5,250.5" stroke="black" stroke-width="1" fill="none" />
<polyline points="120.0,261.0,117.0,273.0" stroke="black" stroke-width="1" fill="none" />
<polyline points="130.5,276.0,130.5,288.0,127.5,300.0,124.5,312.0,115.5,324.0,108.0,336.0,102.0,348.0,99.0,360.0,97.5,372.0,96.0,384.0,88.5,396.0,82.5,408.0,76.5,420.0,69.0,432.0,61.5,444.0,54.0,456.0,45.0,468.0,39.0,480.0,31.5,492.0,27.0,504.0,22.5,516.0,21.0,528.0" stroke="black" stroke-width="1" fill="none" />
<polyline points="31.5,508.5,43.5,483.0,55.5,463.5,67.5,445.5,79.5,426.0,91.5,403.5,97.5,400.5,96.0,412.5,99.0,424.5" stroke="black" stroke-width="1" fill="none" />
<polyline points="99.0,355.5,111.0,331.5,123.0,313.5" stroke="black" stroke-width="1" fill="none" />
<polyline points="136.5,286.5,148.5,292.5,160.5,301.5" stroke="black" stroke-width="1" fill="none" />
<polyline points="154.5,298.5,141.0,286.5" stroke="black" stroke-width="1" fill="none" />
<polyline points="135.0,282.0,135.0,294.0,139.5,303.0,130.5,315.0,120.0,327.0,114.0,339.0,108.0,351.0,105.0,363.0,103.5,375.0,100.5,387.0,103.5,399.0,102.0,411.0,105.0,423.0" stroke="black" stroke-width="1" fill="none" />
<polyline points="108.0,348.0,120.0,327.0,132.0,312.0" stroke="black" stroke-width="1" fill="none" />
<polyline points="159.0,334.5,166.5,346.5,178.5,358.5,187.5,370.5,196.5,382.5,204.0,394.5,210.0,406.5,217.5,418.5,222.0,430.5,228.0,442.5,229.5,454.5,231.0,466.5,229.5,478.5,226.5,490.5,223.5,502.5,219.0,514.5,211.5,526.5,217.5,516.0" stroke="black" stroke-width="1" fill="none" />
<polyline points="300.0,523.5,301.5,511.5,304.5,499.5,307.5,487.5,310.5,475.5,310.5,463.5,309.0,451.5,304.5,439.5,300.0,427.5,295.5,418.5,291.0,414.0,279.0,411.0,267.0,412.5,255.0,417.0,243.0,429.0,231.0,432.0,219.0,406.5,207.0,387.0,195.0,369.0,183.0,354.0,171.0,342.0,159.0,334.5" stroke="black" stroke-width="1" fill="none" />
<polyline points="214.5,277.5,190.5,289.5,178.5,301.5,190.5,297.0,201.0,291.0,213.0,286.5,225.0,282.0,238.5,279.0" stroke="black" stroke-width="1" fill="none" />
<polyline points="258.0,273.0,243.0,271.5,231.0,274.5,219.0,277.5,207.0,282.0,195.0,286.5,183.0,295.5,169.5,301.5,153.0,289.5,142.5,277.5,139.5,265.5,133.5,261.0,129.0,253.5,129.0,241.5,129.0,229.5,127.5,217.5" stroke="black" stroke-width="1" fill="none" />
<polyline points="121.5,222.0,123.0,234.0,121.5,246.0,112.5,258.0,100.5,273.0,93.0,279.0,99.0,279.0,111.0,276.0,123.0,268.5,126.0,264.0" stroke="black" stroke-width="1" fill="none" />
<polyline points="114.0,226.5,102.0,247.5,103.5,244.5,109.5,232.5,118.5,220.5" stroke="black" stroke-width="1" fill="none" />
<polyline points="112.5,216.0,105.0,228.0,99.0,240.0,96.0,252.0,103.5,232.5" stroke="black" stroke-width="1" fill="none" />
<polyline points="87.0,207.0,75.0,198.0,63.0,190.5,51.0,186.0,39.0,193.5" stroke="black" stroke-width="1" fill="none" />
<polyline points="43.5,186.0,39.0,198.0,42.0,210.0,42.0,222.0,51.0,232.5,58.5,244.5,72.0,256.5" stroke="black" stroke-width="1" fill="none" />
<polyline points="61.5,255.0,51.0,243.0,39.0,231.0,34.5,219.0,31.5,211.5,31.5,199.5,27.0,187.5,36.0,186.0,24.0,195.0" stroke="black" stroke-width="1" fill="none" />
<polyline points="18.0,201.0,30.0,181.5,42.0,177.0,54.0,178.5,66.0,183.0,78.0,189.0,90.0,196.5,102.0,205.5,114.0,210.0,126.0,211.5,138.0,210.0,150.0,208.5" stroke="black" stroke-width="1" fill="none" />
<polyline points="147.0,142.5,135.0,144.0,124.5,130.5,132.0,118.5,142.5,106.5,156.0,94.5,171.0,82.5,190.5,70.5,205.5,57.0,217.5,45.0,225.0,37.5,213.0,51.0,201.0,63.0,189.0,72.0,177.0,79.5,165.0,87.0,153.0,96.0,141.0,109.5,129.0,123.0,117.0,136.5,105.0,138.0,93.0,141.0,81.0,145.5,69.0,148.5,57.0,148.5,45.0,148.5,33.0,150.0,21.0,165.0" stroke="black" stroke-width="1" fill="none" />
<polyline points="25.5,171.0,37.5,154.5,49.5,154.5,61.5,156.0,73.5,157.5,85.5,159.0,97.5,156.0" stroke="black" stroke-width="1" fill="none" />
<polyline points="96.0,153.0,84.0,153.0" stroke="black" stroke-width="1" fill="none" />
<polyline points="82.5,150.0,94.5,147.0,106.5,144.0,118.5,142.5,133.5,136.5,145.5,138.0" stroke="black" stroke-width="1" fill="none" />
<polyline points="217.5,147.0,210.0,159.0,193.5,171.0,183.0,183.0,178.5,195.0,178.5,207.0,178.5,219.0,189.0,232.5" stroke="black" stroke-width="1" fill="none" />
<polyline points="220.5,213.0,219.0,225.0,226.5,237.0,229.5,241.5,241.5,238.5" stroke="black" stroke-width="1" fill="none" />
<polyline points="229.5,204.0,217.5,205.5,210.0,225.0,211.5,213.0,232.5,202.5,222.0,190.5" stroke="black" stroke-width="1" fill="none" />
<polyline points="222.0,181.5,235.5,193.5,241.5,204.0,246.0,216.0,250.5,228.0" stroke="black" stroke-width="1" fill="none" />
<polyline points="214.5,231.0,208.5,235.5,196.5,216.0,195.0,204.0,198.0,192.0,213.0,180.0" stroke="black" stroke-width="1" fill="none" />
<polyline points="223.5,154.5,237.0,166.5,246.0,178.5,252.0,190.5,255.0,202.5,258.0,214.5,259.5,226.5,252.0,238.5,241.5,244.5,252.0,238.5" stroke="black" stroke-width="1" fill="none" />
<polyline points="151.5,211.5,139.5,216.0,127.5,217.5,114.0,216.0,102.0,211.5,90.0,217.5,78.0,231.0,67.5,240.0,73.5,228.0,84.0,216.0,81.0,204.0" stroke="black" stroke-width="1" fill="none" />
<polyline points="78.0,208.5,61.5,220.5,70.5,214.5" stroke="black" stroke-width="1" fill="none" />
<polyline points="70.5,207.0,58.5,216.0,54.0,223.5,63.0,211.5,75.0,199.5,54.0,187.5" stroke="black" stroke-width="1" fill="none" />
<polyline points="51.0,178.5,79.5,190.5,96.0,202.5,90.0,217.5,79.5,229.5,67.5,237.0,79.5,219.0" stroke="black" stroke-width="1" fill="none" />
<polyline points="55.5,267.0,43.5,256.5,37.5,246.0,30.0,234.0,25.5,222.0,24.0,211.5,25.5,199.5,22.5,190.5,24.0,178.5,27.0,166.5,36.0,154.5" stroke="black" stroke-width="1" fill="none" />
<polyline points="36.0,148.5,24.0,160.5,19.5,172.5,16.5,184.5,19.5,196.5,18.0,208.5,19.5,220.5,24.0,232.5,28.5,244.5,37.5,256.5,48.0,268.5,67.5,280.5" stroke="black" stroke-width="1" fill="none" />
<polyline points="27.0,501.0,39.0,478.5,51.0,459.0,63.0,441.0,75.0,421.5,87.0,399.0,94.5,397.5,88.5,409.5,82.5,421.5,75.0,433.5,67.5,445.5,60.0,457.5,51.0,469.5,45.0,481.5,37.5,493.5,33.0,505.5,30.0,517.5,28.5,529.5" stroke="black" stroke-width="1" fill="none" />
<polyline points="225.0,516.0,219.0,528.0,225.0,516.0,229.5,504.0,234.0,492.0,237.0,480.0,238.5,468.0,238.5,456.0,238.5,444.0,249.0,432.0,262.5,420.0" stroke="black" stroke-width="1" fill="none" />
<polyline points="360.0,211.5,357.0,199.5,355.5,180.0,364.5,168.0,370.5,156.0,375.0,144.0,378.0,132.0,376.5,120.0,375.0,108.0,373.5,96.0,367.5,84.0,360.0,72.0" stroke="black" stroke-width="1" fill="none" />
<polyline points="354.0,70.5,352.5,82.5,360.0,93.0,363.0,105.0,364.5,117.0,366.0,129.0,363.0,141.0,361.5,153.0,357.0,165.0,352.5,177.0,346.5,195.0,340.5,207.0" stroke="black" stroke-width="1" fill="none" />
<polyline points="319.5,112.5,307.5,103.5,295.5,96.0,307.5,82.5,321.0,70.5,339.0,58.5" stroke="black" stroke-width="1" fill="none" />
</svg>