<svg xmlns="http://www.w3.org/2000/svg" height="485px" width="473px" version="1.1"><polyline points="243.0,26.0,239.0,34.0,244.0,42.0,250.0,47.0,258.0,49.0,266.0,52.0" stroke="black" stroke-width="1" fill="none" />
<polyline points="247.0,53.0,247.0,61.0" stroke="black" stroke-width="1" fill="none" />
<polyline points="245.0,52.0,245.0,60.0,247.0,71.0,246.0,79.0,235.0,87.0,245.0,95.0,233.0,102.0,225.0,114.0,215.0,122.0,204.0,130.0,209.0,126.0,217.0,121.0,225.0,108.0,233.0,98.0" stroke="black" stroke-width="1" fill="none" />
<polyline points="246.0,97.0,249.0,105.0,253.0,113.0,257.0,121.0,259.0,129.0,256.0,137.0,256.0,145.0,256.0,153.0,257.0,161.0,257.0,169.0,251.0,177.0,243.0,185.0,237.0,193.0,231.0,201.0,224.0,209.0" stroke="black" stroke-width="1" fill="none" />
<polyline points="208.0,205.0,200.0,208.0" stroke="black" stroke-width="1" fill="none" />
<polyline points="199.0,205.0,207.0,203.0,215.0,204.0,226.0,195.0" stroke="black" stroke-width="1" fill="none" />
<polyline points="227.0,192.0,222.0,198.0,223.0,194.0,231.0,191.0,239.0,189.0,247.0,181.0,255.0,171.0" stroke="black" stroke-width="1" fill="none" />
<polyline points="247.0,158.0,238.0,166.0,231.0,175.0,216.0,187.0" stroke="black" stroke-width="1" fill="none" />
<polyline points="222.0,179.0,229.0,171.0,237.0,163.0,245.0,155.0,248.0,147.0,250.0,139.0,251.0,131.0,252.0,128.0,242.0,123.0" stroke="black" stroke-width="1" fill="none" />
<polyline points="243.0,125.0,251.0,127.0,254.0,135.0,251.0,143.0" stroke="black" stroke-width="1" fill="none" />
<polyline points="239.0,165.0,231.0,174.0" stroke="black" stroke-width="1" fill="none" />
<polyline points="216.0,187.0,208.0,188.0,200.0,187.0,192.0,186.0" stroke="black" stroke-width="1" fill="none" />
<polyline points="195.0,156.0,187.0,155.0,179.0,149.0" stroke="black" stroke-width="1" fill="none" />
<polyline points="167.0,135.0,170.0,127.0,178.0,127.0,170.0,130.0" stroke="black" stroke-width="1" fill="none" />
<polyline points="171.0,129.0,172.0,137.0,179.0,150.0,182.0,151.0" stroke="black" stroke-width="1" fill="none" />
<polyline points="195.0,132.0,187.0,127.0" stroke="black" stroke-width="1" fill="none" />
<polyline points="187.0,125.0,195.0,133.0,199.0,141.0,201.0,149.0" stroke="black" stroke-width="1" fill="none" />
<polyline points="201.0,154.0,193.0,153.0,185.0,152.0,173.0,141.0,165.0,133.0" stroke="black" stroke-width="1" fill="none" />
<polyline points="152.0,129.0,144.0,127.0,136.0,126.0,126.0,133.0,118.0,139.0,110.0,130.0" stroke="black" stroke-width="1" fill="none" />
<polyline points="114.0,138.0,122.0,156.0" stroke="black" stroke-width="1" fill="none" />
<polyline points="122.0,142.0,130.0,144.0,138.0,145.0,146.0,147.0,154.0,153.0,162.0,162.0,170.0,169.0,178.0,179.0,186.0,188.0,187.0,189.0,195.0,193.0" stroke="black" stroke-width="1" fill="none" />
<polyline points="192.0,235.0,186.0,255.0,178.0,255.0,170.0,250.0" stroke="black" stroke-width="1" fill="none" />
<polyline points="156.0,268.0,146.0,276.0,138.0,284.0,134.0,292.0,130.0,300.0,115.0,308.0" stroke="black" stroke-width="1" fill="none" />
<polyline points="122.0,309.0,114.0,313.0,106.0,318.0,102.0,324.0,110.0,316.0,123.0,308.0,119.0,319.0,111.0,325.0,103.0,326.0" stroke="black" stroke-width="1" fill="none" />
<polyline points="93.0,314.0,80.0,322.0,80.0,333.0" stroke="black" stroke-width="1" fill="none" />
<polyline points="78.0,329.0,86.0,335.0,94.0,335.0,102.0,335.0,110.0,336.0,118.0,335.0,126.0,329.0,134.0,325.0,142.0,318.0,150.0,311.0" stroke="black" stroke-width="1" fill="none" />
<polyline points="155.0,291.0,163.0,284.0,171.0,271.0,166.0,279.0,161.0,287.0,154.0,289.0,154.0,297.0,152.0,305.0,149.0,313.0,138.0,321.0,126.0,329.0" stroke="black" stroke-width="1" fill="none" />
<polyline points="92.0,307.0,84.0,309.0,79.0,309.0,80.0,301.0,85.0,299.0,86.0,294.0,89.0,286.0,92.0,278.0,97.0,268.0,102.0,260.0,102.0,252.0,107.0,244.0,113.0,242.0,132.0,234.0,136.0,231.0,128.0,233.0,120.0,236.0,112.0,239.0,104.0,243.0,96.0,246.0,88.0,248.0" stroke="black" stroke-width="1" fill="none" />
<polyline points="98.0,248.0,106.0,245.0,117.0,239.0,125.0,237.0,133.0,234.0" stroke="black" stroke-width="1" fill="none" />
<polyline points="130.0,232.0,109.0,240.0,95.0,250.0,100.0,258.0,96.0,266.0,97.0,264.0,105.0,255.0,114.0,255.0,122.0,255.0" stroke="black" stroke-width="1" fill="none" />
<polyline points="127.0,249.0,135.0,241.0,138.0,238.0,130.0,250.0,136.0,243.0,139.0,235.0,143.0,221.0,145.0,213.0,144.0,205.0,152.0,200.0,155.0,186.0,158.0,178.0,163.0,170.0,158.0,173.0,150.0,170.0" stroke="black" stroke-width="1" fill="none" />
<polyline points="148.0,168.0,156.0,169.0,164.0,168.0,159.0,181.0,156.0,189.0,154.0,187.0" stroke="black" stroke-width="1" fill="none" />
<polyline points="137.0,182.0,138.0,172.0,135.0,180.0,136.0,188.0,139.0,196.0,142.0,195.0,148.0,203.0,148.0,206.0,148.0,214.0,146.0,222.0" stroke="black" stroke-width="1" fill="none" />
<polyline points="151.0,211.0,151.0,219.0,151.0,227.0,152.0,235.0,157.0,243.0,173.0,249.0,180.0,257.0" stroke="black" stroke-width="1" fill="none" />
<polyline points="167.0,270.0,159.0,271.0,154.0,272.0,146.0,289.0,138.0,306.0,130.0,313.0,122.0,319.0,114.0,325.0,106.0,329.0,98.0,328.0,90.0,326.0,82.0,326.0,67.0,321.0,57.0,313.0,50.0,305.0,42.0,297.0,39.0,289.0,38.0,281.0,39.0,273.0,42.0,265.0,42.0,257.0,43.0,249.0,42.0,241.0" stroke="black" stroke-width="1" fill="none" />
<polyline points="38.0,240.0,49.0,231.0,49.0,239.0,52.0,247.0,67.0,257.0,66.0,265.0,65.0,273.0,65.0,281.0,65.0,289.0,65.0,297.0,65.0,305.0" stroke="black" stroke-width="1" fill="none" />
<polyline points="63.0,312.0,55.0,305.0" stroke="black" stroke-width="1" fill="none" />
<polyline points="54.0,303.0,60.0,311.0" stroke="black" stroke-width="1" fill="none" />
<polyline points="62.0,309.0,54.0,303.0" stroke="black" stroke-width="1" fill="none" />
<polyline points="40.0,286.0,40.0,284.0" stroke="black" stroke-width="1" fill="none" />
<polyline points="42.0,271.0,42.0,279.0,43.0,287.0,41.0,294.0,49.0,303.0,57.0,312.0,65.0,319.0,73.0,323.0,81.0,321.0,89.0,316.0,97.0,314.0,105.0,315.0,113.0,309.0,121.0,305.0,129.0,301.0" stroke="black" stroke-width="1" fill="none" />
<polyline points="115.0,302.0,123.0,294.0,128.0,286.0" stroke="black" stroke-width="1" fill="none" />
<polyline points="127.0,285.0,121.0,293.0,111.0,301.0,116.0,301.0,124.0,293.0" stroke="black" stroke-width="1" fill="none" />
<polyline points="115.0,324.0,114.0,322.0,125.0,314.0,133.0,311.0,141.0,303.0,144.0,295.0,147.0,287.0,149.0,279.0,156.0,271.0" stroke="black" stroke-width="1" fill="none" />
<polyline points="184.0,263.0,193.0,255.0,193.0,247.0,194.0,239.0" stroke="black" stroke-width="1" fill="none" />
<polyline points="185.0,263.0,177.0,268.0,169.0,267.0,161.0,267.0,153.0,269.0,145.0,277.0,137.0,285.0,124.0,288.0,116.0,298.0,108.0,303.0,97.0,308.0,89.0,310.0,81.0,313.0,77.0,310.0,78.0,302.0,81.0,294.0,82.0,286.0,84.0,278.0,85.0,270.0,86.0,260.0,88.0,252.0,87.0,244.0,86.0,236.0,87.0,228.0" stroke="black" stroke-width="1" fill="none" />
<polyline points="89.0,228.0,89.0,236.0,89.0,244.0,90.0,254.0,91.0,251.0,99.0,253.0,103.0,252.0,111.0,253.0,119.0,253.0,127.0,249.0,135.0,239.0" stroke="black" stroke-width="1" fill="none" />
<polyline points="153.0,211.0,153.0,219.0,153.0,227.0,154.0,235.0,153.0,238.0,161.0,241.0,169.0,248.0,177.0,251.0,185.0,252.0" stroke="black" stroke-width="1" fill="none" />
<polyline points="101.0,261.0,93.0,275.0,85.0,295.0" stroke="black" stroke-width="1" fill="none" />
<polyline points="58.0,251.0,50.0,242.0" stroke="black" stroke-width="1" fill="none" />
<polyline points="46.0,237.0,54.0,251.0,62.0,252.0" stroke="black" stroke-width="1" fill="none" />
<polyline points="56.0,239.0,48.0,232.0" stroke="black" stroke-width="1" fill="none" />
<polyline points="50.0,234.0,58.0,242.0" stroke="black" stroke-width="1" fill="none" />
<polyline points="64.0,241.0,56.0,235.0,48.0,230.0,40.0,221.0" stroke="black" stroke-width="1" fill="none" />
<polyline points="45.0,231.0,46.0,239.0,49.0,247.0,60.0,254.0" stroke="black" stroke-width="1" fill="none" />
<polyline points="39.0,249.0,38.0,241.0,43.0,233.0,42.0,225.0,39.0,217.0,41.0,209.0,43.0,201.0,45.0,193.0,47.0,185.0,53.0,177.0,59.0,169.0,66.0,161.0,77.0,153.0,77.0,153.0,69.0,157.0,61.0,166.0,53.0,177.0,45.0,190.0" stroke="black" stroke-width="1" fill="none" />
<polyline points="48.0,194.0,56.0,189.0,55.0,197.0,54.0,205.0,50.0,213.0" stroke="black" stroke-width="1" fill="none" />
<polyline points="52.0,216.0,52.0,205.0,53.0,197.0,51.0,192.0,49.0,190.0,54.0,185.0,46.0,197.0" stroke="black" stroke-width="1" fill="none" />
<polyline points="51.0,232.0,59.0,240.0,62.0,243.0,70.0,237.0" stroke="black" stroke-width="1" fill="none" />
<polyline points="69.0,234.0,71.0,235.0,74.0,227.0" stroke="black" stroke-width="1" fill="none" />
<polyline points="72.0,226.0,69.0,234.0,63.0,244.0,68.0,248.0,64.0,256.0,63.0,264.0,63.0,272.0,63.0,280.0,63.0,288.0,62.0,296.0,63.0,304.0,60.0,307.0" stroke="black" stroke-width="1" fill="none" />
<polyline points="97.0,184.0,97.0,176.0,98.0,168.0,99.0,160.0,99.0,152.0,101.0,144.0,101.0,141.0" stroke="black" stroke-width="1" fill="none" />
<polyline points="104.0,141.0,102.0,149.0,101.0,157.0,100.0,165.0,100.0,173.0,99.0,181.0,97.0,189.0" stroke="black" stroke-width="1" fill="none" />
<polyline points="79.0,200.0,78.0,192.0,78.0,184.0,79.0,176.0,80.0,168.0,81.0,160.0,81.0,152.0" stroke="black" stroke-width="1" fill="none" />
<polyline points="124.0,140.0,132.0,141.0,140.0,142.0,148.0,144.0,156.0,152.0,164.0,160.0,172.0,167.0,180.0,177.0,188.0,182.0,196.0,184.0,204.0,185.0,212.0,186.0,220.0,181.0,228.0,173.0,236.0,164.0,244.0,156.0" stroke="black" stroke-width="1" fill="none" />
<polyline points="300.0,147.0,308.0,153.0,316.0,154.0,324.0,151.0,332.0,148.0,340.0,144.0,348.0,128.0,356.0,127.0,355.0,131.0,348.0,137.0,343.0,145.0,326.0,152.0,327.0,160.0,332.0,168.0,340.0,176.0,349.0,184.0" stroke="black" stroke-width="1" fill="none" />
<polyline points="370.0,197.0,378.0,195.0,386.0,198.0,394.0,201.0,402.0,200.0,413.0,196.0,421.0,192.0,429.0,189.0,438.0,183.0,446.0,169.0,454.0,169.0,458.0,174.0" stroke="black" stroke-width="1" fill="none" />
<polyline points="455.0,170.0,465.0,174.0,468.0,182.0,471.0,190.0,473.0,198.0,469.0,206.0,461.0,214.0,457.0,217.0,465.0,210.0,473.0,203.0" stroke="black" stroke-width="1" fill="none" />
<polyline points="465.0,214.0,457.0,220.0" stroke="black" stroke-width="1" fill="none" />
<polyline points="434.0,223.0,426.0,219.0,418.0,215.0,410.0,209.0" stroke="black" stroke-width="1" fill="none" />
<polyline points="409.0,207.0,417.0,211.0,425.0,216.0,433.0,220.0" stroke="black" stroke-width="1" fill="none" />
<polyline points="428.0,239.0,420.0,247.0,412.0,248.0,404.0,244.0,396.0,241.0,388.0,238.0,380.0,232.0,372.0,215.0" stroke="black" stroke-width="1" fill="none" />
<polyline points="376.0,214.0,383.0,208.0,390.0,200.0,385.0,207.0,377.0,211.0,369.0,206.0" stroke="black" stroke-width="1" fill="none" />
<polyline points="375.0,192.0,370.0,200.0,369.0,208.0,372.0,216.0,376.0,224.0,379.0,232.0,393.0,240.0,411.0,248.0,426.0,263.0,434.0,272.0,442.0,276.0" stroke="black" stroke-width="1" fill="none" />
<polyline points="450.0,278.0,442.0,273.0,434.0,268.0,426.0,256.0" stroke="black" stroke-width="1" fill="none" />
<polyline points="425.0,254.0,428.0,262.0,436.0,270.0,449.0,278.0,447.0,286.0,443.0,294.0,430.0,303.0,422.0,305.0,430.0,303.0,438.0,299.0,446.0,287.0" stroke="black" stroke-width="1" fill="none" />
<polyline points="466.0,260.0,458.0,251.0,449.0,247.0,441.0,248.0,433.0,250.0,425.0,252.0" stroke="black" stroke-width="1" fill="none" />
<polyline points="432.0,247.0,423.0,255.0,426.0,263.0,432.0,271.0,447.0,279.0,443.0,287.0,438.0,295.0" stroke="black" stroke-width="1" fill="none" />
<polyline points="458.0,308.0,450.0,318.0,442.0,326.0,434.0,327.0,426.0,329.0,418.0,329.0,410.0,326.0,402.0,321.0,394.0,319.0" stroke="black" stroke-width="1" fill="none" />
<polyline points="400.0,309.0,393.0,317.0,406.0,325.0,419.0,334.0,417.0,342.0,404.0,350.0" stroke="black" stroke-width="1" fill="none" />
<polyline points="386.0,332.0,394.0,324.0,384.0,330.0,376.0,322.0" stroke="black" stroke-width="1" fill="none" />
<polyline points="378.0,321.0,381.0,329.0" stroke="black" stroke-width="1" fill="none" />
<polyline points="375.0,320.0,383.0,311.0" stroke="black" stroke-width="1" fill="none" />
<polyline points="379.0,292.0,387.0,308.0,395.0,311.0,403.0,300.0,411.0,297.0,419.0,302.0,427.0,302.0,435.0,297.0,443.0,287.0" stroke="black" stroke-width="1" fill="none" />
<polyline points="446.0,322.0,454.0,314.0,460.0,306.0,466.0,298.0,468.0,290.0,470.0,282.0,472.0,274.0,470.0,266.0,462.0,258.0,457.0,250.0,456.0,241.0,459.0,233.0,463.0,225.0,468.0,217.0,472.0,209.0,466.0,220.0,458.0,235.0,450.0,244.0,442.0,246.0,434.0,247.0,426.0,250.0,418.0,253.0,410.0,250.0,402.0,246.0,394.0,249.0,386.0,254.0" stroke="black" stroke-width="1" fill="none" />
<polyline points="399.0,245.0,387.0,253.0,383.0,261.0,381.0,269.0,376.0,276.0,373.0,284.0,373.0,292.0" stroke="black" stroke-width="1" fill="none" />
<polyline points="364.0,300.0,380.0,290.0,390.0,280.0,385.0,272.0,385.0,264.0,387.0,264.0,378.0,275.0" stroke="black" stroke-width="1" fill="none" />
<polyline points="378.0,276.0,376.0,284.0,378.0,292.0,383.0,300.0,386.0,308.0,385.0,311.0,387.0,316.0,391.0,324.0" stroke="black" stroke-width="1" fill="none" />
<polyline points="407.0,328.0,391.0,320.0,383.0,306.0,375.0,293.0,367.0,299.0,359.0,303.0,351.0,303.0" stroke="black" stroke-width="1" fill="none" />
<polyline points="348.0,300.0,356.0,301.0,364.0,297.0,372.0,293.0,378.0,299.0,383.0,307.0,378.0,315.0,376.0,323.0,379.0,331.0" stroke="black" stroke-width="1" fill="none" />
<polyline points="377.0,333.0,369.0,335.0,361.0,332.0,353.0,329.0,345.0,331.0" stroke="black" stroke-width="1" fill="none" />
<polyline points="346.0,333.0,354.0,332.0,362.0,335.0,370.0,338.0,378.0,336.0,386.0,332.0,394.0,324.0,402.0,324.0,410.0,329.0,418.0,331.0" stroke="black" stroke-width="1" fill="none" />
<polyline points="412.0,348.0,404.0,350.0,396.0,354.0,388.0,356.0,380.0,356.0,372.0,355.0,364.0,351.0,356.0,343.0,348.0,334.0" stroke="black" stroke-width="1" fill="none" />
<polyline points="347.0,329.0,354.0,332.0" stroke="black" stroke-width="1" fill="none" />
<polyline points="342.0,332.0,350.0,341.0,355.0,350.0,351.0,358.0" stroke="black" stroke-width="1" fill="none" />
<polyline points="342.0,360.0,339.0,352.0" stroke="black" stroke-width="1" fill="none" />
<polyline points="335.0,366.0,327.0,368.0,319.0,366.0" stroke="black" stroke-width="1" fill="none" />
<polyline points="310.0,365.0,318.0,373.0,326.0,381.0" stroke="black" stroke-width="1" fill="none" />
<polyline points="307.0,369.0,315.0,366.0,323.0,375.0,331.0,381.0,339.0,382.0,347.0,383.0,355.0,383.0,363.0,383.0,371.0,377.0" stroke="black" stroke-width="1" fill="none" />
<polyline points="372.0,376.0,377.0,368.0,377.0,360.0,371.0,357.0,363.0,354.0,355.0,348.0,347.0,360.0,338.0,364.0,346.0,361.0,351.0,353.0,354.0,345.0,345.0,337.0,341.0,329.0,342.0,321.0,334.0,322.0,326.0,327.0,328.0,325.0,345.0,317.0,346.0,309.0,336.0,308.0,328.0,308.0,320.0,315.0" stroke="black" stroke-width="1" fill="none" />
<polyline points="321.0,311.0,313.0,319.0,308.0,327.0,307.0,335.0,307.0,343.0,307.0,351.0,308.0,359.0,306.0,362.0,304.0,370.0,305.0,378.0,298.0,386.0,287.0,388.0,290.0,391.0" stroke="black" stroke-width="1" fill="none" />
<polyline points="301.0,384.0,293.0,389.0,285.0,393.0,277.0,393.0" stroke="black" stroke-width="1" fill="none" />
<polyline points="277.0,393.0,285.0,401.0,292.0,409.0,288.0,416.0,278.0,424.0,285.0,420.0" stroke="black" stroke-width="1" fill="none" />
<polyline points="273.0,425.0,265.0,425.0,257.0,431.0,255.0,433.0,263.0,425.0" stroke="black" stroke-width="1" fill="none" />
<polyline points="261.0,423.0,253.0,431.0,256.0,428.0,264.0,423.0,272.0,423.0,280.0,420.0,288.0,411.0" stroke="black" stroke-width="1" fill="none" />
<polyline points="282.0,418.0,289.0,410.0,282.0,402.0" stroke="black" stroke-width="1" fill="none" />
<polyline points="282.0,391.0,274.0,390.0" stroke="black" stroke-width="1" fill="none" />
<polyline points="271.0,391.0,279.0,399.0,287.0,405.0,295.0,413.0,303.0,413.0,311.0,413.0,315.0,417.0,314.0,425.0,309.0,433.0,304.0,441.0,308.0,443.0,312.0,451.0,312.0,458.0,303.0,466.0" stroke="black" stroke-width="1" fill="none" />
<polyline points="317.0,454.0,323.0,462.0,327.0,465.0,322.0,467.0,323.0,473.0,330.0,480.0" stroke="black" stroke-width="1" fill="none" />
<polyline points="349.0,479.0,347.0,484.0,354.0,485.0,362.0,484.0" stroke="black" stroke-width="1" fill="none" />
<polyline points="370.0,462.0,378.0,456.0,386.0,456.0" stroke="black" stroke-width="1" fill="none" />
<polyline points="376.0,456.0,370.0,464.0,373.0,472.0,376.0,480.0" stroke="black" stroke-width="1" fill="none" />
<polyline points="357.0,464.0,349.0,466.0,341.0,467.0,333.0,463.0,320.0,464.0,311.0,453.0,311.0,445.0,303.0,445.0" stroke="black" stroke-width="1" fill="none" />
<polyline points="289.0,448.0,286.0,456.0" stroke="black" stroke-width="1" fill="none" />
<polyline points="286.0,449.0,294.0,447.0,302.0,449.0,303.0,452.0,306.0,460.0,310.0,472.0,318.0,471.0,324.0,469.0,328.0,477.0,334.0,481.0,342.0,484.0,350.0,479.0,353.0,481.0,361.0,479.0,374.0,478.0,382.0,481.0,390.0,473.0" stroke="black" stroke-width="1" fill="none" />
<polyline points="388.0,476.0,391.0,468.0,387.0,464.0,382.0,464.0,384.0,456.0,382.0,463.0,374.0,461.0,371.0,471.0,363.0,462.0,355.0,456.0,347.0,456.0,339.0,456.0,331.0,456.0,320.0,454.0,312.0,456.0,304.0,465.0,301.0,462.0,293.0,461.0,285.0,451.0,271.0,447.0,257.0,439.0,250.0,431.0,248.0,423.0,247.0,415.0,249.0,407.0,252.0,399.0,247.0,411.0" stroke="black" stroke-width="1" fill="none" />
<polyline points="258.0,409.0,266.0,407.0" stroke="black" stroke-width="1" fill="none" />
<polyline points="257.0,390.0,265.0,384.0,264.0,385.0,257.0,393.0,257.0,401.0,254.0,402.0,255.0,408.0,263.0,405.0,271.0,404.0,279.0,395.0,287.0,402.0,295.0,410.0,303.0,410.0,311.0,411.0,319.0,411.0,327.0,407.0,335.0,399.0,343.0,390.0,343.0,390.0,336.0,398.0,328.0,406.0" stroke="black" stroke-width="1" fill="none" />
<polyline points="310.0,432.0,302.0,443.0,294.0,445.0,286.0,447.0,278.0,451.0,270.0,446.0,262.0,441.0,254.0,437.0" stroke="black" stroke-width="1" fill="none" />
<polyline points="282.0,374.0,274.0,365.0" stroke="black" stroke-width="1" fill="none" />
<polyline points="274.0,365.0,280.0,373.0" stroke="black" stroke-width="1" fill="none" />
<polyline points="278.0,369.0,275.0,361.0" stroke="black" stroke-width="1" fill="none" />
<polyline points="274.0,359.0,282.0,371.0,290.0,369.0,298.0,359.0" stroke="black" stroke-width="1" fill="none" />
<polyline points="309.0,364.0,316.0,372.0,324.0,380.0" stroke="black" stroke-width="1" fill="none" />
<polyline points="306.0,383.0,309.0,375.0,308.0,367.0" stroke="black" stroke-width="1" fill="none" />
<polyline points="310.0,362.0,318.0,370.0,326.0,378.0,335.0,384.0,343.0,385.0" stroke="black" stroke-width="1" fill="none" />
<polyline points="336.0,362.0,328.0,365.0,320.0,363.0,312.0,359.0,299.0,362.0,288.0,371.0,295.0,363.0,301.0,355.0,305.0,347.0,305.0,341.0,297.0,339.0,289.0,339.0,281.0,346.0,273.0,357.0" stroke="black" stroke-width="1" fill="none" />
<polyline points="287.0,339.0,280.0,347.0,275.0,355.0,272.0,363.0,272.0,371.0,272.0,379.0,273.0,387.0,270.0,388.0,274.0,396.0" stroke="black" stroke-width="1" fill="none" />
<polyline points="323.0,339.0,314.0,347.0,317.0,344.0,325.0,339.0" stroke="black" stroke-width="1" fill="none" />
<polyline points="326.0,340.0,337.0,352.0,340.0,360.0" stroke="black" stroke-width="1" fill="none" />
<polyline points="357.0,348.0,364.0,356.0" stroke="black" stroke-width="1" fill="none" />
<polyline points="362.0,349.0,353.0,341.0,346.0,333.0,344.0,325.0,341.0,317.0,333.0,320.0,325.0,324.0,319.0,327.0,319.0,319.0,322.0,318.0,325.0,310.0,316.0,317.0,308.0,323.0" stroke="black" stroke-width="1" fill="none" />
<polyline points="322.0,336.0,313.0,344.0,311.0,346.0,319.0,338.0,327.0,336.0,337.0,351.0,345.0,358.0,353.0,346.0" stroke="black" stroke-width="1" fill="none" />
<polyline points="333.0,320.0,343.0,312.0,346.0,304.0,347.0,296.0,357.0,288.0,363.0,280.0,374.0,275.0,366.0,277.0,358.0,287.0,350.0,293.0" stroke="black" stroke-width="1" fill="none" />
<polyline points="386.0,273.0,394.0,270.0,402.0,258.0,403.0,247.0,405.0,255.0,399.0,263.0,393.0,271.0,392.0,278.0,402.0,281.0,407.0,277.0,399.0,283.0,400.0,288.0,406.0,284.0,401.0,285.0" stroke="black" stroke-width="1" fill="none" />
<polyline points="408.0,296.0,400.0,304.0,395.0,312.0,398.0,312.0,407.0,300.0,415.0,303.0" stroke="black" stroke-width="1" fill="none" />
<polyline points="391.0,205.0,385.0,195.0" stroke="black" stroke-width="1" fill="none" />
<polyline points="425.0,167.0,433.0,159.0,440.0,151.0,446.0,143.0,449.0,143.0" stroke="black" stroke-width="1" fill="none" />
<polyline points="448.0,164.0,456.0,167.0,464.0,172.0" stroke="black" stroke-width="1" fill="none" />
<polyline points="446.0,169.0,442.0,177.0,434.0,185.0,419.0,193.0,411.0,200.0,419.0,213.0,434.0,221.0,438.0,229.0" stroke="black" stroke-width="1" fill="none" />
<polyline points="449.0,122.0,441.0,117.0" stroke="black" stroke-width="1" fill="none" />
<polyline points="425.0,121.0,415.0,117.0,407.0,101.0" stroke="black" stroke-width="1" fill="none" />
<polyline points="397.0,75.0,401.0,83.0,404.0,91.0,409.0,100.0,413.0,108.0,417.0,116.0,419.0,125.0,418.0,133.0" stroke="black" stroke-width="1" fill="none" />
<polyline points="416.0,134.0,416.0,126.0,415.0,118.0,411.0,110.0,407.0,102.0,403.0,94.0,400.0,86.0,396.0,78.0,389.0,70.0,381.0,69.0,373.0,67.0" stroke="black" stroke-width="1" fill="none" />
<polyline points="359.0,69.0,367.0,68.0,375.0,64.0,383.0,60.0,391.0,58.0,399.0,58.0,407.0,59.0,415.0,65.0,423.0,69.0,431.0,74.0,439.0,78.0,448.0,86.0,447.0,94.0,447.0,102.0,445.0,110.0,445.0,118.0" stroke="black" stroke-width="1" fill="none" />
<polyline points="450.0,89.0,453.0,97.0,455.0,105.0,456.0,113.0,458.0,121.0,460.0,129.0,461.0,137.0,455.0,145.0,454.0,153.0,447.0,161.0,443.0,168.0,440.0,176.0,431.0,184.0,416.0,192.0,408.0,199.0,410.0,210.0,423.0,218.0,436.0,226.0,432.0,234.0,423.0,245.0,411.0,254.0,403.0,262.0,405.0,259.0" stroke="black" stroke-width="1" fill="none" />
<polyline points="418.0,169.0,419.0,161.0,412.0,157.0,404.0,155.0,396.0,152.0,388.0,149.0,380.0,146.0,372.0,137.0,364.0,125.0" stroke="black" stroke-width="1" fill="none" />
<polyline points="334.0,147.0,344.0,139.0,347.0,131.0,357.0,126.0,361.0,118.0,357.0,116.0,361.0,108.0,361.0,100.0,360.0,92.0,358.0,84.0,357.0,76.0,355.0,68.0,348.0,57.0,340.0,53.0" stroke="black" stroke-width="1" fill="none" />
<polyline points="340.0,53.0,342.0,61.0" stroke="black" stroke-width="1" fill="none" />
<polyline points="342.0,54.0,353.0,62.0,349.0,70.0,346.0,78.0,344.0,86.0,347.0,94.0,349.0,102.0,346.0,110.0" stroke="black" stroke-width="1" fill="none" />
<polyline points="344.0,81.0,352.0,67.0,359.0,75.0,361.0,83.0,362.0,91.0,364.0,99.0,364.0,107.0,364.0,115.0,363.0,123.0,365.0,131.0,368.0,131.0,373.0,139.0,376.0,147.0,392.0,151.0,403.0,155.0,412.0,160.0,420.0,171.0,428.0,163.0,436.0,155.0,444.0,146.0,452.0,139.0,458.0,142.0,457.0,150.0" stroke="black" stroke-width="1" fill="none" />
<polyline points="448.0,160.0,440.0,176.0,432.0,183.0,424.0,189.0,416.0,192.0,408.0,195.0,400.0,197.0,392.0,197.0,384.0,194.0,376.0,192.0,368.0,189.0,360.0,188.0,352.0,185.0,344.0,179.0,336.0,171.0,328.0,163.0" stroke="black" stroke-width="1" fill="none" />
<polyline points="326.0,152.0,334.0,150.0,342.0,146.0,350.0,135.0,358.0,128.0,366.0,133.0" stroke="black" stroke-width="1" fill="none" />
<polyline points="317.0,124.0,309.0,133.0,301.0,144.0" stroke="black" stroke-width="1" fill="none" />
<polyline points="303.0,150.0,303.0,142.0,308.0,134.0,314.0,127.0,321.0,119.0,318.0,109.0,317.0,106.0,309.0,97.0,304.0,102.0,294.0,115.0,286.0,115.0,286.0,117.0,285.0,109.0,282.0,101.0,272.0,93.0,263.0,85.0,250.0,77.0,247.0,79.0,239.0,82.0,231.0,85.0,223.0,81.0,215.0,77.0,207.0,72.0,199.0,70.0,191.0,70.0" stroke="black" stroke-width="1" fill="none" />
<polyline points="210.0,74.0,224.0,82.0,239.0,89.0,247.0,99.0,255.0,118.0" stroke="black" stroke-width="1" fill="none" />
<polyline points="276.0,98.0,268.0,93.0,259.0,85.0,251.0,81.0" stroke="black" stroke-width="1" fill="none" />
<polyline points="251.0,81.0,264.0,89.0,273.0,97.0,281.0,105.0,282.0,113.0,284.0,121.0,298.0,116.0" stroke="black" stroke-width="1" fill="none" />
<polyline points="294.0,118.0,302.0,110.0,304.0,102.0" stroke="black" stroke-width="1" fill="none" />
<polyline points="304.0,95.0,301.0,103.0,299.0,111.0" stroke="black" stroke-width="1" fill="none" />
<polyline points="329.0,63.0,321.0,62.0,313.0,58.0,305.0,51.0" stroke="black" stroke-width="1" fill="none" />
<polyline points="304.0,53.0,312.0,61.0,320.0,69.0" stroke="black" stroke-width="1" fill="none" />
<polyline points="336.0,52.0,328.0,45.0,320.0,43.0,312.0,46.0,304.0,49.0,296.0,42.0,288.0,29.0,280.0,27.0,272.0,27.0,264.0,27.0,256.0,27.0,248.0,27.0,240.0,27.0" stroke="black" stroke-width="1" fill="none" />
<polyline points="240.0,30.0,244.0,38.0,246.0,46.0,259.0,50.0" stroke="black" stroke-width="1" fill="none" />
<polyline points="249.0,80.0,244.0,83.0,252.0,78.0,260.0,82.0,268.0,89.0,276.0,95.0,284.0,103.0" stroke="black" stroke-width="1" fill="none" />
<polyline points="347.0,108.0,339.0,116.0,331.0,114.0,323.0,116.0,318.0,119.0,310.0,128.0,302.0,138.0,294.0,150.0,286.0,154.0,278.0,157.0,270.0,162.0,262.0,160.0,259.0,156.0,258.0,148.0,259.0,140.0,259.0,132.0,254.0,122.0,250.0,114.0,246.0,106.0,243.0,98.0,234.0,89.0,226.0,85.0,218.0,81.0,210.0,77.0,202.0,73.0,194.0,73.0,186.0,73.0,178.0,73.0,170.0,73.0,162.0,73.0,154.0,75.0,146.0,81.0,138.0,85.0,130.0,91.0,122.0,98.0,114.0,116.0" stroke="black" stroke-width="1" fill="none" />
<polyline points="125.0,106.0,133.0,120.0" stroke="black" stroke-width="1" fill="none" />
<polyline points="132.0,113.0,124.0,102.0" stroke="black" stroke-width="1" fill="none" />
<polyline points="126.0,102.0,129.0,110.0,134.0,118.0" stroke="black" stroke-width="1" fill="none" />
<polyline points="125.0,100.0,126.0,108.0,130.0,116.0,133.0,126.0,123.0,135.0,125.0,137.0,125.0,137.0,134.0,123.0,142.0,124.0,150.0,126.0,158.0,129.0,171.0,127.0,179.0,124.0,191.0,126.0,199.0,130.0,207.0,124.0,215.0,119.0,225.0,111.0,228.0,114.0,234.0,101.0,242.0,95.0,250.0,112.0" stroke="black" stroke-width="1" fill="none" />
<polyline points="200.0,60.0,199.0,52.0" stroke="black" stroke-width="1" fill="none" />
<polyline points="201.0,50.0,202.0,58.0,205.0,70.0,208.0,77.0,224.0,85.0,238.0,93.0,231.0,101.0,227.0,108.0,218.0,116.0,207.0,124.0,194.0,128.0,200.0,136.0,203.0,144.0" stroke="black" stroke-width="1" fill="none" />
<polyline points="147.0,144.0,156.0,152.0,163.0,160.0,172.0,168.0,178.0,176.0,186.0,184.0,194.0,191.0,197.0,199.0,199.0,207.0,199.0,215.0,204.0,218.0,212.0,215.0,220.0,212.0,228.0,206.0,236.0,194.0" stroke="black" stroke-width="1" fill="none" />
<polyline points="142.0,195.0,138.0,187.0,138.0,179.0,141.0,171.0" stroke="black" stroke-width="1" fill="none" />
<polyline points="143.0,146.0,154.0,154.0,161.0,162.0,165.0,166.0,174.0,174.0,180.0,182.0,188.0,190.0,194.0,198.0,196.0,206.0,196.0,214.0,195.0,222.0,194.0,230.0,191.0,238.0,189.0,246.0,190.0,250.0" stroke="black" stroke-width="1" fill="none" />
<polyline points="116.0,171.0,124.0,163.0,124.0,155.0,121.0,147.0,116.0,137.0,113.0,129.0,113.0,121.0,115.0,113.0,119.0,105.0,123.0,97.0,132.0,89.0,145.0,81.0,158.0,73.0" stroke="black" stroke-width="1" fill="none" />
<polyline points="94.0,52.0,94.0,60.0,94.0,69.0,94.0,77.0,94.0,85.0,94.0,93.0,93.0,101.0,93.0,109.0,93.0,117.0,93.0,125.0,92.0,133.0,92.0,141.0,92.0,149.0,91.0,158.0,91.0,166.0,90.0,175.0,91.0,183.0,92.0,191.0,89.0,199.0" stroke="black" stroke-width="1" fill="none" />
<polyline points="85.0,199.0,89.0,195.0,89.0,187.0,88.0,179.0,88.0,171.0,88.0,163.0,89.0,155.0,90.0,147.0,90.0,139.0,90.0,131.0,90.0,123.0,90.0,115.0,91.0,107.0,91.0,99.0,91.0,91.0,92.0,83.0,92.0,75.0,92.0,67.0,92.0,59.0,92.0,51.0" stroke="black" stroke-width="1" fill="none" />
<polyline points="95.0,34.0,93.0,42.0,95.0,31.0" stroke="black" stroke-width="1" fill="none" />
<polyline points="96.0,30.0,88.0,38.0,88.0,46.0,88.0,54.0,88.0,62.0,87.0,70.0,87.0,78.0,87.0,86.0,86.0,94.0,86.0,102.0,86.0,110.0,86.0,118.0,85.0,126.0,84.0,134.0,84.0,142.0,84.0,150.0,84.0,158.0,83.0,166.0,82.0,174.0,80.0,182.0,80.0,190.0,81.0,198.0,85.0,202.0,93.0,195.0,96.0,186.0,106.0,177.0,114.0,170.0" stroke="black" stroke-width="1" fill="none" />
<polyline points="119.0,169.0,111.0,177.0,103.0,182.0,106.0,177.0,115.0,169.0,122.0,161.0,121.0,153.0,117.0,145.0,113.0,137.0,107.0,133.0,109.0,130.0,111.0,122.0,110.0,114.0,110.0,106.0,109.0,98.0,108.0,90.0,107.0,82.0,106.0,74.0,105.0,66.0,105.0,58.0,103.0,50.0,102.0,42.0,101.0,34.0" stroke="black" stroke-width="1" fill="none" />
<polyline points="99.0,31.0,95.0,39.0,96.0,36.0" stroke="black" stroke-width="1" fill="none" />
<polyline points="234.0,29.0,222.0,37.0,203.0,45.0,197.0,53.0,193.0,61.0,190.0,69.0,195.0,57.0,203.0,45.0,211.0,42.0,219.0,39.0,227.0,33.0,235.0,29.0,243.0,40.0,251.0,45.0,259.0,47.0,267.0,50.0" stroke="black" stroke-width="1" fill="none" />
<polyline points="292.0,37.0,298.0,45.0,303.0,53.0,312.0,61.0,320.0,69.0,323.0,77.0,323.0,85.0,323.0,93.0,322.0,101.0,315.0,105.0,323.0,109.0,320.0,117.0,313.0,125.0,306.0,133.0,300.0,141.0,295.0,149.0,278.0,157.0" stroke="black" stroke-width="1" fill="none" />
<polyline points="339.0,59.0,335.0,51.0,322.0,43.0" stroke="black" stroke-width="1" fill="none" />
<polyline points="321.0,42.0,304.0,50.0,312.0,58.0,321.0,66.0,326.0,74.0,326.0,82.0,326.0,90.0,326.0,98.0,326.0,106.0,329.0,114.0,333.0,119.0,341.0,118.0" stroke="black" stroke-width="1" fill="none" />
<polyline points="387.0,58.0,371.0,69.0,379.0,71.0,387.0,72.0,398.0,76.0,406.0,94.0,408.0,98.0,416.0,113.0,424.0,119.0" stroke="black" stroke-width="1" fill="none" />
<polyline points="446.0,123.0,440.0,115.0,443.0,107.0,445.0,99.0,445.0,91.0,446.0,83.0,432.0,75.0,417.0,67.0,405.0,59.0" stroke="black" stroke-width="1" fill="none" />
<polyline points="291.0,35.0,286.0,43.0,281.0,49.0,289.0,38.0" stroke="black" stroke-width="1" fill="none" />
<polyline points="288.0,35.0,280.0,45.0,281.0,44.0,287.0,36.0,286.0,28.0" stroke="black" stroke-width="1" fill="none" />
<polyline points="356.0,457.0,359.0,465.0,371.0,471.0,370.0,479.0" stroke="black" stroke-width="1" fill="none" />
</svg>