<svg xmlns="http://www.w3.org/2000/svg" height="387px" width="387px" version="1.1"><polyline points="147.0,16.5,115.5,28.5,94.5,40.5,78.0,52.5,64.5,64.5,54.0,76.5,45.0,88.5,37.5,100.5,30.0,112.5,25.5,124.5,21.0,136.5,16.5,148.5,13.5,160.5,12.0,172.5,10.5,184.5,10.5,196.5,10.5,208.5,12.0,220.5,13.5,232.5,16.5,244.5,19.5,256.5,22.5,268.5,28.5,280.5,34.5,292.5,42.0,304.5,51.0,316.5,61.5,328.5,73.5,340.5,88.5,352.5,106.5,364.5,133.5,376.5" stroke="black" stroke-width="1" fill="none" />
<polyline points="145.5,322.5,157.5,330.0,169.5,343.5,190.5,355.5" stroke="black" stroke-width="1" fill="none" />
<polyline points="208.5,372.0,220.5,369.0,232.5,370.5,244.5,366.0,256.5,357.0,268.5,337.5,280.5,328.5" stroke="black" stroke-width="1" fill="none" />
<polyline points="279.0,313.5,282.0,325.5,268.5,337.5,261.0,349.5,249.0,361.5" stroke="black" stroke-width="1" fill="none" />
<polyline points="261.0,324.0,277.5,312.0,280.5,300.0,288.0,288.0,298.5,276.0,306.0,264.0,310.5,252.0,313.5,240.0,304.5,240.0,285.0,252.0,289.5,247.5,280.5,249.0,283.5,237.0,286.5,229.5,294.0,225.0,301.5,213.0,312.0,201.0,303.0,184.5,291.0,172.5,271.5,163.5,274.5,151.5,270.0,139.5,268.5,121.5,271.5,109.5,268.5,114.0" stroke="black" stroke-width="1" fill="none" />
<polyline points="276.0,109.5,279.0,121.5,291.0,133.5" stroke="black" stroke-width="1" fill="none" />
<polyline points="297.0,132.0,294.0,115.5,297.0,111.0,289.5,111.0" stroke="black" stroke-width="1" fill="none" />
<polyline points="279.0,120.0,291.0,132.0" stroke="black" stroke-width="1" fill="none" />
<polyline points="270.0,144.0,282.0,157.5,294.0,163.5,300.0,174.0,312.0,175.5,322.5,186.0" stroke="black" stroke-width="1" fill="none" />
<polyline points="327.0,187.5,325.5,199.5,319.5,211.5,310.5,223.5,298.5,235.5,303.0,252.0,295.5,264.0,282.0,276.0,270.0,285.0,255.0,292.5,261.0,294.0,258.0,300.0,276.0,288.0" stroke="black" stroke-width="1" fill="none" />
<polyline points="255.0,276.0,243.0,276.0,241.5,285.0,229.5,277.5" stroke="black" stroke-width="1" fill="none" />
<polyline points="228.0,273.0,238.5,285.0,241.5,297.0,238.5,307.5,243.0,316.5,252.0,321.0" stroke="black" stroke-width="1" fill="none" />
<polyline points="229.5,321.0,229.5,309.0" stroke="black" stroke-width="1" fill="none" />
<polyline points="220.5,319.5,204.0,319.5,192.0,316.5,190.5,318.0,186.0,304.5,195.0,295.5,199.5,282.0,208.5,273.0,219.0,271.5,210.0,277.5" stroke="black" stroke-width="1" fill="none" />
<polyline points="219.0,285.0,217.5,297.0,208.5,301.5,220.5,294.0,229.5,295.5,241.5,300.0,244.5,291.0,252.0,286.5,268.5,282.0" stroke="black" stroke-width="1" fill="none" />
<polyline points="267.0,259.5,261.0,271.5,267.0,276.0,265.5,286.5,276.0,277.5,288.0,267.0,288.0,258.0,300.0,255.0" stroke="black" stroke-width="1" fill="none" />
<polyline points="328.5,265.5,334.5,258.0,328.5,270.0" stroke="black" stroke-width="1" fill="none" />
<polyline points="312.0,186.0,300.0,181.5,283.5,168.0,271.5,162.0" stroke="black" stroke-width="1" fill="none" />
<polyline points="243.0,160.5,238.5,163.5,250.5,166.5,240.0,186.0,252.0,198.0,261.0,210.0,267.0,222.0,267.0,234.0,256.5,246.0" stroke="black" stroke-width="1" fill="none" />
<polyline points="279.0,229.5,267.0,220.5,247.5,211.5,244.5,208.5,243.0,210.0" stroke="black" stroke-width="1" fill="none" />
<polyline points="250.5,195.0,262.5,210.0" stroke="black" stroke-width="1" fill="none" />
<polyline points="276.0,199.5,262.5,180.0,250.5,181.5,238.5,184.5" stroke="black" stroke-width="1" fill="none" />
<polyline points="247.5,192.0,259.5,195.0,271.5,211.5,283.5,223.5" stroke="black" stroke-width="1" fill="none" />
<polyline points="261.0,238.5,249.0,250.5,237.0,250.5,225.0,241.5" stroke="black" stroke-width="1" fill="none" />
<polyline points="232.5,238.5,220.5,240.0,213.0,247.5,195.0,256.5,183.0,265.5,171.0,271.5,174.0,283.5,181.5,280.5" stroke="black" stroke-width="1" fill="none" />
<polyline points="196.5,286.5,208.5,292.5,211.5,286.5,198.0,306.0,210.0,318.0" stroke="black" stroke-width="1" fill="none" />
<polyline points="181.5,309.0,175.5,301.5,169.5,309.0,157.5,309.0,138.0,309.0,126.0,309.0,114.0,303.0" stroke="black" stroke-width="1" fill="none" />
<polyline points="112.5,297.0,124.5,298.5,136.5,301.5" stroke="black" stroke-width="1" fill="none" />
<polyline points="133.5,282.0,142.5,276.0,159.0,294.0" stroke="black" stroke-width="1" fill="none" />
<polyline points="178.5,297.0,177.0,309.0,180.0,319.5,184.5,331.5,174.0,343.5,186.0,336.0" stroke="black" stroke-width="1" fill="none" />
<polyline points="168.0,327.0,156.0,322.5,144.0,321.0" stroke="black" stroke-width="1" fill="none" />
<polyline points="118.5,351.0,106.5,342.0,94.5,336.0" stroke="black" stroke-width="1" fill="none" />
<polyline points="94.5,336.0,114.0,348.0" stroke="black" stroke-width="1" fill="none" />
<polyline points="115.5,360.0,103.5,351.0,91.5,343.5,79.5,336.0" stroke="black" stroke-width="1" fill="none" />
<polyline points="79.5,336.0,97.5,348.0,115.5,360.0" stroke="black" stroke-width="1" fill="none" />
<polyline points="147.0,261.0,147.0,240.0,162.0,228.0,151.5,217.5" stroke="black" stroke-width="1" fill="none" />
<polyline points="148.5,216.0,160.5,213.0,162.0,208.5,172.5,220.5" stroke="black" stroke-width="1" fill="none" />
<polyline points="187.5,216.0,199.5,210.0,202.5,214.5,201.0,226.5" stroke="black" stroke-width="1" fill="none" />
<polyline points="201.0,249.0,187.5,261.0,168.0,273.0,166.5,288.0,153.0,294.0,162.0,295.5,160.5,300.0,144.0,321.0,159.0,333.0,178.5,345.0,190.5,357.0" stroke="black" stroke-width="1" fill="none" />
<polyline points="174.0,247.5,162.0,243.0" stroke="black" stroke-width="1" fill="none" />
<polyline points="147.0,244.5,165.0,244.5,177.0,253.5,181.5,255.0" stroke="black" stroke-width="1" fill="none" />
<polyline points="172.5,211.5,160.5,207.0,148.5,204.0,136.5,207.0" stroke="black" stroke-width="1" fill="none" />
<polyline points="136.5,195.0,148.5,193.5" stroke="black" stroke-width="1" fill="none" />
<polyline points="135.0,192.0,139.5,187.5,132.0,199.5,124.5,198.0" stroke="black" stroke-width="1" fill="none" />
<polyline points="112.5,216.0,112.5,211.5,118.5,211.5,136.5,202.5,148.5,199.5,160.5,201.0" stroke="black" stroke-width="1" fill="none" />
<polyline points="183.0,195.0,175.5,207.0,175.5,222.0,187.5,210.0" stroke="black" stroke-width="1" fill="none" />
<polyline points="213.0,202.5,225.0,205.5" stroke="black" stroke-width="1" fill="none" />
<polyline points="226.5,211.5,214.5,207.0" stroke="black" stroke-width="1" fill="none" />
<polyline points="216.0,198.0,202.5,208.5,189.0,220.5,193.5,226.5" stroke="black" stroke-width="1" fill="none" />
<polyline points="171.0,174.0,183.0,178.5,195.0,184.5,207.0,175.5,219.0,178.5,231.0,178.5,243.0,177.0,249.0,183.0,255.0,190.5,264.0,202.5,273.0,214.5,283.5,226.5,286.5,238.5,301.5,231.0,313.5,219.0" stroke="black" stroke-width="1" fill="none" />
<polyline points="294.0,223.5,280.5,207.0,274.5,204.0,271.5,192.0" stroke="black" stroke-width="1" fill="none" />
<polyline points="322.5,177.0,309.0,189.0,322.5,177.0,334.5,171.0,346.5,174.0" stroke="black" stroke-width="1" fill="none" />
<polyline points="345.0,172.5,354.0,184.5,354.0,196.5" stroke="black" stroke-width="1" fill="none" />
<polyline points="333.0,148.5,321.0,145.5" stroke="black" stroke-width="1" fill="none" />
<polyline points="259.5,103.5,255.0,118.5,253.5,106.5,246.0,109.5" stroke="black" stroke-width="1" fill="none" />
<polyline points="237.0,94.5,222.0,111.0,238.5,117.0,250.5,124.5,267.0,126.0,273.0,124.5" stroke="black" stroke-width="1" fill="none" />
<polyline points="264.0,82.5,253.5,73.5,241.5,82.5" stroke="black" stroke-width="1" fill="none" />
<polyline points="234.0,49.5,222.0,52.5,210.0,52.5,198.0,45.0" stroke="black" stroke-width="1" fill="none" />
<polyline points="198.0,46.5,192.0,51.0" stroke="black" stroke-width="1" fill="none" />
<polyline points="193.5,67.5,184.5,79.5,178.5,91.5,181.5,96.0,177.0,100.5,181.5,112.5,186.0,124.5,174.0,132.0,187.5,144.0,199.5,151.5,208.5,163.5,201.0,181.5" stroke="black" stroke-width="1" fill="none" />
<polyline points="201.0,151.5,189.0,144.0,177.0,133.5" stroke="black" stroke-width="1" fill="none" />
<polyline points="183.0,132.0,202.5,139.5,211.5,124.5,213.0,138.0,225.0,145.5,237.0,138.0,249.0,136.5" stroke="black" stroke-width="1" fill="none" />
<polyline points="205.5,75.0,193.5,73.5" stroke="black" stroke-width="1" fill="none" />
<polyline points="183.0,97.5,195.0,94.5,207.0,82.5,219.0,75.0,219.0,78.0,210.0,90.0,204.0,94.5,205.5,105.0,217.5,108.0,229.5,97.5,241.5,97.5,253.5,100.5,252.0,96.0,247.5,108.0,237.0,123.0,255.0,129.0,265.5,133.5,282.0,139.5,288.0,144.0,303.0,144.0,322.5,133.5,324.0,132.0,319.5,144.0,325.5,156.0" stroke="black" stroke-width="1" fill="none" />
<polyline points="330.0,85.5,318.0,73.5,306.0,54.0,294.0,45.0,282.0,37.5,270.0,31.5,258.0,27.0,241.5,21.0,229.5,19.5,219.0,30.0,207.0,31.5,193.5,28.5,181.5,30.0,169.5,33.0,157.5,37.5,145.5,45.0,133.5,51.0,121.5,54.0,109.5,57.0,97.5,63.0" stroke="black" stroke-width="1" fill="none" />
<polyline points="84.0,57.0,84.0,57.0,81.0,69.0,81.0,75.0,96.0,63.0,108.0,49.5,120.0,43.5,132.0,36.0,144.0,24.0,154.5,27.0,166.5,19.5" stroke="black" stroke-width="1" fill="none" />
<polyline points="169.5,18.0,160.5,34.5,142.5,46.5,115.5,63.0,96.0,73.5,85.5,85.5,67.5,97.5,52.5,109.5,37.5,120.0,30.0,133.5,42.0,124.5,54.0,115.5,66.0,106.5,78.0,100.5,88.5,100.5,97.5,88.5,109.5,81.0,117.0,78.0,127.5,64.5,139.5,72.0,151.5,67.5,151.5,75.0,162.0,67.5,168.0,85.5,180.0,79.5,192.0,69.0,204.0,61.5,207.0,69.0,219.0,64.5,225.0,69.0,237.0,63.0,250.5,64.5,252.0,67.5,265.5,75.0,277.5,73.5" stroke="black" stroke-width="1" fill="none" />
<polyline points="274.5,60.0,270.0,72.0,249.0,75.0,237.0,79.5,225.0,91.5,226.5,79.5,238.5,82.5,249.0,85.5,258.0,79.5,270.0,79.5,273.0,88.5" stroke="black" stroke-width="1" fill="none" />
<polyline points="283.5,51.0,271.5,45.0" stroke="black" stroke-width="1" fill="none" />
<polyline points="271.5,45.0,277.5,55.5,292.5,67.5" stroke="black" stroke-width="1" fill="none" />
<polyline points="298.5,67.5,286.5,60.0,274.5,52.5,268.5,60.0,262.5,49.5,250.5,43.5,232.5,43.5,223.5,42.0,211.5,40.5,199.5,40.5,187.5,42.0,184.5,57.0,172.5,60.0,166.5,48.0,159.0,52.5,148.5,60.0,136.5,60.0,124.5,58.5,109.5,64.5,97.5,70.5,85.5,85.5,73.5,94.5,61.5,102.0,49.5,112.5,37.5,117.0,55.5,114.0,72.0,102.0" stroke="black" stroke-width="1" fill="none" />
<polyline points="72.0,109.5,69.0,121.5,55.5,133.5,43.5,142.5,57.0,132.0,69.0,121.5,88.5,115.5,96.0,106.5" stroke="black" stroke-width="1" fill="none" />
<polyline points="93.0,96.0,87.0,108.0,79.5,106.5,93.0,94.5,105.0,100.5,117.0,97.5,132.0,105.0" stroke="black" stroke-width="1" fill="none" />
<polyline points="141.0,106.5,142.5,94.5" stroke="black" stroke-width="1" fill="none" />
<polyline points="151.5,90.0,151.5,102.0,147.0,108.0,157.5,105.0" stroke="black" stroke-width="1" fill="none" />
<polyline points="169.5,126.0,184.5,135.0,190.5,151.5,181.5,156.0,186.0,157.5" stroke="black" stroke-width="1" fill="none" />
<polyline points="162.0,148.5,169.5,165.0,178.5,177.0,189.0,198.0,193.5,204.0,184.5,216.0,175.5,216.0,186.0,204.0,186.0,196.5,189.0,198.0" stroke="black" stroke-width="1" fill="none" />
<polyline points="187.5,148.5,175.5,142.5,163.5,133.5,150.0,138.0,138.0,150.0,126.0,157.5,114.0,153.0" stroke="black" stroke-width="1" fill="none" />
<polyline points="108.0,160.5,105.0,144.0,112.5,132.0" stroke="black" stroke-width="1" fill="none" />
<polyline points="120.0,132.0,115.5,144.0,115.5,156.0,108.0,169.5,103.5,181.5,88.5,193.5,81.0,205.5,79.5,217.5,76.5,229.5,78.0,241.5,84.0,253.5,87.0,265.5,97.5,277.5,117.0,289.5,112.5,303.0,127.5,318.0,127.5,316.5" stroke="black" stroke-width="1" fill="none" />
<polyline points="109.5,247.5,121.5,244.5" stroke="black" stroke-width="1" fill="none" />
<polyline points="135.0,235.5,127.5,247.5,129.0,246.0,144.0,241.5,156.0,232.5" stroke="black" stroke-width="1" fill="none" />
<polyline points="148.5,261.0,136.5,262.5,124.5,262.5,112.5,255.0,100.5,247.5,88.5,244.5" stroke="black" stroke-width="1" fill="none" />
<polyline points="88.5,244.5,94.5,259.5,106.5,271.5,106.5,270.0,120.0,279.0,132.0,279.0,144.0,277.5,156.0,285.0,168.0,288.0,180.0,279.0,192.0,286.5,193.5,273.0,205.5,279.0,216.0,267.0,235.5,268.5,247.5,264.0,259.5,259.5,270.0,259.5" stroke="black" stroke-width="1" fill="none" />
<polyline points="127.5,270.0,115.5,267.0,103.5,262.5,91.5,253.5,78.0,240.0" stroke="black" stroke-width="1" fill="none" />
<polyline points="45.0,250.5,30.0,243.0" stroke="black" stroke-width="1" fill="none" />
<polyline points="21.0,234.0,21.0,234.0,31.5,246.0,43.5,258.0,45.0,258.0,66.0,262.5,78.0,261.0,79.5,268.5,94.5,271.5,106.5,283.5,118.5,289.5,130.5,286.5,142.5,289.5,148.5,300.0,159.0,301.5,171.0,294.0,183.0,294.0,195.0,294.0,195.0,301.5,205.5,310.5,217.5,316.5,223.5,303.0,229.5,309.0,243.0,303.0,255.0,322.5,270.0,315.0,283.5,295.5,295.5,277.5,307.5,262.5" stroke="black" stroke-width="1" fill="none" />
<polyline points="160.5,160.5,148.5,159.0,136.5,162.0,124.5,163.5,112.5,168.0,100.5,184.5,88.5,193.5,72.0,217.5,60.0,205.5,51.0,201.0,42.0,201.0,31.5,196.5,27.0,202.5,37.5,190.5,51.0,181.5,39.0,184.5" stroke="black" stroke-width="1" fill="none" />
<polyline points="45.0,184.5,45.0,196.5,40.5,201.0,55.5,205.5,61.5,210.0,69.0,214.5,67.5,226.5" stroke="black" stroke-width="1" fill="none" />
<polyline points="51.0,256.5,39.0,240.0,27.0,228.0" stroke="black" stroke-width="1" fill="none" />
<polyline points="27.0,261.0,34.5,273.0,42.0,285.0" stroke="black" stroke-width="1" fill="none" />
<polyline points="39.0,277.5,27.0,261.0" stroke="black" stroke-width="1" fill="none" />
<polyline points="21.0,261.0,33.0,288.0,45.0,306.0,57.0,322.5,69.0,334.5,81.0,345.0,93.0,354.0,105.0,361.5,117.0,369.0,129.0,375.0,141.0,378.0,153.0,381.0,165.0,384.0,177.0,385.5,189.0,387.0,201.0,387.0,213.0,387.0,225.0,385.5,237.0,382.5,249.0,381.0,261.0,376.5,273.0,372.0,285.0,366.0,297.0,358.5,309.0,351.0,321.0,342.0,333.0,330.0,345.0,316.5,357.0,300.0,369.0,279.0" stroke="black" stroke-width="1" fill="none" />
<polyline points="376.5,135.0,364.5,108.0,352.5,88.5,340.5,73.5,328.5,61.5,316.5,51.0,304.5,42.0,292.5,34.5,280.5,28.5,268.5,24.0,256.5,19.5,244.5,15.0,232.5,13.5,220.5,10.5,208.5,10.5,196.5,9.0,184.5,10.5,172.5,12.0,160.5,13.5,148.5,16.5,136.5,21.0,124.5,25.5,112.5,30.0,100.5,37.5,88.5,45.0,76.5,54.0,64.5,64.5,52.5,78.0,40.5,94.5,28.5,114.0,16.5,147.0" stroke="black" stroke-width="1" fill="none" />
<polyline points="58.5,144.0,70.5,136.5,75.0,148.5,78.0,160.5,85.5,150.0,87.0,144.0,99.0,147.0,106.5,133.5,118.5,124.5,121.5,118.5,133.5,115.5,145.5,114.0" stroke="black" stroke-width="1" fill="none" />
<polyline points="138.0,121.5,136.5,133.5,154.5,127.5,165.0,118.5,175.5,121.5,187.5,127.5,193.5,112.5,193.5,118.5,205.5,114.0,210.0,118.5,225.0,121.5,235.5,127.5" stroke="black" stroke-width="1" fill="none" />
<polyline points="178.5,145.5,168.0,133.5" stroke="black" stroke-width="1" fill="none" />
<polyline points="132.0,133.5,120.0,132.0,105.0,142.5,105.0,157.5,90.0,160.5,78.0,157.5" stroke="black" stroke-width="1" fill="none" />
<polyline points="69.0,138.0,81.0,133.5,96.0,129.0,108.0,124.5,120.0,114.0,132.0,123.0" stroke="black" stroke-width="1" fill="none" />
<polyline points="111.0,88.5,99.0,90.0" stroke="black" stroke-width="1" fill="none" />
<polyline points="126.0,64.5,135.0,78.0" stroke="black" stroke-width="1" fill="none" />
<polyline points="141.0,52.5,153.0,51.0,165.0,42.0,177.0,37.5,169.5,39.0,153.0,51.0,157.5,70.5,153.0,78.0,142.5,84.0,135.0,94.5,118.5,106.5,102.0,118.5,87.0,130.5,88.5,135.0,91.5,148.5,88.5,162.0,84.0,174.0,64.5,187.5,72.0,186.0,84.0,180.0,96.0,180.0" stroke="black" stroke-width="1" fill="none" />
<polyline points="90.0,171.0,82.5,171.0,96.0,162.0,96.0,150.0,102.0,138.0,94.5,130.5,111.0,129.0,109.5,123.0,121.5,112.5,135.0,102.0,133.5,96.0,121.5,103.5,109.5,114.0,97.5,121.5,85.5,132.0,73.5,132.0,61.5,138.0,54.0,151.5,46.5,147.0,42.0,163.5,49.5,154.5,57.0,142.5,75.0,138.0,85.5,121.5,105.0,109.5,115.5,97.5,103.5,111.0,91.5,118.5,79.5,123.0,67.5,127.5" stroke="black" stroke-width="1" fill="none" />
<polyline points="126.0,175.5,115.5,193.5,103.5,207.0,121.5,208.5,126.0,196.5,124.5,184.5,130.5,172.5" stroke="black" stroke-width="1" fill="none" />
<polyline points="117.0,235.5,105.0,231.0,97.5,229.5,91.5,217.5,112.5,199.5,105.0,192.0,114.0,178.5,126.0,175.5,132.0,156.0,142.5,144.0,147.0,129.0,151.5,127.5,159.0,115.5,156.0,106.5,169.5,96.0,162.0,79.5,165.0,67.5" stroke="black" stroke-width="1" fill="none" />
<polyline points="172.5,42.0,181.5,37.5,193.5,34.5,205.5,27.0,217.5,22.5" stroke="black" stroke-width="1" fill="none" />
<polyline points="216.0,16.5,204.0,15.0,192.0,15.0" stroke="black" stroke-width="1" fill="none" />
<polyline points="225.0,31.5,231.0,43.5,238.5,42.0,231.0,54.0,237.0,63.0,228.0,76.5,220.5,88.5,217.5,100.5,220.5,111.0,222.0,127.5,220.5,139.5,216.0,145.5,223.5,157.5,232.5,157.5,244.5,156.0" stroke="black" stroke-width="1" fill="none" />
<polyline points="222.0,163.5,216.0,162.0,210.0,156.0,211.5,144.0,207.0,135.0,205.5,123.0,204.0,120.0,201.0,117.0,207.0,111.0,189.0,97.5,204.0,84.0,201.0,67.5,213.0,66.0,213.0,54.0" stroke="black" stroke-width="1" fill="none" />
<polyline points="226.5,36.0,238.5,37.5" stroke="black" stroke-width="1" fill="none" />
<polyline points="249.0,24.0,279.0,36.0,295.5,48.0,310.5,60.0,316.5,72.0,327.0,84.0,333.0,96.0,337.5,111.0,345.0,127.5,349.5,139.5" stroke="black" stroke-width="1" fill="none" />
<polyline points="256.5,19.5,285.0,31.5,304.5,43.5,321.0,55.5,333.0,67.5,343.5,79.5,352.5,91.5,361.5,103.5,367.5,115.5,373.5,127.5,378.0,139.5,381.0,151.5,384.0,163.5,385.5,175.5,387.0,187.5,387.0,199.5,387.0,211.5,385.5,223.5,384.0,235.5,381.0,247.5,376.5,259.5,372.0,271.5,366.0,283.5,360.0,295.5,352.5,307.5,343.5,319.5,331.5,331.5,318.0,343.5,303.0,355.5,282.0,367.5,250.5,379.5" stroke="black" stroke-width="1" fill="none" />
<polyline points="186.0,90.0,174.0,100.5,160.5,90.0,148.5,93.0,145.5,79.5,135.0,75.0,130.5,84.0,118.5,85.5,111.0,69.0,117.0,54.0" stroke="black" stroke-width="1" fill="none" />
<polyline points="114.0,40.5,102.0,46.5" stroke="black" stroke-width="1" fill="none" />
<polyline points="76.5,72.0,64.5,75.0,58.5,90.0,63.0,88.5,81.0,81.0,82.5,73.5,91.5,61.5,102.0,54.0,118.5,43.5,126.0,39.0,144.0,27.0" stroke="black" stroke-width="1" fill="none" />
</svg>