<svg xmlns="http://www.w3.org/2000/svg" height="405px" width="399px" version="1.1"><polyline points="264.5,11.0,274.5,15.0,283.0,19.0,292.0,23.0,299.0,27.0,305.5,31.0,311.5,35.0,317.0,39.0,322.5,43.0,327.5,47.0,332.0,51.0,336.5,55.0,340.0,59.0,344.0,63.0,348.0,67.0,351.5,71.0,354.5,75.0,358.0,79.0,361.0,83.0,364.0,87.0,366.0,91.0,369.0,95.0,371.5,99.0,373.5,103.0,376.0,107.0,377.5,111.0,380.0,115.0,382.0,119.0,383.5,123.0,385.0,127.0,387.0,131.0,388.0,135.0,389.5,139.0,391.0,143.0,392.0,147.0,393.0,151.0,394.0,155.0,395.0,159.0,396.0,163.0,396.5,167.0,397.0,171.0,397.5,175.0,398.0,179.0,398.5,183.0,398.5,187.5,398.5,191.5" stroke="black" stroke-width="1" fill="none" />
<polyline points="398.5,212.0,398.5,214.5,398.5,218.5,398.5,223.0,398.0,227.0,397.5,231.0,396.5,235.0,396.5,239.0,396.0,243.0,394.5,247.0,394.0,251.0,393.0,255.0,392.0,259.0,390.5,263.0,389.5,267.0,388.0,271.0,386.5,275.0,384.5,279.0,383.5,283.0,381.5,287.0,379.5,291.0,377.5,295.0,375.5,299.0,373.5,303.0,371.0,307.0,368.5,311.0,366.0,315.0,363.5,319.0,360.5,323.0,357.5,327.0,354.5,331.0,351.0,335.0,347.5,339.0,343.5,343.0,340.0,347.0,336.0,351.0,331.0,355.0,326.5,359.0,322.0,363.0,316.5,367.0,310.5,371.0,304.5,375.0,298.0,379.0,291.0,383.0,282.5,387.0,273.5,391.0" stroke="black" stroke-width="1" fill="none" />
<polyline points="228.5,373.5,224.5,370.5" stroke="black" stroke-width="1" fill="none" />
<polyline points="224.0,366.5,228.0,364.0,230.0,365.0,231.0,369.0,229.0,373.0" stroke="black" stroke-width="1" fill="none" />
<polyline points="235.0,373.5,231.0,377.0,227.0,377.5,223.0,376.0,219.0,370.5" stroke="black" stroke-width="1" fill="none" />
<polyline points="213.5,370.5,209.5,375.5,205.5,377.0,201.5,376.5,197.5,373.0" stroke="black" stroke-width="1" fill="none" />
<polyline points="197.0,371.0,201.0,370.5,205.0,373.0" stroke="black" stroke-width="1" fill="none" />
<polyline points="208.5,369.5,206.5,363.5,208.5,359.5,207.0,355.5,205.5,354.5,201.5,357.0" stroke="black" stroke-width="1" fill="none" />
<polyline points="203.5,354.5,201.5,358.5,202.0,362.5,204.0,364.0,208.0,362.0" stroke="black" stroke-width="1" fill="none" />
<polyline points="205.0,368.0,201.0,367.0,197.0,362.5" stroke="black" stroke-width="1" fill="none" />
<polyline points="196.5,356.5,200.5,351.5,204.5,350.5,208.5,351.0,212.5,354.0" stroke="black" stroke-width="1" fill="none" />
<polyline points="207.5,351.0,213.0,355.0,214.5,359.0,214.5,363.0,214.5,367.0,213.5,371.0,210.5,375.0" stroke="black" stroke-width="1" fill="none" />
<polyline points="198.0,374.0,198.5,370.0" stroke="black" stroke-width="1" fill="none" />
<polyline points="183.5,363.5,179.5,358.5" stroke="black" stroke-width="1" fill="none" />
<polyline points="180.0,356.5,184.0,354.5" stroke="black" stroke-width="1" fill="none" />
<polyline points="184.0,354.5,187.0,358.5,185.5,362.5" stroke="black" stroke-width="1" fill="none" />
<polyline points="187.5,367.5,183.5,372.5,179.5,370.0,175.5,370.5" stroke="black" stroke-width="1" fill="none" />
<polyline points="176.0,370.0,176.5,374.0" stroke="black" stroke-width="1" fill="none" />
<polyline points="176.0,373.0,180.0,376.0,184.0,376.5,188.0,375.0" stroke="black" stroke-width="1" fill="none" />
<polyline points="186.5,370.0,187.5,366.5,183.5,367.5,179.5,366.5,175.5,362.5" stroke="black" stroke-width="1" fill="none" />
<polyline points="175.0,355.5,179.0,351.0,183.0,350.0,187.0,350.5,191.0,353.5" stroke="black" stroke-width="1" fill="none" />
<polyline points="187.5,351.0,191.5,355.0,193.0,359.0,193.0,363.0,192.5,367.0,191.5,371.0,188.0,375.0" stroke="black" stroke-width="1" fill="none" />
<polyline points="180.5,362.0,180.0,358.0,183.0,354.0" stroke="black" stroke-width="1" fill="none" />
<polyline points="180.0,350.5,175.5,354.5,174.5,358.5,175.5,362.5,178.5,366.5" stroke="black" stroke-width="1" fill="none" />
<polyline points="165.0,375.5,161.5,375.0,161.5,371.0,161.5,367.0,161.5,363.0,161.5,359.0,159.0,358.5,155.0,359.0" stroke="black" stroke-width="1" fill="none" />
<polyline points="163.5,349.5,159.5,353.5,154.5,357.5,155.0,356.5,159.0,354.0,163.0,350.0,167.0,350.0" stroke="black" stroke-width="1" fill="none" />
<polyline points="166.5,350.0,167.0,354.0,167.0,358.0,167.0,362.0,167.0,366.0,167.0,370.0,167.0,374.0" stroke="black" stroke-width="1" fill="none" />
<polyline points="196.0,404.5,192.0,404.5,188.0,404.5,184.0,404.5,179.5,404.0,175.5,404.0,171.5,403.5,167.5,402.5,163.5,402.0,159.5,401.5,155.5,400.5,151.5,399.5,147.5,398.5,143.5,397.0,139.5,396.5,135.5,395.0,131.5,393.5,127.5,392.0,123.5,390.0,119.5,388.0,115.5,386.5,111.5,384.5,107.5,382.5,103.5,380.5,99.5,378.0,95.5,375.5,91.5,373.0,87.5,370.5,83.5,367.5,79.5,364.5,75.5,361.5,71.5,358.0,67.5,354.5,63.5,351.0,59.5,346.5,55.5,342.5,51.5,339.0,47.5,334.0,43.5,329.0,39.5,323.5,35.5,318.0,31.5,312.0,27.5,305.5,23.5,298.5,19.5,291.0" stroke="black" stroke-width="1" fill="none" />
<polyline points="25.0,264.0,29.0,274.5,33.0,283.5,37.0,291.0,41.0,298.5,45.0,305.0,49.0,311.0,53.0,316.5,57.0,321.5,61.0,326.0,65.0,330.5,69.0,335.0,73.0,339.0,77.0,342.5,81.0,346.0,85.0,349.5,89.0,352.5,93.0,355.5,97.0,358.0,101.0,361.0,105.0,363.5,109.0,366.0,113.0,368.0,117.0,370.0,121.0,372.0,125.0,374.0,129.0,376.0,133.0,377.5,137.0,379.0,141.0,380.5,145.0,381.5,149.0,383.0,153.0,384.0,157.0,385.0,161.0,386.0,165.0,386.5,169.0,387.5,173.0,388.0,177.0,388.5,181.0,389.0,185.0,389.5,189.0,389.5,193.0,389.5,197.0,390.0,201.0,390.0,205.0,389.5,209.0,389.5,213.0,389.5,217.0,389.0,221.0,388.5,225.0,388.0,229.0,387.0,233.0,386.5,237.0,386.0,241.0,385.0,245.0,384.0,249.0,383.0,253.0,381.5,257.0,380.5,261.0,379.0,265.0,377.5,269.0,375.5,273.0,374.0,277.0,372.0,281.0,370.0,285.0,368.0,289.0,365.5,293.0,363.5,297.0,361.0,301.0,358.0,305.0,355.5,309.0,352.5,313.0,349.0,317.0,346.0,321.0,342.5,325.0,339.0,329.0,335.0,333.0,330.5,337.0,326.0,341.0,321.5,345.0,316.0,349.0,310.5,353.0,304.5,357.0,298.0,361.0,291.0,365.0,283.0,369.0,274.0,373.0,263.5" stroke="black" stroke-width="1" fill="none" />
<polyline points="387.0,273.5,383.0,283.5,379.0,292.0,375.0,299.5,371.0,307.0,367.0,313.0,363.0,319.5,359.0,325.0,355.0,330.0,351.0,335.0,347.0,340.0,343.0,344.0,339.0,348.0,335.0,351.5,331.0,355.0,327.0,359.0,323.0,362.0,319.0,365.0,315.0,368.0,311.0,371.0,307.0,373.5,303.0,376.0,299.0,378.5,295.0,381.0,291.0,383.0,287.0,385.0,283.0,386.5,279.0,389.0,275.0,390.5,271.0,392.0,267.0,393.5,263.0,395.0,259.0,396.5,255.0,397.5,251.0,398.5,247.0,399.5,243.0,400.5,239.0,401.5,235.0,402.0,231.0,402.5,227.0,403.5,223.0,404.0,219.0,404.0,214.5,404.5,210.5,404.5,206.5,404.5,202.5,405.0" stroke="black" stroke-width="1" fill="none" />
<polyline points="225.0,372.0,224.0,368.0,227.0,364.0" stroke="black" stroke-width="1" fill="none" />
<polyline points="224.5,361.0,228.5,360.0,232.5,361.0,236.5,366.5" stroke="black" stroke-width="1" fill="none" />
<polyline points="231.5,361.0,235.5,365.0,236.5,369.0,235.5,373.0,230.5,377.0" stroke="black" stroke-width="1" fill="none" />
<polyline points="233.5,357.5,229.5,355.0,225.5,356.0,224.0,359.0,227.0,355.0" stroke="black" stroke-width="1" fill="none" />
<polyline points="226.0,351.0,220.0,355.0,218.5,359.0,218.0,363.0,218.0,367.0,219.0,371.0,221.0,375.0" stroke="black" stroke-width="1" fill="none" />
<polyline points="219.0,357.0,223.0,352.5,227.0,351.0,231.0,351.5,235.0,353.5" stroke="black" stroke-width="1" fill="none" />
<polyline points="236.0,355.5,231.0,351.5" stroke="black" stroke-width="1" fill="none" />
<polyline points="202.5,350.5,197.5,354.5,196.0,358.5,197.0,362.5,199.5,366.5,203.0,372.5" stroke="black" stroke-width="1" fill="none" />
<polyline points="228.5,322.5,232.5,322.0,236.5,321.0,240.5,319.0,244.5,317.0,248.5,315.0,252.5,312.5,256.5,310.0,260.5,307.0,264.5,304.0" stroke="black" stroke-width="1" fill="none" />
<polyline points="277.0,293.5,281.0,289.5,285.0,285.5,288.5,281.5,291.5,277.5,294.5,273.5,297.0,269.5,299.5,265.5,302.0,261.5,304.0,257.5,306.0,253.5,305.5,254.5,301.5,262.0,297.5,268.5,293.5,274.5,289.5,280.0,285.5,284.5,281.5,289.0,277.5,293.0,273.5,296.5,269.5,295.5,265.5,294.0,261.5,292.0,257.5,290.5,253.5,289.0,249.5,286.5" stroke="black" stroke-width="1" fill="none" />
<polyline points="249.0,286.0,253.0,277.0" stroke="black" stroke-width="1" fill="none" />
<polyline points="240.5,282.5,243.0,278.5,245.0,274.5,246.5,270.5,247.5,266.5,248.5,262.5,249.0,258.5,249.0,254.5,248.0,251.5,244.0,251.5,240.0,251.5,236.0,251.5,232.0,251.5,228.0,251.5,224.0,251.5,220.0,251.5,216.0,251.5,212.0,251.5,208.0,251.5,204.0,253.5" stroke="black" stroke-width="1" fill="none" />
<polyline points="205.5,251.5,204.0,255.5,204.5,259.5,204.5,263.5,204.5,267.5,205.0,271.5,205.0,275.5,206.5,278.0,210.5,278.0,214.5,278.5,218.5,279.0,222.5,279.0,226.5,279.5,230.5,280.5,234.5,281.5,238.5,283.0,242.5,279.5" stroke="black" stroke-width="1" fill="none" />
<polyline points="245.5,292.5,243.0,296.5,240.5,300.5,238.0,304.5,235.5,308.5,233.0,312.5,230.5,316.5,228.0,320.5,228.5,320.0,232.5,313.0,236.5,306.5,240.5,300.0,244.5,294.0,248.5,294.0,252.5,295.5,256.5,297.0,260.5,298.5,264.5,300.0" stroke="black" stroke-width="1" fill="none" />
<polyline points="247.5,293.5,257.5,297.5,266.5,302.0,262.0,306.0,256.5,310.0,250.0,314.0,242.5,318.0" stroke="black" stroke-width="1" fill="none" />
<polyline points="219.0,322.0,221.0,318.0,223.5,314.0,226.0,310.0,228.0,306.0,230.5,302.0,232.5,298.0,235.0,294.0,235.5,290.0,233.5,289.0,229.5,288.0,225.5,287.0,221.5,286.0,217.5,285.5,213.5,285.0,209.5,284.5,205.5,285.0" stroke="black" stroke-width="1" fill="none" />
<polyline points="205.5,285.0,205.5,289.0,205.5,293.0,206.0,297.0,206.0,301.0,206.0,305.0,206.5,309.0,206.5,313.0,207.0,317.0,207.0,321.0,208.0,325.0,210.5,325.5,214.5,325.0,218.5,322.5,222.5,315.5,226.5,308.5,230.5,301.5,234.5,294.5" stroke="black" stroke-width="1" fill="none" />
<polyline points="257.5,253.5,261.5,252.0,265.5,252.0,269.5,252.0,273.5,251.5,277.5,251.5,281.5,251.5,285.5,251.5,289.5,251.5,293.5,251.5,297.5,251.5,301.5,251.0,305.5,251.0" stroke="black" stroke-width="1" fill="none" />
<polyline points="303.0,218.5,299.0,223.5,295.0,223.5,291.0,219.5" stroke="black" stroke-width="1" fill="none" />
<polyline points="290.5,210.5,294.5,206.0,298.5,206.0,302.5,208.5" stroke="black" stroke-width="1" fill="none" />
<polyline points="298.5,206.0,303.0,210.0,303.5,214.0,303.5,218.0,301.0,222.0" stroke="black" stroke-width="1" fill="none" />
<polyline points="309.5,226.5,305.5,229.5,301.5,231.0,297.5,231.5,293.5,231.0,289.5,230.0,285.5,227.5,281.5,222.0" stroke="black" stroke-width="1" fill="none" />
<polyline points="281.0,207.5,285.0,201.5,289.0,199.0,293.0,198.0,297.0,197.5,301.0,198.0,305.0,199.5,309.0,202.0" stroke="black" stroke-width="1" fill="none" />
<polyline points="302.0,198.5,309.0,202.5,312.0,206.5,313.0,210.5,313.0,214.5,313.0,218.5,312.0,222.5,309.5,226.5,303.0,230.5" stroke="black" stroke-width="1" fill="none" />
<polyline points="291.5,221.5,290.5,217.5,290.0,213.5,291.0,209.5,295.0,205.5" stroke="black" stroke-width="1" fill="none" />
<polyline points="292.0,198.0,284.5,202.0,281.5,206.0,280.5,210.0,280.5,214.0,280.5,218.0,281.5,222.0,283.5,226.0,288.5,230.0" stroke="black" stroke-width="1" fill="none" />
<polyline points="261.0,223.5,257.0,223.5,253.0,220.0" stroke="black" stroke-width="1" fill="none" />
<polyline points="243.5,221.5,247.5,227.5,251.5,230.0,255.5,231.0,259.5,231.5,263.5,231.0,267.5,229.5,271.5,226.5" stroke="black" stroke-width="1" fill="none" />
<polyline points="264.5,208.5,260.5,205.5,256.5,206.0,252.5,210.0" stroke="black" stroke-width="1" fill="none" />
<polyline points="257.0,205.5,253.0,209.5,252.0,213.5,252.5,217.5,253.5,221.5" stroke="black" stroke-width="1" fill="none" />
<polyline points="263.5,222.0,265.0,218.0,265.5,214.0,265.0,210.0,261.0,206.0" stroke="black" stroke-width="1" fill="none" />
<polyline points="264.0,198.5,271.0,202.5,274.0,206.5,275.0,210.5,275.5,214.5,275.0,218.5,274.0,222.5,271.5,226.5,265.0,230.5" stroke="black" stroke-width="1" fill="none" />
<polyline points="258.0,252.0,258.0,256.0,257.5,260.0,257.0,264.0,256.0,268.0,255.0,272.0,253.5,276.0,252.0,280.0,250.0,284.0,251.0,288.0,260.5,292.0,270.5,296.0" stroke="black" stroke-width="1" fill="none" />
<polyline points="297.0,323.0,296.5,327.0" stroke="black" stroke-width="1" fill="none" />
<polyline points="298.0,323.5,302.0,328.5,306.0,327.5,305.5,329.5,302.5,333.5" stroke="black" stroke-width="1" fill="none" />
<polyline points="294.5,333.0,290.5,330.5" stroke="black" stroke-width="1" fill="none" />
<polyline points="289.0,330.0,294.5,334.0,293.5,338.0,296.0,336.5,300.0,335.5" stroke="black" stroke-width="1" fill="none" />
<polyline points="293.0,329.0,289.0,330.0" stroke="black" stroke-width="1" fill="none" />
<polyline points="298.5,323.0,300.0,327.0,304.5,330.5" stroke="black" stroke-width="1" fill="none" />
<polyline points="341.0,289.5,337.0,282.5,333.0,279.5,329.0,277.5" stroke="black" stroke-width="1" fill="none" />
<polyline points="329.0,276.0,333.0,272.5,337.0,274.5,341.0,275.5,345.0,275.5,349.0,275.0,353.0,274.5,351.5,278.5" stroke="black" stroke-width="1" fill="none" />
<polyline points="350.5,279.5,346.5,281.0,342.5,282.0" stroke="black" stroke-width="1" fill="none" />
<polyline points="343.5,281.0,344.5,285.0,345.5,289.0,344.0,293.0" stroke="black" stroke-width="1" fill="none" />
<polyline points="342.5,292.5,340.0,288.5,338.0,284.5,334.0,280.5,329.0,276.5,331.0,272.5" stroke="black" stroke-width="1" fill="none" />
<polyline points="342.0,259.5,352.0,263.5,351.5,267.5,352.0,269.0,356.0,268.0,360.0,257.0" stroke="black" stroke-width="1" fill="none" />
<polyline points="358.5,251.5,360.5,255.5,359.0,259.5,358.0,263.5,356.5,267.5" stroke="black" stroke-width="1" fill="none" />
<polyline points="353.0,256.5,356.0,252.5,359.0,251.5,355.0,255.5,351.0,256.0,347.0,254.5,343.0,253.0,339.0,254.5" stroke="black" stroke-width="1" fill="none" />
<polyline points="340.0,252.5,338.5,256.5,341.5,259.0,345.5,260.5,349.5,262.0" stroke="black" stroke-width="1" fill="none" />
<polyline points="363.5,246.5,364.0,242.5,362.0,241.0,358.0,240.0,354.0,239.0,350.0,238.0,346.0,237.0" stroke="black" stroke-width="1" fill="none" />
<polyline points="345.0,237.0,344.0,241.0,344.5,243.0,348.5,244.0,352.5,245.0,356.5,246.0,360.5,247.0" stroke="black" stroke-width="1" fill="none" />
<polyline points="349.5,233.5,347.0,229.5,346.5,225.5,347.5,221.5,349.5,217.5,348.5,211.5,349.0,207.5,354.0,203.5,356.5,202.0,352.5,204.5,348.5,208.0" stroke="black" stroke-width="1" fill="none" />
<polyline points="357.5,208.0,352.0,212.0,352.0,212.0,356.0,209.5,360.0,210.5,364.0,212.0,368.0,210.0" stroke="black" stroke-width="1" fill="none" />
<polyline points="362.5,205.5,361.0,203.0,365.0,200.5,361.0,200.5" stroke="black" stroke-width="1" fill="none" />
<polyline points="363.5,200.0,365.0,204.0" stroke="black" stroke-width="1" fill="none" />
<polyline points="369.0,208.5,369.5,204.5,369.5,200.5,369.5,196.5,368.5,194.0,364.5,193.5,360.5,193.5,356.5,193.5,352.5,193.5,348.5,195.5" stroke="black" stroke-width="1" fill="none" />
<polyline points="359.5,187.5,361.0,185.5,360.5,181.5,361.0,177.5,360.5,178.0" stroke="black" stroke-width="1" fill="none" />
<polyline points="363.0,178.0,364.0,182.0,364.5,186.0" stroke="black" stroke-width="1" fill="none" />
<polyline points="357.0,186.0,356.5,182.0,356.0,179.0,352.0,179.0" stroke="black" stroke-width="1" fill="none" />
<polyline points="352.5,178.5,352.5,182.5,353.0,186.5,349.5,190.0,353.5,188.0" stroke="black" stroke-width="1" fill="none" />
<polyline points="367.0,187.5,369.0,185.5,368.0,181.5,368.0,177.5,367.5,173.5,366.5,171.0,362.5,171.0,358.5,171.0,354.5,172.0,350.5,172.5,346.5,174.5" stroke="black" stroke-width="1" fill="none" />
<polyline points="348.0,172.5,347.0,176.5,347.5,180.5,348.0,184.5,348.5,188.5,348.5,195.5,349.0,199.5,352.5,199.5,356.5,200.0" stroke="black" stroke-width="1" fill="none" />
<polyline points="358.5,208.0,362.0,212.0" stroke="black" stroke-width="1" fill="none" />
<polyline points="363.5,218.5,367.5,222.5,368.0,226.5,367.0,230.5,363.0,234.5" stroke="black" stroke-width="1" fill="none" />
<polyline points="358.5,230.5,360.5,226.5,363.0,224.5,359.0,229.0,355.0,234.0,351.0,234.0,347.0,229.0" stroke="black" stroke-width="1" fill="none" />
<polyline points="347.0,222.0,351.0,216.5,355.0,216.0,355.0,220.0,351.0,224.0,352.5,228.0,354.0,227.0,358.0,220.0,362.0,218.0,366.0,219.5" stroke="black" stroke-width="1" fill="none" />
<polyline points="363.0,224.5,362.0,228.5,360.5,232.5,362.0,235.0,366.0,232.0" stroke="black" stroke-width="1" fill="none" />
<polyline points="354.5,226.5,356.5,222.5,359.5,218.5" stroke="black" stroke-width="1" fill="none" />
<polyline points="365.5,164.0,364.5,160.0,363.0,158.5,359.0,158.5,355.0,158.5,351.0,158.0" stroke="black" stroke-width="1" fill="none" />
<polyline points="342.5,156.5,346.5,153.5,350.5,150.0,354.5,147.0,358.5,144.0,354.5,147.0,349.0,151.0,344.0,155.0,343.0,159.0,344.5,163.0,346.5,163.5,350.5,163.5,354.5,164.0,358.5,164.0,362.5,164.5" stroke="black" stroke-width="1" fill="none" />
<polyline points="359.0,151.0,355.0,154.0,351.0,156.5,352.0,156.0,358.0,152.0,361.0,148.0,360.0,144.0" stroke="black" stroke-width="1" fill="none" />
<polyline points="356.0,140.0,352.0,141.5,348.0,143.0,344.0,145.0,340.0,146.5,338.5,145.5,337.0,141.5,344.5,137.5,354.5,133.5" stroke="black" stroke-width="1" fill="none" />
<polyline points="348.0,130.0,344.0,132.0,340.0,134.0,336.0,136.5,334.0,136.0,332.5,132.0,333.5,128.0,336.0,124.0,336.5,122.5,332.5,130.0" stroke="black" stroke-width="1" fill="none" />
<polyline points="329.0,124.5,335.5,120.5,334.0,121.5,330.0,123.5,326.0,120.5" stroke="black" stroke-width="1" fill="none" />
<polyline points="326.0,119.5,330.0,117.0,334.0,115.0,338.0,113.0,342.0,110.5,346.0,114.0,346.0,114.5,344.5,118.5,342.5,122.5,342.0,126.5,344.5,118.5" stroke="black" stroke-width="1" fill="none" />
<polyline points="349.0,122.5,341.5,126.0,345.5,124.0,349.5,122.5" stroke="black" stroke-width="1" fill="none" />
<polyline points="350.0,123.0,352.0,127.0,345.5,131.0,338.0,135.0" stroke="black" stroke-width="1" fill="none" />
<polyline points="336.5,141.0,340.5,139.5,344.5,137.5,348.5,136.5,352.5,134.5,356.5,135.5,357.0,137.0,353.0,141.0,343.5,145.0" stroke="black" stroke-width="1" fill="none" />
<polyline points="372.5,140.5,368.5,130.5,364.5,122.0,360.5,113.5,356.5,107.0,352.5,100.5,348.5,94.5,344.5,89.0,340.5,84.0,336.5,79.5,332.5,75.0,328.5,70.5,324.5,67.0,320.5,63.0,316.5,59.5,312.5,56.5,308.5,53.5,304.5,50.5,300.5,47.5,296.5,45.0,292.5,42.5,288.5,40.5,284.5,38.0,280.5,36.0,276.5,34.0,272.5,32.5,268.5,30.5,264.5,29.0,260.5,27.5,256.5,26.0,252.5,25.0,248.5,23.5,244.5,22.5,240.5,21.5,236.5,20.5,232.5,19.5,228.5,19.0,224.5,18.5,220.5,18.0,216.5,17.5,212.5,17.5,208.5,17.0,204.5,17.0,200.5,16.5,196.5,16.5,192.5,17.0,188.5,17.0,184.5,17.5,180.5,17.5,176.5,18.0,172.5,19.0,168.5,19.5,164.5,20.0,160.5,21.0,156.5,21.5,152.5,22.5,148.5,24.0,144.5,25.0,140.5,26.5,136.5,28.0,132.5,29.0,128.5,31.0,124.5,32.5,120.5,34.5,116.5,36.5,112.5,38.5,108.5,40.5,104.5,43.0,100.5,45.5,96.5,48.0,92.5,51.0,88.5,54.0,84.5,57.0,80.5,60.5,76.5,64.0,72.5,67.5,68.5,71.5,64.5,76.0,60.5,80.5,56.5,85.0,52.5,90.0,48.5,95.5,44.5,101.5,40.5,108.0,36.5,115.0,32.5,123.0,28.5,132.5,24.5,143.0" stroke="black" stroke-width="1" fill="none" />
<polyline points="18.0,134.0,22.0,124.5,26.0,115.5,30.0,108.0,34.0,101.0,38.0,94.5,42.0,88.5,46.0,83.0,50.0,78.0,54.0,73.5,58.0,68.5,62.0,64.5,66.0,60.5,70.0,57.0,74.0,53.0,78.0,50.0,82.0,47.0,86.0,44.0,90.0,41.0,94.0,38.0,98.0,35.5,102.0,33.0,106.0,31.0,110.0,28.5,114.0,26.5,118.0,25.0,122.0,23.0,126.0,21.0,130.0,19.5,134.0,18.0,138.0,16.5,142.0,15.5,146.0,14.0,150.0,13.0,154.0,12.0,158.0,11.0,162.0,10.0,166.0,9.0,170.0,8.5,174.0,8.5,178.0,7.5,182.0,7.0,186.0,7.0,190.0,6.5,194.0,6.5,198.0,6.5,202.0,6.5,206.0,6.5,210.0,6.5,214.0,7.0,218.0,7.0,222.0,7.5,226.0,8.5,230.0,9.0,234.0,9.5,238.0,10.5,242.0,11.0,246.0,12.0,250.0,13.0,254.0,14.5,258.0,15.5,262.0,16.5,266.0,18.5,270.0,20.0,274.0,21.5,278.0,23.0,282.0,25.0,286.0,27.0,290.0,29.0,294.0,31.5,298.0,33.5,302.0,36.0,306.0,38.5,310.0,41.0,314.0,44.5,318.0,47.5,322.0,50.5,326.0,54.0,330.0,57.5,334.0,61.5,338.0,65.0,342.0,69.5,346.0,74.0,350.0,79.0,354.0,84.0,358.0,89.5,362.0,95.5,366.0,102.0,370.0,109.0,374.0,116.5,378.0,126.0,382.0,136.5" stroke="black" stroke-width="1" fill="none" />
<polyline points="381.0,117.0,377.0,109.5,373.0,101.5,369.0,95.0,365.0,88.5,361.0,82.5,357.0,77.5,353.0,72.5,349.0,68.0,345.0,63.5,341.0,59.5,337.0,55.5,333.0,51.5,329.0,48.0,325.0,45.0,321.0,41.5,317.0,38.5,313.0,36.0,309.0,33.0,305.0,30.5,301.0,28.0,297.0,25.5,293.0,23.5,289.0,21.0,285.0,19.5,281.0,17.5,277.0,15.5,273.0,14.0,269.0,12.5,265.0,11.0,261.0,9.5,257.0,8.5,253.0,7.0,249.0,6.5,245.0,5.0,241.0,4.5,237.0,3.5,233.0,3.0,229.0,2.5,225.0,1.5,221.0,1.0,217.0,0.5,212.5,1.0,208.5,1.0,204.5,0.5" stroke="black" stroke-width="1" fill="none" />
<polyline points="192.5,1.0,188.5,1.0,184.5,1.0,180.0,1.0,176.0,1.5,172.0,1.5,168.0,2.5,164.0,3.5,160.0,4.0,156.0,5.0,152.0,6.0,148.0,7.0,144.0,8.0,140.0,9.0,136.0,10.5,132.0,12.0,128.0,13.5,124.0,15.0,120.0,16.5,116.0,18.5,112.0,20.5,108.0,22.5,104.0,24.5,100.0,27.0,96.0,29.5,92.0,32.0,88.0,34.5,84.0,37.0,80.0,40.5,76.0,43.5,72.0,46.5,68.0,50.0,64.0,54.0,60.0,58.0,56.0,61.5,52.0,66.0,48.0,70.5,44.0,75.5,40.0,80.5,36.0,86.0,32.0,91.5,28.0,98.5,24.0,105.5,20.0,113.0,16.0,121.5,12.0,132.0" stroke="black" stroke-width="1" fill="none" />
<polyline points="38.5,146.5,42.5,141.5,46.5,139.5,50.5,140.0,54.5,141.5,58.5,144.5" stroke="black" stroke-width="1" fill="none" />
<polyline points="54.5,149.5,50.5,147.0,46.5,146.0,42.5,150.5" stroke="black" stroke-width="1" fill="none" />
<polyline points="43.0,151.5,47.0,155.5,51.0,156.0" stroke="black" stroke-width="1" fill="none" />
<polyline points="58.0,157.5,54.0,161.5,50.0,162.5,46.0,162.0,42.0,160.5,38.0,155.0" stroke="black" stroke-width="1" fill="none" />
<polyline points="38.0,166.5,32.5,170.5,31.5,174.5,30.5,178.5,31.5,182.5,34.5,186.5" stroke="black" stroke-width="1" fill="none" />
<polyline points="31.5,182.0,35.5,187.0,39.5,188.5,43.5,189.0,47.5,187.5,51.5,183.5" stroke="black" stroke-width="1" fill="none" />
<polyline points="44.5,182.0,40.5,182.0,36.5,179.0" stroke="black" stroke-width="1" fill="none" />
<polyline points="36.0,175.5,40.0,173.0,44.0,173.5,48.0,175.5" stroke="black" stroke-width="1" fill="none" />
<polyline points="43.5,173.5,48.0,177.5,46.0,181.5" stroke="black" stroke-width="1" fill="none" />
<polyline points="37.5,181.0,36.0,177.0,39.0,173.0" stroke="black" stroke-width="1" fill="none" />
<polyline points="31.5,173.0,35.5,167.5,39.5,166.5,43.5,166.5,47.5,167.5,51.5,170.0" stroke="black" stroke-width="1" fill="none" />
<polyline points="47.5,167.5,52.0,171.5,53.5,175.5,53.0,179.5,51.5,183.5,47.5,187.5" stroke="black" stroke-width="1" fill="none" />
<polyline points="50.0,204.5,50.5,200.5,48.5,198.5,44.5,198.5,40.5,198.0,36.5,198.0,34.5,197.0,34.5,193.0,32.5,191.0,28.5,192.5" stroke="black" stroke-width="1" fill="none" />
<polyline points="30.5,190.5,28.5,194.5,28.5,198.5,28.5,202.5,28.5,206.5,28.5,210.5,31.0,211.5" stroke="black" stroke-width="1" fill="none" />
<polyline points="33.5,206.5,37.5,204.5,41.5,205.0,45.5,205.0,49.5,205.0" stroke="black" stroke-width="1" fill="none" />
<polyline points="42.5,213.0,43.5,217.0,44.0,221.0,44.0,225.0" stroke="black" stroke-width="1" fill="none" />
<polyline points="40.5,226.5,40.0,224.0,39.5,220.0,39.0,216.0,43.0,213.0,39.0,213.0" stroke="black" stroke-width="1" fill="none" />
<polyline points="33.5,208.5,35.5,204.5" stroke="black" stroke-width="1" fill="none" />
<polyline points="52.0,228.0,53.0,232.0,50.5,236.0,51.0,240.0,53.5,244.0,56.0,248.0,52.0,253.5,53.0,257.5,54.5,261.5,48.5,265.5,40.0,269.5,41.0,273.5,42.5,275.0,46.5,273.5,50.5,272.0,54.5,270.5,58.5,269.0" stroke="black" stroke-width="1" fill="none" />
<polyline points="61.5,271.0,57.5,275.0,54.0,279.0,50.5,283.0,47.5,287.0,48.0,291.0" stroke="black" stroke-width="1" fill="none" />
<polyline points="47.5,288.5,51.5,293.5,55.5,293.5,59.5,293.0,63.5,292.5,67.5,292.0,71.5,291.5" stroke="black" stroke-width="1" fill="none" />
<polyline points="72.0,288.5,68.0,285.5,64.0,281.0" stroke="black" stroke-width="1" fill="none" />
<polyline points="58.5,283.0,54.5,286.5,57.0,284.5,59.0,287.0,55.0,287.5" stroke="black" stroke-width="1" fill="none" />
<polyline points="47.0,287.5,51.0,282.5,55.0,278.0,59.0,273.5,63.0,271.0" stroke="black" stroke-width="1" fill="none" />
<polyline points="63.0,271.5,65.0,275.5,63.5,279.5,65.0,283.5,70.5,286.5,72.5,290.5" stroke="black" stroke-width="1" fill="none" />
<polyline points="60.0,261.0,56.0,252.5,52.0,253.5" stroke="black" stroke-width="1" fill="none" />
<polyline points="55.5,245.5,51.5,242.0" stroke="black" stroke-width="1" fill="none" />
<polyline points="44.5,243.0,40.5,242.5" stroke="black" stroke-width="1" fill="none" />
<polyline points="39.5,241.0,43.5,239.5" stroke="black" stroke-width="1" fill="none" />
<polyline points="32.5,239.5,36.5,237.0,40.5,234.5,44.5,232.0,48.5,229.5,52.5,228.5,45.0,231.5,38.5,235.5,32.5,239.5,33.0,243.5,33.5,245.0,37.5,247.5,41.5,248.0,45.5,249.0,49.5,249.5,53.5,250.5,57.5,255.0,59.0,259.0,60.5,263.0,62.0,267.0,53.0,271.0,42.5,275.0" stroke="black" stroke-width="1" fill="none" />
<polyline points="39.5,269.0,43.5,267.0,47.5,266.0,51.5,264.5" stroke="black" stroke-width="1" fill="none" />
<polyline points="14.0,258.0,18.0,270.0,22.0,280.0,26.0,289.0,30.0,297.0,34.0,303.5,38.0,310.0,42.0,316.5,46.0,321.5,50.0,326.5,54.0,331.5,58.0,336.0,62.0,340.5,66.0,344.5,70.0,348.0,74.0,352.0,78.0,355.0,82.0,358.0,86.0,361.5,90.0,364.5,94.0,367.0,98.0,369.5,102.0,372.0,106.0,374.5,110.0,376.5,114.0,378.5,118.0,380.5,122.0,382.5,126.0,384.5,130.0,386.0,134.0,387.0,138.0,389.0,142.0,390.0,146.0,391.5,150.0,392.5,154.0,393.5,158.0,394.5,162.0,395.5,166.0,396.0,170.0,397.0,174.0,397.0,178.0,398.0,182.0,398.5,186.0,398.5,190.0,399.0,194.0,399.0,198.0,399.0,202.0,399.0,206.0,399.0,210.0,398.5,214.0,398.5,218.0,398.5,222.0,398.0,226.0,397.0,230.0,396.5,234.0,396.0,238.0,395.0,242.0,394.5,246.0,393.5,250.0,392.5,254.0,391.0,258.0,390.0,262.0,388.5,266.0,387.0,270.0,385.5,274.0,384.0,278.0,382.0,282.0,380.5,286.0,378.5,290.0,376.5,294.0,374.0,298.0,371.5,302.0,369.0,306.0,366.5,310.0,364.0,314.0,361.0,318.0,358.0,322.0,354.5,326.0,351.0,330.0,347.5,334.0,343.5,338.0,339.5,342.0,335.5,346.0,330.5,350.0,326.0,354.0,321.0,358.0,315.5,362.0,309.0,366.0,302.5,370.0,295.5,374.0,288.0,378.0,278.5,382.0,268.5" stroke="black" stroke-width="1" fill="none" />
<polyline points="271.5,202.5,267.5,199.5,263.5,198.0,259.5,197.5,255.5,198.0,251.5,199.0,247.5,201.0,243.5,206.5" stroke="black" stroke-width="1" fill="none" />
<polyline points="238.0,206.5,234.0,206.5,230.0,207.0" stroke="black" stroke-width="1" fill="none" />
<polyline points="230.5,206.5,230.0,210.5,230.0,214.5,230.0,218.5,230.0,222.5,230.0,226.5,229.0,230.5" stroke="black" stroke-width="1" fill="none" />
<polyline points="209.0,220.5,208.5,216.5,206.0,215.5,202.0,215.5,198.0,215.5,194.0,215.5,190.0,216.0" stroke="black" stroke-width="1" fill="none" />
<polyline points="190.5,215.5,190.0,219.5,191.0,222.0,195.0,222.5,199.0,222.5,203.0,222.5,207.0,222.0" stroke="black" stroke-width="1" fill="none" />
<polyline points="219.5,207.0,220.0,211.0,220.0,215.0,220.0,219.0,220.0,223.0,220.0,227.0,220.5,231.0,225.0,231.0,229.0,230.5" stroke="black" stroke-width="1" fill="none" />
<polyline points="239.5,205.0,240.0,201.0,238.0,198.5,234.0,198.5,230.0,198.5,226.0,198.5,222.0,198.5,218.0,198.5,214.0,198.5,210.0,198.5" stroke="black" stroke-width="1" fill="none" />
<polyline points="210.0,198.5,209.5,202.5,211.5,206.5,213.5,206.5,217.5,206.5" stroke="black" stroke-width="1" fill="none" />
<polyline points="199.5,180.5,203.5,180.5,207.5,180.5,211.5,180.5,215.5,180.5,219.5,180.5,223.5,180.5,227.5,180.5,231.5,180.5,235.5,180.5,239.5,177.0,243.5,173.0,247.5,169.0,251.5,165.0,255.5,161.0,259.5,157.0,263.5,153.0,267.5,149.0,271.5,145.0,275.5,141.0,274.5,147.0,270.5,151.0,266.5,155.0,262.5,159.0,258.5,163.0,255.0,167.0,251.0,171.0,247.0,175.0,243.0,178.5,247.0,175.0,251.0,171.0,255.0,166.5,259.0,162.5,263.0,159.0,267.0,154.5,271.0,150.5,275.0,146.5,279.0,143.5,283.0,147.0,287.0,151.5,291.0,155.5,295.0,160.5,299.0,165.0,303.0,169.0,307.0,173.5,311.0,178.0" stroke="black" stroke-width="1" fill="none" />
<polyline points="307.0,179.5,303.0,179.5,299.0,179.5,295.0,179.5,291.0,179.5,287.0,179.5,283.0,179.5,279.0,179.5,275.0,179.5,271.0,179.5,267.0,179.5,263.0,179.5,259.0,179.5,255.0,179.5,251.0,179.5,247.0,179.5,243.0,179.5" stroke="black" stroke-width="1" fill="none" />
<polyline points="254.0,198.0,246.5,202.0,244.0,206.0,243.0,210.0,242.5,214.0,242.5,218.0,243.5,222.0,245.5,226.0,250.5,230.0" stroke="black" stroke-width="1" fill="none" />
<polyline points="197.0,277.5,193.0,278.0,189.0,278.5,185.0,279.0,181.0,279.0,177.0,279.5,173.0,280.5,169.0,281.5,165.0,283.0,161.0,280.5,157.0,271.0" stroke="black" stroke-width="1" fill="none" />
<polyline points="148.0,271.0,152.0,281.0" stroke="black" stroke-width="1" fill="none" />
<polyline points="152.5,287.0,148.5,288.5,144.5,290.0,140.5,292.0,136.5,293.5,132.5,295.5,128.5,295.0,124.5,291.5,120.5,287.5,116.5,283.0,112.5,278.0,108.5,272.5,104.5,266.5,100.5,260.0,96.5,252.5" stroke="black" stroke-width="1" fill="none" />
<polyline points="96.0,252.0,100.0,251.0,104.0,251.0,108.0,251.0,112.0,251.0,116.0,251.0,120.0,251.0,124.0,251.0,128.0,251.0,132.0,251.0,136.0,251.0,140.0,251.0,144.0,251.0,145.0,254.0,145.0,258.0,145.5,262.0,146.5,266.0,147.5,270.0,149.0,274.0,150.5,278.0,152.0,282.0,153.5,286.0,144.5,290.0,135.0,294.0" stroke="black" stroke-width="1" fill="none" />
<polyline points="136.0,301.0,140.0,299.5,144.0,297.5,148.0,296.0,152.0,294.5,156.0,293.0,160.0,296.5,164.0,303.0,168.0,309.5,172.0,316.0" stroke="black" stroke-width="1" fill="none" />
<polyline points="167.0,292.0,171.0,299.0,175.0,306.0,179.0,313.0,183.0,320.5,187.0,325.0,191.0,325.0,195.0,324.5" stroke="black" stroke-width="1" fill="none" />
<polyline points="193.5,325.5,195.5,321.5,196.0,317.5,196.0,313.5,196.5,309.5,196.5,305.5,197.0,301.5,197.0,297.5,197.0,293.5,197.5,289.5,197.0,285.5,194.5,284.5,190.5,285.0,186.5,285.0,182.5,286.0,178.5,286.5,174.5,287.5,170.5,288.5,166.5,290.5" stroke="black" stroke-width="1" fill="none" />
<polyline points="170.0,288.5,167.0,292.5,169.0,296.5,171.5,300.5,173.5,304.5,176.0,308.5,178.5,312.5,180.5,316.5,182.5,320.5,185.0,324.5" stroke="black" stroke-width="1" fill="none" />
<polyline points="173.0,322.5,169.0,321.5,165.0,320.5,161.0,318.5,157.0,316.5,153.0,314.0,149.0,312.0,145.0,309.0,141.0,306.0,137.0,303.0" stroke="black" stroke-width="1" fill="none" />
<polyline points="155.5,293.0,145.5,297.0,136.0,301.0,139.0,305.0,144.5,309.0,150.5,313.0,157.5,317.0,166.5,321.0" stroke="black" stroke-width="1" fill="none" />
<polyline points="175.0,321.5,172.5,317.5,170.0,313.5,167.5,309.5,165.5,305.5,163.0,301.5,160.5,297.5,157.5,293.5" stroke="black" stroke-width="1" fill="none" />
<polyline points="153.5,253.5,157.5,251.0,161.5,251.0,165.5,251.0,169.5,251.0,173.5,251.0,177.5,251.5,181.5,251.5,185.5,251.5,189.5,251.5,193.5,251.5,197.5,251.5,199.0,254.0,198.5,258.0,198.5,262.0,198.5,266.0,198.0,270.0,198.0,274.0" stroke="black" stroke-width="1" fill="none" />
<polyline points="162.5,283.0,160.0,279.0,158.5,275.0,157.0,271.0,156.0,267.0,155.0,263.0,154.0,259.0,154.0,255.0,155.5,251.0" stroke="black" stroke-width="1" fill="none" />
<polyline points="150.5,228.5,150.5,224.5,148.5,222.5,144.5,222.5,140.5,222.5,136.5,222.5,135.0,220.0,135.0,216.0,135.0,212.0,135.0,208.0,135.0,204.0,135.0,200.0,133.0,198.0,129.0,198.0,125.0,198.5" stroke="black" stroke-width="1" fill="none" />
<polyline points="125.5,198.0,125.0,202.0,125.0,206.0,125.0,210.0,125.0,214.0,125.0,218.0,125.0,222.0,125.0,226.0,125.0,230.0,128.0,231.0,132.0,231.0,136.0,231.0,140.0,231.0,144.0,231.0,148.0,231.0,154.0,225.5,158.0,215.0,162.0,204.0,166.0,198.0,170.0,198.0,174.0,198.0,178.0,205.5,182.0,216.0" stroke="black" stroke-width="1" fill="none" />
<polyline points="172.0,218.0,168.0,218.5,166.5,216.5,168.0,212.5,168.5,208.5,168.5,208.5" stroke="black" stroke-width="1" fill="none" />
<polyline points="170.0,208.0,171.0,212.0,172.5,216.0" stroke="black" stroke-width="1" fill="none" />
<polyline points="175.0,226.0,176.5,230.0" stroke="black" stroke-width="1" fill="none" />
<polyline points="164.0,225.5,163.0,229.5" stroke="black" stroke-width="1" fill="none" />
<polyline points="186.0,230.5,185.5,226.5,184.0,222.5,182.5,218.5,181.0,214.5,179.5,210.5,178.0,206.5,176.5,202.5,174.5,198.5" stroke="black" stroke-width="1" fill="none" />
<polyline points="165.5,198.0,163.0,202.0,161.5,206.0,160.0,210.0,158.5,214.0,157.0,218.0,155.5,222.0,154.0,226.0,153.0,230.0,155.5,231.0,159.5,231.0,163.5,226.5,167.5,225.5,171.5,225.5,175.5,226.0,179.5,231.0,183.5,231.0" stroke="black" stroke-width="1" fill="none" />
<polyline points="136.5,180.5,140.5,180.5,144.5,180.5,148.5,180.5,152.5,180.5,156.5,180.5,160.5,180.5,164.5,180.5,168.5,180.5,172.5,180.5,176.5,180.5,180.5,180.5,184.5,180.5,188.5,180.5,192.5,180.0,196.5,176.0,200.5,172.0,204.5,168.0,208.5,164.5,212.5,160.5,216.5,156.5,220.5,152.5,224.5,148.5,228.5,144.5,232.5,140.5,236.5,137.0,240.5,133.0,244.5,129.0,248.5,125.0,252.5,121.0,258.0,120.5,254.0,124.5,250.0,128.5,246.0,132.5,242.0,136.5,238.0,140.5,234.0,144.5,230.0,148.5,226.0,152.5,221.5,156.5,217.5,160.5,214.0,164.5,209.5,168.5,205.5,172.5,201.5,176.5,199.0,179.0,203.0,175.0,207.0,171.0,211.0,167.0,215.0,163.0,219.0,159.0,223.0,155.0,227.0,151.5,231.0,147.5,235.0,143.5,239.0,139.5,243.0,135.5,247.0,131.5,251.0,127.5,255.0,123.5,259.0,121.0,263.0,124.5,267.0,129.0,271.0,133.5,275.0,138.0" stroke="black" stroke-width="1" fill="none" />
<polyline points="280.0,144.0,283.5,148.0,287.0,152.0,291.0,156.0,294.5,160.0,297.5,164.0,301.5,168.0,305.0,172.0,308.5,176.0" stroke="black" stroke-width="1" fill="none" />
<polyline points="314.5,103.5,318.5,110.0,322.5,113.0,326.5,112.5,330.5,110.0,334.5,107.5,338.5,104.0" stroke="black" stroke-width="1" fill="none" />
<polyline points="336.5,100.0,338.5,104.0,333.5,108.0,327.5,112.0" stroke="black" stroke-width="1" fill="none" />
<polyline points="320.0,102.0,324.0,98.5,328.0,95.0" stroke="black" stroke-width="1" fill="none" />
<polyline points="330.5,91.5,326.5,88.5,322.5,91.5,318.5,94.5,314.5,99.5" stroke="black" stroke-width="1" fill="none" />
<polyline points="329.5,103.0,334.5,99.0" stroke="black" stroke-width="1" fill="none" />
<polyline points="338.0,101.5,334.0,99.5,330.0,102.5,326.0,105.5,322.0,106.5,320.0,105.0,320.5,101.0,326.0,97.0,330.5,93.0,328.0,89.0" stroke="black" stroke-width="1" fill="none" />
<polyline points="326.5,88.5,321.0,92.5,316.5,96.5,314.5,100.5,314.5,104.5,316.5,108.5,321.0,112.5" stroke="black" stroke-width="1" fill="none" />
<polyline points="327.0,122.5,327.0,118.5,334.5,114.5,342.0,110.5" stroke="black" stroke-width="1" fill="none" />
<polyline points="294.5,81.0,290.5,78.0" stroke="black" stroke-width="1" fill="none" />
<polyline points="290.0,76.5,294.0,71.0,298.0,66.0" stroke="black" stroke-width="1" fill="none" />
<polyline points="294.5,62.5,297.0,66.5,294.5,70.5,291.5,74.5,290.5,78.5,296.0,82.5" stroke="black" stroke-width="1" fill="none" />
<polyline points="294.5,86.5,290.5,84.5,286.5,81.5,282.5,78.5" stroke="black" stroke-width="1" fill="none" />
<polyline points="273.0,69.5,269.0,67.5,265.0,69.0,261.0,67.0" stroke="black" stroke-width="1" fill="none" />
<polyline points="269.5,68.0,274.0,72.0,274.5,73.5,278.5,76.0" stroke="black" stroke-width="1" fill="none" />
<polyline points="291.5,85.5,286.0,81.5,282.0,77.5,284.0,73.5,287.0,69.5,290.0,65.5,293.0,61.5" stroke="black" stroke-width="1" fill="none" />
<polyline points="281.5,54.5,277.5,52.5,273.5,53.5,269.5,57.0,265.5,61.0,261.5,64.5,256.0,65.5,252.0,63.0" stroke="black" stroke-width="1" fill="none" />
<polyline points="262.0,68.0,262.0,64.0,266.5,60.0,271.0,56.0,275.5,52.0" stroke="black" stroke-width="1" fill="none" />
<polyline points="277.0,52.5,282.0,56.5,281.0,60.5,281.0,64.5,280.5,68.5,280.5,72.5,281.5,77.0,285.5,71.5,289.5,66.0,293.5,62.0,297.5,64.0" stroke="black" stroke-width="1" fill="none" />
<polyline points="276.5,59.5,275.5,63.5,274.5,64.5" stroke="black" stroke-width="1" fill="none" />
<polyline points="276.0,59.0,272.0,62.5,272.5,62.0,275.5,58.0" stroke="black" stroke-width="1" fill="none" />
<polyline points="263.0,51.0,259.0,62.0,259.5,61.5,261.0,57.5,262.5,53.5,263.5,49.5,260.5,45.5" stroke="black" stroke-width="1" fill="none" />
<polyline points="260.0,45.0,257.5,49.0,256.0,53.0" stroke="black" stroke-width="1" fill="none" />
<polyline points="249.0,52.0,250.0,56.0,251.0,60.0,252.5,64.0" stroke="black" stroke-width="1" fill="none" />
<polyline points="245.5,59.5,247.0,55.5,248.0,51.5" stroke="black" stroke-width="1" fill="none" />
<polyline points="251.5,42.0,247.5,40.5,243.5,47.0,239.5,58.0" stroke="black" stroke-width="1" fill="none" />
<polyline points="231.0,43.0,227.0,41.0,223.0,45.5" stroke="black" stroke-width="1" fill="none" />
<polyline points="222.5,48.0,226.5,53.0,230.5,50.0" stroke="black" stroke-width="1" fill="none" />
<polyline points="237.0,50.0,233.0,56.0,229.0,57.5,225.0,57.0,221.0,56.0,217.0,51.0" stroke="black" stroke-width="1" fill="none" />
<polyline points="217.0,42.5,221.0,37.5,225.0,36.5,229.0,36.5,233.0,37.5,237.0,41.5" stroke="black" stroke-width="1" fill="none" />
<polyline points="232.0,37.5,236.5,41.5,238.0,45.5,237.5,49.5,235.5,53.5" stroke="black" stroke-width="1" fill="none" />
<polyline points="231.0,49.5,231.5,45.5,228.5,41.5" stroke="black" stroke-width="1" fill="none" />
<polyline points="226.5,41.0,223.5,45.0,223.0,49.0,226.5,53.0" stroke="black" stroke-width="1" fill="none" />
<polyline points="211.5,52.5,211.5,48.5,212.0,44.5,212.5,40.5,212.5,36.5,210.0,35.0,206.0,36.5" stroke="black" stroke-width="1" fill="none" />
<polyline points="207.0,35.0,206.0,39.0,205.5,43.0,205.5,47.0,205.0,51.0,206.0,55.0,208.5,55.0" stroke="black" stroke-width="1" fill="none" />
<polyline points="197.5,39.0,193.5,41.5" stroke="black" stroke-width="1" fill="none" />
<polyline points="194.5,39.5,194.0,43.5,194.5,47.5,194.5,51.5" stroke="black" stroke-width="1" fill="none" />
<polyline points="194.0,54.5,190.0,55.0,188.0,53.0,188.0,49.0,188.0,45.0,187.0,41.0" stroke="black" stroke-width="1" fill="none" />
<polyline points="187.0,40.5,183.0,40.5,181.0,39.5,181.5,35.5" stroke="black" stroke-width="1" fill="none" />
<polyline points="180.5,36.0,184.5,35.0,188.5,35.0,192.5,35.0,196.5,34.5,198.0,34.0,200.0,38.0" stroke="black" stroke-width="1" fill="none" />
<polyline points="181.0,50.5,177.0,44.5,173.0,38.0,169.0,37.5,165.0,39.5" stroke="black" stroke-width="1" fill="none" />
<polyline points="166.0,37.5,165.0,41.5,164.0,45.5,163.5,49.5,162.5,53.5,161.5,57.5,163.5,59.0,167.5,57.5,171.5,54.0,175.5,54.0,179.5,56.5" stroke="black" stroke-width="1" fill="none" />
<polyline points="169.0,54.5,165.5,58.5" stroke="black" stroke-width="1" fill="none" />
<polyline points="171.0,49.5,169.0,47.5,169.5,43.5,169.0,44.0" stroke="black" stroke-width="1" fill="none" />
<polyline points="170.5,44.0,172.5,48.0" stroke="black" stroke-width="1" fill="none" />
<polyline points="172.0,37.5,175.0,41.5,177.5,45.5,180.0,49.5,182.5,53.5" stroke="black" stroke-width="1" fill="none" />
<polyline points="155.5,47.5,151.5,41.5,147.5,43.0" stroke="black" stroke-width="1" fill="none" />
<polyline points="150.5,41.5,148.0,45.5,149.5,49.5" stroke="black" stroke-width="1" fill="none" />
<polyline points="147.0,50.5,143.0,47.5,139.0,45.5,135.0,47.0" stroke="black" stroke-width="1" fill="none" />
<polyline points="138.5,45.5,135.0,49.5,136.5,53.5,137.5,57.5,139.0,61.5,140.5,65.5" stroke="black" stroke-width="1" fill="none" />
<polyline points="142.5,66.0,138.5,59.5" stroke="black" stroke-width="1" fill="none" />
<polyline points="143.5,55.5,147.5,57.5,151.5,60.5,155.5,61.5" stroke="black" stroke-width="1" fill="none" />
<polyline points="150.0,59.5,145.0,55.5" stroke="black" stroke-width="1" fill="none" />
<polyline points="144.5,55.0,144.5,59.0,146.0,63.0" stroke="black" stroke-width="1" fill="none" />
<polyline points="138.0,66.5,134.0,64.0,130.0,62.0" stroke="black" stroke-width="1" fill="none" />
<polyline points="124.5,58.0,122.5,62.0,123.0,61.5" stroke="black" stroke-width="1" fill="none" />
<polyline points="122.0,57.5,120.0,61.5,121.5,57.5" stroke="black" stroke-width="1" fill="none" />
<polyline points="124.0,52.0,116.0,56.0,112.0,60.0,114.0,64.0,116.0,68.0,118.5,72.0,120.5,76.0" stroke="black" stroke-width="1" fill="none" />
<polyline points="124.5,74.5,120.5,75.5,116.5,68.0,112.5,60.0" stroke="black" stroke-width="1" fill="none" />
<polyline points="112.0,58.0,116.0,56.0,120.0,54.0,124.0,52.0,128.0,52.5" stroke="black" stroke-width="1" fill="none" />
<polyline points="127.5,52.5,131.0,56.5,130.0,60.5,134.5,64.5,135.5,69.0" stroke="black" stroke-width="1" fill="none" />
<polyline points="135.0,69.5,131.0,69.5,127.0,66.5,123.0,66.0" stroke="black" stroke-width="1" fill="none" />
<polyline points="123.0,67.0,125.0,71.0,123.0,75.5" stroke="black" stroke-width="1" fill="none" />
<polyline points="116.0,76.0,112.0,77.0,108.0,80.0,108.0,80.0,113.5,76.0" stroke="black" stroke-width="1" fill="none" />
<polyline points="109.0,74.5,105.0,77.0,105.0,78.0,109.5,74.0,110.5,70.0" stroke="black" stroke-width="1" fill="none" />
<polyline points="108.5,69.5,103.0,73.5,104.5,72.5,108.5,69.5" stroke="black" stroke-width="1" fill="none" />
<polyline points="104.5,68.5,100.5,71.0,100.0,71.5,105.5,67.5,106.5,63.5" stroke="black" stroke-width="1" fill="none" />
<polyline points="92.5,71.5,96.5,68.5,100.5,66.0,104.5,63.0,105.0,62.5,99.5,66.5,93.5,70.5,93.5,74.5,96.5,78.5,99.5,82.5,102.5,86.5" stroke="black" stroke-width="1" fill="none" />
<polyline points="105.5,87.5,111.0,83.5,117.0,79.5,117.0,79.5,113.0,82.0,109.0,85.0,105.0,88.0,101.0,84.5,97.0,79.0,93.0,73.0" stroke="black" stroke-width="1" fill="none" />
<polyline points="87.0,76.0,83.0,80.0,78.5,84.0,74.5,88.0,76.5,92.0,78.5,91.0,82.5,89.0,86.5,93.0,90.5,97.0,94.5,97.5" stroke="black" stroke-width="1" fill="none" />
<polyline points="95.5,93.0,91.5,89.0,87.5,84.5" stroke="black" stroke-width="1" fill="none" />
<polyline points="83.0,89.5,87.0,93.5,90.5,97.5" stroke="black" stroke-width="1" fill="none" />
<polyline points="95.5,96.5,94.5,92.5,91.0,88.5,87.0,84.5,89.5,80.5,90.5,78.5,86.5,76.5,82.5,80.5,78.5,84.0,74.5,88.0" stroke="black" stroke-width="1" fill="none" />
<polyline points="71.0,94.5,76.0,98.5,81.0,102.5,85.0,106.5" stroke="black" stroke-width="1" fill="none" />
<polyline points="74.5,114.5,70.5,111.5" stroke="black" stroke-width="1" fill="none" />
<polyline points="70.5,110.0,73.5,114.0,76.0,118.0" stroke="black" stroke-width="1" fill="none" />
<polyline points="81.0,110.5,77.0,110.5,73.0,110.0,69.0,111.0" stroke="black" stroke-width="1" fill="none" />
<polyline points="71.0,102.0,67.0,98.5" stroke="black" stroke-width="1" fill="none" />
<polyline points="66.5,97.0,70.5,94.0,74.5,97.0,78.5,100.0,82.5,103.0" stroke="black" stroke-width="1" fill="none" />
<polyline points="70.0,105.0,66.0,104.5,62.0,104.5,58.0,107.5" stroke="black" stroke-width="1" fill="none" />
<polyline points="58.5,109.5,62.5,112.5,66.5,115.5,70.5,118.5,74.5,120.0" stroke="black" stroke-width="1" fill="none" />
<polyline points="67.5,130.5,63.5,128.5,59.5,126.0,55.5,123.5,51.5,120.5" stroke="black" stroke-width="1" fill="none" />
<polyline points="51.0,120.0,55.0,116.0,59.0,118.0,63.0,120.5,67.0,123.0" stroke="black" stroke-width="1" fill="none" />
<polyline points="69.5,128.5,69.0,124.5,62.0,120.5,55.5,116.5" stroke="black" stroke-width="1" fill="none" />
<polyline points="53.5,115.5,51.5,119.5,55.0,123.5,61.5,127.5" stroke="black" stroke-width="1" fill="none" />
<polyline points="52.0,140.5,58.0,144.5,60.0,148.5,60.0,152.5,59.0,156.5,55.5,160.5" stroke="black" stroke-width="1" fill="none" />
<polyline points="54.0,154.5,55.0,150.5,48.5,146.5" stroke="black" stroke-width="1" fill="none" />
<polyline points="46.5,146.0,43.0,150.0,44.0,154.0" stroke="black" stroke-width="1" fill="none" />
<polyline points="40.5,159.5,38.0,155.5,37.5,151.5,38.5,147.5,40.0,143.5,46.5,139.5" stroke="black" stroke-width="1" fill="none" />
<polyline points="72.0,120.5,67.0,116.5,61.5,112.5,58.0,108.5,61.0,104.5" stroke="black" stroke-width="1" fill="none" />
<polyline points="70.5,102.0,66.5,98.0,69.0,94.0" stroke="black" stroke-width="1" fill="none" />
<polyline points="140.5,46.0,146.0,50.0" stroke="black" stroke-width="1" fill="none" />
<polyline points="153.0,42.0,154.5,46.0,156.0,50.0,157.0,54.0,158.5,58.0" stroke="black" stroke-width="1" fill="none" />
<polyline points="143.5,25.0,132.5,29.0,123.5,33.0,115.5,37.0,107.5,41.0,101.5,45.0,95.0,49.0,89.5,53.0,84.5,57.0,80.0,61.0,75.5,65.0,71.0,69.0,67.0,73.0,63.5,77.0,60.0,81.0,56.5,85.0,53.5,89.0,50.5,93.0,47.5,97.0,45.0,101.0,42.5,105.0,40.0,109.0,38.0,113.0,35.5,117.0,34.0,121.0,32.0,125.0,30.0,129.0,28.5,133.0,27.0,137.0,25.5,141.0,24.0,145.0,23.0,149.0,22.0,153.0,20.5,157.0,19.5,161.0,19.0,165.0,18.0,169.0,17.5,173.0,16.5,177.0,16.0,181.0,16.0,185.0,15.5,189.0,15.5,193.0,15.0,197.0,15.0,201.0,15.0,205.0,15.0,209.0,15.5,213.0,15.5,217.0,15.5,221.0,16.0,225.0,16.5,229.0,17.5,233.0,18.0,237.0,19.0,241.0,19.5,245.0,20.5,249.0,21.5,253.0,23.0,257.0,24.0,261.0,25.0,265.0,26.5,269.0,28.5,273.0,30.0,277.0,31.5,281.0,33.5,285.0,35.5,289.0,37.5,293.0,40.0,297.0,42.0,301.0,44.5,305.0,47.5,309.0,50.0,313.0,53.0,317.0,56.0,321.0,59.5,325.0,63.0,329.0,66.5,333.0,70.5,337.0,75.0,341.0,79.0,345.0,84.0,349.0,89.0,353.0,94.5,357.0,100.5,361.0,107.0,365.0,114.5,369.0,122.0,373.0,131.5,377.0" stroke="black" stroke-width="1" fill="none" />
<polyline points="101.0,334.5,100.5,330.5,104.0,328.5,100.0,331.0" stroke="black" stroke-width="1" fill="none" />
<polyline points="92.0,331.0,88.0,328.5" stroke="black" stroke-width="1" fill="none" />
<polyline points="87.5,328.0,91.5,327.0,95.5,322.0,94.5,325.5" stroke="black" stroke-width="1" fill="none" />
<polyline points="97.0,322.0,98.0,326.0,100.0,327.0,104.0,327.5" stroke="black" stroke-width="1" fill="none" />
<polyline points="100.5,337.0,96.5,334.0,92.5,336.0,91.0,335.0,91.5,331.0,88.5,327.0" stroke="black" stroke-width="1" fill="none" />
<polyline points="128.0,295.0,123.5,291.0,119.5,287.0,116.0,283.0,113.0,279.0,110.0,275.0,107.0,271.0,104.5,267.0,102.0,263.0,99.5,259.0,97.5,255.0,96.5,251.0" stroke="black" stroke-width="1" fill="none" />
<polyline points="87.5,230.5,91.5,231.0,95.5,230.5,99.5,225.5,103.5,225.5,107.5,225.5,111.5,230.5,115.5,231.0,119.5,231.0" stroke="black" stroke-width="1" fill="none" />
<polyline points="110.5,230.0,109.0,226.0" stroke="black" stroke-width="1" fill="none" />
<polyline points="106.5,217.5,102.5,218.5,100.5,217.0,101.5,213.0,102.5,209.0,103.0,207.0" stroke="black" stroke-width="1" fill="none" />
<polyline points="104.5,208.0,105.0,212.0,106.5,216.0" stroke="black" stroke-width="1" fill="none" />
<polyline points="98.5,225.5,96.5,229.5" stroke="black" stroke-width="1" fill="none" />
<polyline points="120.0,230.5,119.5,226.5,118.0,222.5,116.5,218.5,115.0,214.5,113.5,210.5,112.0,206.5,110.5,202.5,108.0,198.5" stroke="black" stroke-width="1" fill="none" />
<polyline points="100.0,198.0,97.0,202.0,95.5,206.0,94.0,210.0,92.5,214.0,91.0,218.0,89.5,222.0,88.0,226.0,87.0,230.0,89.5,221.5,93.5,211.0,97.5,200.0,101.5,198.0,105.5,198.0,109.5,199.0,113.5,209.5,117.5,220.5" stroke="black" stroke-width="1" fill="none" />
<polyline points="92.5,181.0,96.5,181.0,100.5,181.0,104.5,181.0,108.5,181.0,112.5,181.0,116.5,181.0,120.5,181.0,124.5,181.0,128.5,180.5,132.5,178.5,136.5,175.0,140.5,171.0,144.5,167.5,148.5,164.0,152.5,160.5,156.5,156.5,160.5,153.0,164.5,149.0,168.5,145.5,172.5,142.0,176.5,138.0" stroke="black" stroke-width="1" fill="none" />
<polyline points="163.0,113.5,165.5,117.5,168.0,121.5,170.5,125.5,173.0,129.5,175.5,133.5,177.0,137.5,173.0,141.5,168.5,145.5,164.0,149.5,160.0,153.5,155.5,157.5,151.0,161.5,147.0,165.5,142.5,169.5,138.0,173.5,134.0,177.5" stroke="black" stroke-width="1" fill="none" />
<polyline points="176.5,134.5,172.5,128.0,168.5,122.0,164.5,115.5,160.5,113.5,156.5,117.5,152.5,121.5,148.5,125.5,144.5,129.0,140.5,133.0,136.5,137.0,132.5,141.0,128.5,145.0,124.5,148.5,120.5,152.5,116.5,156.5,112.5,160.5,108.5,164.5,104.5,168.0,100.5,172.0,96.5,176.0,92.5,179.5,96.0,176.5,100.0,172.5,104.0,168.5,108.0,164.5,112.5,160.5,116.5,156.5,120.5,152.5,124.5,148.5,129.0,144.5,133.0,140.5,137.0,136.5,141.0,132.5,145.0,128.5,149.5,124.5,153.5,120.5,157.5,116.5,161.5,112.5" stroke="black" stroke-width="1" fill="none" />
<polyline points="172.5,109.0,176.5,114.5,180.5,117.0,184.5,117.5,188.5,117.0,192.5,114.0,196.5,107.5" stroke="black" stroke-width="1" fill="none" />
<polyline points="196.0,97.0,192.0,92.0,188.0,89.5,184.0,89.0,180.0,89.5,176.0,92.5,172.0,98.5" stroke="black" stroke-width="1" fill="none" />
<polyline points="180.0,89.5,175.0,93.5,172.5,97.5,171.5,101.5,171.5,105.5,172.5,109.5,175.0,113.5,181.0,117.5" stroke="black" stroke-width="1" fill="none" />
<polyline points="193.0,113.5,196.0,109.5,197.0,105.5,197.0,101.5,196.0,97.5,193.5,93.5,187.0,89.5" stroke="black" stroke-width="1" fill="none" />
<polyline points="231.5,91.5,227.0,95.5,223.0,99.5,218.5,103.5,214.0,107.5,210.0,111.5,205.5,115.5,201.0,119.5,197.0,123.5,192.5,127.5,188.5,131.5,184.0,135.5,179.5,139.5,175.0,143.5,171.0,147.5,166.5,151.5,162.5,155.5,158.0,159.5,153.5,163.5,149.5,167.5,145.0,171.5,141.0,175.5,136.0,179.5,138.5,177.5,142.5,174.0,146.5,170.0,150.5,166.5,154.5,163.0,158.5,159.0,162.5,155.5,166.5,151.5,170.5,148.0,174.5,144.5,178.5,140.5,182.5,137.0,186.5,133.0,190.5,129.5,194.5,125.5,198.5,122.0,202.5,118.5,206.5,114.5,210.5,111.0,214.5,107.5,218.5,103.5,222.5,100.0,226.5,96.0,230.5,92.5,234.5,93.0,238.5,97.0,242.5,101.5,246.5,106.0,250.5,110.5,254.5,115.0" stroke="black" stroke-width="1" fill="none" />
<polyline points="259.5,121.5,263.5,125.5,267.0,129.5,270.5,133.5,274.0,137.5,275.0,141.5,271.0,145.5,267.0,149.5,263.0,153.5,259.0,157.5,255.0,161.5,251.0,165.5,247.0,169.5,243.0,173.5,239.0,177.5" stroke="black" stroke-width="1" fill="none" />
<polyline points="192.0,180.0,196.5,176.0,200.5,172.0,204.5,168.0,209.0,164.0,213.0,160.0,217.0,156.0,221.0,152.0,225.0,148.0,229.5,144.0,233.0,140.0,237.5,136.0,241.5,132.0,245.5,128.0,249.5,124.0,253.5,120.0,255.0,116.0,251.5,112.0,247.5,108.0,244.0,104.0,240.5,100.0,237.0,96.0,233.5,92.0" stroke="black" stroke-width="1" fill="none" />
<polyline points="248.0,41.0,252.5,45.0,253.5,49.0,254.5,53.0,258.5,46.5,262.5,46.0" stroke="black" stroke-width="1" fill="none" />
<polyline points="247.5,40.5,244.5,44.5,243.0,48.5,241.5,52.5,240.0,56.5,241.5,60.5,242.5,60.5,247.0,55.0" stroke="black" stroke-width="1" fill="none" />
<polyline points="222.0,56.5,217.5,52.5,216.5,48.5,216.5,44.5,218.0,40.5,223.5,36.5" stroke="black" stroke-width="1" fill="none" />
<polyline points="257.5,26.5,267.5,30.5,276.5,34.5,285.0,38.5,292.0,42.5,298.0,46.5,304.0,50.5,309.5,54.5,314.5,58.5,319.0,62.5,323.5,66.5,328.0,70.5,331.5,74.5,335.5,78.5,339.0,82.5,342.0,86.5,345.0,90.5,348.0,94.5,351.0,98.5,353.5,102.5,356.0,106.5,358.5,110.5,360.5,114.5,362.5,118.5,364.5,122.5,366.5,126.5,368.5,130.5,370.0,134.5,371.5,138.5,373.0,142.5,374.5,146.5,375.5,150.5,376.5,154.5,377.5,158.5,378.5,162.5,379.5,166.5,380.0,170.5,380.5,174.5,381.5,178.5,382.0,182.5,382.0,186.5,382.5,190.5,383.0,194.5,383.0,198.5,383.0,202.5,383.0,206.5,383.0,210.5,382.5,214.5,382.5,218.5,382.0,222.5,381.5,226.5,381.0,230.5,380.5,234.5,380.0,238.5,379.0,242.5,378.0,246.5,377.0,250.5,376.0,254.5,374.5,258.5,373.5,262.5,372.0,266.5,370.5,270.5,369.0,274.5,367.0,278.5,365.5,282.5,363.5,286.5,361.5,290.5,359.0,294.5,357.0,298.5,354.5,302.5,352.0,306.5,349.0,310.5,346.0,314.5,343.5,318.5,340.0,322.5,336.5,326.5,333.0,330.5,329.5,334.5,325.5,338.5,321.0,342.5,316.0,346.5,311.5,350.5,306.0,354.5,300.5,358.5,294.0,362.5,287.5,366.5,279.5,370.5,271.0,374.5,261.5,378.5,249.5,382.5" stroke="black" stroke-width="1" fill="none" />
<polyline points="125.5,391.5,116.5,387.5,108.5,383.5,101.5,379.5,94.5,375.5,88.5,371.5,83.0,367.5,77.5,363.5,72.5,359.5,68.0,355.5,64.0,351.5,59.5,347.5,56.0,343.5,52.0,339.5,48.5,335.5,45.0,331.5,42.0,327.5,39.0,323.5,36.0,319.5,33.0,315.5,31.0,311.5,28.5,307.5,26.0,303.5,24.0,299.5,22.0,295.5,19.5,291.5,18.0,287.5,16.0,283.5,14.5,279.5,13.0,275.5,11.5,271.5,10.0,267.5,8.5,263.5,7.5,259.5,6.5,255.5,5.5,251.5,4.5,247.5,3.5,243.5,3.0,239.5,2.5,235.5,1.5,231.5,1.0,227.5,1.0,223.0,1.0,219.0,0.5,215.0" stroke="black" stroke-width="1" fill="none" />
<polyline points="135.5,388.0,125.0,384.0,116.0,380.0,108.0,376.0,101.5,372.0,95.0,368.0,89.0,364.0,83.5,360.0,78.5,356.0,73.5,352.0,69.5,348.0,65.0,344.0,61.0,340.0,57.5,336.0,54.0,332.0,50.5,328.0,47.5,324.0,44.5,320.0,41.5,316.0,38.5,312.0,36.0,308.0,34.0,304.0,31.5,300.0,29.0,296.0,27.0,292.0,25.0,288.0,23.0,284.0,21.5,280.0,20.0,276.0,18.5,272.0,17.0,268.0,15.5,264.0,14.5,260.0,13.0,256.0,12.0,252.0,11.0,248.0,10.5,244.0,9.5,240.0,8.5,236.0,8.5,232.0,7.5,228.0,7.0,224.0,7.0,220.0,6.5,216.0,6.5,212.0,6.5,208.0,6.0,204.0,6.5,200.0,6.5,196.0,6.5,192.0,6.5,188.0,7.0,184.0,7.0,180.0,8.0,176.0,8.5,172.0,9.0,168.0,9.5,164.0,10.5,160.0,11.5,156.0,12.5,152.0,13.5,148.0,15.0,144.0,16.0,140.0,17.5,136.0,19.0,132.0,20.5,128.0,22.5,124.0,24.0,120.0,26.0,116.0,28.0,112.0,30.0,108.0,32.0,104.0,34.5,100.0,37.0,96.0,39.5,92.0,42.5,88.0,45.5,84.0,48.5,80.0,52.0,76.0,55.0,72.0,59.0,68.0,62.5,64.0,66.5,60.0,71.0,56.0,75.5,52.0,80.5,48.0,85.5,44.0,91.0,40.0,97.0,36.0,103.5,32.0,111.5,28.0,119.5,24.0,128.5,20.0,139.0,16.0" stroke="black" stroke-width="1" fill="none" />
<polyline points="122.0,15.5,113.0,19.5,105.5,23.5,99.0,27.5,92.5,31.5,86.0,35.5,81.0,39.5,75.5,43.5,71.0,47.5,66.5,51.5,62.5,55.5,58.0,59.5,54.5,63.5,50.5,67.5,47.0,71.5,43.5,75.5,41.0,79.5,38.0,83.5,35.0,87.5,32.0,91.5,29.5,95.5,27.5,99.5,25.0,103.5,23.0,107.5,21.0,111.5,19.0,115.5,17.5,119.5,15.5,123.5,14.0,127.5,12.5,131.5,11.0,135.5,9.5,139.5,8.5,143.5,7.0,147.5,6.5,151.5,5.0,155.5,4.5,159.5,3.5,163.5,3.0,167.5,2.0,171.5,1.5,175.5,1.0,179.5,1.0,184.0,1.0,188.0" stroke="black" stroke-width="1" fill="none" />
<polyline points="251.0,13.5,263.5,17.5,274.0,21.5,282.5,25.5,290.5,29.5,297.0,33.5,303.5,37.5,310.0,41.5,315.0,45.5,320.0,49.5,325.0,53.5,329.5,57.5,333.5,61.5,338.0,65.5,341.5,69.5,345.0,73.5,348.5,77.5,351.5,81.5,354.5,85.5,357.5,89.5,360.5,93.5,363.0,97.5,365.0,101.5,367.5,105.5,370.0,109.5,372.0,113.5,374.0,117.5,376.0,121.5,377.5,125.5,379.0,129.5,380.5,133.5,382.5,137.5,383.5,141.5,385.0,145.5,386.0,149.5,387.0,153.5,388.0,157.5,389.0,161.5,390.0,165.5,390.5,169.5,391.0,173.5,391.5,177.5,392.5,181.5,392.5,185.5,393.0,189.5,393.0,193.5,393.0,197.5,393.0,201.5,393.0,205.5,393.0,209.5,393.0,213.5,392.5,217.5,392.5,221.5,392.0,225.5,391.5,229.5,391.0,233.5,390.5,237.5,389.5,241.5,388.5,245.5,387.5,249.5,387.0,253.5,385.5,257.5,384.5,261.5,383.0,265.5,381.5,269.5,380.0,273.5,378.5,277.5,377.0,281.5,375.0,285.5,373.0,289.5,371.5,293.5,369.0,297.5,367.0,301.5,364.5,305.5,362.0,309.5,359.0,313.5,356.5,317.5,353.5,321.5,350.5,325.5,347.0,329.5,343.5,333.5,340.0,337.5,336.0,341.5,332.0,345.5,327.5,349.5,323.0,353.5,318.5,357.5,313.0,361.5,307.5,365.5,301.0,369.5,294.5,373.5,287.0,377.5,279.0,381.5,270.0,385.5,259.0,389.5" stroke="black" stroke-width="1" fill="none" />
</svg>