<svg xmlns="http://www.w3.org/2000/svg" height="321px" width="449px" version="1.1"><polyline points="64.0,190.0,62.0,198.0,62.0,206.0,62.0,214.0,62.0,222.0,62.0,230.0,62.0,238.0,62.0,246.0,62.0,254.0,62.0,262.0,62.0,270.0,62.0,278.0,62.0,286.0,62.0,294.0,62.0,302.0,62.0,310.0,62.0,318.0,67.0,318.0,75.0,318.0,83.0,318.0,91.0,318.0,99.0,318.0,107.0,318.0,115.0,318.0,123.0,318.0,131.0,318.0,139.0,318.0,147.0,318.0,155.0,318.0,163.0,318.0,171.0,318.0,179.0,318.0,187.0,318.0,195.0,318.0,203.0,318.0,211.0,318.0,219.0,318.0,227.0,318.0,235.0,318.0,243.0,318.0,251.0,318.0,259.0,318.0,267.0,318.0,275.0,318.0,283.0,318.0,291.0,318.0,299.0,318.0,307.0,318.0,315.0,318.0,323.0,318.0,331.0,318.0,339.0,318.0,347.0,318.0,355.0,318.0,363.0,318.0,371.0,318.0,379.0,318.0,387.0,318.0,395.0,318.0,403.0,318.0,411.0,318.0,419.0,318.0,427.0,318.0,435.0,318.0,443.0,318.0" stroke="black" stroke-width="1" fill="none" />
<polyline points="449.0,316.0,449.0,308.0,449.0,300.0,449.0,292.0,449.0,284.0,449.0,276.0,449.0,268.0,449.0,260.0,449.0,252.0,449.0,244.0,449.0,236.0,449.0,228.0,449.0,220.0,449.0,212.0,449.0,204.0,449.0,196.0,441.0,193.0,433.0,193.0,425.0,193.0,417.0,193.0,409.0,193.0,401.0,193.0,393.0,193.0,385.0,193.0,377.0,193.0,369.0,193.0,361.0,193.0,353.0,193.0,345.0,193.0,337.0,193.0,329.0,193.0,321.0,193.0,313.0,193.0,305.0,193.0,297.0,193.0,289.0,193.0,281.0,193.0,273.0,193.0,265.0,193.0,257.0,193.0,249.0,193.0,241.0,193.0,233.0,193.0,225.0,193.0,217.0,193.0,209.0,193.0,201.0,193.0,193.0,193.0,185.0,193.0,177.0,193.0,169.0,193.0,161.0,193.0,153.0,193.0,145.0,193.0,137.0,193.0,129.0,193.0,121.0,193.0,113.0,193.0,105.0,193.0,97.0,193.0,89.0,193.0,81.0,193.0,73.0,193.0,65.0,193.0" stroke="black" stroke-width="1" fill="none" />
<polyline points="65.0,193.0,65.0,201.0,65.0,209.0,65.0,217.0,65.0,225.0,65.0,233.0,65.0,241.0,65.0,249.0,65.0,257.0,65.0,265.0,65.0,273.0,65.0,281.0,65.0,289.0,65.0,297.0,65.0,305.0,65.0,313.0,68.0,321.0,76.0,321.0,84.0,321.0,92.0,321.0,100.0,321.0,108.0,321.0,116.0,321.0,124.0,321.0,132.0,321.0,140.0,321.0,148.0,321.0,156.0,321.0,164.0,321.0,172.0,321.0,180.0,321.0,188.0,321.0,196.0,321.0,204.0,321.0,212.0,321.0,220.0,321.0,228.0,321.0,236.0,321.0,244.0,321.0,252.0,321.0,260.0,321.0,268.0,321.0,276.0,321.0,284.0,321.0,292.0,321.0,300.0,321.0,308.0,321.0,316.0,321.0,324.0,321.0,332.0,321.0,340.0,321.0,348.0,321.0,356.0,321.0,364.0,321.0,372.0,321.0,380.0,321.0,388.0,321.0,396.0,321.0,404.0,321.0,412.0,321.0,420.0,321.0,428.0,321.0,436.0,321.0,444.0,321.0" stroke="black" stroke-width="1" fill="none" />
<polyline points="446.0,315.0,446.0,307.0,446.0,299.0,446.0,291.0,446.0,283.0,446.0,275.0,446.0,267.0,446.0,259.0,446.0,251.0,446.0,243.0,446.0,235.0,446.0,227.0,446.0,219.0,446.0,211.0,446.0,203.0,446.0,195.0,446.0,190.0,438.0,190.0,430.0,190.0,422.0,190.0,414.0,190.0,406.0,190.0,398.0,190.0,390.0,190.0,382.0,190.0,374.0,190.0,366.0,190.0,358.0,190.0,350.0,190.0,342.0,190.0,334.0,190.0,326.0,190.0,318.0,190.0,310.0,190.0,302.0,190.0,294.0,190.0,286.0,190.0,278.0,190.0,270.0,190.0,262.0,190.0,254.0,190.0,246.0,190.0,238.0,190.0,230.0,190.0,222.0,190.0,214.0,190.0,206.0,190.0,198.0,190.0,190.0,190.0,182.0,190.0,174.0,190.0,166.0,190.0,158.0,190.0,150.0,190.0,142.0,190.0,134.0,190.0,126.0,190.0,118.0,190.0,110.0,190.0,102.0,190.0,94.0,190.0,86.0,190.0,78.0,190.0,70.0,190.0,62.0,192.0" stroke="black" stroke-width="1" fill="none" />
</svg>