<svg xmlns="http://www.w3.org/2000/svg" height="530px" width="365px" version="1.1"><polyline points="154.5,16.5,130.5,28.5,112.5,40.5,97.5,52.5,87.0,64.5,79.5,76.5,75.0,88.5,69.0,100.5,66.0,112.5,66.0,124.5,69.0,136.5,70.5,148.5,72.0,160.5,73.5,172.5,66.0,184.5,63.0,196.5,66.0,208.5,69.0,220.5,75.0,232.5,81.0,244.5,87.0,256.5,87.0,268.5,87.0,280.5,88.5,292.5,97.5,304.5,106.5,316.5,118.5,328.5,132.0,340.5,145.5,352.5,160.5,364.5,174.0,376.5,186.0,388.5,195.0,400.5,204.0,411.0,189.0,423.0,183.0,435.0,193.5,447.0,196.5,459.0,198.0,471.0,199.5,483.0,202.5,495.0,208.5,507.0,211.5,519.0" stroke="black" stroke-width="1" fill="none" />
<polyline points="241.5,498.0,229.5,463.5" stroke="black" stroke-width="1" fill="none" />
<polyline points="234.0,465.0,231.0,451.5" stroke="black" stroke-width="1" fill="none" />
<polyline points="237.0,438.0,235.5,450.0,240.0,450.0,241.5,468.0,243.0,480.0,246.0,492.0" stroke="black" stroke-width="1" fill="none" />
<polyline points="271.5,496.5,283.5,495.0" stroke="black" stroke-width="1" fill="none" />
<polyline points="288.0,469.5,276.0,448.5" stroke="black" stroke-width="1" fill="none" />
<polyline points="270.0,457.5,282.0,480.0" stroke="black" stroke-width="1" fill="none" />
<polyline points="273.0,463.5,279.0,475.5,283.5,487.5,295.5,501.0,307.5,505.5,319.5,511.5,331.5,513.0" stroke="black" stroke-width="1" fill="none" />
<polyline points="334.5,514.5,337.5,526.5" stroke="black" stroke-width="1" fill="none" />
<polyline points="327.0,529.5,318.0,526.5,321.0,514.5" stroke="black" stroke-width="1" fill="none" />
<polyline points="321.0,453.0,309.0,448.5,297.0,442.5,285.0,438.0,280.5,432.0,268.5,430.5" stroke="black" stroke-width="1" fill="none" />
<polyline points="267.0,429.0,279.0,424.5,300.0,430.5,309.0,441.0,328.5,447.0,340.5,457.5" stroke="black" stroke-width="1" fill="none" />
<polyline points="345.0,474.0,333.0,466.5,321.0,459.0,309.0,453.0,297.0,448.5,285.0,445.5,273.0,438.0,261.0,438.0" stroke="black" stroke-width="1" fill="none" />
<polyline points="264.0,438.0,276.0,450.0,282.0,462.0,289.5,474.0,291.0,486.0,289.5,498.0" stroke="black" stroke-width="1" fill="none" />
<polyline points="252.0,526.5,247.5,522.0,247.5,510.0,247.5,498.0,240.0,483.0,238.5,471.0,234.0,459.0,222.0,445.5,220.5,433.5,219.0,418.5,207.0,412.5,195.0,418.5,183.0,429.0" stroke="black" stroke-width="1" fill="none" />
<polyline points="184.5,435.0,196.5,448.5" stroke="black" stroke-width="1" fill="none" />
<polyline points="171.0,447.0,183.0,471.0,193.5,486.0" stroke="black" stroke-width="1" fill="none" />
<polyline points="198.0,495.0,192.0,483.0,183.0,471.0,175.5,459.0,171.0,447.0,177.0,432.0,165.0,442.5,153.0,424.5,141.0,406.5,129.0,384.0,117.0,361.5,105.0,345.0" stroke="black" stroke-width="1" fill="none" />
<polyline points="105.0,345.0,112.5,357.0,120.0,369.0,126.0,381.0,133.5,393.0,139.5,405.0,147.0,417.0,156.0,429.0,163.5,441.0,168.0,453.0,174.0,465.0,180.0,477.0,186.0,489.0,192.0,501.0,199.5,513.0,204.0,525.0" stroke="black" stroke-width="1" fill="none" />
<polyline points="199.5,513.0,187.5,490.5,175.5,466.5,163.5,445.5" stroke="black" stroke-width="1" fill="none" />
<polyline points="202.5,474.0,205.5,486.0,207.0,501.0" stroke="black" stroke-width="1" fill="none" />
<polyline points="258.0,432.0,270.0,424.5,282.0,424.5" stroke="black" stroke-width="1" fill="none" />
<polyline points="283.5,429.0,271.5,424.5" stroke="black" stroke-width="1" fill="none" />
<polyline points="253.5,412.5,255.0,424.5,259.5,436.5,265.5,448.5,268.5,454.5,270.0,466.5,274.5,478.5,279.0,490.5,270.0,502.5,271.5,514.5,274.5,526.5,279.0,528.0" stroke="black" stroke-width="1" fill="none" />
<polyline points="294.0,448.5,321.0,460.5,339.0,472.5" stroke="black" stroke-width="1" fill="none" />
<polyline points="312.0,435.0,300.0,423.0,288.0,420.0,276.0,412.5,264.0,408.0,252.0,400.5,240.0,384.0" stroke="black" stroke-width="1" fill="none" />
<polyline points="238.5,382.5,244.5,394.5,247.5,406.5,267.0,409.5,288.0,421.5,301.5,433.5,310.5,433.5,319.5,445.5,325.5,448.5,339.0,457.5" stroke="black" stroke-width="1" fill="none" />
<polyline points="348.0,468.0,336.0,462.0,324.0,456.0,303.0,438.0" stroke="black" stroke-width="1" fill="none" />
<polyline points="247.5,403.5,259.5,417.0,261.0,420.0,264.0,429.0,273.0,433.5,279.0,436.5,307.5,448.5,331.5,460.5,352.5,477.0,357.0,489.0,358.5,501.0,361.5,513.0,364.5,525.0" stroke="black" stroke-width="1" fill="none" />
<polyline points="228.0,408.0,229.5,396.0,234.0,384.0,229.5,391.5" stroke="black" stroke-width="1" fill="none" />
<polyline points="264.0,324.0,276.0,322.5,283.5,321.0,295.5,312.0,307.5,286.5" stroke="black" stroke-width="1" fill="none" />
<polyline points="273.0,295.5,258.0,301.5,246.0,306.0" stroke="black" stroke-width="1" fill="none" />
<polyline points="250.5,292.5,250.5,279.0,256.5,267.0,259.5,255.0,262.5,243.0,282.0,238.5,288.0,226.5,286.5,214.5,282.0,202.5,279.0,190.5,279.0,178.5,286.5,166.5,301.5,163.5,289.5,169.5" stroke="black" stroke-width="1" fill="none" />
<polyline points="285.0,183.0,297.0,181.5,309.0,199.5" stroke="black" stroke-width="1" fill="none" />
<polyline points="312.0,183.0,300.0,175.5,288.0,178.5,286.5,186.0" stroke="black" stroke-width="1" fill="none" />
<polyline points="283.5,193.5,295.5,193.5" stroke="black" stroke-width="1" fill="none" />
<polyline points="277.5,180.0,289.5,162.0,301.5,157.5,313.5,160.5,325.5,166.5" stroke="black" stroke-width="1" fill="none" />
<polyline points="303.0,159.0,300.0,175.5,313.5,187.5,306.0,195.0" stroke="black" stroke-width="1" fill="none" />
<polyline points="322.5,214.5,322.5,226.5,321.0,238.5,316.5,250.5,315.0,262.5,312.0,274.5,307.5,286.5,303.0,298.5,297.0,310.5,289.5,322.5,283.5,334.5,276.0,346.5,258.0,358.5,234.0,370.5,228.0,382.5,217.5,394.5,205.5,406.5,223.5,424.5,228.0,436.5,229.5,448.5,228.0,460.5,232.5,472.5,235.5,484.5,240.0,496.5" stroke="black" stroke-width="1" fill="none" />
<polyline points="190.5,370.5,178.5,361.5,166.5,351.0,154.5,342.0,142.5,330.0,130.5,321.0,118.5,309.0,106.5,294.0" stroke="black" stroke-width="1" fill="none" />
<polyline points="106.5,294.0,115.5,306.0,124.5,318.0,141.0,330.0,153.0,342.0,168.0,354.0,183.0,366.0" stroke="black" stroke-width="1" fill="none" />
<polyline points="207.0,288.0,219.0,286.5,231.0,288.0,243.0,288.0,255.0,289.5,267.0,289.5,279.0,294.0,291.0,282.0,295.5,301.5,288.0,313.5" stroke="black" stroke-width="1" fill="none" />
<polyline points="292.5,306.0,285.0,298.5,264.0,283.5,262.5,270.0,264.0,258.0,279.0,246.0,283.5,237.0,271.5,246.0,264.0,243.0,252.0,244.5,240.0,250.5,232.5,238.5,235.5,226.5,234.0,229.5" stroke="black" stroke-width="1" fill="none" />
<polyline points="238.5,234.0,238.5,234.0,243.0,246.0,256.5,237.0,268.5,238.5" stroke="black" stroke-width="1" fill="none" />
<polyline points="273.0,232.5,277.5,229.5,270.0,226.5,276.0,216.0,271.5,204.0,268.5,192.0,274.5,177.0,262.5,175.5" stroke="black" stroke-width="1" fill="none" />
<polyline points="244.5,163.5,232.5,157.5,220.5,157.5,208.5,160.5,196.5,160.5" stroke="black" stroke-width="1" fill="none" />
<polyline points="192.0,154.5,204.0,150.0,216.0,150.0,210.0,162.0,205.5,166.5,217.5,165.0,229.5,165.0,241.5,166.5" stroke="black" stroke-width="1" fill="none" />
<polyline points="217.5,178.5,205.5,189.0,193.5,183.0,181.5,183.0" stroke="black" stroke-width="1" fill="none" />
<polyline points="192.0,183.0,214.5,195.0,219.0,187.5,228.0,195.0" stroke="black" stroke-width="1" fill="none" />
<polyline points="229.5,201.0,216.0,213.0,222.0,210.0,234.0,201.0" stroke="black" stroke-width="1" fill="none" />
<polyline points="240.0,238.5,240.0,249.0,259.5,249.0,271.5,250.5,283.5,244.5" stroke="black" stroke-width="1" fill="none" />
<polyline points="279.0,249.0,276.0,261.0" stroke="black" stroke-width="1" fill="none" />
<polyline points="288.0,252.0,295.5,264.0,297.0,277.5,283.5,289.5,273.0,301.5,282.0,322.5" stroke="black" stroke-width="1" fill="none" />
<polyline points="273.0,339.0,261.0,351.0,256.5,354.0,268.5,342.0,282.0,336.0,270.0,352.5,258.0,358.5,246.0,364.5,234.0,370.5,222.0,388.5,210.0,402.0,198.0,402.0,186.0,385.5,174.0,375.0,162.0,364.5,150.0,354.0,138.0,345.0,126.0,334.5,114.0,322.5,102.0,309.0,90.0,292.5" stroke="black" stroke-width="1" fill="none" />
<polyline points="87.0,226.5,85.5,214.5,85.5,213.0" stroke="black" stroke-width="1" fill="none" />
<polyline points="70.5,223.5,82.5,244.5" stroke="black" stroke-width="1" fill="none" />
<polyline points="106.5,243.0,105.0,261.0,93.0,255.0,96.0,243.0,100.5,222.0,99.0,210.0,87.0,190.5,75.0,184.5" stroke="black" stroke-width="1" fill="none" />
<polyline points="72.0,184.5,85.5,196.5,82.5,207.0,81.0,219.0,84.0,231.0,91.5,243.0,97.5,259.5,100.5,265.5" stroke="black" stroke-width="1" fill="none" />
<polyline points="109.5,195.0,97.5,181.5,85.5,177.0,73.5,171.0" stroke="black" stroke-width="1" fill="none" />
<polyline points="72.0,184.5,84.0,183.0,96.0,195.0,105.0,213.0,108.0,225.0,112.5,243.0,112.5,255.0" stroke="black" stroke-width="1" fill="none" />
<polyline points="117.0,301.5,112.5,289.5,109.5,277.5,109.5,265.5,106.5,250.5,108.0,241.5,106.5,229.5,94.5,225.0,96.0,213.0,94.5,201.0,94.5,195.0,79.5,183.0,63.0,193.5" stroke="black" stroke-width="1" fill="none" />
<polyline points="75.0,189.0,73.5,201.0,75.0,213.0,76.5,225.0,78.0,226.5,85.5,231.0,90.0,228.0,99.0,228.0" stroke="black" stroke-width="1" fill="none" />
<polyline points="108.0,223.5,111.0,219.0,112.5,207.0,109.5,195.0,99.0,183.0" stroke="black" stroke-width="1" fill="none" />
<polyline points="69.0,100.5,81.0,73.5,93.0,57.0,105.0,46.5,117.0,37.5,129.0,30.0,141.0,22.5,153.0,18.0,165.0,13.5,177.0,13.5,189.0,13.5,201.0,12.0,213.0,13.5,225.0,13.5,237.0,16.5,249.0,19.5,261.0,27.0,274.5,34.5,286.5,48.0,298.5,58.5,310.5,76.5" stroke="black" stroke-width="1" fill="none" />
<polyline points="301.5,63.0,309.0,75.0,315.0,87.0,316.5,99.0,319.5,111.0,318.0,123.0,319.5,135.0,324.0,147.0,324.0,156.0,327.0,172.5,324.0,184.5,321.0,196.5,309.0,208.5,294.0,217.5,295.5,219.0,307.5,211.5,319.5,198.0" stroke="black" stroke-width="1" fill="none" />
<polyline points="291.0,241.5,282.0,253.5,277.5,265.5,286.5,249.0,295.5,262.5" stroke="black" stroke-width="1" fill="none" />
<polyline points="291.0,276.0,279.0,282.0,267.0,282.0,253.5,277.5,241.5,282.0,229.5,283.5,217.5,280.5,205.5,283.5,207.0,288.0,213.0,279.0" stroke="black" stroke-width="1" fill="none" />
<polyline points="195.0,174.0,178.5,180.0,190.5,175.5,202.5,172.5,214.5,171.0,226.5,171.0" stroke="black" stroke-width="1" fill="none" />
<polyline points="268.5,87.0,270.0,75.0" stroke="black" stroke-width="1" fill="none" />
<polyline points="292.5,63.0,294.0,75.0,303.0,87.0,310.5,99.0,315.0,111.0" stroke="black" stroke-width="1" fill="none" />
<polyline points="268.5,46.5,256.5,39.0,244.5,36.0" stroke="black" stroke-width="1" fill="none" />
<polyline points="243.0,30.0,247.5,42.0,253.5,54.0" stroke="black" stroke-width="1" fill="none" />
<polyline points="253.5,31.5,241.5,22.5" stroke="black" stroke-width="1" fill="none" />
<polyline points="243.0,18.0,264.0,30.0,270.0,39.0,283.5,46.5,297.0,58.5,286.5,63.0,286.5,75.0,271.5,87.0,279.0,75.0,295.5,63.0" stroke="black" stroke-width="1" fill="none" />
<polyline points="232.5,43.5,220.5,30.0" stroke="black" stroke-width="1" fill="none" />
<polyline points="217.5,28.5,229.5,31.5,241.5,34.5,249.0,31.5,259.5,43.5,261.0,49.5" stroke="black" stroke-width="1" fill="none" />
<polyline points="232.5,45.0,217.5,37.5" stroke="black" stroke-width="1" fill="none" />
<polyline points="220.5,24.0,223.5,36.0,238.5,39.0,247.5,40.5,255.0,55.5" stroke="black" stroke-width="1" fill="none" />
<polyline points="222.0,73.5,210.0,67.5" stroke="black" stroke-width="1" fill="none" />
<polyline points="193.5,64.5,184.5,73.5,196.5,64.5,208.5,66.0,220.5,64.5,232.5,69.0,244.5,73.5,256.5,78.0,268.5,87.0,280.5,81.0,300.0,81.0,312.0,99.0" stroke="black" stroke-width="1" fill="none" />
<polyline points="189.0,63.0,177.0,60.0,165.0,66.0,153.0,69.0,150.0,81.0,138.0,85.5,135.0,93.0" stroke="black" stroke-width="1" fill="none" />
<polyline points="153.0,69.0,148.5,81.0,135.0,99.0,129.0,111.0,124.5,121.5,123.0,135.0,129.0,141.0,124.5,153.0,133.5,166.5,127.5,178.5,127.5,190.5,115.5,199.5,127.5,190.5,129.0,177.0" stroke="black" stroke-width="1" fill="none" />
<polyline points="40.5,342.0,18.0,354.0,1.5,366.0,10.5,361.5,22.5,352.5,34.5,345.0" stroke="black" stroke-width="1" fill="none" />
<polyline points="42.0,343.5,45.0,355.5,49.5,367.5,54.0,379.5,60.0,391.5,64.5,403.5,43.5,415.5,15.0,427.5,3.0,433.5,15.0,427.5,27.0,421.5,39.0,417.0,51.0,412.5,63.0,408.0" stroke="black" stroke-width="1" fill="none" />
<polyline points="66.0,418.5,70.5,430.5,73.5,442.5,75.0,454.5,90.0,463.5,102.0,469.5,114.0,477.0,123.0,484.5" stroke="black" stroke-width="1" fill="none" />
<polyline points="117.0,486.0,105.0,477.0" stroke="black" stroke-width="1" fill="none" />
<polyline points="96.0,502.5,84.0,499.5" stroke="black" stroke-width="1" fill="none" />
<polyline points="85.5,498.0,85.5,510.0,93.0,522.0" stroke="black" stroke-width="1" fill="none" />
<polyline points="97.5,525.0,102.0,513.0,91.5,501.0" stroke="black" stroke-width="1" fill="none" />
<polyline points="49.5,480.0,37.5,463.5" stroke="black" stroke-width="1" fill="none" />
<polyline points="37.5,463.5,45.0,475.5,54.0,487.5,58.5,499.5,60.0,511.5,63.0,523.5" stroke="black" stroke-width="1" fill="none" />
<polyline points="12.0,505.5,0.0,486.0" stroke="black" stroke-width="1" fill="none" />
<polyline points="1.5,486.0,7.5,498.0,13.5,510.0,18.0,522.0" stroke="black" stroke-width="1" fill="none" />
<polyline points="58.5,388.5,46.5,358.5" stroke="black" stroke-width="1" fill="none" />
<polyline points="64.5,382.5,67.5,394.5,70.5,406.5,73.5,418.5,76.5,430.5,79.5,442.5,82.5,454.5,97.5,468.0,105.0,477.0,120.0,489.0,123.0,501.0,121.5,513.0,120.0,525.0" stroke="black" stroke-width="1" fill="none" />
<polyline points="100.5,396.0,88.5,390.0,76.5,384.0,64.5,382.5" stroke="black" stroke-width="1" fill="none" />
<polyline points="72.0,384.0,99.0,396.0,109.5,408.0,111.0,420.0,115.5,432.0,117.0,444.0,120.0,456.0,123.0,468.0,118.5,480.0,127.5,493.5,126.0,505.5,124.5,517.5,123.0,529.5" stroke="black" stroke-width="1" fill="none" />
</svg>