<svg xmlns="http://www.w3.org/2000/svg" height="545px" width="396px" version="1.1"><polyline points="201.0,85.5,175.5,97.5,153.0,109.5,129.0,121.5,105.0,133.5,82.5,145.5,60.0,157.5,60.0,169.5,60.0,181.5,58.5,193.5,58.5,205.5,61.5,217.5,66.0,234.0,66.0,246.0,66.0,258.0,66.0,276.0,66.0,288.0,66.0,300.0,70.5,301.5,76.5,303.0,73.5,297.0,84.0,292.5,112.5,289.5,118.5,273.0" stroke="black" stroke-width="1" fill="none" />
<polyline points="112.5,265.5,120.0,268.5,115.5,280.5,118.5,283.5,114.0,304.5,126.0,303.0,133.5,300.0,147.0,297.0,159.0,298.5,165.0,315.0,165.0,327.0,165.0,339.0,157.5,357.0,157.5,369.0,157.5,381.0,157.5,393.0,154.5,399.0,165.0,402.0" stroke="black" stroke-width="1" fill="none" />
<polyline points="153.0,412.5,153.0,424.5,151.5,436.5,145.5,448.5,135.0,453.0,145.5,457.5" stroke="black" stroke-width="1" fill="none" />
<polyline points="151.5,444.0,151.5,456.0,160.5,450.0" stroke="black" stroke-width="1" fill="none" />
<polyline points="171.0,427.5,183.0,429.0" stroke="black" stroke-width="1" fill="none" />
<polyline points="178.5,412.5,172.5,418.5,178.5,430.5,169.5,450.0,166.5,453.0" stroke="black" stroke-width="1" fill="none" />
<polyline points="208.5,480.0,220.5,480.0,232.5,480.0,244.5,481.5,256.5,483.0,268.5,483.0,280.5,484.5,292.5,484.5,304.5,474.0,316.5,477.0,328.5,475.5,340.5,478.5" stroke="black" stroke-width="1" fill="none" />
<polyline points="339.0,466.5,351.0,466.5,363.0,468.0,375.0,472.5" stroke="black" stroke-width="1" fill="none" />
<polyline points="393.0,469.5,387.0,460.5,391.5,453.0" stroke="black" stroke-width="1" fill="none" />
<polyline points="384.0,453.0,384.0,465.0,384.0,474.0" stroke="black" stroke-width="1" fill="none" />
<polyline points="352.5,441.0,357.0,441.0,354.0,427.5,346.5,429.0" stroke="black" stroke-width="1" fill="none" />
<polyline points="358.5,436.5,360.0,424.5" stroke="black" stroke-width="1" fill="none" />
<polyline points="340.5,405.0,328.5,415.5,322.5,426.0,313.5,439.5,304.5,450.0,310.5,447.0,321.0,456.0,307.5,456.0,315.0,447.0,322.5,444.0,328.5,436.5,324.0,429.0,336.0,411.0,345.0,409.5,346.5,397.5,340.5,393.0,336.0,391.5,327.0,384.0,315.0,379.5,313.5,361.5,313.5,349.5,310.5,348.0,309.0,336.0,303.0,315.0,303.0,303.0,312.0,297.0,313.5,285.0,313.5,273.0,322.5,261.0,319.5,246.0,328.5,238.5,316.5,222.0,304.5,208.5" stroke="black" stroke-width="1" fill="none" />
<polyline points="304.5,208.5,313.5,220.5,312.0,232.5,310.5,244.5,307.5,246.0,297.0,253.5,297.0,265.5,289.5,274.5" stroke="black" stroke-width="1" fill="none" />
<polyline points="279.0,285.0,279.0,297.0,279.0,309.0,268.5,327.0,268.5,339.0,268.5,351.0" stroke="black" stroke-width="1" fill="none" />
<polyline points="273.0,345.0,274.5,357.0,271.5,369.0,270.0,381.0,264.0,384.0,276.0,390.0,261.0,399.0,261.0,412.5,261.0,417.0,255.0,423.0,258.0,435.0,252.0,444.0,264.0,448.5,267.0,459.0,277.5,463.5,288.0,466.5,300.0,465.0,312.0,466.5,324.0,463.5,336.0,465.0,348.0,462.0,355.5,451.5,367.5,451.5,369.0,462.0,381.0,459.0,391.5,462.0,396.0,457.5" stroke="black" stroke-width="1" fill="none" />
<polyline points="394.5,385.5,382.5,399.0,372.0,385.5,351.0,379.5,334.5,370.5,322.5,369.0" stroke="black" stroke-width="1" fill="none" />
<polyline points="330.0,348.0,318.0,340.5,319.5,330.0,318.0,318.0,333.0,306.0,333.0,294.0,333.0,282.0,319.5,267.0,327.0,258.0,327.0,246.0,324.0,234.0,324.0,217.5,312.0,201.0,300.0,184.5,288.0,169.5,276.0,154.5,264.0,148.5,252.0,144.0,240.0,132.0,228.0,115.5,216.0,100.5,204.0,87.0,192.0,90.0,180.0,96.0,168.0,102.0,156.0,108.0,144.0,114.0,132.0,120.0,120.0,126.0,108.0,132.0,96.0,138.0,84.0,145.5,72.0,151.5,60.0,157.5" stroke="black" stroke-width="1" fill="none" />
<polyline points="58.5,175.5,70.5,171.0,82.5,165.0,94.5,159.0,106.5,154.5,118.5,148.5,130.5,141.0,142.5,135.0,154.5,130.5,166.5,124.5,178.5,118.5,190.5,114.0,201.0,120.0,202.5,132.0" stroke="black" stroke-width="1" fill="none" />
<polyline points="208.5,120.0,210.0,121.5,210.0,133.5,210.0,145.5,210.0,157.5,210.0,177.0,211.5,189.0,210.0,201.0,211.5,213.0,211.5,234.0,211.5,246.0,210.0,258.0,211.5,270.0,211.5,282.0,225.0,280.5,220.5,301.5,220.5,313.5,222.0,325.5,220.5,337.5,222.0,357.0,222.0,369.0,222.0,381.0,220.5,393.0,214.5,396.0,211.5,408.0,204.0,423.0,192.0,430.5,205.5,439.5,210.0,451.5,208.5,463.5,214.5,450.0,226.5,441.0,235.5,433.5,244.5,444.0,256.5,451.5,271.5,456.0,282.0,447.0,289.5,448.5" stroke="black" stroke-width="1" fill="none" />
<polyline points="303.0,478.5,304.5,481.5,316.5,483.0,325.5,495.0,337.5,493.5,349.5,496.5,361.5,496.5,373.5,498.0,384.0,499.5,396.0,499.5" stroke="black" stroke-width="1" fill="none" />
<polyline points="328.5,480.0,321.0,487.5,309.0,486.0,297.0,484.5" stroke="black" stroke-width="1" fill="none" />
<polyline points="283.5,457.5,276.0,450.0,277.5,438.0,279.0,426.0,279.0,412.5,288.0,402.0,288.0,390.0,277.5,381.0,273.0,379.5" stroke="black" stroke-width="1" fill="none" />
<polyline points="282.0,354.0,283.5,342.0,291.0,340.5,295.5,337.5,283.5,334.5" stroke="black" stroke-width="1" fill="none" />
<polyline points="274.5,334.5,277.5,340.5,279.0,352.5,289.5,361.5,286.5,369.0,295.5,378.0" stroke="black" stroke-width="1" fill="none" />
<polyline points="297.0,361.5,295.5,349.5,295.5,337.5,297.0,330.0,285.0,327.0,273.0,325.5" stroke="black" stroke-width="1" fill="none" />
<polyline points="274.5,297.0,273.0,285.0,274.5,277.5" stroke="black" stroke-width="1" fill="none" />
<polyline points="270.0,279.0,268.5,291.0,268.5,303.0,273.0,304.5,274.5,316.5,265.5,330.0,265.5,342.0,265.5,354.0" stroke="black" stroke-width="1" fill="none" />
<polyline points="252.0,351.0,252.0,339.0,261.0,331.5,261.0,319.5,265.5,303.0,265.5,291.0,265.5,279.0,270.0,264.0,274.5,256.5,276.0,244.5,273.0,225.0,261.0,220.5" stroke="black" stroke-width="1" fill="none" />
<polyline points="255.0,223.5,256.5,235.5" stroke="black" stroke-width="1" fill="none" />
<polyline points="253.5,222.0,249.0,234.0,258.0,241.5,256.5,253.5,249.0,264.0,249.0,276.0,249.0,288.0" stroke="black" stroke-width="1" fill="none" />
<polyline points="256.5,271.5,268.5,273.0,280.5,276.0,292.5,282.0,300.0,297.0,300.0,309.0,300.0,321.0" stroke="black" stroke-width="1" fill="none" />
<polyline points="301.5,337.5,301.5,349.5" stroke="black" stroke-width="1" fill="none" />
<polyline points="327.0,309.0,315.0,301.5" stroke="black" stroke-width="1" fill="none" />
<polyline points="315.0,301.5,313.5,313.5,313.5,325.5,321.0,337.5,328.5,358.5,322.5,357.0" stroke="black" stroke-width="1" fill="none" />
<polyline points="346.5,372.0,337.5,375.0,345.0,387.0,361.5,384.0,367.5,382.5,367.5,394.5,378.0,397.5" stroke="black" stroke-width="1" fill="none" />
<polyline points="360.0,390.0,351.0,402.0,355.5,414.0,340.5,426.0,345.0,426.0,348.0,438.0,351.0,441.0,357.0,454.5,352.5,460.5,357.0,463.5" stroke="black" stroke-width="1" fill="none" />
<polyline points="336.0,486.0,324.0,490.5,312.0,493.5,300.0,492.0,288.0,492.0,276.0,487.5,264.0,487.5" stroke="black" stroke-width="1" fill="none" />
<polyline points="255.0,451.5,258.0,439.5,253.5,438.0" stroke="black" stroke-width="1" fill="none" />
<polyline points="259.5,418.5,271.5,414.0,288.0,412.5" stroke="black" stroke-width="1" fill="none" />
<polyline points="295.5,408.0,295.5,420.0,300.0,424.5,291.0,435.0,291.0,447.0" stroke="black" stroke-width="1" fill="none" />
<polyline points="285.0,457.5,274.5,468.0,262.5,468.0,250.5,469.5,238.5,471.0,226.5,471.0,214.5,472.5,202.5,474.0,190.5,474.0,192.0,468.0,187.5,454.5,195.0,448.5,202.5,433.5,211.5,432.0,213.0,423.0,235.5,418.5,235.5,406.5,237.0,394.5,237.0,382.5,237.0,370.5,235.5,358.5,232.5,337.5,232.5,325.5,231.0,313.5,235.5,294.0,237.0,282.0,235.5,270.0,235.5,258.0,244.5,240.0,244.5,228.0,244.5,216.0,252.0,204.0,249.0,192.0,249.0,180.0,249.0,168.0,249.0,163.5" stroke="black" stroke-width="1" fill="none" />
<polyline points="252.0,165.0,255.0,177.0,256.5,189.0,256.5,195.0,253.5,190.5,265.5,196.5" stroke="black" stroke-width="1" fill="none" />
<polyline points="277.5,213.0,277.5,201.0,277.5,189.0,277.5,177.0,276.0,171.0,264.0,168.0" stroke="black" stroke-width="1" fill="none" />
<polyline points="264.0,168.0,264.0,180.0,273.0,184.5,273.0,196.5,271.5,208.5,280.5,213.0,282.0,228.0,271.5,240.0,268.5,247.5,271.5,253.5,267.0,265.5,256.5,277.5,258.0,289.5,256.5,301.5,249.0,315.0,249.0,327.0,249.0,339.0,249.0,351.0,241.5,364.5,241.5,376.5,240.0,388.5,253.5,387.0,271.5,378.0,273.0,364.5,285.0,361.5,283.5,366.0,289.5,372.0,300.0,376.5,319.5,378.0,331.5,384.0,334.5,376.5,337.5,363.0,349.5,373.5,348.0,391.5,360.0,385.5,363.0,387.0,355.5,405.0,357.0,411.0" stroke="black" stroke-width="1" fill="none" />
<polyline points="387.0,396.0,396.0,384.0" stroke="black" stroke-width="1" fill="none" />
<polyline points="322.5,298.5,310.5,295.5" stroke="black" stroke-width="1" fill="none" />
<polyline points="307.5,295.5,307.5,307.5,307.5,319.5,321.0,337.5" stroke="black" stroke-width="1" fill="none" />
<polyline points="325.5,271.5,313.5,262.5" stroke="black" stroke-width="1" fill="none" />
<polyline points="322.5,249.0,322.5,237.0" stroke="black" stroke-width="1" fill="none" />
<polyline points="315.0,228.0,315.0,240.0,315.0,252.0,324.0,264.0,310.5,271.5,310.5,283.5,318.0,285.0,318.0,297.0,324.0,315.0,327.0,336.0,321.0,351.0,325.5,354.0,324.0,366.0,330.0,382.5,325.5,388.5,330.0,397.5,330.0,409.5,321.0,421.5,331.5,420.0,337.5,429.0,337.5,441.0,337.5,453.0,330.0,454.5,346.5,481.5,340.5,490.5,349.5,483.0,361.5,490.5" stroke="black" stroke-width="1" fill="none" />
<polyline points="235.5,475.5,223.5,475.5" stroke="black" stroke-width="1" fill="none" />
<polyline points="217.5,456.0,223.5,450.0,219.0,445.5,229.5,436.5,234.0,424.5,219.0,415.5" stroke="black" stroke-width="1" fill="none" />
<polyline points="229.5,387.0,226.5,400.5,223.5,399.0,214.5,402.0,216.0,405.0,228.0,403.5,231.0,397.5,232.5,385.5,232.5,373.5,232.5,361.5,241.5,345.0,241.5,333.0,241.5,321.0,241.5,309.0,241.5,297.0,241.5,285.0,241.5,273.0,241.5,261.0,252.0,250.5,241.5,244.5,241.5,232.5,240.0,220.5,240.0,208.5,243.0,196.5,243.0,184.5,243.0,172.5,243.0,160.5,238.5,154.5" stroke="black" stroke-width="1" fill="none" />
<polyline points="234.0,145.5,234.0,157.5,238.5,157.5,238.5,169.5,238.5,181.5,240.0,193.5,229.5,199.5,231.0,211.5,229.5,223.5,231.0,235.5,231.0,250.5,232.5,262.5,231.0,274.5,232.5,286.5,225.0,303.0,225.0,315.0,225.0,327.0,225.0,339.0" stroke="black" stroke-width="1" fill="none" />
<polyline points="237.0,336.0,235.5,324.0,235.5,312.0,232.5,303.0" stroke="black" stroke-width="1" fill="none" />
<polyline points="210.0,295.5,214.5,297.0,214.5,309.0,213.0,321.0,214.5,333.0" stroke="black" stroke-width="1" fill="none" />
<polyline points="192.0,337.5,193.5,325.5,192.0,313.5,193.5,301.5,192.0,289.5,180.0,291.0,168.0,294.0,162.0,286.5,151.5,286.5,139.5,295.5,127.5,298.5,120.0,298.5,120.0,289.5,126.0,286.5,127.5,274.5,127.5,262.5,121.5,250.5,115.5,237.0,120.0,225.0,111.0,237.0,111.0,225.0,111.0,213.0,114.0,213.0,115.5,196.5,115.5,184.5,117.0,172.5,115.5,169.5,114.0,163.5" stroke="black" stroke-width="1" fill="none" />
<polyline points="112.5,154.5,127.5,153.0,127.5,165.0,127.5,177.0" stroke="black" stroke-width="1" fill="none" />
<polyline points="121.5,174.0,120.0,186.0" stroke="black" stroke-width="1" fill="none" />
<polyline points="129.0,199.5,130.5,211.5" stroke="black" stroke-width="1" fill="none" />
<polyline points="118.5,210.0,115.5,222.0" stroke="black" stroke-width="1" fill="none" />
<polyline points="102.0,208.5,103.5,220.5,103.5,232.5,103.5,244.5,97.5,265.5,99.0,277.5,99.0,289.5,106.5,301.5,111.0,313.5,111.0,325.5,111.0,337.5,103.5,346.5,97.5,364.5,97.5,376.5,93.0,388.5,90.0,405.0,99.0,405.0,111.0,396.0" stroke="black" stroke-width="1" fill="none" />
<polyline points="115.5,387.0,100.5,382.5" stroke="black" stroke-width="1" fill="none" />
<polyline points="100.5,382.5,103.5,394.5" stroke="black" stroke-width="1" fill="none" />
<polyline points="97.5,397.5,97.5,385.5" stroke="black" stroke-width="1" fill="none" />
<polyline points="79.5,375.0,76.5,375.0,78.0,354.0,73.5,348.0,70.5,348.0,66.0,342.0,66.0,331.5,64.5,319.5,60.0,318.0" stroke="black" stroke-width="1" fill="none" />
<polyline points="60.0,315.0,72.0,313.5,84.0,310.5,96.0,309.0,108.0,306.0,117.0,321.0,120.0,333.0,115.5,336.0,115.5,348.0,111.0,364.5,111.0,376.5,111.0,388.5,114.0,409.5,108.0,421.5,108.0,433.5,108.0,445.5,103.5,457.5,115.5,453.0,124.5,457.5" stroke="black" stroke-width="1" fill="none" />
<polyline points="100.5,445.5,100.5,433.5,100.5,421.5,96.0,400.5,84.0,400.5,70.5,403.5,63.0,394.5,57.0,399.0,45.0,406.5,39.0,405.0,34.5,405.0,46.5,399.0,46.5,390.0,34.5,388.5" stroke="black" stroke-width="1" fill="none" />
<polyline points="43.5,378.0,52.5,363.0,54.0,376.5,66.0,363.0,78.0,361.5,90.0,360.0,103.5,358.5,115.5,355.5" stroke="black" stroke-width="1" fill="none" />
<polyline points="117.0,352.5,105.0,354.0,93.0,355.5,81.0,355.5" stroke="black" stroke-width="1" fill="none" />
<polyline points="93.0,349.5,76.5,342.0,75.0,352.5,63.0,358.5" stroke="black" stroke-width="1" fill="none" />
<polyline points="61.5,361.5,66.0,373.5,67.5,385.5,67.5,396.0,70.5,408.0,66.0,420.0,66.0,432.0,66.0,442.5,52.5,448.5,52.5,456.0,63.0,454.5,85.5,459.0,91.5,459.0" stroke="black" stroke-width="1" fill="none" />
<polyline points="81.0,442.5,85.5,439.5" stroke="black" stroke-width="1" fill="none" />
<polyline points="76.5,412.5,88.5,411.0,100.5,411.0,118.5,409.5" stroke="black" stroke-width="1" fill="none" />
<polyline points="124.5,411.0,127.5,423.0,127.5,435.0,127.5,447.0,120.0,448.5,112.5,459.0,130.5,447.0,142.5,456.0,148.5,454.5,165.0,459.0,169.5,447.0" stroke="black" stroke-width="1" fill="none" />
<polyline points="180.0,502.5,192.0,502.5,205.5,504.0,219.0,505.5,231.0,507.0,244.5,508.5,256.5,510.0,268.5,511.5,280.5,511.5,294.0,513.0,307.5,514.5,321.0,516.0,334.5,517.5,346.5,519.0,361.5,520.5,375.0,522.0,387.0,523.5" stroke="black" stroke-width="1" fill="none" />
<polyline points="253.5,454.5,243.0,450.0,231.0,459.0,229.5,445.5,204.0,448.5,196.5,447.0,192.0,454.5,175.5,456.0,174.0,465.0,172.5,454.5,180.0,454.5,187.5,442.5,187.5,430.5,187.5,421.5,198.0,409.5,208.5,402.0,196.5,397.5,205.5,396.0,204.0,387.0,211.5,382.5,210.0,370.5,211.5,358.5,211.5,339.0,211.5,327.0,210.0,315.0,211.5,303.0,211.5,291.0,225.0,276.0,216.0,267.0,213.0,256.5,216.0,244.5,223.5,232.5,220.5,220.5,220.5,208.5,220.5,196.5,222.0,184.5,220.5,171.0,222.0,159.0,220.5,147.0,219.0,135.0,219.0,135.0" stroke="black" stroke-width="1" fill="none" />
<polyline points="223.5,133.5,225.0,145.5,226.5,157.5,226.5,169.5,226.5,181.5,226.5,193.5,225.0,205.5,225.0,217.5,225.0,229.5,222.0,247.5,220.5,259.5,222.0,271.5" stroke="black" stroke-width="1" fill="none" />
<polyline points="222.0,261.0,223.5,250.5,220.5,243.0" stroke="black" stroke-width="1" fill="none" />
<polyline points="192.0,238.5,192.0,250.5,187.5,262.5" stroke="black" stroke-width="1" fill="none" />
<polyline points="181.5,238.5,183.0,250.5,181.5,262.5,180.0,274.5,174.0,294.0,169.5,306.0,174.0,318.0,174.0,330.0,172.5,351.0,174.0,363.0,174.0,375.0,174.0,387.0,168.0,402.0,184.5,396.0,198.0,388.5,201.0,391.5,213.0,388.5" stroke="black" stroke-width="1" fill="none" />
<polyline points="187.5,391.5,187.5,379.5" stroke="black" stroke-width="1" fill="none" />
<polyline points="181.5,387.0,181.5,375.0,183.0,363.0,177.0,351.0,169.5,349.5,157.5,352.5,145.5,352.5,133.5,355.5,126.0,342.0,126.0,330.0,126.0,318.0,127.5,306.0,111.0,310.5,114.0,325.5" stroke="black" stroke-width="1" fill="none" />
<polyline points="97.5,328.5,103.5,328.5,103.5,340.5" stroke="black" stroke-width="1" fill="none" />
<polyline points="118.5,363.0,115.5,363.0,120.0,375.0,121.5,387.0,120.0,399.0" stroke="black" stroke-width="1" fill="none" />
<polyline points="135.0,399.0,141.0,397.5,141.0,385.5,141.0,373.5,141.0,361.5,145.5,357.0" stroke="black" stroke-width="1" fill="none" />
<polyline points="145.5,357.0,148.5,369.0,135.0,375.0,135.0,387.0" stroke="black" stroke-width="1" fill="none" />
<polyline points="148.5,384.0,148.5,396.0" stroke="black" stroke-width="1" fill="none" />
<polyline points="165.0,390.0,169.5,388.5,165.0,379.5,165.0,367.5,165.0,355.5" stroke="black" stroke-width="1" fill="none" />
<polyline points="192.0,360.0,193.5,372.0,192.0,384.0,190.5,396.0,198.0,402.0" stroke="black" stroke-width="1" fill="none" />
<polyline points="214.5,385.5,214.5,373.5,214.5,361.5" stroke="black" stroke-width="1" fill="none" />
<polyline points="225.0,360.0,225.0,372.0,225.0,384.0,225.0,397.5,219.0,411.0,231.0,411.0,250.5,423.0,264.0,406.5,282.0,420.0,292.5,408.0,295.5,397.5" stroke="black" stroke-width="1" fill="none" />
<polyline points="247.5,414.0,241.5,400.5,244.5,388.5,246.0,376.5,246.0,364.5,249.0,363.0" stroke="black" stroke-width="1" fill="none" />
<polyline points="279.0,285.0,291.0,286.5,307.5,294.0,322.5,289.5" stroke="black" stroke-width="1" fill="none" />
<polyline points="295.5,240.0,283.5,228.0,271.5,219.0,262.5,216.0,250.5,213.0,234.0,196.5,220.5,183.0,229.5,172.5,231.0,160.5,231.0,148.5,229.5,147.0" stroke="black" stroke-width="1" fill="none" />
<polyline points="232.5,168.0,234.0,180.0" stroke="black" stroke-width="1" fill="none" />
<polyline points="234.0,198.0,234.0,210.0,234.0,222.0,235.5,234.0,237.0,252.0,246.0,259.5" stroke="black" stroke-width="1" fill="none" />
<polyline points="244.5,259.5,244.5,271.5,246.0,283.5,246.0,295.5,246.0,310.5,246.0,322.5,246.0,334.5,246.0,346.5,249.0,357.0,258.0,364.5,268.5,358.5" stroke="black" stroke-width="1" fill="none" />
<polyline points="252.0,274.5,261.0,261.0,261.0,249.0,261.0,237.0,270.0,225.0,250.5,220.5" stroke="black" stroke-width="1" fill="none" />
<polyline points="291.0,223.5,292.5,211.5,291.0,199.5,295.5,199.5,291.0,190.5" stroke="black" stroke-width="1" fill="none" />
<polyline points="286.5,184.5,288.0,196.5,288.0,208.5,288.0,220.5,295.5,225.0,283.5,241.5,283.5,253.5,283.5,265.5,291.0,282.0,286.5,292.5,286.5,304.5,289.5,309.0,292.5,321.0" stroke="black" stroke-width="1" fill="none" />
<polyline points="261.0,271.5,261.0,283.5,261.0,295.5,261.0,307.5,258.0,319.5,258.0,331.5,258.0,343.5,258.0,355.5,261.0,355.5,258.0,366.0,258.0,378.0,261.0,379.5,256.5,391.5,253.5,403.5,247.5,406.5,238.5,418.5,243.0,430.5,234.0,436.5,238.5,448.5,226.5,454.5,241.5,468.0" stroke="black" stroke-width="1" fill="none" />
<polyline points="283.5,540.0,271.5,538.5,259.5,535.5,247.5,538.5,235.5,535.5,229.5,529.5,214.5,531.0,202.5,528.0,190.5,526.5,178.5,523.5,166.5,523.5,154.5,522.0,142.5,523.5" stroke="black" stroke-width="1" fill="none" />
<polyline points="151.5,535.5,139.5,534.0,127.5,531.0" stroke="black" stroke-width="1" fill="none" />
<polyline points="91.5,519.0,79.5,519.0" stroke="black" stroke-width="1" fill="none" />
<polyline points="105.0,517.5,93.0,520.5,84.0,508.5,72.0,510.0,60.0,510.0,48.0,510.0,36.0,508.5" stroke="black" stroke-width="1" fill="none" />
<polyline points="40.5,487.5,52.5,487.5,69.0,490.5,81.0,487.5,93.0,489.0,105.0,489.0,117.0,490.5,129.0,492.0,141.0,493.5,153.0,495.0,165.0,496.5,177.0,498.0,189.0,498.0,201.0,499.5,213.0,501.0,225.0,502.5,237.0,504.0,249.0,504.0,261.0,505.5,273.0,507.0,285.0,508.5,297.0,510.0,309.0,511.5,321.0,513.0,333.0,513.0,345.0,514.5,357.0,516.0,369.0,517.5,381.0,517.5,393.0,519.0" stroke="black" stroke-width="1" fill="none" />
<polyline points="183.0,334.5,183.0,322.5,184.5,310.5,183.0,298.5,177.0,295.5" stroke="black" stroke-width="1" fill="none" />
<polyline points="130.5,309.0,130.5,313.5,135.0,315.0,130.5,327.0,135.0,327.0,132.0,339.0" stroke="black" stroke-width="1" fill="none" />
<polyline points="100.5,300.0,88.5,301.5,76.5,298.5,75.0,291.0" stroke="black" stroke-width="1" fill="none" />
<polyline points="63.0,310.5,75.0,304.5,85.5,306.0,97.5,304.5,109.5,301.5,111.0,291.0" stroke="black" stroke-width="1" fill="none" />
<polyline points="103.5,259.5,103.5,271.5,102.0,283.5,103.5,294.0,99.0,313.5,97.5,325.5,97.5,337.5,99.0,342.0,103.5,345.0,112.5,349.5,126.0,351.0,133.5,351.0,145.5,340.5" stroke="black" stroke-width="1" fill="none" />
<polyline points="72.0,391.5,73.5,403.5,75.0,415.5,73.5,427.5,75.0,438.0,73.5,450.0,88.5,453.0" stroke="black" stroke-width="1" fill="none" />
<polyline points="52.5,469.5,64.5,471.0,81.0,472.5,97.5,472.5,109.5,474.0,121.5,474.0,133.5,474.0,145.5,472.5,154.5,475.5,166.5,477.0,178.5,475.5,190.5,469.5,201.0,459.0" stroke="black" stroke-width="1" fill="none" />
<polyline points="139.5,543.0,127.5,541.5,115.5,538.5,103.5,537.0,91.5,535.5,72.0,531.0,60.0,528.0,48.0,526.5,36.0,523.5,24.0,522.0,12.0,519.0,0.0,517.5" stroke="black" stroke-width="1" fill="none" />
<polyline points="0.0,513.0,12.0,516.0,24.0,517.5,36.0,520.5,48.0,522.0,60.0,525.0,72.0,526.5,84.0,529.5,96.0,532.5,108.0,534.0,120.0,535.5,132.0,538.5,144.0,540.0,156.0,543.0,163.5,544.5,175.5,541.5,193.5,543.0" stroke="black" stroke-width="1" fill="none" />
<polyline points="34.5,483.0,46.5,484.5,57.0,489.0,69.0,486.0,82.5,490.5,97.5,493.5,109.5,493.5,121.5,495.0,135.0,496.5,148.5,498.0,162.0,499.5,174.0,501.0,177.0,493.5,189.0,493.5,201.0,496.5,213.0,496.5,225.0,498.0,237.0,498.0,249.0,501.0,261.0,501.0,273.0,501.0,285.0,502.5,297.0,504.0,309.0,505.5,321.0,505.5,333.0,507.0,345.0,508.5,357.0,510.0,369.0,511.5,381.0,511.5,393.0,513.0" stroke="black" stroke-width="1" fill="none" />
<polyline points="382.5,544.5,370.5,543.0,358.5,543.0,346.5,541.5,336.0,538.5,324.0,537.0,312.0,535.5,300.0,534.0,288.0,532.5,276.0,531.0,264.0,529.5,252.0,531.0,240.0,528.0,228.0,523.5,216.0,523.5,204.0,522.0,192.0,520.5,180.0,519.0,168.0,516.0,156.0,514.5,144.0,513.0,132.0,511.5,120.0,510.0,108.0,508.5,96.0,507.0,84.0,504.0,72.0,502.5,60.0,501.0,48.0,499.5,36.0,498.0,24.0,496.5,12.0,495.0,0.0,493.5" stroke="black" stroke-width="1" fill="none" />
<polyline points="0.0,489.0,12.0,490.5,24.0,492.0,36.0,495.0,48.0,496.5,60.0,498.0,72.0,499.5,84.0,501.0,96.0,502.5,108.0,504.0,120.0,505.5,132.0,507.0,144.0,508.5,156.0,510.0,168.0,511.5,180.0,513.0,192.0,514.5,204.0,516.0,216.0,517.5,228.0,519.0,240.0,522.0,252.0,522.0,264.0,525.0,276.0,525.0,288.0,528.0,300.0,529.5,312.0,531.0,324.0,532.5,336.0,534.0,348.0,534.0,360.0,537.0,372.0,537.0,384.0,540.0,396.0,540.0" stroke="black" stroke-width="1" fill="none" />
<polyline points="63.0,505.5,51.0,505.5,39.0,505.5,27.0,507.0,22.5,505.5,12.0,501.0,0.0,499.5" stroke="black" stroke-width="1" fill="none" />
<polyline points="0.0,502.5,12.0,504.0" stroke="black" stroke-width="1" fill="none" />
<polyline points="0.0,481.5,3.0,475.5,15.0,478.5,27.0,478.5,39.0,480.0,51.0,480.0,63.0,481.5,75.0,483.0,87.0,483.0,99.0,486.0,111.0,486.0,123.0,487.5,135.0,489.0,147.0,490.5,159.0,492.0,171.0,487.5,183.0,487.5" stroke="black" stroke-width="1" fill="none" />
<polyline points="171.0,471.0,159.0,471.0,147.0,469.5,135.0,469.5,123.0,468.0,111.0,468.0,99.0,466.5,87.0,466.5,75.0,466.5,63.0,465.0,51.0,465.0,39.0,463.5,27.0,462.0,18.0,457.5,12.0,450.0,0.0,460.5" stroke="black" stroke-width="1" fill="none" />
<polyline points="4.5,442.5,10.5,442.5,16.5,433.5,12.0,421.5,15.0,411.0,6.0,394.5,18.0,388.5,18.0,387.0" stroke="black" stroke-width="1" fill="none" />
<polyline points="0.0,393.0,12.0,399.0,24.0,391.5,36.0,382.5,48.0,385.5,60.0,376.5,55.5,382.5,58.5,394.5,51.0,402.0,37.5,411.0,36.0,426.0,37.5,438.0,48.0,438.0" stroke="black" stroke-width="1" fill="none" />
<polyline points="46.5,444.0,52.5,435.0,45.0,432.0,48.0,417.0,57.0,409.5,61.5,409.5,49.5,409.5" stroke="black" stroke-width="1" fill="none" />
<polyline points="52.5,420.0,48.0,414.0,43.5,409.5,28.5,411.0,21.0,412.5,9.0,405.0" stroke="black" stroke-width="1" fill="none" />
<polyline points="4.5,414.0,6.0,424.5,7.5,423.0,3.0,435.0" stroke="black" stroke-width="1" fill="none" />
<polyline points="16.5,420.0,28.5,420.0,33.0,430.5,45.0,432.0" stroke="black" stroke-width="1" fill="none" />
<polyline points="61.5,421.5,60.0,433.5,60.0,445.5,66.0,453.0" stroke="black" stroke-width="1" fill="none" />
<polyline points="45.0,456.0,33.0,453.0,21.0,450.0,19.5,454.5,12.0,450.0,13.5,444.0,25.5,429.0,34.5,418.5,28.5,417.0,30.0,409.5,31.5,397.5,42.0,393.0,49.5,384.0,42.0,376.5,52.5,364.5,42.0,373.5" stroke="black" stroke-width="1" fill="none" />
<polyline points="67.5,267.0,79.5,264.0,91.5,259.5,103.5,256.5,115.5,252.0,127.5,249.0,139.5,246.0,151.5,241.5" stroke="black" stroke-width="1" fill="none" />
<polyline points="144.0,240.0,130.5,238.5,118.5,247.5,106.5,246.0,94.5,255.0,82.5,258.0,70.5,262.5,61.5,261.0,58.5,252.0,58.5,240.0,58.5,228.0,75.0,216.0,106.5,204.0,111.0,184.5,111.0,172.5,111.0,160.5,115.5,148.5,105.0,147.0,93.0,153.0" stroke="black" stroke-width="1" fill="none" />
<polyline points="88.5,154.5,100.5,145.5,112.5,139.5,124.5,133.5,130.5,130.5,142.5,124.5,162.0,118.5,174.0,108.0,186.0,102.0,198.0,97.5" stroke="black" stroke-width="1" fill="none" />
<polyline points="202.5,87.0,213.0,99.0,222.0,111.0,232.5,123.0,241.5,135.0,256.5,147.0,279.0,159.0,288.0,171.0,297.0,183.0,306.0,195.0,315.0,207.0,324.0,219.0,331.5,231.0,333.0,243.0,331.5,255.0,331.5,267.0,322.5,276.0,327.0,288.0,327.0,300.0,327.0,310.5,333.0,322.5,333.0,328.5,333.0,340.5,333.0,357.0,336.0,369.0,330.0,370.5,312.0,378.0,303.0,385.5,307.5,388.5,306.0,406.5,307.5,418.5,313.5,420.0,301.5,435.0,306.0,441.0,303.0,441.0,292.5,439.5,298.5,433.5,300.0,417.0,307.5,405.0,319.5,400.5,337.5,417.0,348.0,420.0,354.0,418.5,360.0,423.0,364.5,415.5" stroke="black" stroke-width="1" fill="none" />
<polyline points="301.5,226.5,301.5,214.5" stroke="black" stroke-width="1" fill="none" />
<polyline points="304.5,213.0,307.5,225.0,304.5,237.0,301.5,253.5,303.0,262.5,303.0,274.5,307.5,286.5,297.0,298.5,297.0,310.5,297.0,322.5,306.0,340.5,306.0,352.5,306.0,364.5,297.0,364.5" stroke="black" stroke-width="1" fill="none" />
<polyline points="189.0,277.5,193.5,265.5,187.5,244.5,192.0,232.5" stroke="black" stroke-width="1" fill="none" />
<polyline points="187.5,220.5,184.5,228.0,177.0,229.5,177.0,234.0,165.0,238.5,159.0,231.0,148.5,229.5,157.5,220.5,157.5,208.5,159.0,196.5,153.0,181.5,183.0,169.5,192.0,156.0,192.0,144.0,193.5,132.0,192.0,120.0,195.0,111.0" stroke="black" stroke-width="1" fill="none" />
<polyline points="190.5,109.5,195.0,102.0,183.0,117.0,181.5,132.0,180.0,144.0,178.5,156.0,178.5,175.5,148.5,187.5,124.5,196.5,94.5,204.0,60.0,213.0,67.5,219.0,79.5,214.5,91.5,210.0,103.5,205.5,114.0,205.5,117.0,199.5,129.0,195.0,141.0,192.0,151.5,187.5,163.5,181.5,175.5,177.0,187.5,172.5" stroke="black" stroke-width="1" fill="none" />
<polyline points="187.5,162.0,184.5,169.5,169.5,169.5,157.5,174.0,159.0,172.5,157.5,160.5,159.0,148.5,157.5,136.5,159.0,132.0,165.0,117.0,180.0,105.0,199.5,105.0,187.5,106.5,175.5,111.0,163.5,118.5" stroke="black" stroke-width="1" fill="none" />
<polyline points="165.0,129.0,165.0,141.0,162.0,153.0,165.0,157.5,165.0,169.5" stroke="black" stroke-width="1" fill="none" />
<polyline points="165.0,186.0,165.0,198.0,162.0,210.0,165.0,217.5,163.5,229.5" stroke="black" stroke-width="1" fill="none" />
<polyline points="169.5,241.5,165.0,246.0,165.0,258.0,163.5,270.0,165.0,282.0" stroke="black" stroke-width="1" fill="none" />
<polyline points="148.5,283.5,148.5,271.5,148.5,262.5,148.5,250.5" stroke="black" stroke-width="1" fill="none" />
<polyline points="147.0,225.0,148.5,213.0" stroke="black" stroke-width="1" fill="none" />
<polyline points="148.5,192.0,147.0,204.0,135.0,210.0,130.5,222.0,135.0,228.0,129.0,240.0,135.0,256.5,130.5,268.5,135.0,273.0,135.0,279.0,136.5,289.5,150.0,292.5,162.0,291.0,174.0,286.5,187.5,279.0" stroke="black" stroke-width="1" fill="none" />
<polyline points="169.5,223.5,169.5,211.5" stroke="black" stroke-width="1" fill="none" />
<polyline points="166.5,232.5,154.5,237.0,142.5,240.0,130.5,243.0,114.0,246.0,102.0,252.0,88.5,252.0,76.5,255.0,72.0,261.0,99.0,246.0,99.0,234.0,97.5,222.0,97.5,210.0" stroke="black" stroke-width="1" fill="none" />
<polyline points="103.5,198.0,91.5,201.0,79.5,205.5,67.5,210.0,99.0,196.5,90.0,193.5,99.0,181.5,97.5,169.5,90.0,153.0,114.0,141.0,132.0,129.0,132.0,124.5" stroke="black" stroke-width="1" fill="none" />
<polyline points="141.0,139.5,142.5,151.5,141.0,163.5,141.0,175.5,139.5,181.5" stroke="black" stroke-width="1" fill="none" />
<polyline points="145.5,192.0,142.5,204.0,141.0,216.0,141.0,228.0,141.0,249.0,142.5,261.0,141.0,273.0,142.5,285.0,147.0,306.0,148.5,315.0,148.5,327.0,148.5,345.0,169.5,340.5,183.0,348.0" stroke="black" stroke-width="1" fill="none" />
<polyline points="286.5,268.5,294.0,252.0,297.0,234.0,298.5,222.0,301.5,210.0" stroke="black" stroke-width="1" fill="none" />
<polyline points="283.5,186.0,283.5,198.0,283.5,210.0,285.0,222.0,288.0,243.0,288.0,255.0,289.5,267.0,294.0,288.0,294.0,300.0,294.0,312.0" stroke="black" stroke-width="1" fill="none" />
<polyline points="184.5,219.0,184.5,207.0,184.5,195.0" stroke="black" stroke-width="1" fill="none" />
<polyline points="178.5,180.0,181.5,192.0,178.5,204.0,178.5,216.0,168.0,226.5,177.0,225.0" stroke="black" stroke-width="1" fill="none" />
<polyline points="183.0,166.5,171.0,175.5,159.0,180.0,147.0,184.5,139.5,186.0,126.0,183.0,123.0,193.5,112.5,198.0,100.5,202.5,88.5,207.0,76.5,211.5,64.5,216.0,66.0,199.5,66.0,187.5,66.0,172.5,90.0,160.5,105.0,142.5,123.0,129.0,138.0,130.5,126.0,136.5,114.0,141.0" stroke="black" stroke-width="1" fill="none" />
<polyline points="97.5,159.0,103.5,166.5,103.5,178.5,103.5,190.5" stroke="black" stroke-width="1" fill="none" />
<polyline points="145.5,172.5,148.5,160.5,147.0,151.5,148.5,139.5" stroke="black" stroke-width="1" fill="none" />
<polyline points="145.5,138.0,133.5,144.0,135.0,156.0,135.0,168.0,135.0,180.0,133.5,189.0,127.5,207.0,127.5,219.0,127.5,231.0,120.0,235.5,111.0,243.0,111.0,258.0,111.0,270.0,111.0,282.0,111.0,294.0,129.0,301.5,141.0,309.0,141.0,321.0,141.0,333.0,133.5,345.0,147.0,349.5,159.0,348.0,166.5,346.5,178.5,340.5,183.0,343.5,184.5,337.5" stroke="black" stroke-width="1" fill="none" />
<polyline points="268.5,201.0,267.0,193.5,268.5,181.5,268.5,169.5" stroke="black" stroke-width="1" fill="none" />
<polyline points="216.0,211.5,216.0,199.5,216.0,187.5,216.0,169.5,214.5,157.5,214.5,145.5,214.5,133.5,213.0,121.5" stroke="black" stroke-width="1" fill="none" />
<polyline points="184.5,138.0,184.5,150.0,184.5,162.0,192.0,177.0,192.0,189.0,193.5,201.0,192.0,213.0,186.0,231.0,174.0,241.5,174.0,253.5,174.0,265.5,174.0,270.0,166.5,283.5,180.0,286.5,192.0,285.0" stroke="black" stroke-width="1" fill="none" />
<polyline points="174.0,124.5,174.0,136.5,174.0,148.5,174.0,160.5,174.0,181.5,174.0,193.5,175.5,205.5,174.0,217.5,162.0,234.0,157.5,249.0,159.0,261.0,157.5,273.0,156.0,285.0,157.5,303.0,157.5,315.0,157.5,327.0,157.5,339.0,135.0,342.0,133.5,361.5,126.0,363.0,126.0,375.0,126.0,387.0,120.0,403.5,127.5,400.5,133.5,403.5,141.0,409.5,153.0,409.5,165.0,408.0,177.0,409.5,189.0,411.0,189.0,414.0,195.0,424.5,196.5,417.0,202.5,405.0,202.5,415.5,213.0,420.0,228.0,423.0,240.0,421.5,244.5,403.5,256.5,403.5,264.0,391.5,265.5,397.5,274.5,385.5,292.5,390.0,304.5,384.0,310.5,390.0,318.0,387.0,331.5,391.5" stroke="black" stroke-width="1" fill="none" />
</svg>