<svg xmlns="http://www.w3.org/2000/svg" height="518px" width="396px" version="1.1"><polyline points="220.5,33.0,228.0,48.0,232.5,60.0,243.0,72.0,244.5,72.0" stroke="black" stroke-width="1" fill="none" />
<polyline points="271.5,57.0,286.5,69.0,300.0,84.0" stroke="black" stroke-width="1" fill="none" />
<polyline points="307.5,93.0,295.5,85.5,283.5,81.0" stroke="black" stroke-width="1" fill="none" />
<polyline points="283.5,78.0,295.5,81.0,307.5,87.0" stroke="black" stroke-width="1" fill="none" />
<polyline points="295.5,75.0,283.5,66.0" stroke="black" stroke-width="1" fill="none" />
<polyline points="271.5,57.0,283.5,61.5,295.5,63.0,307.5,69.0" stroke="black" stroke-width="1" fill="none" />
<polyline points="286.5,97.5,313.5,109.5,328.5,121.5,340.5,133.5,351.0,145.5,357.0,157.5,360.0,169.5,363.0,181.5,366.0,193.5,366.0,205.5,366.0,217.5,366.0,229.5,366.0,241.5,364.5,253.5,357.0,265.5,349.5,273.0,346.5,285.0,339.0,297.0,327.0,309.0,312.0,321.0,300.0,333.0,285.0,346.5,297.0,337.5,309.0,337.5,321.0,331.5,331.5,328.5,337.5,304.5,349.5,310.5,366.0,295.5" stroke="black" stroke-width="1" fill="none" />
<polyline points="363.0,301.5,367.5,289.5,364.5,285.0,358.5,282.0" stroke="black" stroke-width="1" fill="none" />
<polyline points="360.0,258.0,352.5,258.0,342.0,228.0" stroke="black" stroke-width="1" fill="none" />
<polyline points="339.0,226.5,342.0,229.5,349.5,241.5,351.0,253.5,351.0,265.5,360.0,270.0" stroke="black" stroke-width="1" fill="none" />
<polyline points="345.0,286.5,333.0,303.0,321.0,315.0,309.0,324.0,297.0,328.5,285.0,333.0,273.0,337.5,261.0,340.5,249.0,340.5,237.0,343.5,223.5,340.5,211.5,340.5,199.5,339.0,187.5,337.5,175.5,334.5,163.5,331.5,151.5,325.5,139.5,319.5,127.5,313.5,115.5,306.0,103.5,295.5,91.5,283.5,79.5,268.5,67.5,246.0" stroke="black" stroke-width="1" fill="none" />
<polyline points="63.0,237.0,63.0,244.5,70.5,255.0,76.5,267.0,85.5,279.0,96.0,291.0,103.5,297.0,118.5,309.0,123.0,318.0" stroke="black" stroke-width="1" fill="none" />
<polyline points="123.0,316.5,135.0,324.0" stroke="black" stroke-width="1" fill="none" />
<polyline points="130.5,327.0,118.5,319.5" stroke="black" stroke-width="1" fill="none" />
<polyline points="114.0,316.5,120.0,321.0,115.5,331.5,115.5,343.5,108.0,355.5,115.5,364.5,109.5,385.5,115.5,402.0,117.0,414.0" stroke="black" stroke-width="1" fill="none" />
<polyline points="100.5,423.0,97.5,426.0,81.0,423.0,75.0,414.0,70.5,406.5" stroke="black" stroke-width="1" fill="none" />
<polyline points="57.0,393.0,57.0,405.0,60.0,409.5,64.5,418.5,79.5,418.5,82.5,427.5,94.5,436.5,106.5,445.5,126.0,453.0,133.5,450.0,145.5,456.0,157.5,463.5,162.0,454.5" stroke="black" stroke-width="1" fill="none" />
<polyline points="162.0,456.0,168.0,468.0,166.5,480.0" stroke="black" stroke-width="1" fill="none" />
<polyline points="162.0,496.5,174.0,508.5" stroke="black" stroke-width="1" fill="none" />
<polyline points="198.0,507.0,196.5,495.0,195.0,483.0,193.5,471.0,192.0,459.0,193.5,447.0,189.0,435.0,189.0,423.0,177.0,420.0,165.0,426.0,153.0,432.0" stroke="black" stroke-width="1" fill="none" />
<polyline points="165.0,429.0,177.0,429.0" stroke="black" stroke-width="1" fill="none" />
<polyline points="190.5,427.5,201.0,433.5,199.5,445.5,199.5,457.5,199.5,469.5,201.0,481.5,204.0,493.5,205.5,505.5,205.5,517.5" stroke="black" stroke-width="1" fill="none" />
<polyline points="234.0,502.5,246.0,510.0" stroke="black" stroke-width="1" fill="none" />
<polyline points="276.0,511.5,279.0,499.5,274.5,498.0" stroke="black" stroke-width="1" fill="none" />
<polyline points="309.0,507.0,301.5,495.0,309.0,484.5,313.5,472.5,321.0,460.5,330.0,448.5,316.5,448.5" stroke="black" stroke-width="1" fill="none" />
<polyline points="297.0,450.0,294.0,462.0" stroke="black" stroke-width="1" fill="none" />
<polyline points="276.0,438.0,285.0,441.0,283.5,453.0,285.0,465.0,288.0,477.0,300.0,480.0,289.5,492.0,288.0,504.0,291.0,481.5,301.5,480.0,313.5,481.5,325.5,465.0,339.0,447.0,351.0,429.0,363.0,426.0" stroke="black" stroke-width="1" fill="none" />
<polyline points="358.5,423.0,364.5,442.5,366.0,454.5,369.0,466.5,379.5,478.5" stroke="black" stroke-width="1" fill="none" />
<polyline points="393.0,474.0,396.0,481.5" stroke="black" stroke-width="1" fill="none" />
<polyline points="378.0,451.5,366.0,448.5" stroke="black" stroke-width="1" fill="none" />
<polyline points="369.0,450.0,373.5,462.0,376.5,474.0,379.5,486.0,381.0,498.0" stroke="black" stroke-width="1" fill="none" />
<polyline points="340.5,433.5,328.5,450.0,316.5,466.5,310.5,456.0,318.0,459.0,321.0,447.0,336.0,441.0,345.0,429.0" stroke="black" stroke-width="1" fill="none" />
<polyline points="355.5,421.5,348.0,433.5,340.5,445.5,330.0,457.5,322.5,469.5,313.5,481.5,310.5,496.5,313.5,499.5" stroke="black" stroke-width="1" fill="none" />
<polyline points="277.5,459.0,265.5,450.0" stroke="black" stroke-width="1" fill="none" />
<polyline points="262.5,441.0,268.5,453.0,277.5,466.5,277.5,478.5,274.5,498.0,283.5,502.5,283.5,514.5" stroke="black" stroke-width="1" fill="none" />
<polyline points="238.5,478.5,226.5,490.5,216.0,502.5,223.5,492.0,235.5,481.5" stroke="black" stroke-width="1" fill="none" />
<polyline points="211.5,481.5,211.5,469.5,211.5,457.5,208.5,460.5" stroke="black" stroke-width="1" fill="none" />
<polyline points="189.0,456.0,204.0,435.0,208.5,429.0" stroke="black" stroke-width="1" fill="none" />
<polyline points="211.5,426.0,199.5,421.5" stroke="black" stroke-width="1" fill="none" />
<polyline points="201.0,396.0,192.0,384.0,180.0,372.0,166.5,360.0,162.0,364.5,156.0,361.5,144.0,373.5,133.5,379.5,132.0,387.0" stroke="black" stroke-width="1" fill="none" />
<polyline points="142.5,385.5,154.5,372.0,151.5,375.0,142.5,387.0,147.0,405.0,159.0,414.0,171.0,414.0,183.0,406.5,196.5,406.5,208.5,406.5,220.5,400.5,232.5,397.5,244.5,394.5,256.5,391.5,268.5,388.5,280.5,385.5,292.5,382.5,304.5,378.0,316.5,370.5,328.5,381.0,340.5,379.5,352.5,376.5,364.5,375.0,372.0,378.0,375.0,390.0,388.5,402.0" stroke="black" stroke-width="1" fill="none" />
<polyline points="388.5,400.5,376.5,391.5" stroke="black" stroke-width="1" fill="none" />
<polyline points="357.0,397.5,369.0,402.0,370.5,403.5,376.5,415.5" stroke="black" stroke-width="1" fill="none" />
<polyline points="349.5,367.5,337.5,364.5" stroke="black" stroke-width="1" fill="none" />
<polyline points="312.0,346.5,300.0,349.5,295.5,352.5,283.5,357.0,271.5,358.5,259.5,361.5,247.5,363.0,235.5,364.5,223.5,367.5,211.5,369.0,201.0,367.5,189.0,360.0,177.0,357.0,165.0,355.5,153.0,351.0,151.5,348.0,144.0,360.0,141.0,355.5,129.0,355.5,127.5,370.5,120.0,372.0,121.5,360.0,120.0,348.0,124.5,346.5,108.0,346.5,96.0,339.0" stroke="black" stroke-width="1" fill="none" />
<polyline points="99.0,330.0,87.0,327.0,75.0,342.0" stroke="black" stroke-width="1" fill="none" />
<polyline points="79.5,342.0,91.5,333.0,78.0,336.0,72.0,348.0,76.5,351.0,78.0,363.0,93.0,361.5,105.0,366.0" stroke="black" stroke-width="1" fill="none" />
<polyline points="111.0,378.0,99.0,379.5" stroke="black" stroke-width="1" fill="none" />
<polyline points="99.0,358.5,88.5,346.5,76.5,351.0" stroke="black" stroke-width="1" fill="none" />
<polyline points="75.0,370.5,63.0,376.5" stroke="black" stroke-width="1" fill="none" />
<polyline points="55.5,390.0,52.5,402.0,57.0,414.0,55.5,433.5,55.5,445.5,57.0,457.5,57.0,469.5,57.0,481.5,46.5,493.5,55.5,505.5,57.0,517.5" stroke="black" stroke-width="1" fill="none" />
<polyline points="75.0,504.0,73.5,492.0,73.5,480.0,72.0,468.0,75.0,456.0,75.0,444.0,63.0,436.5" stroke="black" stroke-width="1" fill="none" />
<polyline points="54.0,436.5,67.5,438.0,66.0,450.0,64.5,462.0,61.5,474.0,60.0,486.0,46.5,489.0,48.0,493.5,66.0,499.5" stroke="black" stroke-width="1" fill="none" />
<polyline points="51.0,483.0,39.0,486.0,27.0,489.0" stroke="black" stroke-width="1" fill="none" />
<polyline points="22.5,498.0,27.0,510.0" stroke="black" stroke-width="1" fill="none" />
<polyline points="31.5,510.0,31.5,498.0,22.5,498.0" stroke="black" stroke-width="1" fill="none" />
<polyline points="10.5,507.0,10.5,495.0,7.5,483.0,3.0,471.0,3.0,459.0" stroke="black" stroke-width="1" fill="none" />
<polyline points="28.5,445.5,25.5,433.5,25.5,421.5,24.0,409.5,16.5,409.5" stroke="black" stroke-width="1" fill="none" />
<polyline points="16.5,412.5,18.0,399.0,6.0,408.0" stroke="black" stroke-width="1" fill="none" />
<polyline points="6.0,408.0,1.5,409.5,3.0,421.5,6.0,433.5,15.0,423.0" stroke="black" stroke-width="1" fill="none" />
<polyline points="28.5,421.5,31.5,433.5,33.0,445.5,33.0,457.5,34.5,469.5,39.0,469.5,40.5,481.5,40.5,493.5,39.0,505.5,45.0,505.5" stroke="black" stroke-width="1" fill="none" />
<polyline points="72.0,438.0,84.0,441.0" stroke="black" stroke-width="1" fill="none" />
<polyline points="114.0,436.5,96.0,444.0,87.0,439.5,81.0,433.5,75.0,421.5,70.5,409.5,64.5,402.0,64.5,390.0,63.0,378.0,67.5,366.0,60.0,361.5,48.0,363.0,36.0,366.0,24.0,372.0,12.0,364.5,0.0,363.0" stroke="black" stroke-width="1" fill="none" />
<polyline points="7.5,369.0,21.0,381.0,24.0,394.5,13.5,406.5,12.0,418.5,9.0,430.5,15.0,438.0,18.0,450.0,18.0,462.0,19.5,474.0,19.5,486.0,19.5,498.0,18.0,510.0" stroke="black" stroke-width="1" fill="none" />
<polyline points="30.0,397.5,19.5,393.0,19.5,378.0,7.5,369.0" stroke="black" stroke-width="1" fill="none" />
<polyline points="10.5,364.5,30.0,376.5,40.5,388.5,45.0,382.5,58.5,394.5,69.0,391.5" stroke="black" stroke-width="1" fill="none" />
<polyline points="40.5,379.5,28.5,373.5" stroke="black" stroke-width="1" fill="none" />
<polyline points="43.5,363.0,34.5,375.0,45.0,387.0,48.0,393.0,48.0,405.0,51.0,417.0,49.5,429.0,51.0,441.0,52.5,453.0,52.5,465.0,54.0,477.0,63.0,495.0,69.0,507.0" stroke="black" stroke-width="1" fill="none" />
<polyline points="148.5,501.0,160.5,510.0" stroke="black" stroke-width="1" fill="none" />
<polyline points="168.0,486.0,156.0,481.5,144.0,475.5" stroke="black" stroke-width="1" fill="none" />
<polyline points="135.0,457.5,147.0,472.5,147.0,493.5,150.0,505.5,162.0,516.0,172.5,517.5,175.5,517.5" stroke="black" stroke-width="1" fill="none" />
<polyline points="174.0,493.5,166.5,481.5,162.0,469.5,145.5,457.5,129.0,447.0" stroke="black" stroke-width="1" fill="none" />
<polyline points="118.5,442.5,127.5,454.5,139.5,463.5,144.0,477.0,163.5,489.0,165.0,502.5,177.0,514.5" stroke="black" stroke-width="1" fill="none" />
<polyline points="223.5,418.5,229.5,403.5,243.0,403.5,231.0,403.5,222.0,415.5,210.0,414.0,198.0,412.5,186.0,417.0,174.0,417.0,162.0,418.5,145.5,411.0,133.5,403.5,121.5,399.0,115.5,397.5,103.5,394.5,99.0,388.5,94.5,388.5,94.5,376.5,102.0,361.5,102.0,349.5,106.5,337.5,93.0,334.5,105.0,328.5,94.5,316.5,82.5,304.5,73.5,292.5,66.0,280.5,61.5,279.0,61.5,264.0,54.0,256.5,61.5,250.5,60.0,238.5,63.0,226.5,63.0,214.5,63.0,208.5" stroke="black" stroke-width="1" fill="none" />
<polyline points="67.5,210.0,70.5,222.0,75.0,234.0,78.0,246.0,82.5,258.0,90.0,270.0,99.0,282.0,112.5,294.0,129.0,306.0" stroke="black" stroke-width="1" fill="none" />
<polyline points="130.5,301.5,121.5,289.5,120.0,277.5,115.5,265.5,115.5,253.5,117.0,241.5,118.5,229.5,120.0,217.5,121.5,205.5,132.0,193.5,144.0,172.5,147.0,171.0,135.0,181.5" stroke="black" stroke-width="1" fill="none" />
<polyline points="154.5,180.0,136.5,192.0,144.0,196.5,156.0,196.5,168.0,201.0,183.0,207.0,199.5,201.0,211.5,199.5,223.5,199.5,235.5,201.0" stroke="black" stroke-width="1" fill="none" />
<polyline points="223.5,222.0,211.5,222.0" stroke="black" stroke-width="1" fill="none" />
<polyline points="205.5,217.5,220.5,226.5,217.5,238.5,216.0,250.5,231.0,262.5,241.5,274.5,238.5,279.0,253.5,285.0,264.0,279.0,271.5,288.0" stroke="black" stroke-width="1" fill="none" />
<polyline points="274.5,307.5,276.0,319.5" stroke="black" stroke-width="1" fill="none" />
<polyline points="288.0,331.5,283.5,342.0" stroke="black" stroke-width="1" fill="none" />
<polyline points="283.5,348.0,271.5,351.0,259.5,352.5,247.5,355.5,235.5,355.5" stroke="black" stroke-width="1" fill="none" />
<polyline points="243.0,375.0,255.0,372.0" stroke="black" stroke-width="1" fill="none" />
<polyline points="234.0,345.0,222.0,348.0,210.0,343.5" stroke="black" stroke-width="1" fill="none" />
<polyline points="211.5,333.0,223.5,333.0" stroke="black" stroke-width="1" fill="none" />
<polyline points="211.5,322.5,214.5,339.0,207.0,355.5,198.0,375.0,190.5,385.5,187.5,397.5,178.5,411.0,165.0,426.0,178.5,441.0,175.5,453.0,180.0,454.5,181.5,466.5,184.5,478.5,186.0,490.5,186.0,502.5,187.5,514.5" stroke="black" stroke-width="1" fill="none" />
<polyline points="259.5,453.0,258.0,441.0" stroke="black" stroke-width="1" fill="none" />
<polyline points="250.5,420.0,262.5,418.5,274.5,415.5,286.5,412.5,306.0,417.0" stroke="black" stroke-width="1" fill="none" />
<polyline points="256.5,423.0,244.5,424.5,232.5,429.0,220.5,435.0,249.0,418.5,249.0,406.5" stroke="black" stroke-width="1" fill="none" />
<polyline points="222.0,399.0,204.0,399.0" stroke="black" stroke-width="1" fill="none" />
<polyline points="199.5,394.5,201.0,406.5,204.0,417.0,216.0,418.5,228.0,418.5,240.0,415.5,258.0,414.0,270.0,412.5" stroke="black" stroke-width="1" fill="none" />
<polyline points="234.0,364.5,220.5,360.0,208.5,360.0" stroke="black" stroke-width="1" fill="none" />
<polyline points="207.0,355.5,219.0,357.0,240.0,351.0,252.0,351.0,264.0,348.0,276.0,346.5" stroke="black" stroke-width="1" fill="none" />
<polyline points="258.0,315.0,249.0,327.0,252.0,331.5,264.0,331.5,276.0,327.0,288.0,324.0,300.0,318.0,312.0,310.5,324.0,298.5,336.0,280.5" stroke="black" stroke-width="1" fill="none" />
<polyline points="337.5,304.5,330.0,318.0,322.5,330.0,301.5,331.5,313.5,330.0,325.5,325.5,343.5,318.0" stroke="black" stroke-width="1" fill="none" />
<polyline points="349.5,316.5,346.5,328.5,346.5,340.5,345.0,352.5,337.5,364.5,334.5,384.0,321.0,399.0,316.5,400.5,328.5,391.5" stroke="black" stroke-width="1" fill="none" />
<polyline points="336.0,411.0,336.0,399.0,327.0,379.5,316.5,370.5,316.5,358.5,318.0,346.5,321.0,334.5" stroke="black" stroke-width="1" fill="none" />
<polyline points="349.5,319.5,349.5,331.5,349.5,343.5,357.0,355.5" stroke="black" stroke-width="1" fill="none" />
<polyline points="325.5,226.5,325.5,214.5,322.5,202.5,327.0,199.5,327.0,187.5,333.0,175.5,327.0,184.5" stroke="black" stroke-width="1" fill="none" />
<polyline points="337.5,180.0,337.5,192.0,330.0,195.0,330.0,207.0,330.0,219.0,331.5,231.0,331.5,243.0,330.0,255.0" stroke="black" stroke-width="1" fill="none" />
<polyline points="370.5,193.5,373.5,205.5,375.0,217.5,375.0,229.5,373.5,241.5,370.5,253.5,369.0,265.5,360.0,279.0,357.0,291.0,354.0,303.0,339.0,315.0,333.0,327.0,322.5,322.5,300.0,342.0,286.5,355.5" stroke="black" stroke-width="1" fill="none" />
<polyline points="214.5,309.0,210.0,297.0,201.0,300.0,187.5,288.0,190.5,294.0,201.0,274.5,189.0,271.5,177.0,265.5" stroke="black" stroke-width="1" fill="none" />
<polyline points="184.5,262.5,196.5,262.5" stroke="black" stroke-width="1" fill="none" />
<polyline points="217.5,258.0,231.0,270.0,220.5,282.0,210.0,292.5,196.5,300.0,196.5,300.0,198.0,286.5" stroke="black" stroke-width="1" fill="none" />
<polyline points="190.5,294.0,178.5,295.5" stroke="black" stroke-width="1" fill="none" />
<polyline points="177.0,309.0,189.0,309.0" stroke="black" stroke-width="1" fill="none" />
<polyline points="148.5,325.5,126.0,313.5,112.5,315.0" stroke="black" stroke-width="1" fill="none" />
<polyline points="123.0,339.0,127.5,340.5,145.5,348.0,144.0,360.0,141.0,366.0,133.5,381.0,139.5,393.0,145.5,405.0" stroke="black" stroke-width="1" fill="none" />
<polyline points="162.0,391.5,168.0,393.0,163.5,397.5,160.5,385.5" stroke="black" stroke-width="1" fill="none" />
<polyline points="157.5,369.0,169.5,367.5,181.5,367.5,183.0,370.5,186.0,372.0,198.0,373.5" stroke="black" stroke-width="1" fill="none" />
<polyline points="171.0,369.0,187.5,381.0,193.5,388.5,192.0,400.5,186.0,420.0,183.0,432.0,184.5,444.0,187.5,456.0,189.0,468.0,190.5,480.0,190.5,492.0,192.0,504.0,192.0,516.0" stroke="black" stroke-width="1" fill="none" />
<polyline points="114.0,513.0,112.5,501.0,112.5,489.0,111.0,477.0,112.5,465.0,112.5,453.0,112.5,441.0,121.5,429.0,118.5,417.0,112.5,405.0,121.5,393.0" stroke="black" stroke-width="1" fill="none" />
<polyline points="162.0,342.0,150.0,343.5,138.0,345.0,126.0,337.5,108.0,336.0,112.5,328.5,100.5,319.5,90.0,310.5,78.0,298.5,66.0,277.5" stroke="black" stroke-width="1" fill="none" />
<polyline points="85.5,331.5,79.5,343.5,93.0,349.5,90.0,361.5,84.0,364.5" stroke="black" stroke-width="1" fill="none" />
<polyline points="132.0,291.0,130.5,280.5,130.5,268.5,138.0,256.5,156.0,249.0,144.0,252.0,132.0,262.5" stroke="black" stroke-width="1" fill="none" />
<polyline points="144.0,268.5,138.0,280.5,148.5,277.5,160.5,279.0,172.5,280.5,184.5,280.5,196.5,280.5,208.5,280.5,220.5,282.0,232.5,277.5" stroke="black" stroke-width="1" fill="none" />
<polyline points="231.0,277.5,232.5,289.5,229.5,301.5,234.0,307.5,241.5,315.0,232.5,327.0,246.0,333.0,258.0,318.0,268.5,322.5" stroke="black" stroke-width="1" fill="none" />
<polyline points="240.0,271.5,228.0,258.0,216.0,249.0" stroke="black" stroke-width="1" fill="none" />
<polyline points="214.5,243.0,226.5,232.5,238.5,231.0,250.5,232.5" stroke="black" stroke-width="1" fill="none" />
<polyline points="268.5,208.5,252.0,183.0,238.5,169.5,225.0,163.5,213.0,160.5" stroke="black" stroke-width="1" fill="none" />
<polyline points="219.0,157.5,243.0,169.5,256.5,181.5,261.0,193.5,267.0,205.5,268.5,217.5,268.5,229.5,267.0,241.5,267.0,253.5,265.5,265.5,261.0,277.5,253.5,289.5,250.5,301.5,247.5,316.5,237.0,328.5,234.0,325.5,235.5,307.5,243.0,307.5,255.0,298.5,273.0,298.5" stroke="black" stroke-width="1" fill="none" />
<polyline points="258.0,222.0,246.0,219.0,234.0,213.0,222.0,211.5,210.0,211.5" stroke="black" stroke-width="1" fill="none" />
<polyline points="205.5,211.5,217.5,205.5,229.5,205.5,235.5,222.0,247.5,223.5" stroke="black" stroke-width="1" fill="none" />
<polyline points="270.0,196.5,258.0,183.0,246.0,171.0,234.0,162.0,222.0,157.5,210.0,156.0,198.0,154.5,186.0,154.5,174.0,156.0,162.0,159.0,150.0,163.5,138.0,172.5,126.0,184.5,114.0,210.0" stroke="black" stroke-width="1" fill="none" />
<polyline points="120.0,210.0,132.0,193.5,144.0,186.0,156.0,180.0,168.0,178.5,180.0,177.0,192.0,175.5,204.0,174.0" stroke="black" stroke-width="1" fill="none" />
<polyline points="220.5,162.0,243.0,174.0,252.0,186.0,270.0,199.5,274.5,211.5,276.0,223.5,273.0,235.5,271.5,247.5,270.0,259.5,268.5,271.5,262.5,283.5,277.5,295.5,283.5,300.0" stroke="black" stroke-width="1" fill="none" />
<polyline points="285.0,171.0,279.0,159.0,267.0,153.0" stroke="black" stroke-width="1" fill="none" />
<polyline points="262.5,148.5,271.5,160.5,285.0,162.0,294.0,169.5,303.0,171.0,297.0,177.0,309.0,189.0,315.0,192.0,315.0,204.0,318.0,216.0,325.5,234.0,324.0,246.0,322.5,258.0,318.0,270.0,312.0,282.0,306.0,294.0,294.0,306.0,292.5,307.5,304.5,295.5,316.5,273.0" stroke="black" stroke-width="1" fill="none" />
<polyline points="349.5,180.0,337.5,162.0,325.5,147.0" stroke="black" stroke-width="1" fill="none" />
<polyline points="328.5,144.0,340.5,156.0,351.0,168.0" stroke="black" stroke-width="1" fill="none" />
<polyline points="355.5,142.5,349.5,130.5,340.5,118.5,328.5,106.5,318.0,94.5,312.0,82.5,307.5,70.5,286.5,58.5,274.5,52.5,262.5,46.5,250.5,42.0,238.5,40.5,226.5,34.5,214.5,33.0" stroke="black" stroke-width="1" fill="none" />
<polyline points="270.0,48.0,283.5,61.5,301.5,73.5,309.0,76.5,321.0,96.0,333.0,111.0,345.0,123.0,357.0,144.0" stroke="black" stroke-width="1" fill="none" />
<polyline points="327.0,151.5,336.0,163.5,342.0,175.5,348.0,187.5,342.0,199.5,333.0,216.0,334.5,228.0,334.5,240.0,334.5,252.0,331.5,264.0" stroke="black" stroke-width="1" fill="none" />
<polyline points="273.0,166.5,261.0,156.0,249.0,151.5,237.0,148.5" stroke="black" stroke-width="1" fill="none" />
<polyline points="258.0,153.0,268.5,165.0,289.5,172.5,301.5,177.0,312.0,186.0" stroke="black" stroke-width="1" fill="none" />
<polyline points="303.0,144.0,291.0,139.5,279.0,135.0,267.0,132.0,255.0,130.5,243.0,129.0,231.0,127.5,219.0,127.5,207.0,127.5,195.0,129.0,183.0,129.0,169.5,132.0,157.5,135.0" stroke="black" stroke-width="1" fill="none" />
<polyline points="142.5,136.5,118.5,148.5,99.0,160.5,85.5,172.5,76.5,184.5,76.5,183.0,88.5,169.5,100.5,159.0,112.5,151.5,124.5,145.5,136.5,139.5,148.5,135.0,156.0,117.0,162.0,115.5,174.0,112.5,186.0,111.0,195.0,118.5,207.0,118.5,217.5,117.0,229.5,118.5,241.5,118.5,253.5,120.0,264.0,121.5,276.0,124.5,282.0,117.0,285.0,126.0,297.0,129.0,309.0,133.5,330.0,144.0,342.0,156.0,354.0,172.5" stroke="black" stroke-width="1" fill="none" />
<polyline points="352.5,157.5,340.5,144.0,328.5,135.0,316.5,126.0,303.0,120.0,291.0,115.5,279.0,108.0,267.0,105.0,255.0,102.0,243.0,100.5,231.0,99.0,219.0,99.0,207.0,99.0,198.0,106.5,186.0,106.5,174.0,106.5,162.0,109.5,150.0,114.0,138.0,115.5,126.0,121.5,114.0,127.5,102.0,133.5,90.0,141.0,78.0,153.0,66.0,172.5,72.0,171.0,84.0,159.0,100.5,147.0,123.0,135.0" stroke="black" stroke-width="1" fill="none" />
<polyline points="132.0,138.0,120.0,142.5,108.0,150.0,96.0,157.5,84.0,168.0,72.0,183.0,72.0,184.5,79.5,172.5,91.5,160.5,109.5,148.5,133.5,136.5,124.5,135.0,112.5,141.0,100.5,147.0,88.5,154.5,76.5,165.0,64.5,180.0" stroke="black" stroke-width="1" fill="none" />
<polyline points="90.0,177.0,87.0,189.0,94.5,172.5,99.0,177.0" stroke="black" stroke-width="1" fill="none" />
<polyline points="93.0,180.0,90.0,192.0" stroke="black" stroke-width="1" fill="none" />
<polyline points="105.0,181.5,103.5,193.5,106.5,202.5,106.5,214.5,105.0,226.5,102.0,238.5,99.0,250.5,96.0,262.5" stroke="black" stroke-width="1" fill="none" />
<polyline points="84.0,226.5,84.0,214.5" stroke="black" stroke-width="1" fill="none" />
<polyline points="82.5,210.0,81.0,222.0,76.5,241.5,88.5,265.5,100.5,276.0" stroke="black" stroke-width="1" fill="none" />
<polyline points="154.5,247.5,147.0,259.5,135.0,271.5,144.0,276.0,156.0,285.0,159.0,294.0,166.5,282.0,178.5,286.5,190.5,289.5,196.5,283.5,208.5,285.0,217.5,285.0,226.5,285.0" stroke="black" stroke-width="1" fill="none" />
<polyline points="162.0,228.0,150.0,228.0,138.0,226.5" stroke="black" stroke-width="1" fill="none" />
<polyline points="135.0,223.5,147.0,223.5" stroke="black" stroke-width="1" fill="none" />
<polyline points="136.5,216.0,124.5,228.0,126.0,214.5,138.0,210.0,150.0,207.0,162.0,208.5" stroke="black" stroke-width="1" fill="none" />
<polyline points="153.0,202.5,141.0,202.5" stroke="black" stroke-width="1" fill="none" />
<polyline points="141.0,208.5,126.0,217.5,127.5,219.0,139.5,216.0,151.5,216.0,163.5,213.0" stroke="black" stroke-width="1" fill="none" />
<polyline points="162.0,220.5,160.5,216.0,166.5,214.5,183.0,207.0,183.0,195.0" stroke="black" stroke-width="1" fill="none" />
<polyline points="192.0,202.5,190.5,214.5,190.5,226.5,184.5,241.5,180.0,253.5,171.0,268.5,162.0,288.0,166.5,294.0,172.5,307.5,177.0,327.0,189.0,330.0,201.0,331.5,208.5,324.0,216.0,325.5,234.0,331.5,246.0,318.0" stroke="black" stroke-width="1" fill="none" />
<polyline points="294.0,162.0,282.0,156.0,268.5,150.0,256.5,145.5,244.5,144.0,232.5,142.5,220.5,142.5,208.5,142.5,196.5,142.5,184.5,144.0,172.5,145.5,160.5,153.0,148.5,156.0,136.5,160.5,124.5,172.5,112.5,201.0" stroke="black" stroke-width="1" fill="none" />
<polyline points="99.0,166.5,106.5,174.0,100.5,186.0,100.5,198.0,97.5,210.0,94.5,222.0,96.0,234.0,91.5,246.0,91.5,258.0,103.5,265.5,105.0,277.5,103.5,285.0,115.5,295.5,127.5,304.5,139.5,310.5,151.5,316.5,163.5,316.5,175.5,315.0,187.5,318.0,196.5,310.5,208.5,310.5,219.0,313.5,234.0,313.5,238.5,309.0" stroke="black" stroke-width="1" fill="none" />
<polyline points="112.5,277.5,109.5,265.5,111.0,253.5,111.0,241.5,112.5,229.5,114.0,217.5,115.5,205.5,121.5,193.5,129.0,181.5,141.0,169.5,165.0,157.5" stroke="black" stroke-width="1" fill="none" />
<polyline points="142.5,156.0,127.5,168.0,123.0,180.0,117.0,192.0,112.5,204.0,111.0,216.0,108.0,228.0,106.5,240.0,103.5,252.0,100.5,264.0,99.0,276.0,111.0,282.0,117.0,289.5,124.5,286.5,132.0,301.5,141.0,279.0,141.0,265.5,153.0,252.0,171.0,256.5,172.5,262.5,180.0,258.0,192.0,256.5,204.0,256.5,211.5,258.0,223.5,262.5,235.5,273.0,247.5,289.5,252.0,310.5,264.0,304.5,265.5,309.0,277.5,310.5" stroke="black" stroke-width="1" fill="none" />
<polyline points="354.0,162.0,346.5,150.0,333.0,138.0,322.5,130.5" stroke="black" stroke-width="1" fill="none" />
<polyline points="346.5,138.0,334.5,124.5,322.5,115.5,310.5,106.5,298.5,100.5,286.5,97.5,274.5,93.0,262.5,90.0,250.5,88.5,238.5,87.0,226.5,87.0,214.5,87.0,202.5,87.0,190.5,90.0,178.5,91.5,166.5,93.0,154.5,97.5,142.5,100.5,130.5,106.5,118.5,114.0,106.5,121.5,94.5,129.0,82.5,141.0,70.5,156.0,58.5,175.5,66.0,174.0,72.0,162.0,81.0,150.0,94.5,138.0,115.5,126.0,142.5,114.0" stroke="black" stroke-width="1" fill="none" />
<polyline points="156.0,117.0,147.0,120.0,151.5,132.0,156.0,130.5,168.0,127.5,180.0,126.0,192.0,124.5,204.0,123.0,216.0,123.0,228.0,124.5,240.0,124.5,252.0,126.0,264.0,127.5,276.0,130.5,288.0,133.5,300.0,138.0,318.0,142.5,318.0,145.5,321.0,153.0,333.0,163.5,334.5,175.5,345.0,180.0,348.0,202.5,343.5,204.0" stroke="black" stroke-width="1" fill="none" />
<polyline points="276.0,108.0,300.0,120.0,307.5,123.0,310.5,132.0,313.5,141.0,316.5,151.5,331.5,163.5,346.5,175.5,351.0,187.5,352.5,199.5,349.5,211.5,339.0,231.0,342.0,243.0,342.0,255.0,340.5,267.0,337.5,279.0,330.0,291.0,321.0,303.0,306.0,315.0,280.5,322.5" stroke="black" stroke-width="1" fill="none" />
<polyline points="264.0,108.0,252.0,109.5,238.5,106.5,226.5,106.5,214.5,106.5,202.5,106.5" stroke="black" stroke-width="1" fill="none" />
<polyline points="156.0,96.0,127.5,108.0,108.0,120.0,91.5,132.0,79.5,144.0,70.5,156.0,63.0,168.0,57.0,180.0,55.5,192.0,55.5,204.0,54.0,216.0,54.0,228.0,52.5,240.0,46.5,244.5,51.0,256.5,58.5,268.5,57.0,280.5" stroke="black" stroke-width="1" fill="none" />
<polyline points="76.5,105.0,82.5,96.0,91.5,84.0,96.0,72.0,93.0,60.0" stroke="black" stroke-width="1" fill="none" />
<polyline points="105.0,70.5,117.0,58.5" stroke="black" stroke-width="1" fill="none" />
<polyline points="120.0,58.5,108.0,67.5,96.0,70.5,87.0,90.0,82.5,82.5,84.0,70.5,82.5,58.5,84.0,46.5" stroke="black" stroke-width="1" fill="none" />
</svg>