<svg xmlns="http://www.w3.org/2000/svg" height="392px" width="396px" version="1.1"><polyline points="222.0,0.0,240.0,12.0,258.0,24.0,268.5,36.0,276.0,48.0,280.5,60.0,286.5,72.0,286.5,84.0,285.0,96.0,277.5,108.0,273.0,120.0,271.5,132.0,270.0,144.0,267.0,156.0,262.5,168.0,259.5,180.0,255.0,192.0,247.5,204.0,232.5,216.0,217.5,228.0,210.0,240.0,220.5,226.5,232.5,216.0,246.0,207.0,258.0,184.5" stroke="black" stroke-width="1" fill="none" />
<polyline points="235.5,186.0,228.0,180.0,216.0,180.0,204.0,180.0,192.0,178.5,180.0,175.5,168.0,178.5" stroke="black" stroke-width="1" fill="none" />
<polyline points="174.0,183.0,186.0,184.5,198.0,184.5,210.0,186.0,222.0,186.0" stroke="black" stroke-width="1" fill="none" />
<polyline points="205.5,198.0,193.5,195.0" stroke="black" stroke-width="1" fill="none" />
<polyline points="169.5,207.0,181.5,210.0,193.5,216.0,205.5,216.0,217.5,211.5" stroke="black" stroke-width="1" fill="none" />
<polyline points="231.0,223.5,223.5,235.5,213.0,247.5,202.5,259.5,213.0,247.5,225.0,232.5" stroke="black" stroke-width="1" fill="none" />
<polyline points="241.5,213.0,237.0,225.0,229.5,237.0,219.0,249.0,208.5,261.0,207.0,276.0,220.5,288.0,234.0,300.0,243.0,312.0" stroke="black" stroke-width="1" fill="none" />
<polyline points="238.5,309.0,226.5,300.0,214.5,294.0,202.5,303.0" stroke="black" stroke-width="1" fill="none" />
<polyline points="193.5,307.5,213.0,294.0" stroke="black" stroke-width="1" fill="none" />
<polyline points="220.5,295.5,234.0,307.5" stroke="black" stroke-width="1" fill="none" />
<polyline points="235.5,300.0,223.5,289.5,211.5,279.0,199.5,276.0,199.5,282.0,180.0,304.5,168.0,282.0" stroke="black" stroke-width="1" fill="none" />
<polyline points="168.0,282.0,175.5,294.0,180.0,306.0,180.0,318.0,180.0,330.0,178.5,342.0" stroke="black" stroke-width="1" fill="none" />
<polyline points="195.0,321.0,207.0,343.5" stroke="black" stroke-width="1" fill="none" />
<polyline points="168.0,336.0,156.0,358.5,159.0,351.0,166.5,339.0,172.5,327.0,174.0,315.0,156.0,306.0,147.0,294.0" stroke="black" stroke-width="1" fill="none" />
<polyline points="144.0,294.0,133.5,306.0,132.0,297.0,144.0,279.0,156.0,268.5,168.0,265.5,180.0,268.5,198.0,268.5,210.0,259.5,222.0,246.0,234.0,229.5,249.0,213.0,261.0,219.0,273.0,223.5,285.0,228.0,297.0,234.0,309.0,238.5,321.0,243.0,333.0,246.0,345.0,249.0,357.0,255.0,369.0,262.5,381.0,273.0,393.0,291.0" stroke="black" stroke-width="1" fill="none" />
<polyline points="396.0,303.0,393.0,295.5,388.5,283.5,378.0,271.5,363.0,259.5,337.5,247.5" stroke="black" stroke-width="1" fill="none" />
<polyline points="325.5,244.5,292.5,232.5,265.5,220.5" stroke="black" stroke-width="1" fill="none" />
<polyline points="264.0,219.0,265.5,231.0,268.5,243.0,268.5,255.0,267.0,267.0,265.5,279.0,264.0,291.0,261.0,303.0,258.0,315.0,253.5,327.0,250.5,339.0,244.5,351.0,240.0,363.0,234.0,375.0,226.5,387.0,217.5,390.0,226.5,385.5,238.5,366.0,250.5,336.0" stroke="black" stroke-width="1" fill="none" />
<polyline points="213.0,364.5,210.0,352.5,204.0,340.5,198.0,328.5,195.0,315.0,196.5,303.0,202.5,291.0" stroke="black" stroke-width="1" fill="none" />
<polyline points="198.0,276.0,195.0,288.0,189.0,300.0,186.0,312.0,189.0,324.0,192.0,336.0,195.0,348.0" stroke="black" stroke-width="1" fill="none" />
<polyline points="162.0,312.0,150.0,294.0,138.0,301.5" stroke="black" stroke-width="1" fill="none" />
<polyline points="120.0,288.0,114.0,268.5,114.0,256.5,111.0,244.5,114.0,232.5,120.0,220.5,109.5,240.0" stroke="black" stroke-width="1" fill="none" />
<polyline points="99.0,231.0,97.5,243.0,99.0,255.0,103.5,267.0,106.5,279.0,109.5,291.0,112.5,303.0,117.0,315.0,123.0,327.0,127.5,339.0,133.5,351.0,139.5,363.0,145.5,375.0,153.0,387.0" stroke="black" stroke-width="1" fill="none" />
<polyline points="156.0,391.5,144.0,370.5,132.0,345.0,120.0,319.5,108.0,285.0" stroke="black" stroke-width="1" fill="none" />
<polyline points="115.5,277.5,99.0,255.0" stroke="black" stroke-width="1" fill="none" />
<polyline points="94.5,225.0,73.5,237.0,42.0,249.0,13.5,261.0,1.5,268.5,13.5,261.0,25.5,256.5,37.5,252.0,49.5,247.5,61.5,243.0,73.5,237.0,85.5,231.0,97.5,225.0,111.0,222.0,123.0,210.0,138.0,228.0,150.0,246.0" stroke="black" stroke-width="1" fill="none" />
<polyline points="145.5,229.5,133.5,205.5" stroke="black" stroke-width="1" fill="none" />
<polyline points="121.5,210.0,111.0,222.0,106.5,234.0,105.0,246.0,105.0,258.0,111.0,270.0,112.5,285.0,117.0,297.0,123.0,315.0,129.0,327.0,135.0,339.0,141.0,351.0,147.0,363.0,153.0,375.0,159.0,387.0" stroke="black" stroke-width="1" fill="none" />
<polyline points="165.0,274.5,177.0,273.0" stroke="black" stroke-width="1" fill="none" />
<polyline points="163.5,264.0,147.0,276.0,138.0,288.0,130.5,300.0,123.0,313.5,135.0,337.5,147.0,363.0,159.0,384.0" stroke="black" stroke-width="1" fill="none" />
<polyline points="171.0,228.0,159.0,220.5,147.0,205.5,135.0,187.5" stroke="black" stroke-width="1" fill="none" />
<polyline points="135.0,187.5,141.0,199.5,150.0,211.5,159.0,223.5" stroke="black" stroke-width="1" fill="none" />
<polyline points="154.5,199.5,142.5,186.0,130.5,174.0" stroke="black" stroke-width="1" fill="none" />
<polyline points="130.5,186.0,132.0,198.0,135.0,210.0,139.5,222.0" stroke="black" stroke-width="1" fill="none" />
<polyline points="150.0,247.5,141.0,235.5,133.5,223.5,127.5,211.5,126.0,199.5,123.0,187.5,115.5,180.0,118.5,168.0,121.5,156.0,123.0,144.0,115.5,132.0,115.5,120.0,103.5,103.5" stroke="black" stroke-width="1" fill="none" />
<polyline points="133.5,111.0,145.5,112.5,157.5,103.5,169.5,102.0,181.5,102.0" stroke="black" stroke-width="1" fill="none" />
<polyline points="195.0,103.5,192.0,94.5,180.0,91.5,168.0,91.5,156.0,91.5,156.0,79.5,157.5,67.5,163.5,55.5,178.5,43.5,186.0,31.5,195.0,30.0,192.0,24.0" stroke="black" stroke-width="1" fill="none" />
<polyline points="198.0,37.5,210.0,45.0,222.0,51.0,234.0,58.5" stroke="black" stroke-width="1" fill="none" />
<polyline points="240.0,93.0,228.0,96.0,216.0,103.5" stroke="black" stroke-width="1" fill="none" />
<polyline points="217.5,115.5,229.5,115.5,241.5,115.5,247.5,112.5,259.5,117.0" stroke="black" stroke-width="1" fill="none" />
<polyline points="250.5,108.0,262.5,117.0,265.5,129.0,264.0,141.0,262.5,153.0,267.0,156.0" stroke="black" stroke-width="1" fill="none" />
<polyline points="276.0,109.5,258.0,112.5,246.0,106.5,234.0,105.0" stroke="black" stroke-width="1" fill="none" />
<polyline points="226.5,96.0,217.5,108.0,219.0,120.0" stroke="black" stroke-width="1" fill="none" />
<polyline points="222.0,121.5,234.0,129.0,246.0,129.0" stroke="black" stroke-width="1" fill="none" />
<polyline points="216.0,154.5,204.0,154.5,192.0,151.5" stroke="black" stroke-width="1" fill="none" />
<polyline points="184.5,153.0,196.5,160.5,208.5,163.5,220.5,160.5" stroke="black" stroke-width="1" fill="none" />
<polyline points="187.5,118.5,198.0,106.5,186.0,120.0,174.0,126.0,162.0,124.5" stroke="black" stroke-width="1" fill="none" />
<polyline points="153.0,117.0,165.0,115.5,177.0,112.5" stroke="black" stroke-width="1" fill="none" />
<polyline points="168.0,108.0,156.0,111.0" stroke="black" stroke-width="1" fill="none" />
<polyline points="163.5,108.0,148.5,109.5,130.5,117.0,130.5,129.0,130.5,141.0" stroke="black" stroke-width="1" fill="none" />
<polyline points="129.0,153.0,117.0,136.5" stroke="black" stroke-width="1" fill="none" />
<polyline points="114.0,186.0,117.0,198.0" stroke="black" stroke-width="1" fill="none" />
<polyline points="147.0,192.0,133.5,180.0,129.0,168.0,114.0,156.0,111.0,144.0,108.0,132.0,105.0,120.0,105.0,108.0,102.0,96.0,100.5,84.0,102.0,72.0,105.0,60.0,108.0,48.0,114.0,36.0,123.0,24.0,139.5,12.0,159.0,0.0,150.0,6.0,138.0,13.5,126.0,21.0,114.0,36.0,102.0,64.5" stroke="black" stroke-width="1" fill="none" />
<polyline points="157.5,67.5,169.5,49.5,181.5,42.0,199.5,40.5,223.5,52.5,237.0,64.5,243.0,76.5" stroke="black" stroke-width="1" fill="none" />
<polyline points="279.0,55.5,267.0,31.5,255.0,21.0,243.0,12.0,231.0,4.5,219.0,1.5" stroke="black" stroke-width="1" fill="none" />
<polyline points="247.5,213.0,252.0,225.0,255.0,237.0,255.0,249.0,262.5,261.0,261.0,273.0,259.5,274.5" stroke="black" stroke-width="1" fill="none" />
<polyline points="256.5,270.0,256.5,258.0,261.0,243.0,259.5,231.0,255.0,219.0" stroke="black" stroke-width="1" fill="none" />
</svg>