<svg xmlns="http://www.w3.org/2000/svg" height="236px" width="317px" version="1.1"><polyline points="204.0,49.5,210.0,61.5,210.0,73.5,207.0,87.0,217.5,99.0,222.0,100.5,225.0,112.5,219.0,120.0" stroke="black" stroke-width="1" fill="none" />
<polyline points="204.0,145.5,216.0,147.0,228.0,147.0,240.0,147.0,252.0,147.0" stroke="black" stroke-width="1" fill="none" />
<polyline points="250.5,157.5,238.5,156.0" stroke="black" stroke-width="1" fill="none" />
<polyline points="237.0,154.5,249.0,151.5" stroke="black" stroke-width="1" fill="none" />
<polyline points="249.0,177.0,237.0,178.5" stroke="black" stroke-width="1" fill="none" />
<polyline points="232.5,181.5,238.5,177.0,231.0,177.0,232.5,189.0" stroke="black" stroke-width="1" fill="none" />
<polyline points="231.0,177.0,243.0,172.5,250.5,175.5,246.0,187.5,253.5,181.5,265.5,184.5,261.0,178.5,253.5,183.0" stroke="black" stroke-width="1" fill="none" />
<polyline points="283.5,180.0,297.0,177.0,294.0,189.0,291.0,201.0,289.5,213.0" stroke="black" stroke-width="1" fill="none" />
<polyline points="295.5,210.0,301.5,198.0,316.5,186.0,309.0,195.0,297.0,201.0" stroke="black" stroke-width="1" fill="none" />
<polyline points="304.5,189.0,307.5,177.0" stroke="black" stroke-width="1" fill="none" />
<polyline points="259.5,216.0,271.5,211.5,259.5,219.0,265.5,219.0,271.5,231.0,262.5,228.0,268.5,234.0" stroke="black" stroke-width="1" fill="none" />
<polyline points="267.0,219.0,268.5,225.0,252.0,228.0,243.0,228.0,240.0,225.0,240.0,213.0,250.5,211.5,238.5,216.0" stroke="black" stroke-width="1" fill="none" />
<polyline points="228.0,213.0,229.5,225.0,228.0,226.5" stroke="black" stroke-width="1" fill="none" />
<polyline points="228.0,213.0,216.0,213.0,196.5,216.0,180.0,217.5,175.5,211.5,159.0,214.5,147.0,213.0,145.5,226.5,157.5,219.0,145.5,220.5" stroke="black" stroke-width="1" fill="none" />
<polyline points="133.5,231.0,133.5,219.0,126.0,219.0" stroke="black" stroke-width="1" fill="none" />
<polyline points="109.5,216.0,111.0,228.0" stroke="black" stroke-width="1" fill="none" />
<polyline points="103.5,216.0,115.5,214.5,126.0,220.5,127.5,232.5,142.5,229.5,154.5,235.5" stroke="black" stroke-width="1" fill="none" />
<polyline points="172.5,229.5,171.0,217.5" stroke="black" stroke-width="1" fill="none" />
<polyline points="177.0,217.5,178.5,229.5" stroke="black" stroke-width="1" fill="none" />
<polyline points="196.5,225.0,195.0,213.0" stroke="black" stroke-width="1" fill="none" />
<polyline points="204.0,211.5,190.5,217.5,192.0,229.5,196.5,234.0,201.0,220.5" stroke="black" stroke-width="1" fill="none" />
<polyline points="207.0,225.0,205.5,213.0" stroke="black" stroke-width="1" fill="none" />
<polyline points="219.0,211.5,216.0,223.5,217.5,228.0,231.0,222.0" stroke="black" stroke-width="1" fill="none" />
<polyline points="228.0,186.0,228.0,172.5,216.0,168.0" stroke="black" stroke-width="1" fill="none" />
<polyline points="220.5,151.5,208.5,151.5" stroke="black" stroke-width="1" fill="none" />
<polyline points="219.0,157.5,207.0,159.0,195.0,151.5,183.0,148.5,171.0,150.0,159.0,150.0,147.0,150.0,135.0,150.0,123.0,151.5" stroke="black" stroke-width="1" fill="none" />
<polyline points="124.5,153.0,136.5,154.5,148.5,154.5,160.5,154.5,172.5,153.0,184.5,154.5,196.5,159.0,208.5,168.0,220.5,166.5,232.5,166.5,244.5,165.0,256.5,163.5" stroke="black" stroke-width="1" fill="none" />
<polyline points="274.5,118.5,262.5,102.0,250.5,88.5" stroke="black" stroke-width="1" fill="none" />
<polyline points="250.5,88.5,255.0,100.5,264.0,112.5,270.0,124.5,274.5,136.5,277.5,148.5,279.0,160.5,265.5,175.5,271.5,175.5,277.5,177.0,283.5,181.5,280.5,190.5,261.0,187.5,271.5,193.5,283.5,198.0,282.0,190.5,289.5,187.5,309.0,177.0" stroke="black" stroke-width="1" fill="none" />
<polyline points="271.5,124.5,259.5,105.0,247.5,93.0" stroke="black" stroke-width="1" fill="none" />
<polyline points="253.5,93.0,265.5,105.0,273.0,117.0,277.5,129.0,282.0,141.0,283.5,153.0,285.0,165.0,286.5,174.0,298.5,174.0,310.5,183.0" stroke="black" stroke-width="1" fill="none" />
<polyline points="198.0,180.0,186.0,180.0" stroke="black" stroke-width="1" fill="none" />
<polyline points="187.5,178.5,186.0,190.5" stroke="black" stroke-width="1" fill="none" />
<polyline points="175.5,195.0,162.0,183.0,178.5,171.0,171.0,159.0,159.0,160.5,147.0,160.5,135.0,160.5,123.0,160.5" stroke="black" stroke-width="1" fill="none" />
<polyline points="124.5,165.0,136.5,165.0,148.5,166.5,160.5,166.5" stroke="black" stroke-width="1" fill="none" />
<polyline points="157.5,171.0,151.5,183.0,151.5,195.0,142.5,216.0,141.0,228.0,160.5,231.0,154.5,228.0" stroke="black" stroke-width="1" fill="none" />
<polyline points="142.5,192.0,133.5,193.5,121.5,187.5,109.5,189.0" stroke="black" stroke-width="1" fill="none" />
<polyline points="106.5,213.0,105.0,225.0,103.5,231.0,115.5,226.5" stroke="black" stroke-width="1" fill="none" />
<polyline points="132.0,171.0,126.0,177.0,141.0,184.5,151.5,183.0,168.0,189.0,180.0,198.0,192.0,199.5,204.0,198.0,216.0,190.5,222.0,193.5,241.5,195.0,247.5,189.0" stroke="black" stroke-width="1" fill="none" />
<polyline points="250.5,136.5,238.5,139.5,226.5,139.5,214.5,141.0,202.5,142.5,202.5,136.5,190.5,141.0,178.5,144.0,166.5,142.5" stroke="black" stroke-width="1" fill="none" />
<polyline points="165.0,133.5,177.0,132.0,192.0,132.0,204.0,130.5,223.5,126.0,235.5,126.0,237.0,118.5,250.5,126.0,252.0,141.0" stroke="black" stroke-width="1" fill="none" />
<polyline points="213.0,180.0,207.0,168.0,186.0,156.0" stroke="black" stroke-width="1" fill="none" />
<polyline points="192.0,151.5,214.5,168.0,219.0,178.5,216.0,190.5" stroke="black" stroke-width="1" fill="none" />
<polyline points="204.0,183.0,202.5,175.5,190.5,172.5,178.5,171.0,166.5,175.5,154.5,171.0,142.5,171.0,130.5,175.5,120.0,166.5,108.0,181.5,96.0,195.0,84.0,196.5,73.5,186.0,70.5,192.0,64.5,187.5,63.0,175.5,66.0,163.5,73.5,151.5,76.5,148.5,64.5,166.5" stroke="black" stroke-width="1" fill="none" />
<polyline points="69.0,172.5,81.0,151.5,75.0,159.0,70.5,171.0,69.0,183.0" stroke="black" stroke-width="1" fill="none" />
<polyline points="76.5,180.0,78.0,168.0,91.5,162.0,79.5,165.0,82.5,180.0,84.0,168.0,94.5,189.0,103.5,177.0,105.0,165.0,102.0,153.0,100.5,138.0,105.0,126.0,111.0,114.0,117.0,106.5,105.0,126.0" stroke="black" stroke-width="1" fill="none" />
<polyline points="102.0,144.0,109.5,156.0,112.5,168.0,109.5,180.0,100.5,192.0,94.5,189.0" stroke="black" stroke-width="1" fill="none" />
<polyline points="85.5,186.0,94.5,174.0,90.0,162.0" stroke="black" stroke-width="1" fill="none" />
<polyline points="121.5,144.0,133.5,142.5,145.5,144.0,157.5,144.0,169.5,139.5" stroke="black" stroke-width="1" fill="none" />
<polyline points="168.0,117.0,156.0,117.0,144.0,120.0" stroke="black" stroke-width="1" fill="none" />
<polyline points="145.5,117.0,144.0,129.0,136.5,133.5" stroke="black" stroke-width="1" fill="none" />
<polyline points="144.0,132.0,132.0,127.5,120.0,141.0" stroke="black" stroke-width="1" fill="none" />
<polyline points="129.0,124.5,126.0,136.5,126.0,148.5,123.0,165.0,114.0,178.5,109.5,190.5,123.0,190.5" stroke="black" stroke-width="1" fill="none" />
<polyline points="178.5,178.5,175.5,190.5,171.0,186.0,189.0,193.5,201.0,192.0" stroke="black" stroke-width="1" fill="none" />
<polyline points="196.5,115.5,184.5,121.5,183.0,93.0,189.0,91.5,195.0,79.5,195.0,66.0,198.0,54.0,193.5,60.0" stroke="black" stroke-width="1" fill="none" />
<polyline points="204.0,49.5,211.5,70.5" stroke="black" stroke-width="1" fill="none" />
<polyline points="223.5,102.0,208.5,103.5,189.0,111.0,169.5,108.0,165.0,112.5,177.0,109.5,175.5,97.5,177.0,85.5" stroke="black" stroke-width="1" fill="none" />
</svg>