<svg xmlns="http://www.w3.org/2000/svg" height="486px" width="474px" version="1.1"><polyline points="243.0,26.5,240.5,30.5,242.0,34.5,243.5,38.5,245.5,42.5,251.0,46.0" stroke="black" stroke-width="1" fill="none" />
<polyline points="246.0,51.0,245.5,55.0,245.5,59.0,246.0,63.0,247.5,70.0,247.5,74.0,248.5,78.0,248.0,81.0,236.5,83.5,234.5,87.5,241.0,91.5,243.5,95.5,246.5,99.5,248.0,103.5,249.5,107.5,251.5,111.5,253.5,115.5,255.5,119.0,257.5,123.0,258.5,127.0,258.5,131.0,258.5,135.0,258.5,139.0,258.0,143.0,257.5,147.0,258.0,151.0,258.0,155.0,258.5,159.0,262.0,160.0,266.0,161.0,270.0,161.5,274.0,160.0,278.0,158.0,282.0,156.5,286.0,154.0,290.0,153.0,294.0,151.0,298.0,145.0,302.0,139.5,306.0,133.5,310.0,129.0,314.0,124.0,318.0,119.5,322.0,115.5,328.5,113.0,332.5,116.0,336.5,118.0,340.5,116.0,344.5,112.0,348.5,107.5" stroke="black" stroke-width="1" fill="none" />
<polyline points="351.5,98.0,347.5,89.0" stroke="black" stroke-width="1" fill="none" />
<polyline points="346.0,82.5,350.0,75.0,354.0,68.0" stroke="black" stroke-width="1" fill="none" />
<polyline points="352.0,68.0,348.0,74.5,344.0,82.5" stroke="black" stroke-width="1" fill="none" />
<polyline points="356.5,71.0,357.0,75.0,358.0,79.0,358.5,83.0,359.5,87.0,360.5,91.0,361.0,95.0,361.5,99.0,362.0,103.0,363.0,106.0,360.5,110.0,358.0,114.0,357.0,115.0,361.0,109.0" stroke="black" stroke-width="1" fill="none" />
<polyline points="361.0,112.0,358.5,116.0,360.0,113.5" stroke="black" stroke-width="1" fill="none" />
<polyline points="362.0,113.0,361.5,117.0,361.0,121.0,359.0,125.0,354.5,129.0,350.0,133.0,349.0,133.0,352.5,130.5,356.5,128.0,360.5,123.0,366.5,129.0,370.5,134.5,374.5,140.5,378.5,144.5,382.5,147.0,386.5,148.5,390.5,150.5,394.5,152.0,398.5,153.5,402.5,154.5,406.5,156.0,410.5,158.0,414.5,157.5,418.5,158.0" stroke="black" stroke-width="1" fill="none" />
<polyline points="418.5,158.0,420.0,162.0,420.5,166.0,421.0,170.0" stroke="black" stroke-width="1" fill="none" />
<polyline points="419.0,169.0,419.0,165.0,418.0,163.0,416.0,159.0" stroke="black" stroke-width="1" fill="none" />
<polyline points="403.5,155.0,391.0,152.5" stroke="black" stroke-width="1" fill="none" />
<polyline points="383.0,150.0,375.5,146.0,373.0,142.0,370.0,138.0,367.5,134.0,365.0,130.0,362.0,126.0" stroke="black" stroke-width="1" fill="none" />
<polyline points="361.5,125.0,358.0,129.0,352.0,133.0,348.5,137.0,345.5,141.0,342.5,145.0,335.0,149.0,326.5,150.5,329.5,151.5,333.5,150.0,337.5,148.0,341.5,145.5,345.5,140.5,349.5,136.5,353.5,132.0,357.5,129.5,361.5,125.0,365.5,130.5,369.5,136.0,373.0,142.0,377.0,146.5,381.0,148.5,385.0,150.5,389.0,152.0,393.0,153.0,397.0,155.0,401.0,156.0,405.0,157.5,409.0,159.5,413.0,160.0,417.0,159.5" stroke="black" stroke-width="1" fill="none" />
<polyline points="446.0,168.5,444.0,172.5,442.5,176.5,440.5,180.5,436.0,184.5,429.0,188.5,420.0,192.5,412.5,196.5,410.0,200.5,410.0,200.0,414.0,195.5,418.0,194.0,422.0,191.5,426.0,190.5,430.0,188.0,434.0,186.0,438.0,182.0,442.0,177.5,446.0,168.5,450.0,169.5,454.0,171.5,458.0,173.0,462.0,175.0" stroke="black" stroke-width="1" fill="none" />
<polyline points="465.5,175.0,461.5,173.0,457.5,171.0" stroke="black" stroke-width="1" fill="none" />
<polyline points="463.0,172.5,456.5,170.5,452.5,168.5,448.5,166.5" stroke="black" stroke-width="1" fill="none" />
<polyline points="448.0,166.0,452.0,164.0,456.0,167.0,460.0,170.5,464.0,172.5" stroke="black" stroke-width="1" fill="none" />
<polyline points="451.5,163.5,456.0,167.5,458.0,171.5,465.5,175.5,467.5,179.5,469.0,183.5,470.0,187.5,471.5,191.5,472.5,195.5,473.0,199.5,474.0,200.5,472.5,204.5,468.0,208.5,464.0,212.5,458.5,216.5,457.5,217.5,461.5,215.0,465.5,211.0,469.5,207.0,473.5,203.5" stroke="black" stroke-width="1" fill="none" />
<polyline points="471.0,207.5,467.5,211.5,463.0,215.5,458.5,219.0,462.5,216.0,466.5,212.5,470.5,208.0" stroke="black" stroke-width="1" fill="none" />
<polyline points="472.0,208.5,470.0,212.5,468.0,216.5,466.0,220.5,464.0,224.5,462.0,228.5,460.5,232.5,458.0,236.5,456.5,240.5,454.0,247.0,457.5,251.0,461.0,255.0,464.0,259.0,467.5,263.0,471.0,267.0,472.5,271.0,472.0,275.0,471.0,279.0,470.0,283.0,469.0,287.0,468.0,291.0,466.5,295.0,465.5,299.0,464.5,303.0,460.5,307.0,456.5,311.0,453.5,315.0,449.5,319.0,446.0,323.0" stroke="black" stroke-width="1" fill="none" />
<polyline points="424.5,306.0,431.5,302.0,439.0,298.0,443.0,294.0,444.5,290.0,446.0,286.0,449.0,282.0,449.5,278.0,448.5,276.0,444.5,275.0,440.5,272.5,436.5,270.0,432.5,268.0,428.5,264.5" stroke="black" stroke-width="1" fill="none" />
<polyline points="424.5,252.0,428.5,251.0,432.5,250.0,436.5,249.0,440.5,248.0,444.5,247.5,448.5,246.5,452.5,246.0,456.5,249.0,460.5,254.0,464.5,259.5,468.5,263.5,472.5,270.0" stroke="black" stroke-width="1" fill="none" />
<polyline points="447.0,277.0,443.0,276.0,439.0,274.0,435.0,271.5,431.0,269.5,427.0,265.0,423.0,256.0,419.0,254.0,415.0,254.0,411.0,254.0,407.0,256.5,403.0,261.0,399.0,266.0,395.0,269.0,391.0,273.5,387.0,270.0" stroke="black" stroke-width="1" fill="none" />
<polyline points="386.0,271.5,390.0,275.5" stroke="black" stroke-width="1" fill="none" />
<polyline points="399.5,282.0,403.5,279.0,407.5,277.5,408.5,279.0,406.5,283.0,404.0,287.0,404.5,283.5,401.5,282.0,401.0,286.0" stroke="black" stroke-width="1" fill="none" />
<polyline points="401.0,283.0,405.0,280.0,403.0,285.0,402.5,289.0" stroke="black" stroke-width="1" fill="none" />
<polyline points="408.0,297.0,403.0,301.0,400.0,305.0,397.0,309.0,394.0,313.0" stroke="black" stroke-width="1" fill="none" />
<polyline points="398.5,321.0,406.5,325.0,416.0,329.0,419.5,335.0,418.0,339.0,417.0,343.0,414.0,347.0,403.5,351.0,393.0,355.0" stroke="black" stroke-width="1" fill="none" />
<polyline points="389.0,356.5,385.0,356.5,381.0,356.5" stroke="black" stroke-width="1" fill="none" />
<polyline points="377.0,358.5,378.5,362.5,378.5,366.5,377.0,370.5,374.0,374.5,371.0,378.5" stroke="black" stroke-width="1" fill="none" />
<polyline points="375.5,372.0,371.5,378.0,367.5,381.5,363.5,382.5,359.5,382.5,355.5,382.5,351.5,382.5,347.5,382.5,343.5,382.0,339.5,382.0,335.5,382.0,331.5,381.5,327.5,379.5,323.5,375.5,319.5,371.5,315.5,366.5,311.5,363.5" stroke="black" stroke-width="1" fill="none" />
<polyline points="310.0,366.0,314.0,370.0,318.0,374.0,322.0,378.0,326.5,382.0" stroke="black" stroke-width="1" fill="none" />
<polyline points="343.0,384.5,339.0,384.5,335.0,384.5,328.5,382.5,324.5,380.0,320.5,376.0,316.5,372.0,312.5,368.0,308.5,364.5,304.5,369.0" stroke="black" stroke-width="1" fill="none" />
<polyline points="306.0,370.0,308.0,367.5,306.5,371.5,309.5,375.5,307.0,379.5,305.0,383.5,300.0,387.5,294.5,391.5" stroke="black" stroke-width="1" fill="none" />
<polyline points="287.5,391.0,288.0,387.0,288.0,386.5" stroke="black" stroke-width="1" fill="none" />
<polyline points="289.5,386.0,289.5,390.0" stroke="black" stroke-width="1" fill="none" />
<polyline points="276.0,392.5,280.0,393.5,284.0,393.5,288.0,393.5,292.0,393.0,296.0,390.5,300.0,387.5,304.0,384.5,308.0,378.5" stroke="black" stroke-width="1" fill="none" />
<polyline points="308.5,361.0,312.5,362.0,316.5,365.0,320.5,366.5,324.5,367.5,328.5,367.5,332.5,367.0,336.5,365.5,340.5,363.5,344.5,361.0,348.5,359.0,352.5,354.5,356.5,346.5,360.5,351.0,364.5,354.5,368.5,357.5,372.5,357.5,376.5,358.0" stroke="black" stroke-width="1" fill="none" />
<polyline points="364.5,355.0,360.0,351.0,356.5,347.0" stroke="black" stroke-width="1" fill="none" />
<polyline points="346.0,333.0,350.0,337.0,354.0,341.0,358.0,345.5,362.0,350.0,366.0,353.0,370.0,354.0,374.0,354.5,378.0,355.0,382.0,355.5,386.0,355.5,390.0,355.5,394.0,355.0,398.0,353.5,402.0,352.0,406.0,350.5,410.0,348.5,414.0,347.0" stroke="black" stroke-width="1" fill="none" />
<polyline points="385.0,330.5,390.5,326.5,392.5,322.5,388.5,318.5,387.0,314.5,383.5,312.5,379.5,316.5" stroke="black" stroke-width="1" fill="none" />
<polyline points="375.5,320.5,379.5,314.5,383.5,310.5,382.0,313.5,379.5,317.5,378.5,321.5,379.5,325.5,381.0,329.5" stroke="black" stroke-width="1" fill="none" />
<polyline points="379.0,323.0,383.0,331.0,387.0,329.5,391.0,326.0,400.5,324.0,409.5,328.0" stroke="black" stroke-width="1" fill="none" />
<polyline points="417.0,331.0,413.0,329.5,409.0,327.5,405.0,326.0,401.0,324.0,397.0,322.5,393.0,326.0,389.0,330.0,385.0,332.5,381.0,334.5,377.0,337.0,373.0,338.5,369.0,337.5,365.0,336.5,361.0,334.5,357.0,333.0,353.0,331.5,349.0,331.0,345.0,332.0" stroke="black" stroke-width="1" fill="none" />
<polyline points="344.5,331.0,348.5,329.5,352.5,329.0,356.5,330.5,360.5,332.5,364.5,334.0,368.5,335.0" stroke="black" stroke-width="1" fill="none" />
<polyline points="380.0,330.5,376.0,322.0" stroke="black" stroke-width="1" fill="none" />
<polyline points="358.5,334.0,350.5,330.0" stroke="black" stroke-width="1" fill="none" />
<polyline points="354.0,329.5,363.0,333.5,370.0,336.0,374.0,336.0,378.0,334.0" stroke="black" stroke-width="1" fill="none" />
<polyline points="341.0,330.5,345.0,336.5,349.0,340.0,353.0,344.0,354.5,349.5,353.0,353.5,351.0,357.5,343.5,361.5,336.0,365.5" stroke="black" stroke-width="1" fill="none" />
<polyline points="341.5,358.5,337.5,352.0" stroke="black" stroke-width="1" fill="none" />
<polyline points="337.5,352.0,338.5,356.0,340.0,360.0,335.0,364.0" stroke="black" stroke-width="1" fill="none" />
<polyline points="336.5,363.5,332.5,365.0,328.5,366.0,324.5,365.5,320.5,364.5,316.5,363.0,312.5,360.5,308.5,358.0" stroke="black" stroke-width="1" fill="none" />
<polyline points="308.5,358.5,316.0,362.5" stroke="black" stroke-width="1" fill="none" />
<polyline points="317.0,365.5,308.0,363.5,304.0,358.5" stroke="black" stroke-width="1" fill="none" />
<polyline points="286.0,374.0,282.0,373.0,278.0,371.0,274.0,364.0" stroke="black" stroke-width="1" fill="none" />
<polyline points="273.5,362.0,275.0,366.0,277.0,370.0" stroke="black" stroke-width="1" fill="none" />
<polyline points="271.5,360.5,271.5,364.5,271.5,368.5,271.5,372.5,271.5,376.5,272.0,380.5,272.0,384.5,272.5,388.5,273.0,394.5,277.0,397.0,280.0,395.5,284.0,399.5,288.0,403.0,292.0,407.5,296.0,410.5,300.0,410.5,304.0,410.5,308.0,410.5,312.0,410.5" stroke="black" stroke-width="1" fill="none" />
<polyline points="313.0,414.0,314.5,418.0,314.5,422.0,313.0,426.0,311.5,430.0,310.0,434.0,308.0,438.0,304.0,442.0,301.5,445.5,302.5,449.5,304.5,453.5,309.0,458.0,306.0,462.0,304.0,464.5,304.0,468.5,311.5,472.5" stroke="black" stroke-width="1" fill="none" />
<polyline points="315.5,474.0,320.0,470.0,324.5,466.0,320.0,470.0,316.0,474.0,312.0,472.5,308.0,470.0,304.0,468.0" stroke="black" stroke-width="1" fill="none" />
<polyline points="303.5,465.0,307.5,463.5,310.5,461.0,314.5,465.5,318.5,466.0,323.0,465.5,328.5,462.0,332.5,466.5" stroke="black" stroke-width="1" fill="none" />
<polyline points="332.5,470.5,332.5,466.5,329.0,462.5" stroke="black" stroke-width="1" fill="none" />
<polyline points="331.5,456.0,329.5,461.0,333.5,465.0,333.5,471.0,337.5,469.0,341.5,469.0,345.5,469.0,349.5,467.5,354.5,466.5,358.5,465.5,362.5,463.5,366.5,465.0,370.5,468.0" stroke="black" stroke-width="1" fill="none" />
<polyline points="369.0,464.0,372.0,463.0,376.0,464.5" stroke="black" stroke-width="1" fill="none" />
<polyline points="373.5,462.0,377.5,463.0,381.5,463.5,385.5,462.5,389.5,461.0,392.0,465.5,392.0,469.5,391.0,473.5,387.5,477.5,389.0,475.0,388.0,474.0,386.5,474.0,385.0,478.0" stroke="black" stroke-width="1" fill="none" />
<polyline points="384.5,467.5,387.5,463.5,389.0,458.0,385.0,456.0,381.0,455.5,377.0,456.5,373.0,458.5" stroke="black" stroke-width="1" fill="none" />
<polyline points="376.0,456.5,373.0,460.5,369.5,464.5,373.0,468.5,373.5,472.5,373.0,476.5,374.0,478.0,378.0,479.5,382.0,480.0,386.0,474.5" stroke="black" stroke-width="1" fill="none" />
<polyline points="369.5,476.0,365.5,478.0,361.5,478.5,357.5,479.5,353.5,480.5,349.5,482.0,345.0,484.0,347.5,480.0" stroke="black" stroke-width="1" fill="none" />
<polyline points="345.0,467.5,341.0,467.5" stroke="black" stroke-width="1" fill="none" />
<polyline points="354.5,478.5,350.5,479.5,346.5,480.5,340.0,483.5,328.5,479.0,330.0,476.0,326.0,478.0" stroke="black" stroke-width="1" fill="none" />
<polyline points="327.0,478.5,331.0,479.5,334.0,481.5,338.0,483.0,342.0,484.0,348.0,485.0,352.0,485.5,356.0,485.5,360.0,485.0,364.0,484.0,368.0,481.5" stroke="black" stroke-width="1" fill="none" />
<polyline points="366.5,483.0,369.5,479.0,371.0,475.0,371.0,471.0,369.0,467.0,363.0,463.0" stroke="black" stroke-width="1" fill="none" />
<polyline points="357.0,464.0,353.0,465.0,349.0,466.0,345.0,466.5,341.0,466.5,337.0,466.5,333.0,464.0,329.0,460.5,323.5,464.0,319.5,464.5,315.5,464.0,311.5,458.5" stroke="black" stroke-width="1" fill="none" />
<polyline points="308.0,452.5,304.0,448.0" stroke="black" stroke-width="1" fill="none" />
<polyline points="302.0,448.0,306.0,454.0" stroke="black" stroke-width="1" fill="none" />
<polyline points="303.5,445.5,304.5,449.5,306.5,453.5,311.5,455.0,315.0,453.5,319.0,454.0,323.0,458.5,329.0,457.0,333.0,456.0,337.0,456.0,341.0,456.0,345.0,456.0,349.0,456.5,353.0,456.5,357.0,457.5,361.0,461.0" stroke="black" stroke-width="1" fill="none" />
<polyline points="360.5,461.0,355.0,457.0" stroke="black" stroke-width="1" fill="none" />
<polyline points="383.5,455.5,391.0,459.5,383.0,463.5,383.5,467.5,385.0,465.0,389.0,463.0" stroke="black" stroke-width="1" fill="none" />
<polyline points="327.0,476.0,325.0,476.5,323.0,472.5,325.0,468.5,326.5,464.5,324.5,462.5,322.5,458.5,319.5,454.5" stroke="black" stroke-width="1" fill="none" />
<polyline points="313.0,465.0,310.5,461.0,305.5,462.5,301.5,463.0,297.5,463.0,293.5,461.5,289.5,458.5,285.5,454.5" stroke="black" stroke-width="1" fill="none" />
<polyline points="285.0,450.5,289.0,449.0,293.0,448.0,297.0,446.0,301.0,445.0,305.0,443.5,309.0,443.0,310.5,444.5,311.5,448.5,312.0,452.5,312.0,455.5,311.5,459.5,312.5,461.5" stroke="black" stroke-width="1" fill="none" />
<polyline points="292.5,461.5,287.5,457.5,285.0,453.5,285.5,449.5" stroke="black" stroke-width="1" fill="none" />
<polyline points="266.5,425.5,262.5,425.5" stroke="black" stroke-width="1" fill="none" />
<polyline points="263.0,422.5,257.5,426.5,255.0,430.5,252.5,434.5,257.5,429.0,261.0,426.0,265.0,424.5,269.0,424.5,273.0,424.5,277.0,423.5,281.0,422.5,284.5,420.5,288.5,414.5" stroke="black" stroke-width="1" fill="none" />
<polyline points="294.0,409.5,289.5,405.5,285.5,401.5,282.0,397.5,276.0,393.5,273.5,389.5" stroke="black" stroke-width="1" fill="none" />
<polyline points="274.5,391.0,278.5,391.0,282.5,391.5,286.5,392.0" stroke="black" stroke-width="1" fill="none" />
<polyline points="280.5,400.5,285.0,404.5,289.5,408.5,288.0,412.5,285.0,416.5,281.5,420.5" stroke="black" stroke-width="1" fill="none" />
<polyline points="268.5,406.5,264.5,407.5,260.5,408.5,256.5,409.0,256.5,405.0,256.5,401.0,256.5,397.0,256.5,393.0,257.5,389.0,265.0,385.0,269.0,382.5,265.0,385.0,261.0,387.5,257.0,390.5" stroke="black" stroke-width="1" fill="none" />
<polyline points="255.0,396.0,255.0,400.0,254.5,404.0,255.5,408.0,259.5,407.0,263.5,406.0,267.5,405.0,271.5,403.5,275.5,401.0" stroke="black" stroke-width="1" fill="none" />
<polyline points="270.0,383.0,270.5,387.0,270.5,391.0,274.0,395.0,277.5,399.0,273.5,403.0,277.5,401.5,281.0,400.5,285.0,404.0,289.0,407.5,293.0,412.0,297.0,413.0,301.0,412.5,305.0,413.0,309.0,413.0,313.0,413.5" stroke="black" stroke-width="1" fill="none" />
<polyline points="315.5,417.0,315.5,421.0" stroke="black" stroke-width="1" fill="none" />
<polyline points="306.0,411.5,310.0,411.5,314.0,411.5,318.0,412.0,322.0,411.5,326.0,408.5,330.0,405.0,334.0,400.5,338.0,397.0,342.0,393.5" stroke="black" stroke-width="1" fill="none" />
<polyline points="343.5,385.0,344.0,389.0,342.5,393.0,338.0,397.0,334.0,401.0,330.0,405.0,325.0,409.0" stroke="black" stroke-width="1" fill="none" />
<polyline points="306.5,377.0,302.5,383.5,298.5,386.5,294.5,389.5,290.5,392.0,294.0,389.5,299.5,385.5,304.5,381.5,306.5,377.5,305.5,373.5,304.5,369.5,307.0,365.5,305.5,361.5,304.5,357.5,302.0,354.5,298.0,360.0,294.0,366.0,290.0,370.5,286.0,372.5,282.0,371.0,278.0,368.0,274.0,359.0" stroke="black" stroke-width="1" fill="none" />
<polyline points="272.5,357.5,276.5,353.0,280.5,348.0,284.5,342.5,288.5,339.0,292.5,339.5,296.5,339.0,300.5,339.0,304.5,339.5,305.0,342.0,305.5,346.0,304.5,350.0,302.5,354.0,299.5,358.0,297.0,362.0,294.0,366.0,290.5,370.0" stroke="black" stroke-width="1" fill="none" />
<polyline points="281.5,371.0,277.0,367.0,275.5,363.0,273.5,359.0,275.0,355.0,278.0,351.0,281.5,347.0,284.0,343.0,287.5,339.0" stroke="black" stroke-width="1" fill="none" />
<polyline points="308.0,341.0,308.0,337.0,308.0,333.0" stroke="black" stroke-width="1" fill="none" />
<polyline points="309.0,324.0,313.0,319.5,317.0,316.5,321.0,312.0,325.5,309.5,324.0,313.5,322.0,317.5,321.0,321.0,319.5,324.0,322.0,317.5,321.0,315.0,319.5,319.0,319.0,323.0,320.5,327.0,322.5,327.0,326.5,326.0,330.5,324.5,334.5,322.5,338.0,320.5,342.0,319.0,336.0,321.0,328.5,325.0" stroke="black" stroke-width="1" fill="none" />
<polyline points="332.5,321.5,340.5,317.5,343.5,313.5,343.5,309.5,340.5,308.5,336.5,309.0,332.5,308.5,328.5,308.5,324.5,311.0" stroke="black" stroke-width="1" fill="none" />
<polyline points="322.0,311.0,318.5,315.0,313.5,319.0,310.0,323.0,308.5,327.0,308.5,331.0,307.0,335.0,307.0,339.0,307.0,343.0,307.0,347.0,306.5,351.0,308.5,353.5,307.0,357.5,309.0,361.5,313.5,365.5,318.0,369.5,321.0,373.5,324.5,377.5,331.0,381.5,332.5,384.5,336.5,383.5,340.5,383.5" stroke="black" stroke-width="1" fill="none" />
<polyline points="350.5,355.0,346.5,358.0,342.5,360.5,348.0,357.0,351.5,353.0,353.0,349.0,353.5,345.0,350.0,341.0,345.0,337.0,342.5,333.0,341.5,329.0,341.5,325.0,343.0,321.0,340.5,317.5,336.5,319.5,332.5,321.0,328.5,323.0,324.5,324.5,320.5,324.0" stroke="black" stroke-width="1" fill="none" />
<polyline points="324.5,336.5,317.0,340.5,313.0,344.5,310.0,348.5,304.5,353.5,302.5,357.5,299.5,361.5,296.5,365.5,292.5,370.0,294.0,368.5,298.5,363.0,302.5,357.5,307.5,352.5,311.5,346.5,315.5,342.5,319.5,338.5,323.5,337.0,327.5,338.0,331.5,342.5" stroke="black" stroke-width="1" fill="none" />
<polyline points="334.0,347.0,330.0,343.0,325.0,339.0" stroke="black" stroke-width="1" fill="none" />
<polyline points="324.0,338.5,317.5,342.5,313.5,346.5,311.0,350.0,315.0,345.0,319.0,340.5,323.0,339.0,327.0,340.0" stroke="black" stroke-width="1" fill="none" />
<polyline points="326.0,337.5,330.5,341.0,330.5,343.5" stroke="black" stroke-width="1" fill="none" />
<polyline points="339.0,352.5,340.5,356.5,341.5,360.5" stroke="black" stroke-width="1" fill="none" />
<polyline points="352.0,301.5,356.0,301.5" stroke="black" stroke-width="1" fill="none" />
<polyline points="360.5,299.5,368.5,295.5,374.5,291.5,373.5,287.5,374.0,283.5,375.5,279.5,377.0,275.5,374.5,275.0,370.5,275.0,366.5,277.5,362.5,282.5,358.5,287.0,354.5,290.0,350.5,294.5" stroke="black" stroke-width="1" fill="none" />
<polyline points="348.5,297.0,348.5,301.0,352.5,300.5,356.5,300.0,360.5,299.5,364.5,298.0,368.5,295.5,372.5,294.0" stroke="black" stroke-width="1" fill="none" />
<polyline points="374.0,294.0,367.5,298.0,360.0,302.0" stroke="black" stroke-width="1" fill="none" />
<polyline points="347.0,296.5,346.5,300.5,346.0,304.5,346.0,308.5,345.5,312.5,345.5,316.5,345.0,320.5,344.0,324.5,344.0,328.5,346.0,333.0,349.0,337.0,353.5,341.0,357.0,345.0,361.0,349.0,365.5,353.0" stroke="black" stroke-width="1" fill="none" />
<polyline points="377.5,336.5,382.5,332.5,390.5,329.0,393.5,325.0,394.0,319.5,394.0,315.5,397.0,311.5,400.0,307.5,403.0,303.5,406.5,299.5" stroke="black" stroke-width="1" fill="none" />
<polyline points="411.5,298.0,419.0,302.0" stroke="black" stroke-width="1" fill="none" />
<polyline points="420.5,304.5,412.0,300.5" stroke="black" stroke-width="1" fill="none" />
<polyline points="379.5,287.0,376.0,283.0,378.0,279.0,379.5,275.0,380.5,271.0,381.5,267.0,383.0,263.0,386.0,259.0,386.0,255.0,390.0,251.0,397.5,247.0,398.0,247.0,394.0,249.0,390.0,251.0,386.0,255.0" stroke="black" stroke-width="1" fill="none" />
<polyline points="384.5,262.0,385.5,266.0,387.0,270.5,394.0,273.0" stroke="black" stroke-width="1" fill="none" />
<polyline points="390.0,279.0,389.0,275.0,385.5,271.0,386.5,267.0,387.0,263.0,385.0,259.5,381.0,268.0" stroke="black" stroke-width="1" fill="none" />
<polyline points="370.0,275.0,365.0,279.0,361.5,283.0,358.5,287.0,353.5,291.0,350.5,295.0,350.5,299.0,351.0,303.0,355.0,303.0,359.0,302.5,363.0,300.5,367.0,298.5,371.0,296.5,375.0,294.5,379.0,298.0,383.0,306.0,387.0,314.0,391.0,319.5,393.5,316.5,397.5,311.0,401.5,305.5,405.5,301.5,409.5,299.5,413.5,301.0,417.5,303.5,421.5,304.5,425.5,305.5,429.5,303.0,433.5,300.5,437.5,298.5,441.5,296.0,443.5,287.5,447.5,280.5" stroke="black" stroke-width="1" fill="none" />
<polyline points="447.5,284.5,443.5,291.5,437.5,297.0,433.5,299.0,429.5,300.5,425.5,303.5,421.5,302.5,417.5,300.5,413.5,299.0,409.5,297.5,405.5,298.0,401.5,303.0,397.5,308.0,393.5,313.5,389.5,314.5,385.5,306.0,381.5,298.0,377.5,289.5" stroke="black" stroke-width="1" fill="none" />
<polyline points="377.0,288.0,381.0,290.0" stroke="black" stroke-width="1" fill="none" />
<polyline points="383.5,289.0,379.5,286.5,375.5,284.5" stroke="black" stroke-width="1" fill="none" />
<polyline points="377.5,287.5,378.5,291.5,380.0,295.5,382.0,299.5,383.5,303.5,386.0,307.5,388.0,311.5,389.5,315.5,395.5,320.0,399.5,321.0,403.5,323.5,407.5,325.0,411.5,326.5,415.5,328.5,419.5,329.5,423.5,329.0,427.5,327.5,431.5,327.0,435.5,327.0,439.5,326.5,443.5,325.5,447.5,321.0,451.5,316.5,455.5,312.0,459.5,308.5,463.5,304.0" stroke="black" stroke-width="1" fill="none" />
<polyline points="442.0,274.0,435.5,270.0,429.0,266.0,427.5,262.0,426.0,258.0,424.0,254.0,431.5,250.0" stroke="black" stroke-width="1" fill="none" />
<polyline points="428.0,241.0,424.0,244.5,420.0,248.5,416.0,251.5,412.0,249.0,408.0,246.5,404.0,244.0,400.0,242.5,396.0,241.5,392.0,240.0,388.0,238.0,384.0,236.5,380.0,231.0,376.0,223.5,372.0,214.5" stroke="black" stroke-width="1" fill="none" />
<polyline points="371.5,213.5,375.5,214.0,379.5,213.0" stroke="black" stroke-width="1" fill="none" />
<polyline points="388.0,204.5,384.0,208.5,380.0,210.5,376.0,212.5,372.0,209.5,368.0,205.0" stroke="black" stroke-width="1" fill="none" />
<polyline points="371.0,195.5,375.0,194.5,379.0,195.0" stroke="black" stroke-width="1" fill="none" />
<polyline points="385.0,198.0,390.0,202.0,387.0,206.0,380.5,210.0,379.0,213.0" stroke="black" stroke-width="1" fill="none" />
<polyline points="380.5,233.5,379.0,229.5,377.0,225.5,375.0,221.5,373.0,217.5,371.5,213.5,371.0,209.5,368.0,205.5,369.0,201.5,371.0,197.5,372.0,193.5" stroke="black" stroke-width="1" fill="none" />
<polyline points="370.0,190.5,374.0,192.0,378.0,193.0,382.0,194.5,386.0,195.5,388.5,197.0,392.5,198.0,396.5,199.0,400.5,198.5,404.5,197.5,408.5,196.0,412.5,194.5,416.5,192.5,420.5,190.5,424.5,188.5,428.5,187.0,432.5,185.0,436.5,181.5,440.5,176.0,444.5,167.5,448.5,161.0" stroke="black" stroke-width="1" fill="none" />
<polyline points="451.0,162.5,448.5,166.5,451.0,170.5" stroke="black" stroke-width="1" fill="none" />
<polyline points="448.5,143.0,446.0,147.0,443.5,151.0,439.0,155.0,435.0,160.0,430.5,164.0,427.0,168.0,421.5,172.0,425.0,170.5,429.0,165.5,433.0,161.5,437.5,157.0,441.5,153.0,445.5,147.5,449.0,143.5,453.0,142.0" stroke="black" stroke-width="1" fill="none" />
<polyline points="450.5,141.5,448.0,142.0,444.5,146.0,441.5,150.0,437.5,154.0,434.5,158.0,430.5,162.0,426.5,166.0,420.5,171.5,424.5,168.0,428.5,163.5,432.5,160.0,436.5,155.0,440.5,151.5,444.5,146.0,448.5,141.0,452.5,139.5,456.5,139.0" stroke="black" stroke-width="1" fill="none" />
<polyline points="456.0,139.0,456.0,143.0,455.0,147.0,454.0,151.0,452.5,155.0,450.0,159.0,447.5,163.0,445.0,167.0,442.5,171.0,441.0,175.0,439.5,179.0,434.5,183.0,428.0,187.0,419.5,191.0,411.0,195.0" stroke="black" stroke-width="1" fill="none" />
<polyline points="407.5,198.5,403.5,199.5,399.5,200.5,395.5,201.0,391.5,203.0,390.5,204.5,394.0,200.5,388.0,199.0,384.0,197.5,380.5,194.0,369.5,190.0,367.5,189.0,363.5,188.0,359.5,187.5,355.5,187.0,351.5,185.5,347.5,182.0,343.5,178.5,339.5,175.0,335.5,171.5,331.5,167.0,327.5,163.0" stroke="black" stroke-width="1" fill="none" />
<polyline points="330.0,151.0,326.5,155.0,327.0,159.0,327.5,163.0,331.0,167.0,334.5,171.0,339.0,175.0,343.5,179.0,348.0,183.0" stroke="black" stroke-width="1" fill="none" />
<polyline points="339.5,144.5,343.5,140.5,345.5,136.5,347.0,132.5,350.0,128.5,348.0,130.5,344.0,139.0,340.0,144.5,336.0,147.0,332.0,148.5,328.0,150.0,324.0,151.5,320.0,153.0,316.0,154.0,312.0,156.5,308.0,153.0,304.0,150.5,300.0,147.0" stroke="black" stroke-width="1" fill="none" />
<polyline points="301.5,142.5,305.5,138.0,309.5,132.5,313.5,128.0,317.5,123.5,321.5,119.0,325.5,114.5,329.5,116.5,333.5,118.0,337.5,119.5,341.5,117.0,345.5,114.0,349.5,109.5" stroke="black" stroke-width="1" fill="none" />
<polyline points="344.0,115.5,347.5,111.5,351.0,107.5,352.5,103.5,351.5,99.5,350.0,95.5,348.0,91.5,347.0,87.5,346.0,83.5,347.5,79.5,349.5,75.5,352.0,71.5,355.0,67.5,351.5,60.0,347.5,57.5,343.5,55.0,339.5,53.0" stroke="black" stroke-width="1" fill="none" />
<polyline points="340.5,53.5,347.0,57.5,352.5,61.5,354.0,65.5,351.0,69.5,348.5,73.5,346.5,77.5,344.5,81.5,344.5,85.5,345.5,89.5,347.0,93.5,349.0,97.5,350.0,100.5,350.5,104.5,348.0,108.5,344.5,112.5,339.0,116.5" stroke="black" stroke-width="1" fill="none" />
<polyline points="334.0,119.0,326.5,115.0" stroke="black" stroke-width="1" fill="none" />
<polyline points="325.0,114.5,322.0,118.5,318.5,122.5,314.5,126.5,311.5,130.5,308.0,134.5,305.0,138.5,302.5,142.5,299.5,146.0,303.0,150.0,308.5,154.0" stroke="black" stroke-width="1" fill="none" />
<polyline points="278.0,158.0,286.0,154.0,295.0,150.0,297.5,146.0,300.5,142.0,303.0,138.0,305.5,134.0,309.5,130.0,312.5,126.0,316.5,122.0,319.5,118.0,323.0,114.0,323.5,110.0,323.0,106.0,319.5,105.5,315.5,104.5,311.5,101.0,307.5,95.5,303.5,97.0" stroke="black" stroke-width="1" fill="none" />
<polyline points="305.0,98.0,309.0,100.5,313.0,105.0,317.0,108.0,321.0,106.0" stroke="black" stroke-width="1" fill="none" />
<polyline points="322.0,105.5,321.5,103.5,323.0,99.5,323.5,95.5,323.5,91.5,323.5,87.5,323.5,83.5,324.0,79.5,323.5,75.5,322.5,71.5,319.0,67.5,315.0,63.5,310.5,59.5,306.0,55.5,303.0,51.5,299.5,47.5,297.0,43.5,294.5,39.5,292.0,35.5,287.5,40.0,283.5,45.5,282.0,48.0,284.5,44.0,287.5,40.0,290.0,36.0,288.5,30.0,284.5,27.5,280.5,27.5,276.5,27.0,272.5,27.5,268.5,27.5,264.5,27.5,260.5,27.5,256.5,27.0,252.5,27.5,248.5,27.0,244.5,26.5,240.5,28.0" stroke="black" stroke-width="1" fill="none" />
<polyline points="237.5,28.0,239.5,32.0,241.0,36.0,242.5,40.0,246.0,44.0" stroke="black" stroke-width="1" fill="none" />
<polyline points="247.0,52.0,247.0,56.0,247.0,60.0,248.0,64.0" stroke="black" stroke-width="1" fill="none" />
<polyline points="247.5,70.0,249.0,73.0,250.0,77.0,255.5,80.5,261.5,84.5,265.5,88.0,271.0,92.0,277.0,96.0,281.5,100.0,283.5,104.0,284.5,108.0,285.0,112.0,285.0,116.0,286.0,120.5,290.0,119.5,294.0,118.5,298.0,116.0,302.0,108.0" stroke="black" stroke-width="1" fill="none" />
<polyline points="297.5,114.0,293.5,116.5,289.5,118.0,285.5,116.5" stroke="black" stroke-width="1" fill="none" />
<polyline points="283.0,101.5,279.0,97.5,275.0,94.5,271.0,91.5,267.0,88.5,263.0,85.0,259.0,82.5,255.0,79.5,251.0,78.0,246.0,82.0,242.0,83.5,238.0,85.0,234.0,86.0" stroke="black" stroke-width="1" fill="none" />
<polyline points="234.5,87.0,238.5,89.5,242.5,93.5,246.5,99.0,250.5,109.0" stroke="black" stroke-width="1" fill="none" />
<polyline points="257.0,122.0,253.0,113.0,250.0,112.0,246.0,104.0,242.0,95.5,238.0,95.0,234.0,98.5,230.0,103.0,226.0,109.0,221.5,114.5,217.5,117.5,213.5,120.5,209.5,123.5,205.5,126.5,201.5,129.5,197.5,131.0,193.5,128.5,189.5,126.0,183.5,123.5,179.5,124.5,175.5,125.5,171.5,128.0,167.5,130.5,163.5,131.5" stroke="black" stroke-width="1" fill="none" />
<polyline points="164.5,132.5,168.5,134.5,171.5,136.0" stroke="black" stroke-width="1" fill="none" />
<polyline points="169.0,131.5,173.0,129.0,177.0,127.0,181.0,125.5" stroke="black" stroke-width="1" fill="none" />
<polyline points="178.0,124.5,170.5,128.5,164.0,132.5,169.0,136.0,171.5,140.0,173.0,140.5" stroke="black" stroke-width="1" fill="none" />
<polyline points="179.5,148.5,183.5,152.0,187.5,153.0,191.5,153.0,195.5,153.5,199.5,154.0" stroke="black" stroke-width="1" fill="none" />
<polyline points="201.0,156.0,197.0,156.0,194.5,156.0,192.0,155.0,188.0,155.0,184.0,154.5,180.0,150.0" stroke="black" stroke-width="1" fill="none" />
<polyline points="181.0,149.0,185.0,153.0" stroke="black" stroke-width="1" fill="none" />
<polyline points="181.0,152.0,180.5,148.0" stroke="black" stroke-width="1" fill="none" />
<polyline points="174.0,142.0,172.5,138.0,171.0,135.0,170.0,131.0,175.5,127.0" stroke="black" stroke-width="1" fill="none" />
<polyline points="187.5,126.5,191.5,129.5,195.5,132.0" stroke="black" stroke-width="1" fill="none" />
<polyline points="194.5,129.5,188.5,125.5" stroke="black" stroke-width="1" fill="none" />
<polyline points="188.0,125.0,190.5,129.0,197.0,133.0,199.0,137.0,200.0,141.0,201.0,145.0" stroke="black" stroke-width="1" fill="none" />
<polyline points="202.5,147.0,202.0,143.0,201.5,139.0,200.0,135.0,202.0,131.0,207.5,127.0,213.5,123.0,218.5,119.0,223.0,115.0" stroke="black" stroke-width="1" fill="none" />
<polyline points="221.5,114.5,216.0,118.5,211.5,122.5,205.5,126.5,199.5,130.5,203.5,130.0,207.5,127.0,211.5,124.5,215.5,121.5,219.5,118.5" stroke="black" stroke-width="1" fill="none" />
<polyline points="227.0,109.5,232.5,102.0,236.5,98.0" stroke="black" stroke-width="1" fill="none" />
<polyline points="238.0,95.0,236.0,99.0,231.0,104.5,228.0,108.5,227.0,112.5" stroke="black" stroke-width="1" fill="none" />
<polyline points="242.5,123.0,247.0,127.0,251.5,131.0,252.0,135.0,251.0,139.0,249.5,143.0,248.5,147.0,247.5,151.0,246.0,155.0,243.0,159.0,238.5,163.0,234.5,167.0,230.5,171.0,226.5,175.0,223.0,179.0,217.5,183.0" stroke="black" stroke-width="1" fill="none" />
<polyline points="220.0,184.5,223.5,181.0,227.5,177.0,231.0,173.0,234.5,169.0,239.0,165.0,243.0,161.0,247.0,157.0,248.0,153.0,249.5,149.0,251.0,145.0,252.0,141.0,254.0,137.0,255.0,133.0,255.5,128.5,256.0,124.5,254.5,120.5,251.5,116.5,250.0,112.5,247.5,108.5,246.0,104.5,244.0,100.5,242.5,96.5,237.5,91.5,233.5,89.0,229.5,87.5,225.5,85.0,221.5,82.5,217.5,81.0,213.5,78.5,209.5,76.5,205.5,75.0,201.5,73.5,197.5,73.5,193.5,73.5,189.5,73.5,185.5,74.0,181.5,74.5,177.5,74.0,173.5,74.0,169.5,74.0,165.5,74.0,161.5,73.5,157.5,74.5,153.5,76.0,149.5,78.5,145.5,81.0,141.5,84.0,137.5,86.5,133.5,89.0,129.5,91.5,125.5,94.5,121.5,99.5" stroke="black" stroke-width="1" fill="none" />
<polyline points="123.0,100.5,127.0,109.5,131.0,113.0" stroke="black" stroke-width="1" fill="none" />
<polyline points="135.0,126.0,139.0,126.0,143.0,127.0,147.0,128.5,151.0,129.5,155.0,130.5" stroke="black" stroke-width="1" fill="none" />
<polyline points="155.0,129.0,151.0,128.0,147.0,126.5,143.0,125.0,139.0,124.0,135.0,123.0,133.5,126.5" stroke="black" stroke-width="1" fill="none" />
<polyline points="128.5,134.0,124.5,137.5,120.5,140.0" stroke="black" stroke-width="1" fill="none" />
<polyline points="121.0,141.0,125.0,141.0,125.5,142.0,129.5,142.0,133.5,142.5,137.5,143.0,141.5,143.0,145.5,144.0,149.5,145.5,153.5,150.0,157.5,153.5,161.5,158.5,165.5,162.5,169.5,166.0,173.5,169.0,177.5,174.5,181.5,179.5,185.5,182.5,189.5,183.0,191.5,184.0,195.5,184.5,199.5,185.0,203.5,186.0,207.5,186.0,211.5,186.5,215.5,185.0,219.0,182.5,223.0,179.0,227.0,174.5,231.0,170.5,235.0,166.0,239.0,163.0,243.0,159.0,247.0,151.5,251.5,143.0" stroke="black" stroke-width="1" fill="none" />
<polyline points="251.0,130.0,247.0,126.5,243.0,124.5" stroke="black" stroke-width="1" fill="none" />
<polyline points="244.0,123.5,250.0,127.5,256.5,132.0,256.5,136.0,256.5,140.0,256.0,144.0,256.0,148.0,256.0,152.0,256.0,156.0,257.0,160.0,256.5,164.0,257.0,168.0,255.5,172.0,253.0,176.0,249.0,180.0,245.5,184.0,240.5,188.0,237.5,191.0,236.0,194.0,233.5,198.0,230.5,202.0,228.5,206.0" stroke="black" stroke-width="1" fill="none" />
<polyline points="222.0,208.5,221.0,212.5" stroke="black" stroke-width="1" fill="none" />
<polyline points="211.5,204.0,207.5,205.5,203.5,207.5,199.5,207.5" stroke="black" stroke-width="1" fill="none" />
<polyline points="199.0,204.5,203.0,206.0,207.0,203.5,211.0,203.0" stroke="black" stroke-width="1" fill="none" />
<polyline points="193.5,195.5,189.5,191.0" stroke="black" stroke-width="1" fill="none" />
<polyline points="186.5,185.0,190.5,185.5,194.5,186.5,198.5,186.5,202.5,187.5,206.5,187.5,210.5,188.5,214.5,187.5,218.5,185.5,222.0,182.5,226.0,179.0,230.0,173.5,234.0,170.0,238.0,165.5,242.0,162.0,246.0,158.0" stroke="black" stroke-width="1" fill="none" />
<polyline points="254.5,129.5,250.5,127.5,246.5,124.5,242.5,123.0" stroke="black" stroke-width="1" fill="none" />
<polyline points="284.5,120.5,283.5,116.5,283.0,112.5,282.5,108.5,282.0,104.5,280.0,100.5,272.5,96.5,269.0,92.5,263.5,88.5,258.0,84.5,253.0,80.5" stroke="black" stroke-width="1" fill="none" />
<polyline points="265.0,51.5,261.0,50.0,257.0,48.5,253.0,48.0,249.0,47.0,245.0,40.5,241.0,31.5" stroke="black" stroke-width="1" fill="none" />
<polyline points="236.5,28.0,230.5,32.0,223.5,36.0,217.0,40.0,207.0,44.0,200.5,48.0,201.5,52.0,201.5,56.0,202.0,60.0,202.5,61.0" stroke="black" stroke-width="1" fill="none" />
<polyline points="202.0,67.0,206.0,71.5,210.0,74.5,214.0,76.5,218.0,78.5,222.0,81.0,226.0,83.0,230.0,85.0,234.0,84.5,238.0,83.0,242.0,81.5,246.0,80.0,250.5,80.0,254.5,82.0,258.5,84.5,262.5,87.0,266.0,90.0,270.0,93.0,274.0,96.5,278.0,99.0,282.0,104.0" stroke="black" stroke-width="1" fill="none" />
<polyline points="296.0,117.0,300.5,113.0,302.0,109.0,303.0,105.0,304.5,101.0,305.5,97.0" stroke="black" stroke-width="1" fill="none" />
<polyline points="306.5,97.5,309.5,101.5,313.5,105.5" stroke="black" stroke-width="1" fill="none" />
<polyline points="313.0,103.0,309.5,99.0,306.5,95.0" stroke="black" stroke-width="1" fill="none" />
<polyline points="306.0,94.5,303.5,98.5,302.0,102.5,300.5,106.5,299.0,110.5,297.0,114.5,292.0,118.5" stroke="black" stroke-width="1" fill="none" />
<polyline points="324.0,69.0,320.0,65.5" stroke="black" stroke-width="1" fill="none" />
<polyline points="319.5,65.0,323.5,64.0" stroke="black" stroke-width="1" fill="none" />
<polyline points="328.5,62.5,324.5,62.5,320.5,62.0,316.5,62.0,312.5,59.0,308.5,54.5,304.5,50.0" stroke="black" stroke-width="1" fill="none" />
<polyline points="304.0,49.0,308.0,47.5,312.0,46.5,316.0,45.0,320.0,43.0,324.0,43.0,328.0,46.0,332.0,48.5,336.0,50.5,339.5,54.5,341.0,58.5,341.5,62.5" stroke="black" stroke-width="1" fill="none" />
<polyline points="358.5,71.0,362.5,69.0,366.5,68.5,371.0,69.0,375.0,70.0,379.0,71.0,383.0,71.5,387.0,72.0,391.0,72.0,394.5,74.0,398.5,77.0,402.5,86.0,406.5,95.5,410.5,103.5,414.5,111.5,418.5,120.0,422.5,119.0,426.5,118.5,430.5,118.0" stroke="black" stroke-width="1" fill="none" />
<polyline points="439.5,116.5,443.5,115.0,446.5,119.5" stroke="black" stroke-width="1" fill="none" />
<polyline points="448.5,122.0,445.0,118.0,444.0,113.5,445.0,109.5,446.0,105.5,447.0,101.5,447.5,97.5,448.0,93.5,448.0,89.5,448.0,89.0" stroke="black" stroke-width="1" fill="none" />
<polyline points="449.5,87.5,450.5,91.5,451.5,95.5,453.5,98.5,454.0,102.5,455.0,106.5,456.0,110.5,457.0,114.5,457.5,118.5,458.5,122.5,460.0,125.0,461.0,129.0,461.5,133.0,462.0,137.0,461.0,141.0,459.5,145.0,457.5,149.0,458.0,147.5" stroke="black" stroke-width="1" fill="none" />
<polyline points="457.0,147.5,458.0,143.5,458.5,139.5" stroke="black" stroke-width="1" fill="none" />
<polyline points="448.0,123.0,444.0,119.0,440.0,117.5" stroke="black" stroke-width="1" fill="none" />
<polyline points="431.0,119.0,427.0,120.5,423.0,121.5,419.0,123.0" stroke="black" stroke-width="1" fill="none" />
<polyline points="414.0,114.5,410.0,106.0,406.0,98.0,402.0,89.5,398.0,81.5,394.0,75.0" stroke="black" stroke-width="1" fill="none" />
<polyline points="394.0,75.0,397.0,79.0,398.5,83.0,401.0,87.0,402.5,91.0,404.0,95.0,406.0,99.0,408.0,103.0,410.0,107.0,412.0,111.0,414.0,115.0,415.5,119.0,417.0,123.0,417.0,127.0,416.5,131.0,417.0,135.0" stroke="black" stroke-width="1" fill="none" />
<polyline points="445.0,81.0,441.0,78.5,437.0,77.0,433.0,75.5,429.0,73.5,425.0,71.0,421.0,68.5,417.0,66.5,413.0,63.0,409.0,61.0,405.0,59.5,401.0,59.0,397.0,59.0,393.0,59.0" stroke="black" stroke-width="1" fill="none" />
<polyline points="397.0,58.0,393.0,58.0,389.0,58.0,385.0,60.0,381.0,61.5,377.0,63.5,373.0,65.5,369.5,69.0,373.5,64.5,383.0,60.5" stroke="black" stroke-width="1" fill="none" />
<polyline points="371.5,67.5,375.5,68.5,379.5,69.0,383.5,70.0,387.5,70.5,391.5,71.0" stroke="black" stroke-width="1" fill="none" />
<polyline points="396.0,74.5,399.0,78.5,400.0,82.5,402.5,86.5,404.0,90.5,406.0,94.5,408.0,98.5,409.5,102.5,412.0,106.5,413.5,110.5,415.5,114.5,417.5,118.5,419.0,123.5,419.0,127.5,419.0,131.5,419.0,133.5" stroke="black" stroke-width="1" fill="none" />
<polyline points="384.5,148.0,377.5,144.0,373.5,140.0,370.5,136.0,368.0,132.0,365.5,128.0,363.0,124.0,364.0,120.0,364.5,116.0,364.5,112.0,365.0,108.0,365.0,104.0,364.5,100.0,364.0,96.0,363.0,92.0,362.0,89.0,361.0,85.0,360.5,81.0,360.0,77.0,359.0,73.0,361.0,69.0" stroke="black" stroke-width="1" fill="none" />
<polyline points="339.5,63.0,339.0,59.0,338.0,55.0,336.0,51.0,329.5,47.0,323.0,43.0" stroke="black" stroke-width="1" fill="none" />
<polyline points="320.5,42.5,311.0,46.5,304.5,50.5,308.0,54.5,312.0,58.5,317.0,62.5,322.0,67.5,325.5,71.5,326.0,75.5,326.0,79.5,326.0,83.5,325.5,87.5,325.5,91.5,325.5,95.5,325.5,99.5,325.5,103.5,325.5,107.5,325.5,111.5,331.5,115.5" stroke="black" stroke-width="1" fill="none" />
<polyline points="407.0,60.0,414.0,64.0,419.5,68.0,426.5,72.0,433.5,76.0,442.0,80.0,447.5,84.0,446.0,88.0,445.5,92.0,445.5,96.0,445.5,100.0,444.5,104.0,443.5,108.0,442.5,112.0,440.5,116.0,445.5,121.0" stroke="black" stroke-width="1" fill="none" />
<polyline points="410.0,207.5,412.5,211.5,419.5,215.5,426.5,217.0,434.0,221.0,440.0,225.0,437.5,229.0,435.5,233.0,432.5,235.5,438.0,227.0" stroke="black" stroke-width="1" fill="none" />
<polyline points="433.5,222.5,429.5,220.5,425.5,218.5,421.5,216.5,417.5,214.0,413.5,212.0,409.5,209.0" stroke="black" stroke-width="1" fill="none" />
<polyline points="409.0,208.0,413.0,209.0,417.0,212.0,421.0,214.0,425.0,216.0,429.0,217.5,433.0,220.0,437.0,223.0,441.0,225.0" stroke="black" stroke-width="1" fill="none" />
<polyline points="428.5,240.5,424.0,244.5,420.0,248.5,420.5,250.0,422.5,251.0,426.5,250.0,430.5,248.5,434.5,247.5,438.5,246.5,442.5,246.0,446.5,244.5,450.5,244.0,454.5,243.0,458.5,235.0,462.5,227.5,466.5,219.0,470.5,211.5" stroke="black" stroke-width="1" fill="none" />
<polyline points="436.5,230.5,433.5,234.5,435.0,230.5,436.5,226.5,433.0,222.5,423.5,216.0,416.5,212.0,410.5,208.0" stroke="black" stroke-width="1" fill="none" />
<polyline points="392.0,240.0,403.0,244.0,409.5,248.0,413.5,253.0" stroke="black" stroke-width="1" fill="none" />
<polyline points="407.5,254.0,403.5,257.5,399.5,263.0,397.5,268.0,401.0,264.0,403.5,260.0,407.5,256.0,412.0,251.0,408.0,249.0,404.0,247.0,400.0,246.0" stroke="black" stroke-width="1" fill="none" />
<polyline points="402.5,246.5,409.5,250.5,407.0,254.5,402.5,258.5,400.0,262.5,397.0,266.5,394.0,270.5,392.0,274.5,392.5,276.0,392.0,280.0" stroke="black" stroke-width="1" fill="none" />
<polyline points="377.0,295.0,379.0,299.0,381.0,303.0,383.0,307.0,382.5,311.0,379.5,315.0,377.0,319.0,376.0,323.0,378.5,327.0,380.0,331.0,375.0,335.0" stroke="black" stroke-width="1" fill="none" />
<polyline points="428.0,301.5,436.0,297.5,441.0,293.5,442.5,289.5,444.5,285.5,447.5,281.5,447.0,277.5,437.0,273.5,430.0,269.5,427.0,265.5,425.5,261.5,423.5,257.5,419.5,252.0,422.0,248.0" stroke="black" stroke-width="1" fill="none" />
<polyline points="239.0,190.5,235.0,193.0,231.0,193.5,227.0,195.0,223.0,197.0,229.5,193.5" stroke="black" stroke-width="1" fill="none" />
<polyline points="228.5,192.5,222.0,196.5,222.5,198.5,219.5,198.5,223.5,195.0,227.5,193.0,231.5,192.0,235.5,190.5,239.5,188.5,243.5,185.5,247.5,181.5,251.5,177.0,255.5,172.0" stroke="black" stroke-width="1" fill="none" />
<polyline points="197.0,196.5,193.0,191.5,189.0,187.5,186.5,187.5,182.5,184.0,178.5,179.0,174.5,174.0,170.5,169.0,166.5,166.0,162.5,161.5,158.5,158.0,154.5,153.5,150.5,149.5,146.5,146.5,142.5,145.0,138.5,144.5,134.5,144.5,130.5,144.0,126.5,143.5,122.5,143.0,121.0,141.0,125.0,137.0,129.5,133.0,130.5,130.0,126.5,133.0,122.5,136.5,118.5,139.5,114.5,133.0,110.5,130.5,106.5,131.5" stroke="black" stroke-width="1" fill="none" />
<polyline points="107.5,129.5,106.0,133.0,106.5,130.0,111.5,128.5,111.0,124.5,111.0,120.5,110.5,116.5,110.5,112.5,110.0,108.5,109.5,104.5,109.5,100.5,109.0,96.5,108.5,92.5,108.0,88.5,108.0,84.5,107.5,80.5,106.5,78.0,106.0,74.0,105.5,70.0,105.0,66.0,104.5,62.0,104.5,58.0,104.0,54.0,103.5,50.0,103.0,46.0,103.0,42.0,102.5,38.0,101.5,34.0,96.5,33.5,92.5,37.5" stroke="black" stroke-width="1" fill="none" />
<polyline points="89.0,37.0,93.0,32.5,97.0,31.0,100.0,33.0,96.5,33.5,92.5,37.5,92.5,41.5" stroke="black" stroke-width="1" fill="none" />
<polyline points="95.0,39.5,95.5,35.5" stroke="black" stroke-width="1" fill="none" />
<polyline points="95.5,35.5,99.5,33.5,101.0,32.0" stroke="black" stroke-width="1" fill="none" />
<polyline points="92.5,32.5,89.5,36.5,89.0,40.5,89.0,44.5,89.0,48.5,89.0,52.5,89.0,56.5,89.0,60.5,88.5,64.5,88.0,68.5,88.0,72.5,88.0,76.5,88.0,80.5,87.5,84.5,87.5,88.5,87.0,92.5,87.0,96.5,86.0,100.5,86.0,103.0,86.0,107.0,86.0,111.0,86.0,115.0,85.5,119.0,85.5,123.0,85.0,127.0,85.0,131.0,84.5,135.0,84.5,139.0,84.0,143.0,84.0,147.0,84.0,151.0,82.0,155.0,81.5,159.0,81.5,163.0,81.0,167.0,80.5,171.0,79.5,175.0,78.5,179.0,78.0,183.0,77.5,187.0,77.5,191.0,78.0,195.0,78.5,199.0,80.0,200.5,84.0,201.5,88.0,200.5" stroke="black" stroke-width="1" fill="none" />
<polyline points="88.5,200.0,91.5,196.0,89.5,192.0,89.5,188.0,89.0,184.0,89.0,180.0,88.5,176.0,88.5,172.0,89.0,168.0,89.0,164.0,89.0,160.0,89.5,156.0,90.0,152.0,90.0,148.0,90.0,144.0,90.0,140.0,90.0,136.0,90.0,132.0,90.0,128.0,90.0,124.0,90.5,120.0,90.5,116.0,90.5,112.0,91.0,108.0,91.0,104.0,91.0,100.0,91.5,96.0,91.5,92.0,92.0,88.0,92.0,84.0,92.0,80.0,92.5,76.0,92.0,72.0,92.0,68.0,92.0,64.0,92.0,60.0,92.0,56.0,92.0,52.0,92.5,50.0" stroke="black" stroke-width="1" fill="none" />
<polyline points="92.0,52.0,94.0,52.5,94.0,56.5,94.0,60.5,93.5,64.5,94.0,69.0,94.0,73.0,94.0,77.0,94.0,81.0,94.0,85.0,94.0,89.0,93.5,93.0,93.5,97.0,92.5,101.0,92.5,105.0,92.5,109.0,92.5,113.0,92.5,117.0,92.5,121.0,92.0,125.0,92.0,129.0,91.5,133.0,91.5,137.0,91.5,141.0,91.5,145.0,91.5,149.0,91.5,153.0,91.0,157.0,90.5,161.0,90.5,165.0,90.5,169.0,90.0,173.5,90.5,177.5,90.5,181.5,91.0,185.5,91.5,189.5,91.5,193.5,89.0,197.5" stroke="black" stroke-width="1" fill="none" />
<polyline points="88.5,227.5,89.0,231.5,89.0,235.5,89.0,239.5,89.5,243.5,90.5,248.0,94.5,247.5,98.5,245.5,102.5,243.5,106.5,242.0,110.5,240.5,114.5,239.5,118.5,237.0,122.5,236.0,126.5,234.5,130.5,233.0,134.5,231.0,138.5,230.0,142.5,229.5" stroke="black" stroke-width="1" fill="none" />
<polyline points="139.0,231.5,142.5,230.0,139.0,234.0,138.0,238.0,136.5,242.0,133.5,245.5,130.5,249.5,127.0,253.0" stroke="black" stroke-width="1" fill="none" />
<polyline points="143.0,256.0,147.0,254.5,150.0,255.5,148.0,259.5,145.0,263.5,145.5,260.5,145.5,256.5,148.0,256.0,146.0,260.0,142.5,264.0,146.5,261.5" stroke="black" stroke-width="1" fill="none" />
<polyline points="153.5,269.5,150.0,273.5,145.0,277.5,141.0,281.5,137.0,285.5,134.0,289.5,133.0,293.5,132.0,297.5,129.0,301.5,121.5,305.5,115.0,309.5,109.0,313.5" stroke="black" stroke-width="1" fill="none" />
<polyline points="103.0,326.0,107.0,327.0,111.0,326.0,115.0,323.0,119.0,319.5,123.0,316.5,127.0,313.0,131.0,310.0,132.0,311.5,127.0,315.5,122.0,319.5,117.0,323.5,112.0,327.5" stroke="black" stroke-width="1" fill="none" />
<polyline points="118.0,335.0,124.5,331.0,130.0,327.0,137.0,323.0,142.5,319.0,147.5,315.0,150.5,311.0,151.5,307.0,153.0,303.0,154.0,299.0,156.0,295.0,155.0,291.0,155.0,287.0,154.5,287.5" stroke="black" stroke-width="1" fill="none" />
<polyline points="156.0,286.5,157.0,290.5" stroke="black" stroke-width="1" fill="none" />
<polyline points="146.5,286.5,150.5,277.0,154.5,271.5,161.5,270.0,159.5,274.0,158.0,278.0,159.5,270.5,163.5,270.0,167.5,270.0,171.5,270.0,171.0,273.5,168.0,277.5,165.5,281.5,162.5,285.5,159.5,289.5,159.5,289.5,163.5,284.0,167.5,278.0,171.5,272.0" stroke="black" stroke-width="1" fill="none" />
<polyline points="158.0,271.0,157.5,275.0,156.5,279.0" stroke="black" stroke-width="1" fill="none" />
<polyline points="154.0,271.5,151.0,275.5,149.5,279.5,147.5,283.5,146.5,287.5,145.5,291.5,144.5,295.5,143.5,299.5,140.5,303.5,137.0,307.5,129.5,311.0,125.0,315.0,119.5,319.0,115.0,323.0,109.0,327.0" stroke="black" stroke-width="1" fill="none" />
<polyline points="100.5,335.0,96.5,335.0,92.5,335.0,88.5,335.0,84.5,335.0,80.5,332.5,76.5,327.5" stroke="black" stroke-width="1" fill="none" />
<polyline points="76.0,326.5,78.5,330.5,82.5,334.5,88.0,336.5,92.0,336.0,96.0,336.0,100.0,336.0,104.0,336.5,108.0,336.5,112.0,337.0,116.0,336.5,120.0,334.0,124.0,331.5,128.0,329.0,132.0,326.0,136.0,324.0,140.0,320.5,144.0,318.0,148.0,314.0" stroke="black" stroke-width="1" fill="none" />
<polyline points="142.0,302.5,138.0,306.0,134.0,309.5,130.0,313.0,126.0,316.5,122.0,319.5,118.0,323.0,114.0,326.0,110.0,329.0,106.0,329.0,102.0,329.0,100.0,327.5,96.0,326.5,92.0,326.0,88.0,325.5,84.0,326.0,80.0,326.0,76.0,326.5" stroke="black" stroke-width="1" fill="none" />
<polyline points="81.0,322.5,85.5,318.5,90.5,314.5" stroke="black" stroke-width="1" fill="none" />
<polyline points="85.5,309.0,81.0,313.0" stroke="black" stroke-width="1" fill="none" />
<polyline points="78.5,307.5,79.5,303.5,80.5,299.5,78.5,299.0" stroke="black" stroke-width="1" fill="none" />
<polyline points="82.0,301.5,84.0,301.0,85.0,297.0" stroke="black" stroke-width="1" fill="none" />
<polyline points="85.5,296.0,82.5,300.0,82.0,304.0,79.5,310.5,83.0,310.0,87.0,309.0,91.0,307.0,95.0,306.5,99.0,306.5" stroke="black" stroke-width="1" fill="none" />
<polyline points="123.5,307.0,119.5,310.0,115.5,311.5,111.5,314.0,107.5,317.5,103.5,318.0,102.5,325.0,102.0,325.0,104.5,321.0,108.0,317.0,113.0,313.0,120.5,309.0,127.0,305.0" stroke="black" stroke-width="1" fill="none" />
<polyline points="134.0,289.0,138.0,284.5,142.0,281.0,146.0,276.5,150.0,273.5,154.0,269.5,158.0,268.5,162.0,268.0,166.0,268.0,170.0,268.0,174.0,268.5,178.0,268.0,182.0,265.0,186.0,262.5,190.0,260.5" stroke="black" stroke-width="1" fill="none" />
<polyline points="190.5,249.0,186.5,255.0,182.5,257.0,178.5,255.0,174.5,252.5,170.5,249.5" stroke="black" stroke-width="1" fill="none" />
<polyline points="170.0,249.0,174.0,250.0,178.0,253.0,182.0,255.0,186.0,253.0" stroke="black" stroke-width="1" fill="none" />
<polyline points="177.5,252.5,171.5,248.5" stroke="black" stroke-width="1" fill="none" />
<polyline points="170.5,248.0,173.5,252.0,179.0,256.0" stroke="black" stroke-width="1" fill="none" />
<polyline points="185.0,256.5,188.5,252.5,191.0,248.5,191.5,244.5,192.5,240.5" stroke="black" stroke-width="1" fill="none" />
<polyline points="193.5,237.5,194.0,241.5,193.5,245.5,193.0,249.5,193.5,253.5,192.5,257.5,187.5,261.5,181.0,265.5" stroke="black" stroke-width="1" fill="none" />
<polyline points="162.5,243.0,158.5,240.0,154.5,236.0" stroke="black" stroke-width="1" fill="none" />
<polyline points="153.0,238.0,157.0,241.5,161.0,244.0" stroke="black" stroke-width="1" fill="none" />
<polyline points="145.0,223.5,146.5,219.5,147.0,215.5,147.5,211.5,148.5,207.5,149.5,203.5,148.5,202.5,148.0,208.0" stroke="black" stroke-width="1" fill="none" />
<polyline points="148.0,203.5,144.0,204.0,145.5,202.5,143.0,202.0" stroke="black" stroke-width="1" fill="none" />
<polyline points="141.0,197.5,137.0,190.5" stroke="black" stroke-width="1" fill="none" />
<polyline points="138.5,172.0,139.0,171.5,137.5,175.5,136.5,179.5,135.5,183.5,136.0,187.5,137.0,191.5,139.0,195.5,143.0,202.0,145.0,206.0,146.0,210.0,145.5,214.0,145.0,218.0,144.0,222.0,144.0,225.0" stroke="black" stroke-width="1" fill="none" />
<polyline points="136.5,233.5,136.5,237.5,134.5,241.5,131.5,245.5,128.0,249.5,123.0,253.5" stroke="black" stroke-width="1" fill="none" />
<polyline points="115.5,240.5,119.5,239.0,123.5,237.0,127.5,236.0,131.5,234.5,135.5,233.0,131.5,232.5,125.5,236.0,115.5,238.5,104.5,242.5,95.0,247.0,90.5,252.5,89.5,256.5,88.5,260.5" stroke="black" stroke-width="1" fill="none" />
<polyline points="90.5,252.0,94.5,249.0,98.5,252.0,102.5,254.5" stroke="black" stroke-width="1" fill="none" />
<polyline points="97.5,249.0,101.5,251.5,105.5,253.5,109.5,254.0,113.5,254.0,117.5,254.0,121.5,254.0,125.5,251.5,129.5,248.0,133.5,243.0" stroke="black" stroke-width="1" fill="none" />
<polyline points="136.5,242.0,133.0,246.5,129.0,250.0,125.5,254.5,121.5,255.5,117.5,255.5,113.5,255.5,109.5,255.5,105.5,255.5,101.5,261.5,97.5,268.5,95.0,269.5,97.0,265.5,99.5,261.5,101.5,257.5,100.5,253.5,95.0,249.5" stroke="black" stroke-width="1" fill="none" />
<polyline points="97.0,248.0,101.0,247.0,105.0,244.5,109.0,242.5,113.0,241.5,114.5,244.5" stroke="black" stroke-width="1" fill="none" />
<polyline points="106.5,243.5,98.0,247.5,100.0,251.5,104.0,257.0,102.0,261.0,99.5,265.0,97.0,269.0,97.0,265.5" stroke="black" stroke-width="1" fill="none" />
<polyline points="82.0,288.0,81.0,292.0,80.5,296.0,78.5,300.0,77.5,304.0,77.0,308.0,77.0,312.0,79.0,314.0,83.0,312.0,87.0,310.5,91.0,309.5,95.0,308.5,98.5,308.0" stroke="black" stroke-width="1" fill="none" />
<polyline points="63.0,312.0,59.0,308.5,55.0,304.0" stroke="black" stroke-width="1" fill="none" />
<polyline points="54.5,303.0,57.0,307.0,61.0,311.0" stroke="black" stroke-width="1" fill="none" />
<polyline points="62.5,310.0,58.5,305.5,54.5,303.0" stroke="black" stroke-width="1" fill="none" />
<polyline points="56.0,303.5,60.5,307.5" stroke="black" stroke-width="1" fill="none" />
<polyline points="63.0,308.5,63.0,304.5,62.5,300.5,62.5,296.5,62.5,292.5,63.0,288.5,63.0,284.5,63.0,280.5,63.0,276.5,63.0,272.5,63.0,268.5,63.5,264.5,64.5,260.5,64.5,256.5,67.0,252.5,68.0,248.5,67.5,244.5,61.5,245.0,61.5,241.0,57.0,237.5,51.5,233.5,47.0,229.5,41.5,225.5,39.5,221.5,39.0,217.5,40.0,213.5,40.5,209.5,42.0,205.5,43.5,201.5,43.5,197.5,45.5,193.5,46.0,189.5,48.0,185.5,50.5,181.5,53.5,177.5,56.0,173.5,60.0,169.5,62.5,165.5,66.0,161.5,69.5,157.5,76.5,153.5,82.0,151.0,78.0,152.5,74.0,155.0,70.0,157.5,66.0,161.0,62.0,166.0,58.0,171.0,54.0,177.0,50.0,182.0,46.0,189.5" stroke="black" stroke-width="1" fill="none" />
<polyline points="49.5,192.0,47.5,196.0,45.5,200.0,46.5,198.0,50.0,192.0,54.0,187.5" stroke="black" stroke-width="1" fill="none" />
<polyline points="54.5,188.0,54.5,192.0,54.0,196.0,53.5,200.0,52.5,204.0,51.5,208.0,51.0,212.0,50.0,216.0,49.5,220.0" stroke="black" stroke-width="1" fill="none" />
<polyline points="39.5,220.5,43.5,226.5,47.5,229.5,51.5,233.0,55.5,236.0,59.5,239.0,63.5,242.0,67.5,243.0" stroke="black" stroke-width="1" fill="none" />
<polyline points="57.0,251.0,53.0,248.5,49.0,241.0" stroke="black" stroke-width="1" fill="none" />
<polyline points="48.5,244.5,52.5,250.0,56.5,252.0" stroke="black" stroke-width="1" fill="none" />
<polyline points="64.5,245.5,59.5,242.0,56.0,238.5,52.0,235.5,48.0,233.0" stroke="black" stroke-width="1" fill="none" />
<polyline points="48.0,233.0,48.0,237.0,48.5,241.0,50.5,245.0,53.5,249.0,61.0,252.0,63.0,254.5" stroke="black" stroke-width="1" fill="none" />
<polyline points="41.0,257.0,40.0,253.0,39.5,249.0,39.0,245.0,37.5,242.5,40.0,238.5,41.5,235.0,37.5,241.5" stroke="black" stroke-width="1" fill="none" />
<polyline points="43.0,238.0,43.0,234.0,43.5,230.0,43.0,231.0" stroke="black" stroke-width="1" fill="none" />
<polyline points="45.0,230.0,46.0,234.0,46.5,238.0,47.5,242.0,49.0,246.0,51.5,250.0,60.0,254.0,63.0,253.0" stroke="black" stroke-width="1" fill="none" />
<polyline points="42.0,247.0,43.0,251.0,43.0,255.0,42.5,259.0,42.5,263.0,42.0,267.0,41.0,271.0,41.0,275.0,40.5,279.0,40.5,283.0,41.0,287.0,43.0,291.0" stroke="black" stroke-width="1" fill="none" />
<polyline points="40.0,292.5,44.0,299.0,48.0,302.5,52.0,306.5,56.0,311.0,60.0,314.0,64.0,318.5,68.0,321.0,72.0,323.5,76.0,324.0,80.0,323.5,84.0,319.5,88.0,317.0,92.0,314.5,96.0,314.0,100.0,314.5,102.0,315.5,106.0,315.5,110.0,313.0,114.0,310.0,118.0,308.0,122.0,305.5,126.0,303.0,130.0,300.0" stroke="black" stroke-width="1" fill="none" />
<polyline points="124.5,292.0,121.0,297.5,117.0,300.5,113.0,303.0,116.0,301.5,120.5,297.5,123.5,294.0,126.0,290.0,128.0,286.0" stroke="black" stroke-width="1" fill="none" />
<polyline points="128.0,284.5,125.0,288.5,122.5,292.5,119.0,296.5,114.0,300.5,110.0,303.0,114.0,300.5,118.0,297.5,122.0,293.0,126.0,286.5" stroke="black" stroke-width="1" fill="none" />
<polyline points="116.5,246.0,115.5,242.0,120.0,238.0" stroke="black" stroke-width="1" fill="none" />
<polyline points="87.5,227.5,87.5,231.5,87.0,235.5,87.5,239.5,87.5,243.5,89.0,248.0,89.0,252.0,88.0,256.0,87.5,260.0" stroke="black" stroke-width="1" fill="none" />
<polyline points="72.5,232.5,69.5,239.5,71.0,235.5,73.0,231.5,74.5,227.5" stroke="black" stroke-width="1" fill="none" />
<polyline points="73.0,227.0,71.0,231.0,69.5,235.0,68.0,239.0,69.5,239.0,72.0,228.0" stroke="black" stroke-width="1" fill="none" />
<polyline points="49.5,233.5,54.5,237.5,59.0,241.5,60.0,245.5,66.0,247.5,66.0,251.5,66.5,258.0,66.0,262.0,65.5,266.0,64.5,270.0,64.5,274.0,64.5,278.0,64.5,282.0,64.5,286.0,64.5,290.0,64.5,294.0,64.0,298.0,64.5,302.0,64.5,306.0,65.5,306.5,65.5,310.5" stroke="black" stroke-width="1" fill="none" />
<polyline points="44.0,290.5,42.5,286.5,42.0,282.5,42.0,278.5,42.0,274.5,42.0,270.5" stroke="black" stroke-width="1" fill="none" />
<polyline points="40.0,267.5,39.5,271.5,39.0,275.5,38.5,279.5,37.5,283.5,38.5,285.0,39.0,289.0,40.0,293.0,41.5,297.0,46.5,301.0,50.0,305.0,54.0,309.0,57.5,313.0,61.5,317.0,67.0,321.0" stroke="black" stroke-width="1" fill="none" />
<polyline points="41.5,254.5,41.5,250.5,42.0,246.5" stroke="black" stroke-width="1" fill="none" />
<polyline points="51.5,216.5,53.0,212.5,54.0,208.5,54.0,204.0,55.0,200.0,56.0,196.0,56.0,192.0,56.5,188.0,55.0,185.5,51.0,188.5,47.0,194.0,44.0,199.5,46.5,195.5,49.0,191.5,52.0,187.5,54.5,186.5" stroke="black" stroke-width="1" fill="none" />
<polyline points="100.0,184.5,96.0,191.0,92.0,195.5,88.0,198.5,84.0,200.0,81.5,199.5,80.5,195.5,80.0,191.5,79.5,187.5,80.0,183.5,81.0,179.5,81.0,175.5,82.0,171.5,82.5,167.5,83.0,163.5,83.0,159.5,84.0,155.5,84.0,151.5" stroke="black" stroke-width="1" fill="none" />
<polyline points="102.5,140.5,101.5,144.5,101.0,148.5,100.0,152.5,99.5,156.5,99.0,160.5,98.5,164.5,98.5,168.5,97.5,172.5,97.5,176.5,97.0,180.5,97.0,184.5,95.5,188.5,93.0,192.5" stroke="black" stroke-width="1" fill="none" />
<polyline points="123.5,153.0,119.5,144.0" stroke="black" stroke-width="1" fill="none" />
<polyline points="104.0,140.5,103.5,144.5,103.0,148.5,102.5,152.5,101.5,156.5,101.0,160.5,101.0,164.5,100.0,168.5,99.5,172.5,99.0,176.5,99.0,180.5,102.0,183.0,106.0,180.0,110.0,177.5,114.0,174.0,118.0,170.0,122.0,166.5" stroke="black" stroke-width="1" fill="none" />
<polyline points="140.5,170.5,140.0,174.5,138.5,178.5,137.0,182.5,137.5,186.5,138.5,190.5,140.5,194.5" stroke="black" stroke-width="1" fill="none" />
<polyline points="152.5,211.0,151.5,215.0,151.5,219.0,151.5,223.0,151.5,227.0,151.5,231.0,152.5,235.0,153.0,239.0,159.0,243.0,164.0,244.5" stroke="black" stroke-width="1" fill="none" />
<polyline points="163.5,244.0,158.0,240.0,154.5,236.0,154.0,232.0,153.0,228.0,153.5,224.0,153.0,220.0,153.0,216.0,152.5,212.0" stroke="black" stroke-width="1" fill="none" />
<polyline points="162.0,173.5,157.0,172.0,153.0,171.0,149.0,170.0" stroke="black" stroke-width="1" fill="none" />
<polyline points="148.0,169.0,152.0,169.0,156.0,170.5,160.5,171.0" stroke="black" stroke-width="1" fill="none" />
<polyline points="162.5,167.0,160.5,171.0,160.0,174.0,159.0,178.0,157.0,182.0,155.5,186.0,153.5,190.0,154.0,188.5,158.0,179.5" stroke="black" stroke-width="1" fill="none" />
<polyline points="155.5,191.0,155.0,191.5,157.0,187.5,158.5,183.5,160.0,179.5,161.0,175.5,163.0,171.5,163.5,167.5" stroke="black" stroke-width="1" fill="none" />
<polyline points="145.0,146.0,150.5,150.0,154.5,154.0,158.0,158.0,162.5,162.0,166.0,166.0,170.5,170.0,174.0,174.0,177.0,178.0,180.5,182.0,184.5,186.0,188.5,190.0,192.5,194.0,194.0,198.0,195.5,202.0,197.0,206.0,197.5,210.0,197.0,214.0,196.0,218.0,195.5,222.0,195.0,226.0,194.0,230.0,193.0,234.0,192.0,238.0,190.5,242.0,189.5,246.0,188.0,250.0,185.0,254.0" stroke="black" stroke-width="1" fill="none" />
<polyline points="235.5,195.0,231.5,200.5,227.5,207.5,223.5,208.5,221.5,212.5,217.5,214.0,213.5,215.0,209.5,216.0,205.5,217.0,201.5,217.5,197.0,216.5,199.0,215.5,199.5,211.5,199.5,207.5,198.5,203.5,197.5,199.5,195.5,195.5,192.5,191.5,189.0,188.0,186.0,184.0,181.5,180.0,178.0,176.0,175.0,172.0,172.0,168.0,166.5,164.0,163.0,160.0,159.0,156.0,155.0,152.0,151.5,148.0,145.5,144.0" stroke="black" stroke-width="1" fill="none" />
<polyline points="120.0,150.5,116.0,140.0,116.5,137.5,114.0,134.0,114.0,130.0,114.0,126.0" stroke="black" stroke-width="1" fill="none" />
<polyline points="128.0,106.0,124.0,99.5" stroke="black" stroke-width="1" fill="none" />
<polyline points="124.0,99.5,124.0,103.5,126.0,107.5,128.0,111.5,130.0,115.5,132.5,119.5,133.0,126.0,130.5,130.0,125.5,134.0,120.0,138.0,119.5,145.0,122.0,149.0,123.0,153.0,124.5,157.0,125.0,161.0,123.0,165.0,119.0,169.0,115.0,173.0,110.5,177.0,105.0,181.0,101.0,182.0,105.0,179.0,109.0,175.5,113.0,172.5,117.0,168.5,121.0,165.5" stroke="black" stroke-width="1" fill="none" />
<polyline points="132.5,116.0,130.0,112.0,128.5,108.5,126.5,104.5,124.5,100.5" stroke="black" stroke-width="1" fill="none" />
<polyline points="93.5,99.5,93.5,103.5" stroke="black" stroke-width="1" fill="none" />
<polyline points="158.5,74.0,150.5,78.0,144.0,82.0,138.0,86.0,131.5,90.0,126.0,94.0,123.0,98.0,120.5,102.0,118.5,106.0,117.5,110.0,116.0,114.0,115.0,118.0,113.0,122.0,113.0,126.0,113.0,130.0,112.5,133.5,114.5,137.5,116.5,141.5,118.0,145.5,119.5,149.5,121.5,153.5,122.5,157.5,123.0,161.5,120.5,165.5,116.5,169.5,111.5,173.5,107.0,177.5,101.5,181.5,99.0,186.0,97.0,190.0,94.0,194.0,95.0,189.0" stroke="black" stroke-width="1" fill="none" />
<polyline points="189.5,71.0,193.5,71.0,197.5,71.0,201.5,71.0,205.0,70.0,208.0,74.0,216.0,77.5,222.5,81.5" stroke="black" stroke-width="1" fill="none" />
<polyline points="202.0,74.0,212.0,78.0,220.0,82.0,227.5,86.0,234.0,90.0,237.5,94.0,234.5,98.0,231.0,102.0,227.5,106.0,225.0,110.5,226.5,114.5,227.5,115.0" stroke="black" stroke-width="1" fill="none" />
<polyline points="200.0,59.0,200.0,55.0,199.5,51.0" stroke="black" stroke-width="1" fill="none" />
<polyline points="198.5,50.0,197.5,54.0,195.0,58.0,193.5,62.0,192.0,66.0,189.5,70.0,191.0,67.5,195.0,57.5,199.0,50.5,203.5,46.0,207.5,44.0,211.5,43.0,215.5,41.0,219.5,39.0,223.5,36.0,227.5,34.0,231.5,31.5,235.5,29.0,239.5,32.0,243.5,41.0,247.5,43.5,251.5,46.0,255.5,46.5,259.5,47.5,263.5,49.0,267.5,50.0,271.5,51.0" stroke="black" stroke-width="1" fill="none" />
<polyline points="271.0,52.5,267.0,52.5,259.5,47.5" stroke="black" stroke-width="1" fill="none" />
<polyline points="285.5,28.0,289.5,32.0,288.0,36.0,285.5,40.0,282.5,44.0,280.0,48.0,282.0,45.5,286.0,39.0,290.5,34.0,294.0,38.5,298.0,44.0,302.0,49.5,306.0,55.0,310.0,58.5,314.0,62.5,318.0,66.0,322.0,70.0" stroke="black" stroke-width="1" fill="none" />
<polyline points="253.5,396.5,253.5,397.5,252.0,401.5,250.5,405.5,248.0,409.5,247.0,413.5,247.5,417.5,248.0,421.5,248.5,425.5,249.5,429.5,250.5,433.5,252.0,435.0,256.0,429.0,260.0,424.0,264.0,422.5,268.0,423.0,272.0,423.0,276.0,422.0,280.0,421.5,284.0,418.0,288.0,412.0,293.0,412.5,289.0,413.5,287.0,417.0,284.5,420.5" stroke="black" stroke-width="1" fill="none" />
<polyline points="258.5,427.0,256.5,431.0,254.5,435.0,258.0,439.0,264.0,443.0,270.0,447.0" stroke="black" stroke-width="1" fill="none" />
<polyline points="254.5,436.5,258.5,439.5,262.5,441.5,266.5,444.0,270.5,447.0,274.5,449.0,278.5,450.5,282.5,449.0,286.5,447.5,290.5,446.0,294.5,445.5,298.5,444.0,302.5,443.0,306.5,439.5,310.5,431.5" stroke="black" stroke-width="1" fill="none" />
<polyline points="251.0,403.5,247.0,412.5" stroke="black" stroke-width="1" fill="none" />
</svg>