<svg xmlns="http://www.w3.org/2000/svg" height="511px" width="470px" version="1.1"><polyline points="299.0,1.0,306.5,5.0,311.5,9.0,315.5,13.0,318.0,17.0,319.5,21.0,321.0,25.0,321.5,29.0,322.0,32.0,326.0,32.0,330.0,31.5,334.0,31.5,338.0,32.0,342.0,33.0,346.0,34.5,350.0,36.5,354.0,39.0,358.0,42.5,362.0,47.5" stroke="black" stroke-width="1" fill="none" />
<polyline points="348.0,58.5,344.0,53.5,340.0,51.0,336.0,49.5,332.0,49.5,328.0,50.0,324.0,51.5,320.0,54.5,316.0,62.0" stroke="black" stroke-width="1" fill="none" />
<polyline points="328.5,49.5,321.0,53.5,318.0,57.5,316.5,61.5,315.5,65.5,314.5,69.5,313.5,73.5,312.5,77.5,311.5,81.5,310.5,85.5,309.5,89.5,308.5,93.5,307.0,97.5,306.0,101.5,305.0,105.5,304.0,109.5,303.0,113.5,302.0,117.5,301.0,121.5,300.0,125.5,299.0,129.5,298.0,133.5,297.0,137.5,296.0,141.5,295.0,145.5,294.0,149.5,293.0,153.5,292.0,157.5,291.0,161.5,290.0,165.5,289.0,169.5,288.0,173.5,287.0,177.5,286.0,181.5,285.0,185.5,284.0,189.5,283.0,193.5,282.0,197.5,281.0,201.5,280.0,205.5,279.0,209.5,278.0,213.5,277.0,217.5,276.0,221.5,275.0,225.5,274.0,229.5,273.0,233.5,272.0,237.5,271.0,241.5,267.5,245.5" stroke="black" stroke-width="1" fill="none" />
<polyline points="271.0,240.5,267.0,246.0,263.0,247.0,259.0,246.0,255.0,240.5" stroke="black" stroke-width="1" fill="none" />
<polyline points="308.0,283.5,312.0,293.5" stroke="black" stroke-width="1" fill="none" />
<polyline points="326.0,282.0,330.0,288.0,334.0,286.5,338.0,283.0,342.0,280.0,346.0,276.0,350.0,271.0,354.0,266.0,358.0,261.0,362.0,255.0,366.0,250.0,370.0,245.0,374.0,240.0,378.0,236.0,382.0,231.0,386.0,227.0,390.0,223.0,394.0,220.0,398.0,216.0,402.0,213.0,406.0,209.5,410.0,207.0,414.0,204.0,418.0,201.5,422.0,199.5,426.0,197.5,430.0,196.5,434.0,195.5,438.0,195.5,442.0,195.5,446.0,196.5,450.0,197.5,454.0,200.0,458.0,202.5,462.0,205.5,466.0,210.5" stroke="black" stroke-width="1" fill="none" />
<polyline points="451.0,220.0,447.0,216.0,443.0,214.0,439.0,213.5,435.0,213.5,431.0,214.5,427.0,216.5,423.0,219.0,419.0,221.5,415.0,224.5,411.0,228.0,407.0,231.5,403.0,235.0,399.0,239.0,395.0,243.0,391.0,247.0,387.0,252.0,383.0,256.5,379.0,261.5,375.0,267.0,371.0,272.5,367.0,278.0,363.0,282.5,359.0,287.0,355.0,291.5,351.0,295.0,347.0,298.5,343.0,301.5,339.0,304.5,335.0,307.0,331.0,309.5,327.0,311.5,323.0,313.0,319.0,315.0,315.0,316.0,311.0,317.5,307.0,319.0,303.0,320.0,299.0,322.0,295.0,324.5,291.0,328.0,287.0,333.0,283.0,340.0" stroke="black" stroke-width="1" fill="none" />
<polyline points="266.0,337.5,270.0,328.0,274.0,322.0,278.0,317.0,282.0,313.5,286.0,310.0,290.0,307.5,294.0,305.5,298.0,304.0,302.0,302.5,306.0,301.0,310.0,300.0,314.0,298.5" stroke="black" stroke-width="1" fill="none" />
<polyline points="308.5,318.0,299.0,322.0,293.5,326.0,289.5,330.0,286.0,334.0,284.0,338.0,282.5,342.0,282.0,346.0,281.5,350.0,280.0,354.0" stroke="black" stroke-width="1" fill="none" />
<polyline points="277.0,356.5,273.0,358.0,269.0,357.0,265.0,351.5" stroke="black" stroke-width="1" fill="none" />
<polyline points="269.5,444.0,265.5,448.0,264.5,452.0,265.5,456.0,270.0,460.0" stroke="black" stroke-width="1" fill="none" />
<polyline points="265.0,454.0,269.0,459.5,273.0,460.5,277.0,460.5,281.0,460.5,285.0,459.5,289.0,455.5" stroke="black" stroke-width="1" fill="none" />
<polyline points="289.0,448.0,285.0,444.0,281.0,443.5,277.0,443.5,273.0,443.5,269.0,444.5,265.0,448.5" stroke="black" stroke-width="1" fill="none" />
<polyline points="247.0,449.5,243.0,444.5,239.0,443.5,235.0,443.5,231.0,443.5,227.0,443.5,223.0,443.5,219.0,443.5,215.0,443.5,211.0,443.5,207.0,443.5,203.0,443.5,199.0,443.5,195.0,443.5,191.0,443.5,187.0,443.5,183.0,443.5,179.0,443.5,175.0,444.5,171.0,449.0" stroke="black" stroke-width="1" fill="none" />
<polyline points="171.5,455.5,175.5,459.5,179.5,460.5,183.5,460.5,187.5,460.5,191.5,460.5,195.5,460.5,199.5,460.5,203.5,460.5,207.5,460.5,211.5,460.5,215.5,460.5,219.5,460.5,223.5,460.5,227.5,460.5,231.5,460.5,235.5,460.5,239.5,460.5,243.5,459.0" stroke="black" stroke-width="1" fill="none" />
<polyline points="246.0,456.0,247.0,452.0,246.0,448.0,240.5,444.0" stroke="black" stroke-width="1" fill="none" />
<polyline points="285.0,444.5,289.0,448.5,290.0,452.5,288.5,456.5" stroke="black" stroke-width="1" fill="none" />
<polyline points="313.0,441.5,317.0,434.0,321.0,428.0,325.0,423.0,329.0,419.0,333.0,415.0,337.0,411.0,341.0,406.5,345.0,402.0,349.0,397.0,353.0,392.0,357.0,386.5,361.0,380.0,365.0,374.0,369.0,367.0,373.0,359.5,377.0,352.0,381.0,343.5,385.0,335.5,389.0,327.0,393.0,319.0,397.0,310.5,401.0,302.0,405.0,294.5,409.0,287.0,413.0,279.5,417.0,272.5,421.0,266.0,425.0,260.5,429.0,254.5,433.0,249.5,437.0,244.5,441.0,240.0,445.0,235.5,449.0,231.0" stroke="black" stroke-width="1" fill="none" />
<polyline points="464.5,240.5,460.5,245.5,456.5,249.5,452.5,253.5,448.5,258.5,444.5,263.5,440.5,269.0,436.5,275.0,432.5,281.5,428.5,288.0,424.5,296.0,420.5,303.0,416.5,311.0,412.5,319.0,408.5,328.0,404.5,336.0,400.5,344.0,396.5,352.0,392.5,361.0,388.5,368.0,384.5,375.5,380.5,382.5,376.5,389.0,372.5,395.5,368.5,401.0,364.5,406.5,360.5,411.5,356.5,416.5,352.5,420.5,348.5,424.5,344.5,428.5,340.5,432.5,336.5,437.5,332.5,442.5,328.5,450.0" stroke="black" stroke-width="1" fill="none" />
<polyline points="306.0,489.5,302.0,494.0,298.0,494.5,294.0,494.5,290.0,494.5,286.0,494.5,282.0,494.5,278.0,494.5,274.0,494.5,270.0,494.5,266.0,494.5,262.0,494.5,258.0,494.5,254.0,494.5,250.0,494.5,246.0,494.5,242.0,494.5,238.0,494.5,234.0,494.5,230.0,494.5,226.0,494.5,222.0,494.5,218.0,494.5,214.0,494.5,210.0,494.5,206.0,494.5,202.0,494.5,198.0,494.5,194.0,494.5,190.0,494.5,186.0,494.5,182.0,494.5,178.0,494.5,174.0,494.5,170.0,494.5,166.0,494.5,162.0,494.5,158.0,493.5,154.0,488.0" stroke="black" stroke-width="1" fill="none" />
<polyline points="137.0,494.0,141.0,501.5,145.0,506.0,149.0,509.0,153.0,510.5" stroke="black" stroke-width="1" fill="none" />
<polyline points="176.0,460.0,171.5,456.0,170.5,452.0,171.5,448.0,176.0,444.0" stroke="black" stroke-width="1" fill="none" />
<polyline points="151.0,431.5,147.0,424.5,143.0,418.0,139.0,410.0,135.0,400.5" stroke="black" stroke-width="1" fill="none" />
<polyline points="133.0,394.5,129.0,383.0,125.0,371.5" stroke="black" stroke-width="1" fill="none" />
<polyline points="122.0,416.0,126.0,424.0,130.0,431.0,134.0,437.5" stroke="black" stroke-width="1" fill="none" />
<polyline points="138.0,252.5,134.0,241.0" stroke="black" stroke-width="1" fill="none" />
<polyline points="112.0,229.5,116.0,241.0,120.0,252.5,124.0,263.5,128.0,267.5,132.0,268.0,136.0,266.5" stroke="black" stroke-width="1" fill="none" />
<polyline points="125.0,214.5,121.0,203.0" stroke="black" stroke-width="1" fill="none" />
<polyline points="107.0,214.5,103.0,203.0,99.0,191.5" stroke="black" stroke-width="1" fill="none" />
<polyline points="112.0,176.5,108.0,165.5" stroke="black" stroke-width="1" fill="none" />
<polyline points="96.0,182.5,92.0,171.0,88.0,166.0,84.0,163.5,80.0,162.0,76.0,162.0,72.0,162.5,68.0,164.0,64.0,167.5,60.0,175.5" stroke="black" stroke-width="1" fill="none" />
<polyline points="44.5,166.0,48.5,159.0,52.5,154.5,56.5,150.5,60.5,148.5,64.5,146.5,68.5,145.5,72.5,144.5,76.5,144.5,80.5,144.5" stroke="black" stroke-width="1" fill="none" />
<polyline points="66.0,145.5,58.0,149.5,53.5,153.5,49.5,157.5,47.0,161.5,45.0,165.5,43.5,169.5,42.5,173.5,42.5,177.5,42.5,181.5,42.5,185.5,43.5,189.5,44.5,193.5,46.0,197.5,47.5,201.5,49.0,205.5,50.5,209.5,51.5,213.5,53.0,217.5,54.5,221.5,55.5,225.5,57.0,229.5,58.5,233.5,60.0,237.5,61.5,241.5,62.5,245.5,64.0,249.5,65.5,253.5,66.5,257.5,68.0,261.5,69.5,265.5,71.0,269.5,72.5,273.5,73.5,277.5,75.0,281.5,76.5,285.5,77.5,289.5,79.5,293.5,80.5,297.5,82.0,301.5,83.5,305.5,84.5,309.5,86.0,313.5,87.5,317.5,89.0,321.5,90.5,325.5,91.5,329.5,93.0,333.5,94.5,337.5,95.5,341.5,97.0,345.5,98.5,349.5,100.0,353.5,101.5,357.5,102.5,361.5,104.0,365.5,105.5,369.5,106.5,373.5,108.0,377.5,109.5,381.5,111.0,385.5,112.5,389.5,113.5,393.5,115.0,397.5,116.5,401.5,117.5,405.5,119.5,409.5,121.0,413.5,122.5,417.5,124.5,421.5,126.5,425.5,129.0,429.5,131.0,433.5,134.0,437.5,135.5,441.5,135.5,445.5,135.5,449.5,135.5,453.5,135.5,457.5,135.5,461.5,135.5,465.5,135.5,469.5,135.5,473.5,135.5,477.5,135.5,481.5,135.5,485.5,136.0,489.5,136.5,493.5,138.5,497.5,141.0,501.5,144.0,505.5,150.0,509.5" stroke="black" stroke-width="1" fill="none" />
<polyline points="202.0,223.0,207.0,219.0,209.5,215.0,211.0,211.0,211.5,207.0,212.5,203.0,213.5,199.0,214.5,195.0,215.5,191.0,216.5,187.0,217.5,183.0,218.5,179.0,219.5,175.0,220.5,171.0,221.5,167.0,222.0,163.0,223.0,159.0,224.0,155.0,224.5,151.0,225.5,147.0,226.5,143.0,227.5,139.0,228.5,135.0,229.5,131.0,230.5,127.0,231.5,123.0,232.5,119.0,233.5,115.0,234.0,111.0,235.0,107.0,236.0,103.0,237.0,99.0,237.5,95.0,238.5,91.0,239.5,87.0,240.5,83.0,241.5,79.0,242.5,75.0,243.5,71.0,244.5,67.0,245.5,63.0,246.5,59.0,247.0,55.0,248.0,51.0,249.0,47.0,249.5,43.0,250.5,39.0,251.5,35.0,252.5,31.0,253.5,27.0,254.5,23.0,256.5,19.0,258.5,15.0,262.0,11.0,266.0,7.0,272.0,3.0,278.5,0.5,274.5,2.0,270.5,4.0,266.5,6.5,262.5,10.0,258.5,15.0,254.5,23.0" stroke="black" stroke-width="1" fill="none" />
<polyline points="271.0,30.0,275.0,22.5,279.0,19.0,283.0,17.5,287.0,17.0,291.0,17.0,295.0,18.5,299.0,21.0,303.0,27.0" stroke="black" stroke-width="1" fill="none" />
<polyline points="292.0,17.5,299.0,21.5,302.0,25.5,304.0,29.5,304.5,33.5,304.5,37.5,303.5,41.5,302.5,45.5,301.5,49.5,300.5,53.5,299.5,57.5,298.5,61.5,297.5,65.5,296.5,69.5,295.5,73.5,294.5,77.5,293.5,81.5,292.5,85.5,291.5,89.5,290.5,93.5,289.5,97.5,288.5,101.5,287.5,105.5,286.5,109.5,285.5,113.5,284.5,117.5,283.5,121.5,282.5,125.5,281.5,129.5,280.5,133.5,279.5,137.5,278.5,141.5,277.5,145.5,276.5,149.5,275.5,153.5,274.5,157.5,273.5,161.5,272.5,165.5,271.5,169.5,270.5,173.5,269.5,177.5,268.5,181.5,267.5,185.5,266.5,189.5,265.5,193.5,264.5,197.5,263.5,201.5,262.5,205.5,261.5,209.5,260.5,213.5,259.5,217.5,258.5,221.5,257.5,225.5,256.5,229.5,255.5,233.5,254.5,237.5,255.0,241.5,257.5,245.5" stroke="black" stroke-width="1" fill="none" />
<polyline points="207.0,219.0,203.0,222.5,199.0,224.0,195.0,224.5,191.0,224.5,187.0,223.0,183.0,219.5,179.0,213.0" stroke="black" stroke-width="1" fill="none" />
<polyline points="154.0,194.5,158.0,206.0,162.0,217.5,166.0,226.0,170.0,231.5,174.0,235.0,178.0,238.0,182.0,240.0,186.0,241.5,190.0,242.0,194.0,242.5,198.0,242.5,202.0,241.5,206.0,240.5,210.0,239.0,214.0,236.5,218.0,233.0,222.0,228.5,226.0,221.5" stroke="black" stroke-width="1" fill="none" />
<polyline points="151.0,185.5,147.0,174.0" stroke="black" stroke-width="1" fill="none" />
<polyline points="139.0,150.5,135.0,139.0,131.0,127.5" stroke="black" stroke-width="1" fill="none" />
<polyline points="128.0,118.5,124.0,107.0" stroke="black" stroke-width="1" fill="none" />
<polyline points="91.0,116.0,95.0,127.5" stroke="black" stroke-width="1" fill="none" />
<polyline points="84.0,95.5,80.0,84.0" stroke="black" stroke-width="1" fill="none" />
<polyline points="78.0,71.0,82.0,63.5,86.0,60.0,90.0,58.5,94.0,58.0,98.0,58.0,102.0,59.5,106.0,62.0,110.0,67.0,114.0,77.5" stroke="black" stroke-width="1" fill="none" />
<polyline points="125.5,58.0,121.5,52.0,117.5,48.0,113.5,45.5,109.5,43.5,105.5,41.5,101.5,40.5,97.5,40.5,93.5,40.5,89.5,40.5,85.5,41.5,81.5,43.0,77.5,45.0,73.5,47.5,69.5,51.5,65.5,56.0,61.5,64.0" stroke="black" stroke-width="1" fill="none" />
<polyline points="91.0,58.0,83.0,62.0,80.0,66.0,78.5,70.0,78.0,74.0,78.0,78.0,79.0,82.0,80.5,86.0,82.0,90.0,83.0,94.0,84.5,98.0,86.0,102.0,87.5,106.0,89.0,110.0,90.0,114.0,91.5,118.0,93.0,122.0,94.0,126.0,95.5,130.0,97.0,134.0,98.5,138.0,100.0,142.0,101.0,146.0,102.5,150.0,104.0,154.0,105.5,158.0,106.5,162.0,108.0,166.0,109.5,170.0,111.0,174.0,112.0,178.0,113.5,182.0,115.0,186.0,116.5,190.0,118.0,194.0,119.0,198.0,120.5,202.0,122.0,206.0,123.0,210.0,124.5,214.0,126.0,218.0,127.5,222.0,128.5,226.0,130.0,230.0,131.5,234.0,133.0,238.0,134.0,242.0,135.5,246.0,137.0,250.0,138.5,254.0,139.5,258.0,139.5,262.0,136.5,266.0" stroke="black" stroke-width="1" fill="none" />
<polyline points="126.0,266.5,123.0,262.5,122.0,258.5,120.5,254.5,119.0,250.5,118.0,246.5,116.5,242.5,115.0,238.5,113.5,234.5,112.0,230.5,111.0,226.5,109.5,222.5,108.0,218.5,107.0,214.5,105.5,210.5,104.0,206.5,102.5,202.5,101.0,198.5,100.0,194.5,98.5,190.5,97.0,186.5,96.0,182.5,94.5,178.5,93.0,174.5,91.0,170.5,88.0,166.5,80.5,162.5" stroke="black" stroke-width="1" fill="none" />
<polyline points="73.0,162.0,65.5,166.0,62.5,170.0,60.5,174.0,60.0,178.0,60.0,182.0,61.0,186.0,62.0,190.0,63.5,194.0,65.0,198.0,66.5,202.0,68.0,206.0,69.0,210.0,70.5,214.0,72.0,218.0,73.5,222.0,74.5,226.0,76.0,230.0,77.5,234.0,79.0,238.0,80.0,242.0,81.5,246.0,83.0,250.0,84.5,254.0,85.5,258.0,87.0,262.0,88.5,266.0,90.0,270.0,91.0,274.0,92.5,278.0,94.0,282.0,95.5,286.0,97.0,290.0,98.0,294.0,99.5,298.0,101.0,302.0,102.0,306.0,103.5,310.0,105.0,314.0,106.5,318.0,108.0,322.0,109.0,326.0,110.5,330.0,112.0,334.0,113.5,338.0,114.5,342.0,116.0,346.0,117.5,350.0,119.0,354.0,120.0,358.0,121.5,362.0,123.0,366.0,124.5,370.0,126.0,374.0,127.0,378.0,128.5,382.0,130.0,386.0,131.0,390.0,132.5,394.0,134.0,398.0,135.5,402.0,137.0,406.0,139.0,410.0,140.5,414.0,142.5,418.0,145.0,422.0,147.5,426.0,150.0,430.0,152.0,434.0,153.0,438.0,153.5,442.0,153.5,446.0,153.5,450.0,153.5,454.0,153.5,458.0,153.5,462.0,153.5,466.0,153.5,470.0,153.5,474.0,153.5,478.0,153.5,482.0,153.5,486.0,154.5,490.0,158.5,494.0" stroke="black" stroke-width="1" fill="none" />
<polyline points="301.0,494.0,306.0,490.0,307.0,486.0,307.0,482.0,307.0,478.0,307.5,474.0,307.5,470.0,307.5,466.0,308.0,462.0,308.5,458.0,309.5,454.0,310.5,450.0,311.5,446.0,313.0,442.0,315.0,438.0,317.0,434.0,319.5,430.0,322.5,426.0,326.0,422.0,330.0,418.0,334.0,414.0,338.0,410.0,341.5,406.0,345.0,402.0,348.5,398.0,351.5,394.0,354.5,390.0,357.5,386.0,360.0,382.0,362.5,378.0,365.0,374.0,367.5,370.0,369.5,366.0,372.0,362.0,374.0,358.0,376.0,354.0,378.0,350.0,380.0,346.0,382.0,342.0,384.0,338.0,386.0,334.0,388.0,330.0,390.0,326.0,391.5,322.0,393.5,318.0,395.5,314.0,397.5,310.0,399.5,306.0,401.0,302.0,403.5,298.0,405.5,294.0,407.5,290.0,410.0,286.0,412.0,282.0,414.0,278.0,416.5,274.0,419.0,270.0,421.0,266.0,424.0,262.0,426.5,258.0,429.5,254.0,432.5,250.0,435.5,246.0,439.0,242.0,442.5,238.0,446.5,234.0,450.0,230.0,452.0,226.0,452.0,222.0,449.0,218.0,442.0,214.0" stroke="black" stroke-width="1" fill="none" />
<polyline points="433.5,213.5,425.0,217.5,419.0,221.5,414.0,225.5,409.0,229.5,404.5,233.5,400.5,237.5,396.5,241.5,392.5,245.5,389.0,249.5,385.5,253.5,382.0,257.5,379.0,261.5,376.5,265.5,373.5,269.5,370.5,273.5,367.5,277.5,364.0,281.5,360.5,285.5,357.0,289.5,353.0,293.5,348.5,297.5,343.0,301.5,337.5,305.5,330.5,309.5,322.5,313.5" stroke="black" stroke-width="1" fill="none" />
<polyline points="336.5,284.5,341.5,280.5,345.5,276.5,348.5,272.5,352.5,268.5,355.5,264.5,358.5,260.5,361.5,256.5,364.0,252.5,367.0,248.5,370.5,244.5,373.5,240.5,377.5,236.5,380.5,232.5,384.5,228.5,388.5,224.5,393.0,220.5,397.5,216.5,402.5,212.5,407.5,208.5,413.0,204.5,420.0,200.5,428.0,196.5" stroke="black" stroke-width="1" fill="none" />
<polyline points="451.0,198.0,457.5,202.0,462.5,206.0,465.5,210.0,468.0,214.0,469.5,218.0,469.5,222.0,469.5,226.0,469.0,230.0,468.0,234.0,466.0,238.0,463.5,242.0,460.0,246.0,456.0,250.0,452.0,254.0,449.0,258.0,446.0,262.0,443.0,266.0,440.0,270.0,437.0,274.0,434.5,278.0,432.0,282.0,430.0,286.0,427.5,290.0,425.5,294.0,423.5,298.0,421.0,302.0,419.0,306.0,417.0,310.0,415.0,314.0,413.0,318.0,411.0,322.0,409.5,326.0,407.5,330.0,405.5,334.0,403.5,338.0,401.5,342.0,399.5,346.0,397.5,350.0,396.0,354.0,394.0,358.0,392.0,362.0,389.5,366.0,387.5,370.0,385.5,374.0,383.0,378.0,381.0,382.0,378.5,386.0,376.0,390.0,373.5,394.0,370.5,398.0,368.0,402.0,365.0,406.0,362.0,410.0,358.0,414.0,355.0,418.0,351.0,422.0,347.0,426.0,343.0,430.0,339.0,434.0,336.0,438.0,333.0,442.0,330.5,446.0,328.5,450.0,327.5,454.0,326.5,458.0,325.5,462.0,325.5,466.0,324.5,470.0,324.5,474.0,324.5,478.0,324.5,482.0,324.5,486.0,324.5,490.0,323.5,494.0,321.5,498.0,319.0,502.0,315.0,506.0,309.0,510.0,308.5,510.5,312.5,508.5,316.5,505.5,320.5,500.0" stroke="black" stroke-width="1" fill="none" />
<polyline points="178.5,238.5,172.5,234.5,168.5,230.5,166.0,226.5,164.0,222.5,162.0,218.5,161.0,214.5,159.5,210.5,158.0,206.5,156.5,202.5,155.0,198.5,154.0,194.5,152.5,190.5,151.0,186.5,150.0,182.5,148.5,178.5,147.0,174.5,145.5,170.5,144.0,166.5,143.0,162.5,141.5,158.5,140.0,154.5,139.0,150.5,137.5,146.5,136.0,142.5,134.5,138.5,133.5,134.5,132.0,130.5,130.5,126.5,129.0,122.5,128.0,118.5,126.5,114.5,125.0,110.5,123.5,106.5,122.5,102.5,121.0,98.5,119.5,94.5,118.0,90.5,117.0,86.5,115.5,82.5,114.0,78.5,113.0,74.5,111.5,70.5,109.5,66.5,106.5,62.5,99.0,58.5" stroke="black" stroke-width="1" fill="none" />
<polyline points="106.0,42.0,114.0,46.0,119.5,50.0,122.5,54.0,125.5,58.0,127.0,62.0,128.5,66.0,130.0,70.0,131.5,74.0,132.5,78.0,134.0,82.0,135.5,86.0,136.5,90.0,138.0,94.0,139.5,98.0,141.0,102.0,142.5,106.0,143.5,110.0,145.0,114.0,146.5,118.0,147.5,122.0,149.0,126.0,150.5,130.0,152.0,134.0,153.5,138.0,154.5,142.0,156.0,146.0,157.5,150.0,158.5,154.0,160.0,158.0,161.5,162.0,163.0,166.0,164.5,170.0,165.5,174.0,167.0,178.0,168.5,182.0,169.5,186.0,171.0,190.0,172.5,194.0,173.5,198.0,175.5,202.0,176.5,206.0,178.0,210.0,179.5,214.0,181.5,218.0,185.5,222.0" stroke="black" stroke-width="1" fill="none" />
<polyline points="265.5,354.0,264.5,350.0,264.5,346.0,265.0,342.0,266.0,338.0,267.5,334.0,269.0,330.0,271.0,326.0,274.0,322.0,277.0,318.0,281.5,314.0,286.0,310.0,292.5,306.0,303.0,302.0,314.5,298.0,312.0,294.0,310.0,290.0,308.5,286.0,307.5,282.0,307.0,278.0,306.5,274.0,306.0,270.0,306.0,266.0,306.5,262.0,306.5,258.0,307.0,254.0,307.5,250.0,308.5,246.0,309.0,242.0,310.0,238.0,311.0,234.0,312.0,230.0,313.0,226.0,314.0,222.0,315.0,218.0,316.0,214.0,316.5,210.0,317.5,206.0,318.5,202.0,319.5,198.0,320.5,194.0,321.5,190.0,322.5,186.0,323.0,182.0,324.0,178.0,325.0,174.0,326.0,170.0,327.0,166.0,328.0,162.0,329.0,158.0,329.5,154.0,330.5,150.0,331.5,146.0,332.5,142.0,333.5,138.0,334.5,134.0,335.5,130.0,336.5,126.0,337.0,122.0,338.0,118.0,339.0,114.0,340.0,110.0,341.0,106.0,342.0,102.0,343.0,98.0,343.5,94.0,344.5,90.0,345.5,86.0,346.5,82.0,347.5,78.0,348.5,74.0,349.5,70.0,349.5,66.0,349.0,62.0,347.5,58.0,344.0,54.0,337.0,50.0" stroke="black" stroke-width="1" fill="none" />
<polyline points="348.0,35.0,354.0,39.0,358.5,43.0,361.5,47.0,364.0,51.0,365.5,55.0,366.5,59.0,366.5,63.0,366.5,67.0,366.5,71.0,366.0,75.0,365.5,79.0,364.5,83.0,363.5,87.0,362.5,91.0,361.5,95.0,360.5,99.0,359.5,103.0,358.5,107.0,357.5,111.0,356.5,115.0,355.5,119.0,354.5,123.0,354.0,127.0,353.0,131.0,352.0,135.0,351.5,139.0,350.5,143.0,349.5,147.0,348.5,151.0,347.5,155.0,346.5,159.0,345.5,163.0,344.5,167.0,343.5,171.0,342.5,175.0,341.5,179.0,341.0,183.0,340.0,187.0,339.0,191.0,338.0,195.0,337.5,199.0,336.5,203.0,335.5,207.0,334.5,211.0,333.5,215.0,332.5,219.0,331.5,223.0,330.5,227.0,329.5,231.0,328.5,235.0,327.5,239.0,327.0,243.0,326.0,247.0,325.5,251.0,324.5,255.0,324.0,259.0,323.5,263.0,323.5,267.0,323.5,271.0,324.0,275.0,325.0,279.0,326.5,283.0,329.0,287.0" stroke="black" stroke-width="1" fill="none" />
<polyline points="316.0,14.0,312.0,9.5,308.0,6.0,304.0,3.5,300.0,1.5,296.0,0.5" stroke="black" stroke-width="1" fill="none" />
<polyline points="282.5,17.5,276.0,21.5,273.0,25.5,271.5,29.5,270.5,33.5,269.5,37.5,268.5,41.5,267.5,45.5,266.5,49.5,265.5,53.5,265.0,57.5,264.0,61.5,263.0,65.5,262.0,69.5,261.0,73.5,260.0,77.5,259.0,81.5,258.5,85.5,257.5,89.5,256.5,93.5,255.5,97.5,254.5,101.5,253.5,105.5,252.5,109.5,252.0,113.5,251.0,117.5,250.0,121.5,249.0,125.5,248.0,129.5,247.0,133.5,246.0,137.5,245.5,141.5,244.5,145.5,243.5,149.5,242.5,153.5,241.5,157.5,240.5,161.5,239.5,165.5,239.0,169.5,238.0,173.5,237.0,177.5,236.0,181.5,235.0,185.5,234.0,189.5,233.5,193.5,232.5,197.5,231.5,201.5,230.5,205.5,229.5,209.5,228.5,213.5,227.5,217.5,226.0,221.5,224.0,225.5,221.5,229.5,217.5,233.5,212.0,237.5" stroke="black" stroke-width="1" fill="none" />
<polyline points="81.0,141.5,79.5,137.5,78.0,133.5,76.5,129.5,75.5,125.5,74.0,121.5,72.5,117.5,71.5,113.5,70.0,109.5,68.5,105.5,67.0,101.5,65.5,97.5,64.5,93.5,63.0,89.5,61.5,85.5,60.5,81.5,60.5,77.5,60.5,73.5,60.5,69.5,61.5,65.5,63.0,61.5,65.0,57.5,67.5,53.5,71.5,49.5,76.0,45.5,84.0,41.5" stroke="black" stroke-width="1" fill="none" />
</svg>