<svg xmlns="http://www.w3.org/2000/svg" height="417px" width="486px" version="1.1"><polyline points="352.5,95.5,355.0,99.5,355.0,103.5,354.5,107.5,354.0,111.5,354.0,115.5,353.0,119.5,353.0,123.5,352.0,127.5,351.5,131.5,350.5,135.5,350.0,139.5,348.5,143.5,347.5,147.5,346.0,151.5,345.0,155.5,343.5,159.5,341.5,163.5,344.0,163.0,348.0,166.5" stroke="black" stroke-width="1" fill="none" />
<polyline points="346.0,162.0,347.5,166.0,349.0,170.0,350.0,173.0,351.0,177.0,352.5,181.0,353.0,185.0,354.0,189.0,354.0,193.0,353.0,197.0,348.5,201.0,341.0,205.0" stroke="black" stroke-width="1" fill="none" />
<polyline points="349.5,200.5,345.5,202.5,341.5,205.0,337.5,206.5,333.5,207.0,329.5,208.0,325.5,209.0,321.5,210.0,317.5,212.0,313.5,213.0,309.5,215.0,305.5,216.5,301.5,218.5,297.5,220.5,293.5,223.0,289.5,225.5,285.5,228.5,281.5,233.0,277.5,236.0,273.5,241.5,269.5,246.5,265.5,249.5,261.5,251.0,257.5,252.0,253.5,251.5,249.5,250.0,245.5,248.0,241.5,245.5,237.5,240.5,233.5,235.5,229.5,231.0,225.5,227.5,221.5,225.0,217.5,223.0,213.5,221.0,209.5,218.5,205.5,215.0,201.5,212.0,197.5,205.5" stroke="black" stroke-width="1" fill="none" />
<polyline points="209.5,194.5,213.5,195.0,217.5,198.5,221.5,201.0,225.5,205.0,229.5,209.0,233.5,215.5" stroke="black" stroke-width="1" fill="none" />
<polyline points="230.5,215.0,226.5,208.5,222.5,205.0,218.5,201.5,214.5,198.5,210.5,195.0" stroke="black" stroke-width="1" fill="none" />
<polyline points="210.0,193.5,213.0,197.5,218.0,201.5,222.5,205.5,227.0,209.5,229.5,213.5,232.5,217.5,234.5,221.5" stroke="black" stroke-width="1" fill="none" />
<polyline points="228.5,233.5,232.5,237.5,235.5,241.5,234.0,245.5,234.0,245.5" stroke="black" stroke-width="1" fill="none" />
<polyline points="234.0,239.0,230.0,234.5,226.0,234.0,222.0,235.5,218.0,239.0,214.0,242.5,210.0,248.0,208.0,253.0,209.0,249.0,212.5,245.0,215.5,241.0,220.0,237.0,227.0,233.0" stroke="black" stroke-width="1" fill="none" />
<polyline points="262.0,242.5,261.5,246.5,264.0,244.0" stroke="black" stroke-width="1" fill="none" />
<polyline points="263.5,243.0,263.5,247.0" stroke="black" stroke-width="1" fill="none" />
<polyline points="276.5,253.5,272.5,253.0,268.5,253.0,268.0,251.5,264.0,253.5,260.0,254.5,256.0,257.5,252.0,263.0" stroke="black" stroke-width="1" fill="none" />
<polyline points="251.5,283.0,244.0,287.0,241.5,291.0,239.5,295.0,236.5,299.0,235.0,303.0,233.0,307.0,232.5,311.0,231.0,315.0,230.5,319.0,230.0,323.0,230.0,327.0,230.0,331.0,231.0,335.0,232.5,339.0,234.0,343.0,236.0,347.0" stroke="black" stroke-width="1" fill="none" />
<polyline points="243.0,348.5,247.0,348.0,251.0,350.5" stroke="black" stroke-width="1" fill="none" />
<polyline points="248.5,350.5,250.0,354.5,250.5,358.5,249.5,362.5" stroke="black" stroke-width="1" fill="none" />
<polyline points="246.5,362.0,248.0,366.0" stroke="black" stroke-width="1" fill="none" />
<polyline points="257.5,368.5,261.5,363.0,265.5,359.0,269.5,357.0,273.5,356.5,277.5,356.5,281.5,355.5,285.5,355.5,289.5,355.5,293.5,354.5,297.5,354.0,301.5,353.0,305.5,352.0,309.5,351.0,313.5,349.0,317.5,348.0,321.5,346.0,325.5,344.0,329.5,343.0,333.5,341.5,337.5,340.0,341.5,339.5,345.5,339.5,349.5,339.5,353.5,339.5,357.5,340.5,361.5,343.0,365.5,345.5,369.5,350.0" stroke="black" stroke-width="1" fill="none" />
<polyline points="371.0,344.5,367.0,337.5,363.0,333.0,359.0,330.5,355.0,329.0,351.0,326.5" stroke="black" stroke-width="1" fill="none" />
<polyline points="350.5,325.5,354.5,326.0,358.5,327.5,362.5,330.0,366.5,334.0,370.5,339.0" stroke="black" stroke-width="1" fill="none" />
<polyline points="364.0,341.5,368.0,345.5,372.0,349.5,374.5,353.5,375.0,357.5,379.5,356.5,383.5,350.5" stroke="black" stroke-width="1" fill="none" />
<polyline points="372.0,370.5,368.0,370.5,364.0,370.5,360.0,369.0,356.0,367.0,352.0,363.5,348.0,356.5" stroke="black" stroke-width="1" fill="none" />
<polyline points="346.0,351.5,348.0,352.0,347.5,356.0,350.0,360.0,352.0,364.0,357.0,368.0" stroke="black" stroke-width="1" fill="none" />
<polyline points="355.0,378.0,359.5,374.0,355.5,370.5,351.5,366.5,348.0,362.5" stroke="black" stroke-width="1" fill="none" />
<polyline points="339.5,365.5,343.5,363.0,347.5,362.0,351.5,366.0,355.5,369.5,360.0,372.0,364.5,373.5,368.5,373.5" stroke="black" stroke-width="1" fill="none" />
<polyline points="373.5,372.0,369.5,375.0,365.5,375.0,361.5,375.5,356.5,377.0,352.5,379.5,348.5,381.5,344.5,381.5,340.5,378.5" stroke="black" stroke-width="1" fill="none" />
<polyline points="338.5,378.0,342.5,383.0,346.5,385.0,350.5,386.0,354.5,387.0,358.5,388.0,362.5,388.0,366.5,388.5,370.5,390.0,374.5,393.5,378.5,396.0,382.5,400.0,386.5,404.0" stroke="black" stroke-width="1" fill="none" />
<polyline points="366.0,410.5,359.5,406.5,352.5,402.5,353.0,396.5,354.0,392.5,357.0,389.0,353.0,394.5" stroke="black" stroke-width="1" fill="none" />
<polyline points="345.0,382.0,340.0,378.0,339.5,374.0,339.0,370.0,339.5,366.0,344.5,362.0,342.0,361.0,338.0,363.0,334.0,365.0,334.0,367.0" stroke="black" stroke-width="1" fill="none" />
<polyline points="341.5,383.0,338.5,379.0,338.0,375.0,337.0,371.0,337.5,367.0,335.0,364.5,342.5,360.5,346.0,356.5,346.0,352.5,347.5,348.5,346.5,346.5,342.5,347.5,338.5,349.0,334.5,351.5,330.5,353.0,326.5,354.5,322.5,357.0,318.5,358.0,314.5,359.0,310.5,360.0,306.5,361.0,302.5,361.5,298.5,361.5" stroke="black" stroke-width="1" fill="none" />
<polyline points="302.0,350.0,306.0,350.0,310.0,348.0,314.0,347.0,318.0,345.0,322.0,344.0,326.0,341.5,330.0,340.0,334.0,338.5,338.0,337.5,342.0,337.0,346.0,337.0,350.0,337.5,354.0,338.0,358.0,339.0,362.0,340.5,366.0,343.0,370.0,347.0,374.0,352.5" stroke="black" stroke-width="1" fill="none" />
<polyline points="373.5,369.0,373.5,365.0,373.5,361.0,372.5,357.0,371.5,353.0,368.5,349.0,364.5,345.0,358.0,341.0" stroke="black" stroke-width="1" fill="none" />
<polyline points="357.5,327.5,364.0,331.5,367.5,335.5,370.5,339.5,372.0,343.5" stroke="black" stroke-width="1" fill="none" />
<polyline points="371.0,345.0,369.0,341.0,366.0,337.0,362.5,333.0,355.0,329.0,352.0,325.0" stroke="black" stroke-width="1" fill="none" />
<polyline points="357.0,320.5,366.0,321.5,372.0,325.5,377.0,329.5,381.0,333.5,384.0,337.5,385.5,341.5,385.5,345.5,384.5,349.5,382.0,353.5,379.0,357.5,376.0,361.5,376.0,365.5,376.0,369.5,372.0,373.5,376.5,372.5,380.5,371.0,384.5,369.0,388.5,367.0,392.5,365.0,396.5,363.0,400.5,360.0,404.5,358.5,408.5,355.5,412.5,353.0,416.5,349.5,420.5,346.0,424.5,342.5,428.5,339.0,432.5,336.0,436.5,331.5,440.5,328.5,444.5,323.0,448.5,317.5,452.5,311.5,456.5,307.0,460.5,302.0,464.5,295.0,468.5,288.0" stroke="black" stroke-width="1" fill="none" />
<polyline points="470.0,263.5,466.0,258.0,462.0,254.0,458.0,252.0,454.0,250.0,450.0,249.5,446.0,248.5,442.0,248.5,438.0,249.0,434.0,251.0,430.0,255.5,426.0,261.0,422.0,265.0,418.0,269.5,414.0,274.5,410.0,278.5,406.0,282.0,402.0,285.5,398.0,288.5,394.0,291.0,390.0,294.0,386.0,296.0,382.0,298.0,378.0,300.0,374.0,302.0,370.0,303.5,366.0,304.5,362.0,305.5,358.0,306.5,354.0,308.0,350.0,308.0,346.0,308.5,342.0,308.5,337.5,311.5,333.5,305.0,329.5,301.5,325.5,299.0,321.5,297.5,317.5,296.5,313.5,296.0,309.5,296.5,305.5,298.0,301.5,304.5,297.5,309.5,293.5,314.0,289.5,319.0,285.5,322.5,281.5,325.5,277.5,327.5,273.5,331.0,269.5,333.0,265.5,335.0,261.5,337.0,257.5,338.5,253.5,339.5,249.5,341.0,245.5,345.0,240.5,348.5,242.5,344.5,246.0,341.0,254.5,337.0,258.5,333.0,260.0,329.0,261.5,325.0,264.0,321.0,267.5,317.0,271.5,313.0,278.0,309.0" stroke="black" stroke-width="1" fill="none" />
<polyline points="284.5,314.5,279.0,318.5,276.0,322.5,272.5,326.5,274.0,328.0,278.0,325.0,282.0,322.0,286.0,318.0,290.0,314.5" stroke="black" stroke-width="1" fill="none" />
<polyline points="290.0,313.5,287.0,317.5,282.5,321.5,277.0,325.5,273.5,326.0,277.5,320.0,281.5,317.0,285.5,314.5,289.5,313.0" stroke="black" stroke-width="1" fill="none" />
<polyline points="305.5,295.5,301.5,299.0,297.5,304.5,293.5,310.0,289.5,308.0,285.5,308.0,282.5,308.0,278.5,309.0,274.5,311.0,270.5,313.5,266.5,318.0,262.5,323.0,258.5,332.0" stroke="black" stroke-width="1" fill="none" />
<polyline points="255.0,337.0,251.0,338.5,247.0,340.0,243.5,343.5,239.5,350.0,235.5,345.5,231.5,337.0" stroke="black" stroke-width="1" fill="none" />
<polyline points="223.0,331.5,227.0,324.0" stroke="black" stroke-width="1" fill="none" />
<polyline points="224.0,319.0,218.5,323.0" stroke="black" stroke-width="1" fill="none" />
<polyline points="226.0,316.5,222.0,318.0,218.0,320.0,214.0,322.0,210.0,323.0,206.0,323.5" stroke="black" stroke-width="1" fill="none" />
<polyline points="180.0,323.0,179.5,327.0,180.0,331.0,181.0,335.0,181.5,339.0,182.0,343.0,183.0,347.0,184.0,351.0,185.0,358.0,185.0,362.0,185.0,366.0,184.0,370.0,182.5,374.0,185.5,375.0,189.5,374.0,193.5,373.0,197.5,371.5,201.5,369.0,205.5,367.0,209.5,364.5" stroke="black" stroke-width="1" fill="none" />
<polyline points="210.5,358.0,219.5,362.0" stroke="black" stroke-width="1" fill="none" />
<polyline points="228.5,371.0,226.5,375.0,226.5,379.0,227.5,373.0" stroke="black" stroke-width="1" fill="none" />
<polyline points="229.5,371.5,229.5,375.5,227.0,379.0" stroke="black" stroke-width="1" fill="none" />
<polyline points="239.5,380.0,242.0,376.0,244.5,372.0,246.5,368.0,245.5,364.0,241.5,358.5,237.5,358.5" stroke="black" stroke-width="1" fill="none" />
<polyline points="247.0,350.0,243.0,351.5,239.0,355.0,232.0,358.5,228.0,355.0,224.0,350.0" stroke="black" stroke-width="1" fill="none" />
<polyline points="232.5,361.0,228.5,364.5,224.5,364.0,220.5,362.0,216.5,360.5,212.5,358.5,208.5,357.0,204.5,355.5,200.5,354.5,196.5,354.0,192.5,353.5,188.5,353.0,184.5,352.5" stroke="black" stroke-width="1" fill="none" />
<polyline points="185.0,357.0,189.0,356.5,193.0,356.5,197.0,357.0,201.0,357.5,205.0,358.5,209.0,360.0,213.0,361.0,211.5,363.5,203.5,367.5,197.0,371.5" stroke="black" stroke-width="1" fill="none" />
<polyline points="189.5,358.0,185.5,358.0" stroke="black" stroke-width="1" fill="none" />
<polyline points="179.0,323.5,183.0,324.0,187.0,324.5,191.0,325.5,195.0,325.5,199.0,326.0,203.0,326.0,207.0,326.0,211.0,325.5,215.0,324.5,219.0,323.0,223.0,319.5,227.0,318.0,228.0,321.0,226.5,325.0,224.0,329.0,223.0,333.0,222.5,337.0,222.0,341.0,222.5,345.0,223.5,349.0,225.5,353.0,229.0,357.0,232.5,361.0,229.5,365.0,236.5,360.5,240.5,360.0,246.5,362.0" stroke="black" stroke-width="1" fill="none" />
<polyline points="257.0,370.5,261.0,371.5,265.5,371.0,269.5,368.5,273.5,367.0,277.5,365.5,281.5,365.0,285.5,364.5,289.5,364.5,293.5,363.5,297.5,363.5,301.5,363.5" stroke="black" stroke-width="1" fill="none" />
<polyline points="282.5,356.5,278.5,356.5" stroke="black" stroke-width="1" fill="none" />
<polyline points="277.0,365.5,267.5,369.5,266.5,374.5,271.0,378.5,274.5,382.5,275.5,386.5,274.5,390.5,271.0,394.5,271.0,396.5,272.5,397.0" stroke="black" stroke-width="1" fill="none" />
<polyline points="270.5,397.0,274.5,399.5,278.5,401.5,282.5,402.5,286.5,403.0,290.5,403.0,294.5,402.5,298.5,402.0,302.5,401.5,306.5,401.0,310.5,400.5,314.5,400.5,318.5,401.0,322.5,401.0,326.5,401.0,330.5,401.0,334.5,400.0,338.5,400.0,342.5,400.5,346.5,401.5,350.5,400.5,351.5,402.0,355.5,403.5,359.5,406.0,363.5,409.0,367.5,411.5,371.5,413.0,375.5,413.5,379.5,414.0,383.5,413.5,387.5,412.5" stroke="black" stroke-width="1" fill="none" />
<polyline points="386.0,413.0,389.0,409.0,386.5,405.0,383.0,401.0,379.5,397.0,373.5,393.0,367.0,389.0" stroke="black" stroke-width="1" fill="none" />
<polyline points="339.0,348.5,331.0,352.5" stroke="black" stroke-width="1" fill="none" />
<polyline points="321.0,346.0,312.5,350.0" stroke="black" stroke-width="1" fill="none" />
<polyline points="319.5,344.5,327.5,340.5" stroke="black" stroke-width="1" fill="none" />
<polyline points="326.5,320.0,319.5,324.0,313.0,328.0,310.5,332.0,308.0,336.0,306.0,340.0,304.0,344.0,302.5,348.0,302.5,347.5,306.5,338.0,310.5,331.0,314.5,326.5,318.5,324.5,322.5,323.0,326.5,320.0,330.5,319.0,334.5,318.5,338.5,318.5,342.5,318.0,346.5,318.0,350.5,319.0,354.5,320.0,358.5,321.0,362.5,323.0,366.5,324.5,370.5,326.5,374.5,330.0,378.5,333.0" stroke="black" stroke-width="1" fill="none" />
<polyline points="381.0,350.0,377.0,356.5,377.5,355.5,380.5,351.5,382.0,347.5,382.5,343.5,382.0,339.5,380.0,335.5,376.0,331.5,371.5,327.5,364.0,323.5" stroke="black" stroke-width="1" fill="none" />
<polyline points="337.5,315.5,333.5,316.5,329.5,317.0,325.5,318.5,321.5,320.5,317.5,322.5,313.5,324.5,309.5,329.0,305.5,334.5,301.5,344.5,297.5,350.5,293.5,352.5,289.5,353.0,285.5,353.5,281.5,353.5,277.5,354.0,273.5,354.0,269.5,354.5,265.5,355.5,261.5,358.5,257.5,363.5,253.5,372.5,249.5,375.0,247.5,375.5,254.0,371.5,255.5,367.5,257.5,363.5,260.5,359.5,265.0,355.5" stroke="black" stroke-width="1" fill="none" />
<polyline points="269.0,357.0,263.0,361.0,260.0,365.0,257.5,369.0,255.5,374.5,247.5,378.5,241.5,382.5,238.0,386.5,235.5,390.5,234.0,394.5,233.5,398.5,233.0,402.5,233.5,406.5,234.5,410.5,236.5,414.5,238.5,414.5,242.5,410.0,246.5,405.5,250.5,402.0,254.5,401.0,258.5,400.0,262.5,399.5,266.5,397.5,270.5,395.0" stroke="black" stroke-width="1" fill="none" />
<polyline points="275.5,380.0,271.5,378.5,267.5,374.5,263.0,372.5,259.0,373.5,255.0,375.0,251.0,376.0,247.0,379.0,243.0,381.5,239.0,385.5,235.0,391.5" stroke="black" stroke-width="1" fill="none" />
<polyline points="250.0,402.0,246.0,406.0,242.5,410.0,240.0,414.0" stroke="black" stroke-width="1" fill="none" />
<polyline points="276.0,390.5,277.5,386.5,277.0,382.5,273.5,378.5" stroke="black" stroke-width="1" fill="none" />
<polyline points="250.5,365.5,246.5,373.5,247.0,372.5,249.0,368.5,251.0,364.5,252.0,360.5,253.5,356.5,252.0,352.5,248.5,348.5" stroke="black" stroke-width="1" fill="none" />
<polyline points="252.0,339.5,246.5,343.5,243.0,347.5,241.0,353.0,237.5,357.0,234.5,362.0,233.0,366.0,231.5,370.0,231.5,374.0,233.0,378.0,234.0,382.0,235.5,383.5,239.5,380.0,243.5,373.0" stroke="black" stroke-width="1" fill="none" />
<polyline points="177.5,378.5,173.5,382.0,169.5,382.5,165.5,381.5,161.5,380.0,157.5,378.5,153.5,377.5,149.5,377.0,145.5,377.5,141.5,378.0,137.5,379.0,133.5,381.0,129.5,384.5,125.5,389.0,121.5,394.0,117.5,399.5,113.5,405.0,109.5,409.5,105.5,412.5,101.5,414.0,97.5,415.0,93.5,416.0,89.5,416.5,85.5,416.0,81.5,415.5,77.5,413.5,77.0,411.5,80.0,407.5,88.5,403.5,94.0,399.5,95.5,395.5,96.0,391.5,97.0,387.5,98.0,383.5" stroke="black" stroke-width="1" fill="none" />
<polyline points="97.5,382.5,95.0,386.5" stroke="black" stroke-width="1" fill="none" />
<polyline points="108.0,382.5,112.0,384.0" stroke="black" stroke-width="1" fill="none" />
<polyline points="109.5,382.5,114.0,386.5" stroke="black" stroke-width="1" fill="none" />
<polyline points="112.5,387.0,108.5,383.5" stroke="black" stroke-width="1" fill="none" />
<polyline points="108.5,382.0,111.0,386.0" stroke="black" stroke-width="1" fill="none" />
<polyline points="93.0,400.5,89.0,403.5,85.0,404.5,81.0,407.0,77.0,411.0" stroke="black" stroke-width="1" fill="none" />
<polyline points="128.5,380.5,124.5,387.5,123.5,389.0,127.0,385.0,128.5,381.0,129.0,377.0,129.5,373.0,129.0,369.0,128.0,365.0,127.0,361.0,126.0,357.0,125.0,353.0,123.5,349.0,122.5,345.0,121.5,341.0,120.0,337.0,119.5,333.0,119.0,329.0,118.5,325.0,118.0,321.0,117.0,317.0,116.5,313.0,116.0,309.0,115.5,305.0,114.0,302.5,110.0,298.5,106.0,295.0,102.0,290.0,98.0,286.0,94.0,283.5,90.0,282.5,86.0,280.5,82.0,280.0,78.0,280.5,74.0,282.5" stroke="black" stroke-width="1" fill="none" />
<polyline points="74.5,284.0,78.5,291.5,82.5,296.0,86.5,300.0,90.5,304.5,94.0,309.5,95.0,313.5,96.0,317.5,97.0,321.5,97.0,325.5,96.0,329.5" stroke="black" stroke-width="1" fill="none" />
<polyline points="92.5,329.0,92.0,325.0" stroke="black" stroke-width="1" fill="none" />
<polyline points="91.0,325.0,88.0,329.0,81.0,333.0,86.0,333.0,90.0,332.0" stroke="black" stroke-width="1" fill="none" />
<polyline points="115.5,337.5,119.5,343.5" stroke="black" stroke-width="1" fill="none" />
<polyline points="126.0,341.5,130.0,335.0,134.0,329.5,138.0,326.0,142.0,323.5,146.0,322.0,150.0,320.5" stroke="black" stroke-width="1" fill="none" />
<polyline points="147.0,321.0,139.5,325.0,134.5,329.0,131.0,333.0,129.0,337.0,126.5,341.0,125.0,345.0,126.0,349.0,127.0,353.0,128.5,357.0,129.5,361.0,130.0,365.0" stroke="black" stroke-width="1" fill="none" />
<polyline points="140.0,378.0,131.5,382.0,128.5,386.0,125.0,390.0,121.5,394.0,118.5,398.0,115.5,402.0,112.0,406.0,109.0,410.0" stroke="black" stroke-width="1" fill="none" />
<polyline points="92.0,383.0,88.0,376.0,84.0,369.5,80.0,361.0,76.0,354.5,72.0,347.5,68.0,343.5,64.0,340.0,60.0,337.0,56.0,334.0,53.5,331.5,49.5,332.5,45.5,335.0,41.5,337.5,37.5,338.5,33.5,339.0,29.5,339.0,25.5,337.5" stroke="black" stroke-width="1" fill="none" />
<polyline points="42.0,337.0,49.0,333.0,53.0,329.0,53.5,325.0,53.5,325.0" stroke="black" stroke-width="1" fill="none" />
<polyline points="55.0,326.0,54.0,330.0,55.5,334.0,60.5,338.0,66.0,342.0,70.0,346.0,73.5,350.0,75.5,354.0,77.5,358.0,80.5,362.0,82.0,366.0,84.0,370.0,86.0,374.0,88.5,378.0,91.0,382.0,93.5,386.0,97.5,382.5" stroke="black" stroke-width="1" fill="none" />
<polyline points="122.5,351.0,120.5,347.0,119.0,343.0,116.5,339.0,116.0,335.0" stroke="black" stroke-width="1" fill="none" />
<polyline points="114.0,307.0,114.0,303.0,110.0,299.0,104.5,300.5,100.5,304.0,96.5,305.0,92.5,305.0" stroke="black" stroke-width="1" fill="none" />
<polyline points="104.0,301.5,106.5,297.5,105.0,293.5,101.0,289.5,97.0,285.5,88.0,281.5" stroke="black" stroke-width="1" fill="none" />
<polyline points="76.0,280.5,74.5,284.5,76.5,288.5,79.5,292.5,82.5,296.5,87.0,300.5,90.0,304.5,92.0,308.5,92.5,312.5,94.0,316.5,94.5,320.5,95.0,324.5,94.5,328.5" stroke="black" stroke-width="1" fill="none" />
<polyline points="78.5,332.0,75.0,327.0,71.5,323.0,67.5,319.0,59.0,315.0" stroke="black" stroke-width="1" fill="none" />
<polyline points="44.0,314.5,38.0,318.5,35.0,322.5,31.5,326.5,28.5,330.5,25.5,334.5,26.5,338.5,28.0,331.0,32.0,325.5,36.0,320.5,40.0,317.0,44.0,314.5,48.0,313.5,52.0,313.0,56.0,314.0,60.0,315.5,64.0,317.0,68.0,319.0,72.0,323.0,76.0,327.5,80.0,330.5,80.0,333.5,84.0,331.5,88.0,329.0" stroke="black" stroke-width="1" fill="none" />
<polyline points="153.0,313.5,157.0,308.0,161.0,302.5,165.0,302.0,169.0,304.5,173.0,312.5" stroke="black" stroke-width="1" fill="none" />
<polyline points="164.0,301.5,169.0,305.5,171.5,309.5,173.0,313.5,174.0,317.5,175.0,321.5,176.5,324.5,177.0,328.5,178.0,332.5,178.5,336.5,179.5,340.5,180.0,344.5,181.0,348.5,181.5,352.5,181.5,356.5,182.0,360.5,181.5,364.5,181.5,368.5,180.5,372.5,179.0,376.5,175.5,380.5" stroke="black" stroke-width="1" fill="none" />
<polyline points="166.5,327.5,162.5,324.5,158.5,322.0" stroke="black" stroke-width="1" fill="none" />
<polyline points="160.0,321.0,166.0,325.0,170.0,329.0" stroke="black" stroke-width="1" fill="none" />
<polyline points="170.0,332.0,166.5,328.0,161.0,324.0,158.5,320.0" stroke="black" stroke-width="1" fill="none" />
<polyline points="171.5,330.5,167.5,326.0,163.5,322.5,159.5,320.5,155.5,320.0,152.0,318.0,153.0,314.0,156.0,310.0,158.0,306.0,161.5,302.0" stroke="black" stroke-width="1" fill="none" />
<polyline points="219.0,319.5,227.0,315.5,229.5,311.5,231.0,307.5,231.5,303.5,226.0,299.5" stroke="black" stroke-width="1" fill="none" />
<polyline points="224.5,299.0,219.0,303.0,217.0,307.0,215.0,311.0,212.0,315.0,208.0,319.0,205.5,323.0,208.0,319.0,212.0,315.0,216.0,309.0,220.0,302.0,224.0,299.5,228.0,300.0" stroke="black" stroke-width="1" fill="none" />
<polyline points="227.0,297.5,231.0,299.0,235.0,298.0,239.0,291.5,243.0,284.0,248.5,282.0,252.5,280.5,256.5,280.0,260.5,279.0,264.5,278.5,268.5,278.5,272.5,278.5,276.5,278.5,278.0,280.0,282.0,278.5,286.0,280.0" stroke="black" stroke-width="1" fill="none" />
<polyline points="286.0,281.5,282.0,280.5" stroke="black" stroke-width="1" fill="none" />
<polyline points="287.5,276.5,288.5,280.5,295.5,287.5,303.5,291.5,305.5,295.5,300.5,299.5,298.5,303.5,296.0,307.5" stroke="black" stroke-width="1" fill="none" />
<polyline points="310.5,293.5,306.5,290.5,302.5,288.0" stroke="black" stroke-width="1" fill="none" />
<polyline points="302.5,288.0,308.5,292.0,304.5,299.0,302.0,303.0,299.5,307.0,296.5,311.0,293.0,315.0,289.0,319.0,284.5,323.0,278.5,327.0,272.5,331.0,265.0,335.0" stroke="black" stroke-width="1" fill="none" />
<polyline points="307.0,294.0,303.0,291.0,299.0,289.0,295.0,286.5,291.0,285.5,287.0,284.0,283.0,283.0,279.0,282.5,275.0,281.5,271.0,281.0,267.0,281.0,263.0,281.5,259.0,282.0,255.0,282.5,251.0,283.5,247.0,285.0,243.0,288.5,239.0,295.5,235.0,302.0,235.5,297.5,238.0,293.5,240.5,289.5,242.5,285.5,244.5,281.5,246.0,277.5,246.0,274.0,242.0,276.0,238.0,277.0,234.0,277.5,230.0,277.0" stroke="black" stroke-width="1" fill="none" />
<polyline points="230.0,277.0,230.0,281.0,229.5,285.0,228.5,289.0,227.5,293.0,226.5,297.0,232.5,301.0" stroke="black" stroke-width="1" fill="none" />
<polyline points="298.5,349.5,300.5,345.5,303.0,341.5,304.5,337.5,306.0,333.5,309.0,329.5,312.5,325.5,319.5,321.5,327.5,317.5" stroke="black" stroke-width="1" fill="none" />
<polyline points="340.0,312.0,339.5,308.0" stroke="black" stroke-width="1" fill="none" />
<polyline points="321.5,297.5,329.0,301.5,333.5,305.5,336.0,309.5,338.0,313.5,342.0,315.5,346.0,316.0,350.0,316.5,354.0,317.0,358.0,318.5,362.0,319.5,366.0,321.0,370.0,323.5,374.0,326.5,378.0,330.0,382.0,334.0" stroke="black" stroke-width="1" fill="none" />
<polyline points="335.0,281.0,331.0,280.5,327.0,280.0" stroke="black" stroke-width="1" fill="none" />
<polyline points="320.0,272.5,320.0,276.5,319.0,280.5,318.0,284.5,317.0,288.5,316.0,292.5,318.0,294.5,322.0,295.0,326.0,296.5,330.0,298.5" stroke="black" stroke-width="1" fill="none" />
<polyline points="331.5,299.5,322.5,295.5" stroke="black" stroke-width="1" fill="none" />
<polyline points="313.5,292.0,314.0,290.5,314.5,286.5" stroke="black" stroke-width="1" fill="none" />
<polyline points="319.5,273.0,323.5,273.5,327.5,273.5,331.5,272.0,335.5,270.0,339.5,267.0,343.5,263.5,340.5,266.0,335.0,270.0" stroke="black" stroke-width="1" fill="none" />
<polyline points="344.5,264.0,344.0,268.0,342.5,272.0,340.5,276.0,339.5,280.0,338.5,284.0,337.0,288.0,336.0,292.0,335.0,296.0,334.0,300.0" stroke="black" stroke-width="1" fill="none" />
<polyline points="306.0,236.0,310.0,228.5,314.0,224.5,318.0,222.0,322.0,220.5,326.0,218.5,330.0,216.5,334.0,216.0,338.0,216.0,342.0,216.0,346.0,217.0,350.0,219.0,354.0,221.0,358.0,223.5,362.0,227.5,366.0,231.0,370.0,235.5,374.0,240.5" stroke="black" stroke-width="1" fill="none" />
<polyline points="376.0,243.0,372.5,239.0,371.0,236.5,366.5,232.5,363.5,228.5,358.5,224.5,352.5,220.5,343.5,216.5" stroke="black" stroke-width="1" fill="none" />
<polyline points="323.5,219.0,316.5,223.0,311.5,227.0,308.5,231.0,306.5,235.0,305.5,239.0,305.0,243.0,304.5,247.0,304.5,251.0,306.0,255.0" stroke="black" stroke-width="1" fill="none" />
<polyline points="314.5,212.5,305.0,216.5,297.5,220.5,291.0,224.5,285.5,228.5,282.0,232.5,277.0,236.5,274.5,240.5,271.0,244.5,267.5,248.5,259.0,255.0,255.5,259.0,252.0,263.0,251.0,267.0,250.0,271.0,249.0,275.0,248.0,279.0,247.5,283.0,250.0,279.5" stroke="black" stroke-width="1" fill="none" />
<polyline points="272.0,214.5,276.0,206.5,280.0,201.0,284.0,195.5,288.0,191.5,292.0,188.0,296.0,185.0,300.0,182.0,297.5,184.0,291.5,188.0,287.5,192.0,284.0,196.0,281.0,200.0,277.5,204.0,275.5,208.0,273.5,212.0,272.0,216.0,272.5,218.5,276.5,210.5,280.5,203.5,284.5,198.5,288.5,194.0,292.5,190.5,296.5,187.0,300.0,183.0,296.5,187.0,291.5,191.0,288.0,195.0,284.5,199.0,281.0,203.0,278.0,207.0,276.5,211.0,275.5,215.0" stroke="black" stroke-width="1" fill="none" />
<polyline points="234.0,217.5,231.5,213.5,229.5,209.5,225.5,205.5,222.0,202.0,216.5,198.0,212.0,194.0" stroke="black" stroke-width="1" fill="none" />
<polyline points="198.0,169.0,194.0,163.0,190.0,153.5,186.0,143.0" stroke="black" stroke-width="1" fill="none" />
<polyline points="181.0,109.5,185.0,107.5,189.0,106.0,193.0,107.5,197.0,108.0,201.0,108.5,205.0,109.0,209.0,110.0,213.0,111.0,217.0,112.0,221.0,113.5,225.0,115.0,229.0,116.0" stroke="black" stroke-width="1" fill="none" />
<polyline points="226.5,115.5,228.5,119.5,225.0,123.5,228.0,123.0,232.0,119.5,236.0,116.5,240.0,114.5,244.0,112.0,248.0,110.0,252.0,109.0,256.0,108.0,260.0,106.5,264.0,105.5,268.0,105.0,272.0,104.5,276.0,104.5,280.0,104.5,284.0,104.5,288.0,105.0,292.0,105.5,296.0,106.5" stroke="black" stroke-width="1" fill="none" />
<polyline points="321.0,99.0,312.0,103.0,304.5,107.0,297.5,111.0,300.5,109.0,304.5,106.5,308.5,104.5,312.5,103.0,316.5,101.5,320.5,99.5,324.5,98.0,328.5,97.5,332.5,96.5,336.5,96.0,340.5,95.5,344.5,95.0,348.5,95.0,352.5,95.5" stroke="black" stroke-width="1" fill="none" />
<polyline points="314.5,132.5,318.5,127.5,322.5,123.0,326.5,118.5,330.5,115.5,334.5,111.5,338.5,109.0,342.5,106.0,346.5,104.0,346.5,104.0,339.5,108.0,334.0,112.0,330.0,116.0,325.0,120.0,321.0,124.0,318.0,128.0,315.5,132.0,314.5,136.0,320.5,140.0,324.5,144.0,329.0,148.0,332.0,152.0,335.0,156.0" stroke="black" stroke-width="1" fill="none" />
<polyline points="335.0,155.5,331.0,150.0,327.0,146.0,323.0,142.0,319.0,138.5,315.0,136.0" stroke="black" stroke-width="1" fill="none" />
<polyline points="312.0,136.5,316.0,139.5,320.0,143.0,324.0,146.0,328.0,150.5,332.0,154.0,336.0,159.5" stroke="black" stroke-width="1" fill="none" />
<polyline points="333.0,156.0,329.5,152.0,325.5,148.0,320.5,144.0,316.0,140.0,311.5,136.0,312.5,132.0,316.0,128.0,319.0,124.0,322.5,120.0,326.5,116.0,331.0,112.0,336.0,108.0,342.5,104.0,347.5,101.5,343.5,103.5,339.5,105.5,335.5,108.5,331.5,111.5,327.5,115.5,323.5,119.0,319.5,123.0,315.5,128.5,311.5,134.0" stroke="black" stroke-width="1" fill="none" />
<polyline points="250.5,109.0,241.5,113.0,235.0,117.0,230.0,121.0,225.5,123.0,229.5,119.0" stroke="black" stroke-width="1" fill="none" />
<polyline points="185.5,106.5,181.0,110.5,181.0,114.5,181.5,118.5,181.5,122.5,182.0,126.5,182.5,130.5,184.0,134.0,184.5,138.0,185.5,142.0,187.0,146.0,188.5,150.0,190.0,154.0,192.0,158.0,193.5,162.0,195.0,166.0,199.0,170.0,198.0,174.0,197.0,178.0,196.0,182.0,196.0,186.0,195.5,190.0,195.5,194.0,195.5,198.0,196.0,202.0,197.5,206.0,200.0,210.0,203.0,214.0,208.5,218.0,215.0,222.0,222.0,226.0,228.0,230.0,231.5,234.0,235.5,238.0,239.0,242.0,241.5,246.0,248.5,250.0" stroke="black" stroke-width="1" fill="none" />
<polyline points="436.0,247.5,440.0,241.0,444.0,234.5,448.0,234.0,452.0,234.0,456.0,234.0,460.0,235.0,464.0,236.0,468.0,239.0,472.0,243.0" stroke="black" stroke-width="1" fill="none" />
<polyline points="477.0,246.5,473.0,241.5,469.0,236.5,465.0,235.0,461.0,233.0,457.0,231.5,453.0,231.5,449.0,231.5,445.0,232.5" stroke="black" stroke-width="1" fill="none" />
<polyline points="444.0,231.5,448.0,225.5,452.0,214.0" stroke="black" stroke-width="1" fill="none" />
<polyline points="461.5,233.5,469.5,237.5,472.5,241.5,476.5,245.5,478.5,249.5,480.5,253.5" stroke="black" stroke-width="1" fill="none" />
<polyline points="477.5,265.0,476.5,269.0,474.5,268.5" stroke="black" stroke-width="1" fill="none" />
<polyline points="465.5,254.5,461.5,251.0,457.5,249.5,453.5,248.0,449.5,247.0,445.5,247.0,441.5,246.5,437.5,246.5" stroke="black" stroke-width="1" fill="none" />
<polyline points="454.0,250.5,462.0,254.5,466.0,258.5,469.0,262.5,471.0,266.5,472.0,270.5,472.5,274.5,472.5,278.5,471.0,282.5,469.0,286.5,466.5,290.5,465.0,294.5,462.5,298.5,460.5,302.5,457.0,306.5,454.0,310.5,450.5,314.5,448.0,318.5,445.0,322.5,441.5,326.5,438.0,330.5,434.0,334.5,429.0,338.5,424.5,342.5,420.0,346.5,415.5,350.5,410.0,354.5,403.5,358.5,397.0,362.5,389.0,366.5,381.0,370.5" stroke="black" stroke-width="1" fill="none" />
<polyline points="456.0,249.0,463.5,253.0" stroke="black" stroke-width="1" fill="none" />
<polyline points="468.5,250.5,468.0,253.0,469.0,248.0,471.0,244.0,469.0,240.0,463.0,236.0" stroke="black" stroke-width="1" fill="none" />
<polyline points="478.5,174.0,474.5,165.5,470.5,160.0,466.5,156.0,462.5,153.0" stroke="black" stroke-width="1" fill="none" />
<polyline points="462.5,153.0,462.0,157.0,462.0,161.0,462.0,165.0,461.5,169.0,461.0,173.0,461.0,177.0,460.5,181.0,459.0,185.0,458.5,189.0,458.0,193.0,457.0,197.0,456.5,201.0,455.0,205.0,454.0,209.0,452.5,213.0,451.0,217.0,450.0,221.0,448.5,225.0,446.0,229.0,444.0,234.5,441.5,238.5,438.5,242.5,436.5,246.5,433.0,251.5,430.0,255.5,427.0,259.5,423.5,263.5,420.0,267.5,416.0,271.5,413.5,275.5,409.0,279.5,405.0,283.5,399.5,287.5,393.0,291.5,386.5,295.5,378.5,299.5,369.0,303.5" stroke="black" stroke-width="1" fill="none" />
<polyline points="481.5,253.5,482.5,249.5,483.5,245.5,484.0,241.5,484.5,237.5,485.0,233.5,485.5,229.5,486.0,225.5,485.5,221.5,485.5,217.5,485.5,213.5,485.5,209.5,485.0,205.5,484.5,201.5,483.5,197.5,483.5,193.5,482.5,189.5,482.0,185.5,480.5,181.5,479.5,177.5,478.0,173.5,476.5,169.5,474.5,165.5,471.5,161.5,468.5,157.5,463.5,153.5" stroke="black" stroke-width="1" fill="none" />
</svg>