<svg xmlns="http://www.w3.org/2000/svg" height="383px" width="438px" version="1.1"><polyline points="321.0,39.0,331.0,43.0,340.0,47.0,348.0,51.0,354.5,55.0,360.5,59.0,365.5,63.0,370.5,67.0,375.5,71.0,380.0,75.0,384.0,79.0,388.0,83.0,392.0,87.0,395.5,91.0,398.0,95.0,401.0,99.0,404.0,103.0,406.5,107.0,409.0,111.0,411.5,115.0,414.0,119.0,415.5,123.0,418.0,127.0,422.0,131.0,425.5,135.0,427.5,139.0,429.0,143.0,430.0,147.0,431.0,151.0,432.5,155.0,433.5,159.0,434.0,163.0,435.0,167.0,435.5,171.0,436.5,175.0,437.0,179.0,437.5,183.0,438.0,187.0,438.0,191.0,438.0,195.0,438.0,199.0,438.0,203.0,438.0,207.0,437.5,211.0,437.0,215.0,436.5,219.0,436.0,223.0,435.0,227.0,434.5,231.0,433.5,235.0,433.0,239.0,431.5,243.0,430.0,247.0,429.0,251.0,427.0,255.0,425.5,259.0,424.0,263.0,422.5,267.0,420.5,271.0,418.5,275.0,416.0,279.0,413.0,283.0,410.5,287.0,408.0,291.0,404.5,295.0,401.5,299.0,398.0,303.0,394.5,307.0,390.5,311.0,386.5,315.0,382.0,319.0,377.0,323.0,371.5,327.0,365.5,331.0,359.0,335.0,351.0,339.0,342.5,343.0,332.0,347.0" stroke="black" stroke-width="1" fill="none" />
<polyline points="298.5,354.5,302.5,354.5,306.5,353.5,310.5,352.5,314.5,352.0,318.5,351.0,322.5,350.5,326.5,349.0,330.5,348.0,334.5,346.5,338.5,344.5,342.5,343.0,346.5,341.5,350.5,339.5,354.5,337.5,358.5,335.5,362.5,333.0,366.5,330.5,370.5,327.5,374.5,325.0,378.5,322.0,382.5,318.5,386.5,315.0,390.5,311.0,394.5,307.0,398.5,302.5,402.5,298.0,406.5,293.0,410.5,287.0,414.5,280.5,418.5,274.5" stroke="black" stroke-width="1" fill="none" />
<polyline points="419.5,263.0,418.0,267.0,415.5,271.0,417.5,267.5,424.0,262.5,428.0,252.5,432.0,241.0" stroke="black" stroke-width="1" fill="none" />
<polyline points="408.0,239.5,404.0,245.0,402.5,251.5,398.5,259.5,394.5,267.0,390.5,273.0,386.5,279.0,382.5,283.5,378.5,287.5,374.5,291.5,370.5,294.5,366.5,297.0,362.5,298.5,358.5,302.0,354.5,303.5,350.5,305.5,346.5,307.5,342.5,309.5,338.5,311.0,334.5,312.5,330.5,313.5,326.5,315.0,322.5,316.0,318.5,317.0,314.5,317.5,310.5,318.0" stroke="black" stroke-width="1" fill="none" />
<polyline points="214.0,312.0,210.0,309.5,206.0,307.0,202.0,305.0,198.0,302.0" stroke="black" stroke-width="1" fill="none" />
<polyline points="198.0,302.0,204.0,306.0,210.0,310.0" stroke="black" stroke-width="1" fill="none" />
<polyline points="266.5,321.5,262.5,321.0,258.5,320.5,254.5,320.0,250.5,319.0,246.5,318.5,242.5,317.5,238.5,316.5,234.5,316.0,230.5,314.5,226.5,313.5,222.5,312.0,218.5,310.5,214.5,308.5,210.5,306.0,206.5,304.5,202.5,302.0,198.5,300.0,194.5,297.0,190.5,294.0,186.5,290.5,182.5,287.0,178.5,283.0,174.5,279.5,170.5,274.0,166.5,269.5,162.5,263.5,158.5,257.0" stroke="black" stroke-width="1" fill="none" />
<polyline points="157.0,259.0,159.5,263.0,165.5,268.0,168.5,272.0,171.5,276.0,174.5,280.0,179.0,284.0,183.0,288.0,188.0,292.0,192.5,296.0,198.0,300.0,205.0,304.0,212.5,308.0,222.0,312.0" stroke="black" stroke-width="1" fill="none" />
<polyline points="169.5,275.5,165.5,271.5,161.0,265.0,157.0,259.0" stroke="black" stroke-width="1" fill="none" />
<polyline points="154.5,244.0,150.5,237.0" stroke="black" stroke-width="1" fill="none" />
<polyline points="126.5,248.0,122.5,237.0" stroke="black" stroke-width="1" fill="none" />
<polyline points="121.5,233.0,122.5,237.0,124.0,241.0,125.5,245.0,126.5,249.0" stroke="black" stroke-width="1" fill="none" />
<polyline points="117.0,240.0,121.0,251.0,125.0,259.0,129.0,267.5,133.0,274.0,137.0,280.0,141.0,286.0,145.0,291.0,149.0,296.0,153.0,300.5,157.0,305.0,161.0,308.5,165.0,312.5,169.0,316.0,173.0,319.0,177.0,322.0,181.0,325.0,185.0,328.0,189.0,330.5,193.0,332.5,197.0,335.0,201.0,337.0,205.0,338.5,209.0,340.0,213.0,342.0,217.0,344.0,221.0,345.5,225.0,347.0,229.0,348.0,233.0,349.5,237.0,350.5,241.0,351.5,245.0,352.5,249.0,353.0,253.0,353.5,257.0,354.0,261.0,355.0,265.0,355.0,269.0,355.5,273.0,356.0,277.0,356.0,281.0,356.0" stroke="black" stroke-width="1" fill="none" />
<polyline points="417.0,265.0,414.5,270.0,416.5,266.0,418.5,262.0" stroke="black" stroke-width="1" fill="none" />
<polyline points="397.5,186.0,399.5,182.0,398.5,181.0,397.5,185.0" stroke="black" stroke-width="1" fill="none" />
<polyline points="396.0,174.5,400.0,174.5" stroke="black" stroke-width="1" fill="none" />
<polyline points="395.0,163.5,396.0,161.0,392.0,160.0" stroke="black" stroke-width="1" fill="none" />
<polyline points="391.5,157.0,395.5,156.5" stroke="black" stroke-width="1" fill="none" />
<polyline points="396.5,152.5,400.5,154.0" stroke="black" stroke-width="1" fill="none" />
<polyline points="398.5,150.5,398.0,148.0,394.0,146.5" stroke="black" stroke-width="1" fill="none" />
<polyline points="393.5,145.5,397.5,144.0" stroke="black" stroke-width="1" fill="none" />
<polyline points="401.5,137.5,397.5,136.0" stroke="black" stroke-width="1" fill="none" />
<polyline points="396.5,134.0,401.0,136.5" stroke="black" stroke-width="1" fill="none" />
<polyline points="391.5,140.0,390.0,136.0,388.5,134.5,388.0,130.5,383.0,135.0,384.5,140.5,385.5,136.5,382.5,133.5,384.0,130.0,380.0,130.5" stroke="black" stroke-width="1" fill="none" />
<polyline points="380.0,130.5,381.0,134.5,382.5,133.5" stroke="black" stroke-width="1" fill="none" />
<polyline points="383.5,139.0,387.5,138.0" stroke="black" stroke-width="1" fill="none" />
<polyline points="390.0,131.0,387.5,132.5,390.5,133.5,390.5,137.5,394.5,138.0,393.5,142.0,394.0,144.5,395.5,148.5,398.0,147.0,396.0,150.5,398.5,154.5,398.0,158.5,397.5,156.5,399.0,154.5,400.5,159.0" stroke="black" stroke-width="1" fill="none" />
<polyline points="397.0,169.0,396.0,168.0,398.0,168.5,397.5,164.5,394.0,160.0,396.0,160.0,394.5,156.0,390.5,154.5" stroke="black" stroke-width="1" fill="none" />
<polyline points="390.5,152.0,391.0,150.5,397.0,151.0,400.0,151.5,401.5,155.5" stroke="black" stroke-width="1" fill="none" />
<polyline points="389.5,147.5,389.5,146.5,390.0,145.0,390.0,149.0,390.5,152.0,391.0,156.0,391.5,158.0,393.5,162.0,394.0,166.0,395.0,170.0,396.5,174.0,396.5,178.0,397.5,178.0,399.0,179.0,400.5,182.0,399.5,186.5,399.5,189.0" stroke="black" stroke-width="1" fill="none" />
<polyline points="408.5,151.5,404.5,141.0,400.5,132.0,396.5,124.5,392.5,117.0,388.5,111.0,384.5,106.0,380.5,101.0,376.5,96.0,372.5,91.5,368.5,87.5,364.5,83.5,360.5,81.0,356.5,78.0,352.5,74.5,348.5,72.0,344.5,69.5,340.5,67.0,336.5,65.0,332.5,63.0,328.5,60.5,324.5,59.5,320.5,57.5,316.5,56.0,312.5,55.0,308.5,53.0,304.5,52.5,300.5,51.5,296.5,51.5,292.5,50.5,288.5,50.0,284.5,50.0,280.5,50.0,276.5,50.0,272.5,49.5,268.5,49.5,264.5,49.0,260.5,49.5" stroke="black" stroke-width="1" fill="none" />
<polyline points="272.5,63.5,276.5,61.0,280.5,61.0,284.5,61.5,288.5,61.5,291.0,63.0,293.0,65.0,297.0,63.5,301.0,64.5,300.0,67.5,303.5,70.0,307.5,71.0,311.5,72.5,315.5,74.0,319.5,76.0,323.5,78.0,327.5,79.5,331.5,82.5,335.5,84.5,339.5,87.0,343.5,90.5,347.5,93.0,351.5,96.5,355.5,100.0,359.5,104.0,363.5,108.5,367.5,113.5,370.0,116.5" stroke="black" stroke-width="1" fill="none" />
<polyline points="376.0,114.5,380.0,114.0,380.5,115.5,382.0,117.5,383.0,120.5,384.5,121.5" stroke="black" stroke-width="1" fill="none" />
<polyline points="386.5,116.5,384.0,108.5,383.0,106.5,379.0,104.0,378.5,104.5" stroke="black" stroke-width="1" fill="none" />
<polyline points="377.5,102.5,379.5,100.0,382.5,104.0,385.5,108.0,387.0,112.0,386.0,116.0,391.5,119.5" stroke="black" stroke-width="1" fill="none" />
<polyline points="391.5,120.5,391.0,119.0,388.5,116.0,388.0,114.0,385.0,114.0,385.0,112.5,384.5,110.5,381.0,109.5,378.5,105.5,377.5,101.5,379.0,101.0,375.0,100.0" stroke="black" stroke-width="1" fill="none" />
<polyline points="370.5,106.5,372.0,104.0,374.5,106.0,372.0,107.5,370.5,105.5,373.5,109.5,376.0,113.5,379.0,116.0,380.0,120.0,382.5,124.0,385.5,124.0,385.0,125.0" stroke="black" stroke-width="1" fill="none" />
<polyline points="395.5,123.5,396.5,127.5,395.0,129.5,399.0,130.0,400.0,132.0,402.0,136.0,403.5,140.0,405.5,144.0,406.5,148.0,408.5,152.0,409.5,156.0,410.5,160.0,411.5,164.0,412.5,168.0,413.0,172.0,414.0,176.0,414.0,180.0,414.5,184.0,414.5,188.0,415.5,192.0,415.5,196.0,415.0,200.0,415.0,204.0,415.0,208.0,414.0,212.0,413.5,216.0,412.5,220.0,412.5,224.0,411.5,228.0,410.5,232.0,409.5,236.0,408.0,240.0,405.0,244.0,404.0,247.5,402.5,251.5,400.5,255.5,398.5,259.5,396.5,263.5,394.0,267.5,391.5,271.5,389.0,275.5,386.0,279.5,382.5,283.5,378.5,287.5,374.5,291.5,368.0,295.5,362.0,299.0,359.5,303.0,352.0,305.0,343.0,309.0" stroke="black" stroke-width="1" fill="none" />
<polyline points="428.5,141.5,424.5,132.5,420.5,130.5,416.5,123.5,412.5,116.5,408.5,109.5,404.5,103.5,400.5,97.5,396.5,92.0,392.5,87.5,388.5,83.0,384.5,79.0,380.5,75.0,376.5,71.5,372.5,68.0,368.5,64.5,364.5,61.5,360.5,58.5,356.5,55.5,352.5,53.0,348.5,51.0,344.5,49.0,340.5,47.0,336.5,45.0,332.5,43.5,328.5,41.5,324.5,40.0,320.5,38.5,316.5,37.5,312.5,36.5,308.5,36.0,304.5,35.0,300.5,34.5,296.5,33.5,292.5,33.0,288.5,33.0,284.5,32.5,280.5,32.5,276.5,32.5,272.5,32.5,268.5,32.5,264.5,32.5,260.5,32.5,256.5,33.0,252.5,33.5,248.5,34.0,244.5,34.5,240.5,35.0,236.5,35.5,232.5,36.5,228.5,37.5,224.5,39.0,220.5,40.0,216.5,41.5,212.5,43.0,208.5,44.5,204.5,46.0,200.5,47.5,196.5,49.5,192.5,51.5,188.5,54.0,184.5,56.5,180.5,59.0,176.5,61.5,172.5,64.5,168.5,67.5,164.5,70.5,160.5,74.5,156.5,78.5,152.5,82.0,148.5,87.5,144.5,93.0,140.5,98.0,136.5,104.0,132.5,110.5,128.5,118.5,124.5,127.5,120.5,138.0" stroke="black" stroke-width="1" fill="none" />
<polyline points="147.5,149.0,151.5,139.5,155.5,131.0,159.5,124.5,163.5,118.5,167.5,113.0,171.5,108.5,175.5,104.0,179.5,100.0,183.5,96.0,187.5,93.0,191.5,90.0,195.5,87.0,199.5,84.5,203.5,82.0,207.5,80.0,211.5,78.5,215.5,76.5,219.5,75.0,223.5,73.5,227.5,72.0,231.5,71.0,235.5,70.0,239.5,69.0,243.5,68.0,247.5,67.5,251.5,67.0,255.5,66.5,259.5,66.0,263.5,66.0,267.5,66.0,271.5,66.0,275.5,66.0,279.5,66.0,283.5,66.0,287.5,66.5,291.5,67.5,295.5,68.0,299.5,68.5" stroke="black" stroke-width="1" fill="none" />
<polyline points="305.0,70.5,315.5,74.5,325.0,78.5,331.0,82.5,339.0,86.5,343.0,90.5,348.5,94.5,353.0,98.5,357.5,102.5,361.5,106.5,364.5,110.5,368.0,114.5,371.0,118.5" stroke="black" stroke-width="1" fill="none" />
<polyline points="386.0,108.5,389.0,112.5,392.0,116.5,394.0,120.5,394.0,124.5,392.5,128.5,396.0,129.0,396.0,133.0,397.5,136.0,398.5,140.0,401.0,139.0" stroke="black" stroke-width="1" fill="none" />
<polyline points="419.5,132.0,421.0,136.0,422.5,140.0" stroke="black" stroke-width="1" fill="none" />
<polyline points="369.5,95.0,369.0,90.0,365.0,91.0" stroke="black" stroke-width="1" fill="none" />
<polyline points="363.5,86.0,363.5,90.0,366.0,91.0,365.5,87.5,362.0,88.0,365.5,92.0,369.5,96.0,370.5,93.0" stroke="black" stroke-width="1" fill="none" />
<polyline points="361.5,93.0,357.5,93.0,353.5,89.0" stroke="black" stroke-width="1" fill="none" />
<polyline points="353.0,87.5,357.0,87.5,354.5,89.5,358.5,89.5,359.5,95.0,363.5,95.0,367.5,99.0" stroke="black" stroke-width="1" fill="none" />
<polyline points="365.5,99.0,367.0,99.0,364.5,98.0,365.5,97.0,361.5,95.0,358.0,92.5,358.0,94.0,354.0,91.0,353.5,87.0" stroke="black" stroke-width="1" fill="none" />
<polyline points="315.0,55.5,324.5,59.5,333.5,63.5,340.5,67.5,347.5,71.5,353.5,75.5,358.0,79.5,364.0,83.5,367.5,87.5,372.0,91.5,375.5,95.5,376.0,99.0,379.0,101.5,380.5,105.5,381.5,108.5,383.0,112.5,387.5,116.0,389.0,117.5,390.5,119.0,389.0,123.0,391.5,123.0,392.5,124.5,393.5,127.0" stroke="black" stroke-width="1" fill="none" />
<polyline points="277.0,62.5,273.0,63.5" stroke="black" stroke-width="1" fill="none" />
<polyline points="225.5,72.5,215.5,76.5,206.5,80.5,199.5,84.5,193.5,88.5,188.0,92.5,183.5,96.5,179.0,100.5,175.0,104.5,171.5,108.5,168.0,112.5,164.5,116.5,162.5,120.5,159.5,124.5,157.0,128.5,154.5,132.5,153.0,136.5,151.0,140.5,149.5,144.5,148.0,148.5,147.0,152.5,145.5,156.5,144.5,160.5,143.5,164.5,143.0,168.5,142.5,172.5,141.5,176.5,141.5,180.5,141.0,184.5,141.0,188.5,141.0,192.5,141.5,196.5,141.5,200.5,142.0,204.5,142.5,208.5,143.0,212.5,143.5,216.5,145.0,220.5,145.5,224.5,146.0,228.5,149.0,231.0,150.0,235.0,151.5,239.0,153.5,243.0,155.0,247.0,156.5,251.0,158.0,255.0,159.5,259.0,161.5,263.0,162.0,267.0,165.0,271.0,168.5,275.0" stroke="black" stroke-width="1" fill="none" />
<polyline points="141.0,214.0,140.0,210.0,137.0,206.0" stroke="black" stroke-width="1" fill="none" />
<polyline points="111.5,203.5,107.0,199.5,97.5,195.5" stroke="black" stroke-width="1" fill="none" />
<polyline points="98.5,201.0,106.5,205.0,109.5,209.0,111.0,213.0,111.5,217.0,112.0,221.0,113.0,225.0,114.0,229.0,115.0,233.0,116.0,237.0,117.0,241.0,118.5,245.0,120.0,249.0,121.5,253.0,123.5,257.0,125.5,261.0,127.5,265.0,129.5,269.0,132.0,273.0,134.5,277.0,137.0,281.0,140.0,285.0,142.5,289.0,146.0,293.0,149.5,297.0,153.0,301.0,156.5,305.0,161.0,309.0,165.0,313.0,169.5,317.0,174.5,321.0,180.5,325.0,186.5,329.0,193.0,333.0,200.0,337.0,210.5,341.0,219.5,345.0" stroke="black" stroke-width="1" fill="none" />
<polyline points="107.0,205.0,103.0,202.5,99.0,201.0,95.0,200.0,91.0,199.0,87.0,198.5,83.0,198.5,79.0,198.0,75.0,198.0,71.0,198.0,67.0,200.0,63.0,201.5,59.0,202.0,55.0,202.5,51.0,202.5,47.0,202.0,43.0,202.0,39.0,201.0,35.0,201.5,31.0,199.0,27.0,198.0" stroke="black" stroke-width="1" fill="none" />
<polyline points="25.5,197.5,29.5,196.0,33.5,196.5,37.5,196.5" stroke="black" stroke-width="1" fill="none" />
<polyline points="23.5,206.0,27.5,204.0,31.5,202.0,33.5,201.0,25.0,205.0,25.0,209.0,27.0,213.0,27.5,217.0,27.5,221.0,26.5,225.0,25.0,229.0,24.0,233.0,22.5,237.0,21.5,241.0,20.0,245.0,19.0,249.0,18.0,253.0,16.5,257.0,15.5,261.0,14.5,265.0,13.5,269.0,13.0,273.0,12.0,277.0,11.0,281.0,10.0,285.0,8.5,289.0,8.0,293.0,7.5,297.0,7.0,301.0,6.0,305.0,5.5,309.0,5.0,313.0,14.0,317.0,17.5,321.0,19.5,325.0,20.5,329.0,22.0,333.0,23.0,337.0,24.0,341.0,25.0,345.0,26.5,349.0,28.0,353.0,30.5,357.0,33.0,361.0,33.0,365.0,33.0,369.0,31.5,373.0,28.5,377.0,23.0,381.0" stroke="black" stroke-width="1" fill="none" />
<polyline points="14.5,383.0,18.5,383.0,22.5,381.5,26.5,379.0,30.5,374.5" stroke="black" stroke-width="1" fill="none" />
<polyline points="33.5,361.0,29.5,355.0,25.5,346.0" stroke="black" stroke-width="1" fill="none" />
<polyline points="21.0,329.5,17.0,319.5,13.0,316.0,9.0,314.0,5.0,312.5" stroke="black" stroke-width="1" fill="none" />
<polyline points="21.0,179.0,17.0,173.5,13.0,171.0,9.0,167.5,5.0,167.0,1.0,167.5,1.0,169.0" stroke="black" stroke-width="1" fill="none" />
<polyline points="7.5,167.0,11.0,171.0,18.0,175.0,20.5,179.0,22.0,183.0,22.5,187.0,22.0,191.0,26.0,191.0,30.0,191.5,34.0,191.5,38.0,191.5,42.0,191.0,46.0,191.0,50.0,191.0,54.0,191.0,58.0,191.0,62.0,191.5,66.0,191.5,70.0,192.0,74.0,192.5,78.0,193.0,82.0,193.0,86.0,193.5,90.0,194.0,94.0,194.5,98.0,195.5,102.0,197.0,106.0,199.0,110.0,201.5,112.5,204.0" stroke="black" stroke-width="1" fill="none" />
<polyline points="138.0,192.0,136.5,188.5,139.0,182.0,137.5,178.0" stroke="black" stroke-width="1" fill="none" />
<polyline points="137.5,175.0,136.5,179.0,137.5,183.0,135.0,188.0,136.5,192.0,137.5,194.0" stroke="black" stroke-width="1" fill="none" />
<polyline points="116.0,210.5,115.0,206.5,114.5,202.5,114.0,198.5,114.0,194.5,113.5,190.5,113.5,186.5,113.5,182.5,113.5,178.5,114.0,174.5,114.5,170.5,115.5,166.5,116.5,162.5,116.0,158.5,116.5,154.5,117.0,150.5,118.0,146.5,119.5,142.5,120.5,138.5,122.0,134.5,124.0,130.5,125.0,126.5,127.0,122.5,128.5,118.5,131.0,114.5,132.5,110.5,135.0,106.5,137.5,102.5,140.5,98.5,143.0,94.5,146.0,90.5,149.5,86.5,152.5,82.5,156.5,78.5,160.5,74.5,164.5,70.5,169.5,66.5,174.5,62.5,181.0,58.5,187.5,54.5,194.0,50.5,202.5,46.5,213.0,42.5" stroke="black" stroke-width="1" fill="none" />
</svg>