<svg xmlns="http://www.w3.org/2000/svg" height="383px" width="511px" version="1.1"><polyline points="258.5,132.5,255.0,136.5,254.0,140.5,254.0,144.5,253.5,148.5,253.5,152.5,253.5,156.5,253.5,160.5,253.5,164.5,253.5,168.5,253.5,172.5,253.5,176.5,253.5,180.5,253.0,184.5,253.0,188.5,253.0,192.5,253.0,196.5,253.0,200.5,253.0,204.5,252.5,208.5,252.5,212.5,253.5,216.5,252.5,220.5,252.5,224.5,252.0,228.5,252.0,232.5,252.0,236.5,252.0,240.5,252.0,244.5,252.0,248.5,251.5,252.5,251.5,256.5,251.5,260.5,251.5,264.5,251.5,268.5,251.0,272.5,251.0,276.5,251.0,280.5,251.0,284.5,251.0,288.5,251.0,292.5,251.0,296.5,250.5,300.5,251.5,304.5,251.0,308.5,250.5,312.5,250.0,316.5,250.0,320.5,250.0,324.5,250.0,328.5,250.0,332.5,249.5,336.5,249.5,340.5,249.5,344.5,249.5,348.5,249.5,352.5,249.5,356.5,249.0,360.5,249.0,364.5,249.0,368.5,249.0,372.5,249.0,376.5,248.5,380.5" stroke="black" stroke-width="1" fill="none" />
<polyline points="252.5,383.0,252.5,379.0,252.5,375.0,252.5,371.0,253.0,366.5,253.0,362.5,253.0,358.5,253.0,354.5,253.0,350.5,253.0,346.5,253.0,342.0,253.5,338.0,253.5,334.0,253.5,330.0,253.5,326.0,253.5,322.0,253.5,318.0" stroke="black" stroke-width="1" fill="none" />
<polyline points="254.0,316.0,252.0,320.0,252.0,324.0,252.0,328.0,252.0,332.0,252.0,336.0,252.0,340.0,252.0,344.0,251.5,348.0,251.5,352.0,251.5,356.0,251.5,360.0,251.5,364.0,251.5,368.0,251.0,372.0,251.5,376.0,251.0,380.0" stroke="black" stroke-width="1" fill="none" />
<polyline points="250.5,309.0,254.5,307.5,258.5,307.0" stroke="black" stroke-width="1" fill="none" />
<polyline points="337.0,322.5,341.0,319.0,345.0,315.0,349.0,310.0,347.5,314.5,343.5,318.5,339.5,325.0" stroke="black" stroke-width="1" fill="none" />
<polyline points="337.0,330.5,338.5,332.5,338.5,336.5,338.5,340.5,338.5,345.0,338.5,349.0,338.5,353.0,338.5,357.0,338.5,361.0,338.5,365.0,338.5,369.0,338.5,373.0,338.5,377.0,338.5,381.0" stroke="black" stroke-width="1" fill="none" />
<polyline points="342.0,319.5,346.0,316.0" stroke="black" stroke-width="1" fill="none" />
<polyline points="353.5,306.0,349.5,305.0,345.5,302.0,341.5,297.5,337.5,292.0" stroke="black" stroke-width="1" fill="none" />
<polyline points="338.5,290.0,338.5,294.0,341.5,298.0,345.0,302.0,352.0,306.0,347.5,312.5,343.5,316.5,338.0,320.5,337.0,324.5,337.0,328.5,337.0,332.5,337.0,336.5,337.0,340.5,337.0,344.5,337.0,348.5,337.0,352.5,337.0,356.5,337.0,360.5,337.0,364.5,337.0,368.5,337.0,372.5,337.0,376.5,337.0,380.5" stroke="black" stroke-width="1" fill="none" />
<polyline points="428.0,379.5,428.0,375.5,428.0,371.5,428.0,367.0,428.0,363.0,428.5,359.0,428.5,355.0,428.5,351.0,428.5,347.0,428.5,343.0,428.5,339.0,428.5,335.0,428.5,330.5,428.5,326.5" stroke="black" stroke-width="1" fill="none" />
<polyline points="427.0,325.0,427.0,329.0,427.0,333.0,427.0,337.0,427.0,341.0,427.0,345.0,427.0,349.0,427.0,353.0,427.0,357.0,427.0,361.0,427.0,365.0,426.5,369.0,426.5,373.0,426.5,377.0,426.5,381.0" stroke="black" stroke-width="1" fill="none" />
<polyline points="436.5,312.5,432.5,317.5,435.0,315.0,438.0,311.0" stroke="black" stroke-width="1" fill="none" />
<polyline points="428.0,196.5,428.5,192.5,428.5,188.5,428.5,184.5,428.5,180.5,428.5,176.5,428.5,172.5,428.5,168.5,428.5,164.5,428.5,160.5,428.5,156.5,428.5,152.5,428.5,148.5,428.5,144.5,428.5,143.0" stroke="black" stroke-width="1" fill="none" />
<polyline points="430.0,143.5,430.0,147.5,430.0,151.5,430.0,155.5,430.0,159.5,430.0,163.5,430.0,167.5,430.0,171.5,430.0,175.5,430.0,179.5,430.0,183.5,430.0,187.5,430.0,191.5" stroke="black" stroke-width="1" fill="none" />
<polyline points="350.5,219.5,346.5,222.0,342.5,226.5,342.0,227.5,345.0,223.5,350.0,219.5" stroke="black" stroke-width="1" fill="none" />
<polyline points="342.0,234.5,341.5,238.5,342.0,242.5,341.5,246.5,341.5,250.5,341.5,254.5" stroke="black" stroke-width="1" fill="none" />
<polyline points="340.0,248.0,340.0,244.0,340.5,240.0,340.5,236.0,340.5,234.0" stroke="black" stroke-width="1" fill="none" />
<polyline points="340.0,198.5,340.0,194.5,340.0,190.5,340.0,186.5,340.0,182.5,340.0,178.5,340.0,174.5,340.0,170.5,340.5,166.5,340.5,162.5,340.5,158.5,340.5,154.5,340.5,150.5,340.0,146.5,340.5,142.5,338.5,139.0" stroke="black" stroke-width="1" fill="none" />
<polyline points="340.5,132.5,335.5,135.0,338.5,139.5,339.0,143.5,339.0,147.5,338.5,151.5,338.5,155.5,338.5,159.5,338.0,163.5,338.5,167.5,338.0,171.5,338.5,175.5,338.5,179.5,338.5,183.5,338.5,187.5" stroke="black" stroke-width="1" fill="none" />
<polyline points="341.0,198.5,341.0,194.5,341.0,190.5,341.0,186.5,341.5,182.5,341.5,178.5,341.5,174.5,341.5,170.5,341.5,166.5,341.5,162.5,341.5,158.5,341.5,154.5,341.5,150.5,342.0,146.5" stroke="black" stroke-width="1" fill="none" />
<polyline points="259.5,143.5,260.0,147.5,260.0,151.5,260.0,155.5,260.0,159.5,260.0,163.5,259.5,167.5,260.0,171.5,260.0,175.5,259.5,179.5,259.5,183.5,259.5,187.5,259.5,191.5,259.5,195.5,259.0,199.5,259.0,203.5,259.5,207.5,259.0,211.5" stroke="black" stroke-width="1" fill="none" />
<polyline points="256.0,222.0,256.0,224.0,256.0,228.0,256.0,232.0,255.5,236.0,256.0,240.0,255.5,244.0,255.5,248.0" stroke="black" stroke-width="1" fill="none" />
<polyline points="257.0,262.5,257.0,258.5,257.0,254.5,257.0,250.5,257.0,246.5,257.5,242.5,257.5,238.5,257.5,234.5,257.5,230.5,257.5,226.5,257.5,222.5" stroke="black" stroke-width="1" fill="none" />
<polyline points="257.0,211.0,257.0,207.0,257.0,203.0,257.5,199.0,257.5,195.0,257.5,191.0,258.0,187.0,257.5,183.0,258.0,179.0,258.0,175.0,258.0,171.0,258.0,167.0,258.0,163.0,258.0,159.0,258.0,155.0,258.0,151.0,258.0,147.0,259.5,143.0" stroke="black" stroke-width="1" fill="none" />
<polyline points="254.5,135.5,258.5,132.5,262.5,132.0,266.5,132.0,270.5,132.5,274.5,132.5,278.5,132.5,282.5,132.5,286.5,132.5,290.5,132.5,294.5,132.5,298.5,132.5,302.5,132.5,306.5,133.0,310.5,133.0,314.5,133.0,318.5,133.0,322.5,133.0,326.5,133.0,330.5,133.5,334.5,134.0,338.5,133.5,342.5,132.5,346.5,132.5,350.5,132.5,354.5,132.5,358.5,132.5,362.5,133.0,366.5,133.0,370.5,133.0,374.5,133.0,378.5,133.0,382.5,133.0,386.5,133.0,390.5,133.5,394.5,133.0,398.5,133.5,402.5,133.5,406.5,133.5,410.5,133.5,414.5,133.5,418.5,134.0,422.5,135.0,426.5,134.0,430.5,133.5,434.5,134.0,438.5,134.0,442.5,134.0,446.5,134.0,450.5,134.0,454.5,134.5,458.5,134.0,462.5,134.5,466.5,134.5,470.5,134.5,474.5,134.5,478.5,135.0,482.5,135.0,486.5,135.0,490.5,135.0,494.5,135.0,498.5,135.5,502.5,136.5,506.5,140.0" stroke="black" stroke-width="1" fill="none" />
<polyline points="500.5,136.0,506.0,140.0,508.0,144.0,508.5,148.0,508.5,152.0,508.5,156.0,508.5,160.0,508.5,164.0,508.5,168.0,509.0,172.0,509.0,176.0,509.0,180.0,509.0,184.0,509.0,188.0,509.0,192.0,509.0,196.0,509.0,200.0,509.5,204.0,509.5,208.0,509.5,212.0,509.0,216.0,506.0,220.0,509.5,224.0,510.0,228.0,510.0,232.0,510.0,236.0,510.5,240.0,510.0,244.0,510.5,248.0,510.5,252.0,510.5,256.0,510.0,260.0,510.5,264.0,510.0,265.0" stroke="black" stroke-width="1" fill="none" />
</svg>