<svg xmlns="http://www.w3.org/2000/svg" height="383px" width="511px" version="1.1"><polyline points="300.5,81.0,298.0,85.0,301.0,81.0,305.0,80.5,309.0,80.5,313.0,80.5,317.0,80.5,321.0,80.5,325.0,80.5,329.0,80.5,333.0,80.5,337.0,80.5,341.0,80.5,345.0,80.5,349.0,80.5,353.0,80.5,357.0,80.5,361.0,80.0,365.0,80.5,369.0,80.0,373.0,80.0,377.0,80.0,381.0,80.0,385.0,80.0,389.0,80.0,393.0,80.0,397.0,80.0,401.0,81.0,405.0,82.5,409.0,81.0,413.0,81.0,417.0,81.0,421.0,81.0,425.0,81.0,429.0,81.0,433.0,81.0,437.0,81.0,441.0,81.0,445.0,81.0,449.0,81.0,453.0,81.0,457.0,81.0,461.0,81.5,465.0,81.5,469.0,81.5,473.0,81.5,477.0,81.5,481.0,81.5,485.0,81.5,489.0,81.5,493.0,81.5,497.0,82.5,501.0,84.5" stroke="black" stroke-width="1" fill="none" />
<polyline points="497.0,82.5,502.0,86.5,503.5,90.5,504.0,94.5,504.0,98.5,504.5,102.5,504.5,106.5,504.5,110.5,507.5,114.5,509.0,118.5,510.0,122.5,511.0,126.5,511.0,130.5,511.0,134.5,511.0,138.5,510.5,142.5,510.0,146.5,509.0,150.5,508.5,154.5,507.0,158.5,506.0,162.5,506.5,166.5,508.5,170.5" stroke="black" stroke-width="1" fill="none" />
<polyline points="510.5,172.0,506.5,166.5" stroke="black" stroke-width="1" fill="none" />
<polyline points="509.0,118.0,505.0,111.5" stroke="black" stroke-width="1" fill="none" />
<polyline points="409.0,107.5,408.5,103.5,408.5,99.5,408.5,95.5,408.0,91.5,408.0,87.5,408.0,85.5" stroke="black" stroke-width="1" fill="none" />
<polyline points="422.0,184.5,417.0,188.5,414.5,190.5,418.5,187.0,422.5,184.5,426.5,184.0,430.5,183.0,434.5,183.0,438.5,183.0,442.5,183.0,446.5,183.0,450.5,183.0,454.5,183.0,458.5,183.0,462.5,183.0,466.5,183.0,470.5,183.0,474.5,183.0,478.5,182.5,482.5,183.0,486.5,182.5,490.5,183.0,494.5,183.0,498.5,183.0,502.5,183.0,506.5,184.5" stroke="black" stroke-width="1" fill="none" />
<polyline points="425.0,187.5,420.0,191.5,416.0,195.5,412.5,199.5,412.0,200.0,416.0,195.5,420.0,191.5,424.0,188.0" stroke="black" stroke-width="1" fill="none" />
<polyline points="423.0,186.0,419.0,190.0,415.0,194.0,411.5,198.0,411.0,198.5,415.0,194.0,419.0,190.0,423.0,186.0" stroke="black" stroke-width="1" fill="none" />
<polyline points="316.0,188.0,312.0,189.5" stroke="black" stroke-width="1" fill="none" />
<polyline points="312.0,189.5,308.5,193.5,305.5,197.0,302.5,198.5,306.5,193.5,310.5,189.5,314.5,187.0,318.0,187.5" stroke="black" stroke-width="1" fill="none" />
<polyline points="306.0,195.5,310.0,192.5,313.0,189.5,309.5,190.5,305.5,194.5,302.5,198.5,301.5,202.5,301.0,206.5" stroke="black" stroke-width="1" fill="none" />
<polyline points="302.0,157.5,302.0,153.5,302.0,149.5,302.0,145.5,302.0,141.5,302.0,137.5,301.5,133.5,302.0,129.5,301.5,125.5,302.0,121.5,302.0,117.5,302.0,113.5,302.0,109.5,302.0,105.5,302.0,101.5,302.0,97.5,302.0,93.5,302.0,89.5,302.5,85.5,302.0,84.5" stroke="black" stroke-width="1" fill="none" />
<polyline points="226.0,91.5,222.0,92.0,218.0,92.5,214.0,92.5,209.0,92.5,205.0,93.0" stroke="black" stroke-width="1" fill="none" />
<polyline points="204.0,87.0,204.5,91.0,205.5,91.0,209.5,91.0,213.5,90.5,217.5,90.5,221.5,90.5" stroke="black" stroke-width="1" fill="none" />
<polyline points="204.0,87.0,208.0,89.0,212.0,88.5,216.0,89.0,220.0,89.0,224.0,89.0,228.0,89.0,232.0,89.0,236.0,89.0,240.0,88.5,244.0,89.0,248.0,88.5,252.0,88.5,256.0,88.5,260.0,88.5,264.0,88.5,268.0,88.5,272.0,89.0,276.0,89.0,280.0,88.5,284.0,89.0,288.0,88.0,292.0,89.0" stroke="black" stroke-width="1" fill="none" />
<polyline points="297.0,85.0,293.0,82.5,289.0,82.5,285.0,82.5,281.0,83.0,277.0,82.5,273.0,82.5,269.0,82.5,265.0,83.0,261.0,83.0,257.0,83.0,253.0,82.5,249.0,83.0,245.0,83.0,241.0,83.0,237.0,83.0,233.0,83.0,229.0,83.0,225.0,83.0,221.0,83.0,217.0,83.0,213.0,83.0,209.0,83.0,205.0,83.5,201.0,84.5,197.0,89.5" stroke="black" stroke-width="1" fill="none" />
<polyline points="195.0,90.0,197.5,88.5,197.0,92.5,197.0,96.5,197.0,100.5,197.0,104.5,197.0,108.5,197.0,112.5,197.0,116.5,197.0,120.5,197.0,124.5,196.5,128.5,196.5,132.5,196.5,136.5,196.5,140.5,196.5,144.5,196.5,148.5,196.5,152.5,196.5,156.5,196.5,160.5,196.5,164.5,196.5,168.5,196.5,172.5,196.5,176.5,196.5,180.5,197.0,183.5,202.0,187.5,206.0,187.5,210.0,187.5,215.0,189.5,219.0,189.0,224.5,189.5,228.5,189.0,232.5,189.5,236.5,189.5,240.5,189.5,244.5,189.5,248.5,189.5,252.5,189.5,256.5,189.5,260.5,189.5,264.5,189.5" stroke="black" stroke-width="1" fill="none" />
<polyline points="265.5,187.5,261.5,187.5,257.5,188.0,253.5,187.5,249.5,188.0,245.5,188.0,241.5,187.5,237.5,188.0,233.5,187.5,229.5,188.0,225.5,187.5,221.5,187.5,217.5,188.0,213.5,189.0,209.5,189.0,205.5,188.5,201.5,188.5" stroke="black" stroke-width="1" fill="none" />
<polyline points="200.5,190.5,200.5,194.5,200.5,198.5" stroke="black" stroke-width="1" fill="none" />
<polyline points="199.0,205.5,199.5,201.5,199.0,197.5,199.5,193.5,199.0,189.5" stroke="black" stroke-width="1" fill="none" />
<polyline points="193.0,189.0,197.0,185.0,195.0,191.0,194.5,195.0,195.0,199.0,195.0,203.0,194.5,207.0,194.5,211.0,194.5,215.0,194.5,219.0,194.5,223.0,194.5,227.0,194.5,231.0,194.5,235.0,194.5,239.0,194.5,243.0,194.5,247.0,194.5,251.0,194.5,255.0,194.5,259.0,194.5,263.0,194.5,267.0,194.5,271.0,194.5,275.0,194.5,279.0,194.5,283.0" stroke="black" stroke-width="1" fill="none" />
<polyline points="191.0,292.0,195.5,290.5,194.0,294.5,193.5,298.5,193.5,302.5,193.5,306.5,193.5,310.5,193.5,314.5,193.5,318.5,193.5,322.5,193.5,326.5,193.5,330.5,193.5,334.5,193.5,338.5,193.5,342.5,193.5,346.5,193.5,350.5,193.5,354.5,193.5,358.5,193.5,362.5,193.5,366.5,193.0,370.5,193.0,374.5,193.5,378.5,193.5,382.5" stroke="black" stroke-width="1" fill="none" />
<polyline points="198.5,296.0,202.5,293.5,206.5,294.0,210.5,294.0,214.5,294.0,218.5,294.5,222.5,294.0,226.5,294.5,230.5,294.5,234.5,294.5,238.5,294.5,242.5,294.5,246.5,294.5,250.5,295.0,254.5,294.5,258.5,295.0,262.5,295.0,266.5,294.5,270.5,294.5,274.5,294.0" stroke="black" stroke-width="1" fill="none" />
<polyline points="275.5,295.5,271.5,296.0,267.5,296.0,263.5,296.0,259.5,296.5,255.0,296.5,250.5,296.5,246.5,296.5,242.5,296.5,238.0,296.0,234.0,296.0,230.0,296.0,226.0,296.0,222.0,296.0,218.0,296.0,214.0,295.5,209.5,295.5,205.5,296.0,201.5,295.0" stroke="black" stroke-width="1" fill="none" />
<polyline points="300.5,307.0,300.5,311.0,301.0,308.5" stroke="black" stroke-width="1" fill="none" />
<polyline points="314.5,296.0,318.5,295.0,322.5,294.5,326.5,295.0,330.5,294.5,334.5,294.5,338.5,294.5,342.5,295.0,346.5,295.0,350.5,294.5,354.5,295.0,358.5,295.0,362.5,295.0,366.5,295.5,370.5,296.0" stroke="black" stroke-width="1" fill="none" />
<polyline points="416.5,302.0,413.0,304.5,412.5,305.0,417.0,301.5,420.0,297.5" stroke="black" stroke-width="1" fill="none" />
<polyline points="420.5,294.5,416.5,299.0,412.5,303.0,410.0,306.0,413.5,302.0,417.0,298.0,421.0,294.0" stroke="black" stroke-width="1" fill="none" />
<polyline points="316.5,293.5,312.5,295.0,310.0,300.5,307.0,303.0,311.5,299.0,314.0,295.5,315.0,293.5" stroke="black" stroke-width="1" fill="none" />
<polyline points="203.0,176.5,203.0,172.5,203.5,168.5,203.0,164.5" stroke="black" stroke-width="1" fill="none" />
<polyline points="202.0,155.5,202.0,159.5,202.0,163.5,202.0,167.5,202.0,171.5,201.5,175.5" stroke="black" stroke-width="1" fill="none" />
<polyline points="203.0,83.5,196.5,87.5,195.0,91.5,194.5,95.5,194.5,99.5,194.5,103.5,194.0,107.5,194.0,111.5,194.0,115.5,194.0,119.5,194.0,123.5,194.0,127.5,194.0,131.5,194.0,135.5,194.0,139.5,194.0,143.5,194.0,147.5,194.0,151.5,194.0,155.5,194.0,159.5,194.0,163.5,194.0,167.5,194.0,171.5,194.0,175.5,194.0,179.5,196.5,183.5,193.5,187.5,193.0,191.5,193.0,195.5,193.0,199.5,192.5,203.5,192.5,207.5,192.5,211.5,192.5,215.5,192.5,219.5,192.5,223.5,192.5,227.5,192.5,231.5,192.5,235.5,192.5,239.5,192.5,243.5,192.5,247.5,192.5,251.5,192.5,255.5,192.5,259.5,192.5,263.5,192.5,267.5,192.5,271.5,192.5,275.5,192.5,279.5,192.5,283.5,194.0,287.5,191.5,291.5,191.0,295.5,191.0,299.5,190.5,303.5,191.0,307.5,190.5,311.5,191.0,315.5,191.0,319.5,191.0,323.5,190.5,327.5,190.5,331.5,191.0,335.5,190.5,339.5,191.0,343.5,191.0,347.5,190.5,351.5,190.5,355.5,191.0,359.5,190.5,363.5,190.5,367.5,190.5,371.5,190.5,375.5,191.0,379.5" stroke="black" stroke-width="1" fill="none" />
</svg>