<svg xmlns="http://www.w3.org/2000/svg" height="496px" width="389px" version="1.1"><polyline points="183.5,118.5,177.5,122.5,171.5,126.5,167.5,130.5,161.5,134.5,158.0,138.5,154.0,142.5,150.0,146.5,146.5,150.5,143.0,154.5,141.0,158.5,138.5,162.5,136.5,166.5,134.5,170.5,132.5,174.5,131.0,178.5,129.0,182.5,128.5,186.5,127.0,190.5,126.5,194.5,125.0,198.5,125.0,202.5,124.5,206.5,124.5,210.5,125.0,214.5,124.5,218.5,125.0,222.5,126.5,226.5,126.5,230.5,126.5,234.5,128.5,238.5,130.5,242.5,131.0,246.5,132.5,250.5,134.5,254.5,136.5,258.5,138.5,262.5,141.0,266.5,144.5,270.5,147.0,274.5,149.0,278.5,153.0,282.5,156.5,286.5,152.5,290.5,148.5,294.5,142.5,298.5,138.5,302.5,135.0,306.5,132.5,310.5,130.5,314.5,126.5,318.5,124.5,322.5,122.0,326.5,120.0,330.5,118.0,334.5,116.0,338.5,114.5,342.5,112.5,346.5,112.0,350.5,110.5,354.5,110.5,358.5,108.5,362.5,108.5,366.5,108.5,370.5,108.5,374.5,108.5,378.5,108.5,382.5,108.5,386.5,108.5,390.5,110.5,394.5,110.5,398.5,112.0,402.5,112.5,406.5,114.5,410.5,116.5,414.5,118.0,418.5,120.0,422.5,122.0,426.5,124.0,430.5,126.5,434.5,129.0,438.5,132.0,440.5,134.5,444.5,138.5,448.5,142.5,452.5,146.5,456.5,150.5,460.5,156.5,464.5,162.0,468.5,170.0,472.5,173.5,476.0,177.5,478.0,181.5,478.0,185.0,480.0,185.0,481.5,189.5,482.0,189.5,483.5,193.5,484.0,197.0,485.5,201.0,486.0,205.0,489.5,209.0,489.5,213.5,489.5,217.5,489.5,221.0,491.5,225.0,492.0,229.0,492.0,233.0,492.0,236.5,494.0,240.5,493.5,244.5,494.0,248.5,493.5,252.5,493.5,256.5,493.5,260.5,493.5,264.5,492.0,268.5,492.0,272.5,491.5,276.5,492.0,280.5,489.5,284.5,490.0,288.5,487.5,292.5,488.0,296.5,485.5,300.5,485.5,304.5,483.5,308.5,482.0,312.5,480.0,316.5,477.5,320.5,477.5,324.5,474.0,328.5,472.0,332.5,469.5,336.5,467.5,340.5,464.0,344.5,461.5,348.5,457.5,352.5,453.0,356.5,451.0,360.5,447.0,364.5,441.5,368.5,435.5,372.5,431.5,376.5,425.5" stroke="black" stroke-width="1" fill="none" />
<polyline points="376.0,329.0,372.0,321.5,368.0,315.5,364.0,309.5,360.0,305.5,356.0,301.5,352.0,297.0,348.0,293.0,344.0,289.0" stroke="black" stroke-width="1" fill="none" />
<polyline points="343.5,287.5,347.5,281.5,351.5,277.5,355.0,271.5,359.0,266.0,363.0,260.0,367.0,252.0,370.5,244.5" stroke="black" stroke-width="1" fill="none" />
<polyline points="344.5,251.5,341.0,257.0,337.0,263.0,333.0,268.5,329.0,272.5,325.0,276.5,321.0,280.5,317.0,282.5" stroke="black" stroke-width="1" fill="none" />
<polyline points="321.0,299.0,325.0,301.5,329.0,303.5,333.0,307.5,337.0,311.5,341.0,315.5,345.0,319.5,349.0,323.5,353.0,330.0,357.0,338.0" stroke="black" stroke-width="1" fill="none" />
<polyline points="285.5,383.5,281.5,389.5,277.5,391.5,273.5,394.5,269.5,397.5,265.5,398.0,261.5,400.5,257.5,400.5,253.5,402.5,249.5,400.0,245.5,401.5,241.5,402.0,238.0,400.0,234.0,400.5,230.0,398.5,226.0,396.5,222.0,394.0,218.5,391.5,214.5,387.5,210.5,382.0" stroke="black" stroke-width="1" fill="none" />
<polyline points="226.5,368.5,230.5,374.5,234.5,378.5,238.5,380.5,242.5,382.5,246.5,382.5,250.5,382.5,254.5,382.5,258.5,380.5,262.5,377.0,266.5,373.0" stroke="black" stroke-width="1" fill="none" />
<polyline points="267.5,345.0,263.5,341.0,259.5,339.0,255.5,337.0,251.5,337.0,248.0,335.0,244.0,336.5,240.0,337.0,236.0,339.0,232.0,343.0,228.0,347.0" stroke="black" stroke-width="1" fill="none" />
<polyline points="236.0,339.0,232.0,343.0,228.0,347.0,226.0,351.0,226.0,355.0,224.0,359.0,225.5,363.0,226.0,367.0,229.0,371.0,231.0,375.0,237.0,379.0" stroke="black" stroke-width="1" fill="none" />
<polyline points="260.0,379.5,265.5,375.5,268.0,371.5,269.5,367.5,270.0,363.5,271.5,359.5,271.5,355.5,269.5,351.5,267.5,347.5,265.5,343.5,261.5,339.5" stroke="black" stroke-width="1" fill="none" />
<polyline points="271.0,321.5,277.5,325.5,281.5,329.5,284.0,333.5,287.5,337.5,289.0,341.5,289.5,345.5,291.0,349.5,291.0,353.5,291.0,357.5,291.0,361.5,291.0,365.5,291.0,369.5,289.5,373.5,288.0,377.5,286.0,381.5,283.5,385.5,281.5,389.5,275.5,393.5,269.5,397.5" stroke="black" stroke-width="1" fill="none" />
<polyline points="288.0,338.0,284.0,332.0,280.0,328.0,276.0,324.5,272.0,322.5,268.0,320.5,264.0,319.0,260.0,318.5,256.0,317.0,252.0,317.0,248.0,317.0,244.0,317.0,240.0,317.0,236.0,319.0,232.0,319.0,228.0,321.0,224.0,323.5,220.0,326.0,216.0,330.0,212.0,334.0,208.0,340.0" stroke="black" stroke-width="1" fill="none" />
<polyline points="227.5,321.0,220.5,325.0,216.5,329.0,212.5,333.0,210.5,337.0,208.0,341.0,206.0,345.0,206.0,349.0,204.0,353.0,204.0,357.0,204.0,361.0,204.0,365.0,206.0,369.0,206.5,373.0,208.0,377.0,210.0,381.0,214.0,385.0,216.0,389.0,222.0,393.0,227.5,397.0" stroke="black" stroke-width="1" fill="none" />
<polyline points="139.5,416.0,143.5,422.0,147.5,428.0,151.5,432.0,155.5,436.0,159.5,440.5,163.5,444.0,167.5,447.5,171.5,450.0,175.5,452.0,179.5,454.0,183.5,457.5,187.5,459.5,191.5,461.5,195.5,463.5,199.5,464.0,203.5,466.0,207.5,467.5,211.5,468.0,215.5,469.5,219.5,470.0,223.5,471.5,227.5,472.0,231.5,474.0,235.5,474.0,239.5,474.0,243.5,473.5,247.5,475.5,251.5,475.0,255.5,473.5,259.5,473.5,263.5,473.5,267.5,473.5,271.5,472.0,275.5,471.5,279.5,470.0,283.5,469.5,287.5,468.0,291.5,466.0,295.5,465.5,299.5,464.0,303.5,462.0,307.5,460.0,311.5,458.0,315.5,456.0,319.5,454.0,323.5,450.0,327.5,448.0,331.5,444.0,335.5,442.5,339.5,438.5,343.5,434.5,347.5,428.5,351.5,422.5,355.5,418.5" stroke="black" stroke-width="1" fill="none" />
<polyline points="321.0,479.0,317.0,480.0,313.0,481.5,308.0,483.5,303.0,485.5,298.0,488.0,293.0,489.5,289.0,489.5,284.0,491.5,280.0,492.0,275.0,493.5,271.0,494.0,267.0,493.5,262.0,495.5,258.0,495.5,254.0,495.5,250.0,495.5,246.0,495.5,242.0,496.0,238.0,495.5,234.0,495.0,229.0,493.5,225.0,493.5,221.0,493.5,216.0,491.5,212.0,491.5,208.0,487.5,204.0,488.0,200.0,487.5,196.0,487.5" stroke="black" stroke-width="1" fill="none" />
<polyline points="177.5,479.5,172.5,477.0,172.5,475.0,168.0,473.5,168.0,472.0,163.5,471.5,162.5,469.0,158.0,467.5,157.5,465.5,153.0,463.5,153.0,462.0,149.0,459.0,145.0,455.0,141.5,451.5,138.0,448.0,134.5,444.0,130.5,440.0,127.0,435.5" stroke="black" stroke-width="1" fill="none" />
<polyline points="137.0,341.0,141.0,335.0,145.0,327.0,149.0,323.5,153.0,317.5,157.0,313.5,161.0,309.5,165.0,305.5,169.0,303.5,173.0,299.5,177.0,297.5,181.0,293.5,185.0,289.5" stroke="black" stroke-width="1" fill="none" />
<polyline points="184.5,284.5,180.5,281.0,176.5,278.5,172.5,272.5,168.5,268.5,164.5,263.0,160.5,259.0" stroke="black" stroke-width="1" fill="none" />
<polyline points="137.0,260.5,141.0,266.5,145.0,272.5,149.0,278.5,153.0,282.5" stroke="black" stroke-width="1" fill="none" />
<polyline points="152.5,290.5,148.5,294.5,144.5,296.5,140.5,300.5,136.5,304.5,132.5,310.5,128.5,316.5,124.5,321.0" stroke="black" stroke-width="1" fill="none" />
<polyline points="220.5,245.0,224.5,251.5,228.5,253.5,232.5,257.5,236.5,259.5,240.5,259.5,244.5,261.5,248.5,261.5,252.5,261.5,256.5,261.5,260.5,261.5,264.5,262.0,268.5,260.0,272.5,259.5,276.5,256.0,280.5,254.0,284.5,250.0,288.5,246.0,291.5,236.0" stroke="black" stroke-width="1" fill="none" />
<polyline points="293.0,229.0,294.5,224.0" stroke="black" stroke-width="1" fill="none" />
<polyline points="270.0,234.0,266.0,238.0,262.0,241.5,258.0,242.0,254.0,243.5,250.0,241.5,246.0,241.0,242.0,239.0,238.0,235.0" stroke="black" stroke-width="1" fill="none" />
<polyline points="238.0,208.0,242.0,204.5,246.0,200.5,250.0,200.5,254.0,198.5,258.0,200.5,262.0,201.5,266.0,203.5,270.0,207.5,273.0,214.0" stroke="black" stroke-width="1" fill="none" />
<polyline points="265.5,203.0,269.5,207.0,272.0,211.0,273.5,215.0,273.5,219.0,273.5,223.0,273.5,227.0,271.5,231.0,269.5,235.0,265.5,239.0" stroke="black" stroke-width="1" fill="none" />
<polyline points="293.0,206.5,289.0,201.0,286.0,195.5,282.0,189.5,278.0,187.5,274.0,184.0,270.0,182.0,266.0,182.0,262.0,180.5,258.0,180.5,254.0,180.5,250.0,180.5,246.0,180.5,242.0,182.0,238.0,182.0,234.0,184.5,230.0,188.0,226.0,190.5,222.0,195.5,218.0,201.5" stroke="black" stroke-width="1" fill="none" />
<polyline points="237.0,182.0,233.0,186.0,227.0,190.0,223.0,194.0,221.5,198.0,218.0,202.0,216.0,206.0,216.0,210.0,214.0,214.0,214.0,218.0,214.0,222.0,214.0,226.0,214.0,230.0,216.0,234.0,217.5,238.0,219.5,242.0,221.5,246.0,223.5,250.0,229.0,254.0,235.0,258.0" stroke="black" stroke-width="1" fill="none" />
<polyline points="245.0,240.0,239.0,236.0,237.0,232.0,236.0,228.0,236.0,224.0,234.0,220.0,236.0,216.0,236.0,212.0,238.0,208.0,243.0,204.0,247.0,200.0" stroke="black" stroke-width="1" fill="none" />
<polyline points="275.0,184.5,281.0,188.5,285.0,192.5,287.0,196.5,289.5,200.5,291.5,204.5,293.5,208.5,293.0,212.5,295.0,216.5,293.5,220.5,295.0,224.5,293.5,228.5,293.5,232.5,291.5,236.5,291.0,240.5,289.0,244.5,286.0,248.5,282.0,252.5,276.0,256.5,268.0,260.0" stroke="black" stroke-width="1" fill="none" />
<polyline points="347.0,176.5,343.0,170.5,339.0,164.5,335.0,158.5,331.0,156.0,327.0,152.5,323.0,148.5,319.0,145.0,315.0,143.0,311.0,140.5,307.0,137.0,303.0,135.0,299.0,133.0,295.0,132.5,291.0,130.5,287.0,128.5,283.0,127.0,279.0,126.5,275.0,125.0,271.0,125.0,267.0,123.0,263.0,123.0,259.0,123.0,255.0,122.5,251.0,121.0,247.0,122.5,243.0,122.5,239.0,122.5,235.0,123.0,231.0,124.5,227.0,125.0,223.0,125.0,219.0,126.5,215.0,129.0,211.0,129.0,207.0,130.5,203.0,133.0,199.0,135.0,195.0,136.5,191.0,139.0,187.0,141.0,183.0,145.0,179.0,147.0,175.0,150.5,171.0,154.5,167.0,158.5,163.0,162.5,159.0,168.5" stroke="black" stroke-width="1" fill="none" />
<polyline points="138.5,161.5,142.5,155.5,146.5,149.5,150.5,146.0,154.5,142.0,158.5,138.0,162.5,133.0,166.5,131.0,170.5,127.0,174.5,125.0,178.5,122.5,182.5,119.0,186.5,117.0,189.0,116.5,193.0,114.5,197.0,113.0,201.0,111.0,205.0,110.5,209.0,108.5,213.0,108.5,217.0,106.5,221.0,107.0,225.0,104.5,229.0,104.5,233.0,104.5,237.0,104.5,241.0,103.0,245.0,102.5,249.0,102.5,253.0,102.5,257.0,102.5,261.0,102.5,265.0,104.5,269.0,104.5,273.0,104.5,277.0,105.0,281.0,106.5,285.0,107.0,289.0,108.5,293.0,109.0,297.0,110.5,301.0,112.5,305.0,114.5,309.0,116.5,313.0,117.0,317.0,119.0,320.5,122.5,324.5,125.0,328.5,127.0,332.5,130.5,336.5,133.0,340.5,137.0,344.5,141.0,348.5,145.0,352.5,148.5,356.5,154.5,360.5,160.5,363.5,166.0,367.5,174.0" stroke="black" stroke-width="1" fill="none" />
<polyline points="306.5,137.0,312.5,141.0,318.5,145.0,323.0,149.0,327.0,153.0,333.0,157.0,335.5,161.0,339.0,165.0,341.0,169.0,343.5,173.0,347.0,177.0,347.0,181.0,349.0,185.0,351.0,189.0,352.5,193.0,353.0,197.0,353.0,201.0,355.0,205.0,355.0,209.0,355.0,213.0,355.0,217.0,355.0,221.0,353.0,225.0,352.5,229.0,352.5,233.0,351.0,237.0,349.0,241.0,347.0,245.0,347.0,249.0,343.0,253.0,341.0,257.0,339.0,261.0,335.0,265.0,332.5,269.0,328.5,273.0,324.5,277.0,318.5,281.0,317.0,285.0,317.0,289.0,317.0,293.0,317.5,297.0,323.5,301.0,329.5,305.0,333.5,309.0,337.5,313.0,341.5,317.0,345.5,321.0,349.0,325.0,352.0,329.0,354.5,333.0,356.5,337.0,358.5,341.0,360.5,345.0,362.0,349.0,362.5,353.0,364.5,357.0,364.5,361.0,366.5,365.0,366.5,369.0,366.5,373.0,366.5,377.0,366.5,381.0,366.5,385.0,365.0,389.0,365.0,393.0,364.5,397.0,363.0,401.0,360.5,405.0,359.0,409.0,357.0,413.0,356.5,417.0,353.0,421.0,351.5,425.0,347.5,429.0,345.5,433.0,341.5,437.0,337.5,441.0,331.0,445.0,327.0,449.0,321.0,453.0,315.0,457.0" stroke="black" stroke-width="1" fill="none" />
<polyline points="190.5,461.0,182.5,457.0,176.5,453.0,170.5,449.0,164.5,445.0,160.0,441.0,156.5,437.0,152.5,433.0,148.5,429.0,146.5,425.0,143.0,421.0,140.5,417.0,139.0,413.0,137.0,409.0,134.5,405.0,134.5,401.0,133.0,397.0,131.0,393.0,130.5,389.0,130.5,385.0,129.0,381.0,129.0,377.0,129.0,373.0,129.0,369.0,131.0,365.0,131.0,361.0,133.0,357.0,133.0,353.0,135.0,349.0,137.0,345.0,137.0,341.0,141.0,337.0,143.0,333.0,145.0,329.0,147.0,325.0,151.0,321.0,154.0,317.0,158.0,313.0,161.5,309.0,167.5,305.0,171.5,301.0,177.5,297.0,181.5,293.0,185.5,289.0,184.5,285.0,178.5,281.0,174.5,277.0,172.5,273.0,168.5,269.0,164.5,265.0,162.5,261.0,160.0,257.0,157.0,253.0,155.0,249.0,153.0,245.0,152.5,241.0,150.5,237.0,149.0,233.0,147.0,229.0,147.0,225.0,146.5,221.0,145.0,217.0,145.0,213.0,146.5,209.0,146.5,205.0,147.0,201.0,148.5,197.0,149.0,193.0,151.0,189.0,151.0,185.0,153.0,181.0,155.0,177.0,157.0,173.0,159.0,169.0,162.5,165.0,164.5,161.0,168.5,157.0,172.5,153.0,176.5,149.0,180.5,145.0,186.5,141.0,192.5,137.0" stroke="black" stroke-width="1" fill="none" />
<polyline points="316.5,119.0,322.5,123.0,328.5,127.0,334.5,131.0,338.5,135.0,342.5,139.0,346.5,143.0,350.5,147.0,354.5,151.0,356.5,155.0,358.5,159.0,362.5,163.0,364.5,167.0,366.5,171.0,368.5,175.0,368.5,179.0,371.0,183.0,372.5,187.0,373.0,191.0,374.5,195.0,374.5,199.0,374.5,203.0,374.5,207.0,374.5,211.0,374.5,215.0,374.5,219.0,375.0,223.0,374.5,227.0,374.5,231.0,372.5,235.0,373.0,239.0,371.0,243.0,368.5,247.0,368.5,251.0,366.5,255.0,364.5,259.0,362.5,263.0,359.0,267.0,356.0,271.0,354.0,275.0,350.5,279.0,347.5,283.0,344.5,287.0,345.5,291.0,349.5,295.0,353.0,299.0,357.0,303.0,361.0,307.0,364.5,311.0,367.0,315.0,369.0,319.0,372.5,323.0,374.5,327.0,378.0,331.0,379.0,335.0,381.0,339.0,383.0,343.0,384.0,347.0,385.0,351.0,384.5,355.0,387.0,359.0,387.0,363.0,387.0,367.0,389.0,371.0,387.0,375.0,387.0,379.0,388.0,383.0,387.0,387.0,386.5,391.0,386.5,395.0,385.0,399.0,384.5,403.0,383.0,407.0,381.0,411.0,379.0,415.0,379.0,419.0,377.0,423.0,375.0,427.0,373.0,431.0,369.0,435.0,367.0,439.0,363.0,443.0,360.5,447.0,356.5,451.0,351.5,454.5,347.5,458.5,343.5,462.5,337.5,466.0,332.5,469.5,327.0,473.0,321.5,476.5,326.0,475.5,331.0,473.0" stroke="black" stroke-width="1" fill="none" />
</svg>