<svg xmlns="http://www.w3.org/2000/svg" height="383px" width="416px" version="1.1"><polyline points="150.5,0.0,150.0,4.0,149.0,8.0,149.0,12.0,150.5,16.0,150.5,20.0,149.5,24.0,148.5,28.0,149.5,32.0,150.0,36.0,150.5,40.0,151.0,44.0,151.0,48.0,153.0,52.0,154.5,56.0,160.5,60.0,168.0,64.0,173.0,68.0,177.0,72.0,180.0,76.0,182.5,80.0,184.5,84.0,187.0,88.0,188.5,92.0" stroke="black" stroke-width="1" fill="none" />
<polyline points="189.5,86.5,193.5,80.5,197.5,78.0,201.5,76.5,205.5,75.0,209.5,73.5,213.5,72.5,217.5,71.5,221.5,71.0,225.5,70.5,229.5,69.5,233.5,68.0,237.5,66.0,241.5,64.0,245.5,62.5,249.5,63.0,253.5,64.0,257.5,66.0,261.5,69.0,265.5,75.0,269.5,74.5,273.5,72.5,277.5,71.0,281.5,70.5,285.0,71.0,289.0,70.5,293.0,70.0,297.0,69.0,301.0,69.5,305.0,68.5,308.0,69.5,312.0,69.0,316.0,67.5,320.0,67.5,324.0,66.0" stroke="black" stroke-width="1" fill="none" />
<polyline points="324.5,68.0,317.5,69.0,311.5,68.0,307.5,67.0,303.5,67.5" stroke="black" stroke-width="1" fill="none" />
<polyline points="301.0,66.0,305.0,66.0,309.0,66.0,313.0,65.5,317.0,65.5,321.0,64.0" stroke="black" stroke-width="1" fill="none" />
<polyline points="317.0,61.0,321.0,61.5,325.0,62.5,329.0,63.5,333.0,64.5,337.0,66.5,339.5,70.5,343.5,72.5,347.5,74.0" stroke="black" stroke-width="1" fill="none" />
<polyline points="345.5,73.0,347.5,78.0,354.5,82.0,359.5,84.0,359.5,88.5,359.5,92.5" stroke="black" stroke-width="1" fill="none" />
<polyline points="362.0,91.0,363.0,95.5" stroke="black" stroke-width="1" fill="none" />
<polyline points="369.0,98.0,373.5,102.0,377.5,107.5" stroke="black" stroke-width="1" fill="none" />
<polyline points="381.5,105.5,385.5,105.5,389.0,108.5" stroke="black" stroke-width="1" fill="none" />
<polyline points="390.5,106.0,386.5,97.5,382.5,94.0,378.5,90.5,374.5,88.0,370.5,86.5,366.5,83.5,362.5,80.5,358.5,78.0,354.5,75.0,350.5,73.0,346.5,70.5,342.5,68.5,337.0,69.0,333.0,68.5" stroke="black" stroke-width="1" fill="none" />
<polyline points="332.0,64.5,340.5,68.0,340.5,72.0,341.5,73.5,336.0,75.0,335.5,77.5,330.0,81.5,329.5,82.0,333.5,79.5,334.5,76.5,338.5,73.5,343.0,74.5,347.0,77.5,351.0,79.5,355.0,81.0,359.0,83.5,366.0,85.5,371.5,89.5,376.0,95.0,380.0,94.5,381.5,98.5,382.5,99.5" stroke="black" stroke-width="1" fill="none" />
<polyline points="378.5,93.5,374.5,89.0" stroke="black" stroke-width="1" fill="none" />
<polyline points="373.0,92.5,378.5,96.5,377.0,98.5" stroke="black" stroke-width="1" fill="none" />
<polyline points="375.5,109.5,371.5,107.0,367.5,105.5" stroke="black" stroke-width="1" fill="none" />
<polyline points="367.5,105.5,370.5,109.5,377.5,110.5" stroke="black" stroke-width="1" fill="none" />
<polyline points="382.5,115.0,386.5,115.5,390.5,117.0,396.0,117.0" stroke="black" stroke-width="1" fill="none" />
<polyline points="398.0,122.5,397.0,126.5,395.0,130.5,393.5,134.5,393.5,137.5,397.5,136.5,401.5,134.0" stroke="black" stroke-width="1" fill="none" />
<polyline points="400.5,130.5,401.0,134.5,400.0,137.5,397.5,140.5,391.5,146.5,393.0,150.5,390.5,150.5,388.5,154.5,390.5,155.0,388.5,159.5,389.5,160.0,393.0,166.5,390.0,171.0,393.5,172.5,395.0,175.0,395.5,177.0,399.5,179.0,403.5,179.5,405.5,180.0,408.5,180.5,409.0,177.0,411.5,177.0,413.5,172.0,415.0,174.5" stroke="black" stroke-width="1" fill="none" />
<polyline points="412.0,175.0,410.5,179.0,409.0,183.0,408.5,184.0,408.0,187.0" stroke="black" stroke-width="1" fill="none" />
<polyline points="413.5,180.0,412.0,181.5,413.5,182.0,414.5,186.0,413.5,190.0,414.0,192.5,413.0,196.5,412.5,200.5,413.0,204.5,410.5,204.0,412.5,206.0" stroke="black" stroke-width="1" fill="none" />
<polyline points="411.5,207.5,409.5,203.5,409.5,202.0" stroke="black" stroke-width="1" fill="none" />
<polyline points="406.0,203.5,405.5,203.5,405.5,207.5,409.5,207.5,410.5,211.0,410.5,215.0,407.0,216.5,409.0,217.5,408.0,221.5,408.0,222.0,406.0,226.0,404.0,230.0,403.0,234.0,400.5,238.0,398.5,242.0,398.0,243.5,398.5,247.5" stroke="black" stroke-width="1" fill="none" />
<polyline points="397.0,246.5,397.5,250.5" stroke="black" stroke-width="1" fill="none" />
<polyline points="388.5,258.5,390.5,263.5,391.0,267.5,390.0,271.5,388.5,273.0" stroke="black" stroke-width="1" fill="none" />
<polyline points="386.5,270.0,385.5,266.0" stroke="black" stroke-width="1" fill="none" />
<polyline points="379.5,269.0,373.0,263.0" stroke="black" stroke-width="1" fill="none" />
<polyline points="367.5,260.5,371.5,253.0,375.0,248.0,374.5,252.0,373.5,256.0,374.0,260.0,373.0,264.0,375.0,268.0,374.5,272.0,373.0,273.0,374.5,275.5,374.0,279.5,374.0,283.5,372.0,287.5" stroke="black" stroke-width="1" fill="none" />
<polyline points="367.0,288.5,367.0,292.5,366.0,296.5,361.5,300.5,365.5,297.0" stroke="black" stroke-width="1" fill="none" />
<polyline points="364.0,294.0,362.5,294.0,361.0,294.0" stroke="black" stroke-width="1" fill="none" />
<polyline points="361.0,292.5,358.5,296.5,356.5,300.5,352.0,301.0,355.5,299.0" stroke="black" stroke-width="1" fill="none" />
<polyline points="351.0,293.5,347.0,301.0,343.0,304.5,341.0,305.5,341.5,310.0,337.5,312.0,333.5,313.0,332.5,309.5,328.5,309.5,324.5,309.0,320.5,309.0,316.5,309.0,315.0,304.5,314.5,303.5,310.5,304.0,305.5,304.0,307.0,302.0,303.0,300.5,300.0,299.0,296.0,300.5,292.0,299.0,288.0,296.0,285.5,291.0,283.0,292.5,279.0,291.5,276.5,290.0,272.5,289.5,268.5,291.5,264.5,296.0,260.5,299.0,256.5,298.5,252.5,295.5,252.5,292.5,248.5,289.5,244.5,287.0,240.5,284.5,238.5,286.5,243.5,278.5,246.0,274.5,245.5,270.5,242.0,271.0,238.0,270.5,234.0,266.5" stroke="black" stroke-width="1" fill="none" />
<polyline points="234.0,266.5,234.0,270.5,235.0,274.5,238.5,278.5,238.5,284.5,239.0,286.0,244.5,287.0,249.5,291.0,252.0,295.0,253.5,298.0,254.0,298.5,256.5,300.5" stroke="black" stroke-width="1" fill="none" />
<polyline points="264.5,296.0,267.0,292.0,266.5,296.5" stroke="black" stroke-width="1" fill="none" />
<polyline points="253.0,290.5,255.0,286.5" stroke="black" stroke-width="1" fill="none" />
<polyline points="248.5,282.0,247.5,284.5,249.0,280.5" stroke="black" stroke-width="1" fill="none" />
<polyline points="242.5,279.0,238.5,278.0,234.5,272.5" stroke="black" stroke-width="1" fill="none" />
<polyline points="230.5,268.5,230.0,272.5,230.5,276.5,231.5,279.5,231.5,279.5,233.5,283.5,237.5,284.0,241.5,281.0" stroke="black" stroke-width="1" fill="none" />
<polyline points="237.0,279.5,230.5,283.0,226.5,283.5,222.5,283.5,218.5,284.0,214.5,285.0,210.5,286.0,206.5,287.0,202.5,288.0,198.5,289.0,194.5,290.0,190.5,290.5,186.5,290.5,182.5,290.5,178.5,290.0,174.5,288.5,170.5,287.0,166.5,284.5,162.5,282.0,158.5,279.5,154.5,278.0,150.5,276.0,146.5,274.5,142.5,272.0,138.5,270.5,134.5,268.0,130.5,266.0,126.5,264.0,122.5,264.5" stroke="black" stroke-width="1" fill="none" />
<polyline points="117.0,260.0,121.0,261.0,122.5,265.0,122.0,269.0,122.0,273.0,121.5,277.0,120.0,281.0,119.0,285.0,118.0,289.0,117.0,293.0,116.0,297.0,115.0,301.0,114.0,305.0,113.5,309.0,113.5,313.0,112.5,317.0,110.5,321.0,108.0,325.0,105.0,329.0,101.0,333.0,97.5,337.0,93.0,341.0,87.0,345.0,78.5,349.0,67.5,353.0,60.0,357.0,53.0,361.0,45.0,365.0,35.5,369.0,28.0,373.0" stroke="black" stroke-width="1" fill="none" />
<polyline points="22.0,374.5,11.0,378.5,1.5,382.5,3.0,382.0,7.0,380.5,11.0,378.5,15.0,377.0,19.0,375.5,23.0,374.5,27.0,373.5,31.0,371.5,35.0,369.5,39.0,367.5,43.0,366.0,47.0,364.0,51.0,362.0,55.0,360.0,59.0,358.0,63.0,355.5,67.0,353.5,71.0,352.0,75.0,351.0,79.0,349.0,83.0,347.0,87.0,345.0,91.0,342.5,95.0,339.0,99.0,335.0,103.0,331.5,107.0,326.0,111.0,320.0" stroke="black" stroke-width="1" fill="none" />
<polyline points="140.0,271.0,146.5,275.0,157.0,279.0,163.5,283.0,170.0,287.0" stroke="black" stroke-width="1" fill="none" />
<polyline points="171.0,267.5,175.0,269.0,179.0,268.0,183.0,267.0,187.0,265.5,191.0,264.0,195.0,263.0,183.5,266.5" stroke="black" stroke-width="1" fill="none" />
<polyline points="169.0,239.5,167.0,243.0,169.5,239.0,170.0,235.0,170.0,231.0,168.0,227.0,167.5,225.5" stroke="black" stroke-width="1" fill="none" />
<polyline points="172.0,212.0,168.0,214.5,164.0,217.0,160.5,219.5,165.5,215.5,172.5,211.5" stroke="black" stroke-width="1" fill="none" />
<polyline points="234.0,184.0,238.0,189.5,242.0,191.5,246.0,191.5,246.5,194.0,244.5,198.0,244.0,202.0" stroke="black" stroke-width="1" fill="none" />
<polyline points="244.5,198.0,241.0,204.0,241.5,204.5,238.0,200.5,235.5,196.0,235.0,192.0,235.5,188.0,234.0,184.0,235.0,180.0,237.0,176.0,235.0,179.0" stroke="black" stroke-width="1" fill="none" />
<polyline points="265.0,154.5,261.5,153.0,257.5,149.5,253.5,144.5" stroke="black" stroke-width="1" fill="none" />
<polyline points="253.5,144.5,256.5,148.5,260.0,152.5,264.5,154.5,266.5,158.5,269.5,162.5,270.0,166.5,271.5,168.0,273.0,172.0,274.5,173.0,274.5,177.0,276.5,181.5,276.0,185.5,274.5,189.5,277.0,189.5,281.0,185.5" stroke="black" stroke-width="1" fill="none" />
<polyline points="281.5,182.0,281.0,186.0,278.5,190.0,277.5,194.0,277.5,196.5,276.5,200.5,276.0,204.5,277.0,211.0,274.0,215.0,272.5,219.0,271.5,219.5,275.5,212.5" stroke="black" stroke-width="1" fill="none" />
<polyline points="274.5,199.5,278.5,196.5,277.0,200.0,276.5,200.5,280.5,197.0" stroke="black" stroke-width="1" fill="none" />
<polyline points="276.5,179.5,278.0,177.0,275.0,172.5,274.0,170.5" stroke="black" stroke-width="1" fill="none" />
<polyline points="277.0,127.0,281.0,126.0" stroke="black" stroke-width="1" fill="none" />
<polyline points="283.0,111.5,287.0,110.0" stroke="black" stroke-width="1" fill="none" />
<polyline points="294.0,91.0,298.0,93.0,302.0,95.0" stroke="black" stroke-width="1" fill="none" />
<polyline points="298.5,93.5,293.0,88.5,289.0,87.5" stroke="black" stroke-width="1" fill="none" />
<polyline points="289.0,82.5,293.0,83.0,297.0,82.5" stroke="black" stroke-width="1" fill="none" />
<polyline points="295.5,74.0,299.5,75.5,307.0,74.5" stroke="black" stroke-width="1" fill="none" />
<polyline points="307.0,70.5,303.0,70.5" stroke="black" stroke-width="1" fill="none" />
<polyline points="307.0,74.0,303.0,72.0,299.0,73.0,295.0,71.5" stroke="black" stroke-width="1" fill="none" />
<polyline points="295.0,71.5,300.0,74.0" stroke="black" stroke-width="1" fill="none" />
<polyline points="295.5,78.0,291.5,75.0,287.5,75.5,283.5,73.5" stroke="black" stroke-width="1" fill="none" />
<polyline points="262.5,76.5,258.5,78.5,257.5,79.5,263.5,75.5,262.5,71.5,259.5,67.5,251.0,63.5" stroke="black" stroke-width="1" fill="none" />
<polyline points="242.5,63.0,235.5,67.0" stroke="black" stroke-width="1" fill="none" />
<polyline points="239.0,84.5,239.5,86.0,239.0,90.0" stroke="black" stroke-width="1" fill="none" />
<polyline points="236.5,96.0,233.0,98.0,229.0,99.0" stroke="black" stroke-width="1" fill="none" />
<polyline points="238.0,91.0,234.0,92.0,230.0,90.5,226.0,89.5,222.0,89.0,216.5,89.5,217.5,85.5,217.5,85.5" stroke="black" stroke-width="1" fill="none" />
<polyline points="216.0,75.0,212.0,77.0,208.0,82.5,210.0,79.0,214.5,75.0" stroke="black" stroke-width="1" fill="none" />
<polyline points="212.0,72.5,201.0,76.5,193.5,80.5,190.5,84.5,189.5,88.5,190.5,92.5" stroke="black" stroke-width="1" fill="none" />
<polyline points="191.5,96.0,187.5,88.0,183.5,82.5,179.5,74.5,175.5,70.0,171.5,66.5,167.5,63.5,163.5,61.0,159.5,59.0,155.5,57.0,151.5,49.0" stroke="black" stroke-width="1" fill="none" />
<polyline points="155.0,73.5,165.5,77.5,173.5,81.5,179.5,85.5,183.5,89.5,186.0,93.5" stroke="black" stroke-width="1" fill="none" />
<polyline points="185.5,95.5,181.5,95.5,177.5,95.0,173.5,95.0,169.5,95.0,165.5,95.0,161.5,95.0,157.5,95.0,153.5,95.0,149.5,95.5" stroke="black" stroke-width="1" fill="none" />
<polyline points="152.0,89.5,148.0,91.0,144.0,90.5,142.5,90.5,138.5,91.0,134.5,91.5,130.5,92.0,128.0,92.0,124.0,93.5,120.0,96.5,116.0,100.0,112.0,103.5,115.0,100.0,118.0,98.0,118.5,94.0,120.5,95.0,116.5,93.0" stroke="black" stroke-width="1" fill="none" />
<polyline points="119.5,85.5,123.5,82.0,127.5,81.0" stroke="black" stroke-width="1" fill="none" />
<polyline points="119.5,80.5,113.5,83.5" stroke="black" stroke-width="1" fill="none" />
<polyline points="111.5,82.0,108.0,85.0" stroke="black" stroke-width="1" fill="none" />
<polyline points="105.5,88.0,101.5,88.0" stroke="black" stroke-width="1" fill="none" />
<polyline points="104.0,85.5,99.5,84.0,95.5,85.0,91.0,85.0,87.0,87.0,83.0,91.0" stroke="black" stroke-width="1" fill="none" />
<polyline points="80.0,91.0,76.0,92.0" stroke="black" stroke-width="1" fill="none" />
<polyline points="75.0,91.0,77.0,93.5,71.5,97.5,68.5,99.5,73.0,102.5,75.5,105.0,78.5,109.0,78.0,112.0" stroke="black" stroke-width="1" fill="none" />
<polyline points="79.5,109.5,75.5,105.0,78.5,99.5,77.0,95.5,77.0,95.0" stroke="black" stroke-width="1" fill="none" />
<polyline points="72.5,96.5,76.5,94.0,80.5,95.0,84.5,96.0,85.5,93.5,87.5,91.5,91.5,90.0,94.5,88.5,98.5,87.0,102.5,84.5,106.5,84.5,110.5,82.5,114.0,80.0" stroke="black" stroke-width="1" fill="none" />
<polyline points="107.0,77.5,106.0,81.5,107.0,86.0,103.0,89.5,105.5,93.0,103.0,93.0,104.5,94.0" stroke="black" stroke-width="1" fill="none" />
<polyline points="98.5,95.0,94.5,91.5" stroke="black" stroke-width="1" fill="none" />
<polyline points="94.0,91.0,98.5,95.0,101.0,99.0" stroke="black" stroke-width="1" fill="none" />
<polyline points="103.0,91.0,99.0,90.0,95.5,89.5,91.5,92.0,89.5,97.0,89.5,92.0,95.0,89.5,98.0,89.5" stroke="black" stroke-width="1" fill="none" />
<polyline points="89.5,85.0,85.0,89.0,84.0,93.0,84.0,97.0,83.0,102.0,79.5,101.0,82.0,103.0" stroke="black" stroke-width="1" fill="none" />
<polyline points="79.0,102.0,84.0,99.5,82.0,95.5" stroke="black" stroke-width="1" fill="none" />
<polyline points="90.0,96.5,85.0,97.5,81.5,97.5,78.0,100.0,74.0,100.0" stroke="black" stroke-width="1" fill="none" />
<polyline points="71.5,106.5,70.0,104.5,68.5,99.5,67.5,96.5,67.0,95.0,63.0,97.5,61.5,92.0,61.0,90.0" stroke="black" stroke-width="1" fill="none" />
<polyline points="58.5,85.0,59.5,87.0,60.0,91.0,60.5,95.0,62.5,98.5,64.5,102.5,64.0,106.5,65.0,110.5,63.0,114.0,65.5,118.0,70.5,119.5,74.5,124.0" stroke="black" stroke-width="1" fill="none" />
<polyline points="67.5,124.5,68.0,127.5" stroke="black" stroke-width="1" fill="none" />
<polyline points="63.5,128.0,67.5,133.0" stroke="black" stroke-width="1" fill="none" />
<polyline points="68.0,136.5,64.0,132.5,64.0,128.5,61.5,124.5,62.5,120.5,65.0,114.5,67.0,110.0,65.0,106.0,65.0,100.0" stroke="black" stroke-width="1" fill="none" />
<polyline points="65.5,95.0,64.5,99.0,66.5,102.5,68.0,105.5,68.5,109.5,70.0,111.5,76.5,111.5" stroke="black" stroke-width="1" fill="none" />
<polyline points="70.0,110.5,66.0,105.5" stroke="black" stroke-width="1" fill="none" />
<polyline points="65.0,106.0,70.0,107.5,71.0,111.5" stroke="black" stroke-width="1" fill="none" />
<polyline points="63.5,114.5,67.5,117.5,71.5,120.5" stroke="black" stroke-width="1" fill="none" />
<polyline points="63.5,125.5,64.0,132.0,68.0,135.5" stroke="black" stroke-width="1" fill="none" />
<polyline points="66.0,139.5,62.0,138.0" stroke="black" stroke-width="1" fill="none" />
<polyline points="63.0,137.0,61.5,137.0,61.5,135.0" stroke="black" stroke-width="1" fill="none" />
<polyline points="61.0,140.5,61.0,144.5,61.5,148.5,63.5,149.5,65.5,151.5" stroke="black" stroke-width="1" fill="none" />
<polyline points="67.0,148.0,63.0,149.0,63.0,147.0" stroke="black" stroke-width="1" fill="none" />
<polyline points="61.5,147.0,65.5,146.5,69.5,149.0,73.5,143.0,77.5,137.0,81.5,131.0,85.5,125.5,89.5,120.5,93.5,118.5,97.5,116.0,101.5,112.0,105.5,109.0,106.5,108.0,101.5,112.0,96.5,116.0,92.0,119.5,87.5,123.5,84.0,127.5,81.0,131.5,78.5,135.5,76.5,139.5,73.5,143.5,70.5,147.5,68.0,151.5,65.5,155.5,62.5,159.5,61.5,163.5,61.0,167.5,60.5,171.5,60.0,174.5,63.0,178.5,63.5,182.5,62.0,186.5,60.5,190.5,56.5,197.5" stroke="black" stroke-width="1" fill="none" />
<polyline points="50.5,197.0,54.5,205.5,58.5,211.5,62.5,217.5" stroke="black" stroke-width="1" fill="none" />
<polyline points="76.0,209.5,80.0,210.5" stroke="black" stroke-width="1" fill="none" />
<polyline points="82.0,208.0,78.0,208.5,77.0,205.0" stroke="black" stroke-width="1" fill="none" />
<polyline points="80.5,202.0,84.5,203.0" stroke="black" stroke-width="1" fill="none" />
<polyline points="84.0,201.5,80.0,200.5" stroke="black" stroke-width="1" fill="none" />
<polyline points="79.5,200.0,83.5,199.0,85.0,195.5" stroke="black" stroke-width="1" fill="none" />
<polyline points="92.0,180.5,96.0,182.5,100.0,182.5,103.5,187.5" stroke="black" stroke-width="1" fill="none" />
<polyline points="65.0,156.0,61.0,161.0" stroke="black" stroke-width="1" fill="none" />
<polyline points="62.5,184.5,59.0,193.0,53.5,190.5" stroke="black" stroke-width="1" fill="none" />
<polyline points="51.5,186.0,52.0,188.0,54.5,192.0,56.0,196.0,57.5,200.0,60.0,204.0" stroke="black" stroke-width="1" fill="none" />
<polyline points="65.5,241.0,69.5,241.5" stroke="black" stroke-width="1" fill="none" />
<polyline points="68.0,243.0,64.0,241.5" stroke="black" stroke-width="1" fill="none" />
<polyline points="56.5,241.5,60.5,242.0,66.0,242.5,64.0,247.5,67.5,246.0,70.0,247.5,69.5,249.5,71.0,249.0,75.0,249.0" stroke="black" stroke-width="1" fill="none" />
<polyline points="87.5,246.5,89.5,243.5" stroke="black" stroke-width="1" fill="none" />
<polyline points="89.5,249.0,90.0,248.0,94.0,246.0,94.5,251.5,95.0,252.0" stroke="black" stroke-width="1" fill="none" />
<polyline points="72.0,251.0,68.0,252.0,64.0,252.0,60.0,254.0" stroke="black" stroke-width="1" fill="none" />
<polyline points="53.0,253.5,54.0,255.5,49.5,254.5,53.5,252.5,54.5,249.5" stroke="black" stroke-width="1" fill="none" />
<polyline points="37.0,257.5,36.5,260.0,37.0,257.5,35.0,260.5" stroke="black" stroke-width="1" fill="none" />
<polyline points="28.0,260.5,25.5,258.0,20.0,259.5,18.5,261.0" stroke="black" stroke-width="1" fill="none" />
<polyline points="15.0,254.0,11.0,255.5" stroke="black" stroke-width="1" fill="none" />
<polyline points="0.0,250.0,4.0,249.0,8.0,249.0,12.0,248.0,16.0,247.5,20.0,247.0,24.0,246.0,28.0,246.0,32.0,244.5,36.0,244.5,40.0,243.0,44.0,242.5,48.0,242.0,52.0,241.0,56.0,240.0,60.0,240.0,64.0,240.0,68.0,239.5,72.0,241.5" stroke="black" stroke-width="1" fill="none" />
<polyline points="58.0,258.5,68.5,254.5,76.0,250.5,76.0,250.5,72.0,253.0,68.0,255.0,64.0,256.5,60.0,258.0,56.0,259.0,52.0,260.0,48.0,261.0,44.0,262.0,40.0,263.0,36.0,263.5,32.0,265.0,28.0,265.0,24.0,266.5,20.0,267.0,16.0,267.5,12.0,268.5,8.0,268.5,4.0,269.5,0.0,269.5" stroke="black" stroke-width="1" fill="none" />
<polyline points="72.0,127.0,70.5,125.0,67.5,127.5,64.5,123.5,65.5,125.0,61.5,119.0" stroke="black" stroke-width="1" fill="none" />
<polyline points="58.0,116.5,62.0,117.5,64.0,119.5,63.0,123.5,65.0,127.0,65.0,129.5,67.5,133.5" stroke="black" stroke-width="1" fill="none" />
<polyline points="40.5,113.0,41.0,117.0,41.0,121.0,41.5,125.0,41.5,129.0,42.0,133.0,42.5,137.0,43.0,141.0,43.0,145.0,43.5,149.0,44.5,153.0,45.0,157.0,47.5,161.0" stroke="black" stroke-width="1" fill="none" />
<polyline points="40.0,110.0,39.5,114.0,39.5,118.0,39.0,122.0,39.5,126.0,39.5,130.0,39.5,134.0,40.0,138.0,40.0,142.0,40.5,146.0,40.5,150.0,41.0,154.0,42.0,158.0,42.5,162.0,43.0,166.0,43.5,170.0,44.0,174.0,44.5,178.0,45.5,182.0,46.5,186.0,47.5,190.0,49.5,194.0,50.5,198.0,52.5,202.0,54.5,206.0,57.0,210.0,60.0,214.0,62.5,218.0" stroke="black" stroke-width="1" fill="none" />
<polyline points="108.0,108.5,104.5,112.5,101.0,116.5,102.0,120.0,106.0,116.0,110.0,112.0,114.0,109.0,118.0,105.5,122.0,102.5,126.0,99.5" stroke="black" stroke-width="1" fill="none" />
<polyline points="128.5,98.0,123.0,102.0,117.0,106.0,112.5,110.0,108.0,114.0,104.0,118.0,100.0,117.5,104.0,113.0,108.0,108.5" stroke="black" stroke-width="1" fill="none" />
<polyline points="132.5,98.0,128.5,100.0,124.5,103.0,120.5,106.5,117.0,109.0,122.0,105.0,127.0,101.0,134.5,97.0" stroke="black" stroke-width="1" fill="none" />
<polyline points="147.5,80.0,156.5,84.0,156.5,88.0" stroke="black" stroke-width="1" fill="none" />
<polyline points="149.5,75.0,145.5,73.5,141.5,74.0" stroke="black" stroke-width="1" fill="none" />
<polyline points="157.5,85.0,153.5,82.0,149.5,80.5,145.5,79.5,141.5,80.0,137.5,80.5,133.5,81.0,129.0,79.0,125.0,79.5,121.0,80.5,117.0,82.5,116.5,80.0,112.5,82.0,110.5,83.5,106.0,80.0,102.0,81.5,100.5,83.5,100.5,81.0,101.5,77.0" stroke="black" stroke-width="1" fill="none" />
<polyline points="78.5,75.5,70.5,79.5" stroke="black" stroke-width="1" fill="none" />
<polyline points="59.0,83.0,55.5,87.0,55.0,91.0,55.5,95.0,55.0,99.0,55.5,103.0,55.0,107.0,54.5,111.0,53.5,115.0,52.5,119.0,51.0,123.0,50.0,127.0,50.0,131.0,49.5,135.0,49.5,139.0,49.0,143.0,49.0,147.0,48.5,151.0,48.5,155.0,48.5,159.0,49.5,162.5,51.5,161.0" stroke="black" stroke-width="1" fill="none" />
<polyline points="72.5,108.0,69.5,104.0,68.0,100.0,70.5,99.0,68.5,95.0" stroke="black" stroke-width="1" fill="none" />
<polyline points="55.5,87.0,59.5,83.0,63.5,83.0,67.5,81.0,71.5,79.0,75.5,77.0,79.5,75.5,83.5,75.0,87.5,74.5,91.5,74.0,95.5,72.0,99.5,71.0,103.5,70.5,107.5,70.0,111.5,70.5,115.5,70.5,119.5,70.0,123.5,70.0,127.5,69.5,131.5,69.5,135.5,70.0,139.5,70.5,143.5,71.5,147.5,72.0,151.5,72.5,155.5,73.5,159.5,75.5,163.5,76.5,167.5,78.5,171.5,80.0,175.5,82.5,179.5,85.0,183.5,89.0,187.5,95.5" stroke="black" stroke-width="1" fill="none" />
<polyline points="200.0,100.5,196.0,102.0,200.5,100.0" stroke="black" stroke-width="1" fill="none" />
<polyline points="192.0,111.5,188.0,111.5,184.0,112.5" stroke="black" stroke-width="1" fill="none" />
<polyline points="111.5,50.5,110.5,51.5,111.0,51.0" stroke="black" stroke-width="1" fill="none" />
<polyline points="40.5,80.5,36.5,81.0" stroke="black" stroke-width="1" fill="none" />
<polyline points="43.0,89.0,39.0,88.5,35.0,88.0,31.0,87.5,27.0,87.0,24.0,86.0,20.0,85.5,16.0,84.5,12.0,83.5,8.0,83.0,4.0,82.0,0.0,81.5" stroke="black" stroke-width="1" fill="none" />
<polyline points="0.0,71.0,4.0,71.0,8.0,71.5,12.0,71.5,16.0,72.5,20.0,72.5,24.0,73.0,28.0,73.5,32.0,74.0,36.0,74.0,40.0,74.5,44.0,75.5,46.5,76.5,43.0,80.5,40.5,85.0,39.5,86.0,43.5,82.0,46.5,78.5" stroke="black" stroke-width="1" fill="none" />
<polyline points="229.0,251.5,220.0,255.5,223.5,253.5,227.5,252.0,231.5,251.0,235.5,250.5,239.5,251.5,243.5,253.0" stroke="black" stroke-width="1" fill="none" />
<polyline points="246.0,255.5,239.5,251.5" stroke="black" stroke-width="1" fill="none" />
<polyline points="264.0,266.5,266.0,270.5,266.5,274.5,266.5,278.5" stroke="black" stroke-width="1" fill="none" />
<polyline points="269.0,274.0,268.0,270.5,264.0,266.5" stroke="black" stroke-width="1" fill="none" />
<polyline points="268.0,264.5,269.0,268.5,269.5,273.0,268.0,277.0,269.0,281.0,268.5,285.0" stroke="black" stroke-width="1" fill="none" />
<polyline points="286.0,291.5,290.0,290.0,291.0,289.0,286.0,292.0,287.5,296.0,295.0,300.0,300.0,305.0,309.5,306.0,313.0,309.0,317.5,312.5,321.5,312.5,325.5,312.5,329.5,312.0,333.5,311.5,337.5,309.0,342.5,309.5,346.5,307.0,353.0,302.0,355.0,302.0,359.0,295.0,358.5,292.0,357.0,296.0,354.5,300.0,350.5,304.0,352.0,308.0,345.5,310.0,339.0,313.5,343.0,311.0,347.0,309.0,351.0,307.0,355.0,306.0,359.0,304.0,363.0,302.5,367.0,300.0,371.0,297.5,375.0,293.0" stroke="black" stroke-width="1" fill="none" />
<polyline points="374.0,293.5,376.0,289.5,376.0,285.5,376.5,284.5,376.5,280.5,377.5,278.0,377.5,274.0,377.5,270.0,377.5,266.0,377.0,262.0,378.0,258.0,379.0,254.0,378.5,250.0,378.0,246.0,378.5,242.0,378.5,238.0,376.5,238.5" stroke="black" stroke-width="1" fill="none" />
<polyline points="378.0,239.5,382.0,237.5,382.5,241.5" stroke="black" stroke-width="1" fill="none" />
<polyline points="376.5,244.5,377.0,248.5,377.0,252.5" stroke="black" stroke-width="1" fill="none" />
<polyline points="379.5,247.5,380.0,251.5,379.0,258.5,379.0,262.0,381.5,266.0,379.5,269.5,381.5,273.5,380.5,277.5,382.0,279.0,381.0,283.0,378.5,288.5" stroke="black" stroke-width="1" fill="none" />
<polyline points="377.0,280.5,379.0,278.0,379.0,274.0" stroke="black" stroke-width="1" fill="none" />
<polyline points="372.5,271.5,370.5,273.0,369.5,266.0,363.0,268.0,359.0,271.0,355.0,275.5,351.0,280.0,345.5,286.0,342.5,287.0,344.5,283.0,344.5,285.0,340.5,288.0,345.5,286.0,351.0,281.5,352.0,279.0,356.5,275.0,359.0,271.0,362.0,267.0,364.5,263.0,363.5,257.5,364.5,253.5,365.0,249.5,366.5,248.5,367.5,244.5,368.0,240.5,368.0,236.5,368.0,232.5,363.0,234.0,361.5,242.5,357.5,248.5,352.0,254.5,348.0,258.0,347.0,262.0,351.0,258.0,354.0,254.0,356.5,250.5,359.0,246.5,361.5,242.5,363.0,238.5,363.5,236.0,364.0,232.0,365.0,230.0,366.5,226.0,367.5,222.5,370.0,218.5,369.5,219.0,365.5,225.5" stroke="black" stroke-width="1" fill="none" />
<polyline points="368.0,226.5,372.5,223.5,372.0,227.5,371.5,231.5,371.0,235.5,370.0,239.5,369.0,243.5,368.0,247.5,366.5,251.5,365.5,253.5" stroke="black" stroke-width="1" fill="none" />
<polyline points="366.5,254.0,369.5,251.5" stroke="black" stroke-width="1" fill="none" />
<polyline points="375.0,246.0,373.0,250.0,371.0,254.0,369.0,258.0,367.5,262.0,369.0,266.0,369.0,270.0,370.5,274.0,372.0,278.0,371.0,282.0,377.0,282.5,379.5,284.0,384.5,283.0" stroke="black" stroke-width="1" fill="none" />
<polyline points="368.0,295.5,368.0,291.5,368.0,287.5,366.5,283.5,364.5,277.5,365.0,273.5,365.0,269.5" stroke="black" stroke-width="1" fill="none" />
<polyline points="361.0,270.5,360.5,274.5,358.5,277.5,357.0,281.5,355.0,282.0,358.0,280.0,361.0,277.0" stroke="black" stroke-width="1" fill="none" />
<polyline points="357.5,275.5,355.5,276.5,352.0,281.0" stroke="black" stroke-width="1" fill="none" />
<polyline points="347.5,286.0,343.5,290.0,340.5,294.0,336.5,298.0,340.0,294.5,345.0,288.5" stroke="black" stroke-width="1" fill="none" />
<polyline points="346.0,289.5,342.0,293.0,338.0,294.5,334.0,297.5,335.5,296.5,340.5,292.5" stroke="black" stroke-width="1" fill="none" />
<polyline points="341.0,286.0,341.5,285.5,337.5,290.0,333.5,292.0" stroke="black" stroke-width="1" fill="none" />
<polyline points="329.5,281.5,331.0,277.5,332.0,273.5,332.0,272.5" stroke="black" stroke-width="1" fill="none" />
<polyline points="346.5,262.5,350.5,258.5" stroke="black" stroke-width="1" fill="none" />
<polyline points="363.0,261.0,360.0,263.5,358.5,260.5,360.5,257.0,360.5,253.0,361.0,249.0" stroke="black" stroke-width="1" fill="none" />
<polyline points="364.0,239.0,364.5,243.0,361.5,247.0,359.5,251.0,358.5,255.0,357.5,259.0,357.0,263.0,356.0,267.0,353.0,271.0,350.0,275.0,346.5,279.0,342.5,283.0,338.0,287.0,333.0,291.0,332.0,291.5,334.5,290.5,338.5,286.5,342.5,283.0,346.5,279.0,350.5,274.5,354.5,269.0" stroke="black" stroke-width="1" fill="none" />
<polyline points="355.5,287.5,357.0,291.5,356.0,295.5,363.0,293.5" stroke="black" stroke-width="1" fill="none" />
<polyline points="356.5,287.5,353.5,288.5,353.0,292.5,348.5,296.5,351.0,297.0,346.5,301.5" stroke="black" stroke-width="1" fill="none" />
<polyline points="340.5,307.5,338.0,311.5" stroke="black" stroke-width="1" fill="none" />
<polyline points="329.5,314.5,325.5,316.5" stroke="black" stroke-width="1" fill="none" />
<polyline points="325.0,305.5,329.0,305.5" stroke="black" stroke-width="1" fill="none" />
<polyline points="318.0,312.5,314.5,312.5,310.5,312.0" stroke="black" stroke-width="1" fill="none" />
<polyline points="309.0,305.0,313.0,305.5,317.0,306.0" stroke="black" stroke-width="1" fill="none" />
<polyline points="311.5,296.0,307.5,296.0" stroke="black" stroke-width="1" fill="none" />
<polyline points="311.0,294.0,307.0,292.0,303.5,294.5,299.5,292.0" stroke="black" stroke-width="1" fill="none" />
<polyline points="299.5,292.0,304.0,296.0,309.0,298.5" stroke="black" stroke-width="1" fill="none" />
<polyline points="313.5,294.0,309.5,292.0,305.5,290.0" stroke="black" stroke-width="1" fill="none" />
<polyline points="305.5,290.0,310.5,294.0,313.0,295.5" stroke="black" stroke-width="1" fill="none" />
<polyline points="317.5,299.5,313.5,298.5,309.5,297.5,305.5,299.0,301.5,297.0,297.5,292.0" stroke="black" stroke-width="1" fill="none" />
<polyline points="297.5,293.0,301.0,297.0,301.5,299.0,307.0,302.5,309.0,300.5,310.5,299.0,314.5,300.5" stroke="black" stroke-width="1" fill="none" />
<polyline points="298.5,288.0,302.5,286.5,306.5,286.0,310.5,285.5,314.5,285.0,318.5,284.5,322.5,283.5,326.5,282.5" stroke="black" stroke-width="1" fill="none" />
<polyline points="346.5,292.5,342.5,296.5,339.5,298.5,345.0,294.5,348.0,290.5" stroke="black" stroke-width="1" fill="none" />
<polyline points="351.0,240.0,355.0,236.5" stroke="black" stroke-width="1" fill="none" />
<polyline points="361.5,237.0,361.0,241.0,358.5,245.0,355.5,249.0,351.5,253.0,347.5,257.0,345.5,260.0,341.5,263.0,345.5,258.5,349.5,255.0,353.5,251.0,357.5,246.0,361.5,238.5,363.5,236.0" stroke="black" stroke-width="1" fill="none" />
<polyline points="366.5,235.0,366.5,239.0,366.5,243.0,364.0,245.5,364.0,249.5,363.5,253.5,362.5,257.5,360.0,261.5,360.5,264.5,359.5,268.0,356.5,272.0,352.5,276.0,349.0,278.5,353.5,274.0,357.5,270.5,358.5,264.0,362.5,256.5" stroke="black" stroke-width="1" fill="none" />
<polyline points="371.5,238.0,370.5,242.0,369.5,246.0,368.5,250.0,366.5,254.0,365.5,258.0,362.5,262.0,366.5,266.0,364.0,270.0,363.5,274.0,363.5,278.0,364.5,282.0,366.5,286.5,365.5,290.5,365.0,294.5,363.0,298.5,359.0,300.5,363.0,298.5" stroke="black" stroke-width="1" fill="none" />
<polyline points="399.5,239.5,397.5,240.0,393.5,234.5,388.0,232.0,388.0,226.5,386.0,222.0,381.0,219.0,380.5,213.5,376.5,208.0,372.5,202.0" stroke="black" stroke-width="1" fill="none" />
<polyline points="372.0,201.5,376.0,203.0,380.0,209.0,384.0,216.5,390.0,219.0,393.5,223.5,398.0,233.5" stroke="black" stroke-width="1" fill="none" />
<polyline points="402.0,229.0,401.0,225.0,399.0,221.0,399.0,217.0,400.0,213.0,399.0,211.5,399.0,207.5,397.0,203.5,395.0,199.5,393.5,194.0" stroke="black" stroke-width="1" fill="none" />
<polyline points="399.0,192.5,396.0,192.5,394.0,187.0,389.0,183.0,388.0,184.0,384.0,179.0,379.5,174.5,375.5,173.5" stroke="black" stroke-width="1" fill="none" />
<polyline points="372.5,173.0,376.5,169.5,383.5,173.5,387.5,179.0,389.5,184.0,391.0,188.0,392.5,189.0,394.0,193.0,395.5,197.0,393.5,202.0,397.5,204.0" stroke="black" stroke-width="1" fill="none" />
<polyline points="391.0,206.5,391.0,210.5,392.0,219.5" stroke="black" stroke-width="1" fill="none" />
<polyline points="385.5,217.0,381.5,208.5,377.5,202.0" stroke="black" stroke-width="1" fill="none" />
<polyline points="372.5,200.0,374.0,204.0,376.0,208.0,379.5,212.0,378.5,214.5,380.5,218.5,383.0,221.0,384.0,221.5,384.0,225.5,384.5,232.0,385.0,236.0,385.0,240.0,386.0,244.0,386.5,248.0,388.5,252.0,389.0,256.0,389.5,260.0,389.0,264.0,388.5,268.0,385.0,274.5,385.5,278.5,385.0,282.5,381.0,286.5,378.0,290.5,372.5,296.0,367.0,300.0,361.5,300.5,358.5,306.5,359.0,306.5,361.0,301.0" stroke="black" stroke-width="1" fill="none" />
<polyline points="392.0,254.0,393.5,250.0,394.0,246.0,395.5,244.0,395.0,240.0,394.0,236.0,392.0,232.0,391.0,228.0,390.0,224.0,385.0,221.0,383.0,215.5,381.0,211.5,378.5,207.5,376.0,203.5,375.5,198.5,371.5,195.5" stroke="black" stroke-width="1" fill="none" />
<polyline points="371.5,195.5,376.0,199.5,378.0,203.5,380.5,207.5,383.0,211.5,385.0,215.5,387.0,217.0,389.5,218.5,392.5,222.5,394.5,226.5,393.0,230.5,397.0,234.5" stroke="black" stroke-width="1" fill="none" />
<polyline points="396.5,234.0,392.5,230.0" stroke="black" stroke-width="1" fill="none" />
<polyline points="386.0,231.5,387.5,235.5,391.0,240.0" stroke="black" stroke-width="1" fill="none" />
<polyline points="402.0,228.0,398.0,221.5,393.5,215.0,389.5,211.0,386.0,208.0" stroke="black" stroke-width="1" fill="none" />
<polyline points="385.5,206.0,386.5,210.0,389.5,214.0,391.5,218.0,393.5,222.0,396.5,222.0" stroke="black" stroke-width="1" fill="none" />
<polyline points="385.0,222.5,387.5,226.5,389.5,230.5,389.0,233.0,389.5,237.0,390.0,239.5,390.0,243.5,391.0,247.5" stroke="black" stroke-width="1" fill="none" />
<polyline points="382.0,226.5,380.0,222.5,375.0,220.0" stroke="black" stroke-width="1" fill="none" />
<polyline points="375.0,220.0,378.0,224.0,377.5,228.0,377.5,232.0,378.0,236.0,376.5,240.0,374.5,244.0,373.0,244.0,371.5,246.0,371.5,250.0,369.5,254.0,368.0,254.5,367.0,258.5,366.0,262.5,365.0,266.5,363.0,270.5,362.0,274.5,361.5,278.5,360.5,282.5,362.5,283.0" stroke="black" stroke-width="1" fill="none" />
<polyline points="362.0,230.5,362.5,226.0,364.0,222.0,361.5,227.5" stroke="black" stroke-width="1" fill="none" />
<polyline points="365.5,221.0,364.5,225.0,361.5,229.0,360.5,233.0,359.0,237.0,357.5,241.0,355.5,243.0" stroke="black" stroke-width="1" fill="none" />
<polyline points="356.0,239.5,352.0,244.0,349.5,242.5,352.0,239.0,357.0,235.0,359.0,231.0,362.0,224.5,363.0,220.5,363.0,216.5" stroke="black" stroke-width="1" fill="none" />
<polyline points="364.5,220.5,365.0,229.5,361.0,229.5,359.0,235.0,356.0,237.5,352.0,240.5,349.5,247.0,353.0,243.0,356.5,239.0,357.0,236.5,362.5,232.5,366.5,232.0,368.0,228.0,369.0,224.0,371.0,220.0,371.5,216.0" stroke="black" stroke-width="1" fill="none" />
<polyline points="393.5,213.0,393.0,209.0,390.0,206.5,392.0,203.5,391.0,199.5" stroke="black" stroke-width="1" fill="none" />
<polyline points="396.0,199.5,389.5,196.0,384.0,192.0,380.0,187.0" stroke="black" stroke-width="1" fill="none" />
<polyline points="380.0,186.0,381.0,190.0" stroke="black" stroke-width="1" fill="none" />
<polyline points="382.0,189.0,384.5,193.0,385.5,197.0,386.0,201.0,385.0,202.5,384.5,207.0,387.5,207.5,389.5,211.5,391.0,215.5,394.0,217.5,396.0,221.5,394.5,227.5,397.0,229.5,397.5,233.5" stroke="black" stroke-width="1" fill="none" />
<polyline points="406.5,214.5,405.0,218.5,406.5,214.5,405.5,210.5,400.5,211.0" stroke="black" stroke-width="1" fill="none" />
<polyline points="404.5,206.0,407.5,208.0,408.5,212.0" stroke="black" stroke-width="1" fill="none" />
<polyline points="407.5,191.5,402.0,190.0,397.0,189.0,393.0,183.5" stroke="black" stroke-width="1" fill="none" />
<polyline points="384.0,188.5,380.0,186.0" stroke="black" stroke-width="1" fill="none" />
<polyline points="380.0,173.0,376.0,170.5" stroke="black" stroke-width="1" fill="none" />
<polyline points="374.5,169.5,378.5,173.5,378.0,177.0,380.5,184.5,384.5,186.0,386.5,187.0,390.5,188.5,391.5,191.5,393.5,192.0,397.5,196.0,401.5,203.0,408.0,208.0,410.5,209.0" stroke="black" stroke-width="1" fill="none" />
<polyline points="409.0,177.5,411.0,173.5,410.0,169.5,409.0,166.0,408.5,165.0,404.5,166.5,403.5,165.0,402.0,165.0,400.0,162.0,399.0,160.0,399.0,155.0,396.5,149.0,392.5,149.0" stroke="black" stroke-width="1" fill="none" />
<polyline points="392.5,147.0,396.5,145.5,400.5,144.5,404.0,144.0,403.0,148.0,405.5,149.0,406.0,153.0,406.0,157.0,404.0,161.0,403.5,165.0,401.5,167.5,401.5,170.5,405.5,172.5,405.5,176.5,406.0,182.5,409.0,187.5,407.0,191.5,408.0,194.5" stroke="black" stroke-width="1" fill="none" />
<polyline points="415.5,191.0,411.5,190.0,408.5,192.5,406.5,185.5,400.5,181.5,395.5,177.5,397.5,173.5,400.0,169.5,400.5,165.5,400.5,160.0,397.5,154.5,399.5,150.5,396.5,145.5,400.0,140.5,400.5,137.5,396.5,139.5,392.5,140.5" stroke="black" stroke-width="1" fill="none" />
<polyline points="398.0,143.5,402.0,142.5" stroke="black" stroke-width="1" fill="none" />
<polyline points="407.5,154.0,409.0,158.0,407.5,159.5,407.5,163.5" stroke="black" stroke-width="1" fill="none" />
<polyline points="411.5,160.0,407.5,154.0" stroke="black" stroke-width="1" fill="none" />
<polyline points="397.5,166.5,393.5,167.0" stroke="black" stroke-width="1" fill="none" />
<polyline points="398.5,168.0,394.5,168.5,391.0,168.5,387.0,168.0" stroke="black" stroke-width="1" fill="none" />
<polyline points="381.5,169.5,377.5,168.5,373.5,166.0" stroke="black" stroke-width="1" fill="none" />
<polyline points="373.5,164.5,377.5,165.0,379.5,168.5,382.0,171.0,387.5,174.5,391.0,175.0,394.0,178.0,398.0,180.0,402.0,183.5,403.0,181.0,406.0,182.5,410.0,182.5" stroke="black" stroke-width="1" fill="none" />
<polyline points="408.0,164.0,403.5,161.5,397.0,159.5,396.5,159.5,396.5,155.5,391.0,153.5,387.0,159.5,383.0,160.5,379.0,157.5,375.0,159.5" stroke="black" stroke-width="1" fill="none" />
<polyline points="375.0,158.0,376.0,155.0,380.0,152.5,382.5,152.5,385.5,152.5,388.0,153.5,393.5,156.0,398.5,156.5" stroke="black" stroke-width="1" fill="none" />
<polyline points="398.5,163.5,394.5,164.0,390.5,164.5,386.5,165.0,382.5,165.5,378.5,165.5" stroke="black" stroke-width="1" fill="none" />
<polyline points="377.5,165.0,381.5,163.5" stroke="black" stroke-width="1" fill="none" />
<polyline points="382.5,162.0,378.5,159.5" stroke="black" stroke-width="1" fill="none" />
<polyline points="374.0,152.5,378.0,149.0,382.0,148.0,387.0,155.0,387.5,159.0" stroke="black" stroke-width="1" fill="none" />
<polyline points="384.5,170.5,380.5,171.5,376.5,169.5,372.5,170.5" stroke="black" stroke-width="1" fill="none" />
<polyline points="370.5,165.5,371.5,169.5,371.5,173.5,374.5,177.0,378.0,179.0,380.5,181.0,381.5,185.0,388.5,189.0,390.5,193.0,388.0,195.5,390.5,199.0,390.5,203.0,389.0,207.0,391.0,211.0,395.0,212.0,395.5,216.0,397.0,220.0,398.5,224.0,399.0,228.0,399.5,232.0,403.0,235.0" stroke="black" stroke-width="1" fill="none" />
<polyline points="402.5,196.0,404.5,194.5,404.5,190.5,401.0,188.0,398.0,184.0,394.0,178.5,389.5,173.0,388.5,171.0,387.5,167.0,382.0,160.5,381.5,154.5,385.5,149.0,390.5,148.0,391.5,144.0,390.5,140.0,385.0,134.0,383.5,130.0,383.0,125.5,380.0,125.0,375.0,118.5" stroke="black" stroke-width="1" fill="none" />
<polyline points="374.5,117.0,378.5,117.0,382.5,118.5,387.0,120.5" stroke="black" stroke-width="1" fill="none" />
<polyline points="389.5,121.5,385.5,117.0" stroke="black" stroke-width="1" fill="none" />
<polyline points="387.5,116.0,391.5,120.0,392.5,120.0,394.5,121.0" stroke="black" stroke-width="1" fill="none" />
<polyline points="398.0,127.5,397.0,125.5,393.0,127.5,390.0,124.5,386.0,126.5,382.0,128.0" stroke="black" stroke-width="1" fill="none" />
<polyline points="385.5,129.0,388.5,129.0" stroke="black" stroke-width="1" fill="none" />
<polyline points="384.0,124.5,380.5,125.5,376.0,123.5,373.0,118.0,366.5,114.5,363.0,105.5" stroke="black" stroke-width="1" fill="none" />
<polyline points="363.0,105.5,363.0,109.5,364.5,113.5,363.0,117.0,362.0,121.0,362.5,125.0" stroke="black" stroke-width="1" fill="none" />
<polyline points="359.0,123.5,358.0,123.0,358.5,121.5,356.5,121.5" stroke="black" stroke-width="1" fill="none" />
<polyline points="363.0,117.5,364.0,121.5,367.5,121.5" stroke="black" stroke-width="1" fill="none" />
<polyline points="370.0,123.5,371.0,126.5,372.0,130.5,374.0,134.5,374.5,138.5,376.0,139.5,378.0,143.0,382.5,149.5,382.5,155.0,382.5,155.0,383.5,157.0" stroke="black" stroke-width="1" fill="none" />
<polyline points="370.5,165.5,374.5,168.0,372.5,171.0,374.5,171.5,374.0,175.5,371.5,179.5,372.5,183.5" stroke="black" stroke-width="1" fill="none" />
<polyline points="367.5,164.5,371.5,164.0,375.5,166.5,379.5,167.5,383.0,166.5,387.0,166.5,391.0,166.0,395.0,165.5" stroke="black" stroke-width="1" fill="none" />
<polyline points="391.0,172.5,396.5,172.0,400.5,171.0,404.5,169.0,405.0,171.0" stroke="black" stroke-width="1" fill="none" />
<polyline points="385.5,141.0,381.5,141.5" stroke="black" stroke-width="1" fill="none" />
<polyline points="385.0,139.5,381.0,140.0,377.0,140.0" stroke="black" stroke-width="1" fill="none" />
<polyline points="379.0,138.5,376.5,137.0,372.5,131.5" stroke="black" stroke-width="1" fill="none" />
<polyline points="370.0,140.5,372.0,136.5,370.5,132.5,370.0,128.5,368.5,124.5,368.5,120.5,367.0,116.5,362.5,108.0" stroke="black" stroke-width="1" fill="none" />
<polyline points="363.5,108.0,365.5,112.0,365.0,116.0,366.0,120.0,366.5,124.0,366.5,128.0,367.0,132.0,368.0,136.0,367.5,139.0,364.5,141.5,368.5,138.0,370.0,140.5,375.0,139.5,376.5,142.0,377.5,146.0,381.5,146.5,382.0,143.5,388.0,145.0,392.0,143.0,396.0,143.5,396.5,141.0,400.5,140.0,403.0,141.0,407.5,138.5" stroke="black" stroke-width="1" fill="none" />
<polyline points="396.5,133.5,399.0,132.0,399.5,128.0" stroke="black" stroke-width="1" fill="none" />
<polyline points="390.0,123.0,384.5,122.0,381.5,118.0" stroke="black" stroke-width="1" fill="none" />
<polyline points="383.0,114.5,386.5,118.5,388.5,122.5,386.0,126.5,384.5,127.5,381.0,131.0,385.0,131.5,385.5,135.5,387.0,134.5,390.5,136.5" stroke="black" stroke-width="1" fill="none" />
<polyline points="380.0,134.5,379.5,130.5,378.0,126.5,375.0,125.0,374.0,120.0,371.0,118.5,371.5,114.5" stroke="black" stroke-width="1" fill="none" />
<polyline points="377.0,106.5,373.5,101.5,369.5,98.0,365.0,100.5,364.0,95.0,361.5,87.5,360.5,89.0" stroke="black" stroke-width="1" fill="none" />
<polyline points="355.5,94.5,351.5,87.0,347.5,84.0" stroke="black" stroke-width="1" fill="none" />
<polyline points="347.5,84.0,352.0,88.0,354.5,92.0,355.5,96.0,356.0,100.5" stroke="black" stroke-width="1" fill="none" />
<polyline points="351.5,93.5,347.5,92.0" stroke="black" stroke-width="1" fill="none" />
<polyline points="348.0,91.0,348.5,95.0,352.5,95.0,348.5,98.0,350.5,102.0,352.5,106.0,355.0,110.0,356.0,111.0" stroke="black" stroke-width="1" fill="none" />
<polyline points="353.5,112.0,352.0,108.0" stroke="black" stroke-width="1" fill="none" />
<polyline points="351.0,106.0,345.5,101.0,343.0,97.0,339.0,93.0,335.0,89.0,335.0,88.5" stroke="black" stroke-width="1" fill="none" />
<polyline points="338.0,91.5,342.0,95.0,346.0,101.0" stroke="black" stroke-width="1" fill="none" />
<polyline points="350.5,96.5,346.5,95.0,342.5,91.0" stroke="black" stroke-width="1" fill="none" />
<polyline points="342.5,91.0,345.0,95.0,347.0,99.0,348.5,103.0,350.0,105.5,350.0,109.5,347.5,113.5,347.0,117.5,345.5,121.5,342.0,125.0,345.0,124.5" stroke="black" stroke-width="1" fill="none" />
<polyline points="342.5,121.0,338.5,119.0,334.5,118.0,330.5,116.5,326.5,115.0,322.5,113.5,318.5,113.0" stroke="black" stroke-width="1" fill="none" />
<polyline points="323.0,114.0,321.5,118.0,319.0,121.5,318.5,119.5,322.5,118.0,324.0,116.0" stroke="black" stroke-width="1" fill="none" />
<polyline points="330.5,116.5,335.0,120.5,341.0,124.5" stroke="black" stroke-width="1" fill="none" />
<polyline points="333.5,130.0,337.0,134.0,341.5,139.0" stroke="black" stroke-width="1" fill="none" />
<polyline points="349.5,142.5,349.5,142.5,355.0,144.0,358.0,146.5,358.5,145.0" stroke="black" stroke-width="1" fill="none" />
<polyline points="351.0,144.0,351.5,148.5,355.5,152.0" stroke="black" stroke-width="1" fill="none" />
<polyline points="349.5,148.0,355.0,151.5,354.0,155.5,355.5,158.5,357.5,162.5,361.5,166.0" stroke="black" stroke-width="1" fill="none" />
<polyline points="361.5,164.0,364.0,168.0" stroke="black" stroke-width="1" fill="none" />
<polyline points="368.0,162.0,373.5,166.5,380.5,170.5,383.0,178.5,387.0,182.5,388.5,187.0,395.0,194.0,398.5,198.0,397.0,200.5,399.5,205.0,401.5,205.5,403.5,207.5,408.0,211.0,408.5,214.0,412.5,216.5" stroke="black" stroke-width="1" fill="none" />
<polyline points="342.5,151.0,338.5,151.0" stroke="black" stroke-width="1" fill="none" />
<polyline points="338.5,151.0,342.5,151.5" stroke="black" stroke-width="1" fill="none" />
<polyline points="346.5,146.5,348.5,150.5,349.0,156.0,352.0,158.5,353.0,159.5" stroke="black" stroke-width="1" fill="none" />
<polyline points="340.0,139.5,336.0,135.0,332.0,131.5" stroke="black" stroke-width="1" fill="none" />
<polyline points="330.0,130.5,330.0,129.5,334.5,133.5,336.0,137.5,334.0,139.0,340.0,140.0,341.5,140.0,343.5,143.5,346.0,143.5,351.5,147.5,357.0,151.5,360.0,155.5,359.0,159.5,361.0,160.0,360.0,164.0,362.5,168.0" stroke="black" stroke-width="1" fill="none" />
<polyline points="341.5,137.0,337.5,135.0,333.5,129.5,329.5,130.0" stroke="black" stroke-width="1" fill="none" />
<polyline points="327.0,133.5,331.0,137.5,336.0,140.0" stroke="black" stroke-width="1" fill="none" />
<polyline points="330.0,139.0,326.0,134.5" stroke="black" stroke-width="1" fill="none" />
<polyline points="324.5,130.5,328.5,135.5,333.0,139.5,336.5,142.5,342.0,143.5,343.5,148.0,347.5,151.5,348.0,155.0,351.0,157.5,352.0,158.5" stroke="black" stroke-width="1" fill="none" />
<polyline points="362.0,158.0,358.0,160.5,354.0,155.0,348.0,149.5,345.5,150.5,340.5,146.5,337.0,144.0,333.0,142.0,329.0,142.0,325.0,142.0" stroke="black" stroke-width="1" fill="none" />
<polyline points="329.0,138.0,325.5,134.0,327.5,132.5,320.5,132.0,316.5,127.0" stroke="black" stroke-width="1" fill="none" />
<polyline points="316.5,127.0,319.0,131.0,325.5,133.5,329.5,134.0,335.0,139.0,336.0,141.5,337.0,140.5,343.5,143.0,346.0,143.0,348.0,145.5,350.0,147.0,354.0,148.5,358.0,152.5,360.5,160.5,362.5,165.0" stroke="black" stroke-width="1" fill="none" />
<polyline points="350.0,115.0,345.0,122.5,341.0,124.0,337.0,121.5,334.0,119.0,330.0,118.5,326.0,118.5,322.0,119.5,318.0,122.0" stroke="black" stroke-width="1" fill="none" />
<polyline points="313.0,126.5,315.5,130.5" stroke="black" stroke-width="1" fill="none" />
<polyline points="311.0,133.0,310.5,129.5,306.5,128.0" stroke="black" stroke-width="1" fill="none" />
<polyline points="310.5,130.0,307.0,126.0,307.0,125.5,303.0,122.5" stroke="black" stroke-width="1" fill="none" />
<polyline points="304.0,121.5,305.0,125.5,307.5,129.5,310.0,133.5" stroke="black" stroke-width="1" fill="none" />
<polyline points="346.0,126.5,347.0,122.5,348.5,118.5,350.5,114.5" stroke="black" stroke-width="1" fill="none" />
<polyline points="351.5,103.5,347.0,98.5,346.0,93.5" stroke="black" stroke-width="1" fill="none" />
<polyline points="343.0,85.0,340.0,81.0,340.5,77.0,339.5,75.5" stroke="black" stroke-width="1" fill="none" />
<polyline points="343.0,72.0,339.0,75.5,335.5,77.5,329.5,77.0,324.0,78.0,320.0,79.5" stroke="black" stroke-width="1" fill="none" />
<polyline points="321.5,79.0,325.5,80.0" stroke="black" stroke-width="1" fill="none" />
<polyline points="345.0,70.0,352.0,74.0,358.0,78.0,364.0,82.0,369.5,86.0,375.0,90.0,380.0,95.0,382.0,99.5" stroke="black" stroke-width="1" fill="none" />
<polyline points="370.5,88.5,377.5,89.5,380.5,93.5,385.5,97.0,384.0,101.0,388.5,102.0,389.5,106.0,388.5,107.5,391.0,109.0,393.0,113.0,394.0,117.0,394.5,121.0,392.0,125.0,390.5,127.0,389.0,131.0,391.0,136.0,388.0,137.5,388.0,141.0,388.0,145.0,381.0,149.5,377.0,151.0,374.5,152.0,377.5,156.0,377.5,158.5,382.5,162.5,382.5,168.0,386.5,170.5,387.5,175.5,391.0,178.0,392.5,181.0,394.5,185.0,397.0,189.0,397.0,194.0,399.5,194.0,403.0,198.0,400.0,203.5,403.0,204.5,403.0,207.0,402.5,211.0,401.0,213.0,400.5,215.0,401.0,219.0" stroke="black" stroke-width="1" fill="none" />
<polyline points="401.0,111.5,400.0,113.0,397.5,116.0,399.0,112.5,401.0,111.5" stroke="black" stroke-width="1" fill="none" />
<polyline points="399.5,109.0,399.0,113.0,395.0,117.0,397.5,119.5,398.5,121.0,394.0,122.0,397.0,123.5,393.0,127.5,392.0,131.5,390.0,134.5,392.5,133.5,393.0,131.5,397.0,132.0,397.5,130.0" stroke="black" stroke-width="1" fill="none" />
<polyline points="272.5,229.5,268.5,232.0,273.0,229.0,271.5,224.5,277.0,221.0,273.0,224.0,269.0,225.5" stroke="black" stroke-width="1" fill="none" />
<polyline points="292.0,292.0,296.0,292.0,300.0,289.5,297.0,291.5,295.0,296.0,295.0,293.5,298.0,296.5" stroke="black" stroke-width="1" fill="none" />
<polyline points="300.0,303.0,296.0,301.5,291.0,296.5,289.0,294.5,289.5,294.0" stroke="black" stroke-width="1" fill="none" />
<polyline points="288.5,298.5,284.5,295.5" stroke="black" stroke-width="1" fill="none" />
<polyline points="282.0,298.0,288.5,299.0,288.5,301.5,290.5,301.5,294.5,303.0,298.5,304.0,302.5,306.0,306.5,307.5,310.5,307.0,312.0,308.5,316.0,310.5,320.0,312.0,325.5,310.0,327.0,310.5" stroke="black" stroke-width="1" fill="none" />
<polyline points="286.0,299.0,282.0,298.0" stroke="black" stroke-width="1" fill="none" />
</svg>