<svg xmlns="http://www.w3.org/2000/svg" height="368px" width="463px" version="1.1"><polyline points="348.5,54.0,351.5,58.0,352.0,62.0,352.0,66.0,352.5,70.0" stroke="black" stroke-width="1" fill="none" />
<polyline points="357.0,54.5,354.0,58.5,354.0,62.5,354.0,66.5,354.0,70.5,354.5,74.5,354.5,78.5,355.0,82.5,355.0,86.5,355.0,90.5,355.5,94.5,355.5,98.5,355.5,102.5,356.0,106.5,356.0,110.5,356.0,114.5,356.5,118.5,356.5,122.5,356.5,126.5,357.0,130.5,356.5,134.5,357.0,138.5,358.5,142.5,363.0,145.5,367.0,149.5,369.5,153.5" stroke="black" stroke-width="1" fill="none" />
<polyline points="373.0,150.0,369.0,145.5,365.0,142.0,361.0,139.0" stroke="black" stroke-width="1" fill="none" />
<polyline points="361.0,139.0,362.0,143.0,367.5,147.0" stroke="black" stroke-width="1" fill="none" />
<polyline points="368.0,147.0,364.0,143.5,360.0,140.0" stroke="black" stroke-width="1" fill="none" />
<polyline points="362.0,140.0,367.0,144.0,371.0,148.0,375.0,152.0" stroke="black" stroke-width="1" fill="none" />
<polyline points="377.5,156.5,370.5,160.5,367.0,164.5,363.5,168.5,360.0,172.5,359.0,176.5,359.0,180.5,359.0,184.5,359.0,188.5,359.5,192.5,359.5,196.5,359.5,200.5,360.0,204.5,360.0,208.5,360.0,212.5,360.5,216.5,360.5,220.5,360.5,224.5,361.0,228.5,361.0,232.5,361.5,236.5,361.0,240.5,362.0,244.5,365.5,248.5,369.5,252.5,374.5,257.0,375.0,263.5,370.5,270.0,366.5,274.0,362.5,278.0,362.5,282.0,363.0,286.0,363.0,290.0,363.5,294.0,363.5,298.0,364.0,302.0,363.5,306.0,364.0,310.0,364.0,314.0,364.5,318.0,364.5,322.0,365.0,326.0,365.0,330.0,365.0,334.0,365.0,338.0,365.0,342.0,365.5,346.0,365.5,350.0,366.0,354.0,363.0,358.0,365.5,354.5" stroke="black" stroke-width="1" fill="none" />
<polyline points="293.0,367.5,297.0,367.0,301.0,366.5,305.0,366.5,309.0,366.0,313.0,366.0,317.0,365.5,321.0,366.0,325.0,365.5,329.0,365.0,333.0,365.5,337.0,365.0,341.0,364.5,345.0,364.5,349.0,364.5,353.0,364.0,357.0,364.0,361.0,363.0,365.0,363.5,369.0,364.5,373.0,364.0,377.0,364.0,381.0,364.0,385.0,363.5,389.0,363.5,393.0,363.0,397.0,362.5,401.0,362.0,405.0,362.0,409.0,361.5,413.0,361.0,417.0,361.0,421.0,360.5,425.0,360.5,429.0,360.0,433.0,360.0,437.0,359.5,441.0,359.0,445.0,359.0,449.0,358.5,453.0,358.0,457.0,356.0,461.0,352.5" stroke="black" stroke-width="1" fill="none" />
<polyline points="455.5,357.0,461.0,353.0,462.5,349.0,463.0,345.0" stroke="black" stroke-width="1" fill="none" />
<polyline points="460.5,254.5,456.5,257.0,452.5,257.0,448.5,257.5,444.5,257.5,440.5,258.0,436.5,258.0,432.5,258.0,428.5,258.5,424.5,258.5,420.5,258.5,416.5,259.0,412.5,259.0,408.5,259.0,404.5,259.5,400.5,259.5,396.5,259.5,392.5,260.0,388.5,260.0,384.5,260.0,380.5,259.5,376.5,258.0,372.5,255.5,369.5,252.5,365.5,248.0,361.5,242.5" stroke="black" stroke-width="1" fill="none" />
<polyline points="359.0,244.0,356.5,248.0,353.0,252.0,349.0,256.0,343.0,262.5,348.0,266.5,352.5,270.5,357.0,274.5,359.5,278.5,361.0,282.5" stroke="black" stroke-width="1" fill="none" />
<polyline points="340.0,261.5,344.0,262.5,348.0,266.0,352.0,269.5,356.0,273.5,360.0,278.5,365.5,274.5,369.5,271.0,372.0,267.0,376.5,262.5,380.5,261.5,384.5,262.0,388.5,262.0,392.5,261.5" stroke="black" stroke-width="1" fill="none" />
<polyline points="360.0,245.0,356.0,248.5,352.0,253.0,348.0,257.0,344.0,259.0,340.0,260.0,336.0,260.0,332.0,260.0,328.0,260.5,324.0,260.5,320.0,260.5,316.0,261.0,312.0,261.0,308.0,261.0,304.0,261.5,300.0,261.5,296.0,262.0,292.0,262.0,288.0,262.0,284.0,262.5,280.0,262.5,276.0,262.5,272.0,262.0,268.0,260.0,264.0,256.5,260.0,252.5,256.0,246.5" stroke="black" stroke-width="1" fill="none" />
<polyline points="238.5,266.5,242.5,270.5,245.0,274.5,251.0,277.0,254.5,281.0,255.5,285.0,255.5,289.0" stroke="black" stroke-width="1" fill="none" />
<polyline points="276.0,264.0,272.0,265.5,268.0,269.0,264.0,273.5,260.0,277.5,255.0,281.0,251.0,276.5,247.0,275.5,243.0,271.5,239.0,266.5,235.0,265.5,231.0,266.5,227.0,267.0,223.0,267.0" stroke="black" stroke-width="1" fill="none" />
<polyline points="156.5,268.5,160.5,268.0,164.5,267.5,168.5,267.5,172.5,267.5,176.5,267.0,180.5,267.0,184.5,267.0,188.5,267.0,192.5,266.5,196.5,266.5,200.5,266.5,204.5,266.0,208.5,266.0,212.5,265.5,216.5,265.5,220.5,265.5,224.5,265.0,228.5,265.0,232.5,265.0,236.5,263.5,240.5,260.0,244.5,256.5,248.5,252.0,252.5,247.5,255.5,246.0,257.5,250.0,261.0,254.0,265.0,258.0,271.5,262.0,270.5,266.5,266.5,270.5,263.0,274.5,259.5,278.5,257.5,282.5,257.0,286.5,257.0,290.5,257.0,294.5,257.0,298.5,257.5,302.5,257.5,306.5,257.5,310.5,257.5,314.5,258.0,318.5,258.0,322.5,258.0,326.5,258.0,330.5,258.5,334.5,258.5,338.5,258.5,342.5,259.0,346.5,259.0,350.5,259.0,354.5,259.0,358.5,258.0,361.0" stroke="black" stroke-width="1" fill="none" />
<polyline points="253.5,173.5,257.5,167.5,261.5,163.5,265.5,160.0,269.5,158.0,273.5,158.0,277.5,158.5,281.5,158.5,285.5,158.5,289.5,158.5" stroke="black" stroke-width="1" fill="none" />
<polyline points="299.5,158.0,303.5,157.5,307.5,157.5,311.5,157.0,315.5,157.5,319.5,157.5,323.5,157.0,327.5,156.5,331.5,156.5,335.5,155.5,339.5,156.0,343.5,157.5,347.5,160.5,351.5,164.0,355.5,169.0,361.0,171.0,365.0,166.5,369.0,162.5,373.0,158.5,377.0,157.0,381.0,156.5,385.0,156.5,389.0,156.5,393.0,156.0,397.0,156.0,401.0,156.0,405.0,155.5,409.0,156.0,413.0,155.5,417.0,155.5,421.0,155.0,425.0,155.0,429.0,155.0,433.0,155.0,437.0,155.0" stroke="black" stroke-width="1" fill="none" />
<polyline points="445.5,154.0,449.5,154.0,453.5,155.0,456.0,155.5,458.0,159.5,458.5,163.5" stroke="black" stroke-width="1" fill="none" />
<polyline points="458.5,157.5,454.5,155.0" stroke="black" stroke-width="1" fill="none" />
<polyline points="454.0,151.0,450.0,152.0,446.0,152.5,442.0,152.5,438.0,152.5,434.0,152.5,430.0,153.0,426.0,153.0,422.0,153.0,418.0,153.5,414.0,153.5,410.0,153.5,406.0,154.0,402.0,154.0,398.0,154.0,394.0,154.0,390.0,154.5,386.0,154.5,382.0,155.0,378.0,155.0,374.0,155.5,370.0,153.5,366.0,148.0,362.0,144.5,357.5,140.0" stroke="black" stroke-width="1" fill="none" />
<polyline points="353.5,140.5,356.5,144.5,360.5,148.5,365.0,152.5" stroke="black" stroke-width="1" fill="none" />
<polyline points="367.5,153.5,363.5,151.0,359.5,147.0,355.5,142.5,351.5,141.0,347.5,145.0,343.5,149.0,339.5,153.0,335.5,154.0,331.5,154.0,327.5,154.5,323.5,154.5,319.5,155.0,315.5,155.0,311.5,154.5,310.0,152.5,306.0,155.0,302.0,155.0,298.0,155.5,294.0,155.5,290.0,155.5,286.0,155.5,282.0,156.0,278.0,156.0,274.0,156.5,270.0,156.0,266.0,153.5,262.5,148.5,258.5,146.5,254.5,142.0,248.5,145.0,244.5,146.5,244.5,148.5,240.5,153.0,236.5,157.5,232.5,159.0,228.5,159.0,224.5,159.0,220.5,159.0,216.5,159.0,212.5,159.5,208.5,159.5,204.5,160.0,200.5,160.0,196.5,160.5,192.5,160.5,188.5,160.5,184.5,161.0,180.5,161.0,176.5,161.0,172.5,161.5,168.5,161.5,164.5,161.5,160.5,162.0,156.5,162.0,152.5,163.0" stroke="black" stroke-width="1" fill="none" />
<polyline points="146.0,168.0,149.0,164.0,146.0,168.0,146.5,172.0,146.5,176.0,146.5,180.0,147.0,184.0,147.0,188.0,147.0,192.0,147.0,196.0,147.0,200.0,147.5,204.0,147.5,208.0,147.5,212.0,148.0,216.0,148.0,220.0" stroke="black" stroke-width="1" fill="none" />
<polyline points="217.5,161.5,221.5,161.5,225.5,161.0,229.5,160.5,233.5,161.5,237.5,164.0,241.5,168.0,245.5,171.5,249.5,175.5" stroke="black" stroke-width="1" fill="none" />
<polyline points="264.0,152.0,260.0,149.5" stroke="black" stroke-width="1" fill="none" />
<polyline points="249.5,59.0,253.5,57.5,257.5,57.0,261.5,57.0,265.5,57.0,269.5,57.0,273.5,56.5,277.5,56.5,281.5,56.5,288.0,55.5,292.0,55.5,296.0,55.0,300.0,55.5,304.0,55.5,308.0,55.0,312.0,54.5,316.0,55.0" stroke="black" stroke-width="1" fill="none" />
<polyline points="337.0,54.0,341.0,54.5,345.0,54.5,349.0,54.0,354.5,57.5,358.5,54.5,362.5,54.0" stroke="black" stroke-width="1" fill="none" />
<polyline points="431.0,54.0,435.0,54.5,439.0,55.0,443.0,54.0,447.0,55.5,451.0,58.5" stroke="black" stroke-width="1" fill="none" />
<polyline points="443.0,54.0,450.5,58.0,452.5,62.0,453.0,66.0,453.5,70.0" stroke="black" stroke-width="1" fill="none" />
<polyline points="354.5,135.0,353.0,139.0,349.5,143.0,345.5,147.0,342.0,151.0,344.0,158.0,348.5,162.0,353.0,166.0,355.5,170.0,357.0,174.0,357.0,178.0" stroke="black" stroke-width="1" fill="none" />
<polyline points="251.5,179.5,249.0,175.5,245.0,171.5,240.5,167.5,236.0,163.5,236.5,157.5,240.0,153.5,243.5,149.5,248.0,145.5,251.0,141.5,251.0,137.5,250.5,133.5,250.0,129.5,250.0,125.5,250.0,121.5,250.0,117.5,249.5,113.5,249.5,109.5,249.5,105.5,249.0,101.5,249.0,97.5,249.0,93.5,248.5,89.5,248.5,85.5,248.5,81.5,248.0,77.5,248.0,73.5,248.0,69.5,247.5,65.5,247.0,61.5,246.0,59.5,242.0,58.5,238.0,59.0,234.0,59.5,230.0,59.0" stroke="black" stroke-width="1" fill="none" />
<polyline points="251.0,57.0,249.5,61.0,249.5,65.0,249.5,69.0,249.5,73.0,249.5,77.0,250.0,81.0,250.0,85.0,250.0,89.0,250.5,93.0,250.5,97.0,250.5,101.0,251.0,105.0,251.0,109.0,251.0,113.0,251.5,117.0,251.5,121.0,251.5,125.0,252.0,129.0,252.0,133.0,252.5,137.0,253.5,141.0,256.5,145.0,263.5,149.0,266.5,154.0,266.0,159.5,261.5,163.5,257.5,167.5,254.5,171.5,253.0,175.5,253.0,179.5,253.5,183.5,253.5,187.5,253.5,191.5,253.5,195.5,254.0,199.5,254.0,203.5,254.0,207.5,254.5,211.5,254.5,215.5,254.5,219.5,254.5,223.5,255.0,227.5,255.0,231.5,255.0,235.5,255.0,239.5,255.5,243.5,252.5,247.5,249.0,251.5,245.0,255.5,241.0,259.5,236.5,263.5" stroke="black" stroke-width="1" fill="none" />
<polyline points="178.0,61.0,174.0,61.0,170.0,61.0,166.0,61.5,162.0,64.5,160.5,61.5,156.5,61.5,152.5,62.5,148.5,64.5,144.5,69.5" stroke="black" stroke-width="1" fill="none" />
<polyline points="154.0,61.5,147.0,65.5,144.5,69.5,144.5,73.5,144.5,77.5,145.0,81.5,145.0,85.5,145.0,89.5,145.0,93.5,145.0,97.5,145.5,101.5,145.5,105.5,145.5,109.5,146.0,113.5,146.0,117.5,146.0,121.5,146.0,125.5,146.0,129.5,146.5,133.5" stroke="black" stroke-width="1" fill="none" />
<polyline points="459.5,247.0,460.0,251.0,460.0,255.0" stroke="black" stroke-width="1" fill="none" />
</svg>