<svg xmlns="http://www.w3.org/2000/svg" height="383px" width="462px" version="1.1"><polyline points="442.0,123.5,447.5,127.5,449.5,131.5,450.0,135.5,450.5,139.5,450.5,143.5,451.0,147.5,451.5,151.5,451.5,155.5,452.0,159.5,452.5,163.5,452.5,167.5,453.0,171.5,453.5,175.5,454.0,179.5,454.0,183.5,454.5,187.5,454.5,191.5,455.0,195.5,455.5,199.5,455.5,203.5,456.0,207.5,456.0,211.5,456.5,215.5,457.0,219.5,457.0,223.5,456.5,227.5,455.5,232.0,458.5,236.0,459.0,240.0,459.0,244.0,459.5,248.0,459.5,252.0,460.0,256.0,460.0,260.0,460.5,264.0,460.5,268.0,461.0,272.0,461.0,276.0,461.5,280.0,461.5,284.0" stroke="black" stroke-width="1" fill="none" />
<polyline points="458.0,234.0,454.0,231.0" stroke="black" stroke-width="1" fill="none" />
<polyline points="370.5,242.5,369.0,240.0,365.0,243.5,361.0,248.5,357.0,253.5,358.5,251.5,362.0,247.5,365.0,243.5,369.5,239.5" stroke="black" stroke-width="1" fill="none" />
<polyline points="368.0,242.5,365.5,246.5,362.0,250.5,358.5,254.5,361.0,251.5,365.0,247.0" stroke="black" stroke-width="1" fill="none" />
<polyline points="267.5,241.0,263.5,241.0,259.5,241.0,255.5,241.0,251.5,242.0,247.5,243.5,243.5,247.5,239.5,252.0,235.5,257.5" stroke="black" stroke-width="1" fill="none" />
<polyline points="240.0,254.5,244.0,250.0,248.0,246.5,246.0,248.5,241.5,252.5,237.5,258.0,237.5,258.0,239.5,260.0,243.5,254.0,247.5,250.0,250.0,246.5" stroke="black" stroke-width="1" fill="none" />
<polyline points="249.5,246.5,247.5,250.5,243.0,254.5,241.0,258.5" stroke="black" stroke-width="1" fill="none" />
<polyline points="250.0,242.0,245.0,246.0,241.0,250.0,237.5,254.0,235.5,258.0,234.5,262.0,234.5,266.0,235.0,270.0,235.5,274.0,235.5,278.0,236.0,282.0,236.5,286.0,236.0,290.0,236.5,294.0" stroke="black" stroke-width="1" fill="none" />
<polyline points="203.5,243.5,199.5,243.5,195.5,243.5,191.5,244.0,187.5,244.0,183.5,244.0,179.5,244.0,175.5,244.5,171.5,244.5,167.5,244.5,163.5,245.0,159.5,245.0,155.5,245.0,151.5,245.5,147.5,245.5,143.5,245.5,139.5,246.0,135.5,246.0,131.5,246.0,127.5,246.0,123.5,245.0,119.5,244.0,115.5,241.5" stroke="black" stroke-width="1" fill="none" />
<polyline points="117.5,249.5,121.5,246.0,125.0,249.5" stroke="black" stroke-width="1" fill="none" />
<polyline points="116.0,138.0,120.0,134.0,124.0,132.5,128.0,132.0,132.0,132.0,136.0,132.0,140.0,132.0,144.0,131.5,148.0,131.5,152.0,131.5,156.0,131.5,160.0,131.0,164.0,131.0,168.0,131.0,172.0,130.5,176.0,130.5,180.0,130.5,184.0,130.5,188.0,130.0,192.0,130.0,196.0,130.0,200.0,130.0,204.0,129.5,208.0,129.5,212.0,129.5,216.0,129.0,220.0,129.0,224.0,129.5,228.0,130.0,232.0,128.0,236.0,127.5,240.0,127.5,244.0,127.5,248.0,127.5,252.0,127.0,256.0,127.0,260.0,127.0,264.0,126.5,268.0,126.5,272.0,126.5,276.0,126.5,280.0,126.0,284.0,126.0,288.0,126.0,292.0,126.0,296.0,126.0,300.0,125.5,304.0,125.5,308.0,125.5,312.0,125.5,316.0,125.5,320.0,125.0,324.0,125.0,328.0,125.0,332.0,125.0,336.0,124.5,340.0,126.5,344.0,127.0,348.0,126.0,352.0,125.5,356.0,125.5,360.0,125.5,364.0,125.5,368.0,125.0,372.0,125.0,376.0,125.0,380.0,125.0,384.0,124.5,388.0,124.5,392.0,124.5,396.0,124.0,400.0,124.0,404.0,124.0,408.0,124.0,412.0,123.5,416.0,123.5,420.0,123.5,424.0,123.0,428.0,123.0,432.0,123.0,436.0,123.0,440.0,123.0,444.0,124.0,448.0,127.5" stroke="black" stroke-width="1" fill="none" />
<polyline points="345.5,165.5,345.5,161.5,345.0,157.5,345.0,153.5,344.5,149.5,344.5,145.5,344.0,141.5,343.5,137.5,343.5,133.5,341.0,129.0,338.0,125.0" stroke="black" stroke-width="1" fill="none" />
<polyline points="231.5,128.0,230.5,132.0,231.5,134.0" stroke="black" stroke-width="1" fill="none" />
<polyline points="122.5,132.5,117.0,136.5,115.5,140.5,115.0,144.5,115.0,148.5,115.0,152.5,115.0,156.5,115.0,160.5,115.5,164.5,115.5,168.5,115.5,172.5,115.5,176.5,115.5,180.5,116.0,184.5,116.0,188.5,116.0,192.5,116.0,196.5,116.0,200.5,116.0,204.5,116.5,208.5,116.0,212.5,116.0,216.5,116.5,220.5,116.5,224.5,116.5,228.5,116.5,232.5,117.0,236.5,117.0,240.5,116.5,243.0,119.0,247.0,118.0,251.0,117.5,255.0,118.0,259.0,118.0,263.0,118.0,267.0,118.0,271.0,118.0,275.0,118.0,279.0,118.0,283.0,118.0,287.0,118.5,291.0,118.0,295.0,118.5,299.0,118.5,303.0,118.5,307.0,118.5,311.0,118.5,315.0,119.0,319.0,119.0,323.0,119.0,327.0,119.5,331.0,119.5,335.0,119.0,339.0,119.5,343.0,119.5,347.0,120.0,351.0,120.0,355.0,120.0,359.0,119.5,363.0,121.5,367.0,119.5,371.0,120.0,375.0,120.0,379.0,120.0,383.0" stroke="black" stroke-width="1" fill="none" />
<polyline points="116.5,381.0,116.0,377.0" stroke="black" stroke-width="1" fill="none" />
<polyline points="115.5,376.5,110.0,380.5,108.5,382.0,112.5,378.0,116.5,377.5" stroke="black" stroke-width="1" fill="none" />
<polyline points="126.5,371.0,126.0,369.5,127.5,370.5,126.0,367.5,124.5,365.5,120.5,363.5" stroke="black" stroke-width="1" fill="none" />
<polyline points="252.0,363.0,248.5,367.0,245.0,371.0,241.5,375.0,238.5,379.0,237.5,383.0,241.0,375.5,245.0,371.0,249.0,366.5,253.0,363.0,257.0,361.5,261.0,361.5" stroke="black" stroke-width="1" fill="none" />
<polyline points="257.0,365.0,254.5,369.0,251.0,373.0,247.5,377.0,247.0,377.5,251.0,373.0,254.0,367.5" stroke="black" stroke-width="1" fill="none" />
<polyline points="256.5,364.5,251.5,368.5,255.0,365.0,259.0,365.5" stroke="black" stroke-width="1" fill="none" />
<polyline points="369.5,360.5,367.5,364.5,365.0,368.0,360.5,372.0,363.0,370.0,366.5,366.0,370.0,361.0" stroke="black" stroke-width="1" fill="none" />
</svg>