<svg xmlns="http://www.w3.org/2000/svg" height="339px" width="511px" version="1.1"><polyline points="489.5,0.0,490.5,4.0,493.0,8.0,489.5,12.0,485.5,16.0,481.0,20.0,477.0,24.0,472.5,28.0,468.5,32.0,464.5,36.0,460.5,40.0,464.5,37.5" stroke="black" stroke-width="1" fill="none" />
<polyline points="465.5,36.5,461.5,40.5,457.0,44.5,453.0,48.5,448.5,52.5,444.5,56.5,440.5,60.5,436.5,64.5,432.5,68.5,428.5,72.5,424.5,76.5,420.5,80.5,416.5,84.5,412.5,88.5,410.5,92.0,411.0,96.0,411.5,100.0,412.0,104.0,412.5,108.0,413.0,112.0,413.5,116.0,414.0,120.0,414.5,124.0,414.0,126.0,412.5,132.0" stroke="black" stroke-width="1" fill="none" />
<polyline points="410.5,135.5,414.5,138.0" stroke="black" stroke-width="1" fill="none" />
<polyline points="424.5,141.0,428.5,136.0,432.5,131.0,436.5,126.0,440.5,121.5,444.5,116.5,448.5,111.5,452.5,106.5,456.5,101.5,460.5,96.5,464.5,92.0,468.5,87.5,472.5,83.5,476.5,78.5,480.5,74.5,484.5,70.0,488.5,65.5,492.5,61.0,496.5,56.5,500.5,52.0,504.5,48.0,508.5,43.0,510.0,41.5,506.5,45.5,503.0,49.5,499.5,53.5,495.5,57.5,492.0,61.5,488.5,65.5,485.0,69.5,481.5,73.5,477.5,77.5,474.0,81.5,470.5,85.5,467.0,89.5,463.0,93.5,459.5,97.5,456.5,101.5,453.5,105.5,450.0,109.5,447.0,113.5,443.5,117.5,440.5,121.5,437.0,125.5,434.0,129.5,430.5,133.5,427.5,137.5,424.5,141.5,425.5,145.5,433.0,149.5,432.0,153.5,429.0,157.5,425.5,161.5,422.0,165.5,418.0,169.5,415.0,173.5,411.0,177.5,408.0,181.5,404.5,185.5,402.0,189.5,400.0,193.5,397.5,197.5,395.5,201.5,394.0,205.5,392.5,209.5,391.0,213.5,390.0,217.5,389.0,221.5,388.0,225.5,387.5,229.5,387.0,233.5,386.5,237.5,386.0,241.5,386.0,245.5,386.0,249.5,386.0,253.5,386.0,257.5,385.5,261.5,385.0,265.5,384.0,269.5,383.0,273.5,382.0,277.5,380.0,281.5,378.0,285.5,375.5,289.5,373.0,293.5,370.0,297.5,366.5,301.5,362.5,305.5,357.5,309.5,353.0,313.5,347.0,317.5,340.5,321.5,334.0,325.5,325.0,329.5,314.5,333.5" stroke="black" stroke-width="1" fill="none" />
<polyline points="269.5,307.5,273.5,313.5,277.5,316.5,281.5,318.0,285.5,318.5,289.5,318.5,293.5,318.5,297.5,318.0,301.5,317.5,305.5,317.0,309.5,316.5,313.5,315.5,317.5,314.5,321.5,313.0,325.5,311.5,329.5,310.0,333.5,308.0,337.5,305.5,341.5,303.5,345.5,300.0,349.5,297.0,353.5,293.5,357.5,289.0,361.5,283.5,365.5,275.0" stroke="black" stroke-width="1" fill="none" />
<polyline points="366.0,251.5,362.0,242.0,358.0,238.0,354.0,235.5,350.0,234.0,346.0,234.0,342.0,234.5,338.0,236.0,334.0,239.0,330.0,242.0,326.0,245.5,322.0,249.0,318.0,252.5,314.0,255.5,310.0,259.0,306.0,262.5,302.0,266.0,298.0,269.0,294.0,272.5,290.0,276.0,286.0,279.5,282.0,283.0,278.0,286.5,274.0,290.0,270.0,295.5" stroke="black" stroke-width="1" fill="none" />
<polyline points="249.5,288.0,253.5,281.0,257.5,276.5,261.5,272.5,265.5,268.0,269.5,264.5" stroke="black" stroke-width="1" fill="none" />
<polyline points="266.5,260.5,262.0,264.5,258.0,268.5,254.0,272.5,250.0,276.5,244.5,280.5" stroke="black" stroke-width="1" fill="none" />
<polyline points="249.5,313.0,253.5,320.5,257.5,325.0,261.5,328.5,265.5,331.5,269.5,334.0,273.5,335.5,277.5,337.0,281.5,338.0,285.5,338.0,289.5,338.5,293.5,338.0,297.5,337.5,301.5,337.0,305.5,336.0,309.5,335.0,313.5,334.0,317.5,332.5,321.5,331.0,325.5,329.5,329.5,327.5,333.5,326.0,337.5,323.5,341.5,321.0,345.5,318.5,349.5,316.0,353.5,313.0,357.5,309.5,361.5,306.5,365.5,304.5,368.5,299.0,372.5,294.0,376.5,288.5,379.5,282.5" stroke="black" stroke-width="1" fill="none" />
<polyline points="351.0,234.5,358.0,238.5,362.0,242.5,364.0,246.5,365.5,250.5,366.5,254.5,367.0,258.5,367.5,262.5,367.5,266.5,366.5,270.5,366.0,274.5,364.5,278.5,362.5,282.5,359.5,286.5,356.5,290.5,352.0,294.5,347.5,298.5,342.5,302.5,335.5,306.5,327.5,310.5,316.5,314.5" stroke="black" stroke-width="1" fill="none" />
<polyline points="285.5,239.5,289.5,235.5,293.5,231.5,297.5,227.5,301.5,223.5,305.5,219.5,309.5,215.5,313.5,211.5,317.5,207.5,321.5,203.5,325.5,199.0,329.5,195.0,333.5,191.0,337.5,187.0,341.5,183.0,345.5,178.5,349.5,174.5,353.5,170.5,357.5,166.5,361.5,163.0,365.5,159.0,369.5,154.0,373.5,150.0,377.5,146.5,381.5,142.5,385.5,139.0,389.5,134.5" stroke="black" stroke-width="1" fill="none" />
<polyline points="404.0,135.0,398.0,139.0,394.5,143.0,391.5,147.0,387.5,151.0,383.5,155.0,379.5,159.0,375.0,163.0,370.5,167.0,366.0,171.0,362.0,175.0,357.5,179.0,353.5,183.0,349.0,187.0,345.0,191.0,341.0,195.0,337.0,199.0,332.5,203.0,328.5,207.0,324.5,211.0,320.5,215.0,316.5,219.0,312.0,223.0,308.0,227.0,304.0,231.0,299.5,235.0,295.5,239.0" stroke="black" stroke-width="1" fill="none" />
<polyline points="291.0,197.0,287.0,202.0,283.0,207.0,279.0,211.5,275.0,216.5,271.0,220.5,267.0,226.0,263.0,231.0,259.0,236.0,255.0,240.5,251.0,245.0,247.0,250.0,243.0,254.5,239.0,258.5,235.0,262.0,231.0,263.0,227.0,263.5,223.0,262.5,219.0,259.5,215.0,253.5" stroke="black" stroke-width="1" fill="none" />
<polyline points="199.0,259.5,203.0,268.0,207.0,273.5,211.0,277.5,215.0,281.0,219.0,283.0,223.0,284.0,227.0,285.0,231.0,285.0,235.0,284.5,239.0,283.0,243.0,281.5,247.0,279.0,251.0,275.5,255.0,271.5,259.0,267.5,263.0,263.5,267.0,260.5,271.0,259.5,271.5,262.5,267.5,266.5,263.5,270.5,259.5,274.5,255.5,278.5,252.5,282.5,250.5,286.5,249.0,290.5,248.0,294.5,247.0,298.5,247.0,302.5,247.5,306.5,248.5,310.5,250.0,314.5,252.0,318.5,255.0,322.5,258.5,326.5,263.0,330.5,270.5,334.5" stroke="black" stroke-width="1" fill="none" />
<polyline points="274.0,314.5,270.5,310.5,269.0,306.5,268.5,302.5,269.5,298.5,270.5,294.5,273.5,290.5,277.5,286.5,282.5,282.5,287.0,278.5,292.0,274.5,296.5,270.5,301.5,266.5,306.0,262.5,310.5,258.5,315.5,254.5,320.5,250.5,325.0,246.5,329.5,242.5,334.5,238.5,341.0,234.5" stroke="black" stroke-width="1" fill="none" />
<polyline points="390.5,214.5,394.5,203.5,398.5,195.5,402.5,188.5,406.5,183.0,410.5,178.0,414.5,174.0,418.5,169.0,422.5,164.5,426.5,160.5,430.5,155.5" stroke="black" stroke-width="1" fill="none" />
<polyline points="433.5,149.5,429.5,148.0,425.5,145.0" stroke="black" stroke-width="1" fill="none" />
<polyline points="418.5,140.5,417.5,140.0,411.0,136.5,410.5,132.5,413.5,128.5,412.5,124.5,413.0,120.5,410.0,114.5,409.5,110.5,409.0,106.5,408.5,102.5,408.0,98.5,409.0,94.5,409.0,90.5,412.0,86.5,408.5,92.0" stroke="black" stroke-width="1" fill="none" />
<polyline points="410.0,91.0,414.0,87.0,418.0,83.0,422.0,79.0,426.0,75.0,430.0,70.5,434.0,67.0,438.0,63.0,442.0,59.0,446.0,55.5,450.0,51.5,454.0,47.0,458.0,42.5,462.0,38.0,466.0,34.0,470.0,30.5,474.0,26.5,478.0,23.0,482.0,19.5,486.0,15.5,490.0,11.5" stroke="black" stroke-width="1" fill="none" />
<polyline points="475.5,27.5,472.0,31.0" stroke="black" stroke-width="1" fill="none" />
<polyline points="508.5,34.0,504.5,39.0,500.5,44.5,496.5,49.0,492.5,54.0,488.5,59.0,484.5,64.5,480.5,70.0,476.5,75.0,472.5,80.5,468.5,85.5,467.0,87.5,470.5,83.5,473.5,79.5,476.0,75.5,479.5,71.5,482.5,67.5,485.5,63.5,488.5,59.5,491.5,55.5,494.5,51.5,498.0,47.5,501.0,43.5,504.5,39.5,508.0,35.5,511.0,31.5" stroke="black" stroke-width="1" fill="none" />
<polyline points="450.5,73.0,454.5,75.0,454.5,75.0,457.5,76.5,458.5,80.5,458.0,84.5,455.5,88.5" stroke="black" stroke-width="1" fill="none" />
<polyline points="454.0,77.0,450.0,75.5" stroke="black" stroke-width="1" fill="none" />
<polyline points="445.5,73.5,446.0,77.5,443.5,81.5,438.0,84.5,442.0,90.0,446.0,91.5,450.0,92.0,454.0,89.5,458.0,84.5" stroke="black" stroke-width="1" fill="none" />
<polyline points="441.5,90.0,438.5,86.0,437.5,82.0,438.5,78.0,441.0,74.0,443.5,73.0" stroke="black" stroke-width="1" fill="none" />
<polyline points="438.5,77.5,442.5,73.5,446.5,70.5,450.5,73.5,454.0,77.5,450.0,80.5,444.0,82.5,448.0,79.5,448.5,76.0,450.0,71.5,454.0,72.5,457.0,79.0" stroke="black" stroke-width="1" fill="none" />
<polyline points="453.0,80.5,449.0,81.0,443.5,81.5,440.0,84.0,439.0,83.0,436.5,80.0,437.0,76.0" stroke="black" stroke-width="1" fill="none" />
<polyline points="409.5,98.5,409.5,102.5,410.5,106.5,411.0,110.5,411.5,114.5,412.0,118.5,412.0,122.5" stroke="black" stroke-width="1" fill="none" />
<polyline points="406.5,116.5,402.5,116.5,398.5,116.5,394.5,119.5,390.5,123.0,386.5,118.5,382.5,112.5" stroke="black" stroke-width="1" fill="none" />
<polyline points="383.0,109.5,378.0,105.0" stroke="black" stroke-width="1" fill="none" />
<polyline points="373.0,104.5,368.5,108.5,364.5,112.5,360.0,116.5,356.5,120.5,352.0,124.5,346.5,128.5,340.5,132.5,334.5,136.5,327.5,140.5,319.0,144.5" stroke="black" stroke-width="1" fill="none" />
<polyline points="281.0,172.0,288.5,176.0,291.5,180.0,293.5,184.0,294.0,188.0,293.5,192.0,291.5,196.0,289.0,200.0,285.5,204.0,282.5,208.0,279.0,212.0,275.5,216.0,271.5,220.0,268.5,224.0,265.5,228.0,262.0,232.0,259.0,236.0,255.5,240.0,252.0,244.0,248.5,248.0,245.0,252.0,242.0,256.0,237.5,260.0,228.0,264.0" stroke="black" stroke-width="1" fill="none" />
<polyline points="217.5,220.5,221.5,210.5,225.5,201.5,229.5,195.5,233.5,189.5,237.5,185.0,241.5,181.0,245.5,178.0,249.5,175.0,253.5,173.0,257.5,171.5,261.5,170.5,265.5,170.0,269.5,170.0,273.5,170.0,277.5,171.0,281.5,172.0,285.5,173.5,289.5,176.5,293.5,184.0" stroke="black" stroke-width="1" fill="none" />
<polyline points="255.0,172.0,248.0,176.0,242.5,180.0,238.5,184.0,235.0,188.0,232.0,192.0,229.0,196.0,226.5,200.0,224.5,204.0,222.5,208.0,220.5,212.0,219.5,216.0,218.0,220.0,217.0,224.0,216.0,228.0,215.0,232.0,214.5,236.0,214.5,240.0,214.0,244.0,214.0,248.0,214.5,252.0,215.5,256.0,219.0,260.0" stroke="black" stroke-width="1" fill="none" />
<polyline points="201.0,223.0,205.0,212.5,209.0,204.0,213.0,197.0,217.0,190.5,221.0,185.0,225.0,180.0,229.0,175.5,233.0,171.5,237.0,168.5,241.0,165.5,245.0,163.0,249.0,160.5,253.0,158.5,257.0,157.0,261.0,156.0,265.0,155.0,269.0,154.0,273.0,153.5,277.0,153.0,281.0,153.0,285.0,152.5,289.0,152.0,293.0,151.5,297.0,151.0,301.0,150.0,305.0,149.5,309.0,148.0,313.0,147.0,317.0,145.5,321.0,143.5,325.0,142.0,329.0,140.0,333.0,137.5,337.0,135.0,341.0,132.0,345.0,129.5,349.0,126.5,353.0,123.5,357.0,120.0,361.0,115.5,365.0,112.0,369.0,108.0,373.0,104.5,377.0,104.5,381.0,106.0,385.0,107.5,389.0,104.5,393.0,101.0,397.0,97.5,401.0,94.0,405.0,91.0,409.0,87.5,413.0,84.0,417.0,81.0,421.0,77.5,424.0,74.5,419.5,78.5,414.5,82.5,410.0,86.5,405.5,90.5,400.5,94.5,396.0,98.5,391.0,102.5,386.5,106.5,382.0,111.0,384.0,115.0,386.5,119.0,389.0,123.0,394.5,121.5,398.5,118.5,402.5,118.0,406.5,118.5,410.5,118.5" stroke="black" stroke-width="1" fill="none" />
<polyline points="399.0,118.0,393.5,122.0,391.5,126.0,392.0,130.0,390.0,134.0,386.5,138.0,382.5,142.0,378.0,146.0,373.5,150.0,369.5,154.0,366.0,158.0,362.5,162.0,358.0,166.0,354.0,170.0,350.0,174.0,346.0,178.0,342.5,182.0,338.5,186.0,334.5,190.0,330.5,194.0,326.5,198.0,323.0,202.0,319.0,206.0,315.0,210.0,311.0,214.0,307.0,218.0,303.0,222.0,299.0,226.0,295.0,230.0,291.0,234.0,287.5,238.0,285.5,242.0,286.5,243.5,290.5,241.5,294.5,239.5,298.5,236.0,302.5,232.5,306.5,228.5,310.5,224.5,314.5,221.0,318.5,217.0,322.5,213.0,326.5,209.0,330.5,205.0,334.5,201.5,338.5,197.5,342.5,193.5,346.5,189.5,350.5,185.5,354.5,182.0,358.5,178.0,362.5,174.5,366.5,170.5,370.5,167.0,374.5,163.5,378.5,160.0,382.5,156.0,386.5,152.0,390.5,148.0,394.5,143.0,398.5,138.5,402.5,135.5,406.5,134.0,410.5,131.5" stroke="black" stroke-width="1" fill="none" />
<polyline points="398.5,116.5,393.5,120.5" stroke="black" stroke-width="1" fill="none" />
<polyline points="259.5,156.0,250.0,160.0,243.0,164.0,237.5,168.0,232.5,172.0,228.5,176.0,225.0,180.0,222.0,184.0,219.0,188.0,216.0,192.0,213.5,196.0,211.5,200.0,209.0,204.0,207.0,208.0,205.5,212.0,204.0,216.0,202.0,220.0,201.0,224.0,200.0,228.0,198.5,232.0,198.0,236.0,197.0,240.0,197.0,244.0,196.5,248.0,197.0,252.0,198.0,256.0,199.0,260.0,200.5,264.0,202.5,268.0,205.5,272.0,209.0,276.0,213.5,280.0,221.5,284.0" stroke="black" stroke-width="1" fill="none" />
</svg>