<svg xmlns="http://www.w3.org/2000/svg" height="571px" width="475px" version="1.1"><polyline points="268.0,29.5,268.0,33.5,272.0,34.5,270.5,35.0,275.5,37.0,279.5,37.0" stroke="black" stroke-width="1" fill="none" />
<polyline points="279.5,37.5,278.0,41.5,282.0,44.5" stroke="black" stroke-width="1" fill="none" />
<polyline points="280.0,38.0,280.0,42.0,284.0,46.0,283.5,50.0,287.5,54.0,287.0,58.0,286.5,62.0,287.5,63.5,286.5,67.5,283.5,70.5,283.5,74.5,277.5,79.5,276.5,83.5,273.0,83.5,276.0,87.0,271.5,90.5,273.5,91.0,277.5,92.0,281.5,91.5" stroke="black" stroke-width="1" fill="none" />
<polyline points="283.5,93.5,282.5,97.5,282.5,101.5,281.5,105.5,281.5,109.5,281.5,113.5,281.5,117.5,282.5,122.5" stroke="black" stroke-width="1" fill="none" />
<polyline points="280.0,123.0,276.0,122.5,272.0,122.5,268.0,122.0" stroke="black" stroke-width="1" fill="none" />
<polyline points="264.5,103.0,260.5,103.0,256.5,103.0,252.5,103.0" stroke="black" stroke-width="1" fill="none" />
<polyline points="249.0,99.0,248.0,103.0,249.5,103.0,250.0,99.0,256.5,101.5,261.0,100.0,265.5,100.5,270.0,99.0,274.0,99.0" stroke="black" stroke-width="1" fill="none" />
<polyline points="275.0,99.5,276.0,103.5,276.0,107.5,276.0,111.5" stroke="black" stroke-width="1" fill="none" />
<polyline points="272.5,115.0,268.5,115.5,264.5,115.0,260.5,114.5,256.5,114.5,252.5,115.0,248.5,114.5,244.5,115.0,240.5,114.5,236.5,114.5,232.5,114.5,228.5,115.0" stroke="black" stroke-width="1" fill="none" />
<polyline points="230.0,117.5,234.0,117.0" stroke="black" stroke-width="1" fill="none" />
<polyline points="232.5,123.0,228.5,123.0,224.0,123.5,220.0,124.5" stroke="black" stroke-width="1" fill="none" />
<polyline points="225.0,126.5,229.0,127.0" stroke="black" stroke-width="1" fill="none" />
<polyline points="236.5,126.5,238.5,122.5" stroke="black" stroke-width="1" fill="none" />
<polyline points="257.0,116.5,250.5,117.0,246.5,117.0,242.5,117.0,236.0,116.0,232.0,116.0,228.0,118.0,225.5,116.5,225.5,112.5,225.5,108.5,225.5,107.0" stroke="black" stroke-width="1" fill="none" />
<polyline points="229.0,100.5,232.0,97.5,228.5,102.5,232.5,103.0,235.5,99.5,239.5,96.0" stroke="black" stroke-width="1" fill="none" />
<polyline points="241.5,89.5,247.0,87.5" stroke="black" stroke-width="1" fill="none" />
<polyline points="246.0,76.0,248.0,72.0,248.5,68.0,248.5,68.0" stroke="black" stroke-width="1" fill="none" />
<polyline points="248.0,72.0,244.5,74.5,240.5,77.0" stroke="black" stroke-width="1" fill="none" />
<polyline points="241.0,76.0,240.0,80.0,236.0,84.0,232.0,88.0,230.5,92.0,225.5,91.5,229.0,91.5,230.0,87.5,230.5,91.0,233.5,83.5,234.0,86.5,237.0,79.5,237.5,82.5" stroke="black" stroke-width="1" fill="none" />
<polyline points="225.5,91.5,225.0,95.5,222.0,99.5,219.5,104.0" stroke="black" stroke-width="1" fill="none" />
<polyline points="217.5,99.0,217.5,103.0,218.0,107.0,218.0,111.0,219.0,115.0,218.0,119.0,217.5,123.0,218.5,124.0,219.0,126.5,223.0,127.0,227.0,125.0,231.0,124.5,235.0,125.0,235.5,126.5,239.5,122.5,243.5,122.5,247.5,122.0,251.5,122.5,255.5,122.5,259.5,122.5,263.5,122.0,267.5,121.5,271.5,120.5,275.5,120.5,280.5,120.0" stroke="black" stroke-width="1" fill="none" />
<polyline points="283.5,120.5,283.0,116.5,283.0,112.5,283.0,108.5,284.0,104.5" stroke="black" stroke-width="1" fill="none" />
<polyline points="270.5,94.0,266.5,94.5" stroke="black" stroke-width="1" fill="none" />
<polyline points="269.5,79.0,270.0,77.5,271.0,76.0,274.0,72.0,277.5,68.0" stroke="black" stroke-width="1" fill="none" />
<polyline points="283.5,68.0,285.0,63.5,284.5,59.5,286.0,54.0,284.5,58.0" stroke="black" stroke-width="1" fill="none" />
<polyline points="280.0,77.0,276.0,81.0" stroke="black" stroke-width="1" fill="none" />
<polyline points="259.0,76.0,256.0,76.0,256.0,79.5,252.0,80.0,250.0,83.5,245.5,85.0,245.0,91.0,241.0,92.5,236.5,94.0,235.0,94.5,239.0,90.5,243.0,86.5,247.0,82.5,253.5,79.5,255.0,75.5" stroke="black" stroke-width="1" fill="none" />
<polyline points="253.0,68.5,250.5,70.5,253.5,68.0,252.5,65.0,252.5,61.0" stroke="black" stroke-width="1" fill="none" />
<polyline points="250.0,53.5,254.0,54.0,260.0,56.5" stroke="black" stroke-width="1" fill="none" />
<polyline points="261.0,58.0,260.5,62.0,260.5,66.0,260.5,70.0,260.5,74.0,256.5,76.5,253.0,82.5,248.5,84.5,245.5,87.5,244.5,91.5,241.5,94.5,237.5,97.5,233.0,100.5,230.5,101.0,229.0,105.5,225.0,106.0,224.0,110.5" stroke="black" stroke-width="1" fill="none" />
<polyline points="217.5,99.0,221.5,99.0,223.0,95.5,227.0,95.0" stroke="black" stroke-width="1" fill="none" />
<polyline points="228.5,68.5,232.5,68.0,237.5,62.5" stroke="black" stroke-width="1" fill="none" />
<polyline points="241.5,60.5,240.0,64.5,237.0,65.5,234.0,64.5,237.5,66.5,240.0,64.0,243.5,60.5,247.5,59.5,251.0,60.5" stroke="black" stroke-width="1" fill="none" />
<polyline points="256.5,50.5,254.0,52.5,250.0,52.5,246.0,53.0,242.0,52.5,238.0,53.0,235.5,57.0,231.5,57.0,227.5,56.5,228.5,54.0,229.0,50.0,233.0,48.0,237.0,43.5,233.0,46.0" stroke="black" stroke-width="1" fill="none" />
<polyline points="237.0,41.0,241.0,41.0,245.5,37.0,244.5,41.0" stroke="black" stroke-width="1" fill="none" />
<polyline points="245.0,37.5,249.0,37.0,253.0,35.0,257.0,35.5,260.5,38.5,263.0,41.0,267.0,39.0,268.5,45.0,269.5,42.5,273.5,44.0,274.0,48.5,278.0,51.5,278.5,54.0,278.5,56.5" stroke="black" stroke-width="1" fill="none" />
<polyline points="269.5,42.5,275.0,46.5,276.0,51.5,276.0,55.5,280.0,59.5,278.5,63.5,276.0,67.5,276.0,71.5,272.5,74.5,268.0,78.0,264.5,81.5,260.5,86.0,260.5,90.0,256.0,94.0,256.0,93.0,260.0,91.0" stroke="black" stroke-width="1" fill="none" />
<polyline points="230.5,59.0,226.5,57.0" stroke="black" stroke-width="1" fill="none" />
<polyline points="226.0,51.0,228.0,47.5,226.0,51.0,226.5,55.0,227.5,59.0,227.5,63.0" stroke="black" stroke-width="1" fill="none" />
<polyline points="223.5,76.5,221.5,72.5,222.0,68.5,221.5,64.5,221.5,60.5,221.5,56.5,221.0,51.5,219.5,47.0,221.0,42.5,226.0,41.5,230.0,39.0,226.0,41.5" stroke="black" stroke-width="1" fill="none" />
<polyline points="218.0,44.5,217.5,48.5,217.5,52.5" stroke="black" stroke-width="1" fill="none" />
<polyline points="217.5,45.0,221.5,44.5,224.0,41.0,228.0,37.0,232.0,37.0,236.0,33.0,240.0,33.0,244.0,29.0,248.0,29.0,252.0,29.5,256.0,30.0,260.0,29.0,264.0,29.0,268.0,29.0,268.5,33.5" stroke="black" stroke-width="1" fill="none" />
<polyline points="263.0,30.5,259.0,30.5" stroke="black" stroke-width="1" fill="none" />
<polyline points="259.5,36.0,255.5,38.0" stroke="black" stroke-width="1" fill="none" />
<polyline points="237.5,53.0,235.0,57.0" stroke="black" stroke-width="1" fill="none" />
<polyline points="241.5,181.0,241.0,185.0,237.0,188.0,240.0,189.0,238.5,194.0,239.5,195.0" stroke="black" stroke-width="1" fill="none" />
<polyline points="245.0,200.0,245.0,204.0,247.0,206.0,245.0,207.5,245.0,204.0" stroke="black" stroke-width="1" fill="none" />
<polyline points="252.5,202.0,256.5,201.0,260.5,200.5,264.5,200.0,266.0,196.5,270.0,196.5,270.0,198.5,274.0,197.0,278.0,196.5,282.0,196.5,286.0,196.5" stroke="black" stroke-width="1" fill="none" />
<polyline points="284.5,199.0,280.5,199.5,277.0,200.0,271.5,200.5,267.5,200.5" stroke="black" stroke-width="1" fill="none" />
<polyline points="264.5,206.5,268.5,206.0,272.0,207.5,274.5,208.5,278.5,208.0,282.5,208.0,285.0,208.5,285.5,209.5,287.5,212.5,291.5,212.5,290.5,218.0,294.5,220.5,295.0,224.0,298.0,228.0,299.5,232.5,299.0,236.5,299.0,240.5,299.0,243.0,299.0,240.5" stroke="black" stroke-width="1" fill="none" />
<polyline points="289.0,257.5,293.0,254.0,292.5,252.0,291.5,256.0,287.5,263.0,287.5,265.5,283.0,267.5,281.0,271.5,279.5,269.0,283.0,270.5,286.0,265.5" stroke="black" stroke-width="1" fill="none" />
<polyline points="276.5,260.5,279.0,260.0,280.0,256.0,276.5,258.5" stroke="black" stroke-width="1" fill="none" />
<polyline points="275.0,275.0,273.5,274.0,272.5,274.5,274.0,273.5,277.0,269.5,282.5,265.5,286.0,261.5,291.5,261.0,291.5,258.0,294.0,251.5,295.5,251.5,295.5,247.5,296.0,243.5,296.5,241.0,297.0,237.0,296.5,233.0,295.5,229.0,295.0,224.0,293.5,222.5,291.5,218.5,288.0,214.5,287.5,211.5,283.5,210.0,279.5,209.5" stroke="black" stroke-width="1" fill="none" />
<polyline points="283.0,210.0,285.5,213.0" stroke="black" stroke-width="1" fill="none" />
<polyline points="282.5,216.5,280.0,216.5,276.0,215.5,272.0,216.0,268.0,216.5" stroke="black" stroke-width="1" fill="none" />
<polyline points="262.0,216.0,259.5,216.5" stroke="black" stroke-width="1" fill="none" />
<polyline points="264.5,210.5,268.5,209.5" stroke="black" stroke-width="1" fill="none" />
<polyline points="261.5,209.0,261.0,205.0" stroke="black" stroke-width="1" fill="none" />
<polyline points="261.0,205.0,265.0,204.5,269.0,204.5,273.0,204.5,277.0,204.0,281.0,204.0,285.0,204.0,289.0,204.0,293.0,202.0" stroke="black" stroke-width="1" fill="none" />
<polyline points="294.5,204.5,295.5,203.0,295.5,199.0,295.5,195.0,295.0,191.0,295.0,187.0,295.5,183.0,294.0,181.0,290.0,181.0,286.0,181.5,282.0,181.5,278.0,181.5,274.0,181.5,270.0,182.5,266.0,182.5" stroke="black" stroke-width="1" fill="none" />
<polyline points="255.5,188.5,259.5,188.5,263.5,188.5,268.0,188.5,272.0,188.5,276.0,188.0,280.5,188.5,284.5,189.0" stroke="black" stroke-width="1" fill="none" />
<polyline points="286.0,185.5,282.0,185.5,277.5,186.5,273.5,186.5,269.5,186.5,265.5,187.0,261.5,186.5,257.5,186.5,253.5,187.0,249.5,187.0,245.5,188.0" stroke="black" stroke-width="1" fill="none" />
<polyline points="246.0,187.0,246.0,191.0,245.0,195.0,245.0,199.0,243.5,203.0,242.5,207.0,242.0,211.0,245.0,211.5,241.0,214.5,240.5,218.5,239.5,222.5,239.0,224.5,239.0,228.5,241.0,229.5,244.5,233.0,247.0,235.0,246.0,242.0,248.5,243.5,250.0,247.5,254.5,248.5,258.5,247.5" stroke="black" stroke-width="1" fill="none" />
<polyline points="265.0,249.0,261.0,251.5,264.5,251.5,266.5,249.5,263.5,252.5,262.0,256.0,261.5,254.0,259.0,252.5,265.5,248.5,268.0,245.5,269.5,242.0,268.5,240.5,267.5,237.0,268.0,233.0,264.5,234.5" stroke="black" stroke-width="1" fill="none" />
<polyline points="268.0,237.0,272.0,239.5" stroke="black" stroke-width="1" fill="none" />
<polyline points="260.5,255.0,256.5,255.0,252.5,254.5" stroke="black" stroke-width="1" fill="none" />
<polyline points="253.0,248.5,249.0,247.0" stroke="black" stroke-width="1" fill="none" />
<polyline points="244.5,242.5,240.5,241.0" stroke="black" stroke-width="1" fill="none" />
<polyline points="242.5,240.5,242.0,239.0,238.0,241.5" stroke="black" stroke-width="1" fill="none" />
<polyline points="243.0,244.0,240.0,240.0,237.5,235.5,233.5,234.0" stroke="black" stroke-width="1" fill="none" />
<polyline points="233.0,233.5,237.0,234.0,237.0,240.0,233.0,244.0,232.0,248.0,229.0,250.0,229.5,254.0,226.0,258.0,225.5,262.0,226.0,266.0,228.0,267.5,227.5,270.0,230.0,271.0,234.0,273.5,238.0,275.0,242.0,274.5,246.0,274.5,250.0,275.0,254.0,276.0,258.0,274.5,258.0,276.0,263.0,274.5,267.0,274.5,267.5,275.0,271.5,274.5,276.5,270.0,280.5,268.0,284.5,263.0,288.5,259.5,289.0,262.5" stroke="black" stroke-width="1" fill="none" />
<polyline points="265.5,266.5,261.5,267.0,257.5,268.5,253.5,268.5" stroke="black" stroke-width="1" fill="none" />
<polyline points="253.0,278.5,257.0,278.0" stroke="black" stroke-width="1" fill="none" />
<polyline points="263.5,269.5,259.5,270.5,255.5,270.5,250.5,268.5,246.5,269.0,242.5,268.5" stroke="black" stroke-width="1" fill="none" />
<polyline points="238.0,272.0,234.0,270.0" stroke="black" stroke-width="1" fill="none" />
<polyline points="233.0,272.5,228.0,266.5" stroke="black" stroke-width="1" fill="none" />
<polyline points="233.0,262.0,237.0,262.5" stroke="black" stroke-width="1" fill="none" />
<polyline points="231.5,260.0,235.5,256.0,239.5,255.0,242.5,251.0,245.5,252.0,248.0,254.5,250.5,252.5,252.0,253.5,256.0,253.0,260.0,252.0" stroke="black" stroke-width="1" fill="none" />
<polyline points="253.5,234.0,248.5,237.0,251.5,234.0,248.5,233.5,244.5,233.0" stroke="black" stroke-width="1" fill="none" />
<polyline points="241.5,227.5,238.5,226.5" stroke="black" stroke-width="1" fill="none" />
<polyline points="241.0,223.5,241.0,227.5,245.5,231.5,246.0,231.5,250.0,232.0,254.0,232.0,258.0,233.0,262.0,232.0,266.0,231.5" stroke="black" stroke-width="1" fill="none" />
<polyline points="255.0,217.0,255.0,213.0,255.5,209.0,254.0,205.0,253.5,203.5" stroke="black" stroke-width="1" fill="none" />
<polyline points="253.0,200.5,252.5,204.5,252.0,208.5,253.0,211.5,253.0,215.5,252.5,219.5,255.0,218.5,257.0,219.5,257.0,217.5,261.5,216.5,265.0,216.0,268.5,214.5,272.5,214.0,276.5,214.0,278.5,218.5,284.0,219.5,284.0,223.5" stroke="black" stroke-width="1" fill="none" />
<polyline points="285.0,220.0,284.5,224.0,287.5,227.0,287.5,231.0,291.0,234.5,291.0,238.5,287.5,241.5,287.5,245.5,288.0,249.5,286.0,253.5,284.5,251.5,288.0,246.5,289.0,241.0" stroke="black" stroke-width="1" fill="none" />
<polyline points="291.0,216.5,291.0,212.5" stroke="black" stroke-width="1" fill="none" />
<polyline points="287.0,198.0,287.0,194.0,287.0,190.0,287.0,186.0" stroke="black" stroke-width="1" fill="none" />
<polyline points="292.0,181.5,292.5,185.5,292.5,189.5,292.0,193.5,292.5,197.5,292.0,201.5" stroke="black" stroke-width="1" fill="none" />
<polyline points="269.0,181.0,265.0,182.0,261.0,181.5,257.0,182.5,253.0,182.5,249.0,181.5,245.0,181.5,241.0,181.5" stroke="black" stroke-width="1" fill="none" />
<polyline points="242.5,183.0,246.5,183.5,250.5,183.0" stroke="black" stroke-width="1" fill="none" />
<polyline points="249.0,187.0,248.5,191.0,247.0,191.5" stroke="black" stroke-width="1" fill="none" />
<polyline points="237.0,186.5,238.5,188.5,236.5,192.5,237.0,196.5,237.5,200.5,237.0,204.5,234.0,206.0,233.0,210.5,233.0,214.5,233.5,218.5,233.0,222.5,233.0,226.5,233.0,230.5,233.0,234.5,237.0,235.0,240.5,239.0,242.0,240.0,245.0,240.5,243.5,244.5,247.5,241.5,251.5,240.0,253.5,239.5,257.5,238.0,261.5,239.0,262.5,240.0,262.0,241.5,261.0,240.0,260.5,244.0" stroke="black" stroke-width="1" fill="none" />
<polyline points="238.0,251.5,240.0,249.0,238.5,253.0,239.5,255.0,236.5,258.5,231.5,261.0,235.0,265.0,237.0,266.0,240.0,267.0,244.0,267.0,248.0,267.0,252.0,267.0,253.5,266.5,257.5,266.5,263.5,268.5,267.5,267.0,271.5,266.5,275.5,262.5,276.5,263.5,279.0,262.5,282.5,256.5,285.0,253.0,283.5,253.0,281.5,257.0,280.5,261.0,272.5,262.5,271.5,266.5" stroke="black" stroke-width="1" fill="none" />
<polyline points="233.5,247.0,229.5,254.0,225.5,256.5" stroke="black" stroke-width="1" fill="none" />
<polyline points="237.0,328.5,235.5,332.5,233.0,336.0,236.0,332.5,237.0,328.5,241.0,329.0,245.0,329.0,249.0,329.0,253.0,329.0,257.0,329.0,261.0,329.0,265.0,328.5,269.0,332.5,273.0,332.5,273.5,335.5,279.0,337.0,283.0,341.0" stroke="black" stroke-width="1" fill="none" />
<polyline points="283.0,341.5,283.5,345.5,287.5,349.5,285.0,353.0,284.5,357.0,284.5,361.0,283.5,367.5,283.5,369.0,280.0,372.5,280.0,376.5,284.0,378.0,287.5,380.5,285.5,384.5" stroke="black" stroke-width="1" fill="none" />
<polyline points="283.0,381.5,287.5,384.5,288.0,388.5,291.0,391.5,291.5,395.5,289.5,396.0,288.0,400.0,287.5,404.0,285.0,408.0,283.5,413.0,284.0,415.0" stroke="black" stroke-width="1" fill="none" />
<polyline points="281.5,418.5,277.5,418.5,274.0,422.0,272.0,422.0,268.0,423.0,263.0,425.0,259.0,426.0,255.0,426.5,251.0,426.5,249.0,425.0,245.0,426.5,241.0,426.0,238.5,424.0,237.0,426.0,236.0,422.0,230.0,419.5,228.5,419.0,226.0,415.0,223.0,411.0" stroke="black" stroke-width="1" fill="none" />
<polyline points="229.5,407.0,233.5,408.0,231.5,412.0,235.5,411.0" stroke="black" stroke-width="1" fill="none" />
<polyline points="236.5,411.5,236.5,415.5" stroke="black" stroke-width="1" fill="none" />
<polyline points="234.0,419.5,230.0,419.5" stroke="black" stroke-width="1" fill="none" />
<polyline points="255.0,419.5,259.0,419.5" stroke="black" stroke-width="1" fill="none" />
<polyline points="260.5,426.5,264.5,427.0" stroke="black" stroke-width="1" fill="none" />
<polyline points="277.5,407.0,273.5,411.0,273.0,412.5,276.5,407.0,280.0,403.0,280.0,399.0,280.0,395.0,280.5,391.0,276.0,387.0,275.0,382.0,272.0,381.5,269.5,376.5,268.5,376.5,268.5,372.5,269.5,375.5,269.5,376.5" stroke="black" stroke-width="1" fill="none" />
<polyline points="268.5,380.0,272.5,383.0,276.5,381.5" stroke="black" stroke-width="1" fill="none" />
<polyline points="280.0,372.0,282.5,372.0" stroke="black" stroke-width="1" fill="none" />
<polyline points="285.0,364.0,287.5,360.5,287.0,356.5,286.0,351.0,285.0,352.5" stroke="black" stroke-width="1" fill="none" />
<polyline points="275.0,368.0,272.0,370.5,268.0,373.0" stroke="black" stroke-width="1" fill="none" />
<polyline points="268.0,363.0,267.5,359.0,268.0,355.0,265.0,351.5" stroke="black" stroke-width="1" fill="none" />
<polyline points="260.0,359.0,258.5,362.5,253.5,360.5,252.0,361.5,253.0,357.5,251.0,356.0,255.0,354.0,253.5,356.5" stroke="black" stroke-width="1" fill="none" />
<polyline points="256.0,356.0,255.0,360.0" stroke="black" stroke-width="1" fill="none" />
<polyline points="258.0,360.5,260.0,356.5,259.0,355.0,255.0,354.0,251.0,356.0" stroke="black" stroke-width="1" fill="none" />
<polyline points="245.0,355.5,245.0,349.0,245.0,353.0,245.5,357.0,245.0,361.0,245.0,365.0,245.0,366.5,249.0,368.0,253.0,369.5,257.0,369.5,261.0,368.0,265.0,364.0" stroke="black" stroke-width="1" fill="none" />
<polyline points="276.0,365.0,276.5,361.0,280.0,357.5,279.5,353.5,276.0,349.5,276.0,345.5,272.0,345.0,271.0,341.0,266.5,339.0,264.5,339.5,260.5,335.5,256.5,334.5" stroke="black" stroke-width="1" fill="none" />
<polyline points="265.5,341.0,269.5,341.0,273.5,345.0,276.0,345.0" stroke="black" stroke-width="1" fill="none" />
<polyline points="245.0,348.5,249.0,348.0,253.0,348.0,257.0,348.0,261.0,348.0,262.5,348.5,266.0,352.5,265.0,355.0,264.5,359.0,264.5,364.5,261.0,368.5,259.0,369.5,256.5,370.5" stroke="black" stroke-width="1" fill="none" />
<polyline points="256.5,372.5,252.0,372.5,251.5,368.5,246.5,362.5" stroke="black" stroke-width="1" fill="none" />
<polyline points="236.0,372.0,240.0,372.0,241.0,375.0,241.5,379.0" stroke="black" stroke-width="1" fill="none" />
<polyline points="237.5,378.0,238.0,374.0,237.0,370.0,233.0,365.5,232.5,361.5,230.0,360.5,230.0,364.0,229.0,360.0,229.0,356.0,230.5,350.0,233.0,350.0,233.5,346.5,234.5,343.5,242.5,339.0,242.0,337.0,239.5,341.0" stroke="black" stroke-width="1" fill="none" />
<polyline points="233.0,345.5,235.5,345.0,239.5,339.5,243.5,336.5,247.5,337.0,251.5,337.0,254.0,334.5,256.0,337.0,260.0,337.0,264.0,336.5" stroke="black" stroke-width="1" fill="none" />
<polyline points="244.5,330.5,240.5,332.0" stroke="black" stroke-width="1" fill="none" />
<polyline points="232.5,337.0,229.5,339.0,225.5,342.5" stroke="black" stroke-width="1" fill="none" />
<polyline points="226.0,341.0,225.5,345.0,221.5,348.0,221.5,352.0,221.5,356.0,221.5,360.0,222.0,364.0,225.5,367.0,225.5,371.0,229.0,373.0,230.5,375.0" stroke="black" stroke-width="1" fill="none" />
<polyline points="233.0,380.5,237.0,379.5,241.0,379.5" stroke="black" stroke-width="1" fill="none" />
<polyline points="241.0,387.5,241.0,391.5,241.0,395.5,245.0,399.5,245.5,403.0,249.5,403.0,253.5,403.0,257.5,403.0,261.5,400.0" stroke="black" stroke-width="1" fill="none" />
<polyline points="256.0,395.0,256.5,391.0,256.5,388.0,252.5,388.0" stroke="black" stroke-width="1" fill="none" />
<polyline points="250.0,390.0,250.5,391.5,250.5,387.5,252.5,390.0,248.5,393.5,249.5,395.5,253.5,395.0,258.5,391.5,260.0,392.0,257.5,396.0" stroke="black" stroke-width="1" fill="none" />
<polyline points="258.0,396.0,254.0,398.0,250.0,397.5" stroke="black" stroke-width="1" fill="none" />
<polyline points="247.0,400.5,242.5,399.0,243.5,396.0,242.0,394.0" stroke="black" stroke-width="1" fill="none" />
<polyline points="241.0,387.5,245.0,386.0,248.0,383.0,252.0,380.0,256.0,380.0,260.0,380.0,261.5,383.5" stroke="black" stroke-width="1" fill="none" />
<polyline points="264.5,384.0,264.5,388.0,264.5,392.0,264.5,396.0,264.5,399.5,259.0,401.5,262.5,403.0" stroke="black" stroke-width="1" fill="none" />
<polyline points="267.0,417.0,271.5,414.5,272.0,410.5,269.5,415.0,265.5,415.0,261.5,418.5,257.5,418.5,253.5,418.0,249.5,418.5,245.5,417.5,241.5,415.0,237.5,415.5,233.0,413.5,230.5,411.5,231.5,408.0,229.0,405.0,226.5,404.5,229.0,401.0,225.5,397.0,225.5,393.0,228.5,391.0,229.0,387.0,233.0,382.5,229.0,385.0" stroke="black" stroke-width="1" fill="none" />
<polyline points="223.0,383.5,223.0,380.0,221.5,382.0,221.5,386.0,217.5,389.5,217.5,393.5,218.5,397.5,217.5,401.5,217.5,405.5,222.0,409.5,221.5,413.5,224.0,415.0,228.0,417.0,228.0,418.5,232.0,422.5,236.0,421.5,241.0,423.5" stroke="black" stroke-width="1" fill="none" />
<polyline points="285.5,409.0,287.5,410.0,287.5,406.0" stroke="black" stroke-width="1" fill="none" />
<polyline points="291.0,397.5,287.5,398.0,288.5,394.0,289.0,391.5,288.0,394.5" stroke="black" stroke-width="1" fill="none" />
<polyline points="225.0,348.0,221.0,348.5" stroke="black" stroke-width="1" fill="none" />
<polyline points="112.0,340.5,112.5,339.5,112.5,335.5,112.5,331.5" stroke="black" stroke-width="1" fill="none" />
<polyline points="111.0,331.5,107.0,331.0,103.0,331.0,99.0,331.5,95.0,331.5,91.0,331.5,86.0,332.5,82.0,332.5,78.0,332.5,74.0,332.5,70.0,332.5" stroke="black" stroke-width="1" fill="none" />
<polyline points="74.0,330.0,78.0,330.5,82.0,330.5" stroke="black" stroke-width="1" fill="none" />
<polyline points="101.5,339.5,104.0,338.0,103.5,342.0,102.0,346.0" stroke="black" stroke-width="1" fill="none" />
<polyline points="108.5,347.5,108.5,351.5,108.5,355.5" stroke="black" stroke-width="1" fill="none" />
<polyline points="99.5,358.0,100.0,354.0,97.0,353.0" stroke="black" stroke-width="1" fill="none" />
<polyline points="102.5,367.0,101.0,371.0,100.5,375.0,100.5,379.0,99.5,383.0,97.5,387.0,97.0,392.0,97.5,395.0,97.0,397.0,94.5,401.0,95.0,405.0,93.0,410.0,91.5,414.0,90.5,418.0,89.5,422.0,87.5,426.0,85.5,423.0,88.0,426.0" stroke="black" stroke-width="1" fill="none" />
<polyline points="83.5,415.0,79.5,414.5,75.5,415.0,72.0,416.0,71.5,415.0,67.5,415.5,66.5,414.5,65.5,413.0,66.0,409.0,66.5,405.0,69.0,401.0,69.5,397.0,71.5,393.0,71.0,391.0" stroke="black" stroke-width="1" fill="none" />
<polyline points="73.5,395.0,69.5,397.0" stroke="black" stroke-width="1" fill="none" />
<polyline points="66.0,392.5,62.0,394.5" stroke="black" stroke-width="1" fill="none" />
<polyline points="58.0,403.5,62.0,403.0,58.0,406.0,58.5,410.0,58.0,414.0" stroke="black" stroke-width="1" fill="none" />
<polyline points="57.5,418.0,55.5,422.0,54.5,421.5,57.5,418.0,59.5,414.0,60.5,409.5,62.0,405.5,64.0,400.5,62.5,400.5,62.5,396.5,62.5,392.5,65.0,391.0,66.0,387.0,65.5,383.0,69.5,379.5,70.0,375.5,69.5,371.5,70.0,367.5,70.5,363.5,69.5,364.5" stroke="black" stroke-width="1" fill="none" />
<polyline points="71.5,370.5,71.5,368.0,73.0,366.0,71.5,370.5,71.5,374.0" stroke="black" stroke-width="1" fill="none" />
<polyline points="75.0,378.0,78.0,377.0,81.5,370.5,81.5,366.5,78.5,367.0" stroke="black" stroke-width="1" fill="none" />
<polyline points="85.0,360.0,82.0,359.0,81.5,355.0" stroke="black" stroke-width="1" fill="none" />
<polyline points="93.0,369.0,97.0,369.5,94.5,373.5,95.0,377.5" stroke="black" stroke-width="1" fill="none" />
<polyline points="97.5,387.0,101.0,383.5,101.0,387.5,97.0,391.5" stroke="black" stroke-width="1" fill="none" />
<polyline points="90.0,393.0,91.5,392.5,91.5,388.5,89.0,388.5" stroke="black" stroke-width="1" fill="none" />
<polyline points="94.5,400.0,96.5,400.5,97.0,404.5" stroke="black" stroke-width="1" fill="none" />
<polyline points="88.0,406.5,87.0,410.5" stroke="black" stroke-width="1" fill="none" />
<polyline points="93.0,414.0,93.0,418.0,93.0,422.0,90.5,422.5" stroke="black" stroke-width="1" fill="none" />
<polyline points="66.5,410.5,69.5,408.0,70.0,404.0,66.5,404.5" stroke="black" stroke-width="1" fill="none" />
<polyline points="65.5,422.5,61.5,421.5,57.5,422.5" stroke="black" stroke-width="1" fill="none" />
<polyline points="56.0,422.5,57.0,419.5,61.0,420.0,65.0,421.0,69.0,422.0,73.0,422.0,77.0,422.5,81.0,423.0,83.0,426.5" stroke="black" stroke-width="1" fill="none" />
<polyline points="65.5,381.0,69.5,379.5" stroke="black" stroke-width="1" fill="none" />
<polyline points="73.5,391.5,71.5,389.5,73.5,385.5,77.5,381.5,74.5,379.5,76.0,375.5,77.5,370.5,79.0,366.5,81.5,362.5,85.0,359.0,85.0,355.0,83.5,352.5,79.5,352.5,75.5,352.0,71.5,352.0,67.5,352.0,63.5,352.0,59.5,352.0,57.5,354.0,56.0,354.0,55.5,350.0,55.0,346.0,55.0,342.0,55.5,338.0,55.0,341.5" stroke="black" stroke-width="1" fill="none" />
<polyline points="55.0,339.0,59.0,338.0,63.0,338.0,67.0,338.0,71.0,338.0,75.0,338.0,79.0,337.5,83.0,337.0,87.0,337.0,91.0,337.0,95.0,337.0,99.0,336.5,100.5,338.5,100.5,342.5,100.5,346.5,100.5,350.5,97.0,354.5,97.0,358.5,97.0,362.5,97.0,366.5,93.0,370.5,93.0,374.5,93.0,378.5,93.0,382.5,92.5,386.5,89.0,390.5,89.0,394.5,89.0,398.5,88.5,402.5,85.0,406.0,85.5,410.0,85.0,414.0,82.0,417.0" stroke="black" stroke-width="1" fill="none" />
<polyline points="74.5,475.0,70.5,475.0,66.5,476.0" stroke="black" stroke-width="1" fill="none" />
<polyline points="62.0,485.5,58.0,485.5,54.0,485.0" stroke="black" stroke-width="1" fill="none" />
<polyline points="52.5,483.5,52.5,487.0,52.5,491.0,52.5,495.0,55.0,496.5,59.0,497.0,63.0,497.0,65.0,501.0" stroke="black" stroke-width="1" fill="none" />
<polyline points="63.0,504.0,65.0,505.5,65.0,509.5,65.5,513.5,65.5,517.0,64.0,519.0,64.0,523.0,64.0,527.0,62.5,532.0" stroke="black" stroke-width="1" fill="none" />
<polyline points="65.5,534.5,66.0,530.5,65.5,526.5,65.5,522.5,64.0,520.0" stroke="black" stroke-width="1" fill="none" />
<polyline points="58.0,523.5,54.0,524.5" stroke="black" stroke-width="1" fill="none" />
<polyline points="56.0,527.5,56.0,528.0,56.0,532.0,56.0,536.0,56.0,540.0,57.0,544.0,57.5,547.5,57.5,551.5,57.5,555.5,57.5,559.5,56.5,562.5,57.0,566.5,61.0,570.5,65.0,570.5" stroke="black" stroke-width="1" fill="none" />
<polyline points="74.0,570.5,78.0,570.5,82.0,570.5" stroke="black" stroke-width="1" fill="none" />
<polyline points="89.5,554.5,93.5,554.0" stroke="black" stroke-width="1" fill="none" />
<polyline points="100.0,552.5,104.0,551.0" stroke="black" stroke-width="1" fill="none" />
<polyline points="102.0,562.0,104.5,566.0" stroke="black" stroke-width="1" fill="none" />
<polyline points="118.0,561.5,122.0,562.0,126.0,561.5,130.0,560.0" stroke="black" stroke-width="1" fill="none" />
<polyline points="119.5,567.0,119.5,571.0" stroke="black" stroke-width="1" fill="none" />
<polyline points="143.0,562.5,138.5,564.0,137.5,566.5,133.5,566.0,129.5,566.5,125.5,566.5,122.0,570.5,121.0,567.5,117.0,566.5,113.0,566.5,109.0,566.5,106.5,565.0,102.5,562.0,98.5,562.5,97.5,562.5,97.0,559.5,94.5,558.5,93.5,558.0,95.5,556.0,89.0,554.5,89.0,550.5,88.5,547.0,84.5,547.5" stroke="black" stroke-width="1" fill="none" />
<polyline points="80.0,545.0,80.5,541.0,80.0,537.0,80.5,533.0,80.5,529.5,80.5,525.5,79.5,525.5,80.5,521.5,79.0,517.5" stroke="black" stroke-width="1" fill="none" />
<polyline points="86.5,511.0,86.5,506.5,86.0,502.5,87.5,498.5,88.0,494.5,88.0,490.5,87.5,488.5" stroke="black" stroke-width="1" fill="none" />
<polyline points="93.0,493.5,97.0,491.5" stroke="black" stroke-width="1" fill="none" />
<polyline points="97.0,488.5,101.0,485.0,104.5,480.5,109.0,477.0,113.0,474.5" stroke="black" stroke-width="1" fill="none" />
<polyline points="120.5,472.5,119.0,476.5,123.0,473.0,127.0,473.0,131.0,472.5,135.0,473.0,138.5,477.5,141.0,476.5,145.0,476.5,146.0,479.5,149.0,480.5,149.0,482.5,153.5,485.0,156.5,488.5" stroke="black" stroke-width="1" fill="none" />
<polyline points="159.0,495.0,163.0,496.5" stroke="black" stroke-width="1" fill="none" />
<polyline points="152.0,500.0,157.0,504.5,157.0,508.5,158.0,512.5,158.0,516.0,158.0,518.0,158.0,522.0,156.5,526.0" stroke="black" stroke-width="1" fill="none" />
<polyline points="137.0,529.5,136.0,533.5,137.0,529.5" stroke="black" stroke-width="1" fill="none" />
<polyline points="133.5,524.5,131.0,530.0,130.0,530.5,132.0,526.5,132.0,522.5,132.5,518.5,132.0,514.5,132.0,510.5,132.5,513.0" stroke="black" stroke-width="1" fill="none" />
<polyline points="134.5,516.0,134.5,520.0,133.5,525.5" stroke="black" stroke-width="1" fill="none" />
<polyline points="128.0,528.0,129.0,527.0,128.0,531.0,126.5,535.0" stroke="black" stroke-width="1" fill="none" />
<polyline points="128.5,541.5,132.5,540.0,136.0,536.0,139.5,532.5,139.5,528.5,138.0,526.5,139.5,522.5,139.5,518.5,139.5,514.5,139.5,510.5,139.5,506.5,137.0,506.0" stroke="black" stroke-width="1" fill="none" />
<polyline points="138.0,504.0,138.0,502.5,136.0,504.5,138.0,508.5" stroke="black" stroke-width="1" fill="none" />
<polyline points="133.0,501.0,128.0,498.0,124.0,497.5" stroke="black" stroke-width="1" fill="none" />
<polyline points="118.5,507.0,121.0,505.0,118.5,509.0,117.0,513.0,116.5,517.0,116.5,521.0,116.5,525.0,116.5,529.0,116.5,533.0,120.0,533.0,120.5,535.5,124.5,535.5" stroke="black" stroke-width="1" fill="none" />
<polyline points="133.5,539.5,129.5,543.0,128.5,540.5,124.5,543.0,120.5,542.5,116.5,543.0,114.0,541.5,113.0,540.0,109.0,539.5,108.5,536.0,108.5,532.0,108.5,528.0,108.5,524.0,108.5,520.0,108.5,516.0,108.5,512.0,108.5,508.0,112.5,504.5,112.5,500.5,113.0,505.5" stroke="black" stroke-width="1" fill="none" />
<polyline points="112.5,500.5,116.5,500.0,120.0,496.5,124.0,496.5,128.0,496.5,132.0,496.5" stroke="black" stroke-width="1" fill="none" />
<polyline points="131.0,506.0,130.0,508.0,126.0,504.5,123.0,508.0,119.0,509.0" stroke="black" stroke-width="1" fill="none" />
<polyline points="114.5,517.0,114.0,521.0,114.0,525.0,115.0,529.0,116.5,532.0,123.0,537.5" stroke="black" stroke-width="1" fill="none" />
<polyline points="136.5,554.5,141.0,550.5" stroke="black" stroke-width="1" fill="none" />
<polyline points="152.0,553.0,150.0,558.5,147.0,562.5,145.5,559.5,148.5,558.5,151.5,556.5,151.5,553.5,155.0,551.0,155.0,548.5,159.0,544.5,157.5,542.5,160.5,537.5,163.0,537.5,163.0,533.5,163.0,529.5,163.0,528.0,163.0,524.0,163.0,520.0,163.0,516.0,163.0,512.0,163.0,508.0,163.0,504.0,162.0,501.0,160.5,499.5,163.0,497.5,159.5,493.5,159.5,491.0,159.0,489.5,155.5,486.0,152.0,482.5,147.5,478.5,143.5,479.0" stroke="black" stroke-width="1" fill="none" />
<polyline points="146.0,481.5,142.0,479.0,137.0,477.5,136.0,473.5" stroke="black" stroke-width="1" fill="none" />
<polyline points="132.0,476.5,127.0,476.0,123.5,475.0,120.0,476.5,116.0,477.0,112.0,477.0,109.0,480.5,109.5,476.5,108.5,481.0" stroke="black" stroke-width="1" fill="none" />
<polyline points="104.5,480.5,104.0,484.5,99.0,488.5,97.0,491.5,93.0,495.0,93.0,499.0,89.0,503.0,89.0,507.0,86.0,511.0,86.5,515.0,85.5,518.5,85.5,522.5,85.0,529.5,85.0,534.0,85.0,538.0,85.0,542.0,87.5,543.0,85.0,548.0,85.0,552.0,85.0,556.0,85.0,560.0,85.0,564.0,81.5,568.0,79.5,570.5" stroke="black" stroke-width="1" fill="none" />
<polyline points="79.0,557.0,79.0,559.0,77.5,555.5,78.5,551.5,78.0,547.5,77.5,543.5,77.5,539.5,77.5,535.5,77.5,531.5,77.5,527.5,77.0,523.5,77.5,519.5,81.0,516.0,81.0,512.0,81.0,508.0,81.5,504.0,81.5,500.0,81.5,496.0,81.5,492.0,81.5,488.0,81.5,484.0,80.0,481.0,76.0,481.0,72.0,480.5,68.0,481.0,64.0,481.5,60.0,482.0,56.0,482.0,52.0,482.5" stroke="black" stroke-width="1" fill="none" />
<polyline points="48.0,480.5,48.0,484.5,47.5,488.5" stroke="black" stroke-width="1" fill="none" />
<polyline points="46.5,477.0,46.5,481.0,46.5,485.0,46.5,489.0,47.0,493.0,46.5,497.0,46.5,501.0,47.0,505.0,46.5,504.0,49.0,504.0,53.0,504.5,57.0,504.5" stroke="black" stroke-width="1" fill="none" />
<polyline points="47.0,501.0,51.0,501.5,55.0,501.5,58.5,505.0,58.5,509.0,58.0,513.0,58.0,517.0,58.0,521.0,54.0,524.5,54.5,528.5,54.0,532.5,54.0,536.5,54.0,540.5,54.0,544.5,54.5,548.5,54.5,552.5,54.5,556.5,54.5,560.5,55.5,564.5,54.5,568.5,56.0,568.5,57.5,570.5,61.5,568.5,65.5,568.5,69.5,569.0,71.0,570.5,71.0,568.5,75.5,567.5,79.5,568.5,83.5,566.0,85.0,569.0" stroke="black" stroke-width="1" fill="none" />
<polyline points="94.5,544.5,93.5,540.5" stroke="black" stroke-width="1" fill="none" />
<polyline points="93.5,539.0,97.5,540.0" stroke="black" stroke-width="1" fill="none" />
<polyline points="87.5,543.0,86.5,542.5,86.0,536.0,86.0,531.5,86.0,527.5" stroke="black" stroke-width="1" fill="none" />
<polyline points="96.0,512.0,94.5,510.0,95.0,506.0" stroke="black" stroke-width="1" fill="none" />
<polyline points="100.5,497.5,102.5,496.0,106.5,492.0,106.5,489.0,111.5,488.5,115.5,483.5,118.0,485.0,122.0,485.0" stroke="black" stroke-width="1" fill="none" />
<polyline points="117.0,483.0,121.0,482.0,124.0,483.0,126.0,481.0,130.0,483.0,131.0,481.5,135.0,482.0,141.5,486.0,148.0,489.5,148.0,493.0,152.0,495.0" stroke="black" stroke-width="1" fill="none" />
<polyline points="151.0,493.0,151.5,497.0,155.0,501.0,155.0,505.0,155.5,509.0,155.5,513.0,155.5,517.0,155.5,521.0,155.0,525.0,155.5,529.0,155.0,533.0,151.5,536.5,151.5,540.5,147.5,544.0,147.5,548.0,143.5,552.5" stroke="black" stroke-width="1" fill="none" />
<polyline points="75.0,562.5,71.0,562.5,67.0,562.0,63.0,563.0,62.0,560.0,62.0,556.0,62.0,552.0,62.0,548.0,62.0,544.0,62.0,540.0,62.5,536.0,62.5,531.0,62.5,527.0,62.5,523.0,62.5,519.0,63.0,515.0,63.0,511.0,63.0,507.0,65.0,503.5,66.0,500.5,64.0,500.5,64.0,496.5" stroke="black" stroke-width="1" fill="none" />
<polyline points="46.5,477.0,50.5,477.0,54.5,477.0,58.5,475.5,61.0,474.5,58.5,475.5,60.5,473.0,64.5,473.0,68.5,473.0,72.5,473.0,76.5,473.0,80.5,473.5,84.5,473.0,88.5,473.5,87.5,476.5,87.5,480.5,88.0,484.5,88.5,488.0,86.5,491.0,88.5,496.0,89.0,500.0,90.5,500.5" stroke="black" stroke-width="1" fill="none" />
<polyline points="109.0,488.5,107.0,488.5,105.0,492.5,101.5,496.0,99.0,500.0,100.5,502.0,97.0,506.0,97.0,510.0,93.0,514.5,93.0,518.5,93.0,520.5,93.0,523.5,92.5,526.5,93.0,530.5,91.5,534.5,93.0,535.5,93.5,539.0,97.0,542.0,97.0,546.0,101.0,548.0,99.5,552.0,101.0,555.0,102.0,555.0,104.0,556.0,106.0,555.0,110.0,558.0,114.0,558.0,118.0,558.5,122.0,558.0,126.0,558.5,130.0,558.5,134.0,558.5,137.5,554.5,140.5,551.0,144.5,550.5" stroke="black" stroke-width="1" fill="none" />
<polyline points="146.0,488.5,142.0,488.5,139.5,487.0,138.0,485.0,134.0,485.0,130.0,485.0,128.0,482.5,131.0,481.5" stroke="black" stroke-width="1" fill="none" />
<polyline points="58.0,528.0,58.0,532.0,58.0,536.0,58.0,540.0,55.0,544.0" stroke="black" stroke-width="1" fill="none" />
<polyline points="217.5,501.0,221.5,501.5,225.5,503.0" stroke="black" stroke-width="1" fill="none" />
<polyline points="225.0,505.0,225.5,509.0,225.5,513.0,225.5,517.0,225.5,521.0,225.5,525.0,226.5,529.0,226.5,533.0,226.5,537.0,225.5,541.0,227.0,544.5,227.0,548.5,227.0,552.5,225.5,556.5,226.0,560.5,226.0,564.5,226.0,568.5,228.0,570.0,232.0,568.5,236.0,568.5,242.0,570.5,246.0,570.5,250.0,570.5,254.0,570.5" stroke="black" stroke-width="1" fill="none" />
<polyline points="269.0,570.5,273.0,570.5,277.0,570.5,281.0,569.0,286.0,570.5,290.0,571.0,294.0,570.5" stroke="black" stroke-width="1" fill="none" />
<polyline points="287.0,562.0,283.0,562.5,279.0,562.5,275.0,562.5,271.0,561.5" stroke="black" stroke-width="1" fill="none" />
<polyline points="272.0,553.5,272.0,549.5,272.0,545.5,270.5,544.0" stroke="black" stroke-width="1" fill="none" />
<polyline points="256.5,540.5,256.5,544.5,256.5,548.5,255.0,552.5,255.5,556.5,256.5,560.5,256.5,562.0,254.0,566.0,256.5,567.5" stroke="black" stroke-width="1" fill="none" />
<polyline points="271.0,562.0,271.5,558.0,270.5,553.5,270.5,549.5,270.5,545.5,271.0,543.0,272.0,539.0,272.0,535.0,272.0,531.0,272.0,527.0,272.0,523.0,272.0,519.0,272.0,515.0,272.0,511.0,272.0,507.0,272.0,503.0,272.0,499.0,270.5,496.5,266.5,496.5,264.5,494.5,264.5,490.5,264.5,486.5,264.5,482.5,262.5,482.5" stroke="black" stroke-width="1" fill="none" />
<polyline points="263.5,484.0,267.5,485.0,271.5,485.0,275.0,481.0,279.0,480.5,283.0,480.5,287.0,480.5,290.5,479.0" stroke="black" stroke-width="1" fill="none" />
<polyline points="287.0,481.5,287.5,485.5,287.0,489.5,287.5,493.5,287.5,497.5,287.5,501.5,287.5,505.5,287.5,509.5,288.5,513.5,288.5,517.5,288.0,521.5,289.0,525.5,289.0,529.5,289.0,533.5,288.0,537.5,288.0,541.5,288.0,545.5,287.5,549.5,287.5,553.5,288.0,557.5,287.5,561.5" stroke="black" stroke-width="1" fill="none" />
<polyline points="291.5,568.0,287.5,567.5,283.5,568.0,277.5,568.0,273.5,568.5,269.5,568.5,265.5,570.5,264.5,569.0,264.5,565.0,264.5,561.0,264.5,557.0,264.5,553.0,265.0,549.0,265.5,545.0,265.5,541.0,265.5,537.0,265.0,533.0,265.0,529.0,265.0,525.0,265.0,521.0,265.0,517.0,264.5,513.0,264.5,509.0,264.5,505.0,261.0,504.5,257.0,504.0" stroke="black" stroke-width="1" fill="none" />
<polyline points="256.5,503.0,260.5,501.5,264.5,502.0,264.5,503.0,266.5,504.5,266.5,508.5,266.5,512.5" stroke="black" stroke-width="1" fill="none" />
<polyline points="258.0,501.5,257.0,505.5,256.5,509.5,256.5,513.5,256.5,517.5,256.5,521.5,256.5,525.5,256.5,529.5,256.0,533.5,256.5,537.5,255.0,541.5,255.0,545.5" stroke="black" stroke-width="1" fill="none" />
<polyline points="244.5,562.5,240.5,562.5,236.5,562.5,231.5,560.0,231.5,556.0,231.5,552.0,232.5,548.0,233.0,544.0,233.0,540.0,233.0,536.0,233.0,532.0,233.0,528.0,233.0,524.0,233.0,520.0,233.0,516.0,233.0,512.0,233.0,508.0,233.0,504.0,233.5,500.0,233.0,501.5" stroke="black" stroke-width="1" fill="none" />
<polyline points="235.0,496.5,231.0,496.0,227.0,496.5,223.0,496.5,222.5,492.5,222.5,488.5,223.0,484.5,226.5,482.0,222.5,483.0" stroke="black" stroke-width="1" fill="none" />
<polyline points="222.5,485.5,227.0,484.5,225.0,488.5,225.0,492.5" stroke="black" stroke-width="1" fill="none" />
<polyline points="228.0,485.0,232.0,485.0,235.5,481.0,239.5,481.0,243.5,481.0,247.5,481.0,251.5,480.5" stroke="black" stroke-width="1" fill="none" />
<polyline points="250.5,480.5,252.0,484.5,248.5,488.5,249.5,492.5,248.0,496.5,248.5,500.5,250.0,504.5,248.5,508.5,249.0,512.5,249.5,516.5,249.5,520.5,249.5,524.5,248.5,528.5,250.0,531.0,250.0,535.0,249.5,539.0,249.0,543.0,249.0,547.0,249.0,551.0,249.0,555.0,248.5,559.0" stroke="black" stroke-width="1" fill="none" />
<polyline points="253.5,567.5,249.5,569.0,245.5,568.0,241.5,568.5,237.5,570.5,233.5,570.5,229.5,570.5" stroke="black" stroke-width="1" fill="none" />
<polyline points="233.0,559.5,233.0,555.5,233.0,551.5" stroke="black" stroke-width="1" fill="none" />
<polyline points="251.0,514.0,251.0,510.0,251.0,506.0,248.5,505.0" stroke="black" stroke-width="1" fill="none" />
<polyline points="250.0,500.5,251.5,499.0,251.5,495.0,249.0,491.5" stroke="black" stroke-width="1" fill="none" />
<polyline points="250.0,494.0,250.0,498.0" stroke="black" stroke-width="1" fill="none" />
<polyline points="261.5,493.0,262.0,489.0,261.5,489.5" stroke="black" stroke-width="1" fill="none" />
<polyline points="263.0,489.0,263.0,493.0" stroke="black" stroke-width="1" fill="none" />
<polyline points="287.0,485.0,289.5,480.0,291.5,480.5,290.5,485.5,289.0,489.5,289.5,493.0,290.0,498.0,290.0,502.0,290.0,506.0,289.5,510.0" stroke="black" stroke-width="1" fill="none" />
<polyline points="299.5,491.5,299.5,487.5,299.5,483.5,299.5,479.5,299.5,475.5,296.5,477.0" stroke="black" stroke-width="1" fill="none" />
<polyline points="296.5,477.0,296.5,481.0,296.5,485.0,295.5,490.0,295.5,494.0,295.5,498.0,295.5,502.0,295.5,506.0,295.5,510.0,295.5,514.0,295.5,518.0,295.5,522.0,295.5,526.0,295.5,530.0,294.0,534.0" stroke="black" stroke-width="1" fill="none" />
<polyline points="295.5,533.0,295.5,537.0,295.5,541.0,294.0,545.0,294.0,549.0,294.0,553.0,293.0,557.0,293.0,561.0,293.0,565.0,292.0,570.0" stroke="black" stroke-width="1" fill="none" />
<polyline points="295.5,567.5,295.0,563.5,294.5,559.5,294.5,555.5" stroke="black" stroke-width="1" fill="none" />
<polyline points="362.0,570.0,366.0,570.5,370.0,570.5,374.0,570.5,378.0,568.0" stroke="black" stroke-width="1" fill="none" />
<polyline points="389.0,560.5,389.5,556.5,389.5,552.5,387.5,551.0" stroke="black" stroke-width="1" fill="none" />
<polyline points="393.5,551.0,394.0,551.5,395.5,556.5,395.5,560.5,398.0,561.0,401.0,560.0,405.0,561.0,409.0,560.5,413.0,561.5,417.0,560.5,421.0,560.5" stroke="black" stroke-width="1" fill="none" />
<polyline points="430.5,544.5,434.5,543.5,439.0,543.0,443.0,543.0" stroke="black" stroke-width="1" fill="none" />
<polyline points="444.0,547.0,447.5,544.5,443.5,543.5,443.5,547.5,443.0,551.5,443.0,555.5" stroke="black" stroke-width="1" fill="none" />
<polyline points="445.5,558.5,441.5,558.5,437.5,559.5,435.0,557.0,432.5,557.5,428.5,558.5,424.5,558.5,420.5,558.5,416.5,558.5,412.5,558.0,408.5,558.0,404.5,558.5,400.5,558.5,396.5,558.5" stroke="black" stroke-width="1" fill="none" />
<polyline points="396.5,558.5,397.5,562.5" stroke="black" stroke-width="1" fill="none" />
<polyline points="402.5,562.0,399.0,560.0,394.0,560.5,394.0,556.5,397.0,552.5,396.5,548.5,400.5,544.5,404.5,541.0,408.5,537.5,412.0,534.0,416.0,530.5,419.5,527.5,415.5,528.0" stroke="black" stroke-width="1" fill="none" />
<polyline points="424.0,521.0,428.0,518.5" stroke="black" stroke-width="1" fill="none" />
<polyline points="431.5,529.0,435.5,524.5,439.5,520.0,443.0,517.5,445.5,512.0" stroke="black" stroke-width="1" fill="none" />
<polyline points="444.5,516.0,443.5,513.5,443.5,517.0,441.5,521.0,439.5,522.5,435.0,526.5,431.5,530.5,428.0,533.5,424.0,537.0,423.5,541.0,420.0,542.5,419.5,546.5,421.5,547.0,425.5,547.0,429.5,545.0,431.0,547.0,435.0,547.0,439.0,547.0" stroke="black" stroke-width="1" fill="none" />
<polyline points="446.5,547.5,445.0,551.5,445.0,555.5" stroke="black" stroke-width="1" fill="none" />
<polyline points="446.5,557.0,446.5,553.0,446.5,549.0" stroke="black" stroke-width="1" fill="none" />
<polyline points="454.0,555.5,453.5,551.5,453.5,547.5,453.5,543.5,453.0,539.5" stroke="black" stroke-width="1" fill="none" />
<polyline points="452.0,539.5,452.0,543.5,452.0,547.5,452.0,551.5" stroke="black" stroke-width="1" fill="none" />
<polyline points="438.5,538.0,436.5,536.0,439.5,534.0,443.5,530.0,448.0,526.0,447.5,524.0,451.5,520.0,453.5,517.0,453.0,514.0,455.0,510.0,455.0,506.0,455.0,502.0,455.0,498.0,453.5,495.5,452.5,493.0,455.0,489.5,450.0,485.5,447.5,481.5,444.0,481.0" stroke="black" stroke-width="1" fill="none" />
<polyline points="442.0,477.0,438.0,477.0,432.5,474.0,432.5,473.0,428.5,473.0,424.5,474.0,420.5,473.5,416.5,473.0,412.5,473.0,408.5,477.5,404.5,477.0,400.5,477.0" stroke="black" stroke-width="1" fill="none" />
<polyline points="401.5,476.5,400.0,480.5,396.5,484.0" stroke="black" stroke-width="1" fill="none" />
<polyline points="400.5,489.0,404.5,488.5,405.5,485.5,408.0,484.5,412.0,482.0" stroke="black" stroke-width="1" fill="none" />
<polyline points="413.0,485.0,409.0,484.5" stroke="black" stroke-width="1" fill="none" />
<polyline points="417.0,480.5,416.0,484.5,417.5,480.5,421.5,479.5,424.5,480.5,429.0,481.0,433.0,485.0,437.0,483.0,438.5,485.0,442.5,488.0" stroke="black" stroke-width="1" fill="none" />
<polyline points="430.0,480.5,431.5,484.5,435.0,484.0,439.0,488.0,443.5,491.0,443.0,495.0,447.5,499.0,447.5,503.0,447.5,507.0,447.5,511.0" stroke="black" stroke-width="1" fill="none" />
<polyline points="448.5,509.0,449.0,505.0" stroke="black" stroke-width="1" fill="none" />
<polyline points="452.0,516.5,451.0,521.0,449.0,523.5,445.5,527.5,443.5,528.5" stroke="black" stroke-width="1" fill="none" />
<polyline points="439.5,533.5,443.5,535.5,447.5,535.5,451.5,535.5,452.5,536.5,455.0,537.5,455.0,541.5,455.0,545.5,455.0,549.5,455.0,553.5,455.0,557.5,451.0,561.5,451.0,565.5" stroke="black" stroke-width="1" fill="none" />
<polyline points="424.0,539.5,420.0,539.5" stroke="black" stroke-width="1" fill="none" />
<polyline points="400.5,532.5,404.5,530.0,407.5,527.5,411.0,523.5,415.5,519.5,419.5,515.5" stroke="black" stroke-width="1" fill="none" />
<polyline points="423.5,505.0,424.0,509.0,423.0,512.0,420.0,515.0,416.0,519.0,412.0,523.0,408.0,524.0,405.0,527.5,401.0,531.5,397.5,535.5,394.0,539.0,393.0,539.5,397.0,536.0,398.0,538.5" stroke="black" stroke-width="1" fill="none" />
<polyline points="392.5,541.5,388.5,540.5" stroke="black" stroke-width="1" fill="none" />
<polyline points="396.5,514.5,400.5,512.0,398.0,513.5,396.5,518.5,395.0,519.5,399.0,515.0,402.5,512.0,406.0,508.0,410.0,508.0" stroke="black" stroke-width="1" fill="none" />
<polyline points="413.0,504.0,411.5,508.0,415.5,504.0,419.5,503.5,423.5,505.0" stroke="black" stroke-width="1" fill="none" />
<polyline points="423.5,498.0,428.0,500.0,431.5,501.0,429.5,502.5,429.5,506.5,432.0,508.0,431.5,512.0,431.5,514.5,431.0,516.0" stroke="black" stroke-width="1" fill="none" />
<polyline points="427.5,496.5,423.5,496.5,419.5,496.0,415.5,496.5,411.5,496.5,408.0,500.0,404.0,500.5,400.0,500.5" stroke="black" stroke-width="1" fill="none" />
<polyline points="402.5,504.0,398.0,504.5,397.0,504.0,396.5,500.0,396.5,496.0,397.0,492.0,396.5,492.5" stroke="black" stroke-width="1" fill="none" />
<polyline points="391.5,492.5,391.5,496.5,391.5,501.5,392.0,505.5" stroke="black" stroke-width="1" fill="none" />
<polyline points="390.0,512.0,392.5,513.5,393.0,517.5" stroke="black" stroke-width="1" fill="none" />
<polyline points="383.0,513.5,382.5,509.5,382.5,505.5" stroke="black" stroke-width="1" fill="none" />
<polyline points="381.5,505.0,384.0,506.5,384.0,510.5,384.0,514.5,383.5,520.5,383.5,524.0,383.5,528.5,382.0,532.5,382.0,536.5,382.0,540.5,382.5,544.5,382.5,548.5,382.5,552.5,381.5,556.5,381.5,560.0" stroke="black" stroke-width="1" fill="none" />
<polyline points="368.0,520.0,365.5,518.0,366.5,513.0,366.5,509.0,366.5,505.0,366.5,501.0,366.5,500.0" stroke="black" stroke-width="1" fill="none" />
<polyline points="368.0,500.0,368.0,504.0,368.0,508.0,368.0,512.0" stroke="black" stroke-width="1" fill="none" />
<polyline points="359.0,510.0,359.0,514.0,359.0,518.0,359.0,522.0" stroke="black" stroke-width="1" fill="none" />
<polyline points="357.0,508.5,359.0,507.5,357.5,509.5,357.0,513.5,357.0,517.5,357.0,521.5,357.5,525.5,357.5,529.5,357.5,533.5,357.5,537.5,357.5,541.5,358.5,545.5,358.5,549.5,358.5,553.5,358.5,557.5,358.0,561.5,359.0,565.5,357.5,569.5,362.0,569.0,360.5,570.5,364.5,568.5,368.5,568.5,376.0,570.0,380.0,570.5,383.0,568.0,384.0,570.5,388.0,568.0,391.0,570.5,395.0,570.5,399.0,571.0,403.0,570.5,407.0,566.5,411.0,566.5,415.0,566.0,419.0,566.5,423.0,566.5,427.0,566.0,431.0,566.5,435.0,565.5,439.0,566.5,443.0,564.5,445.5,566.5,449.5,564.0,448.0,564.5" stroke="black" stroke-width="1" fill="none" />
<polyline points="359.0,538.5,360.0,538.5,360.0,534.5,360.0,530.5,360.0,526.5,360.5,521.5,360.5,517.5,360.5,513.5,360.5,509.5,361.0,505.5,357.5,504.5,353.5,504.5,354.0,503.0,350.0,502.5,350.0,498.5,350.0,494.5,350.0,490.5,350.5,486.5,350.0,482.5,350.0,478.5,346.5,476.5" stroke="black" stroke-width="1" fill="none" />
<polyline points="346.5,475.5,350.5,477.0,354.5,477.0,358.5,477.0,362.5,473.0,366.5,473.0,370.5,472.5,374.5,472.5,378.5,473.0,382.5,474.0,386.5,473.0,390.5,472.5" stroke="black" stroke-width="1" fill="none" />
<polyline points="390.5,472.5,392.5,476.5,392.0,480.5,391.0,484.5,390.5,488.5,390.5,493.0,390.0,497.0,390.0,501.5,390.0,505.5,390.0,510.0,389.0,514.0,389.0,518.0,389.0,522.0,389.0,526.0,389.0,530.0,389.0,534.0,389.0,538.0,389.0,542.0,388.5,546.0,389.5,548.0,388.5,549.0,387.5,553.5,387.5,557.5,387.5,561.5,387.5,565.5,387.0,567.5,389.5,569.0,392.5,568.5,394.5,568.5,399.0,567.5" stroke="black" stroke-width="1" fill="none" />
<polyline points="360.0,501.5,356.0,501.5,352.0,502.0" stroke="black" stroke-width="1" fill="none" />
<polyline points="367.5,496.0,369.5,500.0,369.5,504.0,369.5,508.0,369.5,512.0,369.5,516.0,369.5,519.5,365.5,523.5,365.5,527.5,365.5,531.5,365.5,535.5,365.5,539.5,365.5,543.5,365.5,547.5,365.5,551.5,365.5,555.5,365.5,559.5,367.0,562.5,371.0,563.0,375.0,562.5,379.0,562.0,381.5,558.5" stroke="black" stroke-width="1" fill="none" />
<polyline points="369.0,496.5,365.0,496.5,361.0,496.5,357.0,496.5,356.5,494.0,356.5,490.0,356.5,486.0,357.5,482.0" stroke="black" stroke-width="1" fill="none" />
<polyline points="362.5,474.0,366.5,476.5,371.0,475.0,375.0,474.5,380.0,475.0" stroke="black" stroke-width="1" fill="none" />
<polyline points="382.5,480.5,385.0,484.5,385.0,488.5,384.5,492.5,384.5,496.5,382.0,500.0,381.0,504.0,380.5,508.0,380.5,512.0,380.5,516.0,381.5,520.0,381.0,524.0,381.0,528.0,381.0,528.0" stroke="black" stroke-width="1" fill="none" />
<polyline points="384.0,481.0,380.0,481.0,376.0,481.0,372.0,481.0,368.0,481.0,363.5,482.0,359.5,485.0,357.5,483.5,357.0,482.5,362.0,485.5,365.5,485.0,367.0,481.0" stroke="black" stroke-width="1" fill="none" />
<polyline points="391.0,475.5,390.5,479.5,391.5,483.5,392.5,488.0,394.0,485.0,398.0,481.0,399.5,483.0,402.5,478.5" stroke="black" stroke-width="1" fill="none" />
<polyline points="415.5,426.0,419.5,426.5,423.5,426.5,426.5,423.5,430.5,423.5,436.5,423.0,440.5,422.5" stroke="black" stroke-width="1" fill="none" />
<polyline points="443.0,418.5,447.0,418.5" stroke="black" stroke-width="1" fill="none" />
<polyline points="450.5,410.5,446.0,414.5,447.5,416.0,447.5,413.5,451.0,409.5,451.5,405.5,455.0,401.5,455.0,397.5,456.0,393.0,459.0,392.5,459.0,388.5,457.5,387.5,459.5,383.5,463.0,379.5,461.0,378.0,463.0,374.0,466.5,371.0,466.5,367.0,465.5,366.5,466.0,362.5,464.0,358.0,464.0,354.0,463.5,352.0" stroke="black" stroke-width="1" fill="none" />
<polyline points="459.5,343.0,463.0,342.0,463.0,346.0,463.0,350.0,466.5,354.0,466.5,358.0,464.5,362.0,464.0,366.0,463.0,373.0" stroke="black" stroke-width="1" fill="none" />
<polyline points="462.5,383.5,458.5,385.5" stroke="black" stroke-width="1" fill="none" />
<polyline points="457.0,366.5,454.5,366.5" stroke="black" stroke-width="1" fill="none" />
<polyline points="443.5,365.5,443.5,369.5" stroke="black" stroke-width="1" fill="none" />
<polyline points="442.0,372.0,439.0,376.0,435.0,376.0,439.0,370.5,441.5,366.5,442.5,362.5,441.0,361.0,443.5,359.5,442.0,358.0,441.0,360.5" stroke="black" stroke-width="1" fill="none" />
<polyline points="433.0,360.5,429.0,360.0" stroke="black" stroke-width="1" fill="none" />
<polyline points="427.5,359.5,431.5,358.0,427.5,360.0,428.0,364.0,429.5,368.0,431.5,364.0,433.5,366.0" stroke="black" stroke-width="1" fill="none" />
<polyline points="439.0,371.5,439.5,375.5" stroke="black" stroke-width="1" fill="none" />
<polyline points="438.5,383.0,439.5,387.0,435.5,391.0,435.0,395.0,432.0,395.5,431.5,399.5,431.5,400.5,426.5,404.5,428.0,406.5" stroke="black" stroke-width="1" fill="none" />
<polyline points="428.0,403.5,424.0,407.0" stroke="black" stroke-width="1" fill="none" />
<polyline points="424.0,408.5,424.0,412.5,429.0,414.5,433.0,414.5,437.0,415.0" stroke="black" stroke-width="1" fill="none" />
<polyline points="435.5,416.5,431.5,417.5,424.5,418.5,420.5,418.5" stroke="black" stroke-width="1" fill="none" />
<polyline points="421.5,415.0,417.0,419.5,416.5,418.0,420.0,417.0,421.0,412.0,424.0,408.0,420.0,412.5" stroke="black" stroke-width="1" fill="none" />
<polyline points="413.5,409.0,416.0,403.5,417.0,405.5" stroke="black" stroke-width="1" fill="none" />
<polyline points="419.5,396.5,423.5,395.0,420.0,399.0,416.5,403.0,417.0,405.5,412.0,407.5,412.0,411.5,409.0,415.5,404.5,419.0,404.5,423.0,405.0,427.0,408.0,426.5,412.0,426.5,413.0,424.5,417.0,424.5" stroke="black" stroke-width="1" fill="none" />
<polyline points="424.0,425.5,428.0,427.0,432.0,426.5" stroke="black" stroke-width="1" fill="none" />
<polyline points="433.0,418.0,435.5,415.0,439.5,411.0,439.5,407.0" stroke="black" stroke-width="1" fill="none" />
<polyline points="441.0,407.0,443.5,407.0,443.5,403.0,443.0,399.0" stroke="black" stroke-width="1" fill="none" />
<polyline points="443.0,399.0,447.0,398.5" stroke="black" stroke-width="1" fill="none" />
<polyline points="435.5,393.5,431.5,396.0" stroke="black" stroke-width="1" fill="none" />
<polyline points="436.5,387.5,432.5,387.0,428.5,387.0,424.5,387.0,420.5,386.5" stroke="black" stroke-width="1" fill="none" />
<polyline points="420.5,385.0,424.5,385.0,428.5,385.0,432.5,385.0" stroke="black" stroke-width="1" fill="none" />
<polyline points="427.5,373.5,423.5,375.5" stroke="black" stroke-width="1" fill="none" />
<polyline points="411.5,383.5,414.0,383.0,418.0,381.5,422.0,383.0,426.0,383.0,430.0,383.0,434.0,383.0,438.0,383.5" stroke="black" stroke-width="1" fill="none" />
<polyline points="442.5,356.0,439.5,352.5,435.5,352.5,431.5,352.0,427.5,352.5,423.5,352.5,419.5,352.5" stroke="black" stroke-width="1" fill="none" />
<polyline points="421.0,352.0,420.0,356.0,420.0,360.0,420.0,364.0,420.0,368.0,420.5,372.0,424.0,373.0,427.5,373.5,427.5,376.0,431.5,376.0,435.5,373.0,440.0,369.5" stroke="black" stroke-width="1" fill="none" />
<polyline points="423.0,355.0,421.5,358.0,422.0,354.0" stroke="black" stroke-width="1" fill="none" />
<polyline points="408.5,348.5,408.5,352.5,404.5,356.0,404.0,360.0,403.5,364.0,404.0,368.0,403.0,372.0,404.0,374.0,408.5,376.5,407.0,380.0,412.0,380.5,409.0,382.0,411.0,379.5" stroke="black" stroke-width="1" fill="none" />
<polyline points="408.5,376.0,404.5,374.0" stroke="black" stroke-width="1" fill="none" />
<polyline points="397.0,379.5,402.0,383.5,405.5,387.5,409.5,389.0" stroke="black" stroke-width="1" fill="none" />
<polyline points="404.0,385.0,402.0,385.0" stroke="black" stroke-width="1" fill="none" />
<polyline points="404.5,356.0,408.5,354.5,409.5,348.5,410.5,346.0,415.0,342.0,419.0,339.0,421.0,341.0,421.5,338.0,426.0,337.0,428.0,337.0,432.0,334.5,436.0,335.0,441.5,337.0,445.5,337.0,449.5,341.0" stroke="black" stroke-width="1" fill="none" />
<polyline points="451.0,341.5,451.0,345.5,455.0,349.5,455.0,353.5,458.5,357.5,458.5,361.5,459.0,365.5,454.5,366.5,454.5,370.5,454.5,374.5,455.0,378.5,451.0,381.5,451.0,385.5,451.0,388.5,448.0,392.5,447.5,396.5,445.0,403.0" stroke="black" stroke-width="1" fill="none" />
<polyline points="409.5,417.0,408.0,418.5,404.0,418.5" stroke="black" stroke-width="1" fill="none" />
<polyline points="406.5,341.5,408.5,337.5,408.0,337.0,404.0,337.0" stroke="black" stroke-width="1" fill="none" />
<polyline points="405.5,336.5,404.5,340.5,403.5,344.5,400.5,348.5,398.0,352.0,396.5,356.0,396.5,360.0,397.0,364.0,396.5,368.0,396.0,372.0,396.5,376.0,397.0,380.0,400.5,384.0,401.0,388.0,404.0,390.5,406.0,391.5,409.5,391.0,413.5,391.5,417.5,391.5,421.5,391.5" stroke="black" stroke-width="1" fill="none" />
<polyline points="430.0,337.0,434.0,337.0,438.0,337.0,442.0,335.5" stroke="black" stroke-width="1" fill="none" />
<polyline points="453.0,343.0,452.5,347.0,454.0,345.0,456.5,352.5,457.0,354.5,458.5,356.5" stroke="black" stroke-width="1" fill="none" />
<polyline points="460.0,343.5,459.0,339.5" stroke="black" stroke-width="1" fill="none" />
<polyline points="421.0,331.0,416.0,333.0,412.0,333.0" stroke="black" stroke-width="1" fill="none" />
<polyline points="421.0,328.5,419.0,332.5,423.5,329.0,427.5,329.5,431.5,329.0,435.5,329.0,437.5,329.5,441.5,329.0,445.5,329.0,449.5,329.0,453.5,332.5,457.5,337.0,457.5,340.0,461.5,341.0" stroke="black" stroke-width="1" fill="none" />
<polyline points="442.5,282.5,443.5,278.5,452.0,275.5,452.5,278.5,448.5,278.5" stroke="black" stroke-width="1" fill="none" />
<polyline points="448.0,270.5,447.0,271.0,443.0,271.0,439.0,274.5,435.0,274.5,431.0,275.0,427.0,274.5,424.5,273.5,421.0,271.0,420.0,267.0,419.5,263.0,414.0,263.0,412.5,259.0,411.5,255.0,412.0,251.0,412.0,247.0,412.0,243.0,412.0,239.0,412.5,235.0,414.5,235.5,414.0,233.0" stroke="black" stroke-width="1" fill="none" />
<polyline points="415.5,228.0,419.5,229.5" stroke="black" stroke-width="1" fill="none" />
<polyline points="416.0,238.5,415.5,234.5,413.5,233.0,415.5,229.0,418.5,227.5,416.0,225.5,420.0,224.5,419.5,220.5,420.5,216.5,422.0,213.5,423.0,209.5,425.0,207.0,427.5,204.0,428.0,201.5,429.5,197.5,431.0,196.5" stroke="black" stroke-width="1" fill="none" />
<polyline points="432.5,193.0,435.5,193.0,433.5,194.0,436.0,191.0,440.0,191.5,444.0,191.0,444.0,192.5,448.0,192.0,451.0,190.0,454.0,190.5" stroke="black" stroke-width="1" fill="none" />
<polyline points="452.0,192.5,454.5,191.5,452.5,195.5,449.0,196.5,447.5,200.5,445.0,202.5,446.0,205.5,439.5,209.5,439.5,213.5,435.5,213.5,435.5,217.5,431.5,221.5,433.0,224.0,437.0,223.5,441.0,222.5,445.0,222.5,449.0,222.5,453.0,223.5,456.0,225.0,459.0,225.0,459.5,230.0,461.0,232.0,462.0,228.5,462.5,230.0" stroke="black" stroke-width="1" fill="none" />
<polyline points="470.0,232.5,474.0,232.0" stroke="black" stroke-width="1" fill="none" />
<polyline points="470.5,234.0,470.0,234.0,472.0,238.0,472.0,242.0,472.5,246.0,472.0,250.0,470.5,252.5" stroke="black" stroke-width="1" fill="none" />
<polyline points="468.5,259.5,464.0,266.5,461.5,272.5,460.0,274.5,463.0,274.0,463.0,272.5,461.0,269.5,466.0,265.5,467.5,261.5,470.5,261.0,470.5,257.0,474.5,254.0,474.5,249.5,474.5,244.0,474.5,240.0,474.5,236.0,474.0,232.0,472.5,231.5,470.5,229.5,466.5,225.5,470.5,224.5,462.5,222.0" stroke="black" stroke-width="1" fill="none" />
<polyline points="456.0,224.0,455.0,225.0,456.5,227.5,459.5,226.0,458.5,230.0,463.0,234.0,463.0,238.0,466.5,242.0,466.5,246.0,463.0,249.5,463.0,253.5,463.0,257.5,464.5,257.5,459.0,263.5,454.5,267.5,450.5,270.5,452.0,267.0,454.0,269.0,458.0,265.5,458.0,263.0,461.0,261.5" stroke="black" stroke-width="1" fill="none" />
<polyline points="459.0,259.0,459.5,258.5,458.5,262.5,453.5,266.5" stroke="black" stroke-width="1" fill="none" />
<polyline points="451.0,254.5,451.0,250.5,448.5,246.0,448.0,242.0,447.0,238.0,444.5,237.0,440.0,235.5,436.0,236.0,432.0,236.0,428.0,236.5" stroke="black" stroke-width="1" fill="none" />
<polyline points="428.0,242.5,432.0,237.0,428.0,239.0,428.0,243.0,428.5,247.0,428.0,251.0,428.0,255.0,431.5,257.5,435.5,257.5,435.5,258.5,439.5,259.0,441.0,256.5,445.0,255.0,447.5,255.0,448.5,253.5" stroke="black" stroke-width="1" fill="none" />
<polyline points="445.0,255.0,443.5,258.0,443.0,259.0" stroke="black" stroke-width="1" fill="none" />
<polyline points="441.5,250.0,441.5,251.0,438.0,250.5,435.0,247.5,439.0,247.0,443.0,247.0" stroke="black" stroke-width="1" fill="none" />
<polyline points="443.5,243.5,439.5,241.5,439.0,243.5,435.0,243.5" stroke="black" stroke-width="1" fill="none" />
<polyline points="434.0,243.5,438.0,240.5,442.0,241.5" stroke="black" stroke-width="1" fill="none" />
<polyline points="443.0,235.5,447.0,236.0,450.0,239.5" stroke="black" stroke-width="1" fill="none" />
<polyline points="451.0,240.0,450.0,244.0,450.5,248.0,447.5,252.0,447.5,251.0,450.5,250.0" stroke="black" stroke-width="1" fill="none" />
<polyline points="437.0,257.5,433.0,255.0,431.5,256.0,427.5,254.5" stroke="black" stroke-width="1" fill="none" />
<polyline points="419.5,263.0,416.0,259.0,412.0,257.0" stroke="black" stroke-width="1" fill="none" />
<polyline points="406.5,260.5,407.5,261.5,408.5,263.0" stroke="black" stroke-width="1" fill="none" />
<polyline points="413.0,270.5,412.5,274.5,415.0,275.0,417.5,277.5,421.5,278.5,425.0,282.0,429.0,279.0,434.0,279.5,438.0,279.0,441.5,282.0,444.0,278.5,448.0,278.0,452.0,275.5,456.5,274.5,460.5,271.5,465.0,269.5" stroke="black" stroke-width="1" fill="none" />
<polyline points="466.5,270.0,466.5,266.0" stroke="black" stroke-width="1" fill="none" />
<polyline points="441.5,271.0,440.5,275.0" stroke="black" stroke-width="1" fill="none" />
<polyline points="444.0,274.5,439.0,274.5,440.0,270.5" stroke="black" stroke-width="1" fill="none" />
<polyline points="437.5,282.5,434.0,282.5,430.0,282.5,427.0,281.0,424.0,278.5,418.5,274.5,414.5,274.5,412.0,270.5,409.0,270.0,408.5,267.0,406.0,263.0,404.0,259.0,405.0,255.0,405.0,251.0,405.0,247.0,404.5,243.0,404.5,239.0,404.5,235.0,407.0,232.0,408.5,228.0,408.5,224.0,412.0,221.5,412.0,217.5,412.0,213.5,416.0,210.0,416.0,207.5,419.5,204.0,420.0,200.0,423.0,196.0,423.5,192.0,427.5,188.5,423.5,190.0" stroke="black" stroke-width="1" fill="none" />
<polyline points="426.5,193.0,427.5,192.5,428.5,188.5" stroke="black" stroke-width="1" fill="none" />
<polyline points="428.0,185.5,432.0,186.5,436.5,185.5,440.5,186.0,444.5,185.5,448.5,185.5,452.5,185.5,456.5,185.5,460.5,185.0,464.5,185.5" stroke="black" stroke-width="1" fill="none" />
<polyline points="464.5,188.5,460.5,192.5,459.0,197.5,457.5,199.0,454.5,204.5,453.0,208.5,454.5,204.5" stroke="black" stroke-width="1" fill="none" />
<polyline points="445.0,202.0,445.0,200.5,443.5,202.5,443.5,206.5,442.0,211.5,442.5,208.5" stroke="black" stroke-width="1" fill="none" />
<polyline points="446.5,215.5,450.5,216.5,454.5,216.0,458.5,216.5" stroke="black" stroke-width="1" fill="none" />
<polyline points="445.0,217.0,449.0,218.5,453.5,218.0,457.0,219.5,462.5,220.5,466.5,220.0,467.5,224.0,467.5,225.0,469.0,227.5" stroke="black" stroke-width="1" fill="none" />
<polyline points="441.5,212.0,437.0,214.5,433.0,220.5,429.0,221.0" stroke="black" stroke-width="1" fill="none" />
<polyline points="424.0,211.0,423.5,215.0,422.0,216.0,422.5,214.0,426.0,205.5,427.0,208.0" stroke="black" stroke-width="1" fill="none" />
<polyline points="424.0,197.0,420.0,197.0" stroke="black" stroke-width="1" fill="none" />
<polyline points="416.0,212.0,412.0,212.0" stroke="black" stroke-width="1" fill="none" />
<polyline points="406.5,233.5,405.5,238.0,404.5,240.0" stroke="black" stroke-width="1" fill="none" />
<polyline points="405.5,246.5,407.0,241.0,406.0,234.5,408.0,234.0,408.0,231.5,404.0,233.0" stroke="black" stroke-width="1" fill="none" />
<polyline points="421.5,272.0,422.5,271.0,426.5,271.0" stroke="black" stroke-width="1" fill="none" />
<polyline points="453.5,208.0,449.5,212.0,449.5,210.5,445.5,214.5,444.5,217.0,447.5,213.0,448.0,210.5,451.0,209.5,452.0,205.5,454.5,201.5,456.0,199.0,457.5,199.0,461.5,195.0" stroke="black" stroke-width="1" fill="none" />
<polyline points="450.5,119.0,454.5,118.5" stroke="black" stroke-width="1" fill="none" />
<polyline points="450.5,117.0,445.5,121.0,447.5,122.0" stroke="black" stroke-width="1" fill="none" />
<polyline points="438.0,116.0,435.0,116.5" stroke="black" stroke-width="1" fill="none" />
<polyline points="437.0,124.5,439.5,124.5,437.0,123.0,433.0,123.5,429.0,124.5,425.0,124.5" stroke="black" stroke-width="1" fill="none" />
<polyline points="414.0,123.0,412.0,125.0" stroke="black" stroke-width="1" fill="none" />
<polyline points="401.0,120.0,397.0,119.0" stroke="black" stroke-width="1" fill="none" />
<polyline points="401.0,117.5,394.5,113.0" stroke="black" stroke-width="1" fill="none" />
<polyline points="393.5,114.5,397.5,117.0,401.5,117.5" stroke="black" stroke-width="1" fill="none" />
<polyline points="408.0,103.0,412.0,101.5,412.5,103.0,416.5,102.0,416.5,100.5,418.5,103.5,422.5,103.0,426.5,103.0,427.0,103.0,431.0,103.0,435.0,103.0" stroke="black" stroke-width="1" fill="none" />
<polyline points="438.0,99.0,433.5,101.5,432.5,100.5,436.0,99.0,439.5,97.5,439.5,93.5,439.5,89.5,439.0,85.5,437.5,84.5,439.5,80.0,435.5,79.5,433.0,81.5,431.0,80.0,428.0,79.0,431.5,75.5,431.5,71.0,427.5,73.0" stroke="black" stroke-width="1" fill="none" />
<polyline points="431.5,73.0,435.5,72.0" stroke="black" stroke-width="1" fill="none" />
<polyline points="447.0,78.5,451.0,80.0,452.0,80.0" stroke="black" stroke-width="1" fill="none" />
<polyline points="452.5,78.0,448.5,75.5" stroke="black" stroke-width="1" fill="none" />
<polyline points="457.5,74.0,461.5,72.0,465.0,68.0,465.5,65.5" stroke="black" stroke-width="1" fill="none" />
<polyline points="459.0,63.0,455.0,64.5" stroke="black" stroke-width="1" fill="none" />
<polyline points="460.5,54.5,460.0,50.5" stroke="black" stroke-width="1" fill="none" />
<polyline points="453.0,48.0,457.0,48.5,459.0,50.5,459.0,54.5,460.5,56.0,459.0,58.0,459.0,62.0,455.0,65.0,455.5,68.0,451.0,68.5,447.5,72.5,447.5,76.5,448.5,76.5,453.5,79.5,455.0,83.5,455.0,87.5,457.5,83.0" stroke="black" stroke-width="1" fill="none" />
<polyline points="457.5,87.5,459.0,89.5,459.0,93.5,455.0,97.5,455.0,101.5,453.0,106.5,453.0,106.5" stroke="black" stroke-width="1" fill="none" />
<polyline points="453.0,103.0,449.0,107.0,445.0,111.0,448.5,111.0,451.5,107.0,451.0,103.0" stroke="black" stroke-width="1" fill="none" />
<polyline points="462.0,102.5,462.5,106.5,463.0,102.5" stroke="black" stroke-width="1" fill="none" />
<polyline points="465.0,99.0,466.5,96.5,466.0,92.5" stroke="black" stroke-width="1" fill="none" />
<polyline points="464.5,88.5,464.0,84.5,463.5,83.0" stroke="black" stroke-width="1" fill="none" />
<polyline points="457.0,114.5,453.5,114.0,449.5,117.5,445.0,120.5,442.5,123.0,440.0,122.5,436.0,126.5,432.5,126.5,428.5,126.5,424.5,126.5,420.5,126.5,416.5,126.5,414.5,124.0,414.5,125.0,410.5,122.5,406.5,123.0,405.5,122.5,402.0,121.5,400.0,121.5,396.5,118.0,394.0,115.0,393.0,111.0,393.0,107.0,397.0,103.0,400.5,99.5,400.5,95.5,404.5,96.5,400.5,95.5" stroke="black" stroke-width="1" fill="none" />
<polyline points="404.0,93.0,408.0,91.5,412.0,91.5,416.0,92.0,418.5,95.5,422.5,95.5,426.5,95.5,430.5,95.0" stroke="black" stroke-width="1" fill="none" />
<polyline points="423.0,85.5,422.5,82.5,422.5,79.0,422.5,75.0,422.0,70.5,421.0,72.0" stroke="black" stroke-width="1" fill="none" />
<polyline points="417.5,68.0,419.5,70.0,420.5,74.0,420.0,78.0,420.5,82.0,420.0,86.0,422.0,88.0,426.0,88.0,428.5,88.0,432.5,87.5,434.5,89.5,433.0,89.5,431.5,91.0,430.5,95.0" stroke="black" stroke-width="1" fill="none" />
<polyline points="442.0,115.0,443.5,111.0,447.5,108.0,449.0,109.0,445.5,114.0,440.0,114.5,436.0,115.0,433.5,118.5,429.5,118.5,425.5,118.5,421.5,118.5,417.5,118.0,413.5,115.0,409.5,114.5,405.5,111.0,406.0,113.5,404.5,109.5,408.5,104.5,407.5,102.5,409.5,98.5,414.0,101.0,411.5,97.5,407.5,102.0" stroke="black" stroke-width="1" fill="none" />
<polyline points="406.5,60.5,406.0,59.0" stroke="black" stroke-width="1" fill="none" />
<polyline points="408.5,45.0,412.5,42.0,413.0,44.5,416.5,41.0,420.5,41.5,424.5,41.0" stroke="black" stroke-width="1" fill="none" />
<polyline points="424.0,38.5,420.0,39.0" stroke="black" stroke-width="1" fill="none" />
<polyline points="428.5,37.5,426.5,41.5,426.0,37.5,431.0,37.0,435.0,37.5,439.0,37.0" stroke="black" stroke-width="1" fill="none" />
<polyline points="438.5,37.0,439.5,41.0,439.0,43.0,443.0,41.0,444.0,41.0,448.0,41.0,452.0,44.5,453.5,42.5" stroke="black" stroke-width="1" fill="none" />
<polyline points="463.0,37.5,463.0,41.5,464.0,45.5,466.5,47.5,466.5,51.5,466.5,55.5,466.5,59.5,466.5,63.5,467.0,66.0,462.5,70.0,458.0,73.5,461.0,76.5,461.5,79.0,466.5,80.5,466.5,84.5,466.5,88.5,464.5,92.5,464.0,96.5,463.0,101.0,461.0,105.0,459.0,109.5,459.0,113.5,455.5,115.0" stroke="black" stroke-width="1" fill="none" />
<polyline points="433.5,62.0,429.0,63.5,433.0,62.5,428.5,64.0,429.5,60.0,428.0,61.5,422.5,61.5,422.0,64.0,417.0,64.5,416.5,68.0,412.5,68.0,410.0,66.5,409.5,68.0,406.5,64.0,404.5,61.0,403.5,57.0,400.5,56.5,400.5,52.5,399.5,48.5,396.5,45.5,396.5,41.5,396.0,39.5" stroke="black" stroke-width="1" fill="none" />
<polyline points="396.5,40.5,400.5,41.0,404.5,40.0,407.5,37.0,411.5,36.5" stroke="black" stroke-width="1" fill="none" />
<polyline points="413.5,33.0,414.0,34.5,414.0,33.0,418.0,33.0,422.0,33.0,424.5,29.0,428.5,29.0,432.5,28.5,436.5,28.5,440.5,29.5,444.5,29.0,448.5,33.0,452.5,33.0,456.5,37.0,460.5,37.0" stroke="black" stroke-width="1" fill="none" />
<polyline points="445.0,30.5,440.5,32.0,437.0,31.5,433.0,31.5" stroke="black" stroke-width="1" fill="none" />
<polyline points="427.5,53.5,431.5,55.5" stroke="black" stroke-width="1" fill="none" />
<polyline points="426.0,60.5,426.5,64.5,424.0,65.0,421.5,68.0,426.5,67.0,430.0,66.5" stroke="black" stroke-width="1" fill="none" />
<polyline points="439.0,72.0,440.0,68.0,439.5,66.0,439.5,62.0,439.5,58.0" stroke="black" stroke-width="1" fill="none" />
<polyline points="437.0,56.5,435.5,52.5,431.5,52.5,427.5,52.5,425.0,55.5,421.5,56.5,417.5,56.5,413.5,56.5,413.0,59.5,412.5,55.0,412.0,52.5,409.0,48.5,409.5,44.5" stroke="black" stroke-width="1" fill="none" />
<polyline points="113.0,29.5,109.0,29.0,105.0,29.5,101.0,30.0,97.0,29.0,93.0,29.0,89.0,29.0,85.0,29.5,82.0,31.5,78.0,33.0,76.5,30.5,74.0,33.0,70.0,34.0" stroke="black" stroke-width="1" fill="none" />
<polyline points="70.5,33.5,69.5,37.5,69.5,41.5,69.5,45.5,69.5,49.5,69.5,53.5,70.0,57.5,70.0,60.0,74.0,60.5,78.0,61.0" stroke="black" stroke-width="1" fill="none" />
<polyline points="77.0,61.0,78.0,65.0,77.5,69.0,78.5,73.0,78.5,77.0,78.5,81.0,78.5,85.0,78.0,89.0,79.0,93.0,79.0,97.0,79.0,101.0,78.0,105.0,78.0,109.0,78.0,113.0,78.0,117.0,78.0,121.0,77.0,125.0,79.5,126.5,83.5,124.5,87.5,124.5,91.5,124.5,93.0,125.0,96.0,124.5,100.0,124.0,104.0,123.5,106.5,126.5" stroke="black" stroke-width="1" fill="none" />
<polyline points="101.5,127.0,97.5,126.5,93.5,126.5" stroke="black" stroke-width="1" fill="none" />
<polyline points="98.5,118.5,94.5,118.5,90.5,118.5,86.5,118.5,84.0,118.0,85.0,114.0,85.0,110.0,85.0,106.0,85.0,102.0,83.5,98.0" stroke="black" stroke-width="1" fill="none" />
<polyline points="106.5,98.0,107.0,94.0,107.0,90.0,108.5,86.0,108.5,81.5,108.5,77.5,108.5,73.5,108.5,69.5,108.5,65.5,108.5,61.5,108.5,57.5,108.5,53.5,109.0,49.5,112.5,45.5,112.5,41.5,112.5,37.5,112.5,33.5,109.5,33.5" stroke="black" stroke-width="1" fill="none" />
<polyline points="110.5,33.0,109.5,37.0,109.5,41.0,110.0,45.0,109.5,48.5" stroke="black" stroke-width="1" fill="none" />
<polyline points="102.0,46.5,102.0,42.5" stroke="black" stroke-width="1" fill="none" />
<polyline points="100.0,41.5,102.0,38.5,103.5,42.5,103.5,46.5,103.5,49.5,103.0,53.5,103.0,57.5,103.0,61.5,103.0,64.5,101.0,68.0" stroke="black" stroke-width="1" fill="none" />
<polyline points="108.5,87.0,108.5,91.0,108.5,95.0,108.0,99.0,107.0,103.0,107.0,107.0,106.0,111.0,106.0,115.0,106.0,119.0,106.0,123.0,103.0,125.0,108.5,125.5" stroke="black" stroke-width="1" fill="none" />
<polyline points="108.5,123.0,107.5,119.0,107.5,115.0,107.5,111.0" stroke="black" stroke-width="1" fill="none" />
<polyline points="86.0,126.5,82.0,126.0" stroke="black" stroke-width="1" fill="none" />
<polyline points="87.5,179.0,85.5,179.0,79.0,183.0,81.0,181.5,82.5,177.0,86.5,177.0,90.5,178.5,94.5,178.5,98.5,178.5,102.5,178.5,106.5,178.5,110.5,178.5,114.5,177.0,115.0,179.0,116.5,180.0,116.5,184.0,114.0,185.0" stroke="black" stroke-width="1" fill="none" />
<polyline points="113.0,180.5,114.0,178.0,113.0,182.0,112.5,186.0,112.5,190.0,112.0,194.0,112.0,198.0,110.5,202.0,110.0,206.0,109.0,210.0,109.0,214.0,113.0,215.5,108.5,219.0,109.5,220.0,113.5,220.0,117.0,223.5,117.0,227.5,118.0,226.0" stroke="black" stroke-width="1" fill="none" />
<polyline points="109.5,222.0,113.5,222.0,117.5,220.0,119.5,221.0,120.0,225.0,117.0,228.0,116.5,232.0,116.5,236.0,115.5,240.0,115.5,244.5,116.5,246.0" stroke="black" stroke-width="1" fill="none" />
<polyline points="116.0,242.0,113.0,247.0,109.0,247.0,105.0,249.0" stroke="black" stroke-width="1" fill="none" />
<polyline points="106.5,250.0,107.0,254.0" stroke="black" stroke-width="1" fill="none" />
<polyline points="107.5,259.0,108.5,257.0,108.5,253.0,108.5,249.0" stroke="black" stroke-width="1" fill="none" />
<polyline points="109.0,247.0,105.5,248.0,105.5,252.0,105.0,256.0,105.0,258.5,104.5,262.5,104.5,266.5,104.5,270.0" stroke="black" stroke-width="1" fill="none" />
<polyline points="100.0,263.0,97.0,262.0,97.5,258.0,97.0,254.0,100.5,250.0,100.5,246.0,100.5,242.0,104.5,237.5,100.5,240.0" stroke="black" stroke-width="1" fill="none" />
<polyline points="101.0,242.0,105.0,242.0" stroke="black" stroke-width="1" fill="none" />
<polyline points="110.0,233.0,110.0,232.0,109.5,227.5,105.5,227.0,101.5,227.5,102.0,224.5,101.5,220.5,100.5,216.5,100.5,212.5,100.0,213.0" stroke="black" stroke-width="1" fill="none" />
<polyline points="109.0,216.0,109.5,213.5" stroke="black" stroke-width="1" fill="none" />
<polyline points="111.0,207.0,111.0,209.0,112.5,209.0,112.5,206.5,111.5,202.0" stroke="black" stroke-width="1" fill="none" />
<polyline points="103.5,217.0,103.5,213.0,104.0,209.0,104.5,205.0,104.5,201.0,104.5,197.0,105.0,193.0,104.5,189.0,104.0,185.0,101.0,185.0,97.0,185.0,93.0,185.0" stroke="black" stroke-width="1" fill="none" />
<polyline points="88.5,185.0,88.0,189.0,85.0,192.0,81.0,194.5,78.5,195.0,82.5,190.0,87.0,185.5,91.0,184.0,95.0,183.0,99.0,183.0,103.0,183.0,107.0,183.0,107.5,184.5" stroke="black" stroke-width="1" fill="none" />
<polyline points="89.5,188.5,85.5,189.0,81.0,196.5,77.0,198.0,73.0,201.0" stroke="black" stroke-width="1" fill="none" />
<polyline points="67.0,198.0,71.0,195.5,71.5,193.0,75.5,190.0,76.5,188.5" stroke="black" stroke-width="1" fill="none" />
<polyline points="80.0,185.5,82.5,183.0,81.5,179.0,83.5,179.5" stroke="black" stroke-width="1" fill="none" />
<polyline points="78.0,181.0,77.5,185.0,74.5,188.5,74.5,191.5,71.0,195.5,67.5,199.5,66.0,200.0,63.5,204.0,60.5,207.5,57.5,211.0,54.0,215.0,53.5,219.0,52.5,224.0,52.0,228.0,52.0,232.0,51.5,236.0,51.5,239.0,50.5,243.0,51.0,246.5,55.0,246.0,59.0,246.0,63.0,246.0,67.0,247.0,71.0,247.0,75.0,246.5" stroke="black" stroke-width="1" fill="none" />
<polyline points="74.0,246.5,75.0,250.5,75.5,254.5,74.0,253.5" stroke="black" stroke-width="1" fill="none" />
<polyline points="72.5,246.5,73.5,250.5,74.0,254.5,74.0,258.5,74.0,262.5,73.5,266.5,73.5,270.5,78.5,269.0,82.5,269.0,86.5,269.0,88.5,269.0,92.5,268.5,96.5,268.5,100.5,269.0,102.0,270.0" stroke="black" stroke-width="1" fill="none" />
<polyline points="99.5,263.5,100.0,259.5,100.5,256.0,100.0,252.0,97.0,252.0" stroke="black" stroke-width="1" fill="none" />
<polyline points="96.5,270.5,92.5,270.5,88.5,270.5" stroke="black" stroke-width="1" fill="none" />
<polyline points="84.5,225.0,80.5,226.5,76.5,227.5,74.0,226.0,70.0,226.5,66.0,226.5,62.0,226.5,60.5,220.0,63.0,218.5,66.0,215.5,65.5,211.5,62.0,216.0" stroke="black" stroke-width="1" fill="none" />
<polyline points="63.0,216.0,67.0,217.5" stroke="black" stroke-width="1" fill="none" />
<polyline points="69.5,212.5,73.5,212.5,77.5,210.5,79.0,206.0,81.5,204.5,82.0,201.0,85.0,200.0,88.0,197.0" stroke="black" stroke-width="1" fill="none" />
<polyline points="87.0,197.0,89.0,201.0,87.5,205.0,87.0,209.0,86.5,213.0,85.5,217.5,85.0,221.5,84.5,225.5" stroke="black" stroke-width="1" fill="none" />
<polyline points="80.0,218.5,78.5,217.0,79.0,220.0,77.5,219.0,80.0,215.0" stroke="black" stroke-width="1" fill="none" />
<polyline points="77.5,207.5,73.5,208.5" stroke="black" stroke-width="1" fill="none" />
<polyline points="62.0,199.5,62.0,199.5,62.5,203.5,58.5,205.0,56.0,209.0,54.5,210.5,52.0,214.5,52.0,219.5,53.0,220.5" stroke="black" stroke-width="1" fill="none" />
<polyline points="50.5,215.5,52.0,212.0,50.0,213.5,50.5,217.5,50.5,221.5,50.0,225.5,50.0,229.5,50.5,233.5" stroke="black" stroke-width="1" fill="none" />
<polyline points="58.0,230.5,57.5,234.5,57.5,238.5,62.0,239.0,66.0,239.0,70.0,239.0,74.0,239.0,79.0,242.0" stroke="black" stroke-width="1" fill="none" />
<polyline points="95.5,264.0,91.5,264.0,87.5,264.0,83.5,264.0,80.0,264.0,81.5,260.0,81.5,257.5,81.5,253.5,81.5,249.5,81.5,245.5,81.5,241.5,80.0,239.0,76.5,241.5,72.5,241.5,68.5,241.5,64.5,241.5,60.5,241.5,56.5,241.5,56.0,238.5,56.5,234.5,57.0,230.5,57.0,226.5,58.0,222.5,58.5,218.5,61.0,214.5,64.0,210.5,67.5,206.5,72.0,202.5,70.5,203.5,66.5,207.5,62.5,212.5,58.5,217.0" stroke="black" stroke-width="1" fill="none" />
<polyline points="52.0,214.5,56.0,213.0,60.0,208.0,61.0,204.0,61.5,206.5" stroke="black" stroke-width="1" fill="none" />
<polyline points="74.0,214.5,70.0,220.0,66.0,223.5,62.0,223.5,68.0,222.0,71.5,218.0,74.5,214.0,75.0,211.5,78.0,210.0,81.0,206.0,81.5,203.0,85.0,200.5,86.0,196.5" stroke="black" stroke-width="1" fill="none" />
<polyline points="89.0,205.0,89.0,209.0,89.0,213.0,87.0,217.0,89.0,218.5,86.5,220.0" stroke="black" stroke-width="1" fill="none" />
<polyline points="108.0,227.5,109.0,231.5,109.0,235.5,109.0,239.5,104.5,239.5,108.5,240.5" stroke="black" stroke-width="1" fill="none" />
<polyline points="69.5,215.0,73.5,211.5,77.0,208.0,77.5,204.0,77.0,198.5,77.5,196.0,81.0,192.0,85.0,188.0,88.0,184.0" stroke="black" stroke-width="1" fill="none" />
<polyline points="80.0,70.0,79.0,71.0,80.0,67.0,80.0,63.0,78.0,59.0,78.0,58.0,74.0,57.5,70.0,57.0" stroke="black" stroke-width="1" fill="none" />
<polyline points="76.0,50.0,76.0,46.0,77.5,42.0,74.0,43.5" stroke="black" stroke-width="1" fill="none" />
<polyline points="77.5,45.0,77.5,49.0,76.5,53.0" stroke="black" stroke-width="1" fill="none" />
<polyline points="85.0,53.0,85.0,57.0,85.0,61.0,85.0,65.0,85.0,69.0,85.0,73.0,85.0,77.0,85.0,81.0,85.0,85.0,85.0,89.0,85.0,93.0,85.0,97.0,83.5,100.0,83.5,104.0,83.5,108.0,83.5,112.0" stroke="black" stroke-width="1" fill="none" />
<polyline points="77.5,42.0,81.5,41.0,85.0,37.5,89.0,37.0,93.0,37.0,97.0,37.0,101.0,36.0,102.5,38.5" stroke="black" stroke-width="1" fill="none" />
<polyline points="100.0,37.5,100.0,41.5,100.5,45.5,101.0,49.0,101.0,53.0,100.5,57.0,100.5,61.0,100.0,65.0,101.5,69.0,101.5,73.0,101.0,77.0,102.0,81.0,102.0,85.0,102.0,89.0,101.0,93.0,101.0,97.0,101.0,101.0,100.5,105.0,100.5,109.0,100.5,113.0,101.0,117.0" stroke="black" stroke-width="1" fill="none" />
<polyline points="85.0,40.0,82.5,37.5,78.5,38.5,74.5,39.0" stroke="black" stroke-width="1" fill="none" />
<polyline points="76.0,38.0,74.5,42.0,74.5,46.0,74.5,50.0,79.0,52.5,83.0,52.5" stroke="black" stroke-width="1" fill="none" />
<polyline points="83.0,32.0,87.0,32.0" stroke="black" stroke-width="1" fill="none" />
<polyline points="111.0,33.5,111.0,37.5,111.0,41.5" stroke="black" stroke-width="1" fill="none" />
<polyline points="112.5,329.0,108.5,329.0,104.5,329.0,100.5,329.0,96.5,328.5,92.5,328.5,88.5,329.0,84.5,328.5,80.5,328.5,76.5,328.5,72.5,329.0,70.5,328.5,66.5,332.5,62.5,332.5,58.5,332.5,54.5,333.0,50.5,333.5,46.5,333.0" stroke="black" stroke-width="1" fill="none" />
<polyline points="51.0,333.0,46.5,333.5,46.0,337.5,48.5,335.0,50.0,337.5,50.0,341.5,50.5,345.5,50.5,349.5,50.0,353.5,51.5,355.5,50.5,359.5,50.5,363.5,53.5,363.5,57.5,361.5,61.5,362.0,65.5,360.5,69.5,360.5,73.5,360.5" stroke="black" stroke-width="1" fill="none" />
<polyline points="62.5,356.0,58.5,355.5" stroke="black" stroke-width="1" fill="none" />
<polyline points="58.0,354.5,62.0,354.0,66.0,354.0,69.0,355.0,73.0,355.0,76.5,355.0,80.5,354.5" stroke="black" stroke-width="1" fill="none" />
<polyline points="78.0,340.0,75.0,341.5,71.0,341.5,67.0,341.5,64.0,339.5,62.0,341.0,58.0,341.5" stroke="black" stroke-width="1" fill="none" />
<polyline points="58.0,340.5,58.0,344.5,58.0,348.5,56.5,352.5,58.0,348.0" stroke="black" stroke-width="1" fill="none" />
<polyline points="58.0,364.0,54.0,363.5" stroke="black" stroke-width="1" fill="none" />
<polyline points="101.5,376.0,104.5,372.0,104.5,369.0,105.0,365.0,103.0,364.0,104.5,360.0,105.0,355.5,106.0,351.5,107.0,347.5,108.5,343.5,109.0,339.5,110.5,335.5,109.5,331.5" stroke="black" stroke-width="1" fill="none" />
<polyline points="217.5,477.0,221.5,477.0,225.5,477.0,229.5,473.0,233.5,473.5,237.5,472.5,241.5,473.0,245.5,473.0,249.5,474.0,253.5,473.0,257.5,473.0,260.5,475.5,264.5,477.0,268.5,473.0,272.5,473.0,276.5,472.5,280.5,472.5,284.5,473.0,288.5,474.0,292.5,473.0,296.5,472.5" stroke="black" stroke-width="1" fill="none" />
<polyline points="298.0,477.5,298.0,481.5,298.0,485.5" stroke="black" stroke-width="1" fill="none" />
<polyline points="290.5,488.5,288.5,484.5" stroke="black" stroke-width="1" fill="none" />
<polyline points="248.0,474.5,241.0,475.0,237.0,476.0" stroke="black" stroke-width="1" fill="none" />
<polyline points="218.5,476.5,217.5,480.5,217.5,484.5,217.0,488.5,217.0,492.5,217.0,496.5,217.0,500.5,217.5,504.5,220.0,504.5,224.0,504.5,228.5,505.0" stroke="black" stroke-width="1" fill="none" />
<polyline points="226.5,507.5,228.0,511.5,228.0,515.5,228.0,519.5,227.5,525.0" stroke="black" stroke-width="1" fill="none" />
</svg>