<svg xmlns="http://www.w3.org/2000/svg" height="677px" width="503px" version="1.1"><polyline points="389.5,10.0,394.0,14.0,398.5,18.0,400.5,22.0,403.5,26.0,405.5,30.0,407.0,34.0,407.5,38.0,408.0,42.0,408.0,46.0,407.5,50.0,407.0,54.0,405.5,58.0,404.0,62.0,401.5,66.0,398.0,70.0,394.0,74.0" stroke="black" stroke-width="1" fill="none" />
<polyline points="394.5,75.5,398.5,73.5" stroke="black" stroke-width="1" fill="none" />
<polyline points="401.0,71.0,399.0,69.0,395.0,73.0,391.0,76.0,387.0,77.0,383.0,78.0,379.0,78.0,375.0,78.0,371.0,76.5,367.0,74.5,363.0,71.5,359.0,67.5,355.0,62.5,351.5,60.5,351.5,57.5,347.5,59.5,343.5,61.0,339.5,63.5,335.5,66.0,331.5,69.0,327.5,72.5,323.5,75.5,319.5,79.0,315.5,83.0" stroke="black" stroke-width="1" fill="none" />
<polyline points="316.0,85.5,320.0,87.5,322.0,91.0,326.0,93.0,328.0,98.0,332.0,103.0,336.0,105.5,338.0,103.5" stroke="black" stroke-width="1" fill="none" />
<polyline points="334.5,105.5,334.5,107.5,336.5,110.0,341.5,115.0" stroke="black" stroke-width="1" fill="none" />
<polyline points="342.0,120.5,346.0,128.0" stroke="black" stroke-width="1" fill="none" />
<polyline points="349.5,135.5,353.5,136.5" stroke="black" stroke-width="1" fill="none" />
<polyline points="338.0,136.0,342.5,138.5,344.0,142.5,345.5,146.5,347.5,150.5,349.0,154.5,350.0,158.5,349.5,162.5,352.0,164.5,353.0,168.5,354.0,172.5,355.0,176.5,356.0,180.5,356.5,184.5,356.5,188.5" stroke="black" stroke-width="1" fill="none" />
<polyline points="363.5,184.0,367.5,188.0,369.0,185.5,371.5,190.5,375.5,190.5,377.5,193.5,381.5,195.5,385.5,196.0,386.5,198.5,390.5,198.5,390.5,197.0,391.5,200.5,395.5,204.0,399.5,206.0,402.5,209.5,406.5,209.5,409.5,214.5,413.0,217.0,417.0,220.5,421.0,224.0,425.0,225.0,426.5,229.5,429.5,232.0,433.5,236.5,437.5,239.5,440.0,243.0,444.0,248.5,447.0,245.5" stroke="black" stroke-width="1" fill="none" />
<polyline points="445.5,250.0,449.5,252.5,452.0,253.5" stroke="black" stroke-width="1" fill="none" />
<polyline points="451.0,257.5,455.0,258.5,457.0,262.5,457.5,267.0,461.5,273.0,465.5,278.5" stroke="black" stroke-width="1" fill="none" />
<polyline points="465.5,278.5,468.0,282.5,469.0,283.0,470.0,289.0,474.0,296.5" stroke="black" stroke-width="1" fill="none" />
<polyline points="469.0,305.5,473.0,315.0" stroke="black" stroke-width="1" fill="none" />
<polyline points="469.5,313.5,472.5,313.5,472.0,317.5,475.0,320.5,476.5,324.5,478.0,328.5,478.5,332.5,480.0,336.5,481.5,340.5,482.0,344.5,483.0,348.5,484.0,352.5,484.5,356.5,485.5,360.5,486.0,364.5,487.0,368.5,487.5,372.5,488.5,376.5,489.0,380.5,489.5,384.5,489.5,388.5,491.0,392.5,490.5,396.5,491.0,400.5,491.0,404.5,491.5,408.5,491.5,412.5,491.5,416.5,491.0,420.5,493.0,422.5,493.0,426.5,493.0,430.5,493.0,434.5,493.0,438.5,493.0,442.5,493.0,446.5,492.5,450.5,493.0,454.5,491.5,458.5,491.5,462.5,491.5,466.5,491.5,470.5,490.5,474.5,489.5,478.5,489.5,482.5,489.0,486.5,488.0,490.5,487.0,494.5,486.0,498.5,485.0,502.5,484.0,506.5,482.5,510.5,482.0,514.5,480.5,518.5,478.5,522.5,477.5,525.5,476.0,529.0,474.5,532.5,472.5,536.5,470.5,540.5,468.5,544.5,464.0,546.5,465.5,547.0,464.5,551.0,462.0,555.0,459.5,559.0,457.5,561.0,455.0,565.0,452.5,569.0,450.0,570.0,448.5,574.0,445.0,578.0,441.0,582.0,438.5,586.0,436.0,588.0,432.0,592.0,427.5,596.0,423.5,600.0,418.0,604.0,413.5,608.0,411.5,608.0,406.5,613.5,400.5,617.5,395.0,621.5,387.5,624.0,384.5,627.5,377.0,631.5" stroke="black" stroke-width="1" fill="none" />
<polyline points="368.5,648.5,369.5,647.0,364.5,647.5,356.0,651.5,349.0,656.0" stroke="black" stroke-width="1" fill="none" />
<polyline points="354.5,640.5,358.5,640.5,350.0,644.0,341.0,648.0,329.0,651.0" stroke="black" stroke-width="1" fill="none" />
<polyline points="328.5,663.5,324.5,664.5" stroke="black" stroke-width="1" fill="none" />
<polyline points="305.5,663.0,304.0,659.0,301.5,657.5,301.0,653.5,299.0,649.5,297.0,645.5" stroke="black" stroke-width="1" fill="none" />
<polyline points="303.5,635.5,301.0,635.5,298.0,629.5,294.0,622.5,290.5,615.0,286.5,607.5" stroke="black" stroke-width="1" fill="none" />
<polyline points="280.0,621.0,283.5,625.0,284.0,627.0" stroke="black" stroke-width="1" fill="none" />
<polyline points="305.5,634.0,304.0,639.0,304.5,642.5,307.0,647.0,310.5,652.0" stroke="black" stroke-width="1" fill="none" />
<polyline points="373.5,643.5,381.0,639.5,388.5,635.5,395.0,631.5,401.0,627.5,407.0,623.5,412.5,619.5,418.5,615.5,423.5,611.5,427.5,607.5,431.5,603.5,437.0,599.5,440.5,595.5,444.0,591.5,448.5,587.5,451.5,583.5,454.5,579.5,457.5,575.5,461.0,571.5,464.0,567.5,467.0,563.5,469.0,559.5,471.5,555.5,474.0,551.5,476.0,547.5,478.5,543.5,480.0,539.5,482.0,535.5,483.5,531.5,485.5,527.5,486.5,523.5,488.0,519.5,489.5,515.5,491.0,511.5,492.0,507.5,493.0,503.5,494.0,499.5,495.0,495.5,496.5,491.5,496.5,487.5,497.5,483.5,498.0,479.5,498.5,475.5,498.5,471.5,499.0,467.5,499.5,463.5,500.0,459.5,500.5,455.5,501.0,451.5,500.5,447.5,500.5,443.5,500.5,439.5,500.5,435.5,500.5,431.5,500.5,427.5,500.5,423.5,500.5,419.5,500.5,415.5,500.0,411.5,499.0,407.5,499.0,403.5,498.5,399.5,498.5,395.5,498.0,391.5,497.5,387.5,497.0,383.5,496.5,379.5,496.5,375.5,495.5,371.5,495.0,367.5,494.5,363.5,493.5,359.5,492.5,355.5,491.5,351.5,491.0,347.5,489.5,343.5,488.5,339.5,487.5,335.5,486.0,331.5,485.5,327.5,484.0,323.5,482.5,319.5,481.5,315.5,479.5,311.5,478.5,307.5,476.5,303.5,474.5,299.5,473.0,295.5,471.0,291.5,469.0,287.5,467.0,283.5,464.5,279.5,462.5,275.5,460.0,271.5,457.5,267.5,454.5,263.5,452.0,259.5,449.5,255.5,446.5,251.5,443.0,247.5,440.0,243.5,436.0,239.5,432.0,235.5,428.0,231.5,424.0,227.5,420.0,223.5,415.0,219.5,410.5,215.5,405.5,211.5,399.5,207.5,395.0,204.0,390.0,201.0,384.5,197.0,376.5,193.0,371.0,190.5,364.5,186.5,364.0,182.5,363.0,178.5,362.0,174.5,361.0,170.5,360.0,166.5,359.0,162.5,358.0,158.5,356.5,154.5,355.0,150.5,354.0,146.5,352.5,142.5,350.0,138.0,349.0,134.0,347.5,130.0,345.5,126.0,343.0,122.0,340.5,118.0,338.5,114.0,336.0,110.0,333.0,106.0,330.5,102.0,327.5,98.0,324.5,94.0,320.5,90.0,317.0,86.0,316.0,82.0,320.5,78.0,325.0,74.0,330.5,70.0,335.5,66.0,341.0,62.0,342.0,63.5" stroke="black" stroke-width="1" fill="none" />
<polyline points="355.0,63.0,358.0,67.0,355.0,67.0,355.0,70.0,359.0,69.0,360.5,75.5" stroke="black" stroke-width="1" fill="none" />
<polyline points="360.0,69.0,364.5,73.0,371.0,78.5" stroke="black" stroke-width="1" fill="none" />
<polyline points="348.5,50.0,344.5,52.0,340.5,54.0,336.5,55.5,332.5,58.5,328.5,61.0,324.5,64.5,323.0,60.0,326.5,62.5,331.5,58.5,335.5,56.5,338.0,52.5,346.5,50.5,349.0,46.5,348.5,42.5,349.0,38.5,349.5,34.5,350.0,30.5,352.0,26.5,353.0,22.5,356.0,18.5,359.0,14.5,364.0,10.5,362.0,9.0" stroke="black" stroke-width="1" fill="none" />
<polyline points="366.5,6.5,367.5,5.5,371.5,6.0" stroke="black" stroke-width="1" fill="none" />
<polyline points="395.0,14.5,399.0,18.0,403.0,17.5" stroke="black" stroke-width="1" fill="none" />
<polyline points="401.0,22.0,405.0,28.0,409.0,33.5" stroke="black" stroke-width="1" fill="none" />
<polyline points="408.0,56.5,406.5,60.5,406.5,60.5" stroke="black" stroke-width="1" fill="none" />
<polyline points="397.5,11.0,393.5,10.5,392.5,12.5,388.5,9.5,384.5,8.5,380.5,7.5,376.5,7.5,372.5,7.5,368.5,9.0,364.5,9.5,360.5,13.0,356.5,18.0,352.5,23.5" stroke="black" stroke-width="1" fill="none" />
<polyline points="324.0,60.5,322.5,64.5,319.5,68.5,318.0,66.0" stroke="black" stroke-width="1" fill="none" />
<polyline points="316.5,65.5,318.0,69.5,314.0,73.5,310.0,77.5" stroke="black" stroke-width="1" fill="none" />
<polyline points="309.0,76.5,305.0,76.0" stroke="black" stroke-width="1" fill="none" />
<polyline points="302.5,86.0,305.5,91.0,307.0,91.0" stroke="black" stroke-width="1" fill="none" />
<polyline points="313.5,93.5,317.0,97.5,319.5,101.5,322.0,103.5,325.5,107.5,325.0,111.5,329.0,113.5,330.0,117.5,328.5,118.0,333.0,120.0,336.0,124.0,338.0,128.0,339.0,130.0,340.5,134.0,339.0,137.5,339.5,141.5,340.5,139.0,344.5,143.5,348.5,153.0,351.0,161.0" stroke="black" stroke-width="1" fill="none" />
<polyline points="354.0,190.0,350.0,190.0,346.0,190.0,342.0,190.5,338.0,190.5,334.0,190.5,330.0,191.5,326.0,191.5,322.0,191.5,318.0,192.0,314.0,192.0,310.0,192.5,306.0,192.5,302.0,192.5,298.0,193.0,294.0,192.5,290.0,193.0,286.0,194.0,282.0,194.0,278.0,194.0,274.0,194.0,270.0,194.5,266.0,195.0,262.0,195.0,258.0,195.0,254.0,195.0,250.0,195.5,246.0,195.5,242.0,195.5,238.0,195.5,234.0,196.0,230.0,196.0,226.0,196.0,222.0,196.5,218.0,196.5,214.0,198.0,210.0,197.5,206.0,197.5,202.0,198.0,198.0,198.5,194.0,198.0,190.0,199.0,186.0,199.0,182.0,199.0,178.0,199.5,174.0,200.0,170.0,200.0,166.0,200.5,162.0,201.0,158.0,201.5,154.0,201.5,150.0,201.5,146.0,201.5,142.0,201.5,138.0,202.0,134.0,202.0,130.0,202.5,126.5,202.5,126.5,198.5,126.5,194.5,126.5,190.5,127.0,186.5,128.0,182.5,128.0,178.5,129.0,174.5,129.5,170.5,130.5,166.5,132.0,162.5,132.5,158.5,133.5,154.5,134.5,150.5,135.5,146.5,137.0,142.5,138.5,138.5,140.0,134.5,141.5,130.5,143.0,126.5,144.5,122.5,147.0,118.5,149.0,114.5,151.0,110.5,154.0,106.5,156.5,102.5,159.5,98.5,162.5,94.5,166.5,90.5,170.0,86.5,175.5,82.5,179.5,78.5,186.0,74.5,194.5,70.5,204.0,66.5,205.0,67.5" stroke="black" stroke-width="1" fill="none" />
<polyline points="199.5,59.0,190.0,63.0,183.5,65.5,179.0,69.0,173.5,73.0,169.5,77.0,164.5,81.0,161.0,85.0" stroke="black" stroke-width="1" fill="none" />
<polyline points="164.5,77.5,168.5,76.0" stroke="black" stroke-width="1" fill="none" />
<polyline points="169.0,71.0,173.0,70.5" stroke="black" stroke-width="1" fill="none" />
<polyline points="158.0,83.5,154.0,79.5,150.0,76.5,146.0,74.0,144.5,71.5,141.0,70.5,139.5,65.5,137.5,68.5,134.0,65.5,130.0,63.5,127.0,61.5,125.0,61.0,121.0,59.0,117.0,57.5,113.0,55.5" stroke="black" stroke-width="1" fill="none" />
<polyline points="119.0,56.0,123.0,54.5" stroke="black" stroke-width="1" fill="none" />
<polyline points="123.0,69.0,131.0,73.0,128.5,75.0,127.5,73.5,131.5,74.5,134.0,75.5" stroke="black" stroke-width="1" fill="none" />
<polyline points="135.5,76.0,136.0,80.0,141.5,80.5,145.5,84.0,141.5,86.5,143.0,85.5,145.0,86.5" stroke="black" stroke-width="1" fill="none" />
<polyline points="146.0,86.0,150.0,87.0,154.0,91.0,150.0,91.5,147.5,94.0,151.0,96.5,149.0,100.5,145.5,104.5,143.5,108.5,141.0,112.5,139.5,116.5,137.0,120.5,135.5,124.5,134.0,128.5,132.5,132.5,131.0,136.5,129.5,140.5,129.0,143.0,127.0,147.0,126.5,151.0,125.0,155.0,124.0,159.0,123.0,163.0,122.5,167.0,121.5,171.0,121.0,175.0,120.5,179.0,119.5,183.0,119.0,187.0,119.5,191.0,119.0,195.0,119.0,199.0,119.0,203.0,114.0,207.5,118.0,204.5" stroke="black" stroke-width="1" fill="none" />
<polyline points="114.5,202.0,114.5,206.0,111.0,210.0,106.0,214.0,100.5,218.0,96.5,222.0,92.0,226.0,89.0,229.0,85.5,229.0,82.5,231.5,82.5,235.5,79.0,239.5,75.0,243.5,72.0,247.5,69.5,251.5,66.0,255.5,63.0,259.5,61.0,263.0,58.0,267.0,55.5,271.0,53.0,275.0,51.5,279.0,49.0,283.0,48.0,285.5,45.5,289.5,44.5,293.5,42.5,297.5,40.5,301.5,39.0,305.5,37.0,309.5,35.5,313.5,34.5,317.5,33.5,321.5,32.0,325.5,31.0,329.5,29.5,333.5,29.0,337.5,27.5,341.5,27.5,345.5,26.0,349.5,26.0,353.5,25.0,357.5,24.0,361.5,23.5,365.5,22.5,369.5,22.5,373.5,22.0,377.5,21.5,381.5,21.5,385.5,20.5,389.5,18.5,393.5" stroke="black" stroke-width="1" fill="none" />
<polyline points="20.5,390.0,21.0,394.0,20.0,398.0,20.5,402.0,20.5,406.0,20.5,410.0,20.5,414.0,20.5,418.0,20.0,422.0,20.0,426.0,20.5,430.0,20.5,434.0,20.0,438.0,20.5,442.0,20.5,446.0,20.5,450.0,18.5,454.0,21.5,455.5,21.5,459.5,22.0,463.5,22.5,467.5,22.5,471.5,23.5,475.5,24.0,479.5,25.0,483.5,25.5,487.5,26.0,491.5,27.0,495.5,27.5,499.5,28.5,503.5,29.5,507.5,30.5,511.5,31.5,513.5,33.0,517.5,33.5,521.5,34.0,525.5,36.0,528.0,37.5,532.0,39.0,536.0,39.5,540.0,41.5,542.0,43.5,546.0,43.5,550.0,45.0,551.5,48.0,555.0,50.5,559.0,49.0,563.0,52.5,563.5,56.0,567.5,57.5,571.5,61.0,575.5,63.5,579.5,66.0,583.5,68.5,587.5,72.5,590.5,75.0,594.5,78.5,597.0,78.5,599.0,83.0,601.5,87.0,605.5,91.0,609.5,96.0,613.5,93.5,614.0,94.5,617.0" stroke="black" stroke-width="1" fill="none" />
<polyline points="97.5,614.5,98.5,618.5,100.0,618.5,104.0,620.5,106.0,624.5,107.0,626.0,111.0,628.0,115.0,632.5,119.0,632.5,123.0,636.0" stroke="black" stroke-width="1" fill="none" />
<polyline points="120.5,638.0,124.5,637.5,128.5,638.5" stroke="black" stroke-width="1" fill="none" />
<polyline points="136.5,643.5,138.5,643.5,134.0,643.0,131.0,642.5,131.0,638.5,127.0,636.5,123.0,633.5,119.0,633.0" stroke="black" stroke-width="1" fill="none" />
<polyline points="115.5,630.5,115.5,629.0,113.5,627.0,107.5,623.0" stroke="black" stroke-width="1" fill="none" />
<polyline points="101.0,620.5,102.0,621.0,100.5,617.0" stroke="black" stroke-width="1" fill="none" />
<polyline points="107.0,606.0,108.5,610.0,112.5,614.0,114.0,612.5" stroke="black" stroke-width="1" fill="none" />
<polyline points="75.0,594.5,71.0,592.5,70.5,591.0" stroke="black" stroke-width="1" fill="none" />
<polyline points="65.5,584.5,61.5,582.0" stroke="black" stroke-width="1" fill="none" />
<polyline points="69.0,573.5,73.0,578.0,76.0,581.5,80.0,585.5,83.0,589.5,87.0,594.0,91.0,598.5,95.0,602.0,99.0,605.5,103.0,609.0,106.0,610.0,108.0,612.5,112.0,616.0,115.5,617.5,118.0,618.5,120.0,621.0,124.0,623.0,126.0,625.0,130.0,625.5,130.5,628.0,132.5,629.0,136.5,628.0,138.0,632.0,140.5,633.5,144.0,635.5,148.0,637.5,152.0,639.0,156.0,641.5,160.0,643.0,164.0,645.0,168.0,646.0,172.0,648.0,176.0,649.0,180.0,650.5,184.0,652.0" stroke="black" stroke-width="1" fill="none" />
<polyline points="169.5,658.5,165.5,656.0" stroke="black" stroke-width="1" fill="none" />
<polyline points="169.5,659.5,166.0,657.0,158.0,652.0,150.0,648.0,147.0,648.5" stroke="black" stroke-width="1" fill="none" />
<polyline points="158.0,642.0,167.5,646.0,179.0,650.0,186.0,652.5,190.0,653.0,194.0,654.5,198.0,655.5,202.0,656.5,206.0,657.0,209.0,658.5,213.0,657.5,214.0,659.5,218.0,660.0,222.0,660.5,226.0,661.5,230.0,659.0,232.0,654.5,236.0,645.0,238.0,640.5,242.0,631.0" stroke="black" stroke-width="1" fill="none" />
<polyline points="242.5,626.0,246.5,619.0" stroke="black" stroke-width="1" fill="none" />
<polyline points="250.0,609.5,252.0,603.0,254.5,599.0,258.5,588.5,261.5,581.0,262.0,575.5" stroke="black" stroke-width="1" fill="none" />
<polyline points="257.5,583.0,259.0,580.0,259.0,580.0,256.5,587.0" stroke="black" stroke-width="1" fill="none" />
<polyline points="267.0,589.0,265.5,593.0,263.5,597.0,262.0,601.0,261.0,605.0,259.0,609.0,257.5,613.0,256.0,617.0,254.5,621.0,253.0,625.0,251.0,629.0,250.0,633.0,248.0,637.0,246.5,641.0,245.0,645.0,243.0,649.0,241.5,653.0,240.5,657.0,238.5,661.0,237.0,665.0,235.0,669.0" stroke="black" stroke-width="1" fill="none" />
<polyline points="235.5,667.0,239.5,658.0,243.5,647.0,247.0,638.5,251.0,629.0,255.0,620.0" stroke="black" stroke-width="1" fill="none" />
<polyline points="258.0,610.5,261.5,609.5" stroke="black" stroke-width="1" fill="none" />
<polyline points="265.0,593.5,269.0,589.5,269.5,597.5,266.0,598.5,267.0,600.0,268.5,593.5,272.5,597.5,276.5,604.5,280.5,612.5,284.5,621.0,288.5,629.0,292.5,636.5,296.5,644.0,300.5,652.0,304.5,659.5,308.5,665.5,312.5,666.0,316.5,665.0,320.5,664.0,324.5,663.0,328.5,661.5,332.5,660.0,336.5,659.5,340.5,657.5,344.5,656.0,348.5,654.5,352.5,653.0,356.5,651.5,360.5,649.5,364.5,647.5,368.5,645.0,372.5,644.0,376.5,641.5,380.5,640.0,384.5,638.0,388.5,635.5,392.5,633.0,396.5,630.0,400.5,628.0,404.5,625.0,408.5,622.5,412.5,619.5,416.5,617.0,420.5,613.5,424.5,610.5,428.5,606.0,432.5,603.0,436.5,600.0,440.5,595.0,444.5,591.0,448.5,586.5,452.5,583.0,456.5,577.0,460.5,572.0,464.5,566.5,468.5,560.5,472.5,561.0" stroke="black" stroke-width="1" fill="none" />
<polyline points="471.0,556.0,475.0,549.0,479.0,542.0,483.0,532.5,487.0,522.5,490.5,521.5" stroke="black" stroke-width="1" fill="none" />
<polyline points="490.0,517.5,490.0,521.5,491.0,525.5" stroke="black" stroke-width="1" fill="none" />
<polyline points="478.5,522.0,482.5,513.0" stroke="black" stroke-width="1" fill="none" />
<polyline points="474.5,532.5,470.5,540.0,466.5,546.0,463.5,552.5,461.5,556.0,457.5,561.0,453.5,568.0,449.5,573.0,445.5,577.5,441.5,582.0,437.5,586.5,433.5,590.5,429.5,594.0,425.5,598.5,421.5,602.0,417.5,605.0,413.5,607.5,409.5,611.5" stroke="black" stroke-width="1" fill="none" />
<polyline points="419.0,660.5,415.0,663.0" stroke="black" stroke-width="1" fill="none" />
<polyline points="416.0,665.0,414.0,669.0,411.5,671.5,413.0,673.5" stroke="black" stroke-width="1" fill="none" />
<polyline points="418.0,672.0,419.0,668.0,419.0,667.5,415.0,667.5" stroke="black" stroke-width="1" fill="none" />
<polyline points="415.0,669.0,416.5,668.5" stroke="black" stroke-width="1" fill="none" />
<polyline points="416.5,668.5,420.5,671.5" stroke="black" stroke-width="1" fill="none" />
<polyline points="424.0,667.5,428.0,665.5,433.0,667.5,433.0,671.5" stroke="black" stroke-width="1" fill="none" />
<polyline points="429.5,671.5,430.0,667.5,426.0,672.0" stroke="black" stroke-width="1" fill="none" />
<polyline points="426.0,663.5,425.5,664.5,424.0,668.5,425.5,669.0,422.5,670.0,426.0,672.5,428.0,670.5,428.5,667.5,434.0,668.5,438.5,666.0,438.0,669.5,438.0,673.5,443.0,674.5" stroke="black" stroke-width="1" fill="none" />
<polyline points="449.0,672.0,446.0,669.5,447.5,671.0,447.5,667.0,448.5,666.0,445.5,663.0" stroke="black" stroke-width="1" fill="none" />
<polyline points="446.5,666.0,441.5,668.0,442.5,672.0,445.5,675.0" stroke="black" stroke-width="1" fill="none" />
<polyline points="451.0,666.5,446.0,665.5,444.5,663.0,440.5,662.0,440.0,660.5,436.0,663.0,429.5,661.5,425.5,663.5" stroke="black" stroke-width="1" fill="none" />
<polyline points="425.5,660.0,426.5,664.0,429.5,662.0,431.0,666.5,431.5,670.5,432.5,668.5,438.0,666.5,439.0,665.5,440.5,666.5,443.5,668.5,444.0,667.0,446.0,669.0,448.5,666.0,452.5,664.0,457.0,667.0,461.0,667.0,465.0,665.0,464.5,669.5,468.5,668.0,469.5,665.5,474.5,665.0,475.0,666.5,482.0,665.5,484.5,664.0" stroke="black" stroke-width="1" fill="none" />
<polyline points="484.5,665.5,484.5,669.5,482.5,673.5" stroke="black" stroke-width="1" fill="none" />
<polyline points="483.0,672.0,479.0,670.0,478.0,671.5,481.5,667.5,479.0,667.5,479.0,663.5,476.0,661.5" stroke="black" stroke-width="1" fill="none" />
<polyline points="475.5,660.0,475.5,661.5,478.0,665.5,478.0,669.5,479.0,671.0" stroke="black" stroke-width="1" fill="none" />
<polyline points="476.0,668.5,472.0,670.0" stroke="black" stroke-width="1" fill="none" />
<polyline points="472.5,670.0,472.0,670.5,471.0,674.5" stroke="black" stroke-width="1" fill="none" />
<polyline points="466.5,671.0,466.5,667.0,466.5,667.0" stroke="black" stroke-width="1" fill="none" />
<polyline points="465.0,662.0,470.5,667.5,471.0,671.5,468.5,672.0" stroke="black" stroke-width="1" fill="none" />
<polyline points="466.5,676.5,464.5,673.0,463.0,669.0,467.5,665.0,466.5,670.0,465.5,671.5,461.0,674.5,461.5,670.5,461.5,666.5,461.0,663.5" stroke="black" stroke-width="1" fill="none" />
<polyline points="463.5,660.0,467.5,660.0" stroke="black" stroke-width="1" fill="none" />
<polyline points="473.0,667.5,472.0,667.0,475.5,665.5" stroke="black" stroke-width="1" fill="none" />
<polyline points="478.5,660.5,482.5,661.0" stroke="black" stroke-width="1" fill="none" />
<polyline points="485.5,666.0,485.5,670.0,485.5,674.5" stroke="black" stroke-width="1" fill="none" />
<polyline points="490.5,671.0,490.5,667.0,492.0,667.0" stroke="black" stroke-width="1" fill="none" />
<polyline points="492.0,667.0,492.0,671.0,495.5,676.5" stroke="black" stroke-width="1" fill="none" />
<polyline points="501.0,672.5,498.5,668.5,496.5,663.0,492.5,663.0" stroke="black" stroke-width="1" fill="none" />
<polyline points="490.5,666.0,494.5,665.5,496.0,664.5,495.0,668.5,495.5,672.5,488.5,675.0,491.0,676.5" stroke="black" stroke-width="1" fill="none" />
<polyline points="500.5,670.5,500.0,666.5" stroke="black" stroke-width="1" fill="none" />
<polyline points="498.5,669.5,496.5,670.0,496.0,666.0" stroke="black" stroke-width="1" fill="none" />
<polyline points="459.0,671.5,459.5,669.5,456.0,666.5,456.0,662.5" stroke="black" stroke-width="1" fill="none" />
<polyline points="453.0,660.0,455.0,664.0,455.5,668.0,454.5,672.0,453.0,670.0,451.0,672.5,452.5,669.5,458.5,670.0,462.5,675.0,466.5,676.0,470.5,675.0,474.5,672.5,476.0,675.0,479.0,675.0,480.0,675.5,483.5,676.5,487.5,671.5,493.0,673.5,495.5,674.5,497.5,672.5,500.5,674.0,502.5,675.0" stroke="black" stroke-width="1" fill="none" />
<polyline points="452.5,668.5,451.5,671.0,445.5,671.0,441.5,672.5,439.0,672.5,439.5,671.0,439.5,667.0,442.0,663.0" stroke="black" stroke-width="1" fill="none" />
<polyline points="422.0,674.0,418.0,674.5,419.0,671.0,421.5,670.0,422.5,666.0,422.0,665.5,418.0,665.5,414.0,666.0" stroke="black" stroke-width="1" fill="none" />
<polyline points="295.5,648.0,296.5,644.0,294.0,640.0,290.0,639.0,291.5,635.0,289.5,631.0,287.5,627.0,285.5,623.0,283.5,619.0,280.0,615.0,280.5,612.5,280.0,611.5,277.5,607.5,275.5,603.5,274.5,601.5,272.5,597.5,270.5,593.5,268.5,589.5" stroke="black" stroke-width="1" fill="none" />
<polyline points="274.0,582.0,278.0,590.0,279.5,593.5,283.5,600.0,287.5,604.5" stroke="black" stroke-width="1" fill="none" />
<polyline points="230.5,653.5,229.5,657.5" stroke="black" stroke-width="1" fill="none" />
<polyline points="212.0,670.0,208.0,670.5,209.0,671.5" stroke="black" stroke-width="1" fill="none" />
<polyline points="169.5,541.0,165.5,542.0,163.0,541.5,159.0,540.0,155.5,538.5,154.5,535.0,150.5,533.5,146.5,529.5,146.5,527.5,142.5,524.5,139.5,515.5" stroke="black" stroke-width="1" fill="none" />
<polyline points="134.5,524.0,136.0,528.0,136.5,532.0,140.5,536.0,144.0,540.0,147.5,544.0,149.5,545.5,153.5,548.5,157.0,550.5" stroke="black" stroke-width="1" fill="none" />
<polyline points="155.0,550.5,154.0,546.5" stroke="black" stroke-width="1" fill="none" />
<polyline points="138.0,490.5,142.0,479.5,146.0,473.5,150.0,469.0,154.0,466.0,158.0,463.5,162.5,462.0,166.5,461.0,170.5,460.5,174.5,461.5,178.5,461.5,182.5,463.5,186.5,465.5,190.5,469.0,194.5,473.0,198.5,479.5,200.5,485.0" stroke="black" stroke-width="1" fill="none" />
<polyline points="200.0,483.0,201.0,487.0,202.5,491.0,203.5,495.0,204.0,499.0,203.5,503.0,203.5,507.0,203.0,511.0,201.5,515.0,200.5,519.0,198.5,523.0,196.5,527.0,194.0,531.0,190.0,535.0,184.0,539.0,177.5,541.5,168.0,543.0,172.0,542.5,176.0,540.5,178.0,541.0,182.0,539.0,186.0,538.0,190.0,535.0,194.0,531.0,198.0,524.5" stroke="black" stroke-width="1" fill="none" />
<polyline points="208.5,482.5,205.5,477.5,203.0,471.5" stroke="black" stroke-width="1" fill="none" />
<polyline points="185.5,466.5,188.0,467.0,192.5,470.5,194.0,473.0,197.0,477.0,199.0,481.0,197.5,485.0,196.0,489.0" stroke="black" stroke-width="1" fill="none" />
<polyline points="206.5,469.5,202.5,470.0,200.5,465.5,197.5,464.5,195.5,460.0,191.5,459.5,187.5,456.5,183.5,454.5,182.0,452.5,178.5,453.0,174.5,452.5,170.5,452.0,166.5,452.0,162.5,452.5,158.5,454.0,154.5,456.0,150.5,458.0,146.5,461.0,142.5,465.0,138.5,471.0,134.5,477.5" stroke="black" stroke-width="1" fill="none" />
<polyline points="154.0,469.5,148.5,472.0,152.5,472.5,155.0,469.0,158.0,465.0" stroke="black" stroke-width="1" fill="none" />
<polyline points="158.0,463.5,151.5,467.5,147.5,471.5,144.5,475.5,142.0,479.5,140.5,483.5,139.5,487.5,138.0,491.5,137.5,495.5,137.0,499.5,137.0,503.5,137.5,507.5,138.0,511.5,139.5,515.5,141.0,519.5,142.5,523.5,144.5,527.5,147.5,531.5,151.5,535.5,157.5,539.5" stroke="black" stroke-width="1" fill="none" />
<polyline points="188.0,547.0,194.0,543.0,197.5,539.0,201.0,535.0,203.5,531.0,205.5,527.0,207.5,523.0,209.0,519.0,210.0,515.0,210.5,511.0,211.0,507.0,211.0,503.0,211.0,499.0,211.5,495.0,210.5,491.0,209.5,487.0,208.5,483.0,206.5,479.0,205.0,475.0,202.5,471.0,199.0,467.0,195.5,463.0,190.5,459.0,184.0,455.0" stroke="black" stroke-width="1" fill="none" />
<polyline points="161.5,452.5,152.5,456.5,147.0,460.5,143.0,464.5,140.0,468.5,137.0,472.5,135.0,476.5,133.0,480.5,132.0,484.5,131.0,488.5,130.5,492.5,129.5,496.5,129.0,500.5,129.0,504.5,130.0,508.5,130.5,512.5,131.5,516.5,132.5,520.5,132.5,524.5,132.5,525.5,132.5,524.0,136.0,528.0,140.0,533.5,144.0,539.0,148.0,543.0,152.0,546.0,156.0,547.5,160.0,549.5,164.0,551.0,168.0,551.0,172.0,551.0,176.0,551.0,180.0,550.0,184.0,549.0,188.0,547.0,192.0,544.0,196.0,540.5,200.0,536.0,204.0,529.5,209.0,524.0" stroke="black" stroke-width="1" fill="none" />
<polyline points="300.0,513.0,300.5,517.0" stroke="black" stroke-width="1" fill="none" />
<polyline points="304.0,512.0,305.5,516.0,307.0,520.0,308.0,521.5,310.5,525.5,314.0,529.5,312.0,533.5,317.0,534.5,321.5,537.0,327.0,539.0" stroke="black" stroke-width="1" fill="none" />
<polyline points="317.5,521.0,321.5,524.5,325.0,528.5,329.0,530.5,333.0,532.0,337.0,532.5,341.0,533.0,345.0,533.0,349.0,532.0,353.0,530.0,357.0,528.0,357.0,526.5" stroke="black" stroke-width="1" fill="none" />
<polyline points="355.0,524.0,359.0,526.5,363.0,523.0,367.0,518.0" stroke="black" stroke-width="1" fill="none" />
<polyline points="361.5,518.0,361.0,522.0" stroke="black" stroke-width="1" fill="none" />
<polyline points="357.5,538.0,364.0,534.0,368.0,530.0,370.5,526.0,374.0,522.0,375.5,518.0,377.5,514.0,379.0,510.0,379.5,506.0,380.5,502.0,380.5,498.0,381.5,494.0,381.5,490.0,380.5,486.0,380.0,482.0,379.5,478.0,378.0,474.0,376.5,470.0,374.0,466.0,371.5,462.0,368.5,458.0,365.0,454.0,359.5,450.0,352.5,446.0,351.5,442.5" stroke="black" stroke-width="1" fill="none" />
<polyline points="350.5,458.0,355.0,457.0,355.0,461.0,360.5,461.5,364.0,465.5,367.0,469.5,367.5,473.5,370.0,475.5,371.5,479.5,372.0,483.5,373.0,487.5,373.5,491.5,374.0,495.5,373.0,499.5,372.0,503.5,371.5,507.5,369.5,511.5,368.0,515.5,365.5,519.5,361.0,523.5,357.0,524.5,357.0,526.5,352.0,530.5" stroke="black" stroke-width="1" fill="none" />
<polyline points="314.5,517.0,310.5,507.0" stroke="black" stroke-width="1" fill="none" />
<polyline points="303.0,510.0,307.0,519.0,311.0,525.5,315.0,530.5,319.0,533.5,323.0,536.0,327.0,539.0,331.0,540.0,335.0,541.0,339.0,542.0,343.0,542.0,347.0,541.5,351.0,540.5,355.0,539.0,359.0,537.5,363.0,534.5,367.0,531.5,371.0,525.5,375.0,519.5,373.5,526.5,373.0,527.0,375.5,523.5" stroke="black" stroke-width="1" fill="none" />
<polyline points="370.0,455.0,366.0,452.0" stroke="black" stroke-width="1" fill="none" />
<polyline points="332.0,457.5,328.0,456.5" stroke="black" stroke-width="1" fill="none" />
<polyline points="329.5,454.0,323.0,458.0,318.5,462.0,315.0,466.0,313.5,470.0,311.5,474.0,310.0,478.0,309.0,482.0,308.0,486.0,307.5,490.0,308.0,494.0,308.5,498.0,309.0,502.0,310.0,506.0,311.5,510.0,313.0,514.0,315.0,518.0,318.0,522.0,322.5,526.0,327.5,530.0" stroke="black" stroke-width="1" fill="none" />
<polyline points="314.0,469.0,314.0,467.0,318.0,462.5,322.0,458.5,326.0,456.0,330.0,454.0,334.0,452.5,338.0,452.5,342.0,452.5,346.0,452.5,350.0,454.0,354.0,456.0,358.0,459.0,362.0,462.0,366.0,467.5" stroke="black" stroke-width="1" fill="none" />
<polyline points="378.5,474.5,374.5,466.0,372.5,463.0,369.5,458.5,366.0,454.5,362.0,451.0,358.0,448.5,354.0,446.5,350.0,445.0,346.0,444.5,342.0,443.5,338.0,443.5,334.0,444.0,330.0,444.5,326.0,446.5,320.5,448.0,316.5,448.5" stroke="black" stroke-width="1" fill="none" />
<polyline points="306.0,459.5,307.0,463.5,306.0,467.5,301.0,470.0,304.0,472.0,302.5,476.0,301.0,480.0,300.5,484.0,300.0,488.0,300.0,492.0,300.0,496.0,300.5,500.0,301.0,504.0,302.5,508.0,302.5,512.0,303.0,516.0,303.5,516.0" stroke="black" stroke-width="1" fill="none" />
<polyline points="361.5,398.0,365.5,396.5" stroke="black" stroke-width="1" fill="none" />
<polyline points="382.0,383.0,388.0,379.0,392.0,375.0,395.5,371.0,397.5,367.0,399.5,363.0,400.5,359.0,401.5,355.0,402.0,351.0,402.5,347.0,402.0,343.0,401.5,339.0,400.0,335.0,399.0,331.0,397.5,328.5,396.5,324.5,394.0,323.0,393.0,319.0,389.0,315.0,384.5,311.0,376.5,309.0" stroke="black" stroke-width="1" fill="none" />
<polyline points="382.5,301.0,390.0,305.0,395.5,309.0,398.0,313.0,400.5,317.0,403.5,321.0,405.5,325.0,407.0,329.0,408.0,333.0,409.0,337.0,409.5,341.0,410.0,345.0,410.5,349.0,409.5,353.0,409.0,357.0,408.0,361.0,407.0,365.0,405.5,369.0,403.5,373.0,401.0,377.0,398.0,381.0,394.0,385.0,388.5,389.0" stroke="black" stroke-width="1" fill="none" />
<polyline points="399.5,362.0,395.5,371.0,391.5,375.5,387.5,379.5,383.5,382.0,379.5,384.0,375.5,385.0,371.5,385.5,367.5,385.5,363.5,385.0,359.5,383.5,355.5,381.0,351.5,378.5,351.0,377.5,347.5,374.0,349.0,372.0,346.0,370.0,342.0,366.5" stroke="black" stroke-width="1" fill="none" />
<polyline points="333.0,364.0,337.0,373.0,341.0,378.5,345.0,383.5,349.0,387.0,353.0,389.0,357.0,391.5,361.0,392.5,365.0,394.5,369.0,394.0,373.0,394.5,377.0,394.5,381.0,393.0,385.0,391.5,389.0,389.0,393.0,386.5,397.0,382.0,401.0,377.0,405.0,369.5" stroke="black" stroke-width="1" fill="none" />
<polyline points="414.0,344.0,414.0,340.0" stroke="black" stroke-width="1" fill="none" />
<polyline points="464.0,305.0,464.5,300.0,464.5,296.0,462.5,292.0,460.5,288.0,458.0,284.0,453.5,283.0,453.5,279.0,453.0,275.0,450.5,271.0,448.0,272.0" stroke="black" stroke-width="1" fill="none" />
<polyline points="447.5,275.0,449.0,271.0,447.5,267.0,444.5,263.0,441.5,259.0" stroke="black" stroke-width="1" fill="none" />
<polyline points="440.0,259.0,436.5,261.5,439.5,258.0,437.0,254.0,434.0,251.0,432.5,247.5,429.0,243.5,425.0,239.5" stroke="black" stroke-width="1" fill="none" />
<polyline points="420.5,240.0,420.0,239.5,422.0,237.0,418.5,233.5,417.5,232.0,413.0,228.5,407.5,224.5,403.0,220.5,397.5,216.5,392.5,212.5,388.0,212.0,387.0,210.5,383.0,208.0,378.5,204.0" stroke="black" stroke-width="1" fill="none" />
<polyline points="370.0,201.0,366.5,197.0" stroke="black" stroke-width="1" fill="none" />
<polyline points="341.0,134.0,337.0,126.5,333.0,118.5,329.0,113.0,325.0,111.5,322.5,103.5,318.5,99.0,314.5,94.0,310.5,90.0,306.5,86.5,302.5,83.5,298.5,80.5,294.5,78.5,290.5,76.0,286.5,74.0,282.5,72.0,278.5,70.0,274.5,68.5,270.5,67.0,266.5,66.0,262.5,65.0,258.5,64.5,254.5,63.5,250.5,63.0,246.5,62.5,242.5,62.0,238.5,61.5,234.5,61.5,230.5,61.5,226.5,63.0,222.5,63.0,218.5,63.5,214.5,64.0,210.5,65.0,206.5,66.0,202.5,67.5,198.5,69.0,194.5,70.5,190.5,72.0,186.5,74.5,182.5,76.5,178.5,80.0,174.5,83.5,170.5,86.0,166.5,90.5,162.5,94.5,158.5,100.0,154.5,105.5,150.5,112.0,146.5,119.0,142.5,127.0,138.5,137.5,134.5,149.0" stroke="black" stroke-width="1" fill="none" />
<polyline points="134.5,126.0,138.5,117.5" stroke="black" stroke-width="1" fill="none" />
<polyline points="139.0,113.5,136.5,113.5,140.5,109.5,143.0,109.0,147.0,102.5,151.0,95.5" stroke="black" stroke-width="1" fill="none" />
<polyline points="154.5,91.0,150.5,87.0,146.5,84.0,142.5,81.0,138.5,78.0,134.5,74.5,130.5,72.5,126.5,70.5,122.5,68.5,118.5,67.0,114.5,65.0,110.0,66.0,106.0,74.0,102.0,78.5,98.0,82.0,94.0,84.5,90.0,86.0,86.0,87.5,82.0,87.5,78.0,86.5,74.0,85.5,70.0,84.0,66.0,82.0,62.0,77.5,58.0,72.5,54.0,62.0" stroke="black" stroke-width="1" fill="none" />
<polyline points="57.0,31.5,61.0,26.0,65.0,22.0,66.0,20.0,70.0,18.0,74.0,16.5,78.0,15.0,82.0,15.5,86.0,15.5,90.0,16.5,94.0,18.0,98.0,20.5,102.0,23.5,106.0,28.0" stroke="black" stroke-width="1" fill="none" />
<polyline points="107.0,30.0,111.0,33.5" stroke="black" stroke-width="1" fill="none" />
<polyline points="90.0,16.5,97.5,20.5,102.5,24.5,106.0,28.5,108.5,32.5,110.5,36.5,112.0,40.5,112.0,44.5,113.0,48.5,113.5,52.5,114.0,56.5,124.0,60.5,132.0,64.5,137.5,68.5,143.5,72.5,149.5,76.5,155.0,80.5,158.5,84.5,161.5,84.5,165.5,80.5,169.5,76.5,173.5,73.0,177.5,70.5,181.5,68.5,182.5,67.5,186.5,65.0,190.5,63.0,194.5,61.5,198.5,60.0,202.5,58.5,206.5,57.5,210.5,56.0,214.5,55.5,218.5,55.0,222.5,54.0,226.5,54.0,230.5,53.5,234.5,53.5,238.5,53.5,242.5,54.0,246.5,54.0,250.5,54.0,254.5,55.0,258.5,56.0,262.5,56.5,266.5,56.0,269.0,58.0,273.0,59.0,275.0,57.0,277.0,60.5,281.0,62.0,285.0,64.0,289.0,63.5,290.5,66.0,294.5,66.0,297.0,70.0,301.0,73.0,305.0,71.0" stroke="black" stroke-width="1" fill="none" />
<polyline points="313.0,95.0,311.0,96.5,312.0,92.5,308.5,88.5,305.5,86.0,300.0,84.5,301.0,82.5,294.5,78.5,291.0,80.0,290.0,79.0,288.5,75.0,284.0,73.5,277.0,69.5,270.0,69.0" stroke="black" stroke-width="1" fill="none" />
<polyline points="281.0,62.0,290.0,66.0,296.5,70.0,302.0,74.0,307.0,78.0,311.0,76.5,315.0,72.5,319.0,69.0" stroke="black" stroke-width="1" fill="none" />
<polyline points="251.0,203.5,250.5,207.5,250.5,211.5,250.5,215.5,251.0,219.5,252.0,223.5,252.0,227.5,252.0,231.5,252.0,235.5,252.0,239.5,253.0,243.5,253.0,247.5,253.0,251.5,254.0,255.5,254.0,259.5,254.0,263.5,254.5,267.5,254.5,271.5,254.5,275.5,255.0,279.5,255.0,283.5,255.0,287.5,255.5,291.5,256.0,295.5,256.0,299.5,256.0,303.5,256.0,307.5,256.0,311.5,256.5,315.5,257.5,319.5,257.5,323.5,257.5,327.5,257.5,331.5,257.5,335.5,258.5,339.5,258.0,343.5,258.5,347.5,259.0,351.5,259.0,355.5,259.0,359.5,260.0,363.5,260.0,367.5,260.0,371.5,260.5,375.5,260.5,379.5,261.0,383.5,261.5,387.5,261.5,391.5,261.5,395.5,261.5,399.5,261.5,403.5,262.5,407.5,263.0,411.5,262.5,415.5,263.5,419.5,263.0,423.5,263.0,427.5,263.5,431.5,263.5,435.5,264.5,439.5,265.0,443.5,264.5,447.5,265.0,451.5,265.5,455.5,265.0,459.5,266.0,463.5,266.0,467.5,265.5,471.5,266.5,475.5,267.0,479.5,267.0,483.5,267.0,487.5,267.0,491.5,267.0,495.5,268.5,499.5,268.5,503.5,268.5,507.5,268.5,511.5,268.5,515.5,269.0,519.5,269.0,523.5,269.5,527.5,270.0,531.5,270.0,535.5,270.0,539.5,270.5,543.5,271.0,547.5,271.0,551.5,271.5,555.5,271.0,559.5,271.0,563.5,272.5,567.5,272.5,571.5,272.5,575.5,272.5,579.5,274.5,583.5,276.5,587.5,278.5,591.5,280.0,595.5,283.0,599.5,284.5,603.5,286.0,607.5,288.5,611.5,290.5,615.5,292.5,619.5,294.5,623.5,296.5,627.5,298.5,631.5,300.5,635.5,302.5,639.5,305.0,643.5,307.0,647.5,309.0,651.5,311.0,655.5,313.0,656.5,317.0,655.5,321.0,654.0,325.0,653.0,329.0,652.0,333.0,651.0,337.0,649.0,341.0,648.0,345.0,644.5,346.0,646.0,350.0,644.0,354.0,642.5,358.0,641.0,362.0,639.0,366.0,637.5,370.0,635.5,370.5,634.5,374.5,633.5,378.5,631.0,382.5,629.0,386.5,626.5,390.5,622.5,392.5,623.0,396.5,620.5,400.5,617.5,404.5,615.0,408.5,612.5,411.5,607.5" stroke="black" stroke-width="1" fill="none" />
<polyline points="470.0,561.5,468.0,562.5,473.5,559.0,473.5,555.0" stroke="black" stroke-width="1" fill="none" />
<polyline points="474.5,331.0,475.0,327.0" stroke="black" stroke-width="1" fill="none" />
<polyline points="483.0,313.0,479.0,309.5" stroke="black" stroke-width="1" fill="none" />
<polyline points="399.5,331.5,394.0,327.0,394.5,324.5,394.5,321.5,390.5,316.0,386.5,312.5,382.5,310.0,378.5,308.0,374.5,307.0,370.5,306.5,366.5,306.5,362.5,307.0,358.5,308.5,354.5,310.5,350.5,313.5,346.5,317.5,342.5,322.5,341.5,326.5" stroke="black" stroke-width="1" fill="none" />
<polyline points="341.0,332.5,343.5,334.5,341.0,334.5" stroke="black" stroke-width="1" fill="none" />
<polyline points="355.0,314.5,352.0,314.5,349.0,316.0,348.5,320.0,347.5,320.5,348.5,321.5,352.0,314.5,354.0,312.5,363.0,308.5" stroke="black" stroke-width="1" fill="none" />
<polyline points="357.5,308.5,351.0,312.5,347.0,316.5,344.0,320.5,341.5,324.5,340.5,328.5,339.5,332.5,338.0,336.5,338.0,340.5,336.5,344.5,338.0,348.5,338.0,352.5,339.0,356.5,340.0,360.5,341.5,364.5,343.5,368.5,346.0,372.5,349.0,376.5,353.5,380.5,361.5,384.5,364.5,382.5" stroke="black" stroke-width="1" fill="none" />
<polyline points="338.0,306.5,342.0,307.5,346.5,302.5" stroke="black" stroke-width="1" fill="none" />
<polyline points="347.5,302.5,345.5,306.5,341.5,310.5,339.5,314.5,336.5,318.5,334.5,322.5,332.5,326.5,332.0,330.5,331.0,334.5,330.5,338.5,330.0,342.5,329.5,346.5,330.0,350.5,330.5,354.5,332.0,358.5,332.5,362.5,334.0,366.5,335.5,370.5,338.0,374.5,340.5,378.5,339.0,381.0,344.5,383.5,345.5,387.5,349.5,387.5,349.0,391.5,351.0,392.5" stroke="black" stroke-width="1" fill="none" />
<polyline points="403.5,320.5,402.5,315.5,398.5,313.5,394.5,308.0,390.5,305.5,386.5,303.0,385.0,302.0,381.0,300.5,376.5,297.5,373.5,295.5,371.0,298.0,367.0,298.0,363.0,298.5,359.0,299.0,355.0,300.5,351.0,302.5,347.0,304.5,343.0,308.5,339.0,310.5,336.0,316.5,338.5,313.0,338.5,308.0,343.0,306.0,347.0,302.0,354.0,300.5" stroke="black" stroke-width="1" fill="none" />
<polyline points="475.0,320.0,472.0,320.0,471.0,319.0,469.0,316.0,469.5,312.0,470.0,308.0,468.5,304.0,467.0,300.0,466.5,299.0,462.5,291.5,458.5,284.0,454.5,278.0,450.5,270.5,446.5,265.0,442.5,259.5,438.5,253.5,434.5,249.5,430.5,245.0,426.5,241.0,422.5,237.0,418.5,232.5,414.5,229.5,410.5,226.0,406.5,222.5,402.5,220.0,398.5,216.5,394.5,213.5,390.5,211.0,386.5,208.5,382.5,205.5,378.5,203.5,374.5,201.5,370.5,199.5,366.5,196.5,362.5,197.5,358.5,198.0,354.5,198.5,350.5,198.0,346.5,198.0,342.5,199.0,338.5,199.5,334.5,199.5,330.5,199.5,326.5,199.5,322.5,199.5,318.5,200.0,314.5,200.0,310.5,201.0,306.5,201.5,302.5,201.0,298.5,201.5,294.5,201.5,290.5,201.5,286.5,201.5,282.5,202.5,278.5,202.5,274.5,202.5,270.5,202.0,266.5,203.0,262.5,203.0,258.5,203.0,254.5,203.5,250.5,204.0" stroke="black" stroke-width="1" fill="none" />
<polyline points="121.0,212.5,115.0,216.5,110.0,220.5,104.5,224.5,101.0,228.5,96.5,232.5,92.0,236.5,88.0,240.5,84.0,244.5,80.5,248.5,78.0,252.5,75.0,256.5,71.5,260.5,69.0,264.5,66.5,268.5,63.5,272.5,61.0,276.5,58.5,280.5,56.5,284.5,54.5,288.5,52.5,292.5,51.0,296.5,49.0,300.5,47.5,304.5,45.5,308.5,44.5,312.5,43.0,316.5,41.5,320.5,40.5,324.5,39.0,328.5,37.5,332.5,37.0,336.5,35.5,340.5,35.0,344.5,33.5,348.5,33.0,352.5,32.0,356.5,31.5,360.5,30.5,364.5,30.0,368.5,29.5,372.5,29.0,376.5,28.5,380.5,28.0,384.5,28.0,388.5,28.0,392.5,27.5,396.5,28.0,400.5,27.5,404.5,27.5,408.5,27.5,412.5,27.5,416.5,27.5,420.5,27.5,424.5,27.5,428.5,27.0,432.5,27.5,436.5,28.0,440.5,28.0,444.5,28.0,448.5,28.0,452.5,28.0,456.5,29.0,460.5,29.0,464.5,30.0,468.5,30.0,472.5,30.5,476.5,31.0,480.5,32.0,484.5,32.5,488.5,33.0,492.5,34.0,496.5,35.0,500.5,36.0,504.5,37.0,508.5,38.0,512.5,39.5,516.5,41.0,520.5,42.5,525.0,44.5,529.0,45.5,533.0,48.0,537.0,49.0,541.0,51.0,545.0,53.5,549.0,55.5,553.0,57.5,557.0,60.5,561.0,63.0,565.0,65.5,569.0,68.5,573.0,72.0,577.0,75.0,581.0,78.0,585.0,81.5,589.0,85.5,593.0,89.5,597.0,93.5,601.0,98.5,605.0,102.5,609.0,108.0,613.0,113.5,617.0,119.0,621.0,126.0,625.0,132.0,629.0,139.5,633.0,146.5,637.0,156.5,639.5" stroke="black" stroke-width="1" fill="none" />
<polyline points="230.0,659.5,231.5,655.5,233.5,651.5,235.0,647.5,237.0,643.5,238.5,639.5,240.0,635.5,241.5,631.5,243.0,628.0,244.5,624.0,246.5,620.0,248.0,616.0,249.0,612.0,251.0,608.0,252.5,604.0,254.0,601.0,255.5,597.0,256.5,593.0,258.5,589.0,260.0,585.0,261.5,581.0,262.5,577.0,261.5,573.0,264.5,573.0,264.0,569.0,263.5,565.0,263.5,561.0,263.5,557.0,263.0,553.0,263.5,549.0,263.0,545.0,262.5,541.0,262.5,537.0,262.0,533.0,261.5,529.0,261.5,525.0,261.5,521.0,260.0,520.0,261.0,516.0,261.0,512.0,261.0,508.0,260.5,504.0,260.5,500.0,260.0,496.0,260.0,492.0,259.5,488.0,259.0,484.0,259.0,480.0,259.5,476.0,258.5,472.0,258.0,468.0,258.0,464.0,257.5,460.0,258.0,456.0,257.5,452.0,257.0,448.0,257.0,444.0,256.5,440.0,256.0,436.0,256.0,432.0,256.0,428.0,255.5,424.0,255.5,420.0,255.5,416.0,255.0,412.0,255.5,408.0,255.5,404.0,254.5,400.0,254.0,396.0,254.0,392.0,254.0,388.0,253.5,384.0,253.5,380.0,253.5,376.0,253.0,372.0,253.0,368.0,252.0,364.0,252.0,360.0,252.0,356.0,251.5,352.0,251.5,348.0,251.0,344.0,250.5,340.0,250.5,336.0,250.5,332.0,250.5,328.0,250.0,324.0,250.0,320.0,250.0,316.0,250.0,312.0,249.0,308.0,248.5,304.0,249.0,300.0,248.0,296.0,248.5,292.0,248.0,288.0,247.5,284.0,247.5,280.0,247.0,276.0,247.0,272.0,247.0,268.0,246.5,264.0,246.0,260.0,246.0,256.0,245.5,252.0,245.5,248.0,245.5,244.0,244.5,240.0,244.5,236.0,245.0,232.0,244.0,230.0,244.5,226.0,244.5,222.0,243.5,218.0,243.0,214.0,243.0,210.0,242.5,206.0,240.0,204.5,236.0,204.0,232.0,204.5,228.0,205.0,224.0,205.5,220.0,205.0,216.0,205.5,212.0,205.5,208.0,206.0,204.0,206.0,200.0,207.0,196.0,207.0,192.0,207.0,188.0,207.5,184.0,207.5,180.0,208.0,176.0,207.5,172.0,208.5,168.0,208.5,164.0,208.5,160.0,209.5,156.0,209.0,152.0,209.5,148.0,210.0,144.0,210.0,140.0,210.0,136.0,211.0,132.0,211.0,128.0,211.5,124.0,212.0,120.0,213.0,116.0,215.5,112.0,219.0,108.0,222.5,104.0,225.5,100.0,229.5,96.0,233.0,92.0,236.5,88.0,240.5,84.0,244.5,80.0,249.5,76.0,254.5,72.0,259.5,68.0,265.5,64.0,271.5,60.0,278.5,56.0,285.0" stroke="black" stroke-width="1" fill="none" />
<polyline points="58.5,284.5,59.5,288.5,59.0,287.0" stroke="black" stroke-width="1" fill="none" />
<polyline points="47.0,284.5,43.0,284.5" stroke="black" stroke-width="1" fill="none" />
<polyline points="43.0,284.5,44.0,288.5,46.5,287.5,50.5,280.5,54.5,273.0,54.5,267.5,59.5,265.0,63.5,259.0,67.5,254.0,71.5,248.0,75.5,243.5,79.5,239.0,83.5,235.0,83.5,230.5,87.5,229.5,91.5,226.5,95.5,223.0,99.5,220.0,103.5,216.0,107.5,213.0,111.5,209.5" stroke="black" stroke-width="1" fill="none" />
<polyline points="119.5,214.5,116.5,218.0" stroke="black" stroke-width="1" fill="none" />
<polyline points="95.5,221.0,93.0,223.0,94.5,219.5,93.0,218.5" stroke="black" stroke-width="1" fill="none" />
<polyline points="80.0,253.5,74.5,261.5" stroke="black" stroke-width="1" fill="none" />
<polyline points="61.0,259.5,62.0,257.5,60.5,258.0" stroke="black" stroke-width="1" fill="none" />
<polyline points="44.5,311.5,45.0,314.5,45.0,314.0" stroke="black" stroke-width="1" fill="none" />
<polyline points="37.0,309.5,38.0,301.0,42.0,298.0,42.0,294.5" stroke="black" stroke-width="1" fill="none" />
<polyline points="27.0,329.0,27.5,333.0" stroke="black" stroke-width="1" fill="none" />
<polyline points="91.5,334.0,95.5,327.0,99.5,321.5,103.5,317.5,107.5,314.0,110.0,311.0,106.5,315.0,102.0,319.0,98.5,323.0,97.0,325.0,94.5,329.0,92.5,333.0,90.5,337.0,89.5,341.0,88.0,345.0,87.5,349.0,87.0,353.0,87.0,357.0,87.0,361.0,87.0,365.0,88.0,369.0,87.5,373.0,89.5,375.0,91.0,379.0,93.0,383.0,95.5,387.0,98.5,391.0,101.5,395.0,105.5,398.0,108.0,402.0,111.0,403.0" stroke="black" stroke-width="1" fill="none" />
<polyline points="117.5,393.0,113.5,394.0,109.5,390.5" stroke="black" stroke-width="1" fill="none" />
<polyline points="112.0,389.5,111.0,388.0,107.0,388.5,103.0,383.5,100.5,379.5,96.5,370.0" stroke="black" stroke-width="1" fill="none" />
<polyline points="89.0,373.5,93.0,382.5,97.0,389.0,101.0,393.5,105.0,397.0,109.0,400.0,113.0,402.5,117.0,404.0,121.0,405.5,125.0,405.5,129.0,406.0,133.0,405.5,137.0,405.0,141.0,403.5,145.0,401.5,146.0,404.0" stroke="black" stroke-width="1" fill="none" />
<polyline points="146.5,397.0,147.0,399.5,151.0,397.0,155.0,393.5,159.0,388.0,163.0,381.0,167.0,377.0,166.0,372.0" stroke="black" stroke-width="1" fill="none" />
<polyline points="151.0,382.5,147.0,384.0" stroke="black" stroke-width="1" fill="none" />
<polyline points="142.0,388.0,144.0,387.5,142.0,389.0,142.5,393.0,137.5,392.5" stroke="black" stroke-width="1" fill="none" />
<polyline points="149.0,388.0,152.0,384.0,154.5,380.0,157.0,376.0,158.0,372.0,159.5,368.0,159.5,365.5,161.0,361.5,161.0,357.5,160.5,353.5,160.5,349.5,158.5,348.5,159.0,344.5,157.5,340.5,155.5,336.5,153.5,332.5,148.5,332.5,147.5,328.0,143.0,327.5,143.5,323.5,139.5,320.0,135.5,320.5" stroke="black" stroke-width="1" fill="none" />
<polyline points="141.0,311.0,147.5,315.0,153.0,319.0,156.5,323.0,159.5,327.0,161.5,331.0,164.0,335.0,165.5,339.0,166.5,343.0,167.5,347.0,168.5,351.0,168.5,355.0,168.5,359.0,168.5,363.0,167.5,367.0,166.5,371.0,165.5,375.0,164.0,379.0,162.0,383.0,159.5,387.0,157.5,391.0,153.0,395.0,146.5,397.5,147.0,399.5,141.5,404.5,139.0,409.0,140.5,406.0" stroke="black" stroke-width="1" fill="none" />
<polyline points="158.0,373.5,154.0,378.0,151.0,385.0,147.0,389.5,143.0,393.0,139.0,395.0,135.0,396.0,131.0,397.0,127.0,397.5,123.0,397.0,119.0,396.5,119.0,394.5,116.0,395.5,109.5,391.5,106.0,387.5,102.5,383.5,100.0,379.5,98.5,375.5,96.5,371.5,95.5,367.5,95.0,363.5,94.5,359.5,94.5,355.5,94.5,351.5,95.0,347.5,96.5,343.5,98.0,339.5,100.0,335.5,102.0,331.5,105.5,327.5,109.5,323.5,115.5,319.5,115.0,321.5" stroke="black" stroke-width="1" fill="none" />
<polyline points="110.0,311.0,114.0,310.5,118.0,309.5,122.0,308.5,126.0,308.0,130.0,308.0,134.0,309.0,138.0,310.0,142.0,311.5,146.0,311.5,146.0,314.0,149.5,316.0,153.5,319.0,157.5,324.0" stroke="black" stroke-width="1" fill="none" />
<polyline points="163.0,326.0,163.5,330.0,163.5,329.5,165.0,334.5" stroke="black" stroke-width="1" fill="none" />
<polyline points="155.5,336.0,152.0,329.5,148.0,325.0,144.0,321.5,140.0,319.0,136.0,318.0,132.0,317.5,128.0,316.5,124.0,317.0,120.0,318.0,116.0,319.5,112.0,321.5,108.0,324.5,104.0,329.0,100.0,335.5,96.0,344.0" stroke="black" stroke-width="1" fill="none" />
<polyline points="93.0,387.0,93.5,391.0,95.0,391.0,94.5,392.0" stroke="black" stroke-width="1" fill="none" />
<polyline points="34.5,487.5,35.0,491.5" stroke="black" stroke-width="1" fill="none" />
<polyline points="45.0,531.5,49.0,540.0" stroke="black" stroke-width="1" fill="none" />
<polyline points="51.5,543.5,51.5,545.0,54.0,543.5" stroke="black" stroke-width="1" fill="none" />
<polyline points="53.5,548.5,57.5,556.5,61.5,562.5,64.0,564.5,66.0,569.5,69.5,567.5" stroke="black" stroke-width="1" fill="none" />
<polyline points="50.0,566.5,54.0,567.5,55.0,571.5,59.5,574.0,63.5,579.0,67.5,584.5,71.5,589.0,75.5,592.5,79.5,597.5,83.5,601.5,87.5,605.5,91.5,609.5,95.5,613.0,99.5,616.5,103.5,619.5,107.5,622.5,111.5,625.0,115.5,627.5,119.5,631.0,123.5,633.5,127.5,636.0,131.5,638.5,135.5,640.5,139.5,641.5,143.5,645.0,147.5,646.5,151.5,648.5,155.5,650.5,159.5,652.0,163.5,653.5,167.5,655.0,171.5,656.5,175.5,658.0,179.5,659.5,183.5,660.5,188.0,662.0,192.0,662.5,196.0,664.0,200.0,665.5,204.0,666.5,208.0,667.0,212.0,667.5,216.0,668.5,220.0,669.0,224.0,669.5,228.0,670.0,232.0,671.0,235.5,671.5" stroke="black" stroke-width="1" fill="none" />
<polyline points="55.5,566.5,51.0,561.5,49.5,556.5,45.5,550.0,41.5,541.5" stroke="black" stroke-width="1" fill="none" />
<polyline points="163.5,95.5,161.0,99.0,166.0,95.5" stroke="black" stroke-width="1" fill="none" />
<polyline points="114.0,68.5,116.0,67.5,116.0,69.5,112.0,66.5" stroke="black" stroke-width="1" fill="none" />
<polyline points="111.0,64.0,109.5,68.0,107.0,72.0,104.0,76.0,100.5,80.0,95.0,84.0" stroke="black" stroke-width="1" fill="none" />
<polyline points="71.5,85.0,65.0,82.5,63.0,78.5,59.0,74.5,57.0,70.5,55.5,66.5,53.0,64.5,53.5,60.5,53.0,56.5,52.0,52.5,52.5,48.5,52.5,44.5,54.0,40.5,55.5,36.5,57.0,32.5,59.0,28.5,63.0,24.5,66.0,20.5,72.5,16.5" stroke="black" stroke-width="1" fill="none" />
</svg>