<svg xmlns="http://www.w3.org/2000/svg" height="409px" width="485px" version="1.1"><polyline points="194.5,0.0,200.5,4.0,203.5,10.0" stroke="black" stroke-width="1" fill="none" />
<polyline points="201.5,4.5,197.5,1.5" stroke="black" stroke-width="1" fill="none" />
<polyline points="197.5,0.0,203.0,4.0" stroke="black" stroke-width="1" fill="none" />
<polyline points="202.5,3.5,198.5,0.5,194.5,0.5" stroke="black" stroke-width="1" fill="none" />
<polyline points="192.5,5.5,196.5,8.5,200.5,11.0,204.5,13.5" stroke="black" stroke-width="1" fill="none" />
<polyline points="194.0,12.5,192.0,14.5,188.5,14.0,183.5,13.0,184.0,14.5" stroke="black" stroke-width="1" fill="none" />
<polyline points="185.0,9.5,190.5,10.5,195.5,8.5,202.5,12.5,201.5,15.5,203.5,19.0" stroke="black" stroke-width="1" fill="none" />
<polyline points="205.5,10.5,201.5,8.0,197.5,7.5,193.5,5.0,189.5,3.0,185.5,1.5,181.5,0.5,176.5,2.0,172.5,2.5" stroke="black" stroke-width="1" fill="none" />
<polyline points="170.0,4.0,171.5,1.5,165.0,5.5,162.0,10.0,156.5,14.0,153.0,17.0,148.0,21.0,148.0,24.5,143.0,28.0,141.0,32.5,137.5,33.5,135.0,37.5,136.5,38.5,134.5,42.5,134.5,45.5,133.0,49.5,131.0,53.5,130.0,57.0,128.0,61.0,126.5,66.0,128.5,71.5,125.0,75.5,121.5,75.5,124.0,77.0,128.0,72.0" stroke="black" stroke-width="1" fill="none" />
<polyline points="126.5,71.0,122.5,73.0" stroke="black" stroke-width="1" fill="none" />
<polyline points="119.5,69.0,119.0,73.0,118.0,77.0,115.5,81.0,114.0,84.5,116.5,89.0,114.5,93.0,112.5,97.0,113.0,99.0,112.0,103.0,110.0,107.0,108.5,111.0,106.5,115.0,104.0,119.0,101.5,123.0,100.5,126.0,97.5,130.0,95.5,134.0,92.5,138.0,90.5,142.0,87.5,146.0,85.0,150.0,82.5,154.0,80.0,159.5,83.0,153.0,87.0,147.5,91.0,141.0,95.0,141.0,99.0,135.0,103.0,131.5" stroke="black" stroke-width="1" fill="none" />
<polyline points="100.5,135.0,98.5,139.0,98.0,145.0,95.0,149.0,94.0,152.5,93.5,156.5" stroke="black" stroke-width="1" fill="none" />
<polyline points="92.5,153.0,91.5,157.0,91.0,154.0,95.5,144.5,102.0,142.0,105.0,136.0,109.0,131.5,113.0,127.5,117.0,124.0,121.0,121.0,125.0,117.0,129.0,114.5,133.0,112.0,137.0,109.0,141.0,105.5,145.0,102.5,149.0,97.5,153.0,93.0,157.0,87.5" stroke="black" stroke-width="1" fill="none" />
<polyline points="159.5,86.0,155.0,90.0,152.5,94.0,149.0,98.0,145.5,102.0,140.5,106.0,136.0,110.0,130.5,114.0,129.0,117.0,123.0,119.5,117.5,123.5,113.0,127.5,109.0,131.5,106.0,135.5,102.5,139.5,101.0,144.0,95.0,145.0,92.5,149.0,90.0,153.0,90.0,159.5,85.0,163.5,84.0,167.5,80.5,170.0,81.5,171.5,80.5,175.5,77.0,177.5,80.5,178.0,84.5,173.0,88.5,168.5" stroke="black" stroke-width="1" fill="none" />
<polyline points="84.0,165.0,89.0,164.5,88.5,168.5,85.0,172.5,81.5,176.5,80.0,180.5,77.5,185.5" stroke="black" stroke-width="1" fill="none" />
<polyline points="82.5,188.0,86.5,185.0" stroke="black" stroke-width="1" fill="none" />
<polyline points="86.5,177.5,90.5,175.5,95.5,174.0,98.5,174.5,102.5,172.0,106.5,172.0,110.5,172.5,114.5,172.0,118.5,171.0,122.5,169.5,126.5,168.5,130.5,167.0,134.5,163.5,138.5,160.5,142.5,156.5,146.5,151.0" stroke="black" stroke-width="1" fill="none" />
<polyline points="148.5,151.0,146.5,155.0,145.0,159.0,141.0,163.0,142.5,162.0,146.5,155.0" stroke="black" stroke-width="1" fill="none" />
<polyline points="143.5,158.5,139.0,162.5,134.5,166.5" stroke="black" stroke-width="1" fill="none" />
<polyline points="136.5,175.0,132.5,176.0" stroke="black" stroke-width="1" fill="none" />
<polyline points="117.0,179.5,113.0,178.0,109.0,178.0" stroke="black" stroke-width="1" fill="none" />
<polyline points="107.5,174.5,111.5,174.0" stroke="black" stroke-width="1" fill="none" />
<polyline points="116.5,180.5,112.5,180.0,108.5,179.0,105.5,181.0,101.5,181.0,100.5,178.5,96.5,179.0,92.5,181.5,89.5,183.5,86.0,182.5,82.0,186.5,78.0,190.5,74.0,194.5" stroke="black" stroke-width="1" fill="none" />
<polyline points="73.5,194.0,76.5,190.5,80.5,183.0,83.5,177.0,87.5,173.0" stroke="black" stroke-width="1" fill="none" />
<polyline points="87.5,175.0,86.5,178.5,87.5,182.0,82.5,186.0,78.5,190.0,75.0,194.0,73.5,197.5,72.5,201.5,72.0,205.5,71.0,209.5,71.0,213.5,71.0,217.5,71.0,221.5,68.0,225.5" stroke="black" stroke-width="1" fill="none" />
<polyline points="65.0,222.5,69.0,220.0,71.5,226.5,70.5,230.5,71.0,234.5,70.0,238.5,68.5,242.5,71.5,246.5,71.0,250.5,70.5,254.5,70.5,258.5" stroke="black" stroke-width="1" fill="none" />
<polyline points="68.5,257.0,68.5,261.0,67.0,265.0,66.5,269.0,64.5,273.0,63.5,277.0,63.0,281.0,62.5,285.0,63.0,289.0" stroke="black" stroke-width="1" fill="none" />
<polyline points="55.5,292.0,54.5,288.0,55.0,284.0,55.0,280.0,57.0,279.0" stroke="black" stroke-width="1" fill="none" />
<polyline points="59.0,274.5,62.5,271.0,62.5,275.0,61.5,279.0,59.0,280.5,59.5,285.0,59.5,289.0,59.0,293.0,59.0,297.0,58.5,301.0,58.5,305.0,61.0,306.5,61.5,310.5,58.5,314.0" stroke="black" stroke-width="1" fill="none" />
<polyline points="65.5,317.5,69.5,317.0,73.5,324.5" stroke="black" stroke-width="1" fill="none" />
<polyline points="72.5,327.0,71.0,324.5,69.5,324.0,64.5,323.5" stroke="black" stroke-width="1" fill="none" />
<polyline points="66.5,320.5,70.5,319.5,72.5,323.5,74.0,327.5,73.0,331.5,72.0,335.5,70.0,340.5" stroke="black" stroke-width="1" fill="none" />
<polyline points="66.0,346.5,68.0,349.5,67.5,353.5,67.5,357.5,71.0,363.5,69.5,367.5,71.5,370.0,70.5,372.0" stroke="black" stroke-width="1" fill="none" />
<polyline points="73.0,368.0,74.0,372.0,74.0,376.0,73.0,381.5,74.0,385.5" stroke="black" stroke-width="1" fill="none" />
<polyline points="79.0,388.0,81.5,384.5,80.5,385.5,73.5,388.5,71.5,386.0,70.5,382.0,71.0,375.5,69.0,371.5,68.0,367.5,69.0,363.5,69.5,359.5,69.5,354.5,71.5,348.5,70.0,348.5,70.5,345.0,70.0,341.0,71.0,339.0,68.0,335.0,68.0,331.0,67.0,327.0,67.5,323.0,64.0,320.5,65.5,319.0,66.5,315.0,66.0,311.0,64.0,306.0" stroke="black" stroke-width="1" fill="none" />
<polyline points="64.0,306.0,64.0,310.0,63.5,314.0,63.5,318.0,62.5,322.0,62.5,326.0,63.0,330.0,63.0,334.0,62.5,338.0,61.0,342.0,61.0,346.0,61.0,350.0,61.5,354.0,62.0,358.0,61.0,362.0,60.5,369.0,69.0,368.0,69.5,370.0,71.0,374.5,72.0,378.5" stroke="black" stroke-width="1" fill="none" />
<polyline points="65.5,389.0,61.5,387.5,57.5,388.5,53.5,389.0,49.5,388.5,47.0,394.5,43.0,396.5,38.5,397.0,34.5,400.5,32.5,399.0,28.5,403.0,24.5,403.5,23.0,400.5,22.5,396.5" stroke="black" stroke-width="1" fill="none" />
<polyline points="22.5,399.5,26.5,401.5" stroke="black" stroke-width="1" fill="none" />
<polyline points="23.5,407.0,20.0,403.0" stroke="black" stroke-width="1" fill="none" />
<polyline points="24.5,407.5,20.5,403.5,15.5,406.5,11.5,408.0,16.5,406.0,18.0,402.0,17.5,398.0,18.0,394.0" stroke="black" stroke-width="1" fill="none" />
<polyline points="42.0,388.5,46.0,388.0,50.0,386.0" stroke="black" stroke-width="1" fill="none" />
<polyline points="46.5,389.5,42.5,388.5" stroke="black" stroke-width="1" fill="none" />
<polyline points="44.0,394.0,40.0,399.0,43.0,396.5" stroke="black" stroke-width="1" fill="none" />
<polyline points="44.0,397.5,40.5,400.0,44.5,398.0" stroke="black" stroke-width="1" fill="none" />
<polyline points="61.0,405.0,65.0,401.0,65.0,401.0,61.0,405.0,62.0,401.0,66.0,396.0,70.0,392.5,74.0,392.5,78.0,394.0,82.0,394.0,85.0,390.5,89.5,392.5" stroke="black" stroke-width="1" fill="none" />
<polyline points="87.5,391.5,89.0,395.5" stroke="black" stroke-width="1" fill="none" />
<polyline points="94.0,397.5,90.0,390.0,89.5,384.0,88.5,380.0,87.0,378.0,86.0,374.0,85.0,370.5,88.5,366.5,91.0,366.0,91.0,362.0,89.5,360.5,91.0,356.5,90.0,352.5,89.0,350.5" stroke="black" stroke-width="1" fill="none" />
<polyline points="94.0,353.0,99.5,354.5,102.5,358.5,104.0,362.5" stroke="black" stroke-width="1" fill="none" />
<polyline points="107.5,354.0,111.5,363.0,115.5,370.5,119.5,377.5,123.5,383.0,127.5,388.0" stroke="black" stroke-width="1" fill="none" />
<polyline points="129.0,387.0,125.0,382.0,121.0,376.0,117.0,370.0,113.0,362.5,109.0,353.5" stroke="black" stroke-width="1" fill="none" />
<polyline points="115.0,351.0,113.5,347.0" stroke="black" stroke-width="1" fill="none" />
<polyline points="107.0,346.5,108.5,350.5,109.0,354.5,111.0,358.5,113.0,362.5,115.0,366.5,117.0,370.5,119.5,374.5,121.5,378.5,125.0,382.5,128.0,386.5" stroke="black" stroke-width="1" fill="none" />
<polyline points="129.0,390.0,125.5,386.0,122.0,382.0,119.5,378.0,116.5,374.0,115.0,370.0,113.0,366.0,110.5,362.0,109.0,358.0,107.5,354.0,106.5,350.0,105.0,346.0,104.5,344.0" stroke="black" stroke-width="1" fill="none" />
<polyline points="94.0,345.5,95.0,349.5,94.0,353.5,96.0,357.5,98.0,361.5,99.0,365.5,101.0,369.5" stroke="black" stroke-width="1" fill="none" />
<polyline points="103.5,364.5,99.5,360.0,95.5,356.0" stroke="black" stroke-width="1" fill="none" />
<polyline points="99.0,353.5,103.0,359.5" stroke="black" stroke-width="1" fill="none" />
<polyline points="104.0,370.5,103.5,366.5,102.0,363.0,98.5,359.0,97.0,355.0,96.0,351.0,94.0,345.5" stroke="black" stroke-width="1" fill="none" />
<polyline points="95.5,335.0,91.5,330.5" stroke="black" stroke-width="1" fill="none" />
<polyline points="91.5,330.5,93.5,334.5,96.0,338.5,98.0,339.0,102.0,347.5,105.5,355.5,107.5,364.0,111.5,374.0" stroke="black" stroke-width="1" fill="none" />
<polyline points="99.5,371.0,98.0,367.0,96.5,363.0,91.0,356.0" stroke="black" stroke-width="1" fill="none" />
<polyline points="89.5,360.0,93.0,361.5,94.5,365.5,90.0,367.5,88.0,371.5,90.5,375.5,88.0,377.5,91.5,377.0,98.5,380.5,99.0,389.0" stroke="black" stroke-width="1" fill="none" />
<polyline points="100.0,389.5,98.5,385.5,97.5,385.5,97.5,381.5,96.0,377.5,94.0,373.5,95.5,372.0,94.0,368.0,88.5,372.5" stroke="black" stroke-width="1" fill="none" />
<polyline points="91.0,372.5,91.0,368.5" stroke="black" stroke-width="1" fill="none" />
<polyline points="87.5,363.5,86.0,367.5,86.0,370.5,88.0,363.5,91.0,367.0,93.5,367.0,95.0,375.0" stroke="black" stroke-width="1" fill="none" />
<polyline points="97.5,378.5,99.0,382.5,98.0,383.5" stroke="black" stroke-width="1" fill="none" />
<polyline points="95.5,386.5,96.5,390.5,97.0,391.5" stroke="black" stroke-width="1" fill="none" />
<polyline points="86.0,390.5,87.5,394.5,88.0,398.5,89.0,402.5" stroke="black" stroke-width="1" fill="none" />
<polyline points="83.0,400.0,82.0,396.0" stroke="black" stroke-width="1" fill="none" />
<polyline points="80.0,395.0,78.0,398.0,74.0,399.0,74.5,395.5,73.5,396.5,69.5,400.5" stroke="black" stroke-width="1" fill="none" />
<polyline points="55.5,405.5,57.5,401.5,62.0,397.5,60.0,399.5,56.0,403.5,61.0,403.5,63.0,399.5,66.5,395.5,66.0,390.5,65.5,392.5,61.5,395.5,57.5,398.5,55.0,398.0,53.5,400.5,52.5,402.0,49.0,405.0,52.5,401.0,52.5,398.5,56.5,396.0,60.5,396.0,66.5,392.0,68.0,388.0,66.0,384.0,61.5,385.5,62.0,381.5,61.0,379.0,57.5,375.0,57.0,371.0,57.0,367.0,55.0,364.0,55.0,360.0,55.5,356.0,55.5,352.0,56.5,348.0,57.0,344.0,57.0,340.0,57.5,336.0,58.0,332.0,58.5,328.0,58.5,324.0,57.5,320.0,59.5,319.0,59.0,315.0,58.0,314.0,58.5,310.0,57.5,306.0,56.5,302.0,56.5,298.0,56.5,294.0,57.0,290.0,57.0,286.0,57.0,281.5,58.5,277.5,60.0,273.5,61.0,269.5,59.0,272.0,61.0,268.0,61.5,264.0,63.0,260.0,64.5,256.0,65.0,252.0,61.5,255.5,57.5,262.0,58.5,260.0,61.5,256.0,63.5,252.0,65.5,248.0,66.5,244.0,65.0,240.0,59.0,248.0" stroke="black" stroke-width="1" fill="none" />
<polyline points="57.5,248.0,61.5,239.0,63.5,239.5,62.0,243.5,59.5,247.5,58.0,251.5" stroke="black" stroke-width="1" fill="none" />
<polyline points="76.0,258.5,76.5,262.5,78.0,266.5,78.0,270.5,78.5,274.5,79.5,278.5,81.0,282.5,82.0,286.5,82.5,290.5,86.5,295.5,86.5,299.5,87.0,303.5,88.0,307.5" stroke="black" stroke-width="1" fill="none" />
<polyline points="87.0,316.0,86.5,312.0,86.0,307.0,85.0,303.0,84.0,299.0,82.5,295.0,81.5,291.0,80.5,287.0,79.5,283.0,78.5,279.0,77.5,275.0,76.5,271.0,76.0,266.5,75.0,262.5,75.0,258.5,76.0,254.5,73.5,253.5,75.5,249.5,76.5,243.0,76.0,239.0,75.5,235.0,75.0,231.0,73.5,227.0,73.0,223.0,73.0,219.0,73.5,215.0,74.0,211.0,74.5,207.0,75.0,203.0,76.0,199.0,78.0,195.0,85.0,190.0,81.0,195.0" stroke="black" stroke-width="1" fill="none" />
<polyline points="75.5,200.5,79.5,193.5,84.5,192.0,83.5,198.5,84.5,202.0,82.5,206.0,79.5,207.0" stroke="black" stroke-width="1" fill="none" />
<polyline points="94.5,184.5,95.0,186.0,99.0,185.0" stroke="black" stroke-width="1" fill="none" />
<polyline points="94.0,183.5,98.0,183.0,102.0,183.5,106.0,183.5,110.0,185.0" stroke="black" stroke-width="1" fill="none" />
<polyline points="94.5,181.0,98.5,180.0,102.5,180.0,106.5,177.5,110.5,176.5,114.5,176.5,118.5,176.0,122.5,173.5,126.5,172.5,130.5,171.5,136.0,168.0,129.0,172.0" stroke="black" stroke-width="1" fill="none" />
<polyline points="113.5,167.5,115.0,163.5" stroke="black" stroke-width="1" fill="none" />
<polyline points="119.0,157.0,123.0,153.0,127.0,151.0,130.0,148.5" stroke="black" stroke-width="1" fill="none" />
<polyline points="131.5,153.0,127.5,157.5,127.0,154.0,131.0,150.0,136.0,146.0" stroke="black" stroke-width="1" fill="none" />
<polyline points="136.5,147.0,133.0,151.0,130.0,155.0" stroke="black" stroke-width="1" fill="none" />
<polyline points="119.0,149.5,123.0,145.5,127.0,143.0,129.5,140.5,124.5,144.5,120.0,148.5,121.5,145.0,125.5,142.5,129.5,139.0" stroke="black" stroke-width="1" fill="none" />
<polyline points="133.0,136.0,128.0,140.0,123.0,144.0,117.5,147.0,121.5,143.0" stroke="black" stroke-width="1" fill="none" />
<polyline points="124.5,138.5,128.5,134.5,132.5,130.0,137.5,124.5,141.5,121.5,145.5,118.0" stroke="black" stroke-width="1" fill="none" />
<polyline points="148.0,118.0,144.5,122.0,141.0,126.0,137.0,130.0,133.0,134.0,128.5,138.0,124.0,142.0,124.5,136.0,129.5,129.0,133.5,125.0,137.5,120.5" stroke="black" stroke-width="1" fill="none" />
<polyline points="139.5,120.5,136.0,124.5,132.0,128.5,127.5,132.5,124.0,136.5,122.0,140.5,116.5,143.0,115.5,145.5,119.5,142.5,123.5,140.5,126.5,139.5,130.5,136.5,130.5,134.0,135.0,132.0,139.0,128.0,143.0,123.5,147.0,118.5,149.0,121.0" stroke="black" stroke-width="1" fill="none" />
<polyline points="150.5,119.0,147.5,123.0,143.5,127.0,140.0,130.5,138.5,134.5,134.5,138.5,130.5,142.5,125.5,146.5,120.5,150.5,113.0,151.5,110.5,155.0,107.0,159.0,100.5,163.0,100.5,163.0,104.5,160.5,108.5,158.0,112.5,155.5" stroke="black" stroke-width="1" fill="none" />
<polyline points="108.5,155.0,112.5,152.0,116.5,151.0,113.0,153.5,112.5,155.5,107.5,157.0,111.5,155.0,115.5,153.0,119.5,151.0,123.5,148.0,127.5,145.0,131.5,141.5,135.5,137.5,139.5,133.0,143.0,130.5,147.0,126.5" stroke="black" stroke-width="1" fill="none" />
<polyline points="150.0,126.0,146.0,130.0,142.0,134.5,138.5,141.0,136.0,147.5,134.0,148.0,130.0,151.0,126.0,155.0,122.0,157.0,118.0,160.0,114.0,162.5,110.0,164.5,106.0,169.0,109.0,165.5,115.0,161.5,122.5,157.5,122.5,154.0,128.0,150.0,133.0,146.0,137.0,142.5,141.0,138.5,144.5,132.0,147.5,128.0,151.5,124.0" stroke="black" stroke-width="1" fill="none" />
<polyline points="149.0,124.0,146.0,128.0,141.0,131.5,140.5,134.5,138.0,138.5,135.5,142.5,132.0,143.5,127.0,147.5,128.0,146.5,132.0,143.5,135.0,144.0,138.0,137.5,140.0,130.5,144.5,126.5" stroke="black" stroke-width="1" fill="none" />
<polyline points="139.0,118.5,135.5,122.5,132.0,126.5,128.0,130.5,123.5,135.0,120.0,139.0,116.0,141.5,111.5,145.5,107.5,151.0,111.5,150.0" stroke="black" stroke-width="1" fill="none" />
<polyline points="98.0,145.0,94.0,149.0" stroke="black" stroke-width="1" fill="none" />
<polyline points="92.0,151.0,91.0,155.0,89.0,159.0,86.5,164.5,86.5,168.5,86.5,174.0,82.0,181.0,79.0,185.0,77.0,189.0,76.0,189.0" stroke="black" stroke-width="1" fill="none" />
<polyline points="93.5,177.5,97.5,175.5,94.0,181.0,88.0,184.0,82.5,188.0,82.0,193.5,80.5,197.5,79.5,201.5,79.0,205.5,79.5,207.0,80.0,211.0,81.0,215.0" stroke="black" stroke-width="1" fill="none" />
<polyline points="124.0,217.0,124.0,221.0,123.5,225.0,123.5,229.0,123.5,233.0,123.5,237.0,123.5,241.0,124.0,245.0,124.5,249.0" stroke="black" stroke-width="1" fill="none" />
<polyline points="134.0,250.0,134.0,246.0,134.0,242.0,133.5,238.0" stroke="black" stroke-width="1" fill="none" />
<polyline points="138.5,238.0,139.0,242.0" stroke="black" stroke-width="1" fill="none" />
<polyline points="137.5,234.5,137.5,238.5,138.0,242.5,135.5,246.0,135.0,250.5,135.5,254.5" stroke="black" stroke-width="1" fill="none" />
<polyline points="140.5,273.0,141.0,277.0,142.5,281.0,143.0,285.0,144.0,289.0,145.5,293.0,147.0,297.0,148.5,301.0,150.0,305.0,152.0,309.0,153.0,313.0,155.0,317.0" stroke="black" stroke-width="1" fill="none" />
<polyline points="156.0,318.5,152.0,308.5,148.0,300.0,144.0,288.0" stroke="black" stroke-width="1" fill="none" />
<polyline points="154.5,284.0,156.0,284.0,157.0,288.0,158.5,292.0,159.5,296.0,161.5,300.0,163.0,304.0" stroke="black" stroke-width="1" fill="none" />
<polyline points="159.5,299.0,155.5,291.5" stroke="black" stroke-width="1" fill="none" />
<polyline points="162.0,305.0,160.0,301.0,158.5,297.0,157.5,293.0,155.5,292.0,155.5,288.0,154.0,284.0,153.5,280.0,152.5,276.0,152.0,272.0,152.5,270.0" stroke="black" stroke-width="1" fill="none" />
<polyline points="153.0,271.0,154.0,275.0,155.0,279.0,157.5,283.0,157.5,288.5,161.5,300.0" stroke="black" stroke-width="1" fill="none" />
<polyline points="171.5,312.0,173.0,316.0,175.0,320.0" stroke="black" stroke-width="1" fill="none" />
<polyline points="171.0,326.0,169.0,322.0,168.0,318.0,167.0,316.0" stroke="black" stroke-width="1" fill="none" />
<polyline points="159.5,326.5,161.5,330.5,164.0,334.5,166.0,338.5,168.5,342.5,170.5,346.5,172.0,350.5,173.0,354.5,174.5,358.5,176.5,362.5,177.5,367.0,179.0,371.0,180.5,375.0,181.0,379.0,182.5,383.0" stroke="black" stroke-width="1" fill="none" />
<polyline points="190.0,376.5,189.5,372.5,188.5,368.5,187.0,364.5,184.5,358.0" stroke="black" stroke-width="1" fill="none" />
<polyline points="180.5,363.0,182.0,367.0,183.0,371.0" stroke="black" stroke-width="1" fill="none" />
<polyline points="180.5,363.0,184.5,368.0,185.5,372.0,186.5,376.0,187.5,380.0" stroke="black" stroke-width="1" fill="none" />
<polyline points="192.5,398.5,192.5,394.5,191.5,390.5,190.5,386.5,190.0,382.5,189.0,378.5,188.0,374.5,187.0,370.5,186.5,366.5,186.0,362.5,184.5,358.5,186.0,356.5,184.5,352.5,185.5,348.5,184.5,344.5,183.0,340.5,179.0,337.5" stroke="black" stroke-width="1" fill="none" />
<polyline points="182.5,338.5,187.0,347.0,188.0,351.0,189.0,355.0,190.0,359.0,188.0,363.0,189.5,367.0,190.5,371.0,191.0,375.0,191.5,379.0,193.0,383.0,193.0,387.0,194.0,391.0,195.0,395.0,195.5,399.0,195.5,403.0,196.0,407.0" stroke="black" stroke-width="1" fill="none" />
<polyline points="190.0,406.5,189.5,402.5" stroke="black" stroke-width="1" fill="none" />
<polyline points="179.0,390.5,175.0,383.5,171.0,376.5,167.0,371.5" stroke="black" stroke-width="1" fill="none" />
<polyline points="166.5,371.0,170.5,373.5,173.0,377.0" stroke="black" stroke-width="1" fill="none" />
<polyline points="174.5,376.5,170.5,366.5,166.5,363.0" stroke="black" stroke-width="1" fill="none" />
<polyline points="167.0,369.5,168.5,373.5,171.5,377.5,173.5,381.5,176.0,385.5,178.5,389.5,180.0,393.5,181.0,397.5" stroke="black" stroke-width="1" fill="none" />
<polyline points="165.5,402.5,166.0,398.0,165.0,394.0,163.0,390.0" stroke="black" stroke-width="1" fill="none" />
<polyline points="160.5,388.0,161.0,392.0,162.5,396.0,164.0,399.0,165.0,403.0,166.5,407.0" stroke="black" stroke-width="1" fill="none" />
<polyline points="165.0,408.0,164.0,404.0,162.0,400.0,160.5,396.0,159.0,392.0,159.0,388.0,158.0,384.0" stroke="black" stroke-width="1" fill="none" />
<polyline points="150.5,386.0,149.0,382.0,150.0,380.0" stroke="black" stroke-width="1" fill="none" />
<polyline points="150.0,380.5,151.5,384.5" stroke="black" stroke-width="1" fill="none" />
<polyline points="152.5,386.5,148.5,380.5" stroke="black" stroke-width="1" fill="none" />
<polyline points="168.0,370.5,171.0,374.5,173.5,378.5,176.0,382.5" stroke="black" stroke-width="1" fill="none" />
<polyline points="177.5,366.5,174.5,358.5" stroke="black" stroke-width="1" fill="none" />
<polyline points="171.5,349.0,167.5,340.5,163.5,333.5,159.5,326.5" stroke="black" stroke-width="1" fill="none" />
<polyline points="158.5,329.0,159.0,333.0,160.5,337.0,162.5,341.0,164.5,345.0,166.0,349.0" stroke="black" stroke-width="1" fill="none" />
<polyline points="166.5,349.5,162.5,340.5,158.5,331.5" stroke="black" stroke-width="1" fill="none" />
<polyline points="159.0,330.0,161.0,334.0,163.0,338.0,164.5,342.0" stroke="black" stroke-width="1" fill="none" />
<polyline points="165.5,344.0,161.5,334.0,157.5,330.0" stroke="black" stroke-width="1" fill="none" />
<polyline points="153.0,331.0,155.5,335.0,158.0,339.0,159.5,343.0,159.0,344.5,161.0,348.5,163.0,352.5,165.0,356.5,166.0,360.5,167.0,364.5,169.5,366.0,172.0,370.0,172.5,374.0,175.0,378.0" stroke="black" stroke-width="1" fill="none" />
<polyline points="158.5,359.0,154.5,355.0" stroke="black" stroke-width="1" fill="none" />
<polyline points="154.5,353.0,156.5,357.0,159.5,361.0" stroke="black" stroke-width="1" fill="none" />
<polyline points="158.5,356.5,154.5,353.0" stroke="black" stroke-width="1" fill="none" />
<polyline points="156.5,355.0,159.5,359.0" stroke="black" stroke-width="1" fill="none" />
<polyline points="161.5,349.0,158.5,343.5,157.0,337.0,153.0,331.0" stroke="black" stroke-width="1" fill="none" />
<polyline points="177.0,330.5,178.0,332.0,181.0,332.5,181.5,333.5" stroke="black" stroke-width="1" fill="none" />
<polyline points="180.5,343.5,181.5,347.5,182.5,351.5,186.5,353.0,187.5,357.0,190.5,361.5,190.5,364.5,192.0,368.5,192.5,372.5,193.5,376.5,195.0,380.5,195.0,384.5,195.5,388.5,196.5,392.5,197.0,396.5" stroke="black" stroke-width="1" fill="none" />
<polyline points="190.0,362.0,190.0,354.5,190.5,350.5,188.0,346.5" stroke="black" stroke-width="1" fill="none" />
<polyline points="193.5,344.0,192.0,340.0,191.0,336.0,190.5,332.0,190.5,328.0,190.0,324.0,189.5,320.0,189.5,316.0,189.5,312.0,189.5,308.0,188.0,304.0,184.5,300.0,181.0,296.0,179.0,292.0,177.5,288.0,176.5,284.0,175.0,280.0,174.0,276.0,173.5,272.0,173.0,268.0,173.0,264.0,172.5,260.0,172.0,256.0,171.5,252.0,171.0,248.0,170.5,244.0,167.5,242.0,163.5,242.0,159.5,238.5,155.5,234.0,151.5,229.5,147.5,221.5" stroke="black" stroke-width="1" fill="none" />
<polyline points="152.0,221.5,156.0,222.5,160.0,220.0" stroke="black" stroke-width="1" fill="none" />
<polyline points="161.0,215.5,161.0,215.5,162.5,219.5,159.0,225.0,160.5,229.0" stroke="black" stroke-width="1" fill="none" />
<polyline points="159.0,226.0,158.0,225.5,154.0,224.0" stroke="black" stroke-width="1" fill="none" />
<polyline points="154.0,224.0,155.0,228.0,156.5,232.0" stroke="black" stroke-width="1" fill="none" />
<polyline points="159.0,229.5,156.0,229.5,153.5,228.5,151.5,224.5,150.5,220.5,152.5,219.0,155.5,216.0,151.5,216.0" stroke="black" stroke-width="1" fill="none" />
<polyline points="148.0,217.0,152.0,220.0,153.0,227.0" stroke="black" stroke-width="1" fill="none" />
<polyline points="163.5,227.0,163.0,223.0,163.5,219.0,162.5,215.0" stroke="black" stroke-width="1" fill="none" />
<polyline points="158.5,208.5,158.0,204.5,157.0,204.0" stroke="black" stroke-width="1" fill="none" />
<polyline points="160.0,202.5,160.5,206.5,161.0,210.5" stroke="black" stroke-width="1" fill="none" />
<polyline points="145.5,208.0,145.5,212.0,147.0,216.0,147.0,220.0,148.5,224.0,150.5,228.0,153.0,232.0,157.5,236.0,160.5,240.0,165.0,244.0,169.0,244.5" stroke="black" stroke-width="1" fill="none" />
<polyline points="146.5,273.5,146.5,277.5,148.5,281.5,149.0,285.5,150.0,289.5,151.5,293.5" stroke="black" stroke-width="1" fill="none" />
<polyline points="132.0,289.5,133.5,293.5,135.0,297.5,137.0,301.5,139.0,305.5,141.0,309.5,142.0,313.5,144.0,317.5" stroke="black" stroke-width="1" fill="none" />
<polyline points="143.0,315.0,140.0,306.5,136.0,298.5,132.0,289.5" stroke="black" stroke-width="1" fill="none" />
<polyline points="131.0,299.0,132.5,303.0,134.0,307.0,135.5,311.0,138.0,315.0,139.5,321.0,142.0,325.0" stroke="black" stroke-width="1" fill="none" />
<polyline points="141.5,324.0,138.0,314.5,134.0,309.0,131.0,299.0" stroke="black" stroke-width="1" fill="none" />
<polyline points="114.5,327.0,115.5,331.0,116.5,335.0,117.5,339.0" stroke="black" stroke-width="1" fill="none" />
<polyline points="118.5,330.0,120.5,333.5,122.0,337.0,123.5,341.0,125.0,345.0" stroke="black" stroke-width="1" fill="none" />
<polyline points="96.5,329.5,96.5,333.5,97.0,338.0,99.0,342.0,101.0,346.0,103.0,350.0,104.0,354.0,106.5,358.0,108.5,362.0,108.0,366.0,109.5,370.0,111.5,374.0,112.5,378.0" stroke="black" stroke-width="1" fill="none" />
<polyline points="83.5,390.0,82.0,394.0,81.0,398.0,81.5,402.0" stroke="black" stroke-width="1" fill="none" />
<polyline points="57.0,393.0,58.5,388.0,59.5,384.0" stroke="black" stroke-width="1" fill="none" />
<polyline points="52.0,379.0,51.0,383.0,49.0,387.0,46.5,391.5,42.5,395.5,37.5,397.5,32.0,400.0,31.0,404.5,35.0,403.5,39.0,404.0,43.0,404.5,43.5,402.5,46.5,399.5,50.5,397.5,51.5,395.0,52.5,392.0,54.5,394.0,56.5,392.5" stroke="black" stroke-width="1" fill="none" />
<polyline points="61.5,367.5,57.0,363.5" stroke="black" stroke-width="1" fill="none" />
<polyline points="64.0,366.0,65.0,370.0,64.5,374.0,65.5,378.0,66.0,382.0" stroke="black" stroke-width="1" fill="none" />
<polyline points="85.5,381.5,81.5,370.5,76.5,366.5,76.5,369.5,77.0,365.5" stroke="black" stroke-width="1" fill="none" />
<polyline points="79.0,365.5,80.5,369.5,82.5,373.5,83.0,377.5,85.0,381.5,87.5,385.5,89.5,389.5,91.5,393.5,93.5,397.5" stroke="black" stroke-width="1" fill="none" />
<polyline points="137.0,403.0,140.5,407.0" stroke="black" stroke-width="1" fill="none" />
<polyline points="141.0,407.5,137.0,403.0" stroke="black" stroke-width="1" fill="none" />
<polyline points="90.0,340.5,86.0,331.5" stroke="black" stroke-width="1" fill="none" />
<polyline points="86.0,331.5,87.0,335.5,89.0,339.5,90.5,343.5" stroke="black" stroke-width="1" fill="none" />
<polyline points="82.5,338.0,76.0,331.5" stroke="black" stroke-width="1" fill="none" />
<polyline points="76.0,331.5,77.5,335.5,80.5,342.0,83.5,348.5" stroke="black" stroke-width="1" fill="none" />
<polyline points="66.0,340.5,67.5,339.0,66.5,335.5,66.0,331.5" stroke="black" stroke-width="1" fill="none" />
<polyline points="65.0,327.5,65.0,331.5,65.0,335.5,65.0,339.5,68.0,340.5,68.0,344.5,66.0,344.5,66.0,348.5,66.0,352.5,65.5,356.5,65.5,360.5,65.5,364.5,66.5,368.5,66.5,372.5,67.5,376.5,68.0,380.5,69.5,384.0,70.5,386.5" stroke="black" stroke-width="1" fill="none" />
<polyline points="60.0,378.0,61.0,377.5,61.0,374.5,60.5,370.5,60.5,366.5,59.5,362.5,59.0,358.5,59.0,354.5,58.5,350.5" stroke="black" stroke-width="1" fill="none" />
<polyline points="59.0,340.0,59.0,336.0,59.0,332.0" stroke="black" stroke-width="1" fill="none" />
<polyline points="60.5,328.5,61.0,332.5,60.5,336.5,60.5,340.5,62.5,345.0,62.5,349.0,63.0,353.0,63.0,357.0,63.5,361.0,63.5,365.0,63.0,369.0,62.0,374.5,63.0,378.5,64.0,382.5,60.5,388.5,60.5,388.5,67.5,386.5" stroke="black" stroke-width="1" fill="none" />
<polyline points="88.0,323.0,84.0,315.5" stroke="black" stroke-width="1" fill="none" />
<polyline points="84.0,315.5,86.5,319.5,88.0,323.5,90.5,324.0" stroke="black" stroke-width="1" fill="none" />
<polyline points="77.5,313.0,78.5,317.0,80.5,321.0,81.0,325.0,80.5,329.0,81.0,333.0,81.5,337.5,80.0,341.0,81.5,345.0,83.5,349.0,86.0,353.0" stroke="black" stroke-width="1" fill="none" />
<polyline points="75.5,321.5,74.5,317.5,75.0,313.5,75.0,309.5,75.0,305.5" stroke="black" stroke-width="1" fill="none" />
<polyline points="75.0,304.5,73.5,308.5,73.5,312.5,73.0,316.5" stroke="black" stroke-width="1" fill="none" />
<polyline points="71.5,309.0,71.0,305.0" stroke="black" stroke-width="1" fill="none" />
<polyline points="70.5,304.0,70.0,308.0" stroke="black" stroke-width="1" fill="none" />
<polyline points="66.5,302.0,66.5,306.0,68.0,310.0,69.5,314.0,68.5,316.0,67.0,320.0,69.0,322.5,68.5,326.5,70.0,330.0" stroke="black" stroke-width="1" fill="none" />
<polyline points="56.0,311.0,55.0,307.0,55.0,303.0,54.5,299.0" stroke="black" stroke-width="1" fill="none" />
<polyline points="52.5,285.5,52.5,289.5,53.5,293.5,53.0,297.5,53.0,301.5,52.5,305.5,52.5,309.5,52.5,313.5" stroke="black" stroke-width="1" fill="none" />
<polyline points="81.5,279.5,81.0,276.5,80.0,272.5,79.0,269.0" stroke="black" stroke-width="1" fill="none" />
<polyline points="79.0,262.5,80.0,266.5,81.0,270.5,82.0,274.5,82.0,278.5,83.0,282.5,83.5,286.5,84.0,290.5,85.0,294.5" stroke="black" stroke-width="1" fill="none" />
<polyline points="93.5,287.0,93.5,283.0,93.0,279.0" stroke="black" stroke-width="1" fill="none" />
<polyline points="98.0,276.0,98.5,280.0,98.5,284.0,99.0,288.0,99.0,292.0,99.0,296.0" stroke="black" stroke-width="1" fill="none" />
<polyline points="92.0,296.5,91.5,292.5,91.0,288.5,91.5,284.5,91.5,280.5,92.0,276.5,91.5,272.5" stroke="black" stroke-width="1" fill="none" />
<polyline points="98.0,264.0,98.5,268.0,98.0,272.0,97.0,276.0,97.0,280.0,97.0,284.0,96.0,288.0,95.5,292.5,95.5,296.5,95.5,300.5" stroke="black" stroke-width="1" fill="none" />
<polyline points="54.5,273.0,54.5,269.0,55.0,265.0,55.0,261.0,55.5,255.5,57.0,251.5,58.0,247.5,59.5,243.5,61.0,239.5,63.0,235.5,65.0,231.5,69.0,229.0,69.5,225.0,66.5,220.5,68.5,216.5,69.0,213.5,69.0,209.5,69.0,205.5,69.0,201.5,70.5,197.5,71.0,193.5,74.5,191.5,74.5,187.5,75.0,183.5,75.5,179.5,75.5,175.5,77.5,171.5,77.5,167.5,77.5,167.0" stroke="black" stroke-width="1" fill="none" />
<polyline points="80.0,160.0,82.5,156.0,88.0,153.0,89.0,149.0,91.0,148.5,93.5,144.5,94.5,140.5,93.5,136.5,97.5,133.5,100.0,129.5,99.0,130.5,95.0,137.5" stroke="black" stroke-width="1" fill="none" />
<polyline points="93.0,140.0,97.0,137.0,100.5,133.0,101.5,129.0,97.5,129.0" stroke="black" stroke-width="1" fill="none" />
<polyline points="97.0,127.0,101.0,123.5" stroke="black" stroke-width="1" fill="none" />
<polyline points="97.5,125.0,99.0,123.5,96.5,124.5,100.5,116.5" stroke="black" stroke-width="1" fill="none" />
<polyline points="102.0,117.5,103.5,113.5,106.5,108.0,108.5,107.0,106.5,114.5" stroke="black" stroke-width="1" fill="none" />
<polyline points="101.5,112.5,98.5,116.5,96.0,120.5,98.0,117.0,102.0,113.5,106.0,109.0,110.0,106.5" stroke="black" stroke-width="1" fill="none" />
<polyline points="103.5,106.0,101.5,110.0,98.5,114.0,96.0,118.0,97.5,115.0,101.5,110.0,105.5,107.0,108.0,102.5,113.5,94.5,117.5,84.5" stroke="black" stroke-width="1" fill="none" />
<polyline points="125.0,88.0,129.0,84.5,133.0,78.5,130.5,82.0,127.5,86.0,123.0,90.0,120.5,94.0,118.0,98.0,118.5,99.5" stroke="black" stroke-width="1" fill="none" />
<polyline points="119.5,95.5,115.5,95.0" stroke="black" stroke-width="1" fill="none" />
<polyline points="111.0,91.5,111.5,83.5,115.0,74.5" stroke="black" stroke-width="1" fill="none" />
<polyline points="109.0,81.5,107.5,85.5,106.5,87.5" stroke="black" stroke-width="1" fill="none" />
<polyline points="136.5,92.5,132.5,96.5,129.0,99.0,133.0,94.5,137.0,92.5" stroke="black" stroke-width="1" fill="none" />
<polyline points="136.5,94.0,132.5,99.5,128.5,103.5,132.0,100.0,135.0,96.0,139.5,92.0" stroke="black" stroke-width="1" fill="none" />
<polyline points="147.5,92.0,143.5,94.0,139.5,97.0,136.5,99.5,141.0,95.5,148.0,91.5" stroke="black" stroke-width="1" fill="none" />
<polyline points="147.5,90.5,139.5,94.5,135.5,98.5,137.0,97.5,141.0,93.5,145.0,92.0" stroke="black" stroke-width="1" fill="none" />
<polyline points="148.5,84.0,150.5,82.5" stroke="black" stroke-width="1" fill="none" />
<polyline points="157.5,92.5,153.5,95.5,149.5,99.5,145.5,104.0,143.5,109.0,139.5,114.0,135.5,118.0,137.0,116.5,140.5,112.5,144.0,108.5,147.0,104.5,147.0,102.0,151.0,98.0,155.5,94.0,161.0,90.0" stroke="black" stroke-width="1" fill="none" />
<polyline points="173.5,96.5,177.5,93.5,184.0,92.5,186.0,88.5" stroke="black" stroke-width="1" fill="none" />
<polyline points="182.0,85.0,186.5,89.0,183.5,93.0,180.5,94.5,175.0,98.5,177.5,100.5,176.5,104.5" stroke="black" stroke-width="1" fill="none" />
<polyline points="174.5,99.0,178.5,95.5" stroke="black" stroke-width="1" fill="none" />
<polyline points="187.0,78.0,184.0,82.0,181.5,80.0,185.5,76.0" stroke="black" stroke-width="1" fill="none" />
<polyline points="185.5,79.5,181.5,84.0,181.0,88.0,177.0,91.5,173.0,96.0,175.5,93.5,180.0,89.5,184.0,85.5,181.5,80.0,185.5,76.0,188.5,72.0" stroke="black" stroke-width="1" fill="none" />
<polyline points="186.5,63.0,184.5,67.0,181.5,71.0,178.5,74.5,182.5,69.5,186.5,63.0" stroke="black" stroke-width="1" fill="none" />
<polyline points="187.5,61.5,184.5,64.0,180.5,69.0,176.5,74.0,172.5,77.0,168.5,80.5,164.5,85.0,165.5,84.0,169.0,80.0,174.0,76.0,178.5,72.0,181.0,68.0,184.5,64.5,187.0,60.5,191.0,56.5" stroke="black" stroke-width="1" fill="none" />
<polyline points="188.0,53.5,184.0,57.5,181.0,61.5,176.5,64.0,175.0,65.5,179.5,63.5,183.5,58.0,187.0,54.5" stroke="black" stroke-width="1" fill="none" />
<polyline points="187.5,52.5,183.5,56.5,177.5,62.0,172.5,66.0,169.5,68.5,173.5,65.0,177.5,62.0,181.5,58.5,185.5,54.5,186.5,51.0,190.0,52.5" stroke="black" stroke-width="1" fill="none" />
<polyline points="192.5,52.5,188.5,56.5,185.0,60.5,182.5,64.5,179.0,68.5,176.0,72.5,176.5,71.5,180.5,66.5,184.5,61.0,188.5,56.5,192.5,52.5" stroke="black" stroke-width="1" fill="none" />
<polyline points="193.5,48.0,197.5,46.5" stroke="black" stroke-width="1" fill="none" />
<polyline points="203.0,40.5,195.0,44.0,188.0,48.0,182.5,52.0,181.5,56.0,178.0,60.0,172.0,64.0,167.0,67.0,171.0,65.0,175.0,62.0,179.0,58.5,183.0,55.0,183.0,52.0,187.0,48.5,191.0,46.0,195.0,44.0,199.0,42.5,203.0,40.5" stroke="black" stroke-width="1" fill="none" />
<polyline points="205.0,42.0,202.0,46.0,198.5,50.0,195.5,54.0,192.5,58.0,191.0,62.0,189.0,66.0,186.0,70.0,183.0,74.0,180.0,79.0,174.5,83.0,177.0,81.0,181.0,78.5,182.5,74.5,186.5,69.5,190.5,62.5,194.5,55.0,198.5,49.0,202.5,44.5,206.5,42.0,210.5,39.0,214.5,39.5,218.5,37.0,222.5,37.0,226.5,35.0,230.5,33.0,234.5,32.5,238.5,30.5,242.5,31.0,246.5,31.0,250.5,30.5,254.5,30.5,258.5,30.5,262.5,30.5,266.5,30.5,270.5,30.5,274.5,31.0,278.5,31.0,282.5,29.0" stroke="black" stroke-width="1" fill="none" />
<polyline points="294.0,27.0,298.0,26.5,302.0,30.5,306.0,33.0,310.0,34.5,314.0,37.0,318.5,38.5,322.5,41.0,326.5,42.5,330.5,49.0,336.0,54.5,340.0,58.5,344.0,61.0" stroke="black" stroke-width="1" fill="none" />
<polyline points="349.5,58.0,353.5,63.0,357.5,66.5,360.0,66.0,363.0,70.0,366.0,70.5,370.0,74.5,374.0,78.5,378.5,82.5,382.0,85.5,386.0,89.5,390.0,93.0" stroke="black" stroke-width="1" fill="none" />
<polyline points="391.5,97.0,387.5,93.0,383.5,89.0" stroke="black" stroke-width="1" fill="none" />
<polyline points="385.0,89.0,389.5,93.0,393.0,97.0" stroke="black" stroke-width="1" fill="none" />
<polyline points="386.0,103.5,382.0,98.0,378.0,93.5" stroke="black" stroke-width="1" fill="none" />
<polyline points="378.5,92.5,382.0,96.5,385.0,100.5" stroke="black" stroke-width="1" fill="none" />
<polyline points="384.5,99.5,380.5,94.5,376.5,92.5" stroke="black" stroke-width="1" fill="none" />
<polyline points="378.0,92.0,379.5,96.0,382.5,100.0" stroke="black" stroke-width="1" fill="none" />
<polyline points="380.5,81.0,376.5,77.0,372.5,73.5,368.5,70.5,364.5,66.5,360.5,63.5" stroke="black" stroke-width="1" fill="none" />
<polyline points="360.5,63.5,363.5,67.5,365.5,68.0,370.0,72.0,374.5,76.0,379.0,80.0,379.0,84.0,384.0,88.0,386.5,92.0,390.5,96.0" stroke="black" stroke-width="1" fill="none" />
<polyline points="375.5,79.5,371.5,75.5,367.5,71.5,363.5,67.5,359.5,65.0,355.5,61.5" stroke="black" stroke-width="1" fill="none" />
<polyline points="355.5,61.5,358.5,65.5,360.5,69.5,362.5,71.5,364.5,75.5" stroke="black" stroke-width="1" fill="none" />
<polyline points="369.5,68.0,365.5,63.5" stroke="black" stroke-width="1" fill="none" />
<polyline points="367.0,63.5,371.0,67.5,376.0,70.0,376.0,72.5,377.5,73.0" stroke="black" stroke-width="1" fill="none" />
<polyline points="378.0,69.0,374.0,65.0" stroke="black" stroke-width="1" fill="none" />
<polyline points="374.0,65.0,377.5,69.0" stroke="black" stroke-width="1" fill="none" />
<polyline points="380.5,63.0,376.5,59.5,372.5,56.0" stroke="black" stroke-width="1" fill="none" />
<polyline points="372.5,56.0,377.0,60.0" stroke="black" stroke-width="1" fill="none" />
<polyline points="379.0,67.0,375.0,63.0,371.0,60.0,367.0,56.5" stroke="black" stroke-width="1" fill="none" />
<polyline points="367.0,56.5,371.5,60.5,375.5,64.0,379.0,68.0" stroke="black" stroke-width="1" fill="none" />
<polyline points="371.5,68.0,367.5,64.0" stroke="black" stroke-width="1" fill="none" />
<polyline points="367.0,63.0,368.5,67.0" stroke="black" stroke-width="1" fill="none" />
<polyline points="368.5,63.5,373.5,67.5" stroke="black" stroke-width="1" fill="none" />
<polyline points="379.0,73.0,375.0,68.5,371.0,65.5,367.0,63.0" stroke="black" stroke-width="1" fill="none" />
<polyline points="369.5,47.0,373.5,49.0,377.5,50.5,378.5,48.0,382.5,48.0" stroke="black" stroke-width="1" fill="none" />
<polyline points="381.0,38.5,377.0,38.5" stroke="black" stroke-width="1" fill="none" />
<polyline points="371.5,41.0,367.5,40.5" stroke="black" stroke-width="1" fill="none" />
<polyline points="370.5,43.5,366.5,43.0,362.5,42.5" stroke="black" stroke-width="1" fill="none" />
<polyline points="361.0,39.5,365.0,39.0,369.0,38.5,372.0,39.0,376.0,38.5,380.0,37.0,384.0,37.0" stroke="black" stroke-width="1" fill="none" />
<polyline points="384.0,42.5,380.0,40.5,376.0,39.5,372.5,37.0,370.5,36.0,366.5,36.0,362.5,36.0" stroke="black" stroke-width="1" fill="none" />
<polyline points="363.5,29.5,365.5,27.0,361.0,24.5,355.5,27.5,352.5,28.5,357.0,27.5,361.0,24.5,365.0,23.0,369.0,22.5,374.0,20.0,378.0,21.0" stroke="black" stroke-width="1" fill="none" />
<polyline points="382.5,28.0,385.5,30.0,386.5,34.0,385.5,34.5,389.5,33.0,391.5,35.0,395.5,35.5,399.5,41.0,403.5,43.0,406.5,47.0,410.5,50.0,413.5,58.0,417.5,64.5,421.5,66.5,426.5,71.5,427.5,75.5,428.5,79.5,432.5,82.5,433.5,86.5,434.5,90.5" stroke="black" stroke-width="1" fill="none" />
<polyline points="432.5,104.0,432.0,98.0,425.5,93.0,421.5,88.0,417.5,87.0" stroke="black" stroke-width="1" fill="none" />
<polyline points="417.5,87.0,420.5,91.0" stroke="black" stroke-width="1" fill="none" />
<polyline points="415.5,91.5,417.5,92.5,416.5,93.5,420.0,97.5,421.5,101.5,425.0,106.0" stroke="black" stroke-width="1" fill="none" />
<polyline points="425.0,110.5,426.5,114.5,429.0,118.5,432.0,122.5,435.0,126.5,437.0,130.5,436.5,134.5,438.0,138.5,440.0,142.5,441.5,146.5,443.0,150.5,443.5,154.5,444.5,158.5,445.0,162.5,444.5,166.5,443.0,167.0,446.5,171.0,444.0,173.0,445.5,175.0,448.0,179.0,448.5,183.0,449.0,187.0,448.5,191.0,447.0,193.0,449.0,197.0,449.5,201.0,449.0,205.0,452.5,206.0,452.5,210.0,453.0,214.0,453.5,218.0,454.5,222.0,454.5,226.0,454.5,230.0,453.5,234.0,452.0,238.0,454.0,241.0,455.0,245.0,455.0,249.0,455.0,253.0,454.5,257.0,453.5,260.5,453.5,264.5,453.5,268.5,454.0,272.5,450.5,276.5,448.0,276.5,447.0,280.5,447.0,284.5" stroke="black" stroke-width="1" fill="none" />
<polyline points="444.5,288.5,443.0,292.5,442.0,296.5,441.0,300.5,440.5,304.5" stroke="black" stroke-width="1" fill="none" />
<polyline points="436.5,311.5,436.5,315.5,436.5,319.5" stroke="black" stroke-width="1" fill="none" />
<polyline points="435.0,310.5,435.0,314.5,435.0,318.5,435.5,322.5,435.5,326.5,436.0,330.5,437.0,336.5,437.0,340.5,437.5,344.5,438.0,348.5,438.5,352.5,438.5,356.5,439.0,360.5" stroke="black" stroke-width="1" fill="none" />
<polyline points="447.5,360.5,446.0,364.5,448.0,365.0,450.5,369.0,452.5,373.0,454.0,377.0,455.5,381.0,455.5,385.0,456.5,389.0,457.0,393.0,458.0,397.0,457.0,401.0,460.0,402.0,460.0,406.0,461.0,403.5" stroke="black" stroke-width="1" fill="none" />
<polyline points="471.0,402.5,475.0,399.0" stroke="black" stroke-width="1" fill="none" />
<polyline points="477.0,397.5,475.0,393.5,472.0,392.5,473.0,391.0,476.0,387.0,472.5,383.5,472.0,379.5,467.0,379.5" stroke="black" stroke-width="1" fill="none" />
<polyline points="471.5,391.5,474.0,396.0,473.5,400.0,471.5,404.0,471.0,404.5,475.0,407.5" stroke="black" stroke-width="1" fill="none" />
<polyline points="476.0,406.5,473.0,402.5" stroke="black" stroke-width="1" fill="none" />
<polyline points="461.5,393.0,463.5,390.5,462.0,388.0,458.0,390.0" stroke="black" stroke-width="1" fill="none" />
<polyline points="451.0,384.0,452.5,388.0,453.0,392.0,453.0,396.0,454.0,400.0,453.5,404.0,453.0,408.0,457.5,400.0" stroke="black" stroke-width="1" fill="none" />
<polyline points="454.5,406.0,455.0,401.5,455.0,397.5,454.5,393.5,451.0,384.0" stroke="black" stroke-width="1" fill="none" />
<polyline points="450.0,383.5,451.0,387.5,450.0,391.5,454.0,391.5" stroke="black" stroke-width="1" fill="none" />
<polyline points="458.5,380.0,455.5,372.5,454.5,367.0,448.5,366.0" stroke="black" stroke-width="1" fill="none" />
<polyline points="453.0,364.0,455.0,368.0,455.0,371.5,457.0,375.5,457.5,379.5,459.0,384.0,460.5,385.0,458.5,389.5,461.0,392.0,462.0,398.0,463.0,398.5" stroke="black" stroke-width="1" fill="none" />
<polyline points="471.0,378.5,468.0,376.0,464.0,373.0,459.5,370.5,457.0,367.5,453.0,364.0" stroke="black" stroke-width="1" fill="none" />
<polyline points="454.0,364.5,457.5,368.5,460.5,371.5,461.0,375.5,462.0,379.5,465.5,384.0" stroke="black" stroke-width="1" fill="none" />
<polyline points="463.0,370.0,459.0,367.0,455.0,363.0,451.0,359.0" stroke="black" stroke-width="1" fill="none" />
<polyline points="448.5,354.5,452.5,358.0,456.5,362.0,459.5,362.0,460.5,365.5,464.5,368.5,468.5,372.0,472.5,375.5,476.5,378.5,480.5,381.5,484.5,387.5" stroke="black" stroke-width="1" fill="none" />
<polyline points="479.0,367.5,475.0,360.0" stroke="black" stroke-width="1" fill="none" />
<polyline points="466.0,342.5,462.5,341.0,458.5,337.5" stroke="black" stroke-width="1" fill="none" />
<polyline points="456.0,340.0,457.0,344.0,461.0,348.0,463.5,352.0" stroke="black" stroke-width="1" fill="none" />
<polyline points="464.0,352.0,460.0,346.0,456.0,341.5" stroke="black" stroke-width="1" fill="none" />
<polyline points="449.5,344.5,452.5,348.5,454.5,352.5,453.0,359.0,457.0,363.0,461.5,367.0,467.0,371.0,469.5,375.0,476.5,379.0,481.0,383.0,484.0,387.0,484.5,391.0" stroke="black" stroke-width="1" fill="none" />
<polyline points="448.0,396.0,446.0,391.0,447.5,388.0,446.5,384.0,446.0,380.0" stroke="black" stroke-width="1" fill="none" />
<polyline points="445.0,380.0,445.0,381.0,445.0,385.0,444.5,389.0,444.5,393.0,444.5,397.0,444.5,401.0" stroke="black" stroke-width="1" fill="none" />
<polyline points="411.0,401.5,409.0,405.5,407.0,408.0,411.0,401.5" stroke="black" stroke-width="1" fill="none" />
<polyline points="398.0,392.5,394.0,401.0,390.0,408.5,391.5,405.0,394.0,401.0,395.5,397.0,397.5,393.0,400.5,389.0" stroke="black" stroke-width="1" fill="none" />
<polyline points="397.5,390.0,395.5,394.0,393.0,398.0,396.0,392.5" stroke="black" stroke-width="1" fill="none" />
<polyline points="390.0,384.5,394.0,380.5,390.5,384.0,386.5,386.0,386.5,392.5,385.0,396.5,383.5,400.5,385.0,396.5" stroke="black" stroke-width="1" fill="none" />
<polyline points="387.0,399.0,385.5,403.0" stroke="black" stroke-width="1" fill="none" />
<polyline points="373.0,403.0,377.0,396.5,374.5,400.0,373.0,404.0,371.5,408.0" stroke="black" stroke-width="1" fill="none" />
<polyline points="367.5,401.0,363.5,406.0,366.0,403.5,367.5,399.5" stroke="black" stroke-width="1" fill="none" />
<polyline points="367.5,388.5,365.5,394.5,367.0,390.5,368.5,386.5,370.0,382.5,371.0,378.5,372.0,374.5,373.0,370.5,374.5,366.5,376.0,362.5,376.5,358.5,378.0,354.5,379.0,350.5,380.0,346.5,381.0,342.5,380.5,343.0" stroke="black" stroke-width="1" fill="none" />
<polyline points="386.5,349.0,387.5,345.0,388.5,341.0,389.0,337.0" stroke="black" stroke-width="1" fill="none" />
<polyline points="407.0,334.5,403.0,342.0,399.0,348.5,395.0,355.5,391.0,361.5,387.0,367.0,384.0,374.0,379.5,378.0,375.5,384.5,373.0,385.0,374.5,381.0,373.5,383.5,375.5,384.5,378.0,380.5,381.0,377.0,384.5,373.0,387.0,369.0,391.0,365.0,393.0,361.0,396.0,357.0,398.5,353.0,401.0,349.0,403.0,345.5,399.0,352.0,395.0,358.0,391.0,364.0,387.0,369.0" stroke="black" stroke-width="1" fill="none" />
<polyline points="379.0,372.0,381.0,368.0,382.5,364.0,383.5,360.0" stroke="black" stroke-width="1" fill="none" />
<polyline points="390.5,357.0,388.5,361.0,386.5,365.0,384.0,369.0" stroke="black" stroke-width="1" fill="none" />
<polyline points="403.0,373.0,399.0,382.5,400.0,381.5,401.5,377.5,403.0,373.5,404.5,369.5,405.5,365.5,406.5,361.5" stroke="black" stroke-width="1" fill="none" />
<polyline points="410.0,348.5,409.5,352.5,409.0,356.5,408.5,360.5,407.0,364.5,406.0,368.5,405.0,372.5,404.0,376.5" stroke="black" stroke-width="1" fill="none" />
<polyline points="364.5,367.5,365.0,363.5,365.5,359.5,367.0,355.5" stroke="black" stroke-width="1" fill="none" />
<polyline points="354.0,360.0,353.0,364.0,352.5,368.0,351.0,372.0" stroke="black" stroke-width="1" fill="none" />
<polyline points="351.5,378.0,351.0,382.0,351.0,386.0,350.0,390.0,348.5,394.0,347.5,398.0,346.5,402.0,344.5,406.0,345.0,404.0,352.0,397.5,356.0,392.0" stroke="black" stroke-width="1" fill="none" />
<polyline points="355.5,392.0,353.0,396.0,351.0,400.0,355.5,395.0" stroke="black" stroke-width="1" fill="none" />
<polyline points="356.5,392.5,355.0,396.5,353.0,400.5" stroke="black" stroke-width="1" fill="none" />
<polyline points="335.0,396.5,335.0,400.5,335.0,404.5,335.0,408.5" stroke="black" stroke-width="1" fill="none" />
<polyline points="332.0,402.5,329.5,408.0,331.5,404.0,333.0,400.0,334.0,396.0" stroke="black" stroke-width="1" fill="none" />
<polyline points="329.0,394.5,329.5,398.5,329.0,402.5,327.0,406.5,328.5,403.5" stroke="black" stroke-width="1" fill="none" />
<polyline points="360.5,383.5,360.0,384.5,361.5,380.5" stroke="black" stroke-width="1" fill="none" />
<polyline points="390.5,357.0,386.5,365.0,386.0,368.5,388.5,364.5,391.5,360.5,394.0,356.5,397.0,352.5,399.0,348.5,402.0,344.5,404.0,340.5,406.0,336.5,408.0,332.5" stroke="black" stroke-width="1" fill="none" />
<polyline points="416.5,332.5,412.5,339.5,408.0,344.0,404.0,350.0,400.0,356.5,396.0,361.5,392.0,367.0,388.0,372.0,387.5,372.5,390.5,368.5,393.5,364.5,397.0,360.5,400.0,359.0,403.0,355.0,405.5,351.0,409.0,347.0,412.0,343.0,415.5,339.0,418.5,335.0,420.5,334.0" stroke="black" stroke-width="1" fill="none" />
<polyline points="421.5,323.0,425.5,316.0" stroke="black" stroke-width="1" fill="none" />
<polyline points="411.0,319.5,411.0,315.5,411.0,311.5" stroke="black" stroke-width="1" fill="none" />
<polyline points="399.0,304.5,399.0,308.5,399.0,312.5,399.5,316.5,401.0,320.5,401.5,324.5" stroke="black" stroke-width="1" fill="none" />
<polyline points="426.0,315.5,428.5,311.5,428.5,307.5,428.5,303.5,428.5,299.5" stroke="black" stroke-width="1" fill="none" />
<polyline points="428.0,298.5,426.5,302.5,427.0,306.5,424.5,312.0,423.0,316.0,423.0,320.0,419.5,326.5,417.5,330.5,415.5,334.5,413.5,338.5,410.5,342.5,407.5,344.5,405.0,348.5,403.0,352.5,400.0,356.5,395.0,360.5,396.0,359.5,401.0,357.5,405.0,351.5,409.0,347.0,413.0,341.5,417.0,336.5,421.0,334.0" stroke="black" stroke-width="1" fill="none" />
<polyline points="439.5,344.5,439.5,348.5" stroke="black" stroke-width="1" fill="none" />
<polyline points="443.0,352.0,442.5,348.0,442.0,344.0,441.5,340.0" stroke="black" stroke-width="1" fill="none" />
<polyline points="448.5,344.5,452.5,348.0" stroke="black" stroke-width="1" fill="none" />
<polyline points="449.0,353.5,449.0,357.5,451.0,358.0,454.0,362.0,457.5,366.0,462.5,370.0,464.0,373.5,466.5,377.5,469.5,382.0,471.0,383.5,476.5,384.0" stroke="black" stroke-width="1" fill="none" />
<polyline points="475.0,365.0,472.5,362.0,469.5,361.0,469.0,357.0,466.5,352.5,464.5,348.5,464.0,344.5,461.0,340.5,458.5,336.0,461.0,331.0,459.5,327.0,458.0,323.0,456.5,319.0" stroke="black" stroke-width="1" fill="none" />
<polyline points="460.0,312.0,460.5,316.0,461.0,320.0,461.0,324.0,462.5,328.0,463.5,332.0" stroke="black" stroke-width="1" fill="none" />
<polyline points="458.0,322.5,455.0,316.5,451.0,321.5,448.5,322.5,451.5,315.5,454.0,311.5" stroke="black" stroke-width="1" fill="none" />
<polyline points="448.5,310.0,449.0,306.0" stroke="black" stroke-width="1" fill="none" />
<polyline points="449.0,305.0,446.5,309.0,445.5,313.0,447.0,315.0,451.0,311.5,453.0,308.5" stroke="black" stroke-width="1" fill="none" />
<polyline points="452.5,298.5,454.0,296.5,453.5,295.0" stroke="black" stroke-width="1" fill="none" />
<polyline points="463.0,296.5,462.5,300.5,462.5,304.5,463.5,308.5,464.0,312.5,464.5,316.5,465.5,320.5,465.5,324.5,466.0,328.5" stroke="black" stroke-width="1" fill="none" />
<polyline points="463.5,299.5,464.0,303.5,465.0,307.5,465.5,311.5,466.0,315.5,466.5,319.5,467.0,323.5,467.5,327.5,468.5,331.5,468.5,335.5,468.5,339.5,469.0,343.5,469.0,347.5,469.5,351.5,472.5,353.0,474.0,357.0,475.0,361.0,477.0,365.0,478.0,369.0,480.0,373.0,480.5,377.0" stroke="black" stroke-width="1" fill="none" />
<polyline points="416.5,302.0,416.5,298.0,416.5,294.0" stroke="black" stroke-width="1" fill="none" />
<polyline points="426.0,283.5,427.5,279.5" stroke="black" stroke-width="1" fill="none" />
<polyline points="441.0,285.0,440.5,289.0,440.0,293.0,438.0,297.0,437.0,301.0" stroke="black" stroke-width="1" fill="none" />
<polyline points="458.0,288.0,454.0,285.5,451.5,286.0,452.5,282.0,453.0,278.0,453.5,274.0" stroke="black" stroke-width="1" fill="none" />
<polyline points="455.0,264.5,455.0,268.5,455.0,272.5,454.5,276.5,454.0,280.5,454.0,284.5,453.0,288.5,452.5,292.5,451.5,296.5,453.0,300.5,454.5,304.5,452.0,308.5,449.5,313.5,447.5,317.5,448.5,318.5,448.0,319.5,447.0,323.5,445.5,327.5,447.5,324.0,451.5,315.5,453.0,310.0" stroke="black" stroke-width="1" fill="none" />
<polyline points="439.0,294.5,436.0,297.5,436.5,293.5,436.0,289.5,436.5,285.5,436.5,281.5,437.0,277.5,437.5,273.5,438.5,269.5,441.5,267.5,442.0,263.5" stroke="black" stroke-width="1" fill="none" />
<polyline points="444.0,262.0,444.5,266.0,445.5,270.0,445.5,274.0" stroke="black" stroke-width="1" fill="none" />
<polyline points="457.5,275.5,451.5,277.5,449.0,271.0,450.5,270.5,449.0,266.0,448.5,262.0" stroke="black" stroke-width="1" fill="none" />
<polyline points="459.0,260.5,459.5,264.5,459.5,268.5,460.0,272.5,460.0,276.5,460.5,280.5,459.0,282.5" stroke="black" stroke-width="1" fill="none" />
<polyline points="430.0,273.0,431.0,269.0,431.0,265.0,431.0,261.0,431.0,257.0" stroke="black" stroke-width="1" fill="none" />
<polyline points="435.0,252.0,435.0,256.0,435.0,260.0,434.5,264.0" stroke="black" stroke-width="1" fill="none" />
<polyline points="436.0,252.5,436.5,256.5,436.5,260.5,436.0,264.5,435.5,268.5,434.5,272.5,434.5,276.5,434.5,280.5,434.5,284.5,434.5,288.5,434.5,292.5,435.0,296.5,436.5,299.0,434.5,305.0,432.0,306.0,429.5,310.0,436.5,302.0" stroke="black" stroke-width="1" fill="none" />
<polyline points="397.0,310.0,397.0,306.0,396.5,302.0,396.0,298.0,395.5,294.0,395.0,290.0,395.5,286.0" stroke="black" stroke-width="1" fill="none" />
<polyline points="392.0,273.0,391.0,269.0,390.0,265.0,388.0,263.0" stroke="black" stroke-width="1" fill="none" />
<polyline points="388.0,263.0,389.0,267.0,390.0,271.0,391.0,275.0,391.5,279.0,391.5,283.0,392.5,287.0,392.5,291.0,393.0,295.0,392.5,299.0,393.0,303.0" stroke="black" stroke-width="1" fill="none" />
<polyline points="394.0,274.5,393.0,270.5,393.0,266.5" stroke="black" stroke-width="1" fill="none" />
<polyline points="412.5,258.0,412.0,262.0,411.5,266.0,411.5,270.0,411.5,274.0,411.0,278.0,411.0,282.0,410.5,286.0,410.5,290.0,410.5,294.0,410.5,298.0,410.5,302.0,411.0,306.0,411.0,310.0,412.5,314.5,413.5,318.5" stroke="black" stroke-width="1" fill="none" />
<polyline points="428.0,263.5,428.0,259.5,428.0,255.5,428.0,251.5,427.5,247.5" stroke="black" stroke-width="1" fill="none" />
<polyline points="416.0,238.5,416.5,242.5,417.0,246.5,417.5,250.5,417.5,254.5,417.5,260.0,417.0,264.0,417.0,268.0,416.5,272.0,416.5,276.0,416.0,282.0,415.5,286.0" stroke="black" stroke-width="1" fill="none" />
<polyline points="460.5,286.0,461.5,282.0,461.5,277.0,461.5,273.0,461.5,269.0,461.5,265.0,461.5,261.0,461.5,257.0,461.0,253.0,461.5,249.0,461.5,245.0,460.5,243.5,460.0,239.5" stroke="black" stroke-width="1" fill="none" />
<polyline points="458.5,237.5,459.0,241.5,458.5,245.5,457.5,249.5,458.0,253.5,458.0,257.5,457.5,261.5,458.0,265.5,457.0,271.0,457.0,275.0,457.5,279.0,457.0,283.0,459.0,283.0,459.5,286.5,458.5,288.5,459.0,291.0,459.0,295.0,457.0,299.0,456.5,303.0,457.0,307.0,456.0,311.0,454.5,315.0,452.5,319.0,450.0,323.0,448.5,327.0,449.5,331.0" stroke="black" stroke-width="1" fill="none" />
<polyline points="459.5,250.5,459.0,246.5" stroke="black" stroke-width="1" fill="none" />
<polyline points="455.5,237.5,455.0,233.5" stroke="black" stroke-width="1" fill="none" />
<polyline points="449.0,230.5,445.0,234.0,446.5,232.5,447.0,228.5,446.0,224.5,447.0,221.5,448.0,217.5,446.5,213.5,444.0,210.0" stroke="black" stroke-width="1" fill="none" />
<polyline points="448.5,213.0,448.5,215.0,450.0,216.0,450.5,212.0,451.0,208.0,451.5,204.0,451.5,198.5,450.5,194.5,445.5,190.0" stroke="black" stroke-width="1" fill="none" />
<polyline points="443.0,194.0,442.5,198.0,442.5,202.0,442.5,206.0,442.5,210.0,442.0,214.0" stroke="black" stroke-width="1" fill="none" />
<polyline points="451.5,214.0,451.0,218.0,449.5,222.0,452.0,220.0" stroke="black" stroke-width="1" fill="none" />
<polyline points="459.5,214.5,460.0,218.5,460.5,222.5,461.0,226.5,461.5,230.5,462.0,234.5,462.5,238.5,463.0,242.5,463.0,246.5,463.0,250.5,463.0,254.5,463.0,258.5,463.0,262.5,463.0,266.5,463.0,270.5,463.0,274.5,463.0,278.5,463.0,282.5,462.5,286.5,462.5,290.5,462.5,294.5,461.0,298.5,460.0,302.5,460.0,306.5,459.0,310.5,457.5,314.5,455.5,317.0,455.0,321.0,454.5,325.0,457.0,325.0" stroke="black" stroke-width="1" fill="none" />
<polyline points="415.0,242.0,414.5,238.0" stroke="black" stroke-width="1" fill="none" />
<polyline points="421.5,228.0,422.0,232.0,422.5,236.0,423.0,240.0,423.5,244.0,424.5,248.0,425.5,252.0" stroke="black" stroke-width="1" fill="none" />
<polyline points="436.5,231.5,437.0,235.5,439.0,239.5,440.5,243.5,442.5,247.5,443.0,251.5,444.5,255.5,445.5,259.5,446.5,263.5,446.5,267.5,447.0,271.5,447.5,275.5,448.0,280.5,448.5,284.5" stroke="black" stroke-width="1" fill="none" />
<polyline points="391.0,245.0,390.0,241.0,389.5,237.0" stroke="black" stroke-width="1" fill="none" />
<polyline points="383.0,224.0,381.0,228.0,379.0,232.0,377.0,236.0,374.5,240.0,371.0,244.0,369.5,248.0,367.5,252.0,367.0,256.0,366.5,260.0,365.5,264.0,365.0,268.0,364.5,272.0,363.5,276.0,362.5,280.0,360.5,284.0,359.0,288.0,357.5,292.0,355.0,296.0,352.5,300.0,349.0,304.0,345.0,308.0,340.0,312.0,335.0,316.0,328.0,319.0,332.0,316.5,336.0,315.0,340.0,312.0,344.0,309.5,348.0,305.0,352.0,301.5,356.0,295.0" stroke="black" stroke-width="1" fill="none" />
<polyline points="335.0,317.0,334.5,321.0,334.5,325.0,334.0,329.0,333.5,333.0,333.0,337.0,333.0,341.0,332.5,345.0,332.0,349.0,331.5,353.0,331.5,357.0,331.0,361.0,331.0,365.0,331.0,369.0,331.0,373.0,331.0,377.0,331.0,381.0,332.0,385.0,332.5,389.0,333.0,393.0,332.5,397.0,331.0,401.0" stroke="black" stroke-width="1" fill="none" />
<polyline points="284.5,282.0,280.5,282.5,276.5,282.5,272.5,282.5,268.5,282.0,264.5,282.0" stroke="black" stroke-width="1" fill="none" />
<polyline points="251.5,267.5,253.0,267.5,252.5,266.0,257.0,261.5" stroke="black" stroke-width="1" fill="none" />
<polyline points="259.5,246.5,263.5,247.0,267.5,248.0" stroke="black" stroke-width="1" fill="none" />
<polyline points="274.0,245.5,278.0,245.0" stroke="black" stroke-width="1" fill="none" />
<polyline points="284.0,220.5,284.0,218.5,288.0,216.0,292.0,218.0,292.5,219.5" stroke="black" stroke-width="1" fill="none" />
<polyline points="289.5,222.5,285.5,219.0" stroke="black" stroke-width="1" fill="none" />
<polyline points="287.5,221.5,282.5,220.0,287.0,216.0" stroke="black" stroke-width="1" fill="none" />
<polyline points="267.5,218.5,263.5,222.5,263.5,222.5,267.0,218.5,266.5,216.0" stroke="black" stroke-width="1" fill="none" />
<polyline points="264.0,215.5,261.0,219.5,262.5,216.0,266.5,215.5,270.5,219.0" stroke="black" stroke-width="1" fill="none" />
<polyline points="237.0,259.5,233.0,263.5,234.0,263.5" stroke="black" stroke-width="1" fill="none" />
<polyline points="233.0,265.0,237.0,265.5,241.0,266.0,245.0,266.0,249.0,265.0,253.0,263.5,257.0,261.5,261.0,261.0,265.0,260.5,269.0,260.5,273.0,261.0,277.0,261.0,281.0,261.0,285.0,260.5,289.0,260.5,293.0,260.0,297.0,261.0,301.0,264.0,299.0,265.0,302.5,269.0" stroke="black" stroke-width="1" fill="none" />
<polyline points="302.0,264.0,306.0,263.0,310.0,263.0" stroke="black" stroke-width="1" fill="none" />
<polyline points="313.5,260.0,317.5,261.0" stroke="black" stroke-width="1" fill="none" />
<polyline points="317.5,263.0,313.5,265.0,309.5,265.0,305.5,264.5" stroke="black" stroke-width="1" fill="none" />
<polyline points="367.0,252.5,371.0,244.0,375.0,239.5,379.0,232.0,383.0,224.0" stroke="black" stroke-width="1" fill="none" />
<polyline points="378.0,223.5,376.5,219.5,377.0,215.5,376.5,211.5" stroke="black" stroke-width="1" fill="none" />
<polyline points="378.5,217.5,378.5,213.5,378.5,209.5,379.0,205.5" stroke="black" stroke-width="1" fill="none" />
<polyline points="382.5,209.0,383.0,213.0,383.0,217.0,382.5,221.0,379.5,225.0,376.0,227.5,373.0,230.0,376.0,226.5,380.0,224.0" stroke="black" stroke-width="1" fill="none" />
<polyline points="399.0,215.5,398.5,216.5,401.5,212.5" stroke="black" stroke-width="1" fill="none" />
<polyline points="415.0,218.5,417.0,222.5,419.5,226.5,420.5,230.5,420.5,234.5,421.0,238.5,421.5,242.5,422.5,246.5,422.5,250.5,423.0,254.5,423.0,258.5,423.5,262.5" stroke="black" stroke-width="1" fill="none" />
<polyline points="424.5,215.0,422.5,211.0,421.0,207.0,420.0,203.0,418.0,199.0" stroke="black" stroke-width="1" fill="none" />
<polyline points="417.0,197.5,413.0,188.0,409.0,182.0,405.0,177.5" stroke="black" stroke-width="1" fill="none" />
<polyline points="405.0,177.5,408.5,181.5,411.0,185.5,413.5,189.5,415.0,193.5,417.0,197.5,417.0,201.5" stroke="black" stroke-width="1" fill="none" />
<polyline points="418.5,194.5,420.0,198.5,422.0,202.5,423.0,206.5,424.0,210.5" stroke="black" stroke-width="1" fill="none" />
<polyline points="442.5,185.5,441.5,181.5,441.5,181.0" stroke="black" stroke-width="1" fill="none" />
<polyline points="452.5,178.5,454.0,182.5" stroke="black" stroke-width="1" fill="none" />
<polyline points="453.5,173.0,452.0,169.0,451.0,165.0,450.0,161.0,450.0,156.0,449.0,152.0,447.5,148.0,447.5,141.5" stroke="black" stroke-width="1" fill="none" />
<polyline points="451.0,149.0,452.5,155.0,457.0,161.5" stroke="black" stroke-width="1" fill="none" />
<polyline points="454.5,164.5,453.0,160.5" stroke="black" stroke-width="1" fill="none" />
<polyline points="447.0,167.0,441.5,159.5" stroke="black" stroke-width="1" fill="none" />
<polyline points="441.5,159.5,443.5,163.5,441.5,167.0,444.0,177.0" stroke="black" stroke-width="1" fill="none" />
<polyline points="453.5,180.5,446.5,176.0,444.0,169.5,438.0,162.0" stroke="black" stroke-width="1" fill="none" />
<polyline points="438.0,162.0,440.0,166.0,441.0,170.0,443.0,174.0,445.5,180.0,443.0,181.0,445.5,181.0,447.0,185.0,444.5,187.5,446.5,191.5,445.0,195.5,446.0,199.5,447.5,203.0,448.0,207.0,445.0,211.0,445.5,215.0,446.0,219.0,445.0,223.0,445.0,227.0,445.0,231.0,445.0,235.0,445.0,239.0,443.5,244.0,445.0,248.0" stroke="black" stroke-width="1" fill="none" />
<polyline points="459.5,202.5,459.5,198.5" stroke="black" stroke-width="1" fill="none" />
<polyline points="455.5,197.0,457.0,201.0,457.0,205.0,459.0,207.5,458.5,212.0,457.5,216.0,457.5,220.0,457.5,224.0,457.0,228.0,457.5,232.0,457.0,236.0,457.0,240.0" stroke="black" stroke-width="1" fill="none" />
<polyline points="426.0,175.0,422.0,169.5" stroke="black" stroke-width="1" fill="none" />
<polyline points="422.0,169.5,423.5,173.5,425.5,177.5,427.0,186.0" stroke="black" stroke-width="1" fill="none" />
<polyline points="425.5,171.0,421.5,166.5,417.5,163.5" stroke="black" stroke-width="1" fill="none" />
<polyline points="417.5,163.5,422.5,167.5,425.5,171.5,427.5,175.5,429.0,179.5,429.5,183.5,430.0,187.5,431.0,191.5,432.0,195.5" stroke="black" stroke-width="1" fill="none" />
<polyline points="424.0,174.0,418.5,173.0,414.5,171.0" stroke="black" stroke-width="1" fill="none" />
<polyline points="414.5,171.0,417.0,175.0,421.5,179.5,423.5,183.5,424.5,187.5,426.0,191.5,427.0,195.5" stroke="black" stroke-width="1" fill="none" />
<polyline points="423.0,182.0,420.5,175.5,416.5,171.5" stroke="black" stroke-width="1" fill="none" />
<polyline points="424.5,163.0,418.5,159.0,414.5,157.0" stroke="black" stroke-width="1" fill="none" />
<polyline points="414.5,157.0,422.5,160.0,424.5,164.0,426.5,168.0,424.5,172.5,426.5,176.5,424.5,180.5,426.0,184.5,427.5,188.5,428.5,192.5,429.5,196.5,430.5,200.5,431.5,204.5,432.5,208.5,433.5,212.5" stroke="black" stroke-width="1" fill="none" />
<polyline points="440.0,151.5,436.0,148.0" stroke="black" stroke-width="1" fill="none" />
<polyline points="435.5,151.0,438.5,155.0" stroke="black" stroke-width="1" fill="none" />
<polyline points="439.5,153.0,435.5,151.0" stroke="black" stroke-width="1" fill="none" />
<polyline points="443.0,143.5,440.5,137.5,436.5,133.5" stroke="black" stroke-width="1" fill="none" />
<polyline points="438.0,133.5,440.0,137.5,441.0,141.5,442.0,148.0,446.0,154.0" stroke="black" stroke-width="1" fill="none" />
<polyline points="445.0,133.0,441.0,123.0" stroke="black" stroke-width="1" fill="none" />
<polyline points="432.0,117.0,428.0,110.5" stroke="black" stroke-width="1" fill="none" />
<polyline points="428.0,110.5,430.0,114.5" stroke="black" stroke-width="1" fill="none" />
<polyline points="426.5,114.0,430.5,120.0,434.5,124.5,437.5,129.0,437.5,136.5,441.5,145.0" stroke="black" stroke-width="1" fill="none" />
<polyline points="430.0,143.0,426.0,139.5,422.0,138.5,418.0,138.0,414.0,137.5,410.0,136.5,406.0,136.0,402.0,134.0" stroke="black" stroke-width="1" fill="none" />
<polyline points="399.5,133.5,403.5,133.5,407.5,134.5,411.5,135.5,415.5,136.5,419.5,137.0,423.5,137.0,427.5,137.5,431.5,140.0,435.5,141.0" stroke="black" stroke-width="1" fill="none" />
<polyline points="429.5,143.0,423.5,139.0" stroke="black" stroke-width="1" fill="none" />
<polyline points="426.0,132.5,422.0,130.0,418.0,127.5,414.0,124.5" stroke="black" stroke-width="1" fill="none" />
<polyline points="414.0,124.5,419.0,128.5,425.5,132.5,429.0,138.5,434.5,141.5" stroke="black" stroke-width="1" fill="none" />
<polyline points="431.0,132.5,429.0,128.5" stroke="black" stroke-width="1" fill="none" />
<polyline points="433.0,120.5,429.0,115.0,425.0,110.5" stroke="black" stroke-width="1" fill="none" />
<polyline points="426.0,111.0,429.0,115.0,431.0,119.0" stroke="black" stroke-width="1" fill="none" />
<polyline points="430.0,109.5,426.0,104.5,422.0,97.0" stroke="black" stroke-width="1" fill="none" />
<polyline points="422.0,97.0,424.5,101.0,424.5,105.0" stroke="black" stroke-width="1" fill="none" />
<polyline points="425.5,97.5,425.0,93.0,422.5,89.0,423.0,85.5,421.5,81.5,419.0,81.0,417.0,77.0,416.0,73.0,412.5,72.0" stroke="black" stroke-width="1" fill="none" />
<polyline points="416.0,75.0,420.0,82.5" stroke="black" stroke-width="1" fill="none" />
<polyline points="427.0,82.0,427.0,79.0,426.0,75.0" stroke="black" stroke-width="1" fill="none" />
<polyline points="420.5,63.5,421.5,67.5,423.0,71.5,424.5,75.5,425.0,79.5,428.0,83.5,428.0,87.5,429.5,90.5,430.5,94.5,432.0,98.5,432.5,102.5,433.0,106.5,434.5,110.5,434.5,114.5,435.0,118.5,435.5,122.5,437.0,127.5,439.0,132.0,440.5,136.0,443.0,142.0,444.0,146.5,447.0,148.0,447.5,152.0,448.5,156.0,447.0,162.0,446.5,166.0,448.5,170.0,448.5,174.0,450.0,174.5,450.0,178.5,452.0,182.5,452.5,184.5,453.0,188.5,454.5,192.5,455.0,196.5,454.5,200.5,454.5,204.5,454.0,208.5,454.5,212.5,455.0,216.5,451.5,220.0,450.5,224.5,449.0,231.0,447.0,235.0,447.0,239.0,446.0,243.0,448.0,243.5,447.0,244.5,448.0,251.0,447.0,255.0,445.5,259.5" stroke="black" stroke-width="1" fill="none" />
<polyline points="418.5,153.0,414.5,149.5" stroke="black" stroke-width="1" fill="none" />
<polyline points="414.5,149.5,418.5,153.5" stroke="black" stroke-width="1" fill="none" />
<polyline points="419.0,115.5,415.0,111.5,411.0,107.0" stroke="black" stroke-width="1" fill="none" />
<polyline points="411.0,107.0,414.5,111.0,418.0,115.0,422.0,119.0" stroke="black" stroke-width="1" fill="none" />
<polyline points="432.5,115.5,430.0,111.5,428.0,107.5,426.0,105.0,426.0,98.5,427.5,93.5,427.0,89.5,429.0,85.5,425.5,84.5,423.5,80.5,421.0,79.5,421.0,75.5,419.0,71.5,417.0,67.5,417.0,63.5,414.5,59.5,412.5,55.5,411.0,51.5,407.5,48.5" stroke="black" stroke-width="1" fill="none" />
<polyline points="404.5,50.5,408.5,48.0,412.5,49.5,415.5,53.5" stroke="black" stroke-width="1" fill="none" />
<polyline points="413.0,52.0,412.5,48.5,408.5,43.0,404.5,39.0,400.5,37.0" stroke="black" stroke-width="1" fill="none" />
<polyline points="400.5,37.0,404.5,41.0,411.0,43.0,415.0,48.5" stroke="black" stroke-width="1" fill="none" />
<polyline points="410.5,39.0,414.0,43.0,416.5,47.0,418.0,51.0,420.5,55.0,422.5,59.0,424.5,63.0,427.0,67.0,429.0,71.0,430.0,75.0,431.0,79.0,429.5,83.0,431.0,84.5,431.5,87.0,432.5,91.0,433.5,95.0,434.5,99.0,434.5,103.5,437.0,108.0,438.0,112.0,438.5,116.0,440.5,120.0,441.5,124.0,443.0,128.0,444.5,132.0,446.0,136.0,447.0,140.0,449.0,144.0,450.5,148.0,452.5,152.0,454.5,155.5,456.0,159.5" stroke="black" stroke-width="1" fill="none" />
<polyline points="362.5,138.5,359.5,134.5,358.0,130.5,354.5,126.5,351.0,122.5,346.5,118.5,343.5,118.0" stroke="black" stroke-width="1" fill="none" />
<polyline points="345.0,126.5,349.0,127.0,354.5,131.0,358.0,135.0,360.5,139.0" stroke="black" stroke-width="1" fill="none" />
<polyline points="351.0,160.5,349.5,156.5,350.5,154.0,349.5,155.0,345.5,154.5,341.5,152.5,337.5,151.0,333.5,150.5,329.5,149.5,325.5,150.0,321.5,151.0,317.5,152.5,313.5,154.5,309.5,157.0,305.5,159.0,301.5,161.5,300.0,164.5,299.0,163.5,302.5,161.0,309.0,157.0,315.5,153.0,314.5,156.0" stroke="black" stroke-width="1" fill="none" />
<polyline points="315.5,157.5,315.0,161.5,319.0,165.5" stroke="black" stroke-width="1" fill="none" />
<polyline points="319.0,170.0,323.0,170.5" stroke="black" stroke-width="1" fill="none" />
<polyline points="325.5,159.0,321.5,158.5" stroke="black" stroke-width="1" fill="none" />
<polyline points="320.5,157.0,324.5,156.0" stroke="black" stroke-width="1" fill="none" />
<polyline points="320.0,153.0,324.0,152.5,328.0,152.5,332.0,153.0,335.5,155.0" stroke="black" stroke-width="1" fill="none" />
<polyline points="334.5,157.5,338.5,158.5" stroke="black" stroke-width="1" fill="none" />
<polyline points="341.0,152.5,346.5,156.5,352.0,159.5,353.0,161.0,357.0,159.5,361.0,159.0" stroke="black" stroke-width="1" fill="none" />
<polyline points="344.5,165.5,338.5,167.5,334.5,169.0,330.5,169.0,327.5,171.0,322.5,168.5,318.5,170.0,315.0,168.5,314.5,165.5,310.5,165.0,306.5,165.0" stroke="black" stroke-width="1" fill="none" />
<polyline points="301.0,164.5,305.0,164.5,309.0,161.0,313.0,158.5,313.0,158.5,306.0,162.5,308.0,164.0,312.0,163.5,316.0,164.0,320.0,165.5,324.0,167.0,328.0,167.5,332.0,163.0,331.5,161.5,329.5,165.5,331.5,167.0,335.0,166.5,339.0,165.0,340.5,162.5,341.5,166.0,343.0,168.0" stroke="black" stroke-width="1" fill="none" />
<polyline points="327.0,163.0,329.0,159.0,325.5,164.0,321.5,163.5,320.5,161.5,321.0,157.5,316.5,158.5" stroke="black" stroke-width="1" fill="none" />
<polyline points="318.0,145.0,312.0,149.0,307.5,153.0,306.5,154.5,310.5,150.0,314.5,147.0,318.5,145.0,322.5,144.0,326.5,142.0,330.5,142.0,335.0,144.0,339.0,145.0" stroke="black" stroke-width="1" fill="none" />
<polyline points="330.0,152.0,334.5,157.5,334.5,161.5,333.0,165.5,333.0,170.5,337.0,170.5,341.0,169.0,345.0,168.5,349.0,170.0,350.5,165.5,354.5,165.0,358.5,165.5,359.0,163.0" stroke="black" stroke-width="1" fill="none" />
<polyline points="341.0,144.5,337.0,143.0,333.0,143.5,329.0,143.0,322.5,142.5,318.5,143.5,314.5,145.0,310.5,148.5,306.5,151.0,312.0,147.5,318.5,143.5" stroke="black" stroke-width="1" fill="none" />
<polyline points="313.0,131.0,309.0,132.0,304.5,132.5,307.5,129.0" stroke="black" stroke-width="1" fill="none" />
<polyline points="310.0,123.0,304.5,127.0,302.0,131.0,301.0,132.0,305.0,126.5,309.0,123.5,313.0,122.5,317.0,118.5,317.0,120.5" stroke="black" stroke-width="1" fill="none" />
<polyline points="315.0,123.5,319.0,122.0,323.0,120.5,327.0,118.5" stroke="black" stroke-width="1" fill="none" />
<polyline points="325.5,118.5,326.5,120.5,330.5,119.5,333.0,117.0,337.0,117.0,341.0,117.0,345.0,117.0,349.0,120.0,353.0,124.0,357.0,128.5,359.5,136.5" stroke="black" stroke-width="1" fill="none" />
<polyline points="360.5,135.0,356.5,132.0,352.5,129.0,349.0,125.0,345.0,125.0,341.0,125.0,337.0,125.5,333.0,126.5,329.0,127.0,325.0,129.0,321.0,130.5,317.0,132.5,321.5,130.0,331.0,126.0" stroke="black" stroke-width="1" fill="none" />
<polyline points="299.0,126.5,298.5,130.5" stroke="black" stroke-width="1" fill="none" />
<polyline points="247.5,123.0,242.5,123.5,238.5,121.0,233.5,120.5,229.5,119.0" stroke="black" stroke-width="1" fill="none" />
<polyline points="233.0,118.5,237.0,120.5" stroke="black" stroke-width="1" fill="none" />
<polyline points="235.0,116.5,235.5,119.5,242.0,123.5" stroke="black" stroke-width="1" fill="none" />
<polyline points="247.5,121.0,251.0,125.0,249.0,128.5,249.5,132.5" stroke="black" stroke-width="1" fill="none" />
<polyline points="251.0,124.5,247.0,120.5,243.0,120.5,239.0,119.0,235.0,116.5,231.0,118.0,227.0,115.5" stroke="black" stroke-width="1" fill="none" />
<polyline points="216.5,123.5,220.5,124.5,221.5,127.5" stroke="black" stroke-width="1" fill="none" />
<polyline points="217.0,118.5,213.0,118.5" stroke="black" stroke-width="1" fill="none" />
<polyline points="209.5,118.0,213.5,117.0,217.5,117.0,221.5,118.0,225.5,118.0,231.5,120.5,236.5,127.0,240.0,129.5,247.0,133.0" stroke="black" stroke-width="1" fill="none" />
<polyline points="244.5,147.5,241.0,147.0,234.0,143.0" stroke="black" stroke-width="1" fill="none" />
<polyline points="231.0,143.5,239.0,147.5,244.0,151.5" stroke="black" stroke-width="1" fill="none" />
<polyline points="242.5,160.5,238.5,158.0,234.5,155.5,230.0,155.0,226.0,160.5,222.0,161.5,221.0,161.5,218.0,157.5,216.5,156.0" stroke="black" stroke-width="1" fill="none" />
<polyline points="216.5,158.0,217.0,162.0,219.0,163.5" stroke="black" stroke-width="1" fill="none" />
<polyline points="213.5,160.5,217.5,165.0,221.5,165.0,225.5,164.0,229.5,163.5,233.5,163.0,237.5,162.0,241.5,162.0" stroke="black" stroke-width="1" fill="none" />
<polyline points="248.0,162.5,244.0,163.0,240.0,164.5,236.0,164.5,232.0,165.0,230.0,167.5,226.0,168.5,222.0,169.5,220.5,167.0,214.5,166.0,210.5,165.0,208.0,164.5,206.0,166.5,203.0,164.0,199.0,164.5,197.5,166.5,201.5,166.0,203.0,162.0,206.0,158.0,212.5,155.0,208.5,156.5,204.5,159.0" stroke="black" stroke-width="1" fill="none" />
<polyline points="204.5,161.5,207.0,165.5,203.5,167.5,209.0,169.0,213.5,168.5,217.5,169.0" stroke="black" stroke-width="1" fill="none" />
<polyline points="221.0,155.5,221.0,154.0,225.0,153.0" stroke="black" stroke-width="1" fill="none" />
<polyline points="228.0,148.5,236.0,152.5,241.5,156.5,249.0,159.0" stroke="black" stroke-width="1" fill="none" />
<polyline points="248.0,157.5,244.0,157.5,240.0,155.0,236.0,152.0,232.0,150.0,228.0,148.5,224.0,147.0,220.0,146.5,216.0,146.5,212.0,147.5,208.0,149.0,204.0,151.0,200.0,153.5,196.0,157.0,192.0,156.5" stroke="black" stroke-width="1" fill="none" />
<polyline points="189.5,158.5,193.5,162.5,196.5,166.0,196.0,170.0" stroke="black" stroke-width="1" fill="none" />
<polyline points="191.5,162.5,189.5,163.5,185.5,163.0" stroke="black" stroke-width="1" fill="none" />
<polyline points="182.5,161.5,186.5,162.0,186.5,160.5,190.5,158.5,191.5,160.0,195.5,162.0" stroke="black" stroke-width="1" fill="none" />
<polyline points="188.0,161.5,187.0,157.5" stroke="black" stroke-width="1" fill="none" />
<polyline points="164.5,164.5,163.5,168.5,162.5,172.5,162.0,176.5,162.5,180.5,162.0,184.5,161.5,188.5,162.0,192.5,161.5,196.5,162.0,200.5,162.5,204.5,163.0,208.5" stroke="black" stroke-width="1" fill="none" />
<polyline points="132.5,203.5,132.5,207.5,133.0,211.5,133.5,215.5,134.0,219.5,133.0,223.5,133.0,227.5,133.0,231.5,134.5,235.5,132.5,239.5,132.5,243.5,133.0,247.5,131.0,250.0" stroke="black" stroke-width="1" fill="none" />
<polyline points="126.0,248.0,125.5,244.0,125.0,240.0,125.0,236.0" stroke="black" stroke-width="1" fill="none" />
<polyline points="128.5,249.5,128.0,245.5,127.5,241.5,127.0,237.5,126.5,233.5,126.5,229.5,126.5,225.5,126.0,221.5" stroke="black" stroke-width="1" fill="none" />
<polyline points="134.5,223.5,135.5,227.5,136.0,231.5,136.0,235.5,136.5,239.5,137.0,243.5,137.0,247.5,136.5,251.5,137.0,255.5,138.0,259.5,139.0,263.5,139.5,267.5" stroke="black" stroke-width="1" fill="none" />
<polyline points="177.5,287.5,181.5,296.0,185.5,301.0,189.5,306.0" stroke="black" stroke-width="1" fill="none" />
<polyline points="182.5,322.0,183.5,326.0,184.5,330.0,185.5,334.0,187.0,338.0" stroke="black" stroke-width="1" fill="none" />
<polyline points="134.5,274.0,133.5,270.0,133.0,266.0,132.0,262.0,131.5,258.0,130.5,254.0,130.0,250.0,129.5,246.0,129.0,242.0,129.0,238.0,128.5,234.0,128.5,230.0,128.5,226.0,128.0,222.0,128.0,218.0,128.0,214.0,128.5,210.0" stroke="black" stroke-width="1" fill="none" />
<polyline points="130.5,202.5,130.5,206.5,130.5,210.5,130.5,214.5,130.5,218.5,130.0,222.5,130.5,226.5,130.5,230.5" stroke="black" stroke-width="1" fill="none" />
<polyline points="146.5,169.5,142.5,172.5,136.0,173.5,132.0,175.0,137.0,174.5,144.0,171.5,148.5,167.5" stroke="black" stroke-width="1" fill="none" />
<polyline points="144.5,168.0,140.5,170.5,145.0,167.0,148.0,163.0" stroke="black" stroke-width="1" fill="none" />
<polyline points="147.5,162.0,144.0,166.0,141.0,170.0,130.5,174.5,134.0,173.0,135.0,169.0,141.5,168.5,145.5,164.5" stroke="black" stroke-width="1" fill="none" />
<polyline points="142.5,159.5,138.5,163.0,134.5,166.5,130.5,169.0,132.0,165.5,137.0,161.5,141.5,157.5,145.0,153.5,148.0,149.5" stroke="black" stroke-width="1" fill="none" />
<polyline points="162.0,165.5,162.0,161.5,164.5,157.5,164.5,153.5,164.5,149.5,164.5,145.5,164.5,141.5,163.5,139.0,164.5,135.0,164.5,131.0,164.5,127.0,165.0,123.0,167.0,119.0,170.5,115.0,170.5,115.0,166.5,120.0" stroke="black" stroke-width="1" fill="none" />
<polyline points="158.0,124.0,155.0,128.0,153.5,132.0,151.5,136.0,149.5,140.0,147.0,144.0,144.0,148.0,140.5,152.0,137.0,156.0,134.0,160.0,130.5,163.0,134.5,159.5,138.5,154.5,142.5,149.5,146.5,144.5,150.5,137.5,154.5,129.5" stroke="black" stroke-width="1" fill="none" />
<polyline points="154.5,132.5,150.5,141.0,146.5,147.5,142.5,152.0,138.5,157.5,134.5,161.5,133.0,163.0,137.0,159.0,140.5,155.0,143.5,151.0,147.0,147.0,149.5,143.0,151.5,139.0,153.5,135.0,155.0,131.0,157.0,127.0" stroke="black" stroke-width="1" fill="none" />
<polyline points="149.0,115.0,144.5,119.0,139.0,123.0,135.0,127.0,132.0,130.5,128.5,134.5,124.5,138.5,120.5,144.0,117.0,144.0,111.0,147.5,108.0,150.5,106.5,153.0,101.0,157.0,99.5,158.0,103.5,155.0,107.5,152.5,108.0,149.0,112.0,145.5,116.0,141.0,120.5,138.5,124.5,134.0,128.0,132.5,132.0,128.5,136.0,124.0" stroke="black" stroke-width="1" fill="none" />
<polyline points="136.5,112.0,133.0,116.0,128.0,120.0,128.5,119.5,132.5,116.5,136.5,112.0" stroke="black" stroke-width="1" fill="none" />
<polyline points="144.5,113.0,140.5,115.0,136.5,119.0,132.5,123.5,128.5,127.5,124.5,131.0,120.5,134.5,116.5,138.5,112.5,142.5,108.5,146.0,104.5,150.5,102.5,152.5,106.5,148.5,110.0,144.5,114.5,140.5,118.5,136.5,122.5,132.5,127.5,128.5,131.5,124.5,135.0,120.5,139.0,116.5,145.0,112.5" stroke="black" stroke-width="1" fill="none" />
<polyline points="145.5,113.0,143.0,117.0,145.5,114.0" stroke="black" stroke-width="1" fill="none" />
<polyline points="118.5,125.0,118.5,128.0,114.5,131.5,109.5,138.0,105.5,144.5,104.5,145.5,107.5,141.5,110.0,137.5,114.0,132.0,118.5,128.0" stroke="black" stroke-width="1" fill="none" />
<polyline points="119.0,131.0,115.0,135.0,112.0,139.0,108.5,143.0,109.0,142.5,113.0,138.0,117.0,133.0" stroke="black" stroke-width="1" fill="none" />
<polyline points="118.0,134.0,114.0,139.0,116.5,135.5,120.0,131.5" stroke="black" stroke-width="1" fill="none" />
<polyline points="86.5,150.5,81.5,157.0" stroke="black" stroke-width="1" fill="none" />
<polyline points="100.0,137.0,97.0,141.5,93.0,146.0,90.5,151.0,87.5,153.5,83.0,158.0,81.0,163.0,77.0,172.5,77.5,177.0,79.0,171.5,80.5,167.5,79.5,166.5,81.5,162.5,82.5,158.5,87.0,155.0,87.0,149.5,89.0,145.5,88.0,142.5,90.0,138.5,92.0,134.5,94.0,131.5,95.0,127.5,97.0,123.5,99.5,119.5,101.0,115.5,103.5,111.5,105.5,107.5,106.5,103.5,108.5,99.5,108.5,95.5,110.0,91.5,111.5,87.5,117.0,85.5,119.0,81.5,120.5,77.5,121.0,73.5,123.0,69.5,124.5,65.5,126.0,61.5,127.0,57.5" stroke="black" stroke-width="1" fill="none" />
<polyline points="127.0,50.0,131.0,41.0,131.0,37.5,134.5,34.0,138.5,29.5,142.5,24.0" stroke="black" stroke-width="1" fill="none" />
<polyline points="145.0,18.5,141.0,22.5,137.0,26.5,133.0,30.5,130.5,34.5,128.5,38.5,126.5,42.5,125.5,46.5,125.0,50.5,124.0,54.5,123.0,58.5,121.0,62.5,120.5,66.5,117.5,70.5,115.0,74.5,113.5,78.5,112.0,82.5,110.0,86.5,109.0,90.5,107.0,94.5,109.5,98.0,112.0,93.0,112.0,86.5" stroke="black" stroke-width="1" fill="none" />
<polyline points="140.0,59.0,136.0,63.0,133.0,67.0,130.5,71.0,127.5,75.0,126.0,79.0,127.0,75.5,131.0,70.5,135.0,64.0,139.0,60.5,143.5,56.5,147.5,54.0,151.5,49.5,155.5,43.5,158.0,39.5,162.0,37.0" stroke="black" stroke-width="1" fill="none" />
<polyline points="161.0,37.0,155.5,41.0,154.0,45.5,150.0,51.0,145.0,53.0,143.0,53.0,139.5,57.0,136.5,61.0,132.5,65.0,126.5,69.0,122.5,73.0,122.5,71.0,126.5,69.0,130.5,66.0,134.5,62.5,138.5,59.0,142.5,54.0,145.5,52.5" stroke="black" stroke-width="1" fill="none" />
<polyline points="148.5,56.0,146.5,60.0,145.0,63.5,142.5,65.0,140.0,66.0,144.5,60.5" stroke="black" stroke-width="1" fill="none" />
<polyline points="145.0,62.5,141.0,67.0,135.0,73.0,131.0,78.5,127.0,84.5,123.0,87.5,120.5,93.5,119.0,97.0,115.5,104.0,114.5,106.5,116.5,102.5,119.5,98.5,122.0,94.5,125.0,90.0,126.5,85.0,129.0,81.0,132.0,77.0,135.0,73.0,139.5,68.0,141.5,64.0,145.0,60.0,147.0,56.0,151.0,51.5" stroke="black" stroke-width="1" fill="none" />
<polyline points="143.0,48.0,138.0,52.0,136.0,56.0,138.0,52.0,142.0,47.5" stroke="black" stroke-width="1" fill="none" />
<polyline points="128.5,37.0,132.5,31.5,136.5,27.0,140.5,23.0,144.5,19.0,148.5,17.5,152.5,13.0,157.0,10.5,161.0,7.0,165.0,5.0,169.0,3.5,173.0,1.0,173.5,3.0,177.5,3.5,181.5,3.5,183.0,5.5,187.5,5.0,191.5,7.0" stroke="black" stroke-width="1" fill="none" />
<polyline points="195.0,11.5,191.0,11.5,187.0,10.0,183.0,9.0,179.0,8.5,177.5,11.0,172.5,13.0,168.5,14.5,164.5,16.5,160.5,20.0,156.5,23.5,151.0,24.0,147.0,25.0,145.0,24.0,142.5,29.0,138.0,32.0,137.0,34.0,135.0,41.0,133.5,47.0,132.5,55.5,128.5,59.5,123.0,62.5,123.5,65.0,124.5,61.0,126.0,57.0,126.5,53.5,127.5,49.5,129.0,45.5,130.5,41.5,132.5,37.5,132.5,35.5,137.0,31.5,140.0,27.5,143.0,23.5,146.0,19.5,150.0,15.5,155.0,11.5,160.0,7.5,161.5,4.0,168.5,0.0,165.0,2.5,161.0,4.5,157.0,7.0" stroke="black" stroke-width="1" fill="none" />
<polyline points="166.0,10.0,160.0,14.0,161.5,12.5,165.5,10.5,169.5,8.0,173.5,9.0,176.5,9.0,177.5,9.5,178.5,12.0,185.0,10.5,189.5,13.5,193.5,16.5,197.5,18.0,200.0,15.5,199.5,16.5,203.5,18.5" stroke="black" stroke-width="1" fill="none" />
<polyline points="201.5,13.0,197.5,11.0,193.5,9.5,189.5,8.0,185.5,8.0,181.5,7.0,177.5,5.5,173.5,5.5,172.0,7.5,168.0,7.5,164.0,9.0,160.0,11.5,156.0,14.5,151.0,18.0,148.5,20.5,146.0,22.0,148.5,19.0" stroke="black" stroke-width="1" fill="none" />
<polyline points="166.5,11.0,162.5,13.5,166.5,11.0" stroke="black" stroke-width="1" fill="none" />
<polyline points="173.0,15.0,167.5,19.0,170.5,16.5,174.5,15.0,178.5,13.0,182.5,12.0,186.5,12.5,190.5,12.5,194.5,14.5" stroke="black" stroke-width="1" fill="none" />
<polyline points="192.5,13.5,195.0,13.5,196.5,15.0,198.5,18.5,200.5,19.0" stroke="black" stroke-width="1" fill="none" />
<polyline points="214.5,5.0,218.5,6.5,222.5,9.5,228.0,10.5" stroke="black" stroke-width="1" fill="none" />
<polyline points="230.0,8.0,234.0,9.5,238.0,13.0" stroke="black" stroke-width="1" fill="none" />
<polyline points="237.5,13.0,237.5,9.0,238.5,5.0,238.5,4.5" stroke="black" stroke-width="1" fill="none" />
<polyline points="236.0,3.0,238.0,2.5,241.0,6.5,245.5,9.0,252.5,10.5,252.0,11.5" stroke="black" stroke-width="1" fill="none" />
<polyline points="253.5,13.5,249.5,11.5,245.5,9.0" stroke="black" stroke-width="1" fill="none" />
<polyline points="247.0,12.5,243.0,9.0,241.0,6.5,238.0,6.5,233.5,5.5,227.0,3.0,223.0,2.5" stroke="black" stroke-width="1" fill="none" />
<polyline points="221.5,0.5,225.5,1.0,231.0,0.5,234.5,2.5,238.5,2.5,242.5,0.5,244.5,4.5,246.5,8.0,248.0,7.5,252.0,10.0" stroke="black" stroke-width="1" fill="none" />
<polyline points="254.5,11.0,250.0,7.0" stroke="black" stroke-width="1" fill="none" />
<polyline points="250.0,6.5,254.0,9.5,258.0,11.5,262.0,13.5,266.0,15.5" stroke="black" stroke-width="1" fill="none" />
<polyline points="273.5,7.0,273.5,4.0,272.5,3.0,272.0,2.0" stroke="black" stroke-width="1" fill="none" />
<polyline points="272.0,0.5,276.0,4.5,275.5,8.5,279.5,10.0" stroke="black" stroke-width="1" fill="none" />
<polyline points="282.5,8.0,277.5,0.5" stroke="black" stroke-width="1" fill="none" />
<polyline points="276.0,4.5,280.0,10.0" stroke="black" stroke-width="1" fill="none" />
<polyline points="287.0,5.5,283.0,1.5" stroke="black" stroke-width="1" fill="none" />
<polyline points="283.0,1.5,284.5,5.5,289.0,7.0,291.0,11.0,293.5,15.0" stroke="black" stroke-width="1" fill="none" />
<polyline points="302.5,10.5,302.5,11.5,302.5,14.0,303.5,11.5" stroke="black" stroke-width="1" fill="none" />
<polyline points="309.5,8.0,311.5,4.0,313.0,0.0" stroke="black" stroke-width="1" fill="none" />
<polyline points="311.0,0.0,309.0,4.0,309.5,8.0,309.0,12.0,308.5,16.0" stroke="black" stroke-width="1" fill="none" />
<polyline points="316.5,7.5,320.5,1.5,320.0,2.5,318.0,6.5,316.0,10.5,314.0,14.5,314.0,17.0,312.0,19.0,312.5,16.5,316.5,9.0,320.5,5.5,324.5,0.5,327.5,1.5,329.5,2.5" stroke="black" stroke-width="1" fill="none" />
<polyline points="328.5,0.0,324.5,1.0,321.0,5.0,322.5,7.0,321.5,7.5,325.5,6.5,328.5,6.5,332.5,5.0,336.5,1.5,340.0,1.0,346.5,2.0,350.5,0.5,356.0,1.5,360.0,2.5,362.0,5.0,366.0,4.0,368.0,5.5,367.0,11.0,360.5,15.0,351.5,17.5,348.5,21.0,345.0,25.0,341.5,25.0,345.5,24.5" stroke="black" stroke-width="1" fill="none" />
<polyline points="341.5,21.5,345.0,22.5,342.0,27.5,346.0,25.5,342.5,29.0,346.5,25.0,350.5,23.0,354.5,21.0,358.5,19.0,362.5,18.5,366.5,16.5,370.5,14.5,375.5,17.5,379.5,18.5" stroke="black" stroke-width="1" fill="none" />
<polyline points="381.0,11.5,385.0,16.0,389.0,20.5,393.0,23.0" stroke="black" stroke-width="1" fill="none" />
<polyline points="388.5,28.0,384.5,27.0,380.5,28.0,376.5,28.0,372.5,28.0" stroke="black" stroke-width="1" fill="none" />
<polyline points="372.5,29.0,376.5,29.0,378.0,30.0,382.5,30.0,386.5,30.0,390.5,31.0,393.0,34.5,397.5,41.0,400.0,44.0,401.0,50.0,402.5,54.0,409.0,58.5" stroke="black" stroke-width="1" fill="none" />
<polyline points="410.0,63.0,403.5,55.5,403.0,55.5,402.0,51.0,397.0,47.0,396.0,46.0" stroke="black" stroke-width="1" fill="none" />
<polyline points="388.5,46.0,384.5,46.5,380.5,47.0,376.5,46.5,372.5,46.5,368.5,47.0,364.5,46.5" stroke="black" stroke-width="1" fill="none" />
<polyline points="364.5,50.5,360.5,48.0" stroke="black" stroke-width="1" fill="none" />
<polyline points="359.0,46.5,363.0,48.0,362.5,49.5" stroke="black" stroke-width="1" fill="none" />
<polyline points="354.5,43.0,358.5,40.5,361.0,35.0,365.0,34.5,369.0,34.5,373.0,34.5,377.0,34.0,381.0,34.5,385.0,33.5" stroke="black" stroke-width="1" fill="none" />
<polyline points="391.5,33.5,395.0,37.5,397.0,41.5,402.5,42.5,405.5,46.5,404.5,50.5,410.0,55.5,412.0,59.5,414.5,63.5,418.5,67.5" stroke="black" stroke-width="1" fill="none" />
<polyline points="405.0,72.5,401.0,67.5,397.0,63.0,393.0,60.0,389.0,55.5" stroke="black" stroke-width="1" fill="none" />
<polyline points="389.0,55.5,392.0,59.5,397.0,63.5,400.5,67.5,404.0,71.5" stroke="black" stroke-width="1" fill="none" />
<polyline points="403.5,54.0,405.5,58.0,408.5,61.5,410.0,61.5,414.5,62.5,417.0,67.0,421.0,72.0,422.5,82.5,426.5,86.0" stroke="black" stroke-width="1" fill="none" />
<polyline points="413.5,53.0,412.5,49.0,409.5,45.0,406.0,41.0,402.5,37.0" stroke="black" stroke-width="1" fill="none" />
<polyline points="401.0,43.5,398.5,39.5,395.5,35.5" stroke="black" stroke-width="1" fill="none" />
<polyline points="387.5,25.5,383.5,24.5,379.5,24.5,375.5,25.0,371.5,26.0,367.5,26.0,363.5,26.0" stroke="black" stroke-width="1" fill="none" />
<polyline points="367.5,16.0,364.0,15.5,368.0,15.0,370.5,17.5,374.5,14.5,378.5,16.5,382.5,18.0,386.5,22.0,390.5,25.0,394.5,27.5,398.5,31.5,402.5,34.0,406.5,38.5,410.5,38.5,414.5,43.0,418.5,51.0,422.5,58.5,426.5,66.5,427.0,72.0,428.0,77.0" stroke="black" stroke-width="1" fill="none" />
<polyline points="363.0,90.0,359.0,84.5" stroke="black" stroke-width="1" fill="none" />
<polyline points="358.5,82.5,359.5,86.5,363.0,90.5" stroke="black" stroke-width="1" fill="none" />
<polyline points="358.0,70.0,354.0,66.0,350.0,59.0" stroke="black" stroke-width="1" fill="none" />
<polyline points="350.5,58.0,352.5,62.0,357.0,66.0,359.5,70.0,361.0,73.0,365.5,77.0" stroke="black" stroke-width="1" fill="none" />
<polyline points="359.0,76.5,357.5,73.0,357.0,69.0,353.0,65.0,350.5,61.0,350.0,57.0" stroke="black" stroke-width="1" fill="none" />
<polyline points="352.5,67.0,349.0,63.0,344.5,59.0,341.0,55.0,337.0,53.5" stroke="black" stroke-width="1" fill="none" />
<polyline points="330.5,46.0,333.5,50.5,337.0,53.0,341.0,55.0,345.0,59.0,349.0,62.5,353.0,67.5" stroke="black" stroke-width="1" fill="none" />
<polyline points="350.5,25.5,354.5,25.0,359.0,28.0,363.0,29.5,364.0,25.0,368.0,25.0,372.0,24.0,376.0,24.0,380.0,23.5,384.0,23.5" stroke="black" stroke-width="1" fill="none" />
<polyline points="391.0,22.5,387.0,18.5,383.0,14.5,381.0,10.5" stroke="black" stroke-width="1" fill="none" />
<polyline points="367.5,13.0,365.0,12.5,361.0,15.0,357.0,17.0,353.0,18.5,349.0,17.5,349.0,15.5,346.0,14.5,342.0,17.0,339.0,16.5,341.5,11.5,346.5,6.5,346.0,7.0,342.0,9.0" stroke="black" stroke-width="1" fill="none" />
<polyline points="344.5,6.5,348.5,4.0,349.0,5.0,353.0,3.5" stroke="black" stroke-width="1" fill="none" />
<polyline points="356.5,0.0,355.5,4.0,345.0,6.0,339.0,11.0,338.0,15.0,336.5,16.5,335.0,17.0,334.5,21.0,337.0,16.0,337.5,17.5,341.5,14.5,345.5,12.5,350.5,11.0" stroke="black" stroke-width="1" fill="none" />
<polyline points="358.0,10.0,355.5,14.0,354.0,15.0,354.5,12.5,358.5,13.0,359.0,11.5,363.0,10.0,367.0,8.0,371.0,8.0" stroke="black" stroke-width="1" fill="none" />
<polyline points="365.5,13.5,365.0,19.0" stroke="black" stroke-width="1" fill="none" />
<polyline points="358.0,5.0,353.5,9.0,345.0,11.5,346.0,13.5,345.5,17.5,339.0,20.0,339.5,23.0,343.0,20.0,347.0,21.5" stroke="black" stroke-width="1" fill="none" />
<polyline points="341.0,13.0,345.0,11.5,349.0,9.5,353.0,8.5,357.0,5.5,361.0,3.5" stroke="black" stroke-width="1" fill="none" />
<polyline points="348.0,0.5,345.5,1.0,343.5,5.0,338.0,9.0,334.5,9.0,331.0,13.5,327.0,17.5,324.5,21.5,321.5,25.5,324.5,21.5,328.5,16.0,332.5,12.0,334.5,13.5,338.5,11.5,342.5,11.0,346.5,9.5,350.5,7.0,355.5,9.5,359.5,9.0,363.5,8.5,368.0,10.0,371.0,11.5,375.0,12.0,379.0,12.5,383.0,16.5,384.5,20.5,389.0,24.5,392.5,26.5,396.5,30.5,400.5,32.5,404.5,36.5,408.0,40.5,411.5,44.5,415.0,48.5" stroke="black" stroke-width="1" fill="none" />
<polyline points="370.5,115.5,371.0,119.5,372.0,124.0,373.0,128.0,373.5,132.0,374.0,136.0,374.0,140.0,374.5,144.0,374.5,148.0,374.5,152.0,374.5,156.0,374.5,160.0,374.5,164.0,375.0,168.0,375.0,172.0,376.0,176.0,376.0,180.0,376.5,184.0,377.0,188.0,377.0,192.0,377.0,196.0,375.5,200.0,376.5,204.0,376.5,208.0,375.5,212.0,374.0,216.0,375.5,213.5,382.0,212.0" stroke="black" stroke-width="1" fill="none" />
<polyline points="240.0,160.0,234.5,156.0" stroke="black" stroke-width="1" fill="none" />
<polyline points="233.0,155.0,231.5,159.0,230.0,163.0,225.5,168.5" stroke="black" stroke-width="1" fill="none" />
<polyline points="220.5,169.0,219.0,168.0,215.0,163.5,213.0,159.5,212.5,155.5" stroke="black" stroke-width="1" fill="none" />
<polyline points="210.0,148.0,202.0,152.0,198.0,156.0" stroke="black" stroke-width="1" fill="none" />
<polyline points="209.0,144.0,202.5,148.0,198.5,151.5,202.5,148.0,206.5,145.0,210.5,144.0,214.5,143.0,218.5,142.5,222.5,142.0,226.5,142.5,230.5,143.0,234.5,144.5,238.5,147.0,242.5,150.0" stroke="black" stroke-width="1" fill="none" />
<polyline points="225.5,162.5,227.0,159.0,228.5,155.0,226.5,150.0,222.5,149.0,218.5,149.0,214.5,149.5,211.0,151.5,207.0,151.5,212.5,151.0,217.0,149.0" stroke="black" stroke-width="1" fill="none" />
<polyline points="209.0,142.5,202.0,146.5,196.5,150.5,199.5,148.5,203.5,145.0,207.5,143.0,211.5,142.0,215.5,141.5,219.5,141.0,223.5,140.5,227.5,141.5,231.5,142.0,235.5,143.5,239.0,145.5,244.0,151.0" stroke="black" stroke-width="1" fill="none" />
<polyline points="208.0,123.0,204.0,123.5,200.0,124.5" stroke="black" stroke-width="1" fill="none" />
<polyline points="196.5,128.5,192.0,132.5,189.0,136.5,191.0,135.0,194.5,130.0,198.5,127.5,202.5,126.0,206.5,125.0,210.5,124.0,214.5,126.0,218.5,126.5,222.5,126.5,226.5,128.5,230.5,129.0,234.5,129.5,238.5,130.0,239.5,129.0,243.5,131.0,247.5,133.0" stroke="black" stroke-width="1" fill="none" />
<polyline points="215.5,114.5,211.5,115.0,207.5,118.0,203.5,119.5,199.5,122.0,195.5,125.0,191.5,129.0,187.5,132.5,185.5,134.5,190.0,130.5,193.5,126.5,199.0,122.5,205.0,118.5" stroke="black" stroke-width="1" fill="none" />
<polyline points="206.5,44.0,202.5,48.0,205.5,44.5,209.5,43.5,213.5,41.0,217.5,40.5,221.5,38.0" stroke="black" stroke-width="1" fill="none" />
<polyline points="230.0,34.5,234.0,34.0,238.5,33.0" stroke="black" stroke-width="1" fill="none" />
<polyline points="253.0,26.5,249.0,25.5,245.0,26.0,241.0,25.0,236.0,23.5,232.0,22.0,228.0,20.5" stroke="black" stroke-width="1" fill="none" />
<polyline points="234.5,11.5,238.5,15.0" stroke="black" stroke-width="1" fill="none" />
<polyline points="242.5,5.0,246.5,7.0,252.0,5.0,256.5,5.0,260.5,6.5,264.0,11.5,268.0,13.5" stroke="black" stroke-width="1" fill="none" />
<polyline points="277.5,9.5,273.5,5.5,269.5,2.5" stroke="black" stroke-width="1" fill="none" />
<polyline points="267.5,0.5,270.5,4.5,276.0,7.5,279.0,11.5" stroke="black" stroke-width="1" fill="none" />
<polyline points="287.5,0.5,291.5,4.0" stroke="black" stroke-width="1" fill="none" />
<polyline points="289.0,0.0,291.5,4.0,292.0,8.0,293.5,12.0" stroke="black" stroke-width="1" fill="none" />
<polyline points="283.5,9.5,279.5,4.0,275.5,4.0,274.5,0.5,270.5,2.0,266.5,1.5" stroke="black" stroke-width="1" fill="none" />
<polyline points="264.0,0.5,265.0,1.0,269.0,4.5,270.0,7.5,273.5,10.5,275.0,13.0" stroke="black" stroke-width="1" fill="none" />
<polyline points="273.0,8.0,269.0,4.5,267.0,6.5,263.0,2.0,259.0,0.5" stroke="black" stroke-width="1" fill="none" />
<polyline points="262.5,2.0,260.5,2.0,264.5,6.0,267.5,10.0,270.0,9.0,272.5,13.5,276.5,18.0" stroke="black" stroke-width="1" fill="none" />
<polyline points="266.0,8.5,262.0,3.5,257.5,3.0,256.0,3.5,252.0,2.0" stroke="black" stroke-width="1" fill="none" />
<polyline points="248.5,2.0,252.5,3.5,253.0,5.0,257.5,6.0" stroke="black" stroke-width="1" fill="none" />
<polyline points="264.0,3.5,267.5,7.5,270.5,11.5,274.0,15.5,277.5,19.5" stroke="black" stroke-width="1" fill="none" />
<polyline points="268.0,16.5,264.5,12.5,262.0,8.5,255.5,9.0,251.5,6.5,247.5,3.5" stroke="black" stroke-width="1" fill="none" />
<polyline points="248.5,0.0,247.5,4.0,249.0,4.0,253.5,8.0,258.0,8.0,260.5,11.0,264.5,14.0,268.0,18.5" stroke="black" stroke-width="1" fill="none" />
<polyline points="270.5,19.0,269.5,15.5,265.0,15.5,259.0,12.0,258.0,8.0,256.0,5.0,251.5,3.0,252.0,1.0,248.0,1.5,244.0,2.0" stroke="black" stroke-width="1" fill="none" />
<polyline points="242.0,0.0,242.5,4.0,242.0,9.0,247.5,9.0,247.5,13.0,255.5,15.5" stroke="black" stroke-width="1" fill="none" />
<polyline points="241.5,14.5,237.5,10.5,235.0,8.5,235.0,7.0,230.5,7.0,226.5,7.0,222.5,5.0" stroke="black" stroke-width="1" fill="none" />
<polyline points="224.0,6.0,228.0,10.0" stroke="black" stroke-width="1" fill="none" />
<polyline points="229.0,7.0,233.0,11.0,238.0,15.0" stroke="black" stroke-width="1" fill="none" />
<polyline points="234.5,17.5,230.5,14.5,226.5,11.0,222.5,8.0,218.5,4.0,218.5,0.5" stroke="black" stroke-width="1" fill="none" />
<polyline points="216.5,2.0,219.0,1.0,222.5,1.5,225.5,3.5,227.0,7.5,228.5,6.0,233.5,8.0,238.5,12.0" stroke="black" stroke-width="1" fill="none" />
<polyline points="220.0,9.5,216.0,6.0" stroke="black" stroke-width="1" fill="none" />
<polyline points="216.5,5.0,221.0,9.0" stroke="black" stroke-width="1" fill="none" />
<polyline points="218.0,8.5,215.0,4.5" stroke="black" stroke-width="1" fill="none" />
<polyline points="214.0,0.5,216.0,0.0,216.0,2.0,220.0,6.0,223.5,6.0,225.5,10.0,229.0,14.0,234.5,18.0" stroke="black" stroke-width="1" fill="none" />
<polyline points="184.5,2.5,180.5,2.0,179.0,4.5" stroke="black" stroke-width="1" fill="none" />
<polyline points="179.0,8.5,176.5,9.5,166.5,15.0,161.5,19.0,157.0,23.0,152.0,27.0,148.5,31.0,145.0,35.0,144.0,36.5,148.0,31.5,152.0,27.0,154.0,23.5,151.5,22.5,149.0,25.5,151.5,22.5,154.0,18.5,158.0,18.0" stroke="black" stroke-width="1" fill="none" />
<polyline points="287.5,0.0,290.0,4.0,287.0,7.0,287.5,7.0,291.5,11.0" stroke="black" stroke-width="1" fill="none" />
<polyline points="296.0,27.5,299.5,28.5,303.5,32.5,310.5,35.5,314.5,37.5,320.5,42.5" stroke="black" stroke-width="1" fill="none" />
<polyline points="322.5,44.0,318.5,40.5" stroke="black" stroke-width="1" fill="none" />
<polyline points="320.5,39.5,324.5,43.5,328.5,47.5,332.0,51.5,335.5,52.5,337.5,56.5,341.0,60.5,344.5,62.0" stroke="black" stroke-width="1" fill="none" />
<polyline points="332.0,19.0,332.0,19.0,334.5,15.0,330.5,16.0" stroke="black" stroke-width="1" fill="none" />
<polyline points="324.0,10.5,322.0,9.5,325.0,7.5,327.0,3.5" stroke="black" stroke-width="1" fill="none" />
<polyline points="341.0,0.0,336.5,1.5,332.5,5.5,331.0,9.5,327.0,13.5,330.5,10.0,333.5,10.5,337.5,9.5,341.5,6.5,345.5,4.5,349.5,2.0,353.5,1.0,358.0,1.5,362.0,1.5,365.0,2.5,369.0,1.0,366.5,2.5" stroke="black" stroke-width="1" fill="none" />
<polyline points="345.0,1.5,341.0,3.5,337.0,6.5,332.5,10.0,328.5,14.0,324.5,18.0,320.5,25.0,322.5,21.5,325.0,17.5,329.0,13.5,333.5,9.5,335.0,8.0,340.0,4.0,343.0,0.0" stroke="black" stroke-width="1" fill="none" />
<polyline points="311.5,3.5,306.0,4.0,308.5,0.0" stroke="black" stroke-width="1" fill="none" />
</svg>