<svg xmlns="http://www.w3.org/2000/svg" height="227px" width="318px" version="1.1"><polyline points="285.0,59.5,280.5,63.5,279.0,67.5,276.0,71.5,271.0,75.5,274.0,75.0,278.0,72.5,282.0,74.5,286.0,77.0,290.0,76.5" stroke="black" stroke-width="1" fill="none" />
<polyline points="284.0,76.5,280.0,72.5" stroke="black" stroke-width="1" fill="none" />
<polyline points="279.5,65.5,283.5,60.0,287.5,59.5,291.5,61.0" stroke="black" stroke-width="1" fill="none" />
<polyline points="288.5,60.0,293.0,64.0,294.0,68.0,293.5,72.0,290.5,76.0" stroke="black" stroke-width="1" fill="none" />
<polyline points="277.0,90.0,273.0,83.5,269.0,79.5,265.0,76.5,261.0,74.5,257.0,73.5,253.0,73.0,249.0,73.0,245.0,73.5,241.0,74.5,237.0,76.5,233.0,80.5,229.0,86.0,225.0,95.5" stroke="black" stroke-width="1" fill="none" />
<polyline points="223.0,94.0,227.0,85.5" stroke="black" stroke-width="1" fill="none" />
<polyline points="229.5,80.0,225.5,76.0,221.5,74.5,217.5,76.0,213.5,79.5,209.5,79.0,205.5,74.5" stroke="black" stroke-width="1" fill="none" />
<polyline points="205.0,67.0,209.0,62.0,213.0,61.5,217.0,63.5" stroke="black" stroke-width="1" fill="none" />
<polyline points="214.0,62.0,218.5,66.0,219.5,70.0,225.0,74.0,230.0,78.0" stroke="black" stroke-width="1" fill="none" />
<polyline points="220.0,74.0,227.0,78.0,229.5,82.0,227.0,86.0,225.0,90.0,223.0,94.0,222.0,98.0,221.5,102.0,221.0,106.0,219.5,110.0,214.5,114.0,211.0,118.0,208.0,122.0,205.5,126.0,203.0,130.0,201.0,134.0,199.5,138.0,198.5,142.0,197.5,146.0,197.0,150.0,196.5,154.0,196.0,158.0,196.0,162.0,196.0,166.0,196.0,170.0,196.5,174.0,197.0,178.0,197.5,182.0,198.5,186.0,199.5,190.0,201.0,194.0,203.5,198.0,205.5,202.0,208.5,206.0,212.5,210.0,216.5,214.0,222.0,218.0,230.0,222.0" stroke="black" stroke-width="1" fill="none" />
<polyline points="239.0,193.0,235.0,195.0,231.0,194.0,227.0,189.5" stroke="black" stroke-width="1" fill="none" />
<polyline points="225.0,189.5,229.0,195.0,233.0,197.0,237.0,196.5,241.0,193.5" stroke="black" stroke-width="1" fill="none" />
<polyline points="242.0,180.5,238.0,175.0,234.0,174.0,230.0,175.5,226.0,181.5" stroke="black" stroke-width="1" fill="none" />
<polyline points="224.5,180.0,228.5,174.0,232.5,172.0,236.5,172.5,240.5,174.5" stroke="black" stroke-width="1" fill="none" />
<polyline points="236.0,174.5,241.0,178.5,242.5,182.5,242.0,186.5,241.0,190.5,236.0,194.5" stroke="black" stroke-width="1" fill="none" />
<polyline points="231.0,194.5,227.0,190.5,226.0,186.5,226.0,182.5,227.0,178.5,231.5,174.5" stroke="black" stroke-width="1" fill="none" />
<polyline points="232.5,172.0,226.5,176.0,224.5,180.0,224.0,184.0,224.5,188.0,226.0,192.0,230.0,196.0" stroke="black" stroke-width="1" fill="none" />
<polyline points="236.5,196.5,242.0,192.5,243.5,188.5,244.0,184.5,243.5,180.5,241.5,176.5,236.0,172.5" stroke="black" stroke-width="1" fill="none" />
<polyline points="231.5,150.0,227.5,156.5,223.5,158.0,219.5,157.0,215.5,151.5" stroke="black" stroke-width="1" fill="none" />
<polyline points="214.0,153.0,218.0,158.0,222.0,160.0,226.0,159.5,230.0,157.0" stroke="black" stroke-width="1" fill="none" />
<polyline points="227.5,138.5,223.5,137.5,219.5,138.5,215.5,143.0" stroke="black" stroke-width="1" fill="none" />
<polyline points="213.5,143.5,217.5,137.5,221.5,135.5,225.5,135.5,229.5,137.5" stroke="black" stroke-width="1" fill="none" />
<polyline points="226.0,136.0,231.0,140.0,233.0,144.0,233.5,148.0,233.0,152.0,231.0,156.0" stroke="black" stroke-width="1" fill="none" />
<polyline points="230.0,154.0,231.5,150.0,231.5,146.0,230.5,142.0,225.5,138.0" stroke="black" stroke-width="1" fill="none" />
<polyline points="221.5,137.5,216.5,141.5,215.0,145.5,215.0,149.5,216.0,153.5,219.5,157.5" stroke="black" stroke-width="1" fill="none" />
<polyline points="219.5,159.5,215.0,155.5,213.5,151.5,213.0,147.5,213.5,143.5,215.5,139.5,221.0,135.5" stroke="black" stroke-width="1" fill="none" />
<polyline points="200.0,141.5,204.0,132.5,208.0,125.0,212.0,119.0,216.0,115.0,220.0,112.0,224.0,110.5,228.0,110.5,232.0,110.5,236.0,110.0,240.0,110.0,244.0,109.5,248.0,109.0,252.0,109.5,254.5,112.0,255.0,116.0,255.0,120.0,255.5,124.0,255.5,128.0,255.5,132.0,256.0,136.0,256.5,140.0,256.5,144.0,256.5,148.0,257.0,152.0,257.0,156.0,257.5,160.0,257.5,164.0,258.0,168.0,258.0,172.0,258.0,176.0,258.5,180.0,259.0,184.0,259.0,188.0,259.5,192.0,259.5,196.0,259.5,200.0,260.0,204.0,258.0,208.0,256.5,212.0,255.0,216.0,253.0,220.0,251.5,224.0" stroke="black" stroke-width="1" fill="none" />
<polyline points="267.5,223.5,265.0,219.5,263.0,215.5,261.0,211.5,259.5,207.5" stroke="black" stroke-width="1" fill="none" />
<polyline points="261.0,206.5,263.0,210.5,264.5,214.5,267.5,218.5,269.5,222.5" stroke="black" stroke-width="1" fill="none" />
<polyline points="296.0,227.0,300.0,227.0,295.5,226.0,299.5,225.5,303.5,225.5,307.5,225.5,311.5,226.0,315.5,225.5,317.0,227.0" stroke="black" stroke-width="1" fill="none" />
<polyline points="313.5,227.0,309.5,226.5" stroke="black" stroke-width="1" fill="none" />
<polyline points="282.0,190.5,278.0,192.5,274.0,191.5,270.0,186.0" stroke="black" stroke-width="1" fill="none" />
<polyline points="268.0,185.5,272.0,192.5,276.0,194.5,280.0,194.5,284.0,191.5" stroke="black" stroke-width="1" fill="none" />
<polyline points="281.5,173.5,277.5,172.0,273.5,173.0,269.5,178.5" stroke="black" stroke-width="1" fill="none" />
<polyline points="268.0,177.0,272.0,171.5,276.0,170.0,280.0,170.5,284.0,173.0" stroke="black" stroke-width="1" fill="none" />
<polyline points="279.5,172.5,284.0,176.5,285.5,180.5,285.0,184.5,284.0,188.5" stroke="black" stroke-width="1" fill="none" />
<polyline points="274.0,192.0,270.5,188.0,269.5,184.0,269.5,180.0,270.5,176.0,275.5,172.0" stroke="black" stroke-width="1" fill="none" />
<polyline points="275.0,170.0,269.5,174.0,268.0,178.0,267.5,182.0,268.0,186.0,269.5,190.0,273.5,194.0" stroke="black" stroke-width="1" fill="none" />
<polyline points="284.5,190.5,286.5,186.5,287.0,182.5,287.0,178.5,284.5,174.5,279.5,170.5" stroke="black" stroke-width="1" fill="none" />
<polyline points="289.0,153.5,285.0,155.0,281.0,154.0,277.0,148.0" stroke="black" stroke-width="1" fill="none" />
<polyline points="275.5,149.5,279.5,155.0,283.5,157.0,287.5,157.0,291.5,154.0" stroke="black" stroke-width="1" fill="none" />
<polyline points="292.5,141.0,288.5,136.0,284.5,135.0,280.5,136.0,276.5,142.0" stroke="black" stroke-width="1" fill="none" />
<polyline points="275.0,140.5,279.0,134.5,283.0,133.0,287.0,133.5,291.0,135.5" stroke="black" stroke-width="1" fill="none" />
<polyline points="288.5,134.0,292.5,138.0,294.5,142.0,295.0,146.0,294.0,150.0,291.5,154.0" stroke="black" stroke-width="1" fill="none" />
<polyline points="291.0,151.5,293.0,147.5,293.0,143.5,291.5,139.5,286.5,135.5" stroke="black" stroke-width="1" fill="none" />
<polyline points="282.5,135.0,277.5,139.0,276.5,143.0,276.5,147.0,278.0,151.0,282.5,155.0" stroke="black" stroke-width="1" fill="none" />
<polyline points="282.5,157.0,277.0,153.0,275.0,149.0,274.5,145.0,275.0,141.0,276.5,137.0,282.0,133.0" stroke="black" stroke-width="1" fill="none" />
<polyline points="284.5,108.0,291.5,112.0,296.5,116.0,300.5,120.0,303.5,124.0,306.0,128.0,308.0,132.0,310.5,136.0,312.0,140.0,313.0,144.0,314.0,148.0,314.5,152.0,315.0,156.0,315.5,160.0,316.0,164.0,316.0,168.0,316.0,172.0,315.5,176.0,315.0,180.0,314.0,184.0,313.0,188.0,311.5,192.0,309.0,196.0,306.5,200.0,303.5,204.0,299.5,208.0,295.0,212.0,289.0,216.0,281.0,220.0" stroke="black" stroke-width="1" fill="none" />
<polyline points="276.0,224.0,285.5,220.0,293.0,216.0,298.5,212.0,302.0,208.0,306.0,204.0,309.0,200.0,311.5,196.0,313.5,192.0,315.0,188.0,316.0,184.0,317.0,180.0,317.5,176.0,317.5,172.0,317.5,168.0,317.5,164.0,317.5,160.0,317.0,156.0,316.5,152.0,316.0,148.0,315.0,144.0,314.0,140.0,312.5,136.0,310.5,132.0,308.0,128.0,305.5,124.0,303.0,120.0,299.0,116.0,294.5,112.0,289.0,108.0,283.0,104.0,282.0,100.0,281.0,96.0,279.5,92.0,277.5,88.0,275.0,84.0,271.5,80.0,273.0,76.0,279.0,72.0,276.0,71.5,272.0,74.5,268.0,76.0,264.0,74.0,260.0,72.5,256.0,71.5,252.0,71.0,248.0,71.0,244.0,71.5,240.0,73.0,236.0,75.0,232.0,79.0,228.0,75.5,224.0,73.5,220.0,71.5" stroke="black" stroke-width="1" fill="none" />
<polyline points="219.5,73.5,216.5,77.5" stroke="black" stroke-width="1" fill="none" />
<polyline points="207.0,77.5,205.0,73.5,204.5,69.5,205.5,65.5,210.0,61.5" stroke="black" stroke-width="1" fill="none" />
<polyline points="234.5,76.0,242.0,72.0" stroke="black" stroke-width="1" fill="none" />
<polyline points="242.0,74.0,235.5,78.0,231.5,82.0,229.0,86.0,227.0,90.0,225.5,94.0,224.5,98.0,223.5,102.0,223.0,106.0,221.5,111.0,216.0,115.0,212.0,119.0,209.5,123.0,206.5,127.0,204.5,131.0,203.0,135.0,201.0,139.0,200.0,143.0,199.0,147.0,198.5,151.0,198.0,155.0,198.0,159.0,197.5,163.0,197.5,167.0,198.0,171.0,198.0,175.0,198.5,179.0,199.5,183.0,200.5,187.0,201.5,191.0,204.0,195.0,206.0,199.0,208.5,203.0,212.0,207.0,215.5,211.0,221.0,215.0,228.0,219.0" stroke="black" stroke-width="1" fill="none" />
<polyline points="201.5,190.5,205.5,197.5,209.5,203.5,213.5,208.0,217.5,212.0,221.5,215.0,225.5,217.0,229.5,219.5,233.5,221.0,237.5,222.5,241.5,223.5,245.5,224.5,249.5,224.0,253.5,214.0,257.5,203.5,264.0,212.5,268.0,219.5,272.0,223.0,276.0,222.0,280.0,220.5,284.0,218.5,288.0,217.0,292.0,214.5,296.0,211.5,300.0,207.5,304.0,203.0,308.0,197.5,312.0,190.5" stroke="black" stroke-width="1" fill="none" />
<polyline points="310.5,135.0,306.5,128.5,302.5,122.5,298.5,117.5,294.5,114.0,290.5,111.0,286.5,108.5,282.5,107.5,278.5,108.0,274.5,108.0,270.5,108.0,266.5,108.5,262.5,108.5,258.5,109.0,254.5,109.0" stroke="black" stroke-width="1" fill="none" />
<polyline points="252.0,109.5,252.5,113.5,253.0,117.5,253.5,121.5,253.5,125.5,254.0,129.5,254.0,133.5,254.0,137.5,254.5,141.5,254.5,145.5,255.0,149.5,255.5,153.5,255.5,157.5,255.5,161.5,256.0,165.5,256.0,169.5,256.5,173.5,256.5,177.5,256.5,181.5,257.0,185.5,257.0,189.5,257.5,193.5,258.0,197.5,258.0,201.5,257.0,205.5,255.5,209.5,254.0,213.5,252.5,217.5,250.5,221.5" stroke="black" stroke-width="1" fill="none" />
<polyline points="199.5,189.5,203.5,197.5,207.5,204.0,211.5,208.5,215.5,213.0,219.5,216.0,223.5,218.5,227.5,220.5,231.5,222.5,235.5,224.0,239.5,225.0,243.5,226.0,247.5,226.5,251.5,224.0,255.5,214.0,259.5,207.0,263.5,215.5,267.5,222.5,271.5,225.5,275.5,224.5,279.5,223.0,283.5,221.0,287.5,219.5,291.5,217.0,295.5,214.5,299.5,211.0,303.5,206.5,307.5,201.5,311.5,196.0" stroke="black" stroke-width="1" fill="none" />
<polyline points="280.0,105.5,276.0,106.0,272.0,106.0,268.0,106.5,264.0,106.5,260.0,106.5,256.0,107.0,252.0,107.0,248.0,107.5,244.0,107.5,240.0,107.5,236.0,108.0,232.0,108.0,228.0,108.5,224.0,109.0,218.5,111.0,214.5,114.0,210.5,118.5,206.5,124.0,202.5,131.0,198.5,140.5" stroke="black" stroke-width="1" fill="none" />
<polyline points="260.0,74.5,267.0,78.5,271.5,82.5,274.5,86.5,277.0,90.5,278.5,94.5,280.0,98.5,281.0,102.5,284.0,105.0,288.0,107.5,292.0,109.5,296.0,112.5,300.0,116.0,304.0,120.5,308.0,127.0,312.0,134.0" stroke="black" stroke-width="1" fill="none" />
<polyline points="278.0,88.0,274.0,82.0,268.0,76.5,260.0,72.5" stroke="black" stroke-width="1" fill="none" />
</svg>