<svg xmlns="http://www.w3.org/2000/svg" height="379px" width="410px" version="1.1"><polyline points="102.5,133.0,102.0,137.0,102.0,141.0,102.0,145.0,102.0,149.0,102.0,153.0,102.0,157.0,102.0,161.0,102.0,165.0,102.0,169.0,102.0,173.0,102.0,177.0,102.0,181.0,102.0,185.0,102.0,189.0,102.0,193.0,102.0,197.0,102.0,201.0,102.0,205.0,102.0,209.0,102.0,213.0,102.0,217.0,102.0,221.0,102.0,225.0,102.0,229.0,102.0,233.0,102.0,237.0,102.0,241.0,102.0,245.0,102.0,249.0,102.0,253.0,102.0,257.0,102.0,261.0,102.0,265.0,102.0,269.0,102.0,273.0,102.0,277.0,102.0,281.0,102.0,285.0,102.0,289.0,102.0,293.0,102.0,297.0,102.0,301.0,102.0,305.0,102.0,309.0,102.0,313.0,102.0,317.0,102.0,321.0,102.0,325.0,102.0,329.0,102.0,333.0,102.0,337.0,102.0,341.0,102.0,345.0,102.0,349.0,102.0,353.0,102.0,357.0,102.0,361.0,102.0,365.0,102.0,369.0,102.0,373.0,102.0,377.0,104.0,379.0,108.0,378.5,112.0,377.0,114.0,372.5,118.0,375.0,122.0,373.5,126.0,371.0,130.0,368.0,131.0,366.0,134.5,366.5,138.5,365.0" stroke="black" stroke-width="1" fill="none" />
<polyline points="135.0,370.0,131.0,373.0,127.0,373.0,126.0,371.0,129.0,367.0,132.5,363.5,133.5,359.5,135.0,355.5,135.0,351.5,135.5,347.5,136.0,343.5,136.5,339.5,136.5,335.5,137.0,331.5,137.5,327.5,138.0,323.5,139.0,319.5,135.5,317.5,136.5,313.0,136.5,309.0,137.0,305.0,138.0,301.0,138.0,296.5,139.0,292.5,140.5,288.5,139.0,286.5,141.5,282.5,142.0,278.5,139.5,286.0,137.0,288.0,136.5,282.5,138.0,278.5,140.0,274.5,141.5,270.5,141.5,266.5,143.5,262.5,145.0,258.5,145.5,254.5,147.0,250.5,149.0,246.5,151.5,241.5,150.5,240.0,153.5,236.0,154.5,232.0,153.0,231.5,155.5,228.5,158.5,224.5,158.5,221.5,161.0,219.5,159.5,218.0,160.0,212.5,161.5,212.5,159.0,214.0,155.0,218.5" stroke="black" stroke-width="1" fill="none" />
<polyline points="156.5,214.5,160.5,209.0,164.5,204.0,168.0,195.0,167.0,199.0,165.0,203.0,163.0,207.0,163.0,211.0,161.0,215.0,157.5,219.5,155.5,223.5,152.0,226.5,151.0,230.5,149.0,234.5,147.5,238.5,147.0,242.5,147.0,246.5,144.5,250.5,143.5,254.5,143.5,258.5,145.0,265.0,144.5,269.0,145.0,273.0,144.5,277.0,139.5,278.5,138.0,282.5,135.5,287.0,135.5,291.0,135.0,295.0,134.5,299.0,134.0,303.0,135.0,305.0,134.5,309.0,134.5,313.0,134.0,317.0,134.0,321.0,134.5,325.0,135.5,329.0" stroke="black" stroke-width="1" fill="none" />
<polyline points="139.0,328.5,139.0,332.5,139.0,336.5,140.0,340.5,140.0,344.5,139.5,348.5,140.5,348.5,140.5,352.5,141.0,356.5,139.0,360.5,139.5,364.5,135.0,370.0" stroke="black" stroke-width="1" fill="none" />
<polyline points="141.0,369.0,143.0,365.0,145.0,362.0,143.5,362.0,145.0,360.5,146.5,356.5,144.5,353.0,144.0,349.0,144.0,345.0,143.0,341.0,145.0,339.5,142.0,337.5,141.5,333.5,142.5,329.5,142.5,325.5,141.5,324.0,142.0,320.0,138.0,316.0,138.0,312.0,138.0,308.0,138.0,304.0,133.5,303.5" stroke="black" stroke-width="1" fill="none" />
<polyline points="137.5,283.0,141.5,277.0" stroke="black" stroke-width="1" fill="none" />
<polyline points="140.5,273.0,136.5,281.5" stroke="black" stroke-width="1" fill="none" />
<polyline points="145.5,254.0,149.5,247.0,152.0,243.5,148.0,244.0,152.0,238.0,155.0,238.0" stroke="black" stroke-width="1" fill="none" />
<polyline points="154.0,231.0,157.0,231.5,158.5,227.5,156.5,224.0" stroke="black" stroke-width="1" fill="none" />
<polyline points="162.0,202.0,162.5,199.0,166.5,194.5,170.5,189.5" stroke="black" stroke-width="1" fill="none" />
<polyline points="174.5,170.5,171.0,180.5,170.0,188.0,168.5,189.0,171.0,188.5,172.0,185.5,174.0,181.5,173.0,181.0,174.5,177.0,176.0,174.5,177.5,170.5,178.0,165.5,179.0,161.5,180.5,157.5,183.0,153.5,180.5,157.5" stroke="black" stroke-width="1" fill="none" />
<polyline points="179.0,155.5,183.0,150.0,187.0,146.5,191.0,143.5,195.0,139.5,199.0,137.0,202.0,134.0,196.5,136.0,191.5,140.0,190.0,141.5,194.0,138.5,198.5,136.0,202.5,134.0,205.5,138.5,209.5,138.0,213.5,139.0" stroke="black" stroke-width="1" fill="none" />
<polyline points="213.0,134.0,209.0,134.5" stroke="black" stroke-width="1" fill="none" />
<polyline points="211.5,137.5,207.5,137.5,203.5,138.0,199.5,139.0" stroke="black" stroke-width="1" fill="none" />
<polyline points="203.0,134.5,197.0,138.5,192.0,142.5,186.5,146.5,183.0,150.5,180.0,154.5,178.5,158.5,177.0,162.5,176.5,166.5,174.5,170.5,173.0,174.5,171.0,178.5,169.5,182.5,168.0,186.5,167.0,190.5,166.5,194.5,162.5,197.5,161.0,201.5,161.0,205.5,158.5,211.5,156.5,215.5,155.0,219.5,153.0,223.5,150.0,227.5,150.0,227.5,152.0,226.5,156.0,222.0,160.0,217.0,163.0,211.0" stroke="black" stroke-width="1" fill="none" />
<polyline points="179.5,215.5,175.5,218.5,174.5,219.0,180.0,215.0" stroke="black" stroke-width="1" fill="none" />
<polyline points="204.5,209.0,204.5,205.0" stroke="black" stroke-width="1" fill="none" />
<polyline points="222.0,209.0,217.0,213.0,214.0,217.0,217.5,212.5,221.5,209.5,225.5,208.5,229.5,208.5,233.5,209.0,237.5,210.0,241.5,211.0,245.5,211.0,249.5,212.0" stroke="black" stroke-width="1" fill="none" />
<polyline points="254.5,211.0,254.5,209.5,253.5,207.0,249.5,206.5,245.5,206.0" stroke="black" stroke-width="1" fill="none" />
<polyline points="244.5,215.5,240.5,215.5" stroke="black" stroke-width="1" fill="none" />
<polyline points="241.0,219.5,248.0,223.5" stroke="black" stroke-width="1" fill="none" />
<polyline points="242.5,226.5,246.5,229.0,250.5,231.0" stroke="black" stroke-width="1" fill="none" />
<polyline points="244.5,230.0,239.5,228.0,237.0,229.5,241.0,229.0,237.0,225.0,235.5,226.5" stroke="black" stroke-width="1" fill="none" />
<polyline points="238.5,231.5,234.5,232.0,230.5,229.5,226.5,228.5" stroke="black" stroke-width="1" fill="none" />
<polyline points="227.5,227.5,228.0,231.5,227.0,234.5,231.0,234.5" stroke="black" stroke-width="1" fill="none" />
<polyline points="231.0,232.0,229.5,228.0" stroke="black" stroke-width="1" fill="none" />
<polyline points="230.5,221.0,221.5,225.0,223.0,221.0,227.0,218.5,231.0,218.0,235.0,217.5,239.0,217.5,243.0,218.5,247.0,220.5" stroke="black" stroke-width="1" fill="none" />
<polyline points="249.5,224.5,245.5,221.5,241.5,219.5,237.5,218.5,233.5,218.5,229.5,219.5" stroke="black" stroke-width="1" fill="none" />
<polyline points="225.5,220.5,224.5,219.5,220.0,223.5,215.5,226.0,215.0,230.0,220.0,234.0,221.0,236.5,226.0,234.5,229.0,232.0,233.0,233.0,237.0,233.0,240.0,234.0,244.0,232.0,248.0,231.5" stroke="black" stroke-width="1" fill="none" />
<polyline points="252.0,228.5,248.0,226.5,244.0,224.0,240.0,222.5,236.0,221.0,232.0,221.0,228.0,222.0,224.0,223.5,218.5,224.0,214.5,227.0" stroke="black" stroke-width="1" fill="none" />
<polyline points="213.5,229.0,217.5,231.0" stroke="black" stroke-width="1" fill="none" />
<polyline points="241.5,223.0,248.0,227.0,247.5,229.5" stroke="black" stroke-width="1" fill="none" />
<polyline points="277.0,224.5,277.0,220.5,279.5,216.5,282.5,212.5,286.5,208.5,285.0,209.0,281.0,214.5,277.0,220.5" stroke="black" stroke-width="1" fill="none" />
<polyline points="286.5,223.0,290.5,220.0,294.5,218.5,289.0,221.0,285.5,226.5,289.5,223.0,293.5,220.0,297.5,219.0,301.5,219.0,305.5,219.0,305.5,220.0" stroke="black" stroke-width="1" fill="none" />
<polyline points="303.0,228.5,302.0,232.5" stroke="black" stroke-width="1" fill="none" />
<polyline points="306.0,235.0,302.0,236.0,298.0,236.0,296.0,234.0,292.0,234.5" stroke="black" stroke-width="1" fill="none" />
<polyline points="286.0,232.5,290.0,231.0,286.0,230.5,286.0,230.5,290.0,228.5,292.0,232.0,290.5,233.0,294.5,233.0,298.5,233.5,302.5,231.0,303.0,233.0,304.0,229.0,305.0,233.0" stroke="black" stroke-width="1" fill="none" />
<polyline points="314.0,225.0,310.5,226.0,316.0,229.0,313.0,233.5,312.5,234.0,315.5,233.0,319.5,232.0" stroke="black" stroke-width="1" fill="none" />
<polyline points="317.5,215.0,313.5,210.5,309.5,208.5,305.5,208.5,301.5,209.0,297.5,210.5,293.5,212.0,289.5,213.0,285.5,213.0" stroke="black" stroke-width="1" fill="none" />
<polyline points="281.5,208.5,285.5,207.0,289.5,207.0,291.5,205.0,295.5,205.0,299.5,203.0,301.0,203.5,305.0,203.0,309.0,203.0,313.0,206.0,317.0,210.5" stroke="black" stroke-width="1" fill="none" />
<polyline points="311.0,209.0,316.0,213.0,318.5,217.0" stroke="black" stroke-width="1" fill="none" />
<polyline points="314.0,229.0,312.5,226.0,308.5,224.5,304.5,223.5,300.5,222.5,296.5,223.0,292.5,224.5,288.5,227.0,284.5,229.0,281.5,231.0,287.5,227.0,296.0,223.0" stroke="black" stroke-width="1" fill="none" />
<polyline points="296.5,219.0,289.0,223.0,284.5,227.0" stroke="black" stroke-width="1" fill="none" />
<polyline points="282.5,261.0,282.5,265.0,280.5,269.0,281.0,269.0" stroke="black" stroke-width="1" fill="none" />
<polyline points="276.0,267.0,272.0,266.0" stroke="black" stroke-width="1" fill="none" />
<polyline points="270.0,264.5,274.0,263.0,278.0,263.5" stroke="black" stroke-width="1" fill="none" />
<polyline points="262.0,266.0,258.0,266.0" stroke="black" stroke-width="1" fill="none" />
<polyline points="257.0,270.0,253.0,267.0" stroke="black" stroke-width="1" fill="none" />
<polyline points="253.0,265.5,255.0,269.5" stroke="black" stroke-width="1" fill="none" />
<polyline points="261.0,262.0,258.5,265.5,258.5,263.5,262.5,262.5" stroke="black" stroke-width="1" fill="none" />
<polyline points="268.0,280.0,264.0,279.5,261.5,281.5,257.5,281.0" stroke="black" stroke-width="1" fill="none" />
<polyline points="258.0,289.5,250.5,293.5" stroke="black" stroke-width="1" fill="none" />
<polyline points="244.0,294.5,248.0,299.0,252.0,301.0,256.0,302.5,260.0,303.5,264.0,302.5,268.0,302.5,272.0,302.5,276.0,301.0" stroke="black" stroke-width="1" fill="none" />
<polyline points="284.0,301.0,280.0,302.0,276.0,303.5,272.0,304.5,268.0,304.5,264.0,304.0" stroke="black" stroke-width="1" fill="none" />
<polyline points="243.0,292.5,247.0,293.0,251.0,292.5,255.0,291.0,259.0,289.5,263.0,289.5,267.0,290.0,271.0,290.0,275.0,289.5,279.0,289.5,283.0,291.0,287.0,292.5,291.0,292.5" stroke="black" stroke-width="1" fill="none" />
<polyline points="292.5,289.0,288.5,285.0,284.5,282.0,280.5,280.0" stroke="black" stroke-width="1" fill="none" />
<polyline points="280.5,280.0,286.5,284.0,290.5,288.0,292.0,292.0" stroke="black" stroke-width="1" fill="none" />
<polyline points="322.0,285.5,326.0,276.5" stroke="black" stroke-width="1" fill="none" />
<polyline points="328.5,263.5,327.0,261.5" stroke="black" stroke-width="1" fill="none" />
<polyline points="355.0,254.0,356.5,258.0" stroke="black" stroke-width="1" fill="none" />
<polyline points="355.5,258.5,355.0,257.5,355.0,253.5" stroke="black" stroke-width="1" fill="none" />
<polyline points="369.0,255.0,369.5,259.0,369.5,263.0,368.5,265.5" stroke="black" stroke-width="1" fill="none" />
<polyline points="371.5,264.5,371.0,263.0,372.5,259.0,372.0,255.0,371.5,251.0,369.5,248.5" stroke="black" stroke-width="1" fill="none" />
<polyline points="376.0,252.5,378.0,257.5,378.0,261.5,378.5,265.5,379.0,269.5,379.5,273.5,380.0,277.5,380.5,281.5,380.5,285.5,380.5,289.5,380.5,293.5,380.5,297.5,380.0,301.5,380.0,305.5,380.0,309.5,378.5,313.5,378.5,317.5,377.0,321.5,378.5,322.0,379.0,326.0,380.0,330.0,380.5,334.0,381.5,338.0,386.0,345.0,390.0,354.0" stroke="black" stroke-width="1" fill="none" />
<polyline points="384.0,359.0,388.0,362.0" stroke="black" stroke-width="1" fill="none" />
<polyline points="391.5,363.0,389.5,365.5,390.5,359.5,390.5,355.5,388.5,351.5,387.0,347.5,381.5,345.0,377.5,339.0" stroke="black" stroke-width="1" fill="none" />
<polyline points="378.0,334.0,374.0,329.0" stroke="black" stroke-width="1" fill="none" />
<polyline points="373.5,327.5,377.5,327.0" stroke="black" stroke-width="1" fill="none" />
<polyline points="376.5,325.0,378.0,329.0,378.0,336.0,381.0,340.0,382.0,344.0,382.0,348.5,383.0,352.5,382.5,358.0,383.0,362.0,386.0,361.0,387.5,364.0,387.0,368.0,385.5,370.0,383.5,374.0,387.0,376.0,384.5,375.0,388.0,373.0,392.0,369.5" stroke="black" stroke-width="1" fill="none" />
<polyline points="378.5,377.5,378.0,373.5,377.0,369.5,376.5,365.5,375.5,361.5,376.0,357.5,375.0,353.5,374.5,353.0" stroke="black" stroke-width="1" fill="none" />
<polyline points="374.0,351.5,378.0,355.0,382.0,357.5,386.0,358.5,390.0,361.5" stroke="black" stroke-width="1" fill="none" />
<polyline points="382.0,348.0,379.5,342.5,381.0,340.0,378.0,334.5,375.0,330.5,371.0,331.5" stroke="black" stroke-width="1" fill="none" />
<polyline points="364.0,328.0,364.0,332.0,364.5,336.0,365.0,340.0,365.5,344.0" stroke="black" stroke-width="1" fill="none" />
<polyline points="370.5,343.0,374.5,348.0,378.5,351.5,382.5,354.5" stroke="black" stroke-width="1" fill="none" />
<polyline points="379.0,359.0,374.5,358.5,373.0,354.5,371.5,350.5,370.5,348.5" stroke="black" stroke-width="1" fill="none" />
<polyline points="376.5,353.0,379.0,357.0,379.0,363.0,380.5,364.0,381.5,366.5,378.5,366.5,382.0,363.0" stroke="black" stroke-width="1" fill="none" />
<polyline points="387.5,366.0,383.5,366.5,383.0,361.5,381.5,355.0,377.0,351.0,374.5,348.5,370.5,344.5,369.5,340.5" stroke="black" stroke-width="1" fill="none" />
<polyline points="381.0,314.5,381.5,318.5,382.0,322.5,382.5,326.5,383.0,330.5,383.0,334.5,383.5,338.5,384.0,342.5,383.5,346.5,384.5,350.5,384.0,354.5,387.5,360.0,392.0,364.0,393.0,368.0,390.0,372.0,389.0,376.0" stroke="black" stroke-width="1" fill="none" />
<polyline points="409.5,377.5,409.5,373.5,409.5,369.5,409.5,365.5,409.5,361.5,409.5,357.5,409.5,353.5,409.5,349.5,409.5,345.5,409.5,341.5,409.5,337.5,409.5,333.5,409.5,329.5,409.5,325.5,409.5,321.5,409.5,317.5,409.5,313.5,409.5,309.5,409.5,305.5,409.5,301.5,409.5,297.5,409.5,293.5,409.5,289.5,409.5,285.5,409.5,281.5,409.5,277.5,409.5,273.5,409.5,269.5,409.0,265.5,409.5,261.5,409.5,257.5,409.5,253.5,409.5,249.5,409.5,245.5,409.5,241.5,409.5,237.5,409.5,233.5,409.5,229.5,409.5,225.5,409.5,221.5,409.5,217.5,409.5,213.5,409.5,209.5,409.5,205.5,409.5,201.5,409.5,197.5,409.5,193.5,409.5,189.5,409.5,185.5,409.5,181.5,409.5,177.5,409.5,173.5,409.5,169.5,409.5,165.5,409.5,161.5,409.5,157.5,409.5,153.5,409.5,149.5,409.5,145.5,409.5,141.5,409.5,137.5,409.0,133.5,406.0,133.0,402.0,133.0,398.0,133.0,394.0,133.0,390.0,133.0,386.0,133.0,382.0,133.0,378.0,133.0,374.0,133.0,370.0,133.0,366.0,133.0,362.0,133.0,358.0,133.0,354.0,133.0,350.0,133.0,346.0,132.5,342.0,132.5,338.0,132.5,334.0,133.0,330.0,132.5,326.0,133.0,322.0,132.5,318.0,132.5,314.0,133.0,310.0,133.0,306.0,133.0,302.0,133.0,298.0,133.0,294.0,132.5,290.0,133.0,286.0,133.0,282.0,132.5,278.0,132.5,274.0,132.5,270.0,132.5,266.0,133.0,262.0,133.0,258.0,133.0,254.0,133.0,250.0,133.0,246.0,133.0,242.0,133.0,238.0,133.0,234.0,133.0,230.0,133.0,226.0,132.5,222.0,132.5,218.0,132.5,214.0,132.5,210.0,132.5,206.0,133.0,202.0,132.5,198.0,133.0,194.0,132.5,190.0,133.0,186.0,133.0,182.0,132.5,178.0,133.0,174.0,133.0,170.0,133.0,166.0,133.0,162.0,133.0,158.0,133.0,154.0,133.0,150.0,133.0,146.0,133.0,142.0,133.0,138.0,133.0,134.0,133.0,130.0,133.0,126.0,133.0,122.0,133.0,118.0,133.0,114.0,133.0,110.0,133.0,106.0,133.0,102.0,134.0" stroke="black" stroke-width="1" fill="none" />
<polyline points="209.0,187.5,213.0,183.5" stroke="black" stroke-width="1" fill="none" />
<polyline points="215.5,176.5,219.5,175.0,220.5,174.0,216.5,171.5,221.0,165.5,224.0,161.5,228.0,159.0,232.0,157.5,236.0,155.5,240.0,154.5,244.0,153.0,248.0,152.0,252.0,151.5,256.0,151.5,260.0,151.0,264.0,151.0,268.0,151.0,272.0,151.0,273.0,149.0,277.0,150.0,281.0,150.5,285.0,152.5,289.0,154.5,293.0,157.0,297.0,160.5,301.0,163.5,305.0,167.0,309.0,172.0,313.0,176.0,316.0,182.0,320.0,188.5" stroke="black" stroke-width="1" fill="none" />
<polyline points="309.5,203.5,314.0,207.5,317.0,211.5,319.5,215.5,318.5,218.5" stroke="black" stroke-width="1" fill="none" />
<polyline points="363.5,209.5,365.0,213.5,366.5,214.5,372.5,220.5,376.5,229.0" stroke="black" stroke-width="1" fill="none" />
<polyline points="374.5,233.0,373.5,229.0,369.0,225.0" stroke="black" stroke-width="1" fill="none" />
<polyline points="368.5,220.0,368.5,224.0,369.0,228.0,370.5,232.0,371.5,236.0,373.0,240.0,374.0,244.0,375.0,248.0,375.5,252.0,375.5,256.0,375.5,260.0,373.0,264.0,374.5,264.0,375.0,268.0,375.0,272.0,374.5,276.0,375.0,280.0,375.0,284.0,374.5,288.0,374.5,292.0,373.0,296.0,375.5,294.0,378.0,296.0,376.5,297.5,377.5,301.5,378.0,305.5,377.5,309.5,377.0,313.5,375.0,317.5,371.5,319.0,372.5,322.5,371.5,326.5,370.0,328.5,370.5,327.5,374.5,323.5" stroke="black" stroke-width="1" fill="none" />
<polyline points="381.5,327.0,380.5,323.0,380.5,319.0,380.0,315.0,380.5,311.0" stroke="black" stroke-width="1" fill="none" />
<polyline points="373.5,303.5,373.5,299.5,372.5,298.0" stroke="black" stroke-width="1" fill="none" />
<polyline points="365.0,310.5,366.5,306.5,368.5,306.5,367.5,311.0,368.5,307.0,372.5,305.5,371.5,301.5,371.0,297.5,370.5,293.5,370.5,289.5,370.5,285.5,369.5,281.5,370.5,277.5,371.0,273.5,370.5,269.5,368.5,266.5,367.5,262.5,367.5,258.5,367.5,254.5,370.0,253.0,369.5,249.0,372.0,245.0,370.5,244.0,368.5,243.0,370.5,238.5,366.5,233.5" stroke="black" stroke-width="1" fill="none" />
<polyline points="375.5,262.0,376.5,266.0,376.5,270.0,376.5,274.0,377.5,278.0,376.5,282.0,378.0,283.5,377.5,287.5,378.0,291.5,376.5,295.5,375.0,299.0,375.0,303.0,374.0,307.0,373.0,311.0,374.5,315.0,373.5,322.0,373.5,325.5,371.5,329.5,371.0,333.5,372.0,339.5,372.5,343.5,375.0,345.5" stroke="black" stroke-width="1" fill="none" />
<polyline points="407.5,378.5,403.5,379.0,399.5,378.5,395.5,379.0,391.5,378.5,387.5,378.5,383.5,379.0,379.5,378.5,375.5,379.0,371.5,379.0,367.5,379.0,363.5,379.0,359.5,379.0,355.5,379.0,351.5,379.0,347.5,379.0,343.5,379.0,339.5,379.0,335.5,378.5,331.5,379.0,327.5,379.0,323.5,379.0,319.5,379.0,315.5,379.0,311.5,379.0,307.5,378.5,303.5,379.0,299.5,378.5,295.5,378.5,291.5,379.0,287.5,378.5,283.5,378.5,279.5,378.5,275.5,378.5,271.5,379.0,267.5,378.5,263.5,379.0,259.5,378.5,255.5,379.0,251.5,379.0,247.5,379.0,243.5,379.0,239.5,378.5,235.5,378.5,231.5,378.5,227.5,378.5,223.5,378.5,219.5,378.5,215.5,379.0,211.5,379.0,207.5,379.0,203.5,379.0,199.5,379.0,195.5,379.0,191.5,379.0,187.5,379.0,183.5,379.0,179.5,379.0,175.5,379.0,171.5,379.0,167.5,379.0,163.5,379.0,159.5,379.0,155.5,379.0,151.5,379.0,147.5,379.0,143.5,379.0,139.5,379.0,135.5,379.0,131.5,379.0,127.5,378.5,123.5,378.5,119.5,379.0,115.5,378.5,111.5,378.5,113.5,376.0,113.0,372.0,112.5,368.0" stroke="black" stroke-width="1" fill="none" />
<polyline points="114.0,372.5,119.0,377.0,123.0,375.5,127.0,375.0" stroke="black" stroke-width="1" fill="none" />
<polyline points="127.5,366.5,133.0,368.5,131.5,372.5,128.5,373.0,131.0,374.5,135.0,373.0,139.0,370.5,143.0,369.5,140.5,373.5,144.0,369.0,150.5,369.5" stroke="black" stroke-width="1" fill="none" />
<polyline points="154.5,363.5,153.5,362.5,152.5,358.5,153.0,356.5,155.0,352.5,156.0,354.5,153.0,355.0" stroke="black" stroke-width="1" fill="none" />
<polyline points="145.5,358.5,143.5,361.5,143.5,355.0,142.0,351.0,142.0,347.0,142.0,343.0,143.5,339.0,144.5,335.0,146.0,329.0,142.0,327.5" stroke="black" stroke-width="1" fill="none" />
<polyline points="143.0,322.5,144.5,325.5,146.0,329.0,146.0,333.0,143.5,335.5" stroke="black" stroke-width="1" fill="none" />
<polyline points="137.0,343.5,138.0,347.5,138.0,351.5,138.5,355.5,137.5,359.5,140.5,361.5" stroke="black" stroke-width="1" fill="none" />
<polyline points="222.5,359.5,221.0,355.5,220.5,351.5,220.5,347.5,219.5,343.5,218.5,339.5,218.5,335.5" stroke="black" stroke-width="1" fill="none" />
<polyline points="213.5,312.0,209.5,306.5" stroke="black" stroke-width="1" fill="none" />
<polyline points="241.0,292.0,245.0,287.0,249.0,284.5,245.0,287.0,241.5,291.0,245.0,296.0,249.0,300.0" stroke="black" stroke-width="1" fill="none" />
<polyline points="205.0,279.5,201.0,278.0,197.0,274.0" stroke="black" stroke-width="1" fill="none" />
<polyline points="202.5,271.0,198.5,269.5,198.0,267.5,194.0,266.0" stroke="black" stroke-width="1" fill="none" />
<polyline points="193.5,265.5,199.0,266.0,197.0,269.0,196.5,273.0,199.0,277.0,205.0,281.0,206.0,285.0,206.5,289.0,207.0,293.0,207.0,297.0,208.0,301.0,209.0,305.0,211.0,309.0,214.5,313.0" stroke="black" stroke-width="1" fill="none" />
<polyline points="198.0,265.0,194.0,263.0" stroke="black" stroke-width="1" fill="none" />
<polyline points="182.0,260.5,182.5,264.5,183.0,268.5,182.5,272.5,183.0,276.5,181.5,277.0,182.0,281.0" stroke="black" stroke-width="1" fill="none" />
<polyline points="180.5,280.0,180.0,276.0,179.5,272.0,180.5,268.0,180.5,264.0,180.5,260.0" stroke="black" stroke-width="1" fill="none" />
<polyline points="153.0,242.5,149.0,245.0,144.5,250.0" stroke="black" stroke-width="1" fill="none" />
<polyline points="227.0,203.0,220.5,207.0,216.5,211.0,213.0,215.0,216.5,211.0,220.5,207.0,224.5,204.5,228.5,203.0,232.5,201.5,235.0,203.0,239.0,203.0,243.0,204.0,247.0,205.0" stroke="black" stroke-width="1" fill="none" />
<polyline points="226.5,159.0,223.0,163.0,218.5,168.5,216.5,172.5,215.0,176.5,214.0,180.5,213.0,184.5,211.0,188.5,210.5,192.5,209.0,196.5,207.0,200.5,204.5,204.5,202.5,208.5,201.5,212.5,201.5,216.5,201.5,220.5,201.5,224.5,201.0,228.5,201.0,232.5,201.0,236.5,200.5,240.5,200.5,244.5,200.5,248.5,201.0,252.5" stroke="black" stroke-width="1" fill="none" />
<polyline points="252.0,140.0,248.0,137.5" stroke="black" stroke-width="1" fill="none" />
<polyline points="247.0,136.0,251.0,138.0" stroke="black" stroke-width="1" fill="none" />
<polyline points="249.0,137.0,243.0,134.5" stroke="black" stroke-width="1" fill="none" />
<polyline points="250.5,134.5,253.5,138.5" stroke="black" stroke-width="1" fill="none" />
<polyline points="254.5,138.5,250.5,134.5" stroke="black" stroke-width="1" fill="none" />
<polyline points="262.0,134.5,263.5,134.5,264.5,137.0" stroke="black" stroke-width="1" fill="none" />
<polyline points="266.0,136.5,262.0,134.5" stroke="black" stroke-width="1" fill="none" />
<polyline points="287.5,153.5,293.0,157.5,298.5,161.5,302.5,165.5,306.5,169.5,310.5,173.5,312.5,178.0,315.5,182.0,318.5,186.0,320.5,190.0,321.0,194.0,321.5,198.0,323.0,202.0,324.5,206.0,325.0,210.0,325.5,214.0,326.5,220.5,326.5,224.5,326.5,228.5,326.5,232.5,327.0,236.5,327.0,240.5,328.0,244.5,328.0,248.5,327.5,252.5,326.5,256.5,326.0,260.5,327.0,264.0,327.5,269.0,329.5,271.5,328.0,275.5,324.5,280.0,322.5,284.0,321.5,288.0,321.0,292.0,320.5,296.0,319.5,300.0,317.5,304.0,316.0,308.0,313.5,312.0,309.5,316.0,310.0,316.0,314.0,311.0,318.0,303.0" stroke="black" stroke-width="1" fill="none" />
<polyline points="379.0,294.5,379.0,290.5,379.0,286.5,379.0,282.5" stroke="black" stroke-width="1" fill="none" />
<polyline points="358.5,181.5,354.5,174.0" stroke="black" stroke-width="1" fill="none" />
<polyline points="352.0,178.0,356.0,180.5,358.0,184.5" stroke="black" stroke-width="1" fill="none" />
<polyline points="357.0,188.5,356.0,184.5,353.0,180.5,353.0,174.0,349.0,167.5,345.0,163.0" stroke="black" stroke-width="1" fill="none" />
<polyline points="345.0,163.0,348.5,167.0,351.0,171.0,353.0,175.0,354.5,175.5,356.5,177.5,358.0,181.5,359.5,185.5,360.5,189.5,362.0,193.5,365.0,197.5,365.0,201.5,366.5,205.5,368.0,209.5,369.0,213.5,370.5,217.5,372.5,221.5,374.5,225.5,376.5,229.5" stroke="black" stroke-width="1" fill="none" />
<polyline points="357.5,171.5,353.5,164.5,350.0,160.0,346.0,155.5,342.0,152.5,338.0,148.5" stroke="black" stroke-width="1" fill="none" />
<polyline points="339.0,147.5,344.0,151.5,349.0,155.5" stroke="black" stroke-width="1" fill="none" />
<polyline points="348.5,154.5,344.5,151.5,340.5,148.0,336.5,147.5,333.0,144.0,328.5,140.5,324.5,139.5,321.5,142.0,317.5,144.5,315.0,145.5,318.5,142.0,321.0,136.0,317.0,136.0,313.0,138.5" stroke="black" stroke-width="1" fill="none" />
<polyline points="309.5,135.5,313.5,135.0,317.5,134.0" stroke="black" stroke-width="1" fill="none" />
<polyline points="319.0,141.0,323.0,139.0,319.5,144.0,320.5,139.0,324.5,138.0,328.5,138.5" stroke="black" stroke-width="1" fill="none" />
<polyline points="328.5,147.0,324.5,147.5,320.5,148.0" stroke="black" stroke-width="1" fill="none" />
<polyline points="321.5,149.0,325.5,148.5" stroke="black" stroke-width="1" fill="none" />
<polyline points="335.5,145.0,338.5,149.0,342.5,153.0,346.5,157.0,350.5,161.0,351.5,162.5,354.5,165.5,356.5,169.5,358.5,173.5,360.5,177.5,361.5,181.5,363.0,185.5,363.0,189.5,363.0,194.5,363.0,198.5,366.0,203.0" stroke="black" stroke-width="1" fill="none" />
<polyline points="321.5,134.5,320.0,138.0,316.0,138.5,313.5,140.5,313.0,142.5,309.5,140.5,308.0,136.5,304.0,139.5,303.0,140.0,306.5,136.0,309.0,134.5,306.5,135.5" stroke="black" stroke-width="1" fill="none" />
<polyline points="306.0,141.0,306.0,143.0,310.0,141.0" stroke="black" stroke-width="1" fill="none" />
<polyline points="309.0,145.0,307.0,143.5,304.5,141.0,311.5,140.5,316.0,136.5,311.5,137.5,307.5,139.5,303.5,142.5" stroke="black" stroke-width="1" fill="none" />
<polyline points="298.0,136.0,298.0,134.5" stroke="black" stroke-width="1" fill="none" />
<polyline points="296.5,133.0,294.5,137.0" stroke="black" stroke-width="1" fill="none" />
<polyline points="294.5,133.0,293.0,137.0,295.5,135.0,298.5,137.5" stroke="black" stroke-width="1" fill="none" />
</svg>