<svg xmlns="http://www.w3.org/2000/svg" height="511px" width="510px" version="1.1"><polyline points="286.5,29.5,285.5,33.5,287.5,32.5,292.0,33.5,294.5,37.0" stroke="black" stroke-width="1" fill="none" />
<polyline points="306.5,51.0,308.5,53.0,309.0,57.5,312.5,59.5,311.0,63.5,314.5,66.5,315.0,70.5,316.5,74.5,317.5,78.5,316.5,82.5" stroke="black" stroke-width="1" fill="none" />
<polyline points="301.0,74.5,303.0,79.5,306.5,80.5,306.5,84.5,308.5,86.0,309.0,90.0,312.5,95.0,312.5,99.0,313.0,103.0,314.5,103.5,315.0,107.5,316.5,109.0,318.5,112.5,319.0,116.5,314.5,123.0" stroke="black" stroke-width="1" fill="none" />
<polyline points="312.5,125.5,308.5,125.5" stroke="black" stroke-width="1" fill="none" />
<polyline points="312.0,143.5,316.0,143.5,320.0,144.0" stroke="black" stroke-width="1" fill="none" />
<polyline points="311.0,151.5,311.0,148.5,307.0,147.5" stroke="black" stroke-width="1" fill="none" />
<polyline points="307.0,147.5,305.0,151.5" stroke="black" stroke-width="1" fill="none" />
<polyline points="299.0,159.0,303.0,159.5,304.5,157.0,308.5,157.0,313.5,157.0,317.5,157.0,321.5,157.0" stroke="black" stroke-width="1" fill="none" />
<polyline points="315.0,141.5,311.0,142.0,307.0,141.5,303.0,141.5,299.0,141.5" stroke="black" stroke-width="1" fill="none" />
<polyline points="293.0,139.5,297.0,139.5,301.0,140.0,307.0,137.5,311.0,137.5,315.0,138.0,319.0,138.0,322.0,139.5,326.0,140.0,330.0,144.0,332.0,147.0,336.0,147.5,340.0,147.5" stroke="black" stroke-width="1" fill="none" />
<polyline points="339.5,147.5,340.0,151.5,340.0,155.5,340.0,159.5,340.0,163.5,340.0,167.5,340.5,171.5,340.5,175.5,340.5,179.5,340.5,183.5,340.5,187.5,340.0,191.5,340.0,195.5,342.5,196.5,342.5,200.5,342.0,204.5,340.0,208.5,338.5,210.0,336.5,214.0,336.5,218.0,336.0,222.0,335.0,226.0,334.5,230.0,333.0,234.0,331.0,238.0,330.5,242.0,327.0,246.0,324.5,250.0,321.0,251.0,321.0,253.0,320.5,256.0,317.0,260.0,318.0,264.0,311.0,266.0,309.0,270.0,305.0,274.0,301.5,278.0,295.5,281.5,289.5,285.5,293.5,283.5,297.5,281.5,301.5,277.5,305.5,273.5,309.5,270.0" stroke="black" stroke-width="1" fill="none" />
<polyline points="312.5,266.0,312.5,270.0,310.5,273.5,308.5,276.0,307.0,280.0,309.0,282.0,308.5,278.5" stroke="black" stroke-width="1" fill="none" />
<polyline points="310.0,281.0,312.5,277.0" stroke="black" stroke-width="1" fill="none" />
<polyline points="319.0,279.0,319.0,279.0,320.5,283.0,325.5,285.0,326.5,289.0,325.0,289.5,324.5,293.5,328.5,296.0,328.5,300.0,329.0,304.0,329.0,308.0" stroke="black" stroke-width="1" fill="none" />
<polyline points="330.0,303.5,332.5,305.5,332.5,309.5,333.0,313.5,332.5,317.5,332.5,321.5,332.5,325.5,336.0,330.5,335.0,334.5,335.0,338.5,334.5,342.5,335.0,346.5,334.0,352.0,330.5,356.0,330.5,356.5,334.5,358.5" stroke="black" stroke-width="1" fill="none" />
<polyline points="330.5,355.5,334.5,352.0" stroke="black" stroke-width="1" fill="none" />
<polyline points="331.5,350.5,327.5,350.5,326.5,353.5" stroke="black" stroke-width="1" fill="none" />
<polyline points="324.5,355.5,328.5,352.5,326.5,353.5,325.0,357.5,325.5,358.0,327.0,360.0" stroke="black" stroke-width="1" fill="none" />
<polyline points="332.5,369.0,332.5,373.0,331.0,377.0,331.0,381.0,330.5,385.0,328.5,389.0,328.5,393.0,326.5,397.0,325.0,401.0,324.5,405.0,322.5,409.0,321.0,413.0,320.5,417.0" stroke="black" stroke-width="1" fill="none" />
<polyline points="317.0,426.5,316.5,430.5" stroke="black" stroke-width="1" fill="none" />
<polyline points="305.0,457.0,303.5,461.0,301.5,465.0,299.5,469.0,297.5,473.0" stroke="black" stroke-width="1" fill="none" />
<polyline points="291.5,484.5,293.5,482.0,291.5,486.0,289.0,491.0,285.0,495.5,283.0,499.5,281.0,503.5,284.0,498.0" stroke="black" stroke-width="1" fill="none" />
<polyline points="285.5,505.0,285.0,509.0" stroke="black" stroke-width="1" fill="none" />
<polyline points="275.5,507.5,275.0,503.5" stroke="black" stroke-width="1" fill="none" />
<polyline points="287.0,492.5,289.0,488.5,289.0,484.5" stroke="black" stroke-width="1" fill="none" />
<polyline points="275.0,476.0,275.0,480.0,275.0,484.0,275.5,488.0,275.5,492.0,275.5,496.0,277.0,497.0,277.0,501.0,277.0,505.0,277.0,509.0" stroke="black" stroke-width="1" fill="none" />
<polyline points="270.0,475.5,270.0,471.5,270.0,467.5,271.5,463.5,270.0,463.0,270.0,459.0,269.5,455.0,269.5,451.0,264.0,450.0" stroke="black" stroke-width="1" fill="none" />
<polyline points="265.5,444.0,265.5,440.0" stroke="black" stroke-width="1" fill="none" />
<polyline points="261.5,429.0,261.5,433.0,262.0,437.0,259.5,438.5,260.0,442.5,262.0,446.5,263.5,448.5,264.0,452.5,268.0,455.0,267.5,459.5,268.0,463.5,268.0,467.5" stroke="black" stroke-width="1" fill="none" />
<polyline points="271.5,464.5,272.0,468.5,273.0,472.0,273.0,476.0,273.0,480.0,273.5,487.0,273.5,491.0,273.0,495.0,273.5,499.0,273.5,503.0,273.5,507.0" stroke="black" stroke-width="1" fill="none" />
<polyline points="272.0,486.5,272.0,482.5,271.5,478.5,271.5,474.5" stroke="black" stroke-width="1" fill="none" />
<polyline points="295.0,492.0,295.5,488.0,297.5,484.0,299.5,480.0,301.5,476.0,306.0,472.0,306.5,468.0,307.0,464.0" stroke="black" stroke-width="1" fill="none" />
<polyline points="266.0,458.0,265.5,454.0,267.5,450.0,266.0,447.5,264.0,443.5,263.5,439.5,260.0,435.0,260.0,431.0,259.5,427.0" stroke="black" stroke-width="1" fill="none" />
<polyline points="257.5,423.0,257.5,427.0,257.5,431.0" stroke="black" stroke-width="1" fill="none" />
<polyline points="241.5,410.0,241.5,406.5,242.0,402.5,244.0,402.5,240.0,401.0,236.0,399.5,232.0,399.5,228.0,400.0" stroke="black" stroke-width="1" fill="none" />
<polyline points="230.0,400.5,230.0,404.5,230.0,408.5" stroke="black" stroke-width="1" fill="none" />
<polyline points="228.5,407.5,228.5,403.5" stroke="black" stroke-width="1" fill="none" />
<polyline points="225.5,403.5,229.5,403.0,231.5,403.5,232.5,407.5,232.5,411.5,232.0,415.5,232.0,419.5,232.5,423.5,232.0,427.5,232.0,431.5" stroke="black" stroke-width="1" fill="none" />
<polyline points="220.0,427.5,222.0,424.0,224.0,419.0,224.0,415.0" stroke="black" stroke-width="1" fill="none" />
<polyline points="212.0,401.5,208.0,399.5" stroke="black" stroke-width="1" fill="none" />
<polyline points="212.0,402.5,208.5,401.0,207.0,398.0,204.5,395.5,204.5,391.5" stroke="black" stroke-width="1" fill="none" />
<polyline points="194.5,381.5,190.5,381.5" stroke="black" stroke-width="1" fill="none" />
<polyline points="189.0,378.0,193.0,378.0,194.0,380.0,196.5,383.5,198.0,385.5" stroke="black" stroke-width="1" fill="none" />
<polyline points="175.0,377.5,175.0,381.5,171.0,384.5,171.5,388.5,171.5,392.5,171.0,396.5" stroke="black" stroke-width="1" fill="none" />
<polyline points="164.5,390.0,165.0,392.5,165.0,396.5,165.5,400.5,163.5,406.5,163.0,410.5" stroke="black" stroke-width="1" fill="none" />
<polyline points="163.0,414.5,161.5,410.5,159.5,408.5,159.5,404.5,157.5,402.0,156.5,398.0,155.0,396.5,153.5,394.0,152.5,390.0,151.5,387.0,151.0,383.0,147.5,378.0,147.5,374.0,147.0,370.0,149.0,368.5,149.0,364.5,147.0,363.0,147.0,359.0,143.5,359.5" stroke="black" stroke-width="1" fill="none" />
<polyline points="147.0,363.0,151.0,366.0,151.5,370.0,153.5,371.0,153.0,375.0,153.0,379.0,153.5,383.0,152.5,388.0" stroke="black" stroke-width="1" fill="none" />
<polyline points="147.0,387.5,147.0,391.5,147.5,395.5,151.0,400.0,151.0,404.0,151.5,408.0,155.0,411.5,155.5,415.5,159.0,419.5,159.5,423.5,163.0,427.0,163.0,431.0" stroke="black" stroke-width="1" fill="none" />
<polyline points="171.0,432.0,169.5,430.5,169.0,426.5,169.5,422.5" stroke="black" stroke-width="1" fill="none" />
<polyline points="175.0,438.0,177.0,442.0,177.0,446.0,179.0,446.5,179.0,450.5,180.5,451.5,182.5,454.0,184.5,457.5,185.0,461.5,186.5,463.0,188.5,463.5,189.0,467.5,190.5,467.5,191.0,471.5" stroke="black" stroke-width="1" fill="none" />
<polyline points="194.5,470.0,194.0,474.0" stroke="black" stroke-width="1" fill="none" />
<polyline points="196.5,468.0,197.0,472.0,196.5,476.0,197.0,480.5" stroke="black" stroke-width="1" fill="none" />
<polyline points="192.0,484.5,193.0,488.5,193.5,490.0" stroke="black" stroke-width="1" fill="none" />
<polyline points="202.5,482.5,202.5,478.5,202.5,474.5" stroke="black" stroke-width="1" fill="none" />
<polyline points="198.5,484.0,196.0,480.5,194.5,477.0,193.0,474.5,193.0,470.5,194.5,466.5,194.5,462.5" stroke="black" stroke-width="1" fill="none" />
<polyline points="203.0,458.5,202.5,462.5,203.0,466.5,203.0,470.5,201.0,474.5,201.0,478.5,201.0,482.5,200.5,486.5,201.0,490.5,203.0,493.5,205.0,495.5,206.5,497.0,208.0,501.0,210.0,504.5,212.0,506.5,212.5,510.5" stroke="black" stroke-width="1" fill="none" />
<polyline points="185.5,474.5,183.0,470.0,182.5,466.0" stroke="black" stroke-width="1" fill="none" />
<polyline points="207.0,460.5,206.5,464.5,207.0,468.5,204.5,474.0,205.0,478.0,205.0,482.0" stroke="black" stroke-width="1" fill="none" />
<polyline points="173.5,452.0,173.0,448.0,169.0,444.5,169.0,440.5" stroke="black" stroke-width="1" fill="none" />
<polyline points="208.0,438.5,208.5,442.5,208.0,446.5,205.0,450.5,204.5,454.5,205.0,458.5,204.5,462.5" stroke="black" stroke-width="1" fill="none" />
<polyline points="207.0,455.5,206.5,451.5,208.0,447.0,210.5,441.0,210.5,437.0" stroke="black" stroke-width="1" fill="none" />
<polyline points="218.0,433.5,218.0,429.5,218.5,425.5,220.5,421.5,222.5,417.5,224.0,413.5,224.0,409.5,224.0,405.5,224.5,401.5,224.0,397.5,224.0,393.5" stroke="black" stroke-width="1" fill="none" />
<polyline points="234.0,393.5,234.0,397.5,238.5,398.0,242.5,397.5,249.5,393.0" stroke="black" stroke-width="1" fill="none" />
<polyline points="249.5,398.5,249.5,394.5,252.0,391.5,251.5,387.5" stroke="black" stroke-width="1" fill="none" />
<polyline points="252.0,383.5,250.0,387.5,250.0,391.5,247.5,395.5,247.5,400.5,247.5,404.5" stroke="black" stroke-width="1" fill="none" />
<polyline points="260.0,388.0,264.0,385.5,268.0,383.5,272.0,380.0,275.5,379.5" stroke="black" stroke-width="1" fill="none" />
<polyline points="283.0,379.5,287.0,379.5,291.0,380.0,293.5,386.0,295.5,388.5,299.0,390.5,301.0,393.5,301.5,394.0,302.5,395.5,305.0,394.0" stroke="black" stroke-width="1" fill="none" />
<polyline points="304.0,392.0,303.5,396.0,307.0,399.0,309.0,397.5,309.0,400.0" stroke="black" stroke-width="1" fill="none" />
<polyline points="312.5,402.5,313.0,398.5,312.5,394.5" stroke="black" stroke-width="1" fill="none" />
<polyline points="298.5,388.0,295.0,386.5,292.0,383.5,290.5,382.0,286.5,381.5" stroke="black" stroke-width="1" fill="none" />
<polyline points="287.0,377.5,283.0,378.0,279.0,377.5,275.0,378.0,271.5,376.0,267.5,373.5,263.5,373.5,259.5,374.0" stroke="black" stroke-width="1" fill="none" />
<polyline points="259.5,364.0,255.5,364.5" stroke="black" stroke-width="1" fill="none" />
<polyline points="252.0,362.5,256.0,362.0,260.0,360.0" stroke="black" stroke-width="1" fill="none" />
<polyline points="261.5,361.0,260.0,360.5,261.5,356.5,261.0,352.0,257.0,352.5,253.0,352.5,249.0,352.5,245.0,352.0" stroke="black" stroke-width="1" fill="none" />
<polyline points="246.0,348.5,250.0,348.5,254.0,347.5,258.0,347.5,260.5,348.5,262.0,349.5,265.0,352.5,268.5,356.0,272.0,358.5,275.5,362.5,278.5,366.5,282.0,369.5,285.0,370.0,287.0,371.5,289.0,374.0" stroke="black" stroke-width="1" fill="none" />
<polyline points="296.5,386.0,297.5,390.0,299.5,390.0,301.0,391.5" stroke="black" stroke-width="1" fill="none" />
<polyline points="334.5,389.0,334.5,393.0,334.5,397.0,332.5,400.0,330.5,405.0,330.5,409.0,328.5,412.5,328.5,416.5,325.0,421.0,324.5,425.0,324.5,429.0,322.5,432.5,320.5,438.0,318.5,442.0,316.5,447.0,314.5,451.0,314.5,455.0,312.5,460.0" stroke="black" stroke-width="1" fill="none" />
<polyline points="270.5,383.5,267.5,385.5,263.0,389.5,264.0,385.5" stroke="black" stroke-width="1" fill="none" />
<polyline points="267.5,354.0,270.0,358.0,273.5,361.5,277.0,365.0,281.0,368.5,285.0,371.5,287.5,375.5,289.0,375.5,292.0,377.5,294.5,380.0,296.0,381.5,298.0,383.5,299.5,385.0,303.5,386.0,306.5,388.0,308.5,390.0,312.5,394.0" stroke="black" stroke-width="1" fill="none" />
<polyline points="338.0,375.5,338.0,371.5" stroke="black" stroke-width="1" fill="none" />
<polyline points="340.0,368.0,340.0,364.0,342.0,358.5,342.0,354.5,344.0,348.0,344.0,344.0,344.0,340.0,344.0,336.0" stroke="black" stroke-width="1" fill="none" />
<polyline points="336.0,331.0,336.5,335.0,336.0,339.0,336.5,343.0,336.5,347.0,335.0,351.0,336.0,354.5,334.0,358.5" stroke="black" stroke-width="1" fill="none" />
<polyline points="332.5,342.5,332.5,338.5,332.5,334.5" stroke="black" stroke-width="1" fill="none" />
<polyline points="331.0,334.0,330.5,338.0,331.0,342.0,330.5,346.0" stroke="black" stroke-width="1" fill="none" />
<polyline points="324.5,341.0,325.0,337.0,327.0,333.0" stroke="black" stroke-width="1" fill="none" />
<polyline points="334.5,318.5,334.5,314.5,335.0,310.5,334.5,306.5,334.5,302.5,331.0,299.0,330.5,295.0,329.0,293.0,329.0,289.0,330.5,285.0,328.5,283.0,326.5,279.5,322.5,279.0,323.0,275.5,319.0,275.0,316.5,270.5,319.0,268.5,318.5,264.5,322.5,262.0,322.5,258.0,322.5,254.0,321.0,252.5" stroke="black" stroke-width="1" fill="none" />
<polyline points="320.5,261.5,321.0,265.5,320.0,269.5,319.0,267.0" stroke="black" stroke-width="1" fill="none" />
<polyline points="316.5,264.5,312.5,265.0" stroke="black" stroke-width="1" fill="none" />
<polyline points="312.5,259.5,316.5,261.0" stroke="black" stroke-width="1" fill="none" />
<polyline points="303.0,255.5,301.0,259.5,303.0,255.5" stroke="black" stroke-width="1" fill="none" />
<polyline points="300.5,232.5,296.5,232.5,292.5,234.5,288.5,234.0,284.5,234.0,280.5,234.0" stroke="black" stroke-width="1" fill="none" />
<polyline points="291.0,224.5,295.0,224.0,299.0,224.5" stroke="black" stroke-width="1" fill="none" />
<polyline points="300.5,230.5,296.5,230.5" stroke="black" stroke-width="1" fill="none" />
<polyline points="285.0,208.0,281.0,210.5,277.0,210.0" stroke="black" stroke-width="1" fill="none" />
<polyline points="276.5,202.5,271.5,205.0,267.5,204.5,263.5,203.5" stroke="black" stroke-width="1" fill="none" />
<polyline points="261.0,199.0,257.0,198.5,253.0,198.5,249.0,199.0,248.5,201.0,244.5,203.0" stroke="black" stroke-width="1" fill="none" />
<polyline points="244.0,208.0,248.0,208.5,252.0,208.0,256.5,208.0,260.5,208.0,264.5,208.0,268.5,208.0,272.5,208.5,276.5,207.0" stroke="black" stroke-width="1" fill="none" />
<polyline points="285.0,209.5,283.5,209.0,287.0,206.5,287.0,202.5" stroke="black" stroke-width="1" fill="none" />
<polyline points="295.0,163.0,299.0,163.5,303.0,163.5" stroke="black" stroke-width="1" fill="none" />
<polyline points="297.5,158.5,301.5,155.5,305.5,155.0" stroke="black" stroke-width="1" fill="none" />
<polyline points="297.0,152.0,293.0,148.0,290.0,149.0" stroke="black" stroke-width="1" fill="none" />
<polyline points="289.0,147.5,293.0,145.5,289.5,149.0,287.5,151.0,291.5,150.5,294.5,149.0,298.5,153.0,302.5,153.0,306.5,150.5,309.0,153.0,310.5,155.0,314.5,155.5,318.5,155.5,322.5,155.0" stroke="black" stroke-width="1" fill="none" />
<polyline points="351.5,159.5,352.5,161.0,352.0,165.0" stroke="black" stroke-width="1" fill="none" />
<polyline points="350.0,171.0,350.0,175.0,348.0,177.0,346.0,182.5,346.5,187.0,346.0,191.0,346.0,195.0" stroke="black" stroke-width="1" fill="none" />
<polyline points="338.0,192.5,338.5,196.5,338.5,200.5,337.5,204.5,336.5,205.0,336.5,209.0,338.0,215.5,338.0,219.5" stroke="black" stroke-width="1" fill="none" />
<polyline points="334.5,231.5,334.5,235.5,332.5,239.0" stroke="black" stroke-width="1" fill="none" />
<polyline points="328.0,240.0,328.5,244.0,326.5,247.5" stroke="black" stroke-width="1" fill="none" />
<polyline points="323.0,243.5,322.0,247.5,323.0,243.5" stroke="black" stroke-width="1" fill="none" />
<polyline points="298.0,234.0,295.5,236.5,291.5,236.5,287.5,236.5,283.5,238.5,279.5,238.0,275.5,238.5,271.5,238.0,267.5,238.0,263.5,238.0,259.5,238.0" stroke="black" stroke-width="1" fill="none" />
<polyline points="259.5,234.0,263.5,234.0,267.5,234.0" stroke="black" stroke-width="1" fill="none" />
<polyline points="269.5,236.5,265.5,236.0,261.5,236.5,257.5,236.5,253.5,236.0,249.5,236.5" stroke="black" stroke-width="1" fill="none" />
<polyline points="235.0,234.0,239.0,234.0,243.0,234.5,247.0,234.5,251.0,234.5,255.0,234.5,257.0,232.0,261.0,232.0,265.0,232.5,269.0,232.0,273.0,232.0,277.0,232.0,281.0,232.0,285.0,232.5,289.0,232.0" stroke="black" stroke-width="1" fill="none" />
<polyline points="263.0,255.5,259.0,255.5,255.0,255.5" stroke="black" stroke-width="1" fill="none" />
<polyline points="272.0,272.5,272.5,272.0,271.5,276.0" stroke="black" stroke-width="1" fill="none" />
<polyline points="271.0,281.5,267.0,281.0,263.0,281.0" stroke="black" stroke-width="1" fill="none" />
<polyline points="270.5,279.0,266.5,279.5,262.5,281.0,258.5,281.0,254.5,281.0" stroke="black" stroke-width="1" fill="none" />
<polyline points="258.0,277.0,254.0,277.5,250.5,279.5,246.5,281.0,246.0,280.5,243.5,275.5,239.5,275.5" stroke="black" stroke-width="1" fill="none" />
<polyline points="236.0,271.5,232.0,271.5,228.0,271.0" stroke="black" stroke-width="1" fill="none" />
<polyline points="230.0,268.0,224.0,268.0,220.0,267.5" stroke="black" stroke-width="1" fill="none" />
<polyline points="226.5,254.0,230.5,258.0,228.5,262.0,226.0,266.0,228.0,263.0,234.0,261.5" stroke="black" stroke-width="1" fill="none" />
<polyline points="218.0,232.0,218.5,236.0,220.0,235.5,224.0,232.5,228.0,232.5,232.0,232.5,236.0,232.5,237.0,230.0,241.0,230.0,245.0,230.0,249.0,230.0,253.0,230.5,257.0,230.5,261.0,230.5,265.0,230.5,269.0,230.5,273.0,230.5,277.0,230.5" stroke="black" stroke-width="1" fill="none" />
<polyline points="256.0,228.5,252.0,228.0,248.0,228.0,244.0,228.5,240.0,228.5,236.0,228.0,232.0,228.5,228.0,228.0,224.0,228.0,220.0,228.5" stroke="black" stroke-width="1" fill="none" />
<polyline points="198.0,252.0,199.0,256.0" stroke="black" stroke-width="1" fill="none" />
<polyline points="192.5,264.0,188.5,263.5" stroke="black" stroke-width="1" fill="none" />
<polyline points="189.0,249.0,189.0,244.0,185.0,243.0" stroke="black" stroke-width="1" fill="none" />
<polyline points="181.0,250.0,177.0,249.0" stroke="black" stroke-width="1" fill="none" />
<polyline points="171.0,251.5,171.5,255.5,171.0,259.5,171.0,263.5,171.0,267.5,171.5,271.5" stroke="black" stroke-width="1" fill="none" />
<polyline points="173.0,269.5,173.0,273.5,175.0,273.5,175.0,277.5,176.5,279.0,177.0,283.0,175.0,286.5,175.5,290.5,177.0,294.5" stroke="black" stroke-width="1" fill="none" />
<polyline points="173.5,284.5,169.5,280.5" stroke="black" stroke-width="1" fill="none" />
<polyline points="178.5,280.5,179.0,284.5" stroke="black" stroke-width="1" fill="none" />
<polyline points="180.5,283.5,180.0,287.5" stroke="black" stroke-width="1" fill="none" />
<polyline points="193.0,269.5,192.5,265.5,188.5,261.5,183.0,257.5,182.5,251.5,179.0,251.0,178.5,247.0,174.0,241.5" stroke="black" stroke-width="1" fill="none" />
<polyline points="173.0,230.0,173.5,234.0,171.0,235.5,173.5,239.5,175.0,242.5,177.0,245.0,177.0,249.0,182.5,251.5,183.0,256.0,184.5,256.5,186.5,257.5,187.0,261.5,186.5,265.5" stroke="black" stroke-width="1" fill="none" />
<polyline points="169.5,261.0,169.5,257.0,169.0,253.0,169.5,249.0,167.0,246.0,163.0,247.5,159.0,247.5,155.0,249.5" stroke="black" stroke-width="1" fill="none" />
<polyline points="156.0,249.5,160.0,249.5,161.5,252.5,161.0,256.5,161.5,260.5,161.0,264.5,162.5,265.5,163.0,269.5,163.5,273.5" stroke="black" stroke-width="1" fill="none" />
<polyline points="165.5,272.0,165.5,268.0,165.0,263.5,163.0,261.5,163.0,257.5,163.5,253.5,161.5,251.0" stroke="black" stroke-width="1" fill="none" />
<polyline points="159.0,261.5,159.0,265.5,157.5,269.5,155.0,273.5,155.0,279.5,155.0,283.5,153.0,284.5,151.0,288.5,147.5,292.5,145.5,296.5,143.5,300.5,140.0,304.5,140.0,308.5,140.0,312.5,140.0,316.5,140.0,321.5,136.0,325.0,136.0,329.0,135.5,333.0,136.0,337.0,137.0,340.5,137.5,344.5" stroke="black" stroke-width="1" fill="none" />
<polyline points="135.5,349.5,135.5,353.5,136.0,357.5,136.0,361.5,139.5,365.5,140.0,369.5,140.0,373.5,144.0,376.5,143.5,380.5,144.0,384.5,145.0,386.0,145.5,390.0,148.5,394.0,149.0,398.0,149.5,402.0,153.0,407.0,153.5,411.0,153.5,415.0,157.0,417.0,157.5,421.0,161.0,423.0,161.5,427.0,161.5,431.0,165.5,436.0,167.0,436.0,167.5,440.0,167.5,444.0,171.0,445.5,171.5,449.5,175.0,453.5,175.5,457.5,177.0,462.0,178.5,462.0,179.0,466.0,181.0,467.5,184.5,471.0,185.0,475.0,186.5,477.0,188.0,478.5,189.0,482.5,190.5,484.0,191.0,488.0,194.5,491.0,196.5,492.0,197.0,496.5,198.5,497.5,199.0,501.5,200.5,501.5,202.5,503.0,203.0,507.0,204.5,508.5,206.5,510.5" stroke="black" stroke-width="1" fill="none" />
<polyline points="161.0,404.5,161.0,400.5" stroke="black" stroke-width="1" fill="none" />
<polyline points="163.5,388.5,167.5,385.5,171.5,381.5" stroke="black" stroke-width="1" fill="none" />
<polyline points="168.0,387.5,167.5,386.5,171.5,382.5,173.5,378.5,175.5,374.5,177.0,370.5,179.0,369.5,181.0,365.5,184.5,361.5,186.0,360.0,189.0,356.0,193.0,352.0,193.5,352.5,189.5,356.5,185.5,360.5" stroke="black" stroke-width="1" fill="none" />
<polyline points="193.0,350.5,197.0,348.5,201.0,346.0,205.0,344.5,209.5,340.5,213.5,340.5,218.0,342.0,222.5,346.0,226.5,346.5,230.5,346.5,232.0,348.0,236.0,348.0" stroke="black" stroke-width="1" fill="none" />
<polyline points="249.5,346.0,253.5,346.5" stroke="black" stroke-width="1" fill="none" />
<polyline points="254.0,353.5,253.5,357.5,254.0,356.5,256.0,354.5" stroke="black" stroke-width="1" fill="none" />
<polyline points="263.5,336.5,267.5,335.0" stroke="black" stroke-width="1" fill="none" />
<polyline points="270.0,324.0,267.5,328.0,262.0,331.0,259.5,335.0,259.5,333.0,263.5,331.0,267.5,327.0,271.5,324.0,273.5,320.5,277.0,317.0" stroke="black" stroke-width="1" fill="none" />
<polyline points="285.0,318.5,285.0,315.0,287.0,314.0,286.5,313.0,282.5,316.5,279.5,322.5,277.0,323.0,273.0,327.0,273.0,328.5,270.0,332.5,268.0,336.0,269.5,331.0,272.0,329.5,271.5,325.0,273.5,321.5,275.5,317.5,277.5,317.5,279.5,313.5,281.0,311.0,283.0,311.0,283.5,307.0,285.5,305.5,287.0,305.0,289.0,304.0,289.5,300.0,293.5,296.0,295.0,294.5,297.0,290.5,299.5,286.5,303.0,282.5,304.5,278.5,307.0,274.5,303.5,279.5" stroke="black" stroke-width="1" fill="none" />
<polyline points="299.5,285.5,304.5,281.5,305.0,285.5,301.5,289.5,299.5,293.5,297.0,297.5,297.0,301.5,295.0,304.5" stroke="black" stroke-width="1" fill="none" />
<polyline points="299.0,301.0,299.5,297.0,303.0,295.5,303.0,291.5,298.0,289.5,297.0,296.5" stroke="black" stroke-width="1" fill="none" />
<polyline points="291.0,298.5,295.5,301.0,293.0,305.0,291.0,309.0,289.5,309.5,285.0,313.0,283.0,317.0,281.0,321.0,277.5,322.5,274.5,326.5,275.0,326.0" stroke="black" stroke-width="1" fill="none" />
<polyline points="277.0,297.5,281.0,295.0" stroke="black" stroke-width="1" fill="none" />
<polyline points="278.5,293.0,282.5,291.0,286.5,289.0,290.5,287.0" stroke="black" stroke-width="1" fill="none" />
<polyline points="322.5,282.5,326.5,281.0,330.5,281.5" stroke="black" stroke-width="1" fill="none" />
<polyline points="332.0,285.5,333.0,289.5,332.0,291.5" stroke="black" stroke-width="1" fill="none" />
<polyline points="326.0,291.5,327.0,295.5,327.0,299.5" stroke="black" stroke-width="1" fill="none" />
<polyline points="340.0,289.5,340.0,293.5,340.5,297.5,340.5,301.5,344.0,304.5,344.0,308.5,344.0,312.5,344.5,316.5,344.0,320.5,344.0,324.5,344.0,328.5,344.0,332.5,342.5,336.5,342.5,340.5,342.5,344.5,342.5,348.5,340.5,352.5,340.5,356.5,340.5,360.5,338.5,364.5,338.5,368.5,336.5,372.5,336.5,376.5,336.0,380.5,335.0,384.5,334.5,388.5,333.0,392.5,333.0,396.5,331.0,400.5,330.5,404.5,329.0,408.5,327.0,412.5,327.0,416.5,326.5,420.5,323.0,425.0,323.0,429.0,321.0,433.0,319.0,437.0,317.0,441.0,317.0,445.0,315.0,449.0,313.0,453.0,311.0,457.0,310.5,461.0,309.0,461.5,308.5,465.5,305.0,469.0,304.5,472.5,303.0,476.5,303.0,480.5,301.0,483.0,299.0,486.0,297.0,489.5,293.5,491.0,293.0,495.0,291.0,499.0,289.5,499.0,287.5,503.0,287.0,507.0,283.5,508.5" stroke="black" stroke-width="1" fill="none" />
<polyline points="423.0,469.0,423.0,465.0,423.0,461.0,423.0,457.0,423.0,453.0" stroke="black" stroke-width="1" fill="none" />
<polyline points="508.0,389.5,508.0,385.5,507.5,381.5,507.5,377.5" stroke="black" stroke-width="1" fill="none" />
<polyline points="510.0,393.0,510.0,389.0,509.5,385.0,506.0,382.0,506.0,378.0,505.0,374.0,502.0,369.0,498.0,366.5,498.0,362.5,497.0,358.5" stroke="black" stroke-width="1" fill="none" />
<polyline points="493.0,354.5,489.0,352.0,488.0,350.0,487.0,348.0,484.0,346.0,482.5,344.5,481.0,342.5,481.5,344.5,478.5,343.0,478.0,341.0,472.5,340.0,472.0,336.0,468.0,333.0,464.0,332.5" stroke="black" stroke-width="1" fill="none" />
<polyline points="460.5,326.5,456.5,326.5,452.5,326.5" stroke="black" stroke-width="1" fill="none" />
<polyline points="448.5,324.5,452.5,324.5,456.5,325.0,458.5,328.5,462.5,329.0,462.5,330.5,466.5,331.0,471.5,335.0,473.5,336.5,476.0,338.0,477.5,340.5" stroke="black" stroke-width="1" fill="none" />
<polyline points="488.0,348.0,488.0,352.0,490.5,353.5,492.5,357.0,494.5,358.5,495.5,358.5,496.0,362.5,500.0,365.0,500.0,369.0,503.5,372.0,504.0,376.0,504.0,380.0" stroke="black" stroke-width="1" fill="none" />
<polyline points="452.0,323.0,448.0,322.5,444.0,322.5" stroke="black" stroke-width="1" fill="none" />
<polyline points="440.5,320.5,444.5,320.5,448.5,321.0" stroke="black" stroke-width="1" fill="none" />
<polyline points="441.5,317.0,437.5,316.5,433.5,316.5,429.5,316.5" stroke="black" stroke-width="1" fill="none" />
<polyline points="429.0,313.0,425.0,313.0,421.0,312.5,417.0,312.5,413.0,313.0,409.0,312.5" stroke="black" stroke-width="1" fill="none" />
<polyline points="403.0,311.0,407.0,310.5,411.0,310.5,415.0,310.5,419.0,311.0,423.0,311.0,427.5,314.5,431.5,314.5,435.5,315.0,440.0,318.5,444.0,319.0" stroke="black" stroke-width="1" fill="none" />
<polyline points="415.5,309.0,411.5,309.0,407.5,308.5,403.5,308.5,399.5,308.5" stroke="black" stroke-width="1" fill="none" />
<polyline points="405.5,307.0,401.5,306.5,397.5,306.5,396.0,303.5,392.0,303.0,388.0,303.0,384.0,303.0" stroke="black" stroke-width="1" fill="none" />
<polyline points="383.5,299.5,379.5,299.5,375.5,299.0,371.5,299.0,367.5,299.0" stroke="black" stroke-width="1" fill="none" />
<polyline points="367.5,297.0,371.5,297.0,375.5,297.0,379.5,297.5,382.0,301.0,386.0,301.5,390.0,301.5,394.0,304.5,398.0,305.0,402.0,305.0" stroke="black" stroke-width="1" fill="none" />
<polyline points="374.0,295.5,370.0,295.5,366.0,295.0,362.0,295.0" stroke="black" stroke-width="1" fill="none" />
<polyline points="356.0,293.5,360.0,293.5,364.0,293.5,368.0,293.5" stroke="black" stroke-width="1" fill="none" />
<polyline points="363.5,291.5,359.5,291.5,355.5,291.0,351.5,291.0,347.5,291.0" stroke="black" stroke-width="1" fill="none" />
<polyline points="352.5,287.5,348.5,287.5,344.5,287.0,340.5,287.0" stroke="black" stroke-width="1" fill="none" />
<polyline points="339.5,285.0,338.0,289.0,338.5,293.0,342.0,296.5,342.0,300.5,342.5,304.5,342.5,308.5" stroke="black" stroke-width="1" fill="none" />
<polyline points="340.0,318.5,340.0,322.5,340.0,326.5,338.5,330.5,338.0,334.5,338.0,338.5,338.0,342.5,338.0,346.5" stroke="black" stroke-width="1" fill="none" />
<polyline points="338.0,286.5,342.0,285.0,346.0,285.5,349.5,289.0,353.5,289.5,357.5,289.5" stroke="black" stroke-width="1" fill="none" />
<polyline points="343.5,283.5,339.5,283.5,335.5,283.5" stroke="black" stroke-width="1" fill="none" />
<polyline points="336.0,284.5,336.5,288.5,334.5,292.0,334.5,296.0,332.5,300.5,330.5,304.0,330.5,308.0,330.5,312.0,331.0,316.0,331.0,320.0,331.0,324.0,331.0,328.0" stroke="black" stroke-width="1" fill="none" />
<polyline points="324.5,286.0,323.0,286.0,323.0,282.0,322.5,278.0" stroke="black" stroke-width="1" fill="none" />
<polyline points="255.5,301.5,251.5,301.0" stroke="black" stroke-width="1" fill="none" />
<polyline points="233.5,297.5,230.0,295.5,226.0,295.0" stroke="black" stroke-width="1" fill="none" />
<polyline points="212.5,292.5,212.5,288.5,210.5,287.0" stroke="black" stroke-width="1" fill="none" />
<polyline points="175.5,288.5,173.5,286.0,171.5,282.5,169.5,278.5,167.0,276.0,167.5,272.0,166.5,268.0" stroke="black" stroke-width="1" fill="none" />
<polyline points="154.5,273.0,153.0,275.5,149.0,275.5" stroke="black" stroke-width="1" fill="none" />
<polyline points="147.0,278.5,147.0,278.5,145.0,282.5,145.0,288.5,142.0,290.0,140.0,294.0,139.5,298.0,138.0,298.0,137.5,302.0,141.0,306.5" stroke="black" stroke-width="1" fill="none" />
<polyline points="145.0,305.0,145.0,301.0,147.0,297.5,149.0,291.5,151.0,291.5,149.0,290.5" stroke="black" stroke-width="1" fill="none" />
<polyline points="146.0,281.5,147.0,277.5,149.5,278.0,149.5,282.0,144.0,285.5,143.5,289.5,143.5,293.5,142.0,293.5,141.5,297.5" stroke="black" stroke-width="1" fill="none" />
<polyline points="143.5,301.5,143.5,305.5,144.0,309.5,143.5,313.5,143.5,317.5,144.0,321.5,145.0,326.5,145.5,330.5,145.5,334.5,145.0,338.5" stroke="black" stroke-width="1" fill="none" />
<polyline points="147.0,333.0,147.0,337.0,147.5,341.0,147.0,345.0" stroke="black" stroke-width="1" fill="none" />
<polyline points="141.5,354.5,142.0,358.5,143.5,359.5,144.0,363.5,145.5,367.5,145.0,371.5,149.0,377.0,149.5,381.0" stroke="black" stroke-width="1" fill="none" />
<polyline points="157.0,374.0,157.5,378.0,159.5,377.0" stroke="black" stroke-width="1" fill="none" />
<polyline points="161.0,378.5,161.5,382.5,163.5,386.5,163.5,391.0,163.5,395.0" stroke="black" stroke-width="1" fill="none" />
<polyline points="159.5,387.0,159.5,383.0,159.0,379.0,159.0,375.5,159.0,371.5" stroke="black" stroke-width="1" fill="none" />
<polyline points="142.0,380.0,141.5,376.0,141.5,372.0,138.0,368.0,138.0,364.0,137.5,360.0,137.5,356.0" stroke="black" stroke-width="1" fill="none" />
<polyline points="139.5,332.5,139.5,328.5,139.5,324.5,136.0,322.5" stroke="black" stroke-width="1" fill="none" />
<polyline points="131.5,324.5,132.0,328.5,134.0,332.0" stroke="black" stroke-width="1" fill="none" />
<polyline points="137.5,330.5,138.0,334.5" stroke="black" stroke-width="1" fill="none" />
<polyline points="143.5,335.0,143.5,331.0" stroke="black" stroke-width="1" fill="none" />
<polyline points="131.5,320.0,131.5,324.0,129.5,328.0,129.5,332.0,130.0,336.0,130.0,340.0,133.5,344.0,134.0,348.0,134.0,352.0" stroke="black" stroke-width="1" fill="none" />
<polyline points="125.5,315.5,126.0,311.5,125.5,307.5,126.0,303.5,127.5,299.5,127.5,295.5,123.5,292.5,119.5,293.5,115.5,295.0,111.5,295.5" stroke="black" stroke-width="1" fill="none" />
<polyline points="117.0,295.0,121.0,295.0" stroke="black" stroke-width="1" fill="none" />
<polyline points="120.0,291.5,124.0,291.0,128.0,291.5" stroke="black" stroke-width="1" fill="none" />
<polyline points="123.5,289.5,127.5,289.0,130.0,287.5,134.0,287.5,138.5,285.5,142.5,283.5,146.0,285.5,150.5,281.5" stroke="black" stroke-width="1" fill="none" />
<polyline points="140.0,285.0,137.5,287.0" stroke="black" stroke-width="1" fill="none" />
<polyline points="136.0,297.0,136.0,301.0,136.0,305.0,136.0,309.0,135.5,313.0,136.0,317.0,142.0,317.0" stroke="black" stroke-width="1" fill="none" />
<polyline points="134.0,301.0,134.0,305.0,134.0,309.0,137.5,314.0,138.0,318.0,141.5,321.5,144.0,325.0,144.0,329.0,141.5,333.0,141.5,337.0,142.0,341.0,142.0,345.0" stroke="black" stroke-width="1" fill="none" />
<polyline points="132.0,346.0,132.0,342.0,131.5,338.0,128.0,333.5,127.5,329.5,127.5,325.5,127.5,321.5,127.5,317.5,127.5,313.5,127.5,309.5,128.0,305.5,127.5,301.5" stroke="black" stroke-width="1" fill="none" />
<polyline points="110.0,299.0,106.0,299.5,102.0,299.5" stroke="black" stroke-width="1" fill="none" />
<polyline points="88.0,305.0,92.0,305.0,96.0,303.0,100.0,301.5,104.0,301.0,108.0,300.5,110.0,297.5,114.0,297.0,118.0,297.0" stroke="black" stroke-width="1" fill="none" />
<polyline points="86.5,308.5,82.5,308.5,82.0,310.5,78.0,311.0,75.0,314.5,71.0,314.5,68.5,316.5,64.5,316.5" stroke="black" stroke-width="1" fill="none" />
<polyline points="53.0,319.0,57.0,319.0,61.0,317.0,65.0,315.0,69.0,315.0,73.0,313.0,77.0,313.0,81.0,309.0,85.0,307.0,89.0,307.0,93.0,306.5,98.5,303.0,102.5,303.0" stroke="black" stroke-width="1" fill="none" />
<polyline points="53.0,322.5,49.0,323.0,45.0,323.0,43.0,326.5,39.0,327.0,35.0,327.0" stroke="black" stroke-width="1" fill="none" />
<polyline points="9.5,338.5,13.5,338.5,17.5,338.0,19.5,336.0,24.0,333.0,28.0,331.0,32.0,329.0,36.0,329.0,40.0,328.5,44.0,325.0,48.0,324.5,50.0,321.0,54.0,320.5,58.0,320.5,61.0,318.5,65.0,318.5" stroke="black" stroke-width="1" fill="none" />
<polyline points="34.0,330.5,30.5,332.5,26.5,332.5,24.0,334.5,20.0,335.0,16.0,335.0,14.0,340.0,10.0,340.0,6.0,340.5" stroke="black" stroke-width="1" fill="none" />
<polyline points="3.0,342.5,7.0,342.0,11.0,342.0" stroke="black" stroke-width="1" fill="none" />
<polyline points="4.5,344.5,0.5,348.0,0.5,348.0,2.0,344.0" stroke="black" stroke-width="1" fill="none" />
<polyline points="29.0,354.5,29.5,358.5,31.5,362.0,33.5,365.5,35.5,368.5" stroke="black" stroke-width="1" fill="none" />
<polyline points="18.5,384.0,19.5,388.0,21.0,392.0" stroke="black" stroke-width="1" fill="none" />
<polyline points="50.5,389.5,51.0,393.5,55.0,397.5,56.5,400.5" stroke="black" stroke-width="1" fill="none" />
<polyline points="55.0,397.0,51.0,393.0" stroke="black" stroke-width="1" fill="none" />
<polyline points="62.5,439.0,63.0,443.0,63.0,447.0,63.0,451.0" stroke="black" stroke-width="1" fill="none" />
<polyline points="37.0,478.0,41.0,480.5,44.5,484.5,48.5,488.5" stroke="black" stroke-width="1" fill="none" />
<polyline points="50.5,491.0,47.0,487.0,43.0,483.0,39.5,480.0,35.0,476.0" stroke="black" stroke-width="1" fill="none" />
<polyline points="203.0,342.5,207.0,342.0,211.0,342.0,216.5,343.0,217.5,344.0,221.5,344.0,225.5,344.5,229.5,344.5" stroke="black" stroke-width="1" fill="none" />
<polyline points="234.5,350.0,230.5,350.0,226.5,350.5,222.5,350.5,218.5,350.5,214.5,350.5" stroke="black" stroke-width="1" fill="none" />
<polyline points="211.5,352.5,215.5,352.5,219.5,352.0" stroke="black" stroke-width="1" fill="none" />
<polyline points="152.0,243.5,156.0,241.5,156.5,240.0" stroke="black" stroke-width="1" fill="none" />
<polyline points="149.5,248.5,149.5,244.5,149.0,240.5,149.5,236.5,149.5,232.5,151.5,228.5,151.5,224.5,151.5,220.5,151.0,216.5,151.0,212.5,151.0,208.5,151.5,204.0,148.5,203.0,145.0,198.0,145.0,194.0,144.0,193.5,143.5,189.5,145.5,184.0,149.0,177.5,149.0,173.5,149.0,169.5,147.5,165.0,147.5,161.0,147.0,157.0,147.5,153.0,145.0,152.5,140.5,153.5" stroke="black" stroke-width="1" fill="none" />
<polyline points="140.0,151.5,139.5,155.5" stroke="black" stroke-width="1" fill="none" />
<polyline points="137.0,155.0,137.5,159.0,137.5,163.0,138.0,167.0,142.0,172.0,141.5,176.0,141.5,180.0,142.0,184.0,142.0,188.0" stroke="black" stroke-width="1" fill="none" />
<polyline points="147.0,196.5,147.0,200.5,149.0,202.5,151.5,204.0,157.0,203.0,161.0,200.0" stroke="black" stroke-width="1" fill="none" />
<polyline points="171.0,199.0,171.5,195.0" stroke="black" stroke-width="1" fill="none" />
<polyline points="165.0,198.5,163.5,197.0,159.5,199.0,159.5,193.0,159.0,189.0,159.0,185.0,159.0,181.0" stroke="black" stroke-width="1" fill="none" />
<polyline points="155.5,171.0,151.5,168.5,151.0,164.5,151.5,160.5,153.5,156.5,149.0,153.0,149.0,152.5" stroke="black" stroke-width="1" fill="none" />
<polyline points="148.5,157.5,149.0,161.5,149.0,165.5,147.5,169.5,147.5,173.5,147.5,177.5,147.5,182.0,150.0,180.5,154.0,181.0" stroke="black" stroke-width="1" fill="none" />
<polyline points="155.0,183.0,152.0,179.0,148.0,178.5" stroke="black" stroke-width="1" fill="none" />
<polyline points="169.0,173.0,169.0,177.0,169.0,181.0,169.0,185.0,169.0,189.0,169.0,193.0,169.5,197.0,169.0,201.0,172.0,200.5" stroke="black" stroke-width="1" fill="none" />
<polyline points="167.0,218.0,167.0,222.0,167.5,226.0,169.5,227.5,169.5,231.5,169.5,236.0,169.5,240.0,169.5,244.0,167.5,248.0,165.5,252.0,165.0,256.0" stroke="black" stroke-width="1" fill="none" />
<polyline points="151.5,234.0,151.0,230.0" stroke="black" stroke-width="1" fill="none" />
<polyline points="153.0,224.5,153.0,228.5,153.5,232.5,152.5,236.5,151.0,238.0,151.5,242.0,153.0,245.0,151.0,249.0,151.5,253.0" stroke="black" stroke-width="1" fill="none" />
<polyline points="155.0,255.0,153.5,251.0,155.5,248.0,157.0,244.0,155.5,240.0,155.5,236.0,157.5,232.0,157.0,228.0,157.0,224.0" stroke="black" stroke-width="1" fill="none" />
<polyline points="155.5,226.0,155.5,222.0,155.0,218.0,155.0,214.0,155.0,210.0" stroke="black" stroke-width="1" fill="none" />
<polyline points="157.0,164.5,157.0,160.5,158.5,157.0,159.0,153.0" stroke="black" stroke-width="1" fill="none" />
<polyline points="157.5,152.5,153.0,145.5,151.5,144.0,147.5,147.0,141.5,147.0,137.5,147.5" stroke="black" stroke-width="1" fill="none" />
<polyline points="137.0,145.5,141.0,145.5,143.0,140.0,144.0,144.0" stroke="black" stroke-width="1" fill="none" />
<polyline points="141.5,139.5,141.5,138.0,137.5,139.5,133.0,134.0,130.0,129.0,129.5,125.0,130.0,121.0,129.5,117.0,129.5,113.0,129.5,109.0,129.5,105.0,129.5,101.0,129.5,97.0,130.0,93.0,129.5,89.0,130.0,85.0,132.0,81.0,134.0,77.0,136.0,73.0,136.0,69.0,138.0,65.0,140.0,61.0,140.0,57.0,144.0,54.5,146.5,50.5,147.5,46.5,147.5,42.5,149.0,41.5" stroke="black" stroke-width="1" fill="none" />
<polyline points="153.5,35.0,153.5,39.0,158.5,33.5,163.0,29.0,167.0,26.5,168.5,25.0,172.5,23.0,174.0,21.5,178.0,17.5,182.0,16.0,186.0,14.0,190.0,11.5,194.0,9.5,198.0,7.5,202.0,5.5,206.0,2.0,210.0,1.5" stroke="black" stroke-width="1" fill="none" />
<polyline points="204.5,4.0,200.5,4.0" stroke="black" stroke-width="1" fill="none" />
<polyline points="203.0,33.5,198.5,37.5,194.5,41.5" stroke="black" stroke-width="1" fill="none" />
<polyline points="195.0,39.5,191.0,43.5,186.5,47.5,185.5,49.0,189.5,45.5,193.5,41.5,198.5,37.5,201.5,37.0,205.5,35.0,208.0,30.5,212.0,27.5,216.0,27.5,220.0,29.0" stroke="black" stroke-width="1" fill="none" />
<polyline points="220.0,35.0,216.0,37.0,212.0,40.5,208.0,44.5,205.5,49.0,207.0,45.0,211.5,41.0,215.5,37.0,215.0,39.0" stroke="black" stroke-width="1" fill="none" />
<polyline points="216.5,37.0,216.0,41.0,211.5,43.0,215.5,43.0" stroke="black" stroke-width="1" fill="none" />
<polyline points="214.0,31.5,218.0,31.0,222.0,31.5" stroke="black" stroke-width="1" fill="none" />
<polyline points="234.0,37.0,238.0,39.0,242.0,43.0" stroke="black" stroke-width="1" fill="none" />
<polyline points="246.0,41.5,245.5,45.5,246.0,48.5,250.0,48.5,256.0,50.5,260.0,50.5,262.0,54.0,266.0,55.0,270.0,55.0" stroke="black" stroke-width="1" fill="none" />
<polyline points="271.5,60.5,275.5,60.5,279.5,60.5,283.5,61.0,285.5,65.0,290.5,64.5" stroke="black" stroke-width="1" fill="none" />
<polyline points="289.0,63.0,285.0,62.5,281.0,62.5,277.0,62.5" stroke="black" stroke-width="1" fill="none" />
<polyline points="261.5,53.0,264.0,51.0,260.0,52.5,256.0,52.5" stroke="black" stroke-width="1" fill="none" />
<polyline points="251.5,48.0,251.5,44.0,251.5,37.0,247.5,37.0,245.5,35.5,247.5,34.0,246.0,30.5,247.5,26.5,245.5,28.5" stroke="black" stroke-width="1" fill="none" />
<polyline points="251.5,37.0,252.0,41.0,253.5,45.0,254.0,51.5,255.5,48.5,259.5,49.0,263.5,52.5,267.5,53.0,273.5,57.0,276.5,59.0" stroke="black" stroke-width="1" fill="none" />
<polyline points="283.5,31.0,279.5,31.0,275.5,30.5,272.0,29.0,268.0,28.5" stroke="black" stroke-width="1" fill="none" />
<polyline points="266.5,27.0,268.0,25.5,272.0,27.0,276.0,27.0,278.0,29.0,282.0,29.0,286.0,29.0" stroke="black" stroke-width="1" fill="none" />
<polyline points="293.0,7.5,297.0,7.5" stroke="black" stroke-width="1" fill="none" />
<polyline points="295.0,4.0,291.0,4.0,287.0,3.5,283.0,3.5" stroke="black" stroke-width="1" fill="none" />
<polyline points="275.0,1.5,279.0,0.5,283.0,2.0,287.0,2.0,288.5,5.5,292.5,5.5,296.5,6.0,298.5,10.0,303.0,10.0,303.0,11.5,306.0,12.0,307.5,14.0,309.0,16.0,313.0,17.5,314.0,19.5,315.5,21.0,319.5,21.5,323.0,25.5,324.5,27.0,328.0,27.5,330.5,29.5,332.5,31.5,335.0,34.5,339.0,37.5,342.5,42.5,346.0,43.0,348.0,47.5" stroke="black" stroke-width="1" fill="none" />
<polyline points="353.5,53.0,354.0,57.0,354.0,61.0,354.5,65.0" stroke="black" stroke-width="1" fill="none" />
<polyline points="356.0,62.0,356.0,66.0,356.5,70.0,360.0,73.5,360.5,77.5,364.0,79.5,364.5,83.5,367.5,88.0,368.0,92.0,368.0,96.0,368.0,100.0,368.0,104.0,368.0,108.0,368.0,112.0,366.5,116.0,366.5,120.0,366.5,124.0,364.5,128.0,362.5,132.0,364.0,133.0" stroke="black" stroke-width="1" fill="none" />
<polyline points="361.5,133.5,360.0,135.0,356.5,141.5,352.5,142.0" stroke="black" stroke-width="1" fill="none" />
<polyline points="352.0,144.0,356.0,143.0" stroke="black" stroke-width="1" fill="none" />
<polyline points="350.5,144.0,350.5,148.0,350.5,152.0,350.5,156.0,350.5,160.0,350.5,164.0,350.5,168.0,348.5,172.0,346.5,176.0,344.5,180.0,344.5,184.0,344.0,188.0,344.0,192.0,344.5,196.0,344.0,200.0,344.0,204.0,341.0,205.0" stroke="black" stroke-width="1" fill="none" />
<polyline points="290.5,153.0,286.5,153.5,283.5,152.5,281.0,151.5,281.5,147.5,281.5,147.5" stroke="black" stroke-width="1" fill="none" />
<polyline points="279.5,143.5,279.0,147.5,279.5,151.5" stroke="black" stroke-width="1" fill="none" />
<polyline points="288.0,130.0,287.0,127.5,283.0,128.0" stroke="black" stroke-width="1" fill="none" />
<polyline points="283.5,127.5,283.5,131.5,283.5,135.5,289.5,135.5,293.5,135.5,297.5,136.0,301.5,136.0,305.5,135.5,309.5,136.0" stroke="black" stroke-width="1" fill="none" />
<polyline points="313.0,123.5,309.0,124.0,305.0,123.5,301.0,124.0,297.0,124.0,293.0,124.0,289.0,124.0" stroke="black" stroke-width="1" fill="none" />
<polyline points="283.5,126.0,287.5,126.0,291.5,126.0,295.5,125.5,299.5,125.5" stroke="black" stroke-width="1" fill="none" />
<polyline points="254.0,128.0,250.0,127.0" stroke="black" stroke-width="1" fill="none" />
<polyline points="243.5,141.5,247.5,144.5" stroke="black" stroke-width="1" fill="none" />
<polyline points="249.0,145.5,247.0,145.0,242.0,149.5,238.0,149.0,236.5,149.5,237.5,145.5" stroke="black" stroke-width="1" fill="none" />
<polyline points="231.5,147.5,229.5,149.0,222.5,149.5,218.5,148.5,214.5,145.5,213.0,147.0" stroke="black" stroke-width="1" fill="none" />
<polyline points="206.5,151.5,210.5,151.0,215.5,151.0,219.5,151.5" stroke="black" stroke-width="1" fill="none" />
<polyline points="223.5,155.0,219.5,155.0,215.5,155.5" stroke="black" stroke-width="1" fill="none" />
<polyline points="211.5,159.0,215.5,159.0,219.5,159.0,223.5,159.0,227.5,159.0,231.5,157.0,235.5,157.0,239.5,153.5" stroke="black" stroke-width="1" fill="none" />
<polyline points="237.0,157.0,232.5,159.0,228.5,159.0" stroke="black" stroke-width="1" fill="none" />
<polyline points="228.0,155.5,224.0,154.5,226.0,149.0,228.5,145.0,230.0,144.5" stroke="black" stroke-width="1" fill="none" />
<polyline points="224.0,138.0,220.0,138.0,216.0,137.5" stroke="black" stroke-width="1" fill="none" />
<polyline points="220.5,133.5,214.0,133.0,210.0,133.5,206.5,135.0,202.5,135.5" stroke="black" stroke-width="1" fill="none" />
<polyline points="198.5,136.0,202.5,134.0,206.5,132.0,210.5,132.0,214.5,132.0,218.5,132.0,222.5,132.0,226.5,131.5,230.5,131.5,234.5,131.5,238.5,130.0,242.5,130.0,246.5,129.5,253.5,131.0" stroke="black" stroke-width="1" fill="none" />
<polyline points="249.0,118.0,247.0,120.0,246.0,122.0,242.0,122.0,238.0,121.5,234.0,121.5,230.0,121.5,226.0,121.5" stroke="black" stroke-width="1" fill="none" />
<polyline points="232.5,117.5,236.5,118.0" stroke="black" stroke-width="1" fill="none" />
<polyline points="236.5,145.0,232.0,144.0,228.5,147.0,225.5,153.0,221.5,153.5,219.5,149.5,213.5,149.0,212.0,149.5,208.0,149.5,204.0,149.5" stroke="black" stroke-width="1" fill="none" />
<polyline points="200.5,143.0,204.5,141.5,208.5,139.5,212.5,138.0,216.5,136.0,220.5,135.5,224.5,135.5,228.5,135.5,232.5,136.0" stroke="black" stroke-width="1" fill="none" />
<polyline points="244.0,145.0,243.0,149.0,239.5,152.5,243.5,151.5,244.5,153.0" stroke="black" stroke-width="1" fill="none" />
<polyline points="241.5,197.0,240.0,201.0,241.5,201.5,243.0,203.0,244.0,207.0,245.5,206.5,249.5,205.5,254.0,203.0,258.0,203.0,260.5,204.5,264.5,201.0,267.0,202.5,271.0,202.5,275.0,201.0,279.0,201.0,283.0,201.0,283.0,202.5" stroke="black" stroke-width="1" fill="none" />
<polyline points="352.0,151.0,352.0,147.0,356.0,142.0,356.5,138.0,358.5,134.0" stroke="black" stroke-width="1" fill="none" />
<polyline points="365.5,129.5,367.5,123.0,367.5,119.0,369.5,117.5,369.5,113.5,369.5,109.5,369.5,105.5,370.0,101.5,369.5,97.5,369.5,93.5,366.5,88.0,366.0,84.0,366.0,80.0" stroke="black" stroke-width="1" fill="none" />
<polyline points="366.5,80.5,364.0,78.5,362.5,81.5,358.5,76.5,358.5,72.5,358.0,68.5" stroke="black" stroke-width="1" fill="none" />
<polyline points="318.5,81.0,315.0,76.5,313.0,73.0,312.5,69.0,314.0,65.0,312.5,61.0" stroke="black" stroke-width="1" fill="none" />
<polyline points="334.5,33.0,336.5,37.0,340.0,39.0,342.5,42.5,344.0,44.0,347.5,47.5,350.0,49.5,351.5,51.0,352.5,55.0,352.5,59.0" stroke="black" stroke-width="1" fill="none" />
<polyline points="325.0,23.5,321.0,23.5,317.0,22.5" stroke="black" stroke-width="1" fill="none" />
<polyline points="256.0,3.5,252.0,3.5" stroke="black" stroke-width="1" fill="none" />
<polyline points="249.5,3.5,251.5,1.5,255.5,2.0,259.5,0.5" stroke="black" stroke-width="1" fill="none" />
<polyline points="244.5,49.0,240.5,49.0,236.5,49.0" stroke="black" stroke-width="1" fill="none" />
<polyline points="234.5,47.5,232.5,51.5,230.5,54.5,234.5,55.0" stroke="black" stroke-width="1" fill="none" />
<polyline points="234.0,56.5,230.0,57.0,226.0,56.5" stroke="black" stroke-width="1" fill="none" />
<polyline points="228.5,58.5,224.5,58.5,220.5,60.5,220.0,64.5,216.0,64.0" stroke="black" stroke-width="1" fill="none" />
<polyline points="219.5,60.5,214.5,64.5,212.0,68.5,212.0,72.5" stroke="black" stroke-width="1" fill="none" />
<polyline points="212.0,67.0,216.0,66.0,216.5,63.0,220.5,59.0,224.5,56.5,228.5,54.5,232.5,50.5,236.5,47.5,238.0,50.5,242.0,51.0,246.0,50.5" stroke="black" stroke-width="1" fill="none" />
<polyline points="193.5,67.0,193.0,70.5,193.0,66.5" stroke="black" stroke-width="1" fill="none" />
<polyline points="201.0,88.0,201.0,92.0,201.0,96.0,201.0,100.0,201.0,104.0,200.5,108.0,201.0,112.0,199.0,116.0,199.0,120.0,197.5,123.5,201.5,123.5,201.5,121.5,205.5,122.0,208.5,118.0,212.5,118.0,216.5,118.0" stroke="black" stroke-width="1" fill="none" />
<polyline points="200.5,115.5,200.5,119.5,207.0,120.0,211.0,119.5,215.0,119.5,219.0,119.5,223.0,119.5,227.0,120.0,231.0,119.5,235.0,119.5,239.0,120.0,242.0,123.0,246.0,123.5,250.0,122.0" stroke="black" stroke-width="1" fill="none" />
<polyline points="187.0,145.5,183.0,145.5" stroke="black" stroke-width="1" fill="none" />
<polyline points="190.5,143.5,186.5,144.0,182.5,145.5,178.5,145.5,174.5,144.0,171.5,140.0,167.5,140.0" stroke="black" stroke-width="1" fill="none" />
<polyline points="167.5,140.0,167.5,144.0,167.0,148.0,167.0,152.0,167.0,156.0,167.0,160.0,167.5,164.0,167.5,168.0,167.5,172.0,167.5,176.0,167.0,180.0,167.5,184.0,167.5,188.0,167.5,192.0,163.0,198.5,161.0,202.5,163.0,204.5,163.5,208.5,163.5,212.5,165.0,212.5,165.5,216.5,165.5,220.5" stroke="black" stroke-width="1" fill="none" />
<polyline points="134.0,156.0,134.0,152.0,134.0,148.0,134.0,144.0" stroke="black" stroke-width="1" fill="none" />
<polyline points="143.5,156.0,144.0,152.0,147.0,147.5,152.5,143.5" stroke="black" stroke-width="1" fill="none" />
<polyline points="155.0,143.5,155.0,147.5,157.5,151.5,155.5,155.5,155.5,159.5,155.0,163.5,155.5,167.5,157.0,172.5,157.0,176.5,157.0,180.5,157.0,184.5,157.5,188.5,161.0,193.0,161.5,197.0,157.0,200.0,153.5,205.0,153.5,209.0,153.5,213.0,153.0,217.0" stroke="black" stroke-width="1" fill="none" />
<polyline points="140.0,178.5,140.0,174.5,140.0,170.5,139.5,166.5,139.5,162.5,136.0,161.5,136.0,157.5,136.0,153.5,136.0,149.5,136.0,145.5,136.0,141.5,135.5,137.5,134.0,136.0,132.0,135.5,131.5,131.5,131.5,127.5,131.5,123.5" stroke="black" stroke-width="1" fill="none" />
<polyline points="128.0,116.0,128.0,112.0,127.5,108.0" stroke="black" stroke-width="1" fill="none" />
<polyline points="131.5,99.5,131.5,95.5,131.5,91.5,131.5,87.5,132.0,83.5,133.5,81.5,135.5,76.0,137.5,71.0,137.5,67.0" stroke="black" stroke-width="1" fill="none" />
<polyline points="138.0,62.5,142.0,57.0,142.0,53.0,144.0,50.0,145.5,46.0,149.0,45.0,149.5,41.0,151.5,40.0,155.0,38.5,157.0,34.5,159.5,30.0,161.5,30.0,162.0,31.5" stroke="black" stroke-width="1" fill="none" />
<polyline points="169.5,31.5,165.5,35.5,166.5,35.0,170.5,31.5" stroke="black" stroke-width="1" fill="none" />
</svg>