data:image/svg+xml;,<svg id="svg" version="1.1" width="496" height="782" xmlns="http://www.w3.org/2000/svg"><path d="M251.750 152.739 C 245.567 153.127,243.703 155.000,249.500 155.000 C 251.425 155.000,253.000 155.441,253.000 155.981 C 253.000 157.156,250.640 157.684,242.000 158.441 C 238.034 158.789,234.526 159.726,233.000 160.847 C 231.625 161.858,228.848 163.228,226.830 163.893 C 224.811 164.558,222.619 165.754,221.958 166.551 C 221.296 167.348,219.931 168.000,218.925 168.000 C 216.138 168.000,211.694 170.150,209.844 172.393 C 208.451 174.083,207.939 174.194,206.613 173.094 C 205.227 171.944,205.630 171.347,209.946 168.154 C 215.016 164.402,215.927 162.914,211.836 165.067 C 204.741 168.801,192.000 181.213,192.000 184.390 C 192.000 187.774,186.482 189.285,174.907 189.070 C 169.541 188.970,164.330 189.311,163.326 189.828 C 162.322 190.344,160.375 191.234,159.000 191.805 C 148.863 196.013,138.061 201.872,134.004 205.361 C 131.358 207.638,127.349 210.824,125.096 212.442 C 122.843 214.060,121.000 215.690,121.000 216.065 C 121.000 216.439,118.582 219.390,115.628 222.623 C 112.673 225.855,107.857 231.650,104.926 235.500 C 101.995 239.350,99.086 243.021,98.462 243.658 C 97.837 244.296,96.006 246.996,94.393 249.658 C 92.780 252.321,90.893 255.400,90.199 256.500 C 89.505 257.600,87.360 261.875,85.432 266.000 C 80.083 277.446,76.771 283.611,73.754 287.741 C 69.277 293.868,67.795 297.970,66.433 308.000 C 65.724 313.225,64.604 321.090,63.946 325.477 C 62.649 334.117,63.528 344.377,66.647 357.000 C 67.531 360.575,68.732 366.425,69.318 370.000 C 69.903 373.575,70.565 375.600,70.788 374.500 C 71.574 370.630,73.000 370.539,73.000 374.359 C 73.000 376.610,72.599 377.870,72.000 377.500 C 71.450 377.160,71.000 377.343,71.000 377.906 C 71.000 378.469,71.827 379.372,72.838 379.913 C 73.984 380.527,75.350 383.454,76.471 387.698 C 78.319 394.695,79.382 396.810,80.301 395.321 C 80.918 394.323,78.523 384.455,76.922 381.399 C 76.317 380.244,75.990 378.219,76.195 376.899 C 76.528 374.762,76.810 374.984,78.784 378.938 C 80.003 381.379,81.003 384.304,81.006 385.438 C 81.010 386.572,81.690 388.800,82.518 390.388 C 83.347 391.976,83.906 393.954,83.762 394.784 C 83.618 395.614,84.092 396.499,84.815 396.751 C 85.824 397.103,85.975 396.313,85.464 393.355 C 84.847 389.786,84.907 389.649,86.274 391.500 C 87.086 392.600,88.594 395.911,89.625 398.858 C 91.314 403.684,93.079 406.208,97.156 409.627 C 97.895 410.247,99.327 411.761,100.337 412.990 C 101.686 414.632,102.470 414.930,103.287 414.113 C 107.239 410.161,110.441 415.487,111.809 428.291 C 112.516 434.903,112.403 436.938,111.228 438.750 C 110.161 440.396,110.098 441.000,110.993 441.000 C 111.804 441.000,112.002 441.857,111.580 443.537 C 111.230 444.933,111.423 447.858,112.010 450.037 C 112.894 453.320,113.508 454.000,115.591 454.000 C 117.484 454.000,118.362 454.740,119.150 457.000 C 119.725 458.650,120.758 460.000,121.445 460.000 C 122.132 460.000,123.732 460.900,125.000 462.000 C 126.268 463.100,127.687 464.000,128.153 464.000 C 128.619 464.000,129.000 465.318,129.000 466.929 C 129.000 468.539,129.701 470.558,130.558 471.415 C 131.415 472.272,132.602 475.586,133.196 478.778 C 134.067 483.460,134.766 484.814,136.815 485.781 C 138.212 486.440,139.387 486.871,139.427 486.740 C 139.970 484.954,142.061 482.557,142.907 482.750 C 143.508 482.887,144.000 482.060,144.000 480.910 C 144.000 479.761,144.960 478.043,146.133 477.093 C 147.926 475.642,148.083 475.023,147.116 473.217 C 146.448 471.968,146.227 469.433,146.589 467.167 C 146.984 464.701,146.727 462.390,145.892 460.883 C 145.165 459.572,144.555 458.185,144.535 457.800 C 144.516 457.415,143.938 456.537,143.250 455.850 C 142.563 455.163,142.000 454.067,142.000 453.415 C 142.000 452.763,140.861 451.483,139.468 450.571 C 138.076 449.659,137.201 448.484,137.524 447.960 C 137.848 447.437,136.921 445.905,135.466 444.556 C 133.357 442.601,132.650 440.742,131.988 435.403 C 131.467 431.202,130.367 427.635,129.038 425.838 C 127.873 424.261,127.012 422.415,127.127 421.736 C 127.241 421.056,126.968 418.728,126.521 416.563 C 126.007 414.079,126.182 410.237,126.995 406.149 C 127.703 402.587,128.227 394.128,128.160 387.351 C 128.093 380.574,128.451 373.944,128.956 372.617 C 129.460 371.290,130.165 368.245,130.521 365.852 C 131.352 360.274,131.671 360.042,132.864 364.140 C 133.768 367.246,133.894 367.330,134.537 365.250 C 135.721 361.422,136.750 362.766,136.346 367.614 C 136.032 371.383,136.234 372.124,137.449 371.658 C 138.267 371.344,139.230 371.563,139.589 372.144 C 140.364 373.399,145.674 372.515,147.759 370.785 C 148.556 370.124,149.565 368.645,150.000 367.500 C 150.539 366.083,152.446 364.968,155.977 364.006 C 158.828 363.230,162.094 361.786,163.234 360.797 C 164.374 359.809,166.037 359.000,166.931 359.000 C 167.824 359.000,169.604 358.265,170.887 357.367 C 173.868 355.278,186.993 352.631,193.558 352.794 C 196.340 352.863,199.940 353.610,201.558 354.454 C 203.176 355.297,205.261 355.990,206.191 355.994 C 207.121 355.997,208.160 356.450,208.500 357.000 C 208.840 357.550,210.412 358.000,211.994 358.000 C 213.576 358.000,216.137 358.486,217.685 359.081 C 221.630 360.596,236.083 363.067,237.148 362.408 C 237.633 362.109,238.708 360.242,239.536 358.260 C 241.932 352.524,240.141 348.673,233.687 345.681 C 230.834 344.359,226.290 342.740,223.590 342.084 C 220.889 341.428,216.005 339.765,212.735 338.388 C 209.387 336.979,203.088 335.466,198.316 334.923 C 193.655 334.394,188.247 333.294,186.298 332.480 C 182.407 330.854,175.953 330.532,173.236 331.829 C 172.281 332.285,169.633 333.622,167.350 334.801 C 165.068 335.980,161.243 337.203,158.850 337.519 C 156.458 337.836,153.240 338.291,151.700 338.532 C 149.943 338.807,149.137 338.587,149.536 337.941 C 150.293 336.718,147.409 332.000,145.906 332.000 C 143.816 332.000,142.215 329.324,142.722 326.676 C 143.101 324.689,143.831 324.000,145.558 324.000 C 148.434 324.000,148.719 323.546,149.384 317.889 C 149.991 312.726,150.653 310.797,155.034 301.427 C 156.755 297.746,157.955 293.936,157.700 292.961 C 157.445 291.986,158.044 289.957,159.032 288.451 C 160.020 286.946,160.606 285.138,160.336 284.434 C 160.066 283.730,160.740 282.675,161.833 282.089 C 162.927 281.504,164.862 279.332,166.133 277.263 C 168.987 272.619,171.191 270.754,177.147 267.946 C 179.702 266.741,182.320 264.771,182.963 263.569 C 185.030 259.707,195.123 255.675,206.828 254.036 C 222.932 251.782,233.843 251.626,241.537 253.542 C 247.289 254.974,249.426 255.133,251.210 254.258 C 254.446 252.673,259.985 252.135,263.298 253.086 C 264.850 253.531,271.156 253.986,277.310 254.098 C 283.465 254.210,288.725 254.571,289.000 254.901 C 290.057 256.167,295.885 259.000,297.433 259.000 C 299.716 259.000,322.000 269.955,322.000 271.078 C 322.000 271.585,322.691 272.000,323.535 272.000 C 324.380 272.000,326.180 272.727,327.535 273.615 C 328.891 274.503,330.000 274.930,330.000 274.564 C 330.000 273.722,336.473 278.433,340.750 282.387 C 342.538 284.040,344.000 285.942,344.000 286.613 C 344.000 287.284,344.378 287.983,344.841 288.167 C 345.997 288.625,353.000 298.747,353.000 299.959 C 353.000 300.498,353.818 302.415,354.818 304.220 C 355.818 306.024,357.441 310.425,358.426 314.000 C 359.410 317.575,360.565 320.950,360.992 321.500 C 362.437 323.360,363.833 332.309,363.014 334.463 C 362.112 336.835,362.795 342.000,364.010 342.000 C 364.437 342.000,365.046 342.676,365.363 343.503 C 365.854 344.784,365.573 344.767,363.470 343.388 C 361.955 342.396,361.000 340.822,361.000 339.318 C 361.000 337.272,360.647 336.977,358.875 337.540 C 357.309 338.037,356.955 337.881,357.531 336.950 C 358.100 336.029,357.726 335.838,356.155 336.249 C 354.968 336.560,354.249 336.405,354.558 335.907 C 354.866 335.408,353.999 335.000,352.630 335.000 C 351.262 335.000,349.437 334.294,348.574 333.431 C 346.413 331.270,341.495 330.000,335.288 330.000 C 331.303 330.000,330.186 330.322,330.583 331.355 C 330.961 332.341,329.746 332.870,326.113 333.300 C 323.369 333.625,318.959 334.753,316.312 335.806 C 306.849 339.573,295.386 343.000,292.251 343.000 C 287.971 343.000,281.115 346.692,280.450 349.355 C 279.669 352.479,279.265 359.299,279.775 360.750 C 280.022 361.454,281.877 362.000,284.024 362.000 C 286.163 362.000,288.032 362.548,288.286 363.250 C 288.645 364.242,289.191 364.233,290.932 363.202 C 292.141 362.487,294.071 362.205,295.233 362.574 C 297.167 363.188,297.039 363.426,293.673 365.457 C 291.655 366.675,290.250 367.916,290.549 368.216 C 290.848 368.515,289.846 369.073,288.322 369.455 C 286.634 369.879,285.410 369.730,285.192 369.075 C 284.739 367.717,282.000 367.655,282.000 369.004 C 282.000 369.556,282.860 371.612,283.912 373.574 C 285.807 377.110,285.806 377.175,283.739 381.046 C 281.970 384.362,281.288 384.859,279.228 384.342 C 277.236 383.843,276.866 384.071,277.157 385.617 C 277.352 386.653,278.508 387.938,279.726 388.474 C 280.943 389.010,282.066 390.062,282.220 390.813 C 282.374 391.564,283.935 392.780,285.689 393.515 C 288.394 394.649,289.058 394.636,290.061 393.426 C 290.991 392.306,290.942 392.000,289.835 392.000 C 289.060 392.000,288.358 391.100,288.275 390.000 C 288.069 387.263,290.608 387.464,291.434 390.250 L 292.102 392.500 293.045 390.181 C 293.773 388.389,294.500 388.003,296.243 388.483 C 298.494 389.104,298.494 389.100,296.090 387.013 C 294.765 385.862,292.974 384.525,292.111 384.042 C 290.722 383.265,290.769 382.913,292.521 380.976 C 294.264 379.048,300.997 375.000,302.460 375.000 C 302.757 375.000,303.000 376.368,303.000 378.040 C 303.000 379.712,303.909 382.862,305.020 385.040 L 307.041 389.000 303.270 389.040 L 299.500 389.080 302.340 390.619 C 303.901 391.465,307.604 392.215,310.567 392.284 C 315.052 392.389,316.672 391.908,320.228 389.417 C 323.617 387.042,324.724 385.501,325.584 381.962 C 326.180 379.508,327.305 377.382,328.084 377.239 C 329.667 376.947,337.000 383.300,337.000 384.964 C 337.000 386.608,330.820 389.992,327.809 389.996 C 324.827 390.000,323.320 391.462,325.139 392.586 C 327.289 393.915,346.741 394.241,350.468 393.011 C 355.209 391.446,356.141 389.439,354.420 384.494 C 353.656 382.297,353.023 379.560,353.015 378.411 C 352.994 375.536,341.544 368.300,333.268 365.934 C 329.482 364.851,321.273 363.802,313.182 363.368 C 303.864 362.868,300.558 362.409,302.815 361.930 C 304.639 361.543,307.114 360.309,308.315 359.188 C 309.517 358.067,312.975 356.168,316.000 354.967 C 320.853 353.042,322.500 352.875,330.000 353.554 C 334.675 353.977,339.911 354.286,341.636 354.240 C 344.187 354.173,344.683 354.495,344.299 355.966 C 343.573 358.742,345.728 359.357,349.653 357.494 L 353.205 355.809 356.982 359.859 C 359.059 362.086,360.962 363.705,361.211 363.456 C 361.679 362.988,363.360 366.084,364.427 369.378 C 364.934 370.944,365.759 371.175,369.388 370.766 C 375.143 370.117,376.685 371.157,377.525 376.251 C 377.911 378.588,378.658 381.036,379.187 381.691 C 382.232 385.468,383.645 418.599,381.087 426.272 C 380.396 428.346,379.694 431.496,379.527 433.272 C 379.360 435.047,378.888 439.973,378.477 444.217 C 377.950 449.663,378.100 452.827,378.986 454.967 C 380.265 458.053,383.234 459.048,384.595 456.845 C 384.988 456.211,384.897 455.946,384.393 456.257 C 383.890 456.568,382.584 456.169,381.491 455.370 C 379.558 453.956,379.603 453.829,383.128 450.708 C 385.122 448.944,387.632 446.150,388.706 444.500 C 391.032 440.929,394.615 431.003,395.477 425.743 C 396.305 420.695,402.955 413.533,405.936 414.480 C 407.686 415.035,408.324 414.409,410.006 410.486 C 411.103 407.928,412.000 405.196,412.000 404.417 C 412.000 403.638,412.337 402.998,412.750 402.995 C 413.163 402.993,414.962 401.620,416.750 399.945 C 419.858 397.032,420.000 396.570,420.000 389.385 C 420.000 380.975,422.865 372.495,426.047 371.485 C 427.053 371.166,428.389 369.351,429.016 367.452 C 429.642 365.553,430.727 364.000,431.426 364.000 C 432.731 364.000,434.953 359.502,437.072 352.571 C 437.769 350.291,438.382 340.950,438.532 330.315 L 438.792 311.988 435.941 309.958 C 432.922 307.808,426.391 295.794,427.376 294.201 C 428.272 292.751,424.030 281.145,420.921 276.537 C 419.392 274.272,417.428 269.346,416.557 265.590 C 414.496 256.704,409.969 248.548,404.160 243.254 C 401.597 240.919,399.196 239.007,398.823 239.004 C 397.423 238.995,391.996 228.174,392.601 226.597 C 393.006 225.541,391.265 222.373,387.612 217.519 C 384.525 213.418,382.000 209.444,382.000 208.687 C 382.000 207.929,381.212 206.640,380.250 205.820 C 378.015 203.918,370.297 200.000,368.784 200.000 C 368.149 200.000,366.607 199.040,365.357 197.866 C 364.107 196.692,360.853 194.329,358.125 192.616 C 353.860 189.936,336.521 178.418,333.470 176.236 C 331.981 175.172,325.115 171.800,311.971 165.678 C 301.290 160.702,297.081 159.121,286.500 156.106 C 281.481 154.675,262.776 151.936,259.757 152.189 C 258.515 152.293,254.912 152.541,251.750 152.739 M263.500 155.000 C 263.160 155.550,260.771 155.947,258.191 155.882 C 253.980 155.775,253.807 155.685,256.500 155.000 C 260.975 153.861,264.204 153.861,263.500 155.000 M273.450 156.105 C 274.018 156.640,272.736 157.000,270.259 157.000 C 266.249 157.000,264.342 155.991,265.729 154.604 C 266.552 153.782,272.135 154.867,273.450 156.105 M233.813 156.683 C 234.534 156.972,235.397 156.936,235.729 156.604 C 236.061 156.272,235.471 156.036,234.417 156.079 C 233.252 156.127,233.015 156.364,233.813 156.683 M280.500 157.000 C 280.840 157.550,280.191 158.000,279.059 158.000 C 277.927 158.000,277.000 157.550,277.000 157.000 C 277.000 156.450,277.648 156.000,278.441 156.000 C 279.234 156.000,280.160 156.450,280.500 157.000 M220.166 160.482 C 216.552 162.473,215.283 164.000,217.241 164.000 C 218.144 164.000,219.139 163.585,219.452 163.077 C 219.766 162.569,221.368 161.858,223.011 161.497 C 224.655 161.136,226.000 160.427,226.000 159.921 C 226.000 158.646,222.968 158.938,220.166 160.482 M339.000 295.000 C 339.000 295.550,339.450 296.000,340.000 296.000 C 340.550 296.000,341.000 295.550,341.000 295.000 C 341.000 294.450,340.550 294.000,340.000 294.000 C 339.450 294.000,339.000 294.450,339.000 295.000 M187.427 363.978 C 184.636 364.396,180.811 365.409,178.927 366.229 C 171.596 369.417,169.821 370.000,167.453 370.000 C 165.963 370.000,165.000 370.576,165.000 371.469 C 165.000 372.363,164.414 372.712,163.500 372.362 C 162.675 372.045,162.000 372.240,162.000 372.794 C 162.000 373.349,160.425 374.732,158.500 375.867 C 155.086 377.882,155.000 378.088,155.000 384.267 C 155.000 387.751,155.563 391.844,156.250 393.362 L 157.500 396.123 175.000 395.531 C 200.456 394.670,206.094 394.136,210.000 392.219 L 213.500 390.500 210.250 390.187 C 208.463 390.014,207.000 389.688,207.000 389.461 C 207.000 389.234,207.898 387.575,208.996 385.774 C 210.094 383.973,210.994 381.038,210.996 379.250 C 210.998 377.462,211.243 376.000,211.540 376.000 C 212.616 376.000,219.554 380.001,221.750 381.888 C 224.802 384.510,224.578 385.934,221.000 386.650 C 219.350 386.980,218.000 387.674,218.000 388.192 C 218.000 388.711,218.837 388.869,219.860 388.544 C 220.883 388.220,223.695 387.370,226.110 386.656 C 229.849 385.550,230.459 385.005,230.227 382.982 C 230.077 381.675,229.370 379.908,228.656 379.053 C 227.942 378.199,227.274 376.150,227.171 374.500 C 226.958 371.106,224.547 368.805,218.233 365.971 C 213.398 363.802,196.078 362.681,187.427 363.978 M281.750 365.706 C 282.988 365.944,285.012 365.944,286.250 365.706 C 287.488 365.467,286.475 365.272,284.000 365.272 C 281.525 365.272,280.512 365.467,281.750 365.706 M214.650 368.705 C 219.901 371.276,222.753 373.580,221.828 374.505 C 221.577 374.756,217.496 373.643,212.759 372.032 C 203.699 368.951,195.758 368.024,190.132 369.392 C 187.517 370.028,186.862 369.914,187.206 368.883 C 187.825 367.024,191.189 366.365,200.879 366.204 C 208.077 366.085,210.019 366.437,214.650 368.705 M326.000 368.670 C 327.350 370.091,327.250 370.192,325.000 369.685 C 316.890 367.859,310.361 367.912,304.834 369.849 C 301.718 370.941,298.881 371.547,298.530 371.196 C 298.178 370.845,297.578 371.005,297.196 371.552 C 296.139 373.062,290.892 376.225,290.347 375.681 C 290.084 375.417,290.615 374.594,291.528 373.851 C 292.441 373.108,294.261 371.432,295.572 370.128 C 297.222 368.485,298.639 367.934,300.176 368.336 C 301.397 368.655,302.885 368.510,303.483 368.014 C 304.791 366.928,314.942 366.141,320.500 366.694 C 322.700 366.913,325.175 367.803,326.000 368.670 M184.729 370.604 C 184.397 370.936,183.534 370.972,182.813 370.683 C 182.015 370.364,182.252 370.127,183.417 370.079 C 184.471 370.036,185.061 370.272,184.729 370.604 M310.000 378.500 C 310.000 379.325,309.577 380.000,309.059 380.000 C 307.798 380.000,306.895 378.438,307.694 377.639 C 308.820 376.513,310.000 376.954,310.000 378.500 M187.000 380.066 C 187.000 383.087,188.783 386.138,192.351 389.223 L 195.500 391.946 191.500 391.978 C 186.319 392.019,178.101 389.058,176.836 386.693 C 176.027 385.183,176.546 384.227,179.673 381.464 C 184.099 377.554,187.000 377.001,187.000 380.066 M196.000 379.000 C 196.000 379.550,195.550 380.000,195.000 380.000 C 194.450 380.000,194.000 379.550,194.000 379.000 C 194.000 378.450,194.450 378.000,195.000 378.000 C 195.550 378.000,196.000 378.450,196.000 379.000 M237.238 384.540 C 236.729 385.449,235.118 386.261,233.657 386.346 C 230.923 386.505,230.528 387.489,230.987 393.000 C 231.262 396.317,231.606 396.537,233.524 394.619 C 234.414 393.729,235.587 393.000,236.130 393.000 C 236.674 393.000,236.854 392.573,236.531 392.050 C 235.914 391.051,239.382 388.715,240.227 389.560 C 240.496 389.829,240.658 388.610,240.587 386.851 C 240.443 383.266,238.645 382.025,237.238 384.540 M84.788 388.137 C 84.538 388.886,84.085 388.432,83.731 387.080 C 83.296 385.417,83.426 385.026,84.168 385.768 C 84.750 386.350,85.028 387.415,84.788 388.137 M94.994 394.490 C 97.655 398.795,97.463 402.882,94.791 398.804 C 93.018 396.097,91.397 391.000,92.310 391.000 C 92.600 391.000,93.807 392.570,94.994 394.490 M85.000 402.000 C 85.000 402.550,85.477 403.000,86.059 403.000 C 86.641 403.000,86.840 402.550,86.500 402.000 C 86.160 401.450,85.684 401.000,85.441 401.000 C 85.198 401.000,85.000 401.450,85.000 402.000 M228.814 428.852 C 224.429 433.201,222.222 437.315,220.417 444.500 C 220.002 446.150,219.601 447.725,219.525 448.000 C 217.976 453.615,217.938 455.275,219.328 456.817 C 220.162 457.743,221.163 459.850,221.553 461.500 C 222.688 466.298,225.629 468.761,231.129 469.518 C 234.579 469.992,236.531 469.804,237.632 468.890 C 239.042 467.720,238.973 467.396,236.961 465.767 C 235.727 464.768,235.021 463.645,235.393 463.273 C 235.937 462.730,241.876 461.768,250.500 460.826 C 251.050 460.766,253.525 460.994,256.000 461.332 C 259.577 461.822,261.013 461.548,263.000 459.996 L 265.500 458.044 259.471 458.022 C 254.394 458.004,253.209 457.654,251.971 455.808 C 248.168 450.141,246.279 449.000,240.700 449.000 C 235.066 449.000,233.062 450.237,230.559 455.257 C 228.706 458.973,225.691 458.102,224.209 453.423 C 222.729 448.747,223.828 444.352,226.735 443.325 C 227.706 442.982,229.484 441.817,230.688 440.735 C 231.941 439.608,234.930 438.545,237.688 438.245 C 245.486 437.398,250.303 433.036,249.291 427.739 C 248.701 424.657,247.560 424.297,245.357 426.500 C 243.331 428.526,242.258 428.387,241.500 426.000 C 241.008 424.449,240.039 424.023,237.183 424.102 C 234.208 424.184,232.599 425.097,228.814 428.852 M283.528 429.954 C 282.786 431.155,286.996 436.120,288.151 435.407 C 289.665 434.471,288.993 432.540,286.529 430.749 C 285.140 429.739,283.869 429.403,283.528 429.954 M114.813 440.938 C 115.063 441.688,114.688 442.063,113.938 441.813 C 113.216 441.572,112.428 440.784,112.188 440.063 C 111.938 439.313,112.313 438.938,113.063 439.188 C 113.784 439.428,114.572 440.216,114.813 440.938 M386.598 452.163 C 384.763 454.783,385.306 455.994,388.001 455.289 C 389.294 454.951,390.000 453.925,390.000 452.383 C 390.000 449.417,388.586 449.325,386.598 452.163 M273.216 453.009 C 266.729 456.965,268.143 460.231,276.842 461.385 C 279.485 461.735,282.415 462.583,283.352 463.268 C 284.885 464.389,284.702 464.706,281.528 466.415 C 275.006 469.927,278.414 471.084,286.362 468.055 C 288.521 467.232,289.097 466.478,288.706 464.983 C 288.421 463.894,288.607 462.743,289.120 462.426 C 289.633 462.109,289.946 460.273,289.817 458.347 C 289.615 455.346,289.011 454.569,285.603 452.922 C 280.539 450.475,277.335 450.498,273.216 453.009 M154.250 476.706 C 153.012 476.944,152.000 477.809,152.000 478.629 C 152.000 479.448,152.445 479.843,152.989 479.507 C 153.555 479.157,153.723 479.558,153.382 480.448 C 153.040 481.339,153.317 482.000,154.033 482.000 C 154.718 482.000,155.817 482.735,156.473 483.632 C 157.573 485.136,157.879 485.126,160.359 483.501 C 162.403 482.161,162.892 481.226,162.391 479.618 C 161.318 476.176,159.807 475.635,154.250 476.706 M241.689 502.750 C 241.452 503.163,241.390 504.315,241.550 505.312 C 241.963 507.883,238.997 508.717,237.367 506.487 C 236.139 504.808,235.471 504.752,229.615 505.831 C 226.090 506.480,221.922 507.681,220.353 508.500 C 218.784 509.318,216.773 509.990,215.886 509.994 C 214.998 509.997,212.874 511.238,211.166 512.750 L 208.061 515.500 212.390 520.043 C 218.950 526.927,224.185 529.740,227.093 527.942 C 228.175 527.274,228.165 526.676,227.036 524.567 C 226.281 523.157,225.982 521.684,226.372 521.295 C 227.363 520.303,251.177 520.839,265.229 522.169 C 273.418 522.944,277.342 522.963,278.229 522.231 C 279.688 521.027,289.000 521.804,289.000 523.130 C 289.000 523.609,287.988 524.052,286.750 524.115 C 283.368 524.289,282.531 524.451,282.185 525.000 C 281.633 525.879,283.178 529.000,284.166 529.000 C 284.690 529.000,284.840 528.550,284.500 528.000 C 284.156 527.444,284.907 526.999,286.191 526.999 C 287.461 526.998,289.807 525.873,291.406 524.499 C 293.004 523.124,294.734 522.000,295.251 522.000 C 295.768 522.000,297.498 521.069,299.096 519.932 C 304.574 516.031,302.049 513.241,292.622 512.776 C 289.537 512.624,287.011 512.203,287.007 511.839 C 286.997 510.855,278.979 507.305,275.250 506.635 C 272.457 506.132,272.000 506.336,272.000 508.084 C 272.000 509.243,272.449 509.840,273.044 509.473 C 273.618 509.118,275.177 509.541,276.509 510.414 C 277.840 511.286,279.620 512.000,280.465 512.000 C 281.309 512.000,282.000 512.513,282.000 513.139 C 282.000 514.394,276.277 513.943,267.250 511.977 C 263.140 511.082,262.000 510.418,262.000 508.917 C 262.000 506.312,259.370 506.479,258.677 509.128 C 258.212 510.905,257.657 511.137,255.310 510.531 C 253.765 510.133,251.150 509.743,249.500 509.665 C 247.850 509.587,246.128 509.068,245.674 508.512 C 245.132 507.849,244.673 507.931,244.341 508.750 C 244.062 509.438,242.885 510.000,241.726 510.000 C 239.866 510.000,239.803 509.853,241.193 508.750 C 242.876 507.414,244.262 502.000,242.920 502.000 C 242.479 502.000,241.925 502.337,241.689 502.750 M238.638 504.500 C 238.955 505.325,239.391 506.000,239.607 506.000 C 239.823 506.000,240.000 505.325,240.000 504.500 C 240.000 503.675,239.564 503.000,239.031 503.000 C 238.499 503.000,238.322 503.675,238.638 504.500 M262.000 504.500 C 260.977 505.732,261.055 506.000,262.437 506.000 C 263.361 506.000,263.864 505.588,263.553 505.085 C 263.242 504.582,263.553 503.943,264.244 503.664 C 265.026 503.349,265.075 503.128,264.372 503.079 C 263.752 503.036,262.685 503.675,262.000 504.500 M246.736 537.598 C 246.030 538.304,246.804 540.646,248.751 543.690 C 250.695 546.729,253.369 545.608,252.494 542.120 C 251.426 537.864,248.649 535.684,246.736 537.598 M150.506 551.250 C 150.109 552.763,150.128 555.237,150.551 556.750 C 150.973 558.263,151.217 560.292,151.094 561.260 C 150.971 562.228,151.800 564.201,152.935 565.645 C 154.071 567.089,154.982 569.672,154.960 571.385 C 154.916 574.799,150.105 586.703,150.040 583.559 C 150.000 581.637,149.985 581.637,148.532 583.559 C 147.724 584.626,147.049 585.130,147.032 584.679 C 147.014 584.227,146.267 584.590,145.370 585.487 C 144.474 586.383,142.927 590.128,141.933 593.808 C 139.899 601.334,138.149 606.664,136.866 609.236 C 136.390 610.191,136.000 611.588,136.000 612.340 C 136.000 613.093,134.988 614.810,133.750 616.157 C 131.296 618.829,130.220 620.815,126.944 628.719 C 124.460 634.710,123.279 635.926,119.337 636.550 C 108.190 638.314,103.674 639.469,101.630 641.076 C 100.340 642.091,97.776 643.187,95.933 643.512 C 94.090 643.837,92.113 644.467,91.541 644.913 C 90.968 645.359,89.150 646.046,87.500 646.440 C 83.989 647.278,80.798 649.863,81.624 651.201 C 81.941 651.714,81.593 652.030,80.850 651.904 C 79.203 651.624,73.874 652.989,72.500 654.043 C 71.950 654.466,68.802 655.592,65.505 656.548 C 58.165 658.674,52.530 662.049,48.288 666.858 C 46.521 668.861,45.058 669.938,45.038 669.250 C 44.967 666.898,42.147 667.521,30.500 672.464 C 28.850 673.164,24.800 674.532,21.500 675.504 C 18.200 676.476,12.688 678.194,9.250 679.321 L 3.000 681.370 2.945 686.935 C 2.890 692.426,3.132 708.430,3.520 725.000 C 3.629 729.675,3.788 743.265,3.872 755.199 C 3.957 767.134,4.358 777.102,4.763 777.352 C 6.125 778.190,50.236 780.090,79.500 780.571 C 127.073 781.353,490.111 782.135,493.173 781.462 L 496.000 780.841 496.000 722.579 L 496.000 664.317 492.108 663.151 C 489.968 662.509,487.294 662.325,486.168 662.742 C 484.214 663.465,484.000 663.780,484.000 665.932 C 484.000 666.444,482.762 666.700,481.250 666.501 C 479.738 666.301,477.703 666.107,476.729 666.069 C 475.754 666.031,474.448 664.884,473.827 663.519 C 473.205 662.155,471.863 660.774,470.844 660.450 C 468.774 659.794,463.633 663.253,464.784 664.528 C 465.178 664.964,464.969 665.016,464.319 664.644 C 463.670 664.272,462.856 664.425,462.510 664.984 C 460.612 668.056,453.182 662.295,454.526 658.793 C 455.494 656.270,450.638 652.999,444.407 651.977 C 439.305 651.140,438.330 651.238,437.250 652.695 C 436.478 653.737,436.000 653.902,436.000 653.128 C 436.000 652.439,435.168 652.015,434.152 652.187 C 431.710 652.600,427.000 650.029,427.000 648.283 C 427.000 646.283,422.045 642.000,419.732 642.000 C 418.075 642.000,417.960 642.246,419.019 643.523 C 420.091 644.815,419.996 644.943,418.391 644.368 C 417.351 643.995,415.927 643.245,415.226 642.702 C 414.525 642.159,413.666 642.000,413.318 642.349 C 412.475 643.192,409.884 640.997,410.515 639.975 C 410.787 639.536,409.094 638.866,406.754 638.485 C 404.414 638.104,400.279 636.442,397.564 634.791 C 393.140 632.101,392.505 631.956,391.453 633.395 C 389.979 635.411,388.113 635.459,387.362 633.500 C 387.045 632.675,386.360 632.000,385.839 632.000 C 385.318 632.000,383.453 630.652,381.696 629.005 C 379.938 627.357,377.564 626.007,376.419 626.005 C 375.247 626.002,373.872 625.017,373.271 623.750 C 372.684 622.513,371.471 619.925,370.574 618.000 C 368.552 613.656,367.099 611.273,364.375 607.829 C 363.206 606.352,361.944 603.423,361.571 601.321 C 359.887 591.826,357.843 591.323,355.933 599.933 C 355.007 604.107,354.082 606.007,352.814 606.339 C 350.424 606.963,349.412 609.829,350.797 612.047 C 352.014 613.996,351.281 617.509,348.615 622.500 C 347.733 624.150,347.010 626.047,347.006 626.715 C 347.001 627.773,345.976 629.808,340.590 639.452 C 339.990 640.525,338.262 643.180,336.750 645.352 C 335.238 647.523,334.000 649.730,334.000 650.256 C 334.000 650.781,332.875 652.548,331.500 654.182 C 330.125 655.816,329.000 657.706,329.000 658.381 C 329.000 659.917,316.818 673.000,315.388 673.000 C 314.811 673.000,313.736 674.125,313.000 675.500 C 312.264 676.875,311.288 678.000,310.831 678.000 C 310.374 678.000,310.000 678.429,310.000 678.954 C 310.000 679.479,307.788 682.867,305.085 686.484 C 302.382 690.100,297.611 698.108,294.482 704.279 C 286.720 719.594,282.462 727.645,280.725 730.297 C 279.920 731.525,278.949 733.954,278.567 735.696 C 278.184 737.437,277.270 739.361,276.534 739.972 C 275.798 740.582,274.919 742.189,274.579 743.541 C 274.240 744.893,273.502 746.000,272.940 746.000 C 272.379 746.000,270.587 746.900,268.960 748.000 C 267.332 749.100,264.668 750.900,263.040 752.000 C 261.413 753.100,259.536 754.000,258.869 754.000 C 258.203 754.000,256.947 754.633,256.079 755.408 C 255.210 756.182,250.957 757.470,246.628 758.270 C 239.713 759.547,238.396 759.545,235.804 758.252 C 234.181 757.443,232.614 756.157,232.322 755.396 C 232.029 754.634,231.357 754.279,230.828 754.606 C 230.299 754.934,229.618 754.256,229.316 753.101 C 229.014 751.945,228.257 750.993,227.633 750.985 C 225.448 750.955,223.570 749.096,223.414 746.808 C 223.184 743.428,221.967 741.000,220.501 741.000 C 219.795 741.000,218.913 739.790,218.542 738.311 C 218.171 736.832,216.997 734.400,215.934 732.907 C 214.870 731.413,213.990 729.136,213.978 727.846 C 213.966 726.556,213.066 723.538,211.978 721.141 C 210.890 718.743,210.000 716.304,210.000 715.720 C 210.000 715.135,209.379 713.947,208.620 713.079 C 207.861 712.210,205.545 708.350,203.473 704.500 C 201.400 700.650,198.399 695.532,196.803 693.126 C 195.207 690.720,193.628 687.388,193.294 685.720 C 192.687 682.684,189.821 679.000,188.067 679.000 C 187.121 679.000,185.804 675.915,186.084 674.354 C 186.168 673.884,186.184 672.431,186.118 671.125 C 186.013 669.013,185.640 668.812,182.750 669.307 C 180.963 669.614,180.063 669.633,180.750 669.349 C 181.438 669.065,182.000 667.971,182.000 666.917 C 182.000 665.862,182.450 665.000,183.000 665.000 C 183.550 665.000,184.000 664.550,184.000 664.000 C 184.000 662.730,177.717 662.685,176.450 663.946 C 175.851 664.542,175.464 663.876,175.404 662.145 C 175.307 659.405,175.320 659.400,180.404 660.126 C 183.207 660.526,186.963 660.887,188.750 660.927 C 191.919 660.998,192.000 660.894,192.000 656.741 C 192.000 653.564,191.491 652.164,190.000 651.232 C 188.900 650.545,188.000 649.312,188.000 648.492 C 188.000 647.671,187.333 647.000,186.518 647.000 C 185.025 647.000,176.000 638.959,176.000 637.629 C 176.000 636.871,175.716 636.482,171.162 631.000 C 169.563 629.075,167.938 626.043,167.551 624.261 C 167.163 622.480,166.431 620.766,165.923 620.452 C 164.417 619.522,164.874 616.000,166.500 616.000 C 168.166 616.000,168.522 614.440,167.061 613.538 C 166.545 613.219,165.653 613.755,165.080 614.729 C 164.171 616.271,163.907 616.306,163.034 615.000 C 161.494 612.697,161.759 612.262,165.000 611.787 C 166.923 611.504,168.000 611.781,168.000 612.557 C 168.000 613.831,171.072 614.963,174.595 614.986 C 177.168 615.003,180.000 617.966,180.000 620.642 C 180.000 621.733,181.350 623.919,183.000 625.500 C 184.650 627.081,186.025 629.302,186.055 630.437 C 186.123 632.975,192.000 638.055,192.000 635.576 C 192.000 634.316,193.207 634.000,198.031 634.000 C 202.666 634.000,204.207 633.625,204.684 632.382 C 205.244 630.923,207.955 630.829,232.205 631.433 L 259.106 632.102 270.303 629.389 C 276.461 627.897,282.210 626.074,283.079 625.338 C 283.947 624.602,285.226 624.000,285.921 624.000 C 286.616 624.000,288.329 623.100,289.727 622.000 C 291.126 620.900,292.869 620.000,293.601 620.000 C 295.913 620.000,302.000 616.682,302.000 615.422 C 302.000 614.117,304.159 613.020,306.832 612.967 C 308.520 612.933,313.000 609.718,313.000 608.540 C 313.000 607.115,319.821 601.000,321.410 601.000 C 322.349 601.000,322.850 600.566,322.523 600.036 C 322.195 599.507,322.806 598.194,323.880 597.120 C 324.954 596.046,325.581 594.915,325.274 594.607 C 324.966 594.299,325.453 593.763,326.357 593.417 C 327.261 593.070,328.000 592.001,328.000 591.041 C 328.000 590.082,329.963 586.308,332.363 582.654 C 335.681 577.603,336.603 575.353,336.213 573.256 C 335.569 569.783,333.986 568.716,332.023 570.432 C 331.185 571.164,329.556 572.050,328.402 572.401 C 327.248 572.752,325.795 574.155,325.173 575.519 C 324.552 576.884,323.246 578.004,322.271 578.009 C 321.297 578.014,319.437 579.364,318.137 581.009 C 316.838 582.654,315.182 584.000,314.457 584.000 C 312.358 584.000,306.132 588.330,305.469 590.250 C 305.137 591.212,304.261 592.000,303.522 592.000 C 302.784 592.000,299.902 593.800,297.119 596.000 C 294.336 598.200,291.596 600.000,291.029 600.000 C 290.463 600.000,290.000 600.370,290.000 600.822 C 290.000 601.848,281.835 605.508,276.500 606.872 C 262.754 610.389,259.397 610.793,251.000 609.942 C 238.406 608.666,233.560 607.862,232.984 606.954 C 232.701 606.506,229.382 605.603,225.610 604.946 C 221.744 604.273,217.977 602.977,216.978 601.978 C 216.002 601.002,213.829 599.902,212.149 599.533 C 210.469 599.164,208.060 598.093,206.797 597.155 C 205.534 596.216,203.262 594.821,201.750 594.055 C 200.238 593.289,199.000 592.278,199.000 591.809 C 199.000 590.548,188.756 581.000,187.404 581.000 C 186.766 581.000,185.646 580.278,184.914 579.396 C 184.181 578.514,182.607 577.421,181.416 576.968 C 179.976 576.421,179.023 574.937,178.574 572.544 C 178.145 570.254,177.492 569.196,176.780 569.636 C 176.068 570.076,175.876 569.767,176.251 568.788 C 176.646 567.760,176.287 567.290,175.171 567.374 C 173.938 567.467,173.491 566.661,173.466 564.299 C 173.447 562.538,173.222 560.942,172.966 560.751 C 171.549 559.697,166.287 557.577,165.000 557.541 C 164.121 557.517,163.369 556.362,163.184 554.750 C 163.002 553.176,162.254 552.000,161.434 552.000 C 160.645 552.000,160.000 551.550,160.000 551.000 C 160.000 549.591,154.273 549.750,153.387 551.184 C 152.885 551.995,152.431 551.759,151.942 550.434 C 151.310 548.720,151.147 548.813,150.506 551.250 M149.079 579.583 C 149.127 580.748,149.364 580.985,149.683 580.188 C 149.972 579.466,149.936 578.603,149.604 578.271 C 149.272 577.939,149.036 578.529,149.079 579.583 M150.000 589.274 C 150.000 591.582,149.771 591.461,148.112 588.273 C 147.139 586.400,147.197 586.138,148.477 586.629 C 149.315 586.951,150.000 588.141,150.000 589.274 M363.963 613.911 C 366.116 619.108,364.490 619.571,361.689 614.558 C 358.493 608.842,358.457 608.639,360.863 609.927 C 361.887 610.475,363.283 612.268,363.963 613.911 M200.000 643.000 C 200.000 643.550,200.423 644.000,200.941 644.000 C 201.459 644.000,202.160 643.550,202.500 643.000 C 202.840 642.450,202.416 642.000,201.559 642.000 C 200.702 642.000,200.000 642.450,200.000 643.000 M204.750 647.723 C 206.929 647.994,208.026 648.683,208.079 649.813 C 208.143 651.192,208.262 651.226,208.729 650.000 C 209.043 649.175,209.795 648.169,210.400 647.765 C 211.005 647.361,209.250 647.096,206.500 647.175 C 202.913 647.279,202.419 647.434,204.750 647.723 M208.000 653.000 C 208.000 653.550,208.423 654.000,208.941 654.000 C 209.459 654.000,210.160 653.550,210.500 653.000 C 210.840 652.450,210.416 652.000,209.559 652.000 C 208.702 652.000,208.000 652.450,208.000 653.000 M75.000 656.000 C 76.213 656.784,76.069 656.972,74.250 656.985 C 73.013 656.993,72.000 656.550,72.000 656.000 C 72.000 654.747,73.061 654.747,75.000 656.000 M216.813 655.683 C 217.534 655.972,218.397 655.936,218.729 655.604 C 219.061 655.272,218.471 655.036,217.417 655.079 C 216.252 655.127,216.015 655.364,216.813 655.683 M451.000 657.000 C 451.000 657.550,450.887 658.178,450.750 658.395 C 450.613 658.612,451.360 659.740,452.411 660.901 C 453.461 662.062,454.002 663.331,453.613 663.721 C 452.725 664.608,449.500 662.651,449.500 661.224 C 449.500 660.643,449.163 659.829,448.750 659.417 C 447.462 658.129,447.929 656.000,449.500 656.000 C 450.325 656.000,451.000 656.450,451.000 657.000 M458.218 660.154 C 458.464 660.895,459.468 661.655,460.448 661.846 C 461.588 662.066,462.069 661.706,461.782 660.846 C 461.536 660.105,460.532 659.345,459.552 659.154 C 458.412 658.934,457.931 659.294,458.218 660.154 M161.475 667.575 C 165.568 670.257,162.424 673.267,158.250 670.662 C 156.745 669.723,156.573 666.000,158.035 666.000 C 158.605 666.000,160.152 666.709,161.475 667.575 M341.500 671.000 C 342.626 672.822,340.956 674.099,339.436 672.579 C 338.646 671.789,338.000 670.886,338.000 670.571 C 338.000 669.596,340.848 669.945,341.500 671.000 M169.000 694.000 C 169.000 695.100,168.592 696.000,168.094 696.000 C 167.595 696.000,167.423 695.100,167.710 694.000 C 167.998 692.900,168.406 692.000,168.617 692.000 C 168.827 692.000,169.000 692.900,169.000 694.000 M329.000 693.559 C 329.000 694.416,328.550 694.840,328.000 694.500 C 327.450 694.160,327.000 693.459,327.000 692.941 C 327.000 692.423,327.450 692.000,328.000 692.000 C 328.550 692.000,329.000 692.702,329.000 693.559 M176.000 694.441 C 176.000 695.234,175.550 696.160,175.000 696.500 C 174.450 696.840,174.000 696.191,174.000 695.059 C 174.000 693.927,174.450 693.000,175.000 693.000 C 175.550 693.000,176.000 693.648,176.000 694.441 M449.001 701.399 C 448.222 702.178,447.665 702.077,447.024 701.039 C 445.768 699.007,446.888 697.662,448.631 699.109 C 449.675 699.976,449.779 700.621,449.001 701.399 M180.000 700.500 C 180.000 701.325,179.577 702.000,179.059 702.000 C 177.798 702.000,176.895 700.438,177.694 699.639 C 178.820 698.513,180.000 698.954,180.000 700.500 M96.689 728.750 C 96.438 729.712,96.232 728.925,96.232 727.000 C 96.232 725.075,96.438 724.288,96.689 725.250 C 96.941 726.212,96.941 727.788,96.689 728.750 M466.457 726.931 C 467.197 728.128,465.316 729.313,463.984 728.490 C 462.865 727.799,463.600 726.000,465.000 726.000 C 465.485 726.000,466.141 726.419,466.457 726.931 M91.000 732.500 C 91.754 733.408,91.834 734.000,91.204 734.000 C 89.367 734.000,87.000 732.814,87.000 731.893 C 87.000 730.462,89.641 730.863,91.000 732.500 M215.000 736.000 C 215.000 736.550,214.802 737.000,214.559 737.000 C 214.316 737.000,213.840 736.550,213.500 736.000 C 213.160 735.450,213.359 735.000,213.941 735.000 C 214.523 735.000,215.000 735.450,215.000 736.000 M94.729 736.604 C 94.397 736.936,93.534 736.972,92.813 736.683 C 92.015 736.364,92.252 736.127,93.417 736.079 C 94.471 736.036,95.061 736.272,94.729 736.604 M212.000 737.000 C 212.000 737.550,211.802 738.000,211.559 738.000 C 211.316 738.000,210.840 737.550,210.500 737.000 C 210.160 736.450,210.359 736.000,210.941 736.000 C 211.523 736.000,212.000 736.450,212.000 737.000 M97.000 739.787 C 97.000 740.220,96.100 740.642,95.000 740.725 C 93.900 740.808,93.000 740.454,93.000 739.938 C 93.000 739.422,93.900 739.000,95.000 739.000 C 96.100 739.000,97.000 739.354,97.000 739.787 M214.000 741.559 C 214.000 742.416,213.550 742.840,213.000 742.500 C 212.450 742.160,212.000 741.459,212.000 740.941 C 212.000 740.423,212.450 740.000,213.000 740.000 C 213.550 740.000,214.000 740.702,214.000 741.559 M217.466 744.850 C 216.902 745.443,215.000 743.940,215.000 742.902 C 215.000 742.362,215.630 742.501,216.399 743.211 C 217.169 743.920,217.649 744.658,217.466 744.850 M323.662 747.250 C 323.385 747.938,323.158 747.375,323.158 746.000 C 323.158 744.625,323.385 744.063,323.662 744.750 C 323.940 745.438,323.940 746.563,323.662 747.250 M220.500 747.000 C 220.840 747.550,220.416 748.000,219.559 748.000 C 218.702 748.000,218.000 747.550,218.000 747.000 C 218.000 746.450,218.423 746.000,218.941 746.000 C 219.459 746.000,220.160 746.450,220.500 747.000 M265.000 755.500 C 265.000 756.325,264.550 757.000,264.000 757.000 C 263.450 757.000,263.000 756.325,263.000 755.500 C 263.000 754.675,263.450 754.000,264.000 754.000 C 264.550 754.000,265.000 754.675,265.000 755.500 M322.447 758.085 C 322.125 758.606,321.436 758.769,320.915 758.447 C 320.394 758.125,320.231 757.436,320.553 756.915 C 320.875 756.394,321.564 756.231,322.085 756.553 C 322.606 756.875,322.769 757.564,322.447 758.085 M98.662 771.250 C 98.385 771.938,98.158 771.375,98.158 770.000 C 98.158 768.625,98.385 768.063,98.662 768.750 C 98.940 769.438,98.940 770.563,98.662 771.250 M347.000 770.000 C 347.000 770.550,346.550 771.000,346.000 771.000 C 345.450 771.000,345.000 770.550,345.000 770.000 C 345.000 769.450,345.450 769.000,346.000 769.000 C 346.550 769.000,347.000 769.450,347.000 770.000 " stroke="none" fill="black" fill-rule="evenodd"/></svg>